<svg xmlns="http://www.w3.org/2000/svg" xmlns:xlink="http://www.w3.org/1999/xlink" width="51" height="51" viewBox="0 0 51 51">
  <defs>
    <clipPath id="clip-path">
      <rect id="Rectángulo_373758" data-name="Rectángulo 373758" width="51" height="51" transform="translate(775 2161)" fill="#006a76"/>
    </clipPath>
    <clipPath id="clip-path-2">
      <path id="path4035" d="M0-51H51V0H0Z" fill="#006a76"/>
    </clipPath>
  </defs>
  <g id="Enmascarar_grupo_1059025" data-name="Enmascarar grupo 1059025" transform="translate(-775 -2161)" clip-path="url(#clip-path)">
    <g id="g4029" transform="translate(775 2212)">
      <g id="g4031">
        <g id="g4033" clip-path="url(#clip-path-2)">
          <g id="g4039" transform="translate(37.554 -5.015)">
            <path id="path4041" d="M0,0V4.268H8.337V-5.708" fill="none" stroke="#006a76" stroke-linecap="round" stroke-linejoin="round" stroke-miterlimit="10" stroke-width="1.494"/>
          </g>
          <g id="g4043" transform="translate(13.446 -5.015)">
            <path id="path4045" d="M0,0V4.268H-8.337V-5.819" fill="none" stroke="#006a76" stroke-linecap="round" stroke-linejoin="round" stroke-miterlimit="10" stroke-width="1.494"/>
          </g>
        </g>
      </g>
      <g id="g4047" transform="translate(34.523 -11.036)">
        <path id="path4049" d="M0,0H-17.933" fill="none" stroke="#006a76" stroke-linecap="round" stroke-linejoin="round" stroke-miterlimit="10" stroke-width="1.494"/>
      </g>
      <g id="g4051">
        <g id="g4053" clip-path="url(#clip-path-2)">
          <g id="g4059" transform="translate(50.253 -14.068)">
            <path id="path4061" d="M0,0V1.439A1.594,1.594,0,0,1-1.594,3.032H-10" fill="none" stroke="#006a76" stroke-linecap="round" stroke-linejoin="round" stroke-miterlimit="10" stroke-width="1.494"/>
          </g>
          <g id="g4063" transform="translate(14.377 -50.253)">
            <path id="path4065" d="M0,0H34.282a1.594,1.594,0,0,1,1.594,1.594V32.811" fill="none" stroke="#006a76" stroke-linecap="round" stroke-linejoin="round" stroke-miterlimit="10" stroke-width="1.494"/>
          </g>
          <g id="g4067" transform="translate(10.731 -11.036)">
            <path id="path4069" d="M0,0H-8.39A1.594,1.594,0,0,1-9.984-1.594v-36.03A1.594,1.594,0,0,1-8.39-39.217H.132" fill="none" stroke="#006a76" stroke-linecap="round" stroke-linejoin="round" stroke-miterlimit="10" stroke-width="1.494"/>
          </g>
          <g id="g4071" transform="translate(7.989 -8.19)">
            <path id="path4073" d="M0,0A8.006,8.006,0,0,1,3.972-3.339C6.694-4.352,5.4-8.862,7.153-9.226s1.567,3.149,1.218,6.3S6.534,3.56,3.353,3.56" fill="none" stroke="#006a76" stroke-linecap="round" stroke-linejoin="round" stroke-miterlimit="10" stroke-width="1.494"/>
          </g>
          <g id="g4075" transform="translate(43.011 -8.19)">
            <path id="path4077" d="M0,0A8.006,8.006,0,0,0-3.972-3.339C-6.694-4.352-5.4-8.862-7.153-9.226s-1.567,3.149-1.218,6.3S-6.534,3.56-3.353,3.56" fill="none" stroke="#006a76" stroke-linecap="round" stroke-linejoin="round" stroke-miterlimit="10" stroke-width="1.494"/>
          </g>
          <g id="g4079" transform="translate(31.85 -37.406)">
            <path id="path4081" d="M0,0A5.118,5.118,0,0,1,10.235,0,5.123,5.123,0,0,1,5.118,5.118,5.123,5.123,0,0,1,0,0ZM13.224,0A8.106,8.106,0,0,0-2.988,0,8.119,8.119,0,0,0,3.624,7.968v2.873h-2.3a1.494,1.494,0,0,0,0,2.988h2.3V16a1.494,1.494,0,1,0,2.988,0v-2.17h2.3a1.494,1.494,0,0,0,0-2.988h-2.3V7.968A8.12,8.12,0,0,0,13.224,0Z" fill="none" stroke="#006a76" stroke-linecap="round" stroke-linejoin="round" stroke-miterlimit="10" stroke-width="1.494"/>
          </g>
          <g id="g4083" transform="translate(19.145 -23.379)">
            <path id="path4085" d="M0,0A5.774,5.774,0,0,1-5.767-5.767,5.774,5.774,0,0,1,0-11.534,5.774,5.774,0,0,1,5.767-5.767,5.774,5.774,0,0,1,0,0ZM0-14.522a8.707,8.707,0,0,0-5.042,1.6l-3.392-3.392h1.7a1.494,1.494,0,0,0,1.494-1.494A1.494,1.494,0,0,0-6.731-19.3h-5.31a1.494,1.494,0,0,0-1.494,1.494v5.336a1.494,1.494,0,0,0,1.494,1.494,1.494,1.494,0,0,0,1.494-1.494V-14.2l3.392,3.392a8.707,8.707,0,0,0-1.6,5.041A8.765,8.765,0,0,0,0,2.988,8.765,8.765,0,0,0,8.755-5.767,8.765,8.765,0,0,0,0-14.522Z" fill="none" stroke="#006a76" stroke-linecap="round" stroke-linejoin="round" stroke-miterlimit="10" stroke-width="1.494"/>
          </g>
        </g>
      </g>
    </g>
  </g>
</svg>
