<svg xmlns="http://www.w3.org/2000/svg" xmlns:xlink="http://www.w3.org/1999/xlink" width="51" height="51" viewBox="0 0 51 51">
  <defs>
    <clipPath id="clip-path">
      <rect id="Rectángulo_373759" data-name="Rectángulo 373759" width="51" height="51" transform="translate(1023 2161)" fill="#006a76"/>
    </clipPath>
  </defs>
  <g id="Enmascarar_grupo_1059026" data-name="Enmascarar grupo 1059026" transform="translate(-1023 -2161)" clip-path="url(#clip-path)">
    <g id="destacar" transform="translate(1023 2161)">
      <path id="Trazado_797919" data-name="Trazado 797919" d="M44.653,44.5h-.859v-2.18a1.933,1.933,0,0,0-1.931-1.931H38.213l-1.008-2.711a1.932,1.932,0,0,0-.971-1.063L38.8,18.966a.747.747,0,0,0-1.479-.215L34.95,35.067,33.375,32.79a.747.747,0,1,0-1.229.85l1.927,2.787H30.892l-.664-3.872,3.024-2.948a1.208,1.208,0,0,0-.67-2.061l-4.18-.607L26.534,23.15a1.208,1.208,0,0,0-2.167,0l-1.191,2.413a.747.747,0,1,0,1.34.661l.934-1.893,1.679,3.4a1.208,1.208,0,0,0,.91.661l3.755.546-2.718,2.649a1.209,1.209,0,0,0-.347,1.069l.575,3.353-3.12-2.392a1.21,1.21,0,0,0-1.471,0L21.6,36.012l.575-3.353a1.209,1.209,0,0,0-.348-1.069L19.105,28.94,21.45,28.6a.747.747,0,1,0-.215-1.478l-2.918.424a1.208,1.208,0,0,0-.67,2.061l3.024,2.948-.664,3.872H16.926L18.813,33.7a.747.747,0,0,0-1.229-.85L16.05,35.067,12.587,11.233l3.094-1.4,7.707,11.143a.747.747,0,1,0,1.229-.85L16.94,9.026a1.8,1.8,0,0,0,.2-1.823L14.563,1.494h1.419a.747.747,0,1,0,0-1.494H4.287a.747.747,0,0,0,0,1.494H5.6L7.242,5.129l-1.236.559A1.444,1.444,0,0,0,5.285,7.6l.58,1.282a1.444,1.444,0,0,0,1.91.721l1.236-.559.69,1.526a1.782,1.782,0,0,0,1,.939,1.8,1.8,0,0,0,.43.1l3.627,24.966a1.934,1.934,0,0,0-1.064,1.1l-1.008,2.711H9.037a1.933,1.933,0,0,0-1.931,1.931V44.5H6.247a1.826,1.826,0,0,0-1.824,1.824v2.847A1.826,1.826,0,0,0,6.247,51H44.653a1.826,1.826,0,0,0,1.824-1.824V46.329A1.826,1.826,0,0,0,44.653,44.5Zm-19.2-9.566,1.941,1.488H23.51ZM12.923,1.494l1.746,3.861L9.949,7.489l-2.711-6ZM7.205,8.219,6.667,7.029,7.858,6.49,8.4,7.681Zm3.359.631,4.72-2.134.5,1.1a.3.3,0,0,1-.15.4L11.46,10.1a.3.3,0,0,1-.4-.15ZM15.1,38.2a.435.435,0,0,1,.406-.282H35.4a.435.435,0,0,1,.406.282l.814,2.191H14.281ZM44.983,49.176a.331.331,0,0,1-.33.33H6.247a.331.331,0,0,1-.33-.33V46.329a.33.33,0,0,1,.33-.33h3.928a.747.747,0,1,0,0-1.494H8.6v-2.18a.437.437,0,0,1,.437-.437H41.863a.437.437,0,0,1,.437.437V44.5H13.359a.747.747,0,1,0,0,1.494H44.653a.331.331,0,0,1,.33.33Z" fill="#006a76"/>
      <path id="Trazado_797920" data-name="Trazado 797920" d="M46.713,0h-11.7a.747.747,0,0,0,0,1.494h1.419L33.855,7.2a1.782,1.782,0,0,0-.044,1.372,1.8,1.8,0,0,0,.249.451l-7.7,11.137a.747.747,0,1,0,1.229.85L35.319,9.833l3.094,1.4-.633,4.357a.747.747,0,0,0,.632.847.756.756,0,0,0,.108.008.747.747,0,0,0,.738-.64l.609-4.193a1.8,1.8,0,0,0,.43-.1,1.782,1.782,0,0,0,1-.939l.69-1.526,1.236.559a1.444,1.444,0,0,0,1.91-.721l.58-1.282a1.444,1.444,0,0,0-.721-1.91l-1.236-.559L45.4,1.494h1.311a.747.747,0,0,0,0-1.494ZM39.937,9.953a.3.3,0,0,1-.4.15L35.366,8.215a.3.3,0,0,1-.15-.4l.5-1.1,4.72,2.134Zm4.4-2.924-.538,1.191L42.6,7.681l.538-1.191Zm-3.282.46-4.72-2.134,1.746-3.861h5.685Z" fill="#006a76"/>
      <path id="Trazado_797921" data-name="Trazado 797921" d="M41.812,25.068l2.485.312a1.373,1.373,0,0,0,.169.011,1.344,1.344,0,0,0,1.322-1.11,3.681,3.681,0,0,0-1.456-3.762,1.325,1.325,0,0,0-1.007-.259,1.355,1.355,0,0,0-.9.546l-1.541,2.144a1.344,1.344,0,0,0,.924,2.119Zm1.738-3.262a2.14,2.14,0,0,1,.789,2.074l-2.091-.263Z" fill="#006a76"/>
      <path id="Trazado_797922" data-name="Trazado 797922" d="M40.119,28.261a1.252,1.252,0,0,0-.175,1.236l.795,2.01a1.261,1.261,0,0,0,1.579.732A3.274,3.274,0,0,0,44.629,29.5a1.244,1.244,0,0,0-.241-.947,1.273,1.273,0,0,0-.855-.492l-2.262-.277a1.251,1.251,0,0,0-1.153.481ZM43.1,29.51a1.725,1.725,0,0,1-1.06,1.236l-.567-1.435Z" fill="#006a76"/>
      <path id="Trazado_797923" data-name="Trazado 797923" d="M8.571,20.806a1.355,1.355,0,0,0-.9-.546,1.324,1.324,0,0,0-1.007.259,3.681,3.681,0,0,0-1.456,3.762A1.343,1.343,0,0,0,6.7,25.38l2.485-.312a1.344,1.344,0,0,0,.924-2.119h0ZM6.661,23.88a2.14,2.14,0,0,1,.789-2.074l1.3,1.811Z" fill="#006a76"/>
      <path id="Trazado_797924" data-name="Trazado 797924" d="M9.728,27.78l-2.262.277a1.273,1.273,0,0,0-.855.492,1.244,1.244,0,0,0-.241.947A3.274,3.274,0,0,0,8.682,32.24a1.261,1.261,0,0,0,1.579-.732l.795-2.01A1.262,1.262,0,0,0,9.728,27.78Zm-.773,2.966A1.725,1.725,0,0,1,7.9,29.51l1.628-.2Z" fill="#006a76"/>
    </g>
  </g>
</svg>
