<svg xmlns="http://www.w3.org/2000/svg" xmlns:xlink="http://www.w3.org/1999/xlink" width="51" height="51" viewBox="0 0 51 51">
  <defs>
    <clipPath id="clip-path">
      <rect id="Rectángulo_373760" data-name="Rectángulo 373760" width="51" height="51" transform="translate(1270 2161)" fill="#006a76"/>
    </clipPath>
    <clipPath id="clip-path-2">
      <path id="path777" d="M0-51H51V0H0Z" fill="#006a76"/>
    </clipPath>
  </defs>
  <g id="Enmascarar_grupo_1059027" data-name="Enmascarar grupo 1059027" transform="translate(-1270 -2161)" clip-path="url(#clip-path)">
    <g id="g771" transform="translate(1270 2212)">
      <g id="g773">
        <g id="g775" clip-path="url(#clip-path-2)">
          <g id="g781" transform="translate(4.687 -34.565)">
            <path id="path783" d="M0,0A8.988,8.988,0,0,0,7.029,3.1" fill="none" stroke="#006a76" stroke-linecap="round" stroke-linejoin="round" stroke-miterlimit="10" stroke-width="1.494"/>
          </g>
          <g id="g785" transform="translate(8.181 -32.094)">
            <path id="path787" d="M0,0A4.771,4.771,0,0,0,.807,4.162" fill="none" stroke="#006a76" stroke-linecap="round" stroke-linejoin="round" stroke-miterlimit="10" stroke-width="1.494"/>
          </g>
          <g id="g789" transform="translate(2.379 -16.572)">
            <path id="path791" d="M0,0C2.727-3.688,7.2-1.262,8.907-4.014" fill="none" stroke="#006a76" stroke-linecap="round" stroke-linejoin="round" stroke-miterlimit="10" stroke-width="1.494"/>
          </g>
          <g id="g793" transform="translate(6.586 -18.848)">
            <path id="path795" d="M0,0A6.2,6.2,0,0,1,0-4.732" fill="none" stroke="#006a76" stroke-linecap="round" stroke-linejoin="round" stroke-miterlimit="10" stroke-width="1.494"/>
          </g>
          <g id="g797" transform="translate(45.552 -35.648)">
            <path id="path799" d="M0,0C-2.762,3.178-6.993.972-8.655,3.624" fill="none" stroke="#006a76" stroke-linecap="round" stroke-linejoin="round" stroke-miterlimit="10" stroke-width="1.494"/>
          </g>
          <g id="g801" transform="translate(41.607 -33.736)">
            <path id="path803" d="M0,0A6.2,6.2,0,0,1-.026,4.732" fill="none" stroke="#006a76" stroke-linecap="round" stroke-linejoin="round" stroke-miterlimit="10" stroke-width="1.494"/>
          </g>
          <g id="g805" transform="translate(15.163 -43.075)">
            <path id="path807" d="M0,0A9.161,9.161,0,0,0-3.161,4.06h-.015a9.228,9.228,0,0,0-8.34,11.471l0,.013-.014.011q-.1.087-.2.175c-5.516,4.867-1.949,14,5.407,14H17.664A2.6,2.6,0,0,0,15.143,26.5h0a1.061,1.061,0,0,1-1.061-1.061V22.152a1.061,1.061,0,0,1,1.061-1.061H19.5V20.03a2.6,2.6,0,0,1,5.2,0v1.061h4.353a1.061,1.061,0,0,1,1.061,1.061v3.292A1.061,1.061,0,0,1,29.046,26.5a2.6,2.6,0,0,0-2.521,3.228H27a7.89,7.89,0,0,0,5.748-2.393" fill="none" stroke="#006a76" stroke-linecap="round" stroke-linejoin="round" stroke-miterlimit="10" stroke-width="1.494"/>
          </g>
          <g id="g809" transform="translate(49.597 -18.284)">
            <path id="path811" d="M0,0A7.812,7.812,0,0,0-2.029-9.059q-.1-.089-.2-.175l-.014-.011,0-.017a9.224,9.224,0,0,0-8.34-11.466H-10.6a8.807,8.807,0,0,0-13.064-4.658l-.434.275,0,0a9.177,9.177,0,0,0-7.487-1.061" fill="none" stroke="#006a76" stroke-linecap="round" stroke-linejoin="round" stroke-miterlimit="10" stroke-width="1.494"/>
          </g>
          <g id="g813" transform="translate(29.245 -19.51)">
            <path id="path815" d="M0,0V-1.413A1.061,1.061,0,0,1,1.061-2.474H2.275V-4.353A1.061,1.061,0,0,0,1.214-5.414a2.6,2.6,0,0,1-2.6-2.6,2.6,2.6,0,0,1,2.6-2.6,1.061,1.061,0,0,0,1.061-1.061v-3.292a1.061,1.061,0,0,0-1.061-1.061H-3.139v-1.061a2.6,2.6,0,0,0-2.6-2.6,2.6,2.6,0,0,0-2.6,2.6v1.061h-4.353a1.061,1.061,0,0,0-1.061,1.061v3.292a1.061,1.061,0,0,0,1.061,1.061,2.6,2.6,0,0,1,2.6,2.6,2.6,2.6,0,0,1-2.6,2.6A1.061,1.061,0,0,0-13.75-4.353v3.292A1.061,1.061,0,0,0-12.689,0h4.353V-1.061a2.6,2.6,0,0,1,2.6-2.6,2.6,2.6,0,0,1,2.6,2.6V0Z" fill="none" stroke="#006a76" stroke-linecap="round" stroke-linejoin="round" stroke-miterlimit="10" stroke-width="1.494"/>
          </g>
          <g id="g817" transform="translate(44.209 -16.57)">
            <path id="path819" d="M0,0H0A1.061,1.061,0,0,0,1.061-1.061V-4.353A1.061,1.061,0,0,0,0-5.414H-4.353V-6.475a2.6,2.6,0,0,0-2.6-2.6,2.6,2.6,0,0,0-2.6,2.6v1.061H-13.9a1.061,1.061,0,0,0-1.061,1.061v3.292A1.061,1.061,0,0,0-13.9,0h0a2.6,2.6,0,0,1,2.6,2.6,2.6,2.6,0,0,1-2.6,2.6h0a1.061,1.061,0,0,0-1.061,1.061V9.55A1.061,1.061,0,0,0-13.9,10.611H-9.55V9.55a2.6,2.6,0,0,1,2.6-2.6,2.6,2.6,0,0,1,2.6,2.6v1.061H0A1.061,1.061,0,0,0,1.061,9.55V6.258A1.061,1.061,0,0,0,0,5.2,2.6,2.6,0,0,1-2.6,2.6,2.6,2.6,0,0,1,0,0Z" fill="none" stroke="#006a76" stroke-linecap="round" stroke-linejoin="round" stroke-miterlimit="10" stroke-width="1.494"/>
          </g>
        </g>
      </g>
    </g>
  </g>
</svg>
