<svg xmlns="http://www.w3.org/2000/svg" xmlns:xlink="http://www.w3.org/1999/xlink" width="467.697" height="375.64" viewBox="0 0 467.697 375.64">
  <defs>
    <clipPath id="clip-path">
      <rect id="Rectángulo_373667" data-name="Rectángulo 373667" width="467.697" height="375.639" fill="none"/>
    </clipPath>
    <clipPath id="clip-path-3">
      <rect id="Rectángulo_373579" data-name="Rectángulo 373579" width="10.429" height="10.428" fill="none"/>
    </clipPath>
    <clipPath id="clip-path-4">
      <rect id="Rectángulo_373580" data-name="Rectángulo 373580" width="12.033" height="12.033" fill="none"/>
    </clipPath>
    <clipPath id="clip-path-6">
      <rect id="Rectángulo_373582" data-name="Rectángulo 373582" width="4.011" height="4.011" fill="none"/>
    </clipPath>
    <clipPath id="clip-path-7">
      <rect id="Rectángulo_373583" data-name="Rectángulo 373583" width="7.22" height="7.22" fill="none"/>
    </clipPath>
    <clipPath id="clip-path-8">
      <rect id="Rectángulo_373584" data-name="Rectángulo 373584" width="44.547" height="51.772" fill="none"/>
    </clipPath>
    <clipPath id="clip-path-9">
      <rect id="Rectángulo_373585" data-name="Rectángulo 373585" width="7.785" height="18.644" fill="none"/>
    </clipPath>
    <clipPath id="clip-path-10">
      <rect id="Rectángulo_373586" data-name="Rectángulo 373586" width="7.027" height="6.396" fill="none"/>
    </clipPath>
    <clipPath id="clip-path-11">
      <rect id="Rectángulo_373587" data-name="Rectángulo 373587" width="13.3" height="16.975" fill="none"/>
    </clipPath>
    <clipPath id="clip-path-12">
      <rect id="Rectángulo_373588" data-name="Rectángulo 373588" width="4.201" height="5.923" fill="none"/>
    </clipPath>
    <clipPath id="clip-path-13">
      <rect id="Rectángulo_373589" data-name="Rectángulo 373589" width="2.397" height="3.225" fill="none"/>
    </clipPath>
    <clipPath id="clip-path-14">
      <rect id="Rectángulo_373590" data-name="Rectángulo 373590" width="41.239" height="29.997" fill="none"/>
    </clipPath>
    <clipPath id="clip-path-15">
      <rect id="Rectángulo_373591" data-name="Rectángulo 373591" width="5.81" height="3.506" fill="none"/>
    </clipPath>
    <clipPath id="clip-path-16">
      <rect id="Rectángulo_373592" data-name="Rectángulo 373592" width="8.006" height="8.645" fill="none"/>
    </clipPath>
    <clipPath id="clip-path-17">
      <rect id="Rectángulo_373593" data-name="Rectángulo 373593" width="29.747" height="8.021" fill="none"/>
    </clipPath>
    <clipPath id="clip-path-18">
      <rect id="Rectángulo_373594" data-name="Rectángulo 373594" width="9.195" height="3.174" fill="none"/>
    </clipPath>
    <clipPath id="clip-path-19">
      <rect id="Rectángulo_373595" data-name="Rectángulo 373595" width="9.072" height="26.97" fill="none"/>
    </clipPath>
    <clipPath id="clip-path-20">
      <rect id="Rectángulo_373596" data-name="Rectángulo 373596" width="2.453" height="4.966" fill="none"/>
    </clipPath>
    <clipPath id="clip-path-21">
      <rect id="Rectángulo_373597" data-name="Rectángulo 373597" width="1.982" height="2.098" fill="none"/>
    </clipPath>
    <clipPath id="clip-path-22">
      <rect id="Rectángulo_373598" data-name="Rectángulo 373598" width="55.101" height="31.547" fill="none"/>
    </clipPath>
    <clipPath id="clip-path-23">
      <rect id="Rectángulo_373599" data-name="Rectángulo 373599" width="14.218" height="8.421" fill="none"/>
    </clipPath>
    <clipPath id="clip-path-24">
      <rect id="Rectángulo_373600" data-name="Rectángulo 373600" width="5.977" height="2.56" fill="none"/>
    </clipPath>
    <clipPath id="clip-path-25">
      <rect id="Rectángulo_373601" data-name="Rectángulo 373601" width="149.585" height="40.111" fill="none"/>
    </clipPath>
    <clipPath id="clip-path-26">
      <rect id="Rectángulo_373602" data-name="Rectángulo 373602" width="18.068" height="16.02" fill="none"/>
    </clipPath>
    <clipPath id="clip-path-27">
      <rect id="Rectángulo_373603" data-name="Rectángulo 373603" width="2.585" height="6.676" fill="none"/>
    </clipPath>
    <clipPath id="clip-path-28">
      <rect id="Rectángulo_373604" data-name="Rectángulo 373604" width="2.288" height="3.052" fill="none"/>
    </clipPath>
    <clipPath id="clip-path-29">
      <rect id="Rectángulo_373605" data-name="Rectángulo 373605" width="29.709" height="16.626" fill="none"/>
    </clipPath>
    <clipPath id="clip-path-30">
      <rect id="Rectángulo_373606" data-name="Rectángulo 373606" width="3.415" height="2.979" fill="none"/>
    </clipPath>
    <clipPath id="clip-path-31">
      <rect id="Rectángulo_373607" data-name="Rectángulo 373607" width="4.659" height="4.668" fill="none"/>
    </clipPath>
    <clipPath id="clip-path-32">
      <rect id="Rectángulo_373608" data-name="Rectángulo 373608" width="18.22" height="6.309" fill="none"/>
    </clipPath>
    <clipPath id="clip-path-33">
      <rect id="Rectángulo_373609" data-name="Rectángulo 373609" width="5.91" height="21.417" fill="none"/>
    </clipPath>
    <clipPath id="clip-path-34">
      <rect id="Rectángulo_373610" data-name="Rectángulo 373610" width="26.964" height="16.638" fill="none"/>
    </clipPath>
    <clipPath id="clip-path-35">
      <rect id="Rectángulo_373611" data-name="Rectángulo 373611" width="5.484" height="2.701" fill="none"/>
    </clipPath>
    <clipPath id="clip-path-36">
      <rect id="Rectángulo_373612" data-name="Rectángulo 373612" width="2.251" height="7.85" fill="none"/>
    </clipPath>
    <clipPath id="clip-path-37">
      <rect id="Rectángulo_373613" data-name="Rectángulo 373613" width="8.341" height="3.723" fill="none"/>
    </clipPath>
    <clipPath id="clip-path-38">
      <rect id="Rectángulo_373614" data-name="Rectángulo 373614" width="28.843" height="14.804" fill="none"/>
    </clipPath>
    <clipPath id="clip-path-39">
      <rect id="Rectángulo_373615" data-name="Rectángulo 373615" width="2.896" height="6.848" fill="none"/>
    </clipPath>
    <clipPath id="clip-path-40">
      <rect id="Rectángulo_373616" data-name="Rectángulo 373616" width="2.945" height="2.55" fill="none"/>
    </clipPath>
    <clipPath id="clip-path-41">
      <rect id="Rectángulo_373617" data-name="Rectángulo 373617" width="3.45" height="1.932" fill="none"/>
    </clipPath>
    <clipPath id="clip-path-42">
      <rect id="Rectángulo_373618" data-name="Rectángulo 373618" width="11.499" height="4.516" fill="none"/>
    </clipPath>
    <clipPath id="clip-path-43">
      <rect id="Rectángulo_373619" data-name="Rectángulo 373619" width="3.873" height="4.476" fill="none"/>
    </clipPath>
    <clipPath id="clip-path-44">
      <rect id="Rectángulo_373620" data-name="Rectángulo 373620" width="3.135" height="5.311" fill="none"/>
    </clipPath>
    <clipPath id="clip-path-45">
      <rect id="Rectángulo_373621" data-name="Rectángulo 373621" width="8.425" height="4.35" fill="none"/>
    </clipPath>
    <clipPath id="clip-path-46">
      <rect id="Rectángulo_373622" data-name="Rectángulo 373622" width="3.223" height="2.758" fill="none"/>
    </clipPath>
    <clipPath id="clip-path-47">
      <rect id="Rectángulo_373623" data-name="Rectángulo 373623" width="14.368" height="4.964" fill="none"/>
    </clipPath>
    <clipPath id="clip-path-48">
      <rect id="Rectángulo_373624" data-name="Rectángulo 373624" width="3.635" height="4.285" fill="none"/>
    </clipPath>
    <clipPath id="clip-path-49">
      <rect id="Rectángulo_373625" data-name="Rectángulo 373625" width="3.146" height="5.35" fill="none"/>
    </clipPath>
    <clipPath id="clip-path-50">
      <rect id="Rectángulo_373626" data-name="Rectángulo 373626" width="3.383" height="7.331" fill="none"/>
    </clipPath>
    <clipPath id="clip-path-51">
      <rect id="Rectángulo_373627" data-name="Rectángulo 373627" width="8.154" height="6.038" fill="none"/>
    </clipPath>
    <clipPath id="clip-path-52">
      <rect id="Rectángulo_373628" data-name="Rectángulo 373628" width="2.799" height="3.319" fill="none"/>
    </clipPath>
    <clipPath id="clip-path-53">
      <rect id="Rectángulo_373629" data-name="Rectángulo 373629" width="4.423" height="8.094" fill="none"/>
    </clipPath>
    <clipPath id="clip-path-54">
      <rect id="Rectángulo_373630" data-name="Rectángulo 373630" width="6.67" height="7.543" fill="none"/>
    </clipPath>
    <clipPath id="clip-path-55">
      <rect id="Rectángulo_373631" data-name="Rectángulo 373631" width="4.107" height="2.792" fill="none"/>
    </clipPath>
    <clipPath id="clip-path-56">
      <rect id="Rectángulo_373632" data-name="Rectángulo 373632" width="3.269" height="5.092" fill="none"/>
    </clipPath>
    <clipPath id="clip-path-57">
      <rect id="Rectángulo_373633" data-name="Rectángulo 373633" width="2.491" height="3.393" fill="none"/>
    </clipPath>
    <clipPath id="clip-path-58">
      <rect id="Rectángulo_373634" data-name="Rectángulo 373634" width="118.393" height="72.39" fill="none"/>
    </clipPath>
    <clipPath id="clip-path-59">
      <rect id="Rectángulo_373635" data-name="Rectángulo 373635" width="55.998" height="118.866" fill="none"/>
    </clipPath>
    <clipPath id="clip-path-60">
      <rect id="Rectángulo_373636" data-name="Rectángulo 373636" width="26.673" height="8.424" fill="none"/>
    </clipPath>
    <clipPath id="clip-path-61">
      <rect id="Rectángulo_373637" data-name="Rectángulo 373637" width="9.191" height="4.998" fill="none"/>
    </clipPath>
    <clipPath id="clip-path-62">
      <rect id="Rectángulo_373638" data-name="Rectángulo 373638" width="18.735" height="7.328" fill="none"/>
    </clipPath>
    <clipPath id="clip-path-63">
      <rect id="Rectángulo_373639" data-name="Rectángulo 373639" width="8.913" height="10.601" fill="none"/>
    </clipPath>
    <clipPath id="clip-path-64">
      <rect id="Rectángulo_373640" data-name="Rectángulo 373640" width="20.235" height="64.458" fill="none"/>
    </clipPath>
    <clipPath id="clip-path-65">
      <rect id="Rectángulo_373641" data-name="Rectángulo 373641" width="123.268" height="122.663" fill="none"/>
    </clipPath>
    <clipPath id="clip-path-66">
      <rect id="Rectángulo_373642" data-name="Rectángulo 373642" width="20.993" height="10.752" fill="none"/>
    </clipPath>
    <clipPath id="clip-path-67">
      <rect id="Rectángulo_373643" data-name="Rectángulo 373643" width="27.305" height="25.367" fill="none"/>
    </clipPath>
    <clipPath id="clip-path-68">
      <rect id="Rectángulo_373644" data-name="Rectángulo 373644" width="17.639" height="16.437" fill="none"/>
    </clipPath>
    <clipPath id="clip-path-69">
      <rect id="Rectángulo_373645" data-name="Rectángulo 373645" width="5.032" height="25.743" fill="none"/>
    </clipPath>
    <clipPath id="clip-path-70">
      <rect id="Rectángulo_373646" data-name="Rectángulo 373646" width="5.866" height="8.489" fill="none"/>
    </clipPath>
    <clipPath id="clip-path-71">
      <rect id="Rectángulo_373647" data-name="Rectángulo 373647" width="14.453" height="19.021" fill="none"/>
    </clipPath>
    <clipPath id="clip-path-72">
      <rect id="Rectángulo_373648" data-name="Rectángulo 373648" width="4.756" height="6.543" fill="none"/>
    </clipPath>
    <clipPath id="clip-path-73">
      <rect id="Rectángulo_373649" data-name="Rectángulo 373649" width="5.501" height="17.022" fill="none"/>
    </clipPath>
    <clipPath id="clip-path-74">
      <rect id="Rectángulo_373650" data-name="Rectángulo 373650" width="6.664" height="4.882" fill="none"/>
    </clipPath>
    <clipPath id="clip-path-75">
      <rect id="Rectángulo_373651" data-name="Rectángulo 373651" width="21.428" height="12.34" fill="none"/>
    </clipPath>
    <clipPath id="clip-path-76">
      <rect id="Rectángulo_373652" data-name="Rectángulo 373652" width="5.232" height="4.786" fill="none"/>
    </clipPath>
    <clipPath id="clip-path-77">
      <rect id="Rectángulo_373653" data-name="Rectángulo 373653" width="3.268" height="2.545" fill="none"/>
    </clipPath>
    <clipPath id="clip-path-78">
      <rect id="Rectángulo_373654" data-name="Rectángulo 373654" width="95.487" height="186.783" fill="none"/>
    </clipPath>
    <clipPath id="clip-path-79">
      <rect id="Rectángulo_373655" data-name="Rectángulo 373655" width="11.738" height="45.151" fill="none"/>
    </clipPath>
    <clipPath id="clip-path-80">
      <rect id="Rectángulo_373656" data-name="Rectángulo 373656" width="5.202" height="7.04" fill="none"/>
    </clipPath>
    <clipPath id="clip-path-81">
      <rect id="Rectángulo_373657" data-name="Rectángulo 373657" width="9.082" height="7.732" fill="none"/>
    </clipPath>
    <clipPath id="clip-path-82">
      <rect id="Rectángulo_373658" data-name="Rectángulo 373658" width="4.41" height="4.839" fill="none"/>
    </clipPath>
    <clipPath id="clip-path-83">
      <rect id="Rectángulo_373659" data-name="Rectángulo 373659" width="6.036" height="13.749" fill="none"/>
    </clipPath>
    <clipPath id="clip-path-84">
      <rect id="Rectángulo_373660" data-name="Rectángulo 373660" width="4.132" height="4.914" fill="none"/>
    </clipPath>
    <clipPath id="clip-path-85">
      <rect id="Rectángulo_373661" data-name="Rectángulo 373661" width="207.935" height="96.54" fill="none"/>
    </clipPath>
    <clipPath id="clip-path-86">
      <rect id="Rectángulo_373662" data-name="Rectángulo 373662" width="98.902" height="47.566" fill="none"/>
    </clipPath>
    <clipPath id="clip-path-87">
      <rect id="Rectángulo_373663" data-name="Rectángulo 373663" width="11.71" height="39.497" fill="none"/>
    </clipPath>
    <clipPath id="clip-path-88">
      <rect id="Rectángulo_373664" data-name="Rectángulo 373664" width="20.005" height="30.495" fill="none"/>
    </clipPath>
    <clipPath id="clip-path-89">
      <rect id="Rectángulo_373665" data-name="Rectángulo 373665" width="4.662" height="11.338" fill="none"/>
    </clipPath>
  </defs>
  <g id="Grupo_1064426" data-name="Grupo 1064426" transform="translate(-952.303 -4594.36)">
    <circle id="Elipse_4725" data-name="Elipse 4725" cx="140.5" cy="140.5" r="140.5" transform="translate(1034 4668)" fill="#8edee0" opacity="0.45"/>
    <g id="Grupo_1064425" data-name="Grupo 1064425" transform="translate(952.303 4594.36)">
      <g id="Grupo_1064424" data-name="Grupo 1064424" clip-path="url(#clip-path)">
        <g id="Grupo_1064423" data-name="Grupo 1064423" transform="translate(0 5)">
          <g id="Grupo_1064422" data-name="Grupo 1064422" clip-path="url(#clip-path)">
            <path id="Trazado_797434" data-name="Trazado 797434" d="M62.032,22.024c.926,0,1.126,5.418,2.527,7.451,1.221,1.773,5.768,2.991,5.768,4.082,0,1-4.313,1.284-5.8,3.1-1.262,1.538-2.095,6.774-2.973,6.774s-1.361-5.1-2.625-6.814S53.17,33.924,53.17,32.99c0-.952,4.5-1.9,5.789-3.529,1.622-2.039,2.05-7.437,3.073-7.437" transform="translate(-11.5 -4.763)" fill="#ffbb57"/>
            <path id="Trazado_797435" data-name="Trazado 797435" d="M110.5,350.572c.926,0,1.126,5.418,2.527,7.451,1.221,1.773,5.768,2.991,5.768,4.082,0,1-4.313,1.284-5.8,3.1-1.262,1.538-2.095,6.774-2.973,6.774s-1.361-5.1-2.625-6.814-5.759-2.689-5.759-3.623c0-.952,4.5-1.9,5.789-3.529,1.622-2.039,2.05-7.437,3.073-7.437" transform="translate(-21.983 -75.823)" fill="#ffbb57"/>
            <path id="Trazado_797436" data-name="Trazado 797436" d="M471.168,263.31c.926,0,1.126,5.418,2.527,7.451,1.221,1.773,5.768,2.991,5.768,4.082,0,1-4.313,1.284-5.8,3.1-1.262,1.538-2.095,6.774-2.973,6.774s-1.361-5.1-2.625-6.814-5.759-2.689-5.759-3.623c0-.952,4.5-1.9,5.789-3.529,1.622-2.039,2.05-7.437,3.073-7.437" transform="translate(-99.99 -56.95)" fill="#ffbb57"/>
            <path id="Trazado_797437" data-name="Trazado 797437" d="M4.11,93.23c.429,0,.522,2.512,1.172,3.455.566.822,2.674,1.387,2.674,1.893,0,.465-2,.6-2.689,1.436-.586.713-.973,3.141-1.379,3.141s-.632-2.366-1.217-3.16S0,98.747,0,98.315s2.085-.883,2.684-1.636c.752-.946.951-3.448,1.425-3.448" transform="translate(0 -20.164)" fill="#ffbb57"/>
            <path id="Trazado_797438" data-name="Trazado 797438" d="M181.855,312.714c.429,0,.522,2.512,1.172,3.455.566.822,2.674,1.387,2.674,1.893,0,.465-2,.6-2.689,1.436-.585.713-.972,3.141-1.379,3.141s-.631-2.366-1.217-3.16-2.67-1.247-2.67-1.68,2.085-.883,2.684-1.636c.752-.946.951-3.448,1.425-3.448" transform="translate(-38.444 -67.635)" fill="#ffbb57"/>
            <path id="Trazado_797439" data-name="Trazado 797439" d="M431.791,225.369c.429,0,.522,2.512,1.172,3.455.566.822,2.674,1.387,2.674,1.893,0,.465-2,.6-2.689,1.436-.585.713-.972,3.141-1.379,3.141s-.631-2.366-1.217-3.16-2.67-1.247-2.67-1.68,2.085-.883,2.684-1.636c.752-.946.951-3.448,1.425-3.448" transform="translate(-92.501 -48.744)" fill="#ffbb57"/>
            <g id="Grupo_1064163" data-name="Grupo 1064163" transform="translate(347.885 38.665)" style="mix-blend-mode: multiply;isolation: isolate">
              <g id="Grupo_1064162" data-name="Grupo 1064162">
                <g id="Grupo_1064161" data-name="Grupo 1064161" clip-path="url(#clip-path-3)">
                  <path id="Trazado_797440" data-name="Trazado 797440" d="M443.892,54.549a5.214,5.214,0,1,0,5.215-5.214,5.214,5.214,0,0,0-5.215,5.214" transform="translate(-443.892 -49.335)" fill="#eaf5ff"/>
                </g>
              </g>
            </g>
            <g id="Grupo_1064166" data-name="Grupo 1064166" transform="translate(12.254 304.643)" style="mix-blend-mode: multiply;isolation: isolate">
              <g id="Grupo_1064165" data-name="Grupo 1064165">
                <g id="Grupo_1064164" data-name="Grupo 1064164" clip-path="url(#clip-path-4)">
                  <path id="Trazado_797441" data-name="Trazado 797441" d="M15.635,394.733a6.017,6.017,0,1,0,6.017-6.017,6.016,6.016,0,0,0-6.017,6.017" transform="translate(-15.635 -388.716)" fill="#eaf5ff"/>
                </g>
              </g>
            </g>
            <g id="Grupo_1064169" data-name="Grupo 1064169" transform="translate(152.407)" style="mix-blend-mode: multiply;isolation: isolate">
              <g id="Grupo_1064168" data-name="Grupo 1064168">
                <g id="Grupo_1064167" data-name="Grupo 1064167" clip-path="url(#clip-path-4)">
                  <path id="Trazado_797442" data-name="Trazado 797442" d="M194.467,6.017A6.017,6.017,0,1,0,200.484,0a6.016,6.016,0,0,0-6.017,6.017" transform="translate(-194.467)" fill="#eaf5ff"/>
                </g>
              </g>
            </g>
            <g id="Grupo_1064172" data-name="Grupo 1064172" transform="translate(314.616 65.595)" style="mix-blend-mode: multiply;isolation: isolate">
              <g id="Grupo_1064171" data-name="Grupo 1064171">
                <g id="Grupo_1064170" data-name="Grupo 1064170" clip-path="url(#clip-path-6)">
                  <path id="Trazado_797443" data-name="Trazado 797443" d="M401.441,85.7a2.006,2.006,0,1,0,2.005-2,2.006,2.006,0,0,0-2.005,2" transform="translate(-401.441 -83.697)" fill="#eaf5ff"/>
                </g>
              </g>
            </g>
            <g id="Grupo_1064175" data-name="Grupo 1064175" transform="translate(163.237 57.496)" style="mix-blend-mode: multiply;isolation: isolate">
              <g id="Grupo_1064174" data-name="Grupo 1064174">
                <g id="Grupo_1064173" data-name="Grupo 1064173" clip-path="url(#clip-path-7)">
                  <path id="Trazado_797444" data-name="Trazado 797444" d="M208.286,76.974a3.61,3.61,0,1,0,3.61-3.61,3.61,3.61,0,0,0-3.61,3.61" transform="translate(-208.286 -73.363)" fill="#eaf5ff"/>
                </g>
              </g>
            </g>
            <path id="Trazado_797445" data-name="Trazado 797445" d="M107.722,97.211s-5.669-9.436-17.2-8.644c-9.782.672-15.953,9.417-15.293,19.024.73,10.612,10.064,24.335,35.451,32.7,24-11.762,31.371-26.633,30.642-37.246-.66-9.606-7.97-17.424-17.753-16.751-11.526.792-15.851,10.916-15.851,10.916" transform="translate(-16.261 -18.656)" fill="#ff57a0"/>
            <g id="Grupo_1064178" data-name="Grupo 1064178" transform="translate(58.924 69.865)" opacity="0.31" style="mix-blend-mode: multiply;isolation: isolate">
              <g id="Grupo_1064177" data-name="Grupo 1064177">
                <g id="Grupo_1064176" data-name="Grupo 1064176" clip-path="url(#clip-path-8)">
                  <path id="Trazado_797446" data-name="Trazado 797446" d="M90.527,89.193a18.432,18.432,0,0,1,7.108.869c2.285,16.645,10.84,32.436,22.1,45.795a92.026,92.026,0,0,1-9.048,5.06c-25.387-8.366-34.721-22.088-35.451-32.7-.661-9.606,5.512-18.351,15.293-19.023" transform="translate(-75.185 -89.146)" fill="#ff57a0"/>
                </g>
              </g>
            </g>
            <g id="Grupo_1064181" data-name="Grupo 1064181" transform="translate(112.961 82.01)" opacity="0.67" style="mix-blend-mode: soft-light;isolation: isolate">
              <g id="Grupo_1064180" data-name="Grupo 1064180">
                <g id="Grupo_1064179" data-name="Grupo 1064179" clip-path="url(#clip-path-9)">
                  <path id="Trazado_797447" data-name="Trazado 797447" d="M144.643,120.181a13.648,13.648,0,0,0,3.066-13.317c-.687-2.225,2.8-3.176,3.481-.96a17.346,17.346,0,0,1-3.995,16.829c-1.6,1.688-4.153-.868-2.553-2.553" transform="translate(-144.135 -104.643)" fill="#ffc1dc"/>
                </g>
              </g>
            </g>
            <g id="Grupo_1064184" data-name="Grupo 1064184" transform="translate(110.389 73.441)" opacity="0.67" style="mix-blend-mode: soft-light;isolation: isolate">
              <g id="Grupo_1064183" data-name="Grupo 1064183">
                <g id="Grupo_1064182" data-name="Grupo 1064182" clip-path="url(#clip-path-10)">
                  <path id="Trazado_797448" data-name="Trazado 797448" d="M144.52,99.207a5.858,5.858,0,0,0-.508-.785l.282.365a5.953,5.953,0,0,0-1.027-1.027l.365.282a5.936,5.936,0,0,0-1.3-.76l.432.182a6.228,6.228,0,0,0-.588-.208,1.884,1.884,0,0,1-1.079-.829,1.805,1.805,0,0,1,2.038-2.651,7.6,7.6,0,0,1,4.5,3.61,1.9,1.9,0,0,1,.183,1.391,1.844,1.844,0,0,1-.83,1.078,1.805,1.805,0,0,1-2.469-.647" transform="translate(-140.853 -93.709)" fill="#ffc1dc"/>
                </g>
              </g>
            </g>
            <path id="Trazado_797449" data-name="Trazado 797449" d="M485.7,201.332a6.427,6.427,0,0,1,5.841-2.64,5.673,5.673,0,0,1,4.828,6.541c-.389,3.522-3.684,7.96-12.248,10.394-7.825-4.245-10.072-9.295-9.684-12.816a5.672,5.672,0,0,1,6.138-5.33,6.427,6.427,0,0,1,5.125,3.85" transform="translate(-102.605 -42.705)" fill="#ff57a0"/>
            <g id="Grupo_1064187" data-name="Grupo 1064187" transform="translate(380.507 155.948)" opacity="0.31" style="mix-blend-mode: multiply;isolation: isolate">
              <g id="Grupo_1064186" data-name="Grupo 1064186">
                <g id="Grupo_1064185" data-name="Grupo 1064185" clip-path="url(#clip-path-11)">
                  <path id="Trazado_797450" data-name="Trazado 797450" d="M489.347,200.378a6.145,6.145,0,0,1,4.6-1.353,5.672,5.672,0,0,1,4.827,6.541c-.389,3.522-3.683,7.96-12.247,10.394-.353-.191-.682-.386-1.012-.581a53.126,53.126,0,0,0,3.83-15" transform="translate(-485.517 -198.985)" fill="#ff57a0"/>
                </g>
              </g>
            </g>
            <g id="Grupo_1064190" data-name="Grupo 1064190" transform="translate(373.621 161.582)" opacity="0.67" style="mix-blend-mode: soft-light;isolation: isolate">
              <g id="Grupo_1064189" data-name="Grupo 1064189">
                <g id="Grupo_1064188" data-name="Grupo 1064188" clip-path="url(#clip-path-12)">
                  <path id="Trazado_797451" data-name="Trazado 797451" d="M479.25,211.655a13.331,13.331,0,0,1-2.49-4.346.9.9,0,0,1,1.741-.48c.052.183.111.365.177.544.016.044.034.089.051.132.082.216-.05-.107,0,.015.039.086.078.173.118.259a10.333,10.333,0,0,0,.572,1.031c.422.672.9,1.3,1.385,1.933a.909.909,0,0,1,.091.7.9.9,0,0,1-1.65.216" transform="translate(-476.73 -206.174)" fill="#ffc1dc"/>
                </g>
              </g>
            </g>
            <g id="Grupo_1064193" data-name="Grupo 1064193" transform="translate(373.447 157.437)" opacity="0.67" style="mix-blend-mode: soft-light;isolation: isolate">
              <g id="Grupo_1064192" data-name="Grupo 1064192">
                <g id="Grupo_1064191" data-name="Grupo 1064191" clip-path="url(#clip-path-13)">
                  <path id="Trazado_797452" data-name="Trazado 797452" d="M476.509,203.208a3.713,3.713,0,0,1,.234-1,4.367,4.367,0,0,1,.257-.548,4.664,4.664,0,0,1,.365-.508,1.005,1.005,0,0,1,.638-.264.919.919,0,0,1,.639.264.907.907,0,0,1,.264.638c-.011.08-.022.16-.032.24a.907.907,0,0,1-.232.4c-.01.013-.02.025-.03.038l.141-.183a2.9,2.9,0,0,0-.361.619c.031-.072.061-.143.091-.216a2.858,2.858,0,0,0-.2.715c.01-.081.021-.161.032-.241,0,.016,0,.032-.006.048a1,1,0,0,1-.264.638.9.9,0,0,1-1.277,0l-.141-.183a.9.9,0,0,1-.123-.455" transform="translate(-476.509 -200.886)" fill="#ffc1dc"/>
                </g>
              </g>
            </g>
            <path id="Trazado_797453" data-name="Trazado 797453" d="M431.36,288.773s-34.283-2.311-41.239,30c0,0,33.957-1.292,41.239-30" transform="translate(-84.377 -62.449)" fill="#00b9b6"/>
            <g id="Grupo_1064196" data-name="Grupo 1064196" transform="translate(305.744 226.324)" opacity="0.27" style="mix-blend-mode: multiply;isolation: isolate">
              <g id="Grupo_1064195" data-name="Grupo 1064195">
                <g id="Grupo_1064194" data-name="Grupo 1064194" clip-path="url(#clip-path-14)">
                  <path id="Trazado_797454" data-name="Trazado 797454" d="M431.36,288.783a300.839,300.839,0,0,0-41.239,30s33.957-1.292,41.239-30" transform="translate(-390.121 -288.783)" fill="#00b9b6"/>
                </g>
              </g>
            </g>
            <g id="Grupo_1064199" data-name="Grupo 1064199" transform="translate(323.737 231.947)" opacity="0.57" style="mix-blend-mode: soft-light;isolation: isolate">
              <g id="Grupo_1064198" data-name="Grupo 1064198">
                <g id="Grupo_1064197" data-name="Grupo 1064197" clip-path="url(#clip-path-15)">
                  <path id="Trazado_797455" data-name="Trazado 797455" d="M418.234,297.737c-.338.118-.675.24-1.009.368q-.25.1-.5.2l-.248.1c-.038.016-.3.119-.1.042-.663.265-1.31.585-1.947.908a.9.9,0,1,1-.911-1.559,34.613,34.613,0,0,1,4.238-1.8.908.908,0,0,1,1.11.63.924.924,0,0,1-.63,1.111" transform="translate(-413.08 -295.958)" fill="#ade9e8"/>
                </g>
              </g>
            </g>
            <g id="Grupo_1064202" data-name="Grupo 1064202" transform="translate(314.081 235.985)" opacity="0.57" style="mix-blend-mode: soft-light;isolation: isolate">
              <g id="Grupo_1064201" data-name="Grupo 1064201">
                <g id="Grupo_1064200" data-name="Grupo 1064200" clip-path="url(#clip-path-16)">
                  <path id="Trazado_797456" data-name="Trazado 797456" d="M408.5,302.641a28.286,28.286,0,0,0-6.06,6.671.922.922,0,0,1-1.235.324.912.912,0,0,1-.324-1.234,29.778,29.778,0,0,1,6.342-7.037.932.932,0,0,1,1.277,0,.91.91,0,0,1,0,1.277" transform="translate(-400.759 -301.11)" fill="#ade9e8"/>
                </g>
              </g>
            </g>
            <path id="Trazado_797457" data-name="Trazado 797457" d="M431.406,342.582s-10.768-16.29-29.747-4.624c0,0,11.6,14.387,29.747,4.624" transform="translate(-86.873 -72.185)" fill="#00b9b6"/>
            <g id="Grupo_1064205" data-name="Grupo 1064205" transform="translate(314.786 265.773)" opacity="0.27" style="mix-blend-mode: multiply;isolation: isolate">
              <g id="Grupo_1064204" data-name="Grupo 1064204">
                <g id="Grupo_1064203" data-name="Grupo 1064203" clip-path="url(#clip-path-17)">
                  <path id="Trazado_797458" data-name="Trazado 797458" d="M431.406,343.743a225.385,225.385,0,0,0-29.747-4.624s11.6,14.387,29.747,4.624" transform="translate(-401.658 -339.119)" fill="#00b9b6"/>
                </g>
              </g>
            </g>
            <g id="Grupo_1064208" data-name="Grupo 1064208" transform="translate(327.05 263.385)" opacity="0.57" style="mix-blend-mode: soft-light;isolation: isolate">
              <g id="Grupo_1064207" data-name="Grupo 1064207">
                <g id="Grupo_1064206" data-name="Grupo 1064206" clip-path="url(#clip-path-18)">
                  <path id="Trazado_797459" data-name="Trazado 797459" d="M425.151,339.135a12.663,12.663,0,0,0-6.941-1.18.909.909,0,0,1-.9-.9.923.923,0,0,1,.9-.9,14.373,14.373,0,0,1,7.852,1.426.912.912,0,0,1,.324,1.235.922.922,0,0,1-1.235.324" transform="translate(-417.307 -336.072)" fill="#ade9e8"/>
                </g>
              </g>
            </g>
            <path id="Trazado_797460" data-name="Trazado 797460" d="M152.893,398.231s15.612,8.964,6.771,26.972c0,0-14.581-9.89-6.771-26.972" transform="translate(-32.571 -86.131)" fill="#00b9b6"/>
            <g id="Grupo_1064211" data-name="Grupo 1064211" transform="translate(118.021 312.1)" opacity="0.27" style="mix-blend-mode: multiply;isolation: isolate">
              <g id="Grupo_1064210" data-name="Grupo 1064210">
                <g id="Grupo_1064209" data-name="Grupo 1064209" clip-path="url(#clip-path-19)">
                  <path id="Trazado_797461" data-name="Trazado 797461" d="M152.893,398.231a159.493,159.493,0,0,1,6.771,26.972s-14.581-9.89-6.771-26.972" transform="translate(-150.592 -398.231)" fill="#00b9b6"/>
                </g>
              </g>
            </g>
            <g id="Grupo_1064214" data-name="Grupo 1064214" transform="translate(125.637 321.945)" opacity="0.57" style="mix-blend-mode: soft-light;isolation: isolate">
              <g id="Grupo_1064213" data-name="Grupo 1064213">
                <g id="Grupo_1064212" data-name="Grupo 1064212" clip-path="url(#clip-path-20)">
                  <path id="Trazado_797462" data-name="Trazado 797462" d="M162.086,411.453a8.875,8.875,0,0,1,.676,3.4.9.9,0,1,1-1.8,0,8.592,8.592,0,0,0-.075-1.1c.011.08.021.16.032.24a8.313,8.313,0,0,0-.569-2.064.9.9,0,0,1,.091-.7.9.9,0,0,1,1.235-.324,1.073,1.073,0,0,1,.415.539" transform="translate(-160.309 -410.793)" fill="#ade9e8"/>
                </g>
              </g>
            </g>
            <g id="Grupo_1064217" data-name="Grupo 1064217" transform="translate(124.412 318.836)" opacity="0.57" style="mix-blend-mode: soft-light;isolation: isolate">
              <g id="Grupo_1064216" data-name="Grupo 1064216">
                <g id="Grupo_1064215" data-name="Grupo 1064215" clip-path="url(#clip-path-21)">
                  <path id="Trazado_797463" data-name="Trazado 797463" d="M159.045,408.477c-.059-.1-.118-.2-.176-.293a.674.674,0,0,1-.107-.335.686.686,0,0,1,.016-.36,1.005,1.005,0,0,1,.415-.539l.216-.091a.905.905,0,0,1,.48,0l.216.091a.9.9,0,0,1,.324.324l.176.293a1.019,1.019,0,0,1,.091.7,1.005,1.005,0,0,1-.415.539l-.216.091a.906.906,0,0,1-.48,0l-.216-.091a.9.9,0,0,1-.324-.324" transform="translate(-158.746 -406.827)" fill="#ade9e8"/>
                </g>
              </g>
            </g>
            <path id="Trazado_797464" data-name="Trazado 797464" d="M85.367,413.477s42.09-7.535,55.1,31.479c0,0-42.178,3.034-55.1-31.479" transform="translate(-18.464 -89.302)" fill="#00b9b6"/>
            <g id="Grupo_1064220" data-name="Grupo 1064220" transform="translate(66.904 324.174)" opacity="0.27" style="mix-blend-mode: multiply;isolation: isolate">
              <g id="Grupo_1064219" data-name="Grupo 1064219">
                <g id="Grupo_1064218" data-name="Grupo 1064218" clip-path="url(#clip-path-22)">
                  <path id="Trazado_797465" data-name="Trazado 797465" d="M85.367,413.638a398.078,398.078,0,0,1,55.1,31.479s-42.178,3.034-55.1-31.479" transform="translate(-85.367 -413.638)" fill="#00b9b6"/>
                </g>
              </g>
            </g>
            <g id="Grupo_1064223" data-name="Grupo 1064223" transform="translate(90.823 328.061)" opacity="0.57" style="mix-blend-mode: soft-light;isolation: isolate">
              <g id="Grupo_1064222" data-name="Grupo 1064222">
                <g id="Grupo_1064221" data-name="Grupo 1064221" clip-path="url(#clip-path-23)">
                  <path id="Trazado_797466" data-name="Trazado 797466" d="M128.567,426.762a37.06,37.06,0,0,0-12.05-6.378c-1.105-.346-.633-2.089.48-1.741a39.419,39.419,0,0,1,12.847,6.843.909.909,0,0,1,0,1.276.923.923,0,0,1-1.277,0" transform="translate(-115.888 -418.598)" fill="#ade9e8"/>
                </g>
              </g>
            </g>
            <g id="Grupo_1064226" data-name="Grupo 1064226" transform="translate(83.167 326.569)" opacity="0.57" style="mix-blend-mode: soft-light;isolation: isolate">
              <g id="Grupo_1064225" data-name="Grupo 1064225">
                <g id="Grupo_1064224" data-name="Grupo 1064224" clip-path="url(#clip-path-24)">
                  <path id="Trazado_797467" data-name="Trazado 797467" d="M110.947,419.213a15.169,15.169,0,0,0-2.017-.516c-.167-.031-.336-.057-.5-.083-.26-.04.188.021-.072-.01-.091-.011-.182-.022-.274-.031q-.527-.056-1.059-.074a.9.9,0,0,1,0-1.8,15.98,15.98,0,0,1,4.405.779.9.9,0,1,1-.48,1.741" transform="translate(-106.119 -416.693)" fill="#ade9e8"/>
                </g>
              </g>
            </g>
            <path id="Trazado_797468" data-name="Trazado 797468" d="M374.035,159.588c-2.274,8.11-41.548-2.13-89.405-13.172s-61.09-17.186-59.9-21.424,11.238-4.873,71.656,10.481,80.162,15.145,77.647,24.115" transform="translate(-48.59 -26.472)" fill="#482d87"/>
            <g id="Grupo_1064229" data-name="Grupo 1064229" transform="translate(176.07 95.922)" opacity="0.85" style="mix-blend-mode: multiply;isolation: isolate">
              <g id="Grupo_1064228" data-name="Grupo 1064228">
                <g id="Grupo_1064227" data-name="Grupo 1064227" clip-path="url(#clip-path-25)">
                  <path id="Trazado_797469" data-name="Trazado 797469" d="M374.035,159.588c-2.274,8.11-41.548-2.13-89.405-13.172s-61.09-17.186-59.9-21.424,11.238-4.873,71.656,10.481,80.162,15.145,77.647,24.115" transform="translate(-224.66 -122.394)" fill="#482d87"/>
                </g>
              </g>
            </g>
            <path id="Trazado_797470" data-name="Trazado 797470" d="M297.869,90.684a1.064,1.064,0,0,0,1.043-1.087c-.281-13.765,2.8-22.573,2.835-22.66a1.066,1.066,0,0,0-2.006-.719c-.133.37-3.249,9.233-2.959,23.422a1.065,1.065,0,0,0,1.087,1.043" transform="translate(-64.185 -14.17)" fill="#00b9b6"/>
            <path id="Trazado_797471" data-name="Trazado 797471" d="M298.362,67.561c-11.686-2.611-5.578-19.4-2.9-18.926s3.22,5.865,3.22,5.865,2.1-4.454,4.687-3.773,1.634,5.575,1.634,5.575,4.3-4.893,6.3-2.971c1.907,1.831-1.736,16.734-12.945,14.229" transform="translate(-63.039 -10.517)" fill="#ff57a0"/>
            <g id="Grupo_1064232" data-name="Grupo 1064232" transform="translate(230.682 41.307)" opacity="0.31" style="mix-blend-mode: multiply;isolation: isolate">
              <g id="Grupo_1064231" data-name="Grupo 1064231">
                <g id="Grupo_1064230" data-name="Grupo 1064230" clip-path="url(#clip-path-26)">
                  <path id="Trazado_797472" data-name="Trazado 797472" d="M305.3,52.707c.87,1.656.327,4.479.327,4.479s4.3-4.894,6.3-2.971c1.907,1.83-1.736,16.733-12.945,14.229a8.616,8.616,0,0,1-4.641-2.55A24.019,24.019,0,0,0,305.3,52.707" transform="translate(-294.344 -52.707)" fill="#ff57a0"/>
                </g>
              </g>
            </g>
            <g id="Grupo_1064235" data-name="Grupo 1064235" transform="translate(230.183 40.501)" opacity="0.67" style="mix-blend-mode: soft-light;isolation: isolate">
              <g id="Grupo_1064234" data-name="Grupo 1064234">
                <g id="Grupo_1064233" data-name="Grupo 1064233" clip-path="url(#clip-path-27)">
                  <path id="Trazado_797473" data-name="Trazado 797473" d="M296.267,52.832Q296,54.007,295.8,55.2c-.123.771-.2,1.386-.276,2.246a.909.909,0,0,1-1.817,0,38.052,38.052,0,0,1,.8-5.1.916.916,0,0,1,1.118-.635.929.929,0,0,1,.636,1.118" transform="translate(-293.708 -51.678)" fill="#ffc1dc"/>
                </g>
              </g>
            </g>
            <g id="Grupo_1064238" data-name="Grupo 1064238" transform="translate(237.696 41.86)" opacity="0.67" style="mix-blend-mode: soft-light;isolation: isolate">
              <g id="Grupo_1064237" data-name="Grupo 1064237">
                <g id="Grupo_1064236" data-name="Grupo 1064236" clip-path="url(#clip-path-28)">
                  <path id="Trazado_797474" data-name="Trazado 797474" d="M305.459,54.779q-.092.187-.173.38c.031-.073.061-.145.091-.217a7.281,7.281,0,0,0-.3.853.945.945,0,0,1-.418.543.683.683,0,0,1-.338.108.694.694,0,0,1-.362-.016.918.918,0,0,1-.543-.418.942.942,0,0,1-.092-.7,8.507,8.507,0,0,1,.564-1.45.68.68,0,0,1,.234-.255.821.821,0,0,1,.672-.179.675.675,0,0,1,.338.108.916.916,0,0,1,.418.543c.011.08.021.161.032.241a.9.9,0,0,1-.124.458" transform="translate(-303.294 -53.412)" fill="#ffc1dc"/>
                </g>
              </g>
            </g>
            <path id="Trazado_797475" data-name="Trazado 797475" d="M381.154,134.752c-1.513-4.028,16.276-23.311,20.146-21.319,4.067,2.093-.566,9.251-.566,9.251s8.365-3.085,9.872.96-7.647,6.79-7.647,6.79,7.108,2.571,4.618,6.444-24.965,1.76-26.425-2.125" transform="translate(-82.418 -24.503)" fill="#00b9b6"/>
            <g id="Grupo_1064241" data-name="Grupo 1064241" transform="translate(298.647 97.803)" opacity="0.27" style="mix-blend-mode: multiply;isolation: isolate">
              <g id="Grupo_1064240" data-name="Grupo 1064240">
                <g id="Grupo_1064239" data-name="Grupo 1064239" clip-path="url(#clip-path-29)">
                  <path id="Trazado_797476" data-name="Trazado 797476" d="M387.8,133.419a223.081,223.081,0,0,0,21.768-8.625,2.758,2.758,0,0,1,1.04,1.337c1.507,4.046-7.647,6.79-7.647,6.79s7.108,2.571,4.618,6.444-24.964,1.76-26.425-2.126a3.168,3.168,0,0,1,.246-2.062c2.151-.518,4.288-1.092,6.4-1.759" transform="translate(-381.066 -124.794)" fill="#00b9b6"/>
                </g>
              </g>
            </g>
            <g id="Grupo_1064244" data-name="Grupo 1064244" transform="translate(314.613 91.348)" opacity="0.57" style="mix-blend-mode: soft-light;isolation: isolate">
              <g id="Grupo_1064243" data-name="Grupo 1064243">
                <g id="Grupo_1064242" data-name="Grupo 1064242" clip-path="url(#clip-path-30)">
                  <path id="Trazado_797477" data-name="Trazado 797477" d="M404.4,118.253l-1.593,1.16a.675.675,0,0,1-.338.108.686.686,0,0,1-.362-.016.925.925,0,0,1-.543-.418.916.916,0,0,1-.092-.7l.092-.217a.909.909,0,0,1,.326-.326l1.592-1.16a.672.672,0,0,1,.338-.108.686.686,0,0,1,.362.016.909.909,0,0,1,.635,1.118l-.092.217a.915.915,0,0,1-.326.326" transform="translate(-401.438 -116.558)" fill="#ade9e8"/>
                </g>
              </g>
            </g>
            <g id="Grupo_1064247" data-name="Grupo 1064247" transform="translate(309.236 94.573)" opacity="0.57" style="mix-blend-mode: soft-light;isolation: isolate">
              <g id="Grupo_1064246" data-name="Grupo 1064246">
                <g id="Grupo_1064245" data-name="Grupo 1064245" clip-path="url(#clip-path-31)">
                  <path id="Trazado_797478" data-name="Trazado 797478" d="M398.977,122.22l-2.855,2.859a.909.909,0,0,1-1.285-1.285l2.855-2.86a.909.909,0,0,1,1.285,1.285" transform="translate(-394.577 -120.673)" fill="#ade9e8"/>
                </g>
              </g>
            </g>
            <path id="Trazado_797479" data-name="Trazado 797479" d="M357.868,108.675a.945.945,0,0,0,.319.05.93.93,0,0,0,.861-.629,57.76,57.76,0,0,1,7.634-14.18c1.884,1.469,6.894,5.108,11.5,6.144a6.722,6.722,0,0,0,1.611.173,4.33,4.33,0,0,0,4.241-3.069c.687-2.3-.5-5.339-4.093-6.684-3.756-1.408-8.051-.634-10.844.189A99.578,99.578,0,0,1,383.86,75.309a.947.947,0,0,0,.133.064c3,1.166,12.4,3,16.8.419a4.477,4.477,0,0,0,2.3-3.3,4.115,4.115,0,0,0-1.8-4.3c-3.1-1.951-9.546-.591-15.322,3.234a63.067,63.067,0,0,0-8.341,6.988c.192-.629.4-1.349.633-2.173.676-2.417,1.8-6.926,1.737-9.957a4.788,4.788,0,0,0-4.747-4.808c-2.538-.05-5.184,1.861-5.385,6.166-.3,6.381,3.222,12.528,4.314,14.274a105.264,105.264,0,0,0-8.409,10.119l-.016.021a60.937,60.937,0,0,0-8.469,15.445.93.93,0,0,0,.579,1.179" transform="translate(-77.265 -13.295)" fill="#00b9b6"/>
            <g id="Grupo_1064250" data-name="Grupo 1064250" transform="translate(307.661 57.499)" opacity="0.27" style="mix-blend-mode: multiply;isolation: isolate">
              <g id="Grupo_1064249" data-name="Grupo 1064249">
                <g id="Grupo_1064248" data-name="Grupo 1064248" clip-path="url(#clip-path-32)">
                  <path id="Trazado_797480" data-name="Trazado 797480" d="M410.7,73.367a5.268,5.268,0,0,1,.036,1.7,4.484,4.484,0,0,1-2.306,3.3c-4.011,2.359-12.186,1.033-15.863-.1a52.837,52.837,0,0,1,18.133-4.9" transform="translate(-392.567 -73.367)" fill="#00b9b6"/>
                </g>
              </g>
            </g>
            <g id="Grupo_1064253" data-name="Grupo 1064253" transform="translate(292.585 48.214)" opacity="0.27" style="mix-blend-mode: multiply;isolation: isolate">
              <g id="Grupo_1064252" data-name="Grupo 1064252">
                <g id="Grupo_1064251" data-name="Grupo 1064251" clip-path="url(#clip-path-33)">
                  <path id="Trazado_797481" data-name="Trazado 797481" d="M373.349,67.648c.183-3.926,2.4-5.855,4.712-6.128a108.839,108.839,0,0,0,1.18,21.416l-1.578-1.014c-1.092-1.745-4.611-7.893-4.314-14.274" transform="translate(-373.331 -61.52)" fill="#00b9b6"/>
                </g>
              </g>
            </g>
            <g id="Grupo_1064256" data-name="Grupo 1064256" transform="translate(279.974 78.792)" opacity="0.27" style="mix-blend-mode: multiply;isolation: isolate">
              <g id="Grupo_1064255" data-name="Grupo 1064255">
                <g id="Grupo_1064254" data-name="Grupo 1064254" clip-path="url(#clip-path-34)">
                  <path id="Trazado_797482" data-name="Trazado 797482" d="M365.733,100.537c6.151,1.405,12.26,3.006,18.471,4.1a4.505,4.505,0,0,1-.172.978,4.331,4.331,0,0,1-4.241,3.069,6.725,6.725,0,0,1-1.611-.173c-4.6-1.035-9.613-4.675-11.5-6.144a57.8,57.8,0,0,0-7.634,14.179.928.928,0,0,1-.86.629.95.95,0,0,1-.32-.05.93.93,0,0,1-.578-1.179,60.857,60.857,0,0,1,8.443-15.409" transform="translate(-357.24 -100.537)" fill="#00b9b6"/>
                </g>
              </g>
            </g>
            <g id="Grupo_1064259" data-name="Grupo 1064259" transform="translate(298.778 78.027)" opacity="0.57" style="mix-blend-mode: soft-light;isolation: isolate">
              <g id="Grupo_1064258" data-name="Grupo 1064258">
                <g id="Grupo_1064257" data-name="Grupo 1064257" clip-path="url(#clip-path-35)">
                  <path id="Trazado_797483" data-name="Trazado 797483" d="M385.351,102.147c-.136-.07-.275-.136-.414-.2-.093-.04-.08-.035.036.013l-.122-.049-.183-.071a8.008,8.008,0,0,0-.879-.268c-.149-.037-.3-.068-.45-.1l-.194-.033-.13-.02c.133.017.149.02.046.007a8.982,8.982,0,0,0-.918-.053.909.909,0,0,1,0-1.817,9.087,9.087,0,0,1,4.125,1.017.914.914,0,0,1,.326,1.243.93.93,0,0,1-1.243.326" transform="translate(-381.233 -99.56)" fill="#ade9e8"/>
                </g>
              </g>
            </g>
            <g id="Grupo_1064262" data-name="Grupo 1064262" transform="translate(298.854 50.981)" opacity="0.57" style="mix-blend-mode: soft-light;isolation: isolate">
              <g id="Grupo_1064261" data-name="Grupo 1064261">
                <g id="Grupo_1064260" data-name="Grupo 1064260" clip-path="url(#clip-path-36)">
                  <path id="Trazado_797484" data-name="Trazado 797484" d="M383.483,65.959a19.965,19.965,0,0,1-.376,6.276.909.909,0,1,1-1.752-.483,18.364,18.364,0,0,0,.311-5.793.911.911,0,0,1,.909-.908.934.934,0,0,1,.908.908" transform="translate(-381.33 -65.05)" fill="#ade9e8"/>
                </g>
              </g>
            </g>
            <g id="Grupo_1064265" data-name="Grupo 1064265" transform="translate(312.97 55.186)" opacity="0.57" style="mix-blend-mode: soft-light;isolation: isolate">
              <g id="Grupo_1064264" data-name="Grupo 1064264">
                <g id="Grupo_1064263" data-name="Grupo 1064263" clip-path="url(#clip-path-37)">
                  <path id="Trazado_797485" data-name="Trazado 797485" d="M406.774,72.235a14.973,14.973,0,0,0-6.071,1.788.909.909,0,0,1-.917-1.569,17.057,17.057,0,0,1,6.988-2.037.909.909,0,0,1,0,1.817" transform="translate(-399.341 -70.416)" fill="#ade9e8"/>
                </g>
              </g>
            </g>
            <path id="Trazado_797486" data-name="Trazado 797486" d="M231.506,89.846a16.563,16.563,0,0,0,1.944.077,14.426,14.426,0,0,0,10.021-4.234,56.576,56.576,0,0,0,9.777,11.567.929.929,0,0,0,1.187-1.429,55.978,55.978,0,0,1-10.865-13.5.847.847,0,0,0,.064-.111c3.095-6.263,3.606-11.322,1.52-15.036-2.753-4.9-8.944-5.5-9.2-5.524a.92.92,0,0,0-.748.277.93.93,0,0,0-.258.753A52.332,52.332,0,0,0,241.5,82.433a22.88,22.88,0,0,0-9.1-1.936c-3.879.079-6.378,2.652-6.468,4.99-.035.891.266,3.838,5.578,4.359" transform="translate(-48.864 -13.334)" fill="#00b9b6"/>
            <g id="Grupo_1064268" data-name="Grupo 1064268" transform="translate(177.062 69.331)" opacity="0.27" style="mix-blend-mode: multiply;isolation: isolate">
              <g id="Grupo_1064267" data-name="Grupo 1064267">
                <g id="Grupo_1064266" data-name="Grupo 1064266" clip-path="url(#clip-path-38)">
                  <path id="Trazado_797487" data-name="Trazado 797487" d="M226.01,90.683a47.229,47.229,0,0,0,17.764-2.217,55.942,55.942,0,0,0,10.66,13.161.929.929,0,0,1-1.187,1.429,56.6,56.6,0,0,1-9.777-11.568,14.422,14.422,0,0,1-10.021,4.235,16.391,16.391,0,0,1-1.944-.078c-5.313-.521-5.613-3.468-5.578-4.358a3.654,3.654,0,0,1,.081-.6" transform="translate(-225.926 -88.465)" fill="#00b9b6"/>
                </g>
              </g>
            </g>
            <g id="Grupo_1064271" data-name="Grupo 1064271" transform="translate(192.618 53.561)" opacity="0.57" style="mix-blend-mode: soft-light;isolation: isolate">
              <g id="Grupo_1064270" data-name="Grupo 1064270">
                <g id="Grupo_1064269" data-name="Grupo 1064269" clip-path="url(#clip-path-39)">
                  <path id="Trazado_797488" data-name="Trazado 797488" d="M246.69,74.036c.056-.213.1-.427.136-.644-.034.209.012-.13.015-.168.007-.082.012-.164.015-.246a5.951,5.951,0,0,0-.009-.658c-.007-.11-.018-.219-.031-.328.024.2-.016-.085-.023-.125a7.338,7.338,0,0,0-.339-1.186c-.024-.06-.02-.051.012.027-.022-.05-.045-.1-.068-.15-.046-.1-.1-.2-.148-.294a6.228,6.228,0,0,0-.346-.561.913.913,0,0,1,.326-1.243.931.931,0,0,1,1.243.326,7.063,7.063,0,0,1,.969,5.733.909.909,0,1,1-1.752-.483" transform="translate(-245.776 -68.342)" fill="#ade9e8"/>
                </g>
              </g>
            </g>
            <g id="Grupo_1064274" data-name="Grupo 1064274" transform="translate(189.756 50.688)" opacity="0.57" style="mix-blend-mode: soft-light;isolation: isolate">
              <g id="Grupo_1064273" data-name="Grupo 1064273">
                <g id="Grupo_1064272" data-name="Grupo 1064272" clip-path="url(#clip-path-40)">
                  <path id="Trazado_797489" data-name="Trazado 797489" d="M243.517,66.96a2.708,2.708,0,0,0-.341-.315l.184.143a2.626,2.626,0,0,0-.577-.337l.217.091q-.1-.042-.209-.078a.956.956,0,0,1-.543-.418.672.672,0,0,1-.107-.338.69.69,0,0,1,.016-.363.911.911,0,0,1,1.118-.634,4.609,4.609,0,0,1,.52.212,2.643,2.643,0,0,1,.309.172,4.379,4.379,0,0,1,.445.335,2.587,2.587,0,0,1,.254.245.954.954,0,0,1,.266.643.678.678,0,0,1-.078.35.665.665,0,0,1-.187.292.906.906,0,0,1-1.285,0" transform="translate(-242.124 -64.677)" fill="#ade9e8"/>
                </g>
              </g>
            </g>
            <g id="Grupo_1064277" data-name="Grupo 1064277" transform="translate(181.416 68.466)" opacity="0.57" style="mix-blend-mode: soft-light;isolation: isolate">
              <g id="Grupo_1064276" data-name="Grupo 1064276">
                <g id="Grupo_1064275" data-name="Grupo 1064275" clip-path="url(#clip-path-41)">
                  <path id="Trazado_797490" data-name="Trazado 797490" d="M234.023,89.185a7.7,7.7,0,0,0-1.323.06l.241-.033c-.1.015-.208.031-.312.049a.686.686,0,0,1-.362.016.673.673,0,0,1-.338-.108.908.908,0,0,1-.326-1.243.886.886,0,0,1,.543-.418,8.809,8.809,0,0,1,1.876-.14.955.955,0,0,1,.643.266.907.907,0,0,1,0,1.285.915.915,0,0,1-.643.266" transform="translate(-231.482 -87.361)" fill="#ade9e8"/>
                </g>
              </g>
            </g>
            <path id="Trazado_797491" data-name="Trazado 797491" d="M365.733,150.206c8.29-3.8,7.725-22.194-9.627-24.721,0,0,3.192-10.7-5.721-17.587-8.125-6.28-19-1.22-19-1.22s.719-19.872-14.846-28.052-29.84-.4-34.674,7.672a17.157,17.157,0,0,0-15-14.839c-13.863-2.132-19.482,12.923-16.67,22.586,0,0-4.379-3.165-8.057-1.079s-1.592,8.342-1.592,8.342-3.059-3.363-8.611-.043-2.389,12.9,1.414,16.554,128.213,34.292,132.375,32.387" transform="translate(-49.517 -15.411)" fill="#ff9fc9"/>
            <g id="Grupo_1064280" data-name="Grupo 1064280" transform="translate(211.407 59.202)" opacity="0.67" style="mix-blend-mode: soft-light;isolation: isolate">
              <g id="Grupo_1064279" data-name="Grupo 1064279">
                <g id="Grupo_1064278" data-name="Grupo 1064278" clip-path="url(#clip-path-42)">
                  <path id="Trazado_797492" data-name="Trazado 797492" d="M279.429,79.882a10.228,10.228,0,0,0-8.148-1.693,1.238,1.238,0,0,1-1.491-.846,1.224,1.224,0,0,1,.846-1.49,12.63,12.63,0,0,1,10.016,1.937,1.245,1.245,0,0,1,.434,1.658,1.221,1.221,0,0,1-1.658.435" transform="translate(-269.75 -75.54)" fill="#ffd2e5"/>
                </g>
              </g>
            </g>
            <g id="Grupo_1064283" data-name="Grupo 1064283" transform="translate(205.765 61.115)" opacity="0.67" style="mix-blend-mode: soft-light;isolation: isolate">
              <g id="Grupo_1064282" data-name="Grupo 1064282">
                <g id="Grupo_1064281" data-name="Grupo 1064281" clip-path="url(#clip-path-43)">
                  <path id="Trazado_797493" data-name="Trazado 797493" d="M265.822,80.236a3.088,3.088,0,0,0-.335.221l.245-.189a3.063,3.063,0,0,0-.545.545c.063-.082.127-.163.19-.245a3.13,3.13,0,0,0-.387.667l.122-.29a3.017,3.017,0,0,0-.181.621,1.218,1.218,0,0,1-.557.724,1.212,1.212,0,0,1-1.658-.434l-.122-.29a1.23,1.23,0,0,1,0-.644,4.056,4.056,0,0,1,.3-.911,3.149,3.149,0,0,1,.322-.579,4.316,4.316,0,0,1,1.379-1.288,1.262,1.262,0,0,1,.933-.122,1.241,1.241,0,0,1,.724.557,1.223,1.223,0,0,1,.121.933,1.251,1.251,0,0,1-.556.724" transform="translate(-262.551 -77.981)" fill="#ffd2e5"/>
                </g>
              </g>
            </g>
            <g id="Grupo_1064286" data-name="Grupo 1064286" transform="translate(192.325 80.144)" opacity="0.67" style="mix-blend-mode: soft-light;isolation: isolate">
              <g id="Grupo_1064285" data-name="Grupo 1064285">
                <g id="Grupo_1064284" data-name="Grupo 1064284" clip-path="url(#clip-path-44)">
                  <path id="Trazado_797494" data-name="Trazado 797494" d="M248.18,104.33l-.056.071.189-.245a3.3,3.3,0,0,0-.408.7l.122-.289a3.441,3.441,0,0,0-.223.828c.014-.107.029-.215.043-.322a3.334,3.334,0,0,0,0,.857c-.015-.107-.029-.215-.044-.322a3.414,3.414,0,0,0,.095.442,1.248,1.248,0,0,1-.122.933,1.212,1.212,0,0,1-2.214-.289,4.532,4.532,0,0,1-.058-2.166,4.471,4.471,0,0,1,.962-1.911,1.212,1.212,0,0,1,.857-.355,1.212,1.212,0,0,1,1.212,1.212c-.015.107-.029.215-.044.322a1.2,1.2,0,0,1-.311.534" transform="translate(-245.401 -102.262)" fill="#ffd2e5"/>
                </g>
              </g>
            </g>
            <g id="Grupo_1064289" data-name="Grupo 1064289" transform="translate(214.843 91.646)" opacity="0.67" style="mix-blend-mode: soft-light;isolation: isolate">
              <g id="Grupo_1064288" data-name="Grupo 1064288">
                <g id="Grupo_1064287" data-name="Grupo 1064287" clip-path="url(#clip-path-45)">
                  <path id="Trazado_797495" data-name="Trazado 797495" d="M281.018,119.574a6.484,6.484,0,0,0-.768-.186c-.172-.032,0,.024.062.006a.613.613,0,0,1-.176-.017c-.131-.01-.263-.016-.394-.018s-.263,0-.395.008l-.175.013c-.016,0-.3.028-.1.008.178-.018-.02,0-.056.011-.072.012-.145.025-.216.04-.129.027-.257.059-.385.094-.112.031-.224.067-.335.1-.07.024-.138.051-.206.075-.145.052-.03,0,.045-.022a2.8,2.8,0,0,0-.7.365c-.114.069-.223.141-.331.218-.026.018-.183.138-.053.036s-.024.022-.048.042a5.59,5.59,0,0,0-.595.585,1.218,1.218,0,0,1-1.712,0,1.24,1.24,0,0,1,0-1.713,7,7,0,0,1,7.184-1.985,1.212,1.212,0,0,1-.644,2.336" transform="translate(-274.134 -116.938)" fill="#ffd2e5"/>
                </g>
              </g>
            </g>
            <g id="Grupo_1064292" data-name="Grupo 1064292" transform="translate(225.008 93.182)" opacity="0.67" style="mix-blend-mode: soft-light;isolation: isolate">
              <g id="Grupo_1064291" data-name="Grupo 1064291">
                <g id="Grupo_1064290" data-name="Grupo 1064290" clip-path="url(#clip-path-46)">
                  <path id="Trazado_797496" data-name="Trazado 797496" d="M288.639,118.941l.8.335a1.349,1.349,0,0,1,.724.556.9.9,0,0,1,.143.451.92.92,0,0,1-.021.483l-.122.29a1.216,1.216,0,0,1-.435.434l-.289.122a1.215,1.215,0,0,1-.644,0l-.8-.335a1.348,1.348,0,0,1-.724-.556.9.9,0,0,1-.143-.451.92.92,0,0,1,.021-.483l.122-.289a1.211,1.211,0,0,1,.435-.435l.289-.122a1.214,1.214,0,0,1,.644,0" transform="translate(-287.104 -118.898)" fill="#ffd2e5"/>
                </g>
              </g>
            </g>
            <g id="Grupo_1064295" data-name="Grupo 1064295" transform="translate(241.938 63.247)" opacity="0.67" style="mix-blend-mode: soft-light;isolation: isolate">
              <g id="Grupo_1064294" data-name="Grupo 1064294">
                <g id="Grupo_1064293" data-name="Grupo 1064293" clip-path="url(#clip-path-47)">
                  <path id="Trazado_797497" data-name="Trazado 797497" d="M321.908,83.127a37.812,37.812,0,0,0-11.665,2.48,1.222,1.222,0,0,1-1.491-.846,1.239,1.239,0,0,1,.846-1.491,39.95,39.95,0,0,1,12.31-2.566c1.559-.077,1.555,2.346,0,2.423" transform="translate(-308.707 -80.702)" fill="#ffd2e5"/>
                </g>
              </g>
            </g>
            <g id="Grupo_1064298" data-name="Grupo 1064298" transform="translate(236.404 68.85)" opacity="0.67" style="mix-blend-mode: soft-light;isolation: isolate">
              <g id="Grupo_1064297" data-name="Grupo 1064297">
                <g id="Grupo_1064296" data-name="Grupo 1064296" clip-path="url(#clip-path-48)">
                  <path id="Trazado_797498" data-name="Trazado 797498" d="M304.677,90.11l-.094.069.245-.19a3.071,3.071,0,0,0-.535.533l.189-.245a3.163,3.163,0,0,0-.4.675l.122-.289a3.026,3.026,0,0,0-.181.583,1.366,1.366,0,0,1-.556.724,1.239,1.239,0,0,1-.934.122,1.225,1.225,0,0,1-.724-.557l-.121-.289a1.215,1.215,0,0,1,0-.644,3.053,3.053,0,0,1,.169-.556,4.568,4.568,0,0,1,.388-.791,4.829,4.829,0,0,1,.533-.678,4.749,4.749,0,0,1,.674-.56.9.9,0,0,1,.451-.143.923.923,0,0,1,.484.021,1.238,1.238,0,0,1,.724.557,1.224,1.224,0,0,1,.121.933l-.121.289a1.224,1.224,0,0,1-.435.435" transform="translate(-301.645 -87.851)" fill="#ffd2e5"/>
                </g>
              </g>
            </g>
            <g id="Grupo_1064301" data-name="Grupo 1064301" transform="translate(245.406 77.539)" opacity="0.67" style="mix-blend-mode: soft-light;isolation: isolate">
              <g id="Grupo_1064300" data-name="Grupo 1064300">
                <g id="Grupo_1064299" data-name="Grupo 1064299" clip-path="url(#clip-path-49)">
                  <path id="Trazado_797499" data-name="Trazado 797499" d="M316.24,100.477l-.731,2.915a1.224,1.224,0,0,1-1.491.846,1.237,1.237,0,0,1-.846-1.491q.367-1.458.732-2.915a1.223,1.223,0,0,1,1.49-.846,1.236,1.236,0,0,1,.846,1.491" transform="translate(-313.132 -98.938)" fill="#ffd2e5"/>
                </g>
              </g>
            </g>
            <g id="Grupo_1064304" data-name="Grupo 1064304" transform="translate(183.232 87.865)" opacity="0.67" style="mix-blend-mode: soft-light;isolation: isolate">
              <g id="Grupo_1064303" data-name="Grupo 1064303">
                <g id="Grupo_1064302" data-name="Grupo 1064302" clip-path="url(#clip-path-50)">
                  <path id="Trazado_797500" data-name="Trazado 797500" d="M236.841,114.18c-.1.126.031-.03.054-.073a1.366,1.366,0,0,1-.085.118q-.093.135-.174.277c-.049.084-.093.169-.136.257-.021.043-.041.088-.061.132-.067.14.085-.234.038-.088-.063.2-.134.39-.181.592-.022.095-.038.19-.056.286-.031.17.02-.063.013-.105a.9.9,0,0,1-.017.182,4.663,4.663,0,0,0-.006.583c0,.06.04.371.009.165s0,.008.01.055.018.1.028.143a4.3,4.3,0,0,0,.16.56c.015.042.1.247.019.058s0-.015.013.021c.047.1.1.2.154.29a1.212,1.212,0,1,1-2.092,1.223,5.489,5.489,0,0,1-.711-3.171,5.789,5.789,0,0,1,1.308-3.219,1.215,1.215,0,0,1,1.713,0,1.246,1.246,0,0,1,0,1.713" transform="translate(-233.799 -112.113)" fill="#ffd2e5"/>
                </g>
              </g>
            </g>
            <g id="Grupo_1064307" data-name="Grupo 1064307" transform="translate(252.418 101.345)" opacity="0.67" style="mix-blend-mode: soft-light;isolation: isolate">
              <g id="Grupo_1064306" data-name="Grupo 1064306">
                <g id="Grupo_1064305" data-name="Grupo 1064305" clip-path="url(#clip-path-51)">
                  <path id="Trazado_797501" data-name="Trazado 797501" d="M329.648,131.552a28.757,28.757,0,0,0-2.941,1.622q-.7.442-1.372.923c-.224.161-.444.328-.665.492-.147.109.143-.114,0,0l-.162.128q-.182.145-.363.292a1.24,1.24,0,0,1-1.713,0,1.225,1.225,0,0,1,0-1.713,29.992,29.992,0,0,1,5.995-3.835,1.212,1.212,0,1,1,1.223,2.093" transform="translate(-322.079 -129.314)" fill="#ffd2e5"/>
                </g>
              </g>
            </g>
            <g id="Grupo_1064310" data-name="Grupo 1064310" transform="translate(249.259 108.579)" opacity="0.67" style="mix-blend-mode: soft-light;isolation: isolate">
              <g id="Grupo_1064309" data-name="Grupo 1064309">
                <g id="Grupo_1064308" data-name="Grupo 1064308" clip-path="url(#clip-path-52)">
                  <path id="Trazado_797502" data-name="Trazado 797502" d="M320.8,140.079l-.376.894a1.248,1.248,0,0,1-1.49.846l-.29-.122a1.213,1.213,0,0,1-.434-.434l-.122-.29a1.212,1.212,0,0,1,0-.643q.188-.448.375-.9a1.355,1.355,0,0,1,.557-.724.9.9,0,0,1,.451-.143.92.92,0,0,1,.483.021l.289.122a1.217,1.217,0,0,1,.435.435l.122.289a1.215,1.215,0,0,1,0,.644" transform="translate(-318.048 -138.544)" fill="#ffd2e5"/>
                </g>
              </g>
            </g>
            <g id="Grupo_1064313" data-name="Grupo 1064313" transform="translate(281.98 93.29)" opacity="0.67" style="mix-blend-mode: soft-light;isolation: isolate">
              <g id="Grupo_1064312" data-name="Grupo 1064312">
                <g id="Grupo_1064311" data-name="Grupo 1064311" clip-path="url(#clip-path-53)">
                  <path id="Trazado_797503" data-name="Trazado 797503" d="M364.074,120.856c-.106.223-.21.447-.31.672-.058.129-.114.258-.17.387a.629.629,0,0,0-.042.1c-.185.458-.364.917-.53,1.382q-.495,1.4-.848,2.836a1.224,1.224,0,0,1-1.491.846,1.237,1.237,0,0,1-.846-1.491,31.36,31.36,0,0,1,2.144-5.957,1.217,1.217,0,0,1,1.658-.435,1.244,1.244,0,0,1,.435,1.658" transform="translate(-359.799 -119.036)" fill="#ffd2e5"/>
                </g>
              </g>
            </g>
            <g id="Grupo_1064316" data-name="Grupo 1064316" transform="translate(311.028 118.567)" opacity="0.67" style="mix-blend-mode: soft-light;isolation: isolate">
              <g id="Grupo_1064315" data-name="Grupo 1064315">
                <g id="Grupo_1064314" data-name="Grupo 1064314" clip-path="url(#clip-path-54)">
                  <path id="Trazado_797504" data-name="Trazado 797504" d="M401.147,157.951c-.042-.125-.086-.249-.133-.373-.028-.073-.064-.147-.088-.22.036.114.085.2.013.035q-.17-.38-.375-.742-.2-.344-.418-.672c-.074-.109-.152-.216-.23-.322-.162-.226.172.209,0-.006l-.125-.153a9.435,9.435,0,0,0-1.141-1.152c-.051-.042-.1-.085-.153-.126-.135-.11-.074-.049.027.018-.11-.072-.212-.158-.32-.233-.238-.166-.484-.32-.737-.463a1.212,1.212,0,1,1,1.223-2.092,10.643,10.643,0,0,1,4.8,5.857,1.22,1.22,0,0,1-.846,1.491,1.241,1.241,0,0,1-1.491-.846" transform="translate(-396.864 -151.288)" fill="#ffd2e5"/>
                </g>
              </g>
            </g>
            <g id="Grupo_1064319" data-name="Grupo 1064319" transform="translate(305.459 115.91)" opacity="0.67" style="mix-blend-mode: soft-light;isolation: isolate">
              <g id="Grupo_1064318" data-name="Grupo 1064318">
                <g id="Grupo_1064317" data-name="Grupo 1064317" clip-path="url(#clip-path-55)">
                  <path id="Trazado_797505" data-name="Trazado 797505" d="M392.33,150.639a6.306,6.306,0,0,0-1.308-.321l.322.043c-.125-.016-.249-.029-.375-.038a1.172,1.172,0,0,1-1.107-.745.92.92,0,0,1-.1-.467,1.223,1.223,0,0,1,.355-.857,1.2,1.2,0,0,1,.857-.355,7.476,7.476,0,0,1,2,.4,1.349,1.349,0,0,1,.724.556.9.9,0,0,1,.143.451.919.919,0,0,1-.021.483,1.225,1.225,0,0,1-.557.724,1.194,1.194,0,0,1-.933.122" transform="translate(-389.757 -147.898)" fill="#ffd2e5"/>
                </g>
              </g>
            </g>
            <g id="Grupo_1064322" data-name="Grupo 1064322" transform="translate(268.9 113.39)" opacity="0.67" style="mix-blend-mode: soft-light;isolation: isolate">
              <g id="Grupo_1064321" data-name="Grupo 1064321">
                <g id="Grupo_1064320" data-name="Grupo 1064320" clip-path="url(#clip-path-56)">
                  <path id="Trazado_797506" data-name="Trazado 797506" d="M346.373,145.9a8.151,8.151,0,0,1-1.014,3.281,1.212,1.212,0,0,1-2.093-1.223,7.433,7.433,0,0,0,.335-.687l-.122.289a7.217,7.217,0,0,0,.491-1.793c-.015.107-.029.215-.043.322.008-.063.016-.126.023-.19a1.343,1.343,0,0,1,.355-.857,1.211,1.211,0,0,1,1.713,0,1.172,1.172,0,0,1,.355.857" transform="translate(-343.109 -144.683)" fill="#ffd2e5"/>
                </g>
              </g>
            </g>
            <g id="Grupo_1064325" data-name="Grupo 1064325" transform="translate(217.672 73.027)" opacity="0.67" style="mix-blend-mode: soft-light;isolation: isolate">
              <g id="Grupo_1064324" data-name="Grupo 1064324">
                <g id="Grupo_1064323" data-name="Grupo 1064323" clip-path="url(#clip-path-57)">
                  <path id="Trazado_797507" data-name="Trazado 797507" d="M280.235,94.393l-.068.968a.911.911,0,0,1-.1.467,1.094,1.094,0,0,1-.64.64.911.911,0,0,1-.467.1l-.322-.043a1.2,1.2,0,0,1-.534-.312l-.19-.245a1.216,1.216,0,0,1-.165-.612l.068-.968a1.343,1.343,0,0,1,.355-.857,1.348,1.348,0,0,1,.857-.355l.322.043a1.212,1.212,0,0,1,.535.312l.19.245a1.205,1.205,0,0,1,.165.611" transform="translate(-277.744 -93.181)" fill="#ffd2e5"/>
                </g>
              </g>
            </g>
            <path id="Trazado_797508" data-name="Trazado 797508" d="M379.638,132.76c2.06,1.977,2.5,7.058,3.052,7.272.262.1,6.1-2.765,6.1-2.765l-.311,1.464c-7.492,2.937-7.16,5.668-7.441,2.9a24.041,24.041,0,0,0-2.153-7.929c-.7-1.219.2-1.469.752-.94" transform="translate(-81.892 -28.657)" fill="#ff57a0"/>
            <path id="Trazado_797509" data-name="Trazado 797509" d="M355.441,150.746c-.159-1.673,2.665,1.741.033,7.451-.5,1.075-2.456.622-1.828-.638s1.954-5.14,1.795-6.813" transform="translate(-76.462 -32.512)" fill="#ff57a0"/>
            <path id="Trazado_797510" data-name="Trazado 797510" d="M339.966,140c-3.092,2.4-4.5,8.638-4,11.934l-2.585-.1c-.25-12.189,10.3-14.713,6.588-11.83" transform="translate(-72.104 -30.046)" fill="#ff57a0"/>
            <path id="Trazado_797511" data-name="Trazado 797511" d="M280.606,105.094c-6.5.133-10.492-1.553-10.611-7.353s3.027-11.388,7.107-11.786,6.243,2.673,5.729,7.252-2.009,5.778-2.77,5.047.607-2.719,1.059-5.012-.733-6.045-4.422-5.417-6.838,8.76-4.269,12.795,11.782,3.848,14.481.433c2.342-2.963,3.277-14.188,3.277-14.188l.56,2.607.953-1.424c-.99,11.981-1.855,13.2.317,15.488,2.408,2.534,13.96,5.682,16.4,4.527s3.861-9.306,3.436-11.231-6.4-4.952-7.741-4.427-1.309,5-1.639,7.261-1.913,1.542-1.944.04.273-8.228,2.628-9.271,9.448,2.68,10.448,5.643-2.229,12.588-4.848,13.636-10.582-.833-15.6-3.272S289.013,101,289.013,101s-1.908,3.962-8.407,4.095" transform="translate(-58.395 -18.583)" fill="#ff57a0"/>
            <path id="Trazado_797512" data-name="Trazado 797512" d="M249.4,121.081a61.418,61.418,0,0,1,7.437-3.3c.316-.007-.208-1.512-.813-2.238a10.379,10.379,0,0,0-4.123-2.959c-1.033-.456-.125-1.713.874-1.417a11.459,11.459,0,0,1,4.549,3.338c1.6,1.836,1.953,5.557,3.412,6.521,1.22.806,6.753,2.071,8.525,2.463.665-1.938,1.654-2.9,4.31-3.17,3.984-.409,4.89,2.051,3.888,1.671s-4.826-.937-6.22,1.121-1.544,8.279-1.035,11.528l-3-.611a45.352,45.352,0,0,1,1.13-6.865c.166-.736.311-1.4.455-2-2.143-.421-8.516-1.746-9.612-2.8-1.322-1.269-1.4-2.818-1.76-3.166s-6.8,3.48-7.981,3.73-1.141-1.106-.038-1.85" transform="translate(-53.76 -24.035)" fill="#ff57a0"/>
            <path id="Trazado_797513" data-name="Trazado 797513" d="M353.441,131.169c-.78-3.768,2.168-12.82,4.64-19.3a17.688,17.688,0,0,1,.207,3.593s-3.683,11.452-3.632,13.973,5.206,7.868,9.186,7.5a4.52,4.52,0,0,0,3.307-7.391c-2.294-2.719-4.5-1.088-4.984,1.038s-2.169,1.387-1.6-.659,1.914-5.857,6.415-2.654,3.742,9.932-1.357,11.257-11.4-3.591-12.183-7.359" transform="translate(-76.416 -24.196)" fill="#ff57a0"/>
            <path id="Trazado_797514" data-name="Trazado 797514" d="M388.664,154.025c1.876-.038,1.547,1.8-.517,1.567s-3.987-.742-4.947.7-.092,6.268.453,7.864l-2.574-.5s-1.685-6.067.542-8.388,5.166-1.2,7.042-1.242" transform="translate(-82.29 -33.262)" fill="#ff57a0"/>
            <path id="Trazado_797515" data-name="Trazado 797515" d="M310.607,122.422c2.391-4.9,5.9-5.229,11.377-6.658,5.813-1.517,7.854-16.546,6.183-20.843a10.885,10.885,0,0,0-7.078-6.321c-1.849-.68-1.674-2.111.921-1.484a10.693,10.693,0,0,1,7.962,10.514c.117,5.736-.347,12.3-3.2,16.505,1.806-.143,5.169-.212,6.977,1.012,2.548,1.725-.368,1.238-3.407.609a13.352,13.352,0,0,0-4.93,0,9.358,9.358,0,0,1-1.009.867c-4.977,3.636-10.665,1.281-12.721,7.711a32.247,32.247,0,0,0-1.225,12.621l-1.806-.643s-.81-6.727,1.344-12.451a23.615,23.615,0,0,0-5.315-2.062c-2.45-.483-3.734-.462-3.748-1.169-.014-.69,4.886-.626,9.674,1.788" transform="translate(-65.087 -18.808)" fill="#ff57a0"/>
            <g id="Grupo_1064328" data-name="Grupo 1064328" transform="translate(203.012 62.49)" opacity="0.37" style="mix-blend-mode: multiply;isolation: isolate">
              <g id="Grupo_1064327" data-name="Grupo 1064327">
                <g id="Grupo_1064326" data-name="Grupo 1064326" clip-path="url(#clip-path-58)">
                  <path id="Trazado_797516" data-name="Trazado 797516" d="M285.55,117.568a66.7,66.7,0,0,0,36.034-37.833q.731.34,1.467.726c15.565,8.18,14.846,28.052,14.846,28.052s10.871-5.06,19,1.22c8.912,6.888,5.72,17.587,5.72,17.587,17.351,2.527,17.917,20.925,9.626,24.721-3.194,1.462-77.24-16.253-113.2-26.216,9.2-1.4,18.316-4.639,26.512-8.256" transform="translate(-259.038 -79.735)" fill="#ff9fc9"/>
                </g>
              </g>
            </g>
            <path id="Trazado_797517" data-name="Trazado 797517" d="M371.732,158.144c1.223-1.274-8.3,61.688-14.694,68.345-1.2,1.254-15.743,52.983-35.749,49.774C281.245,269.839,214.6,153.158,213.4,152.009c-1.474-1.415,8.137-28.048,9.09-27,2.15,2.355,21.272,6.751,71.628,18.6C360.8,159.3,370,159.951,371.732,158.144" transform="translate(-46.122 -27.03)" fill="#482d87"/>
            <g id="Grupo_1064331" data-name="Grupo 1064331" transform="translate(269.718 130.511)" opacity="0.21" style="mix-blend-mode: multiply;isolation: isolate">
              <g id="Grupo_1064330" data-name="Grupo 1064330">
                <g id="Grupo_1064329" data-name="Grupo 1064329" clip-path="url(#clip-path-59)">
                  <path id="Trazado_797518" data-name="Trazado 797518" d="M386.183,166.528c10.357,1.784,13.01,1.49,13.862.6,1.223-1.274-8.3,61.688-14.694,68.345-1.2,1.254-15.743,52.983-35.749,49.774a28.833,28.833,0,0,1-5.448-1.485,348.44,348.44,0,0,0,42.03-117.238" transform="translate(-344.153 -166.528)" fill="#482d87"/>
                </g>
              </g>
            </g>
            <g id="Grupo_1064334" data-name="Grupo 1064334" transform="translate(276.483 130.322)" opacity="0.57" style="mix-blend-mode: soft-light;isolation: isolate">
              <g id="Grupo_1064333" data-name="Grupo 1064333">
                <g id="Grupo_1064332" data-name="Grupo 1064332" clip-path="url(#clip-path-60)">
                  <path id="Trazado_797519" data-name="Trazado 797519" d="M377.166,174.681a203.819,203.819,0,0,1-23.095-4.818c-2.255-.609-1.3-4.116.966-3.506a203.783,203.783,0,0,0,23.095,4.818,1.829,1.829,0,0,1,1.27,2.235,1.864,1.864,0,0,1-2.236,1.27" transform="translate(-352.785 -166.287)" fill="#bbb1d3"/>
                </g>
              </g>
            </g>
            <g id="Grupo_1064337" data-name="Grupo 1064337" transform="translate(264.616 127.428)" opacity="0.57" style="mix-blend-mode: soft-light;isolation: isolate">
              <g id="Grupo_1064336" data-name="Grupo 1064336">
                <g id="Grupo_1064335" data-name="Grupo 1064335" clip-path="url(#clip-path-61)">
                  <path id="Trazado_797520" data-name="Trazado 797520" d="M344.521,167.512a35.2,35.2,0,0,0-5.542-1.369,1.818,1.818,0,0,1-1.086-.835,1.816,1.816,0,0,1,.652-2.486,2.087,2.087,0,0,1,1.4-.183,35.2,35.2,0,0,1,5.542,1.369,1.818,1.818,0,0,1-.966,3.5" transform="translate(-337.643 -162.595)" fill="#bbb1d3"/>
                </g>
              </g>
            </g>
            <g id="Grupo_1064340" data-name="Grupo 1064340" transform="translate(197.562 110.038)" opacity="0.57" style="mix-blend-mode: soft-light;isolation: isolate">
              <g id="Grupo_1064339" data-name="Grupo 1064339">
                <g id="Grupo_1064338" data-name="Grupo 1064338" clip-path="url(#clip-path-62)">
                  <path id="Trazado_797521" data-name="Trazado 797521" d="M268.526,147.691q-7.661-1.511-15.164-3.7c-2.241-.654-1.288-4.162.966-3.5q7.5,2.187,15.164,3.7a1.835,1.835,0,0,1,1.27,2.235,1.855,1.855,0,0,1-2.236,1.27" transform="translate(-252.084 -140.405)" fill="#bbb1d3"/>
                </g>
              </g>
            </g>
            <path id="Trazado_797522" data-name="Trazado 797522" d="M349.431,345.518c3.955,1.116,6.418,2.56,6.457,4.477s-8.913,6.123-8.913,6.123Z" transform="translate(-75.045 -74.73)" fill="#a5afff"/>
            <g id="Grupo_1064343" data-name="Grupo 1064343" transform="translate(271.93 270.788)" opacity="0.5">
              <g id="Grupo_1064342" data-name="Grupo 1064342">
                <g id="Grupo_1064341" data-name="Grupo 1064341" clip-path="url(#clip-path-63)">
                  <path id="Trazado_797523" data-name="Trazado 797523" d="M349.431,345.518c3.955,1.116,6.418,2.56,6.457,4.477s-8.913,6.123-8.913,6.123Z" transform="translate(-346.975 -345.518)" fill="#482d87"/>
                </g>
              </g>
            </g>
            <path id="Trazado_797524" data-name="Trazado 797524" d="M474.755,360.6c3.635-3.786,10.483,3.42,16.05,29.144s5.134,33.222-.426,34.357-17.606-61.436-15.624-63.5" transform="translate(-102.635 -77.788)" fill="#a5afff"/>
            <g id="Grupo_1064346" data-name="Grupo 1064346" transform="translate(371.902 281.869)" opacity="0.5">
              <g id="Grupo_1064345" data-name="Grupo 1064345">
                <g id="Grupo_1064344" data-name="Grupo 1064344" clip-path="url(#clip-path-64)">
                  <path id="Trazado_797525" data-name="Trazado 797525" d="M474.755,360.6c3.635-3.786,10.483,3.42,16.05,29.144s5.134,33.222-.426,34.357-17.606-61.436-15.624-63.5" transform="translate(-474.537 -359.657)" fill="#482d87"/>
                </g>
              </g>
            </g>
            <path id="Trazado_797526" data-name="Trazado 797526" d="M343.842,220.123s7.06-6.461,14.476-.3c7.621,6.335,7.94,21.929-.955,30.552-7.109,6.891-22.39,10.028-28.191-.707a266.475,266.475,0,0,0-12.833,61.378s-19.493,19.2-49.464,15.942-29.285-18.841-21.682-24.269c0,0-.69-19.148-1.665-19.513s-29.9,3.242-45.579-31.785,11.1-102.712,12.249-102.735,13.97,1.893,22.392-7.746a31.822,31.822,0,0,0,22.46,17.153c16.747,3.462,33.622-2.2,33.622-2.2s17.728,37.259,55.17,64.225" transform="translate(-41.752 -30.484)" fill="#ffb6b1"/>
            <g id="Grupo_1064349" data-name="Grupo 1064349" transform="translate(199.016 174.215)" opacity="0.17" style="mix-blend-mode: multiply;isolation: isolate">
              <g id="Grupo_1064348" data-name="Grupo 1064348">
                <g id="Grupo_1064347" data-name="Grupo 1064347" clip-path="url(#clip-path-65)">
                  <path id="Trazado_797527" data-name="Trazado 797527" d="M258.364,320.318s-.634-17.574-1.545-19.361c39.582-.81,57.25-22.49,67.263-40.473,5.715-10.265,12.049-26.747,14.477-38.189a170.948,170.948,0,0,0,18.455,15.424s7.06-6.461,14.475-.3c7.622,6.335,7.941,21.929-.955,30.552-7.109,6.89-22.39,10.028-28.191-.707a266.475,266.475,0,0,0-12.833,61.377s-19.493,19.2-49.464,15.942-29.285-18.84-21.682-24.268" transform="translate(-253.939 -222.294)" fill="#ffb6b1"/>
                </g>
              </g>
            </g>
            <g id="Grupo_1064352" data-name="Grupo 1064352" transform="translate(201.775 250.485)" opacity="0.47" style="mix-blend-mode: multiply;isolation: isolate">
              <g id="Grupo_1064351" data-name="Grupo 1064351">
                <g id="Grupo_1064350" data-name="Grupo 1064350" clip-path="url(#clip-path-66)">
                  <path id="Trazado_797528" data-name="Trazado 797528" d="M257.46,321.853a163.3,163.3,0,0,0,20.94-2.238c.908-.172-9.938,5.608-19.83,10.749,0,0-.433-8.045-1.111-8.511" transform="translate(-257.46 -319.612)" fill="#ffb6b1"/>
                </g>
              </g>
            </g>
            <g id="Grupo_1064355" data-name="Grupo 1064355" transform="translate(233.988 182.439)" opacity="0.45">
              <g id="Grupo_1064354" data-name="Grupo 1064354">
                <g id="Grupo_1064353" data-name="Grupo 1064353" clip-path="url(#clip-path-67)">
                  <path id="Trazado_797529" data-name="Trazado 797529" d="M325.846,246.435c-.89,16.166-28.4,15.6-27.247-1.663,1.191-17.763,28.141-14.579,27.247,1.663" transform="translate(-298.563 -232.787)" fill="#ff57a0"/>
                </g>
              </g>
            </g>
            <g id="Grupo_1064358" data-name="Grupo 1064358" transform="translate(156.789 161.263)" opacity="0.45">
              <g id="Grupo_1064357" data-name="Grupo 1064357">
                <g id="Grupo_1064356" data-name="Grupo 1064356" clip-path="url(#clip-path-68)">
                  <path id="Trazado_797530" data-name="Trazado 797530" d="M217.588,215.512c-1.621,10.325-19.257,8.176-17.392-2.837,1.917-11.331,19.02-7.537,17.392,2.837" transform="translate(-200.058 -205.767)" fill="#ff57a0"/>
                </g>
              </g>
            </g>
            <path id="Trazado_797531" data-name="Trazado 797531" d="M248.056,284.42a13.531,13.531,0,0,0,4.727-.8,1.212,1.212,0,0,0-.915-2.245c-.317.128-7.376,2.836-13.17-3.955a1.212,1.212,0,0,0-1.843,1.574,14.5,14.5,0,0,0,10.572,5.415q.322.014.63.014" transform="translate(-51.165 -59.909)" fill="#51388d"/>
            <path id="Trazado_797532" data-name="Trazado 797532" d="M296.285,227.394c2.473,0,5.718-1.527,9.4-7.019a50.579,50.579,0,0,0,4.468-8.477,1.212,1.212,0,0,0-2.253-.893c-1.773,4.474-7.535,15.674-12.843,13.746a3.231,3.231,0,0,1-1.991-1.95c-1.62-4.065,1.825-12.52,3.289-15.434a1.212,1.212,0,1,0-2.165-1.089c-.235.467-5.727,11.51-3.376,17.418a5.607,5.607,0,0,0,3.419,3.334,6.023,6.023,0,0,0,2.056.364" transform="translate(-62.771 -44.47)" fill="#51388d"/>
            <path id="Trazado_797533" data-name="Trazado 797533" d="M224.365,203.362a3.889,3.889,0,0,0,1.557-.339c4.364-1.9,8-11.961,8.4-13.1a1.212,1.212,0,0,0-2.287-.8c-1.379,3.926-4.52,10.571-7.08,11.684a1.184,1.184,0,0,1-1.028.043c-2.487-1.089-.958-9.76.858-15.275a1.211,1.211,0,1,0-2.3-.758c-.869,2.632-4.926,15.889.471,18.253a3.481,3.481,0,0,0,1.409.3" transform="translate(-47.627 -39.792)" fill="#51388d"/>
            <path id="Trazado_797534" data-name="Trazado 797534" d="M241.338,246.937a7.1,7.1,0,0,0,.954-.063c2.88-.386,4.855-2.407,4.8-4.913a1.225,1.225,0,0,0-1.236-1.186,1.211,1.211,0,0,0-1.187,1.236c.032,1.545-1.437,2.291-2.7,2.462a3.9,3.9,0,0,1-4.542-2.831c-.873-3.47,1.39-5.458,7.056-10.018,1.112-.9,2.319-1.868,3.6-2.947,6.227-5.23,9.2-10.153,9.1-15.053a1.2,1.2,0,0,0-1.237-1.187,1.21,1.21,0,0,0-1.186,1.235c.083,4.064-2.689,8.486-8.239,13.149-1.271,1.067-2.465,2.029-3.566,2.914-5.524,4.448-9.173,7.386-7.885,12.5a6.191,6.191,0,0,0,6.26,4.7" transform="translate(-50.788 -45.946)" fill="#eb8c87"/>
            <path id="Trazado_797535" data-name="Trazado 797535" d="M377.2,265.76a1.007,1.007,0,0,0,.841-.45,11.691,11.691,0,0,1,12.9-5.231,1.01,1.01,0,0,0,.59-1.931,13.9,13.9,0,0,0-15.171,6.042,1.009,1.009,0,0,0,.281,1.4,1,1,0,0,0,.559.169" transform="translate(-81.364 -55.744)" fill="#eb8c87"/>
            <path id="Trazado_797536" data-name="Trazado 797536" d="M387.473,267.056a1.009,1.009,0,0,0,1-.853c.03-.188.687-4.636-2.677-6.875a1.009,1.009,0,1,0-1.118,1.68c2.3,1.531,1.806,4.847,1.8,4.881a1.008,1.008,0,0,0,.84,1.154,1,1,0,0,0,.158.013" transform="translate(-83.102 -56.052)" fill="#eb8c87"/>
            <g id="Grupo_1064361" data-name="Grupo 1064361" transform="translate(156.249 184.189)" opacity="0.67" style="mix-blend-mode: soft-light;isolation: isolate">
              <g id="Grupo_1064360" data-name="Grupo 1064360">
                <g id="Grupo_1064359" data-name="Grupo 1064359" clip-path="url(#clip-path-69)">
                  <path id="Trazado_797537" data-name="Trazado 797537" d="M203.51,237.311a61.124,61.124,0,0,0,.843,21.181c.493,2.281-3.01,3.255-3.5.966a66.243,66.243,0,0,1-.843-23.113,1.827,1.827,0,0,1,2.235-1.269,1.865,1.865,0,0,1,1.27,2.235" transform="translate(-199.369 -235.02)" fill="#ffd3d0"/>
                </g>
              </g>
            </g>
            <g id="Grupo_1064364" data-name="Grupo 1064364" transform="translate(159.753 213.174)" opacity="0.67" style="mix-blend-mode: soft-light;isolation: isolate">
              <g id="Grupo_1064363" data-name="Grupo 1064363">
                <g id="Grupo_1064362" data-name="Grupo 1064362" clip-path="url(#clip-path-70)">
                  <path id="Trazado_797538" data-name="Trazado 797538" d="M207.4,273.32a12.36,12.36,0,0,0,.7,2.22l-.183-.434a12.3,12.3,0,0,0,1.551,2.649,1.821,1.821,0,0,1,.183,1.4,1.855,1.855,0,0,1-.835,1.086,1.829,1.829,0,0,1-1.4.183l-.434-.183a1.837,1.837,0,0,1-.652-.652,13.331,13.331,0,0,1-2.43-5.3,1.925,1.925,0,0,1,.183-1.4,1.817,1.817,0,0,1,3.321.433" transform="translate(-203.84 -272.004)" fill="#ffd3d0"/>
                </g>
              </g>
            </g>
            <g id="Grupo_1064367" data-name="Grupo 1064367" transform="translate(247.174 139.926)" opacity="0.67" style="mix-blend-mode: soft-light;isolation: isolate">
              <g id="Grupo_1064366" data-name="Grupo 1064366">
                <g id="Grupo_1064365" data-name="Grupo 1064365" clip-path="url(#clip-path-71)">
                  <path id="Trazado_797539" data-name="Trazado 797539" d="M326.759,197.035a150.24,150.24,0,0,1-11.1-15.8c-1.219-2,1.922-3.832,3.139-1.834a143.076,143.076,0,0,0,10.527,15.058,1.873,1.873,0,0,1,0,2.571,1.83,1.83,0,0,1-2.57,0" transform="translate(-315.387 -178.542)" fill="#ffd3d0"/>
                </g>
              </g>
            </g>
            <g id="Grupo_1064370" data-name="Grupo 1064370" transform="translate(243.165 132.127)" opacity="0.67" style="mix-blend-mode: soft-light;isolation: isolate">
              <g id="Grupo_1064369" data-name="Grupo 1064369">
                <g id="Grupo_1064368" data-name="Grupo 1064368" clip-path="url(#clip-path-72)">
                  <path id="Trazado_797540" data-name="Trazado 797540" d="M311.457,173.806q-.56-1.46-1.118-2.921a2.038,2.038,0,0,1,.183-1.4,1.818,1.818,0,0,1,2.487-.651l.368.284a1.813,1.813,0,0,1,.468.8q.56,1.461,1.118,2.921a1.375,1.375,0,0,1,.033.725,1.35,1.35,0,0,1-.216.676,1.816,1.816,0,0,1-2.486.652l-.368-.284a1.814,1.814,0,0,1-.467-.8" transform="translate(-310.272 -168.591)" fill="#ffd3d0"/>
                </g>
              </g>
            </g>
            <g id="Grupo_1064373" data-name="Grupo 1064373" transform="translate(313.329 195.738)" opacity="0.5" style="mix-blend-mode: soft-light;isolation: isolate">
              <g id="Grupo_1064372" data-name="Grupo 1064372">
                <g id="Grupo_1064371" data-name="Grupo 1064371" clip-path="url(#clip-path-73)">
                  <path id="Trazado_797541" data-name="Trazado 797541" d="M403.2,250.628a15.366,15.366,0,0,1,.132,15.26,1.818,1.818,0,1,1-3.139-1.835,11.592,11.592,0,0,0-.132-11.591c-1.2-2.016,1.943-3.846,3.139-1.835" transform="translate(-399.799 -249.757)" fill="#ffd3d0"/>
                </g>
              </g>
            </g>
            <g id="Grupo_1064376" data-name="Grupo 1064376" transform="translate(306.92 190.434)" opacity="0.5" style="mix-blend-mode: soft-light;isolation: isolate">
              <g id="Grupo_1064375" data-name="Grupo 1064375">
                <g id="Grupo_1064374" data-name="Grupo 1064374" clip-path="url(#clip-path-74)">
                  <path id="Trazado_797542" data-name="Trazado 797542" d="M395.183,247.337a4.689,4.689,0,0,0-.371-.324l.368.284a4.582,4.582,0,0,0-.977-.571l.434.183a4.593,4.593,0,0,0-1.138-.313l.483.065a4.8,4.8,0,0,0-.541-.038,1.884,1.884,0,0,1-1.285-.532,1.817,1.817,0,0,1,0-2.57,1.873,1.873,0,0,1,1.285-.533,6.325,6.325,0,0,1,4.312,1.778,1.816,1.816,0,0,1,0,2.57,1.824,1.824,0,0,1-1.285.532,1.919,1.919,0,0,1-1.285-.532" transform="translate(-391.622 -242.989)" fill="#ffd3d0"/>
                </g>
              </g>
            </g>
            <path id="Trazado_797543" data-name="Trazado 797543" d="M498.316,123.151a11.14,11.14,0,0,0,1.871-.16.929.929,0,0,0-.375-1.82c-.121.022-8.362,1.489-26.849-6.833a.929.929,0,1,0-.763,1.694c14.327,6.451,22.663,7.19,26.115,7.119" transform="translate(-102.011 -24.712)" fill="#00b9b6"/>
            <path id="Trazado_797544" data-name="Trazado 797544" d="M470.706,113.786c-3.176,8.5-21.9,2.035-21.276-1.758.6-3.636,6.393-1.559,6.393-1.559s-4.014-2.343-3.185-4.932,4.962-1.676,4.962-1.676-3.622-2.98-2.536-5.428,19.845,4.111,15.642,15.353" transform="translate(-97.201 -21.179)" fill="#ffbb57"/>
            <g id="Grupo_1064379" data-name="Grupo 1064379" transform="translate(352.213 84.449)" opacity="0.38" style="mix-blend-mode: multiply;isolation: isolate">
              <g id="Grupo_1064378" data-name="Grupo 1064378">
                <g id="Grupo_1064377" data-name="Grupo 1064377" clip-path="url(#clip-path-75)">
                  <path id="Trazado_797545" data-name="Trazado 797545" d="M455.823,112.6s-3.912-2.288-3.2-4.841a119.939,119.939,0,0,0,18.224,7.726c-.047.144-.081.286-.136.432-3.176,8.5-21.9,2.035-21.276-1.758.6-3.636,6.393-1.559,6.393-1.559" transform="translate(-449.415 -107.755)" fill="#ffbb57"/>
                </g>
              </g>
            </g>
            <g id="Grupo_1064382" data-name="Grupo 1064382" transform="translate(365.135 80.883)" opacity="0.67" style="mix-blend-mode: soft-light;isolation: isolate">
              <g id="Grupo_1064381" data-name="Grupo 1064381">
                <g id="Grupo_1064380" data-name="Grupo 1064380" clip-path="url(#clip-path-76)">
                  <path id="Trazado_797546" data-name="Trazado 797546" d="M469.443,107.539c-.1-.131.089.111.019.024l-.09-.113c-.054-.067-.11-.134-.165-.2q-.178-.209-.364-.409a11.045,11.045,0,0,0-.81-.781c-.138-.12-.28-.236-.422-.35-.094-.074.01.012.047.036-.04-.026-.078-.058-.116-.086-.077-.058-.155-.114-.234-.169a11.077,11.077,0,0,0-.953-.6.909.909,0,1,1,.918-1.569,12.2,12.2,0,0,1,3.741,3.3.906.906,0,0,1,.092.7.909.909,0,0,1-1.118.635,1.069,1.069,0,0,1-.543-.418" transform="translate(-465.902 -103.205)" fill="#ffe9c9"/>
                </g>
              </g>
            </g>
            <g id="Grupo_1064385" data-name="Grupo 1064385" transform="translate(360.507 78.484)" opacity="0.67" style="mix-blend-mode: soft-light;isolation: isolate">
              <g id="Grupo_1064384" data-name="Grupo 1064384">
                <g id="Grupo_1064383" data-name="Grupo 1064383" clip-path="url(#clip-path-77)">
                  <path id="Trazado_797547" data-name="Trazado 797547" d="M461.713,102.423c-.054-.049-.11-.095-.166-.14l.183.142a3.179,3.179,0,0,0-.685-.4l.217.091a3.183,3.183,0,0,0-.6-.185.909.909,0,0,1-.217-1.661l.217-.091a.9.9,0,0,1,.483,0,3.986,3.986,0,0,1,.991.358,4.028,4.028,0,0,1,.861.6.909.909,0,0,1-.643,1.552,1,1,0,0,1-.643-.266" transform="translate(-459.997 -100.144)" fill="#ffe9c9"/>
                </g>
              </g>
            </g>
            <path id="Trazado_797548" data-name="Trazado 797548" d="M490.124,113.112c-2.4.05-4.724-8.631-3.339-15.745s6.492-6.881,13.623-2.852,7.913,7.112,9.039,7.09-.338-3.324-2.573-7.05-6.742-11.748-3.581-13.641,9.033,5.459,11.027,8.3,3.789,6.456,4.589,6.439-2.32-18.435,1.915-18.066,13.27,33.263,14.311,37.1,18.031,30.029,27.555,67.957c21.982,87.533-8.811,152.43-76.269,176.02L471.668,306.14s37.139-14.734,47.074-80.559c5.908-39.151-10.651-92.567-11.089-92.989s-6.617,2.39-15.026-4.02-5.459-14.752-.864-14.846,4.607,6.03,8.093,7.206,7.216-1.762,4.665-7.7c-2.2-5.133-7.974-8.877-9.421-8.376-1.915.663-.928,8.171-4.975,8.253" transform="translate(-102.015 -16.779)" fill="#ffb6b1"/>
            <g id="Grupo_1064388" data-name="Grupo 1064388" transform="translate(372.21 155.101)" opacity="0.17" style="mix-blend-mode: multiply;isolation: isolate">
              <g id="Grupo_1064387" data-name="Grupo 1064387">
                <g id="Grupo_1064386" data-name="Grupo 1064386" clip-path="url(#clip-path-78)">
                  <path id="Trazado_797549" data-name="Trazado 797549" d="M481.476,337.58a183.92,183.92,0,0,0,53.238-49.944c12.372-17.663,19.384-38.538,22.848-59.7a225.894,225.894,0,0,0,2.85-30.03c1.051,3.471,2.054,7.059,2.984,10.763,21.982,87.534-8.811,152.431-76.269,176.021l-12.2-43.423q3.313-1.693,6.546-3.687" transform="translate(-474.93 -197.905)" fill="#ffb6b1"/>
                </g>
              </g>
            </g>
            <g id="Grupo_1064391" data-name="Grupo 1064391" transform="translate(416.233 128.641)" opacity="0.67" style="mix-blend-mode: soft-light;isolation: isolate">
              <g id="Grupo_1064390" data-name="Grupo 1064390">
                <g id="Grupo_1064389" data-name="Grupo 1064389" clip-path="url(#clip-path-79)">
                  <path id="Trazado_797550" data-name="Trazado 797550" d="M534.686,165.422a244.683,244.683,0,0,1,8.146,42.054,1.829,1.829,0,0,1-1.817,1.817,1.858,1.858,0,0,1-1.817-1.817,239.149,239.149,0,0,0-8.016-41.088c-.647-2.252,2.859-3.214,3.5-.966" transform="translate(-531.102 -164.142)" fill="#ffd3d0"/>
                </g>
              </g>
            </g>
            <g id="Grupo_1064394" data-name="Grupo 1064394" transform="translate(412.916 117.91)" opacity="0.67" style="mix-blend-mode: soft-light;isolation: isolate">
              <g id="Grupo_1064393" data-name="Grupo 1064393">
                <g id="Grupo_1064392" data-name="Grupo 1064392" clip-path="url(#clip-path-80)">
                  <path id="Trazado_797551" data-name="Trazado 797551" d="M528.684,156.586l-1.565-3.4a1.354,1.354,0,0,1-.216-.676,1.383,1.383,0,0,1,.032-.725,1.853,1.853,0,0,1,.836-1.085,1.832,1.832,0,0,1,1.4-.183,1.776,1.776,0,0,1,1.086.835l1.565,3.4a1.357,1.357,0,0,1,.216.676,1.374,1.374,0,0,1-.033.725,1.818,1.818,0,0,1-2.235,1.27,1.777,1.777,0,0,1-1.086-.835" transform="translate(-526.87 -150.45)" fill="#ffd3d0"/>
                </g>
              </g>
            </g>
            <g id="Grupo_1064397" data-name="Grupo 1064397" transform="translate(393.829 79.262)" opacity="0.67" style="mix-blend-mode: soft-light;isolation: isolate">
              <g id="Grupo_1064396" data-name="Grupo 1064396">
                <g id="Grupo_1064395" data-name="Grupo 1064395" clip-path="url(#clip-path-81)">
                  <path id="Trazado_797552" data-name="Trazado 797552" d="M508.5,108.347a21.368,21.368,0,0,0-2.371-2.147l.368.284a21.237,21.237,0,0,0-3.088-1.979,1.831,1.831,0,0,1-.652-2.486,1.859,1.859,0,0,1,2.487-.652,22.484,22.484,0,0,1,5.826,4.409,1.817,1.817,0,0,1-2.57,2.57" transform="translate(-502.515 -101.136)" fill="#ffd3d0"/>
                </g>
              </g>
            </g>
            <g id="Grupo_1064400" data-name="Grupo 1064400" transform="translate(387.873 78.642)" opacity="0.67" style="mix-blend-mode: soft-light;isolation: isolate">
              <g id="Grupo_1064399" data-name="Grupo 1064399">
                <g id="Grupo_1064398" data-name="Grupo 1064398" clip-path="url(#clip-path-82)">
                  <path id="Trazado_797553" data-name="Trazado 797553" d="M498.426,103.733a1.577,1.577,0,0,0-.134.094l.368-.284a1.792,1.792,0,0,0-.3.3l.284-.368a1.806,1.806,0,0,0-.23.392l.183-.434a1.712,1.712,0,0,0-.116.42,1.872,1.872,0,0,1-2.235,1.27l-.434-.183a1.818,1.818,0,0,1-.652-.652l-.183-.434a1.835,1.835,0,0,1,0-.966,1.668,1.668,0,0,1,.1-.37,4.032,4.032,0,0,1,.349-.758,3.985,3.985,0,0,1,.508-.643,1.683,1.683,0,0,1,.142-.128,5.819,5.819,0,0,1,.516-.39,1.357,1.357,0,0,1,.676-.216,1.869,1.869,0,0,1,1.811.868l.183.434a1.837,1.837,0,0,1,0,.966l-.183.434a1.824,1.824,0,0,1-.652.652" transform="translate(-494.916 -100.345)" fill="#ffd3d0"/>
                </g>
              </g>
            </g>
            <g id="Grupo_1064403" data-name="Grupo 1064403" transform="translate(420.719 75.087)" opacity="0.67" style="mix-blend-mode: soft-light;isolation: isolate">
              <g id="Grupo_1064402" data-name="Grupo 1064402">
                <g id="Grupo_1064401" data-name="Grupo 1064401" clip-path="url(#clip-path-83)">
                  <path id="Trazado_797554" data-name="Trazado 797554" d="M540.372,97.126q1.014,5.12,2.429,10.147a1.818,1.818,0,0,1-3.5.966q-1.414-5.024-2.429-10.147a1.818,1.818,0,1,1,3.5-.966" transform="translate(-536.826 -95.809)" fill="#ffd3d0"/>
                </g>
              </g>
            </g>
            <g id="Grupo_1064406" data-name="Grupo 1064406" transform="translate(425.24 91.265)" opacity="0.67" style="mix-blend-mode: soft-light;isolation: isolate">
              <g id="Grupo_1064405" data-name="Grupo 1064405">
                <g id="Grupo_1064404" data-name="Grupo 1064404" clip-path="url(#clip-path-84)">
                  <path id="Trazado_797555" data-name="Trazado 797555" d="M546.165,117.787l.5,1.279a1.379,1.379,0,0,1,.032.724,1.36,1.36,0,0,1-.215.676,2.033,2.033,0,0,1-1.086.835l-.484.065a1.812,1.812,0,0,1-.917-.248l-.368-.284a1.816,1.816,0,0,1-.468-.8l-.495-1.279a1.367,1.367,0,0,1-.032-.725,1.627,1.627,0,0,1,.683-1.185,1.364,1.364,0,0,1,.618-.326l.483-.064a1.8,1.8,0,0,1,.917.248l.368.284a1.813,1.813,0,0,1,.467.8" transform="translate(-542.595 -116.452)" fill="#ffd3d0"/>
                </g>
              </g>
            </g>
            <path id="Trazado_797556" data-name="Trazado 797556" d="M414.248,357.017c1.07-.375.392.621,4.923,19.04s8.711,45.071,10.671,45.031-9.105,6.316-29.128,6.931c-20.144.619-32.331-1.1-32.743-.672s2.281,19.725,2.281,19.725l-180.8,3.7s1.05-42.062,10.383-64.594c9.135-22.052,26.567-38.438,44.579-38.806,0,0-13.2,12.927,9.057,19.094,24.874,6.894,65.767-4.7,66.711-17.833,0,0,8.543-.16,29.293,6.184,20.374,6.228,44.141,9.423,64.771,2.2" transform="translate(-40.976 -75.131)" fill="#a5afff"/>
            <g id="Grupo_1064409" data-name="Grupo 1064409" transform="translate(181.154 278.431)" opacity="0.17" style="mix-blend-mode: multiply;isolation: isolate">
              <g id="Grupo_1064408" data-name="Grupo 1064408">
                <g id="Grupo_1064407" data-name="Grupo 1064407" clip-path="url(#clip-path-85)">
                  <path id="Trazado_797557" data-name="Trazado 797557" d="M231.148,451.81c1.665-.1,3.328-.211,4.991-.35,31.4-2.612,60.37-13.62,82.365-36.754,15.964-16.79,29.124-37.15,35.751-59.438,1.354.389,2.763.8,4.24,1.255,20.373,6.229,44.14,9.423,64.77,2.2,1.07-.375.392.621,4.924,19.04s8.711,45.071,10.67,45.031-9.1,6.317-29.128,6.932c-20.145.619-32.331-1.1-32.743-.673s2.281,19.726,2.281,19.726Z" transform="translate(-231.148 -355.27)" fill="#a5afff"/>
                </g>
              </g>
            </g>
            <path id="Trazado_797558" data-name="Trazado 797558" d="M270.879,383.943c-10.053-1.545-17.015-5.489-19.968-16.862-1.327-5.111-2.608-12.967-2.031-18.252a29.074,29.074,0,0,1,8.358-1.459s-14.924,12.586,7.332,18.754c14.047,3.893,35.707,3.453,49.573-1.893-10.344,13.894-26.76,22.247-43.266,19.711" transform="translate(-53.798 -75.131)" fill="#c5cbff"/>
            <g id="Grupo_1064412" data-name="Grupo 1064412" transform="translate(189.053 273.788)" opacity="0.5" style="mix-blend-mode: multiply;isolation: isolate">
              <g id="Grupo_1064411" data-name="Grupo 1064411">
                <g id="Grupo_1064410" data-name="Grupo 1064410" clip-path="url(#clip-path-86)">
                  <path id="Trazado_797559" data-name="Trazado 797559" d="M241.692,351.313c1.274-1.328,12.132-1.605,13.186-.593.566.543-2.619,6.488,2.889,13.852,3.8,5.08,10.476,6.4,14.358,6.733-.132-.539-.246-1.075-.32-1.6-.1-.691,38.077,3.2,58.826-18.417,1.565-1.631,9.465-2.752,9.5-1.2s-.853,40.955-42.771,46.789c-5.375.748-19.877-11.547-24.348-22.829-4.64,4.763-15.945,14.152-22.349,12.493-9.394-2.434-10.242-33.9-8.967-35.23" transform="translate(-241.227 -349.346)" fill="#a5afff"/>
                </g>
              </g>
            </g>
            <g id="Grupo_1064415" data-name="Grupo 1064415" transform="translate(317.571 333.28)" opacity="0.5" style="mix-blend-mode: multiply;isolation: isolate">
              <g id="Grupo_1064414" data-name="Grupo 1064414">
                <g id="Grupo_1064413" data-name="Grupo 1064413" clip-path="url(#clip-path-87)">
                  <path id="Trazado_797560" data-name="Trazado 797560" d="M414.637,444.191c-.317-2.888-2.56-18.283-3.232-18.928s-7.179,39.111-6.065,39.088,11.845,1.161,11.578-.433c-.878-5.244-2.281-19.726-2.281-19.726" transform="translate(-405.212 -425.256)" fill="#a5afff"/>
                </g>
              </g>
            </g>
            <path id="Trazado_797561" data-name="Trazado 797561" d="M340.508,347.914c1.565-1.631,8.728.171,8.76,1.727s-6.41,35.006-41.093,41.739c-6.026,1.169-22.975-11.128-24.689-23.316-.1-.69,36.271,1.466,57.021-20.151" transform="translate(-61.314 -75.109)" fill="#fbfdff"/>
            <path id="Trazado_797562" data-name="Trazado 797562" d="M256,347.29c.566.543-2.619,6.488,2.888,13.852,5.212,6.97,14.45,6.894,15.844,6.865s-15.052,16.551-23.609,14.474-8.839-31.693-7.565-33.02,11.387-3.183,12.441-2.172" transform="translate(-52.556 -75.051)" fill="#fbfdff"/>
            <g id="Grupo_1064418" data-name="Grupo 1064418" transform="translate(161.574 292.597)" opacity="0.57" style="mix-blend-mode: soft-light;isolation: isolate">
              <g id="Grupo_1064417" data-name="Grupo 1064417">
                <g id="Grupo_1064416" data-name="Grupo 1064416" clip-path="url(#clip-path-88)">
                  <path id="Trazado_797563" data-name="Trazado 797563" d="M225.647,376.464a68.531,68.531,0,0,0-15.877,26.121c-.733,2.209-4.245,1.263-3.5-.966a72.633,72.633,0,0,1,16.811-27.725c1.632-1.681,4.2.89,2.57,2.57" transform="translate(-206.164 -373.346)" fill="#d2d7ff"/>
                </g>
              </g>
            </g>
            <g id="Grupo_1064421" data-name="Grupo 1064421" transform="translate(158.623 326.308)" opacity="0.57" style="mix-blend-mode: soft-light;isolation: isolate">
              <g id="Grupo_1064420" data-name="Grupo 1064420">
                <g id="Grupo_1064419" data-name="Grupo 1064419" clip-path="url(#clip-path-89)">
                  <path id="Trazado_797564" data-name="Trazado 797564" d="M206.994,418.671c-.175.612-.331,1.23-.462,1.854q-.1.467-.18.937-.043.254-.082.508c-.016.1-.105.544-.018.1a18.9,18.9,0,0,0-.216,3.811,1.817,1.817,0,0,1-3.635,0,28.484,28.484,0,0,1,1.088-8.175,1.818,1.818,0,0,1,3.5.966" transform="translate(-202.399 -416.361)" fill="#d2d7ff"/>
                </g>
              </g>
            </g>
          </g>
        </g>
      </g>
    </g>
  </g>
</svg>
