<svg id="Grupo_1064521" data-name="Grupo 1064521" xmlns="http://www.w3.org/2000/svg" xmlns:xlink="http://www.w3.org/1999/xlink" width="282.015" height="233.917" viewBox="0 0 282.015 233.917">
  <defs>
    <clipPath id="clip-path">
      <rect id="Rectángulo_373729" data-name="Rectángulo 373729" width="282.015" height="233.917" fill="none"/>
    </clipPath>
  </defs>
  <g id="Grupo_1064520" data-name="Grupo 1064520" clip-path="url(#clip-path)">
    <path id="Trazado_797634" data-name="Trazado 797634" d="M356.044,157.02c-.023,1.06.535.679.641.839-.17-1.782-.788-.792-.641-.839" transform="translate(-97.24 -42.823)" fill="#d9e8da"/>
    <path id="Trazado_797635" data-name="Trazado 797635" d="M352.034,132.6l.283.265-1.008-2.416Z" transform="translate(-95.952 -35.63)" fill="#d9e8da"/>
    <path id="Trazado_797636" data-name="Trazado 797636" d="M349.287,120.235l-.108.511,1.053,1.1c-.228-.851-.494-1.76-.77-2.681s-.539-1.862-.871-2.749a35.253,35.253,0,0,1-1.378-4.678c-.233.875.188,2.268.751,3.806a19.967,19.967,0,0,1,1.324,4.69" transform="translate(-94.816 -30.519)" fill="#d9e8da"/>
    <path id="Trazado_797637" data-name="Trazado 797637" d="M346.356,101.015c-.135-.329-.314-.785-.595-1.571-.151.645-1-1.647.642,1.95-.035-.2-.033-.261-.047-.379" transform="translate(-94.341 -27.124)" fill="#d9e8da"/>
    <path id="Trazado_797638" data-name="Trazado 797638" d="M346.707,101.544c.662,1.608-.121-1.171,0,0" transform="translate(-94.692 -27.654)" fill="#d9e8da"/>
    <path id="Trazado_797639" data-name="Trazado 797639" d="M343.348,93.112c.007-.525-.79-2.409-.33-1.784-1.14-2.072-1.136-1.527-.918-.16Z" transform="translate(-93.407 -24.569)" fill="#d9e8da"/>
    <path id="Trazado_797640" data-name="Trazado 797640" d="M340,89.355c.225.326.442.657.641,1,0-.228-.093-.531-.641-1" transform="translate(-92.865 -24.405)" fill="#d9e8da"/>
    <path id="Trazado_797641" data-name="Trazado 797641" d="M341.44,91.725c-.344-.065.108.267.732,1.154l-1.3-2.152c0,.367-.275.53.571,1" transform="translate(-93.089 -24.78)" fill="#d9e8da"/>
    <path id="Trazado_797642" data-name="Trazado 797642" d="M343.548,97.176c0,.309-.134.192-.747-.781.9,1.968,1.395,2.766,1.5,2.551a2.35,2.35,0,0,0-.187-1.041,14.665,14.665,0,0,0-.957-2.361,9.926,9.926,0,0,1,.387,1.632" transform="translate(-93.629 -26.096)" fill="#d9e8da"/>
    <path id="Trazado_797643" data-name="Trazado 797643" d="M345.562,111.079c.089.556.182,1.108.233,1.673l.705,1.3a9.4,9.4,0,0,1-.479-1.806c-.158-.685-.337-1.257-.459-1.163" transform="translate(-94.383 -30.336)" fill="#d9e8da"/>
    <path id="Trazado_797644" data-name="Trazado 797644" d="M333.323,74.08c-.251-.01-.05.938-.184,1.219.379.425.72.874,1.068,1.321-.287-.837-1.083-2.278-.884-2.54" transform="translate(-90.99 -20.233)" fill="#d9e8da"/>
    <path id="Trazado_797645" data-name="Trazado 797645" d="M332.517,75.033l-1.654-1.927c1.174,1.908,1.537,2.165,1.654,1.927" transform="translate(-90.368 -19.967)" fill="#d9e8da"/>
    <path id="Trazado_797646" data-name="Trazado 797646" d="M338.918,90.08l.589.851,1.183,1.713c-.9-1.385-1.779-2.77-2.772-4.088l.368.7Z" transform="translate(-92.295 -24.187)" fill="#d9e8da"/>
    <path id="Trazado_797647" data-name="Trazado 797647" d="M326.8,63.677l-1.034-.831-1.077-.789.886.736c.417.286.814.589,1.224.885" transform="translate(-88.683 -16.95)" fill="#d9e8da"/>
    <path id="Trazado_797648" data-name="Trazado 797648" d="M319.16,54.8c1,.553-.447-1.537.477-.84a21.887,21.887,0,0,0-3.557-2.986,15.941,15.941,0,0,1,3.08,3.826" transform="translate(-86.331 -13.923)" fill="#d9e8da"/>
    <path id="Trazado_797649" data-name="Trazado 797649" d="M313.5,49.154c.558.448,1.189.865,1.876,1.326a13.5,13.5,0,0,0-1.876-1.326" transform="translate(-85.626 -13.425)" fill="#d9e8da"/>
    <path id="Trazado_797650" data-name="Trazado 797650" d="M326.883,66.6l.566.81a3.553,3.553,0,0,0-.669-1.955Z" transform="translate(-89.253 -17.878)" fill="#d9e8da"/>
    <path id="Trazado_797651" data-name="Trazado 797651" d="M326.472,66.412l-.005-.039-1.211-1.758,1.216,1.8" transform="translate(-88.837 -17.648)" fill="#d9e8da"/>
    <path id="Trazado_797652" data-name="Trazado 797652" d="M327.843,68.352c-.052-.075-.091-.129-.142-.2.008.11.025.169.142.2" transform="translate(-89.505 -18.613)" fill="#d9e8da"/>
    <path id="Trazado_797653" data-name="Trazado 797653" d="M332.274,79.708c.864.707.265-.9,1.785.768-1.015-1.117-2.822-3.562-1.785-.768" transform="translate(-90.669 -21.418)" fill="#d9e8da"/>
    <path id="Trazado_797654" data-name="Trazado 797654" d="M329.943,72.53c-.635-.723-1.236-1.465-1.893-2.164.475.745.89,1.529,1.337,2.29.1-.126.029-.652.557-.126" transform="translate(-89.6 -19.219)" fill="#d9e8da"/>
    <path id="Trazado_797655" data-name="Trazado 797655" d="M326.808,69.055l.9.952-.528-.829Z" transform="translate(-89.261 -18.861)" fill="#d9e8da"/>
    <path id="Trazado_797656" data-name="Trazado 797656" d="M316.286,54.222c.275.04.954.326-.133-.9a12.212,12.212,0,0,1-1.367-1.215c-.461-.441-.941-.91-1.444-1.413.478.6,1,1.167,1.481,1.772s.973,1.191,1.463,1.755" transform="translate(-85.583 -13.846)" fill="#d9e8da"/>
    <path id="Trazado_797657" data-name="Trazado 797657" d="M321.973,60.374l-.184-.181c.059.155.124.264.184.181" transform="translate(-87.89 -16.44)" fill="#d9e8da"/>
    <path id="Trazado_797658" data-name="Trazado 797658" d="M299.357,37.473l.1.228a1.021,1.021,0,0,1,.1-.042Z" transform="translate(-81.763 -10.235)" fill="#d9e8da"/>
    <path id="Trazado_797659" data-name="Trazado 797659" d="M317.44,55.808a6.209,6.209,0,0,0,1.782,1.739c-.6-.61-1.227-1.271-1.867-2-.124-.018-.176,0,.086.263" transform="translate(-86.651 -15.17)" fill="#d9e8da"/>
    <path id="Trazado_797660" data-name="Trazado 797660" d="M309.455,45.551l1.184,1.631c-.26-.563-.92-1.6-1.184-1.631" transform="translate(-84.521 -12.441)" fill="#d9e8da"/>
    <path id="Trazado_797661" data-name="Trazado 797661" d="M321.628,59.581l.126.119c-.136-.374-.154-.3-.126-.119" transform="translate(-87.843 -16.233)" fill="#d9e8da"/>
    <path id="Trazado_797662" data-name="Trazado 797662" d="M321.29,59.677a2.01,2.01,0,0,1-.114-.4,10.824,10.824,0,0,0-1.215-.97c.468.517.914.987,1.329,1.375" transform="translate(-87.391 -15.924)" fill="#d9e8da"/>
    <path id="Trazado_797663" data-name="Trazado 797663" d="M291.081,35.612c-1.077-.518-2.307-.945-2.29-.344.886.463,1.719,1,2.572,1.519-.051.155-1.045-.315-.483.3.241-.153,1.012.125,1.931.7a10.571,10.571,0,0,1,1.432,1.061,10.751,10.751,0,0,1,1.295,1.448c2.141,1.322,2.1-1.053,1.035-3.277-.219.14-.322.253-2.585-1.1.587.746,3.987,4.238,2.015,3.174a12.55,12.55,0,0,1-2.21-1.871,11.779,11.779,0,0,0-.963-1.327c.351.7-.659.217-1.75-.28" transform="translate(-78.877 -9.553)" fill="#d9e8da"/>
    <path id="Trazado_797664" data-name="Trazado 797664" d="M303.277,41.1l.829.7a30.84,30.84,0,0,1-2.306-3.049c-1.542-.989-1.951-1.079-2.16-1.023,1.319,1.193,2.677,2.341,3.959,3.572Z" transform="translate(-81.84 -10.3)" fill="#d9e8da"/>
    <path id="Trazado_797665" data-name="Trazado 797665" d="M309.276,46.71c-.978-.228-3.051-1.788-2.341-.259a8.972,8.972,0,0,0,1.975,1.577,4.827,4.827,0,0,1,1.408.824c-3.622-3.589,1.249.837-1.063-2.066.766.659,1.414,1.295,2.022,1.9-.586-.717-1.138-1.423-1.641-2.107l.056.11.018.016s-.007,0-.01,0c.1.212.119.3-.023.085a.692.692,0,0,1-.083-.069.606.606,0,0,1-.317-.013c-.94-1.159-.054-.276.317.013.032-.008.08,0,.105-.016a.081.081,0,0,0-.008-.019c-.619-.595-1.279-1.148-1.939-1.7l-1.969-1.657c.72.821,1.751,1.707,3.492,3.378" transform="translate(-83.518 -11.835)" fill="#d9e8da"/>
    <path id="Trazado_797666" data-name="Trazado 797666" d="M328.948,77.767c-.04-.158,0-.174.029-.206-.236-.235-.343-.312-.029.206" transform="translate(-89.792 -21.135)" fill="#d9e8da"/>
    <path id="Trazado_797667" data-name="Trazado 797667" d="M329.4,75.833l-.26-.258a20.606,20.606,0,0,1-1.5-3.969,7.317,7.317,0,0,0,.178,2.66,4.229,4.229,0,0,1,1.218,1.428c.407.96-.241.142-.374.29.523.512,1.682,1.909.738-.15" transform="translate(-89.472 -19.558)" fill="#d9e8da"/>
    <path id="Trazado_797668" data-name="Trazado 797668" d="M327.648,71.525c.008-.066.016-.132.026-.2-.055-.054-.059.028-.026.2" transform="translate(-89.485 -19.477)" fill="#d9e8da"/>
    <path id="Trazado_797669" data-name="Trazado 797669" d="M316.709,58.971l.162-.277c1.436,1.913,1.37,1.3,1.748,1.381-.922-1.065-1.938-2.048-2.926-3.049Z" transform="translate(-86.225 -15.575)" fill="#d9e8da"/>
    <path id="Trazado_797670" data-name="Trazado 797670" d="M299.305,36.253c-.8-.335-1.661-.592-2.482-.883l1.657.984Z" transform="translate(-81.071 -9.661)" fill="#d9e8da"/>
    <path id="Trazado_797671" data-name="Trazado 797671" d="M293.157,31.42c-.454-.215-.927-.4-1.389-.6l.9.906Z" transform="translate(-79.69 -8.417)" fill="#d9e8da"/>
    <path id="Trazado_797672" data-name="Trazado 797672" d="M71.137,233.833l.724.949a11.189,11.189,0,0,0-.724-.949" transform="translate(-19.43 -63.867)" fill="#d9e8da"/>
    <path id="Trazado_797673" data-name="Trazado 797673" d="M65.429,223.394l-.334-.071c.313.291.483.387.334.071" transform="translate(-17.779 -60.996)" fill="#d9e8da"/>
    <path id="Trazado_797674" data-name="Trazado 797674" d="M111.17,25.82l.8.185a12.961,12.961,0,0,1,2.656-1.6c-1.8.561-3.979,1.034-3.456,1.415" transform="translate(-30.342 -6.666)" fill="#d9e8da"/>
    <path id="Trazado_797675" data-name="Trazado 797675" d="M51.08,132.753a18.122,18.122,0,0,0,.777-2.194Z" transform="translate(-13.951 -35.659)" fill="#d9e8da"/>
    <path id="Trazado_797676" data-name="Trazado 797676" d="M219.7,2.359a32.512,32.512,0,0,0-3.875-.85c1.862.576,3.307,1.271,3.875.85" transform="translate(-58.947 -0.412)" fill="#d9e8da"/>
    <path id="Trazado_797677" data-name="Trazado 797677" d="M214.108,1.321a9.917,9.917,0,0,0-4.563-.38c.275.08.546.13.826.2a23.77,23.77,0,0,1,3.737.179" transform="translate(-57.233 -0.224)" fill="#d9e8da"/>
    <path id="Trazado_797678" data-name="Trazado 797678" d="M321.605,241c.091-.088.18-.207.267-.284-.047-.076-.14.067-.267.284" transform="translate(-87.84 -65.742)" fill="#d9e8da"/>
    <path id="Trazado_797679" data-name="Trazado 797679" d="M353.353,181.226a13.448,13.448,0,0,0,.227-2.134c-.029.515-.134,1.348-.227,2.134" transform="translate(-96.511 -48.915)" fill="#d9e8da"/>
    <path id="Trazado_797680" data-name="Trazado 797680" d="M266.813,15.8c1.083.48.2.013,0,0" transform="translate(-72.874 -4.316)" fill="#d9e8da"/>
    <path id="Trazado_797681" data-name="Trazado 797681" d="M271.6,22.236a.785.785,0,0,1,.548-.041c-.251-.055-.458-.065-.548.041" transform="translate(-74.181 -6.051)" fill="#d9e8da"/>
    <path id="Trazado_797682" data-name="Trazado 797682" d="M268.364,16.913c-.363-.266-.791-.556-1.271-.844.2.148.583.412,1.271.844" transform="translate(-72.951 -4.389)" fill="#d9e8da"/>
    <path id="Trazado_797683" data-name="Trazado 797683" d="M268.718,16.737l.9.523c.177-.019.087-.135-.9-.523" transform="translate(-73.395 -4.571)" fill="#d9e8da"/>
    <path id="Trazado_797684" data-name="Trazado 797684" d="M266.243,15.558l-1.518-.652c.621.271,1.185.557,1.72.846-.195-.132-.269-.2-.2-.194" transform="translate(-72.304 -4.071)" fill="#d9e8da"/>
    <path id="Trazado_797685" data-name="Trazado 797685" d="M218.506,307.16c.076.009.164.01.247.025,1.1-.385.605-.283-.247-.025" transform="translate(-59.68 -83.831)" fill="#d9e8da"/>
    <path id="Trazado_797686" data-name="Trazado 797686" d="M89.611,56.772l-.129.105.062.007c.032-.042.04-.073.068-.112" transform="translate(-24.44 -15.506)" fill="#d9e8da"/>
    <path id="Trazado_797687" data-name="Trazado 797687" d="M267.876,125.951c-.4-.642-.282-2.394-.164-4.085a16.061,16.061,0,0,0,.045-2.341,2.146,2.146,0,0,0-.345-1.336l.1,2.076c-.476-1.4-1.044-.45-1.7.754a11,11,0,0,1-1.436,2.2,10.41,10.41,0,0,0-.106-2.889l.848-.675-.517-1.785L264,116.1c.455-2.154.728-3.08,1.419-.939-.279-1.3-.44-2.2-.563-2.906-.147-.7-.228-1.2-.308-1.673a24.763,24.763,0,0,0-.972-3.94l.56.16c-.208-1.569-1.221-3.966-.894-4.964a19.622,19.622,0,0,0-.25-4.363c-.066-.482-.124-.991-.218-1.517l-.326-1.631-.75-3.557c-1.224-4.914-2.912-10.4-4.175-14.8-.433,1.115-.617.057-.909-1.247-.319-1.294-.71-2.862-1.343-2.779.133-.634-.182-1.89.7-.667-.275-.516-.515-1.007-.731-1.476l-.639-1.319c-.39-.839-.709-1.607-1.029-2.327a10.377,10.377,0,0,0-2.561-3.806c.068-.65.965.6.929.083a4.257,4.257,0,0,1-1.05-1.673c-.039-.527.607.441,1.111,1.011a16.926,16.926,0,0,0-1.593-2.372,5.245,5.245,0,0,0-1.316-1.1,2.327,2.327,0,0,0-1.9-.154,10.917,10.917,0,0,0-1.264-2.63,7.026,7.026,0,0,0-1.862-1.634c-.18-.877-.675-2.236,1.108.1l-1.228-1.917-.9-1.385L242,49.273c-1.422-1.857-2.809-3.506-3.226-3.269a7.78,7.78,0,0,0-1.807-2.05l-1.43-1.727c-.392-.463-.739-.823-1.072-1.193-.675-.732-1.356-1.448-2.635-2.732l.591.827c-1.707-.325-2.282-1.959-4.483-3.879l.134-.022a20.9,20.9,0,0,0-2.322-2.463,9.3,9.3,0,0,0-1.106-.864,7.974,7.974,0,0,1-1.08-.866l-2.383-2.347-.119.732c-.677.361-1.691-.685-2.971-2.074a19.852,19.852,0,0,0-4.672-3.84l.929,1.094a8.923,8.923,0,0,1-2.9-2.823,14.586,14.586,0,0,0-2.769-3.183c-.348-.326.747.177,1.346.441-4.462-3.47-1.06.376-4.766-1.471-.46-.765,1.438-.58-1.011-1.959a5.794,5.794,0,0,0-1.548-.724c.191-.009.235-.089.017-.291l-1.787-.7c-1.368-1.263,3.639.754,1.537-.5a40.673,40.673,0,0,1,4.033,1.284c.713.27,1.449.573,2.2.937a22.805,22.805,0,0,1,2.231,1.379l.18,1.063c.056-.246-1.823-1.624-2.839-1.907a12.854,12.854,0,0,1,2.959,2.029,14.2,14.2,0,0,0,1.7,1.159,3.127,3.127,0,0,0,1.577.534c-.619-.617-1.225-1.265-1.879-1.842,1.248.46,2.626,1.023,4.073,1.646a18.819,18.819,0,0,1,2.144,1.077,16.922,16.922,0,0,1,1.992,1.424c-.75-1.534-.659-.366-2.039-2.5,1.05,2.08-7.081-4.58-4.993-1.769a8.9,8.9,0,0,0-2.516-2.347A25.218,25.218,0,0,1,208.15,13.1c-.04.287.749.972-1.655-.411a3.375,3.375,0,0,1-.65-.061l-.157-.1.121.1c-.125-.018-.138-.015.046.036a4.356,4.356,0,0,1,1.063,1.013,14.829,14.829,0,0,1-3.44-1.081c-1.365-.492-2.723-1.023-3.458-1.176-1.428-.787.745-.008.054-.641l-1.1-.23-1.116-.182c.039-.64-3.666-2.533.062-1.446l-3.232-1.3a21.243,21.243,0,0,0-3.126-1.441,15.623,15.623,0,0,0-3.07-.9c-1.551-.579-4.18-.487-2.674-.555-.895-.184-1.783-.387-2.679-.552l-2.7-.431-.015-.159A68.039,68.039,0,0,0,172.2,2.317a58.2,58.2,0,0,1-8.789-1.4c-.909.01-1.832.017-2.9-.007-1.074.017-2.3-.011-3.807-.135l-.584-.541c-1.167.029-2.916-.031-4.507-.081s-3.017-.063-3.5.275A7.523,7.523,0,0,0,145.171,0c-.627,0-1.31.025-2.024.071-.713.062-1.455.177-2.21.286-1.507.242-3.066.459-4.486.762s-2.721.555-3.748.675l-.022.7-1.039.183-1.025.252c-.684.175-1.372.363-2.077.567l-2.184.653c-.75.251-1.524.551-2.346.852l.369.527a35.783,35.783,0,0,1-5.329,1.595c-1.04.266-2.139.538-3.259.843-1.107.338-2.223.743-3.324,1.189a4.916,4.916,0,0,1,2.2-.9,17.679,17.679,0,0,0-4.215,1.191,41.8,41.8,0,0,0-3.918,2.082c-1.287.711-2.485,1.553-3.708,2.236a24.186,24.186,0,0,1-3.677,1.7,8.647,8.647,0,0,1-2.7,1.545,1.677,1.677,0,0,0,.259-.187c-.118.06-.288.156-.461.257a17.476,17.476,0,0,0-1.691.656c.534-.164,1.024-.347,1.446-.513a35.038,35.038,0,0,0-3.217,2.32L91.9,19.34l-.278.2c-1.355.584-.8.884.115.877a9.86,9.86,0,0,0-1.375,1.422c-.775-.1-1.511.536-2.29,1.189a9.475,9.475,0,0,1-1.219.911,2.753,2.753,0,0,1-1.342.48,20.822,20.822,0,0,1-2.923,3c-.142.148-.282.3-.419.446q-4.061,3.05-7.871,6.3l-3.24,2.9c-1.045,1-2.05,2.022-3.068,3.031-.5.512-1.023,1-1.5,1.53l-1.422,1.592-1.407,1.593c-.47.528-.934,1.059-1.357,1.622.525-.132,1.036-.272,1.578-.381-.842.987-1.628,2.02-2.445,3.029-.809.667-1.464.621.282-1.566a5.774,5.774,0,0,0-1.737,2.328,4.65,4.65,0,0,0-.579,1.877c-3.451,4.246.278-2.425-.7-1.069l-1.249,1.92.39-.356c-.363.877-.478,1.407-.747,2.059a9.628,9.628,0,0,1-.564,1.128c-.24.459-.563,1.009-1.017,1.712-1.292,1.691-1.1.6-1.574,1.289-.057-.041-.236.182-.705,1.076-.859,1.407-1.665,2.847-2.5,4.271l1.649-1.345A26.944,26.944,0,0,1,51.212,65c-.223.56-.166.635.778-.14-1.374,1.135-3.583,5.172-5.277,9.26-.463,1-.816,2.043-1.183,3.014l-1.006,2.708A32.155,32.155,0,0,1,43.28,83.2c-.1.77-.229,1.524-.39,2.277-.134.761-.282,1.526-.463,2.3-.352,1.557-.845,3.163-1.241,4.98.357-.869,1.332-1.2.547,1.882-.383-.378-.7-.223-.991.265a8.327,8.327,0,0,0-.78,2.251c-.228.946-.459,2.013-.742,2.992-.14.49-.3.957-.466,1.379a5.179,5.179,0,0,1-.527,1.1c.57-1.1.348,1.186.195,3.306a12.557,12.557,0,0,0,0,2.618c.088.535.275.58.648-.3-.339,2.655-.691.105-1.264,2.109.041.805.009,1.626.03,2.467s.009,1.7-.015,2.569-.068,1.762-.1,2.665q-.023,1.356-.047,2.753c-.013.93-.063,1.876-.048,2.829s.058,1.916.088,2.886a45.15,45.15,0,0,0,.565,5.872c.251.089.456-1.266,1.01.367-.259,1.433-.376,2.86-.547,4.31a4.2,4.2,0,0,0,.9,1.534,2.443,2.443,0,0,1,.362.924,5.845,5.845,0,0,1,.078,1.673c.11-.436.28-1.082.577-.077a79.762,79.762,0,0,0,6.97,22.449c3.305,7.229,7.226,14.108,10.971,21.162-.85-2.029.005-.88.954.444-.52-.933.49-.328.631-.691l1.644,2.872c.566.949,1.082,1.943,1.7,2.864.739.171,1.9,1.5,3.011,2.778a16.034,16.034,0,0,0,1.626,1.691c.5.443.918.726,1.191.7l-1.542-1.4c1.329.654,1.058-.421.669-1.739-.366-1.345-.872-2.91-.249-3.183a5.869,5.869,0,0,1-1.868-1.8c-.543-.8-1.018-1.76-1.554-2.742-.267-.493-.544-.994-.845-1.491-.194-.31-.4-.627-.6-.941.555.687,1.162,1.377,1.8,2.022,1.119,1.164,2.154,2.3,2.887,3.162s1.071,1.532.672,1.862c.774.851,1.518,1.729,2.317,2.556l2.42,2.459-.276.017a19.345,19.345,0,0,0,1.989,2,19.573,19.573,0,0,0,1.587,1.258,12.959,12.959,0,0,0,2.4,1.347c.672.768-.015.428-.153.453a36.3,36.3,0,0,0,4.936,4.421,29.845,29.845,0,0,0,5.183,2.806l.065.87a8.762,8.762,0,0,1,1.774,1.246c.8.663,1.867,1.438,3.038,2.332.59.44,1.212.9,1.864,1.361.669.431,1.364.864,2.074,1.284s1.438.826,2.17,1.205a19.508,19.508,0,0,0,2.242.955c-.09.039-.267.1-.759-.051,3.33,1.313,6.967,3.555,10.33,5.17.84.4,1.653.777,2.426,1.1.387.164.762.317,1.127.452.371.119.729.225,1.074.313a5.214,5.214,0,0,0,3.331.058l1.154.23,1.166.18,2.327.347c-5.73-1.825,1.152-.776-1.108-1.84a13.386,13.386,0,0,1,3.323,1.287c.784.409.924.727-.491.414l-.4-.242c-1.381,1.042,7.147,2.2,6.829,2.942a151.165,151.165,0,0,0,17.477,2.358l4.331.241c1.439.034,2.874.02,4.3.026.376,0,.752,0,1.127,0-2.309.6-.619,2.217,1.678,3.03.055-.254.049-.407,2.614-1.05-.945-.113-5.829-.178-3.678-.822a12.605,12.605,0,0,1,2.892-.239,12,12,0,0,0,1.622.257c-.746-.249.314-.621,1.438-1.042,1.13-.4,2.3-.965,1.866-1.379-.547.171-1.1.312-1.652.446-.269-.161-.537-.323-.805-.5,1.29-.1,2.574-.276,3.862-.412,1.042.1,1.471.6-1.3.906a5.764,5.764,0,0,0,2.868-.417,4.648,4.648,0,0,0,1.734-.916c1.683-.174,2.138-.094,2.016.091l-1.582.212.5.358c-.9.366-1.926.7-1.2.585l2.236-.474-.526-.024c.875-.362,1.33-.656,1.979-.926a9.807,9.807,0,0,1,1.195-.4c.493-.154,1.108-.315,1.925-.49,2.1-.282,1.2.351,2.019.2.012.069.3.038,1.257-.262,1.6-.386,3.183-.834,4.777-1.249l-1.227-.124c.354-.121.56-.218.515-.279l-.943.236-.458-.046a26.774,26.774,0,0,1,2.661-1c.061-.026.113-.05.159-.073.023.042.1.066.258.06l1.759-.773c1.865-.074-3.113,2.045-.736,1.442a40.726,40.726,0,0,1-3.768,1.949c-.7.314-1.432.621-2.22.893a22.757,22.757,0,0,1-2.559.6l-.88-.626c.134.214,2.442-.141,3.363-.66a12.913,12.913,0,0,1-3.535.659,14.288,14.288,0,0,0-2.028.385,3.13,3.13,0,0,0-1.5.739c.877,0,1.765.028,2.637-.027-1.211.559-2.586,1.136-4.053,1.721a18.748,18.748,0,0,1-2.283.756,16.922,16.922,0,0,1-2.42.4c1.619.556.725-.207,3.216.326-2.218-.729,8.264-1.772,4.792-2.285a8.915,8.915,0,0,0,3.446-.12,25.369,25.369,0,0,1,3.969-.48c-.176-.232-1.22-.158,1.464-.882a3.414,3.414,0,0,1,.5-.417l.185-.038-.156.016c.1-.076.109-.087-.057.007a4.4,4.4,0,0,1-1.471.036,14.865,14.865,0,0,1,3.2-1.673c1.316-.619,2.655-1.205,3.283-1.617,1.57-.454-.522.534.417.493l.943-.617.919-.661c.426.48,4.393-.8.982,1.068l3.213-1.367a21.282,21.282,0,0,0,3.237-1.194,15.656,15.656,0,0,0,2.811-1.541c1.509-.689,3.307-2.617,2.289-1.5.764-.5,1.537-.99,2.289-1.507l2.219-1.609.124.1a68.129,68.129,0,0,0,6.72-4.933,58.3,58.3,0,0,1,7.219-5.237c.637-.653,1.287-1.311,2.063-2.054.749-.773,1.634-1.619,2.793-2.6l.8-.031c.806-.848,2.088-2.045,3.251-3.136s2.182-2.093,2.285-2.675a7.538,7.538,0,0,0,2.389-1.78c.446-.443.911-.946,1.385-1.485s.9-1.157,1.363-1.769c.9-1.239,1.848-2.5,2.64-3.719s1.535-2.322,2.178-3.134l-.482-.513.246-.351q.395-.317.794-.635a2.764,2.764,0,0,0,.381-1.251c.269-.463.536-.925.8-1.409q.251-.467.511-.947c.087-.083.173-.164.274-.252-.064.038-.132.077-.2.115l.5-.926c.263-.529.52-1.093.785-1.672a83.534,83.534,0,0,0,9.374-18.626c2.769-7.433,4.856-15.052,7.19-22.672-.832,2.031-.624.617-.359-.987-.291,1.026-.577-.113-.932.043l.865-3.187c.271-1.068.608-2.134.825-3.216m-92.89,100.808.039-.035a.469.469,0,0,1-.039.035M214,210.269c.081-.239.434-.614,1.228-1.14-.141.1-.286.211-.438.337-.243.265-.57.568-.79.8M48.037,115.011a107.347,107.347,0,0,0,1.776,19.466c-.309-.217-.458,3.312-1.262-.469-.072-.874-.174-1.675-.308-2.45-.1-.778-.221-1.534-.378-2.306-.3-1.545-.773-3.162-1.152-5.24.111-2.471.561.386.741-.511l-.855-2.117c-.024-.533.2-.372.315-.291-.364-1.816-.882-.1-1.2-2.995-.472-.378-.21-1.888.143-3.723a23.854,23.854,0,0,0,.456-2.915,10.458,10.458,0,0,0-.158-2.9c.313-.865.5.456.854.206-.169-2.455-.219-3.52-.307-4.473s-.135-1.795-.363-3.871c.329-1.119.654-2.234,1.066-3.328-1.089,2.391-1.281-.907-1.393-3.879-.469.839-.878,1.561-1.1,2.058l.113-1.476c.387-.649.984-2.254.938-.784.012-.116.025-.222.038-.331,0,.177,0,.35.011.534l.266-.475c-.063-.288-.122-.56-.18-.821q.068-.467.134-.843c.077-.488.134-.875.174-1.191.4-.371.6.407.765,1.358l-.894,1.5c.317,1.223.706,2.362,1.246,2.225a7.225,7.225,0,0,1,.031-1.507c.089.316.181.524.29.408.125-.132-.012-.638-.048-1.4l1.176-.8-.319-.325.957-2.8c.305-.934.715-1.839,1.066-2.756.055-1.075.065-2.134.094-3.219.071-1.072.145-2.174.264-3.352.06-.589.13-1.2.217-1.83s.244-1.271.395-1.948.335-1.382.542-2.122c.189-.674.394-1.381.671-2.1.027-.046.055-.09.082-.135-.015,1.7.926.712,1.647,1.124-.788.659-1.15,1.928-1.542,3.393-.188.734-.389,1.518-.6,2.33a17.4,17.4,0,0,1-.746,2.453c.669-1.687.919-1.174.9-.695.358-2.049.93-4.036,1.422-6.069.292.195.531-.062.8-.539s.633-1.156,1.09-1.834c-.872.281-.6-.86-.031-2.391.145-.382.3-.789.475-1.2l.566-1.219a21.4,21.4,0,0,0,.908-2.191c.474.073.612.828-.887,3.509a5.311,5.311,0,0,0,1.5-3.593,5.169,5.169,0,0,1,1.5-3.566c-.366.66-.63.979-.577,1.351a14.553,14.553,0,0,1,1.654-3.167c.66-.97,1.285-1.549,1.172-1.024l-.4.637c.708-1.029,1.574-2.342,2.466-3.752.919-1.393,1.939-2.834,2.812-4.221.893-1.372,1.763-2.6,2.323-3.618.105-.187.2-.362.285-.531a8.7,8.7,0,0,0,.466-.911l.325.611c.045-.083.1-.182.161-.289a3.414,3.414,0,0,1,.2.807q.306-1.042.629-2.1a7.127,7.127,0,0,1,.637-.759l-.7,1.951a8.672,8.672,0,0,1,1.673-2.019c-.01.366-.027.74-.035,1.1a7.164,7.164,0,0,1,.834-1.8,24.665,24.665,0,0,0,3.611-3.126c-1.878,1.787-2.378,2.071-2.546,1.944.121-.1.246-.206.377-.31l-.511-.044c-.055-.166-.169-.274-.574-.049l-.17-.012a14.691,14.691,0,0,1,1.327-1.5c.293-.291.559-.53.808-.735.176.466.039,1.144-.75,2.232A19.547,19.547,0,0,0,77,39.875c.579-.579,1.2-1.339,1.989-2.3a9.306,9.306,0,0,0,1.5-.691,20.164,20.164,0,0,0,3.216-2.463c-.945.8-3.1,2.107-2.077.852a25,25,0,0,1,2.084-1.389,12.018,12.018,0,0,1,1.881-.9c4.153-3.388-1.055-.021.512-1.736a3.515,3.515,0,0,0,2.032-1.454l.045-.012c-.018,0-.02-.006-.029-.009.075-.1.151-.2.229-.3.284-.249.772-.623,1.324-1.039.124-.089.252-.18.382-.27l.153.211c.66-.4,1.163-.725,1.549-1a6.747,6.747,0,0,0,.872-.655,1.423,1.423,0,0,0,.512-.831c.1-.454.156-.863,2.654-2.126l-1.52,2.022c.382-.278.759-.566,1.138-.85.06.1.241.172.574.232.19-.1.357-.188.505-.27,0,.039-.012.074-.016.113.183-.152.355-.292.523-.426a2.768,2.768,0,0,0,.39-.305,17.622,17.622,0,0,1,2.043-1.367c.443-.251.9-.481,1.412-.731s1.118-.469,1.826-.767c-.707-.079-.357-.885,1.195-1.866.538-.084.466.058,1.833-.647.108.12-.21.371.809-.067A7.682,7.682,0,0,1,105,19.96c-.092.015-.175.036-.274.047a.592.592,0,0,1-.074.16c-.1.059-.2.113-.273.155l.249-.116a4.866,4.866,0,0,0-.558.819c.033-.009.069-.023.1-.032a106.74,106.74,0,0,0-56.138,94.017m.607-27.671a5.608,5.608,0,0,1-.742,2.535,9.989,9.989,0,0,1,.742-2.535m-4.722,43.266,0-.025c-.082-.645-.186-1.3-.269-1.959a4.465,4.465,0,0,1,.273,1.984m.748,9.1a5.837,5.837,0,0,1-.046-2.174,2.459,2.459,0,0,1,.137-.475,9.917,9.917,0,0,1-.031,2.7Zm9.268,13.781a1.86,1.86,0,0,1-.915-1.094c-.139-.45-.166-1-.289-1.694.2.363.522.894.779,1.418a2.388,2.388,0,0,1,.424,1.37m-1.218-2.868a11.225,11.225,0,0,0-1.409-3.693c.621-.21-.005-1.831-.636-3.913l.878-.083A8.446,8.446,0,0,0,50.542,141a7.46,7.46,0,0,1-.893-1.235c-.491-2.489-.017-3.192.433-3.879q.917,4.626,2.226,9.1c.051.283.135.628.246,1.076v-.251c.375,1.246.768,2.484,1.186,3.711.005,1.533-.146,2.844-1.021,1.1M78.922,37.6a1.79,1.79,0,0,1-.406.153c.131-.051.265-.1.406-.153m26.933-17.859a4.2,4.2,0,0,1-.6.174l1.686-.782c-.083.069-.168.137-.262.2a3.456,3.456,0,0,1-.826.407m-8.121.366a2.592,2.592,0,0,0,.3-.091,10.223,10.223,0,0,1-.917.515c.19-.142.394-.283.616-.424m11.54-1.688q.678-.438,1.364-.867l.084-.034s0-.01-.006-.015c.052-.032.1-.065.154-.1L113.329,16c.806-.072.44.258-.055.629-1.348.57-2.68,1.172-4,1.8m7.019-3.279a2.989,2.989,0,0,0-.087.3q-1.227.475-2.439.981a13.786,13.786,0,0,1,2.526-1.281m144.5,115.035a.469.469,0,0,0-.259-.344c.028-.2.057-.395.083-.593.059.312.116.624.177.937m-1.74,9.76a14.259,14.259,0,0,1,.284,2.3,9.939,9.939,0,0,1-.435,3.213c-.094-.512-.789-1.308-1.506-.816q.818-2.839,1.484-5.742c.055.361.118.705.173,1.048m-2,7.727a20.713,20.713,0,0,1,.551,2.359c-.252.62-.507,1.247-.772,1.895-.28.7-.645,1.4-.986,2.159l-.132.286c-.018-.885-.062-1.775-.069-2.608-.012-.556-.015-1.087-.013-1.589.4-1.138.781-2.282,1.14-3.437.085.27.18.582.282.935M253.5,159.145c-.052.232-.108.465-.176.7-.105.366-.227.739-.356,1.114-.139.185-.275.362-.425.579a1.123,1.123,0,0,0,.052.43c-.174.44-.358.879-.563,1.313-.718.874-1.012-.869-1.284-1.409q.244-.5.483-1c.025.1.068.172.15.179.144-.449.271-.9.4-1.357q1.1-2.386,2.087-4.833a10.651,10.651,0,0,1-.007,1.859,20.286,20.286,0,0,1-.3,2.128c-.059.114-.11.221-.171.337Zm-4.427,6q.736-1.38,1.43-2.784a12.366,12.366,0,0,1-.633,1.941,9.97,9.97,0,0,1-1.131,2.258Zm12.07-40.711a3.425,3.425,0,0,1,.265,1.71c-.06-.091-.217-.125-.406-.145.053-.52.1-1.043.141-1.565m.365-6.17c0-.113.01-.226.013-.339a.929.929,0,0,1,.038.206c-.019.048-.033.087-.051.133M248.285,166.6c-.131.446-.241.893-.364,1.348a8.141,8.141,0,0,1-2.021,3.612,9.168,9.168,0,0,1-1.544,1.609l-.043.039q2.1-3.225,3.972-6.607m15.579-50.877c-.549-.415-1.477.3-2.316.37,0-.361.014-.72.014-1.082q0-1.337-.033-2.664l.047-.041-.048-.051c-.013-.522-.039-1.04-.059-1.56.841,1.642,1.654,3.315,2.4,5.028m-9.082-38.857a3.221,3.221,0,0,0-.375-.343q-.351-.908-.72-1.808a21.127,21.127,0,0,1,1.095,2.151M244.79,55.75c.515.589.963,1.223,1.449,1.835.178.554-.324.313-1.031-.133.227.229.446.445.626.608.312.811.228,1.078-.066,1.049q-.678-1.1-1.382-2.184l.822.528c-.382-.372-.782-.815-1.26-1.239l.023.083-.1-.156.079.073c-.262-.926-.484-1.728-.679-2.237ZM192.023,7.086a.719.719,0,0,0-.1,0c-1.739-.858-1.125-.544.1,0m-19.735-2.9c1.123-.007,2.372.039,3.707.143,2.114.212,2.51.566,2.492.747-.021.2-.469.318-.1.321a25.989,25.989,0,0,0,4.427.8,21.027,21.027,0,0,0,2.731.144,12.981,12.981,0,0,1,2.479.2,15.118,15.118,0,0,1,3.541,1.316c2.245,1.529-.367,1.406.012,2.09A20.825,20.825,0,0,1,187.657,8.5a23.81,23.81,0,0,0-3.147-1.215l2.642,1.109a15.367,15.367,0,0,1-4.474-1.047,15.3,15.3,0,0,0,2.874,1.134l2.269.705,2.567.895c.892.315,1.821.614,2.734.963l2.7,1.114c.877.384,1.749.718,2.53,1.133.283.145.55.289.819.431-1.042-.3-2.117-.637-3.123-1.029-.552-.215-1.084-.447-1.576-.7a10.1,10.1,0,0,1-1.369-.748c.659.629,1.3,1.248-.591.82a17.249,17.249,0,0,1-2.309-1.019l-1.276-.657-1.336-.613c-1.8-.786-3.6-1.517-5.042-1.288-.334-.19-.446-.317-.437-.406-.563-.078-1.293-.206-2.093-.352s-1.668-.318-2.526-.407a16.649,16.649,0,0,0-4.023-.2,1.589,1.589,0,0,0-.48-.5l.77.042c-.261-.45-1.5-.768-2.955-.842l-.062,0-.125-.027a26.1,26.1,0,0,0-3.773-.417,5.378,5.378,0,0,1,2.476-.892,19.645,19.645,0,0,1,2.969-.3m-11.541.507c1.05.121,2.159.234,3.4.331a6.577,6.577,0,0,0,.864.3c-1.27-.038-2.448-.1-3.36-.171-.866-.073-1.484-.228-1.705-.528l.8.065M150.191,3.518c-.073.12.043.253.214.372-.033,0-.069,0-.1.006a19.492,19.492,0,0,0-2.016.233c-.472.086-.872.18-1.243.28a11.538,11.538,0,0,1,3.147-.89M127.5,5.508c.212-.013,1.8-.125,3.5-.2.425-.017.856-.043,1.277-.047l1.213.029a13.842,13.842,0,0,1,1.744.137,1,1,0,0,1,.417.177c-.731.23-1.55.518-2.527.9l-.663-.571a3.681,3.681,0,0,1-.855.213l-.214-.72-.182.778c-.267.036-.561.07-.888.1-.9.086-2,.249-3.219.419a1.574,1.574,0,0,1,.4-1.212M111.485,10.98l-.989.3c.51-.311,1.023-.615,1.549-.895-.161.169-.353.374-.56.594M53.918,58.907l.556-.567c-.763,1.578-.651,1.076-.556.567m4.044,115.447.285.195-.765-1.188-.009-.016c.3.424.6.85.93,1.255a16.564,16.564,0,0,0,2.7,2.981,1.935,1.935,0,0,0,.1,1.119c-1.148-.693-2-1.93-3.237-4.345m2.538,4.529c-.351-.911.594.186.77.022a8.6,8.6,0,0,0,.752,1.389,10,10,0,0,0-1.522-1.411m8.528.2c-.71-.766-1.325-1.217-1.755-1.029l-.755-1.73c.292.441.43.448.717.884-1.361-3.408-2.626-1.429-4.946-5.5-.733-1.458-1.033-2.59-.305-1.739l-2.194-2.9c-.482-.935-.082-.858.406.065-.941-1.574-1.774-3.21-2.671-4.814l.068.013a26.443,26.443,0,0,1-2.28-2.74c-.339-1.391.469.563.53.14-.548-.872-1.132-1.734-1.657-2.625-.008-.675.325-.461.755.162a13.032,13.032,0,0,1,1.43,2.6,3.33,3.33,0,0,0-.729-3.057,12.6,12.6,0,0,1-2-5.171c.387.874.837,1.724,1.25,2.584a5.122,5.122,0,0,0-.023-1.566,106.661,106.661,0,0,0,18.476,31.368,23.071,23.071,0,0,1-1.864-2.108,37.456,37.456,0,0,0-2.455-2.833m10.9,14c-1.563-1.28-1.7-1.681-1.528-1.916s.595-.274.207-.874a35.061,35.061,0,0,1-3.3-2.282,14.391,14.391,0,0,1-3.333-4c.935.8,1.453,1.617,2.252,2.432l-1.432-2.46c.544.379,1.034.757,1.462,1.1a107.5,107.5,0,0,0,7.679,7.945c-.83-.31,1.718,3.181-2.008.053m19.127,13.372c-.867-.411-1.762-.843-2.631-1.325a12.671,12.671,0,0,1-2.444-1.66,4.4,4.4,0,0,1-1.327-.6c-.728-.555-1.414-1.12-2.1-1.686-.661-.593-1.307-1.2-1.99-1.789s-1.4-1.166-2.176-1.748a24,24,0,0,0-2.522-1.766c-.347-.679-.71-1.33-1.038-2.015a107.207,107.207,0,0,0,11.6,9.206c-.242-.028-.094.285-.281.377.385.081.77.159,1.161.225q2.954,1.987,6.045,3.776c-.725-.328-1.5-.649-2.3-.993m62.894,22.353a10.933,10.933,0,0,1-1.738-.088c.24,0,.48,0,.718-.013l2.127-.119.645-.04a10.52,10.52,0,0,1-1.752.26m19.248-3.411c1.651-.575,1.218-.3.792-.008Zm2.219-5.545c-.468.049-.973.124-1.521.233-.555.084-1.154.195-1.806.35.521-.113.531-.224,1.05-.337a11.3,11.3,0,0,0-2.936.713,15.531,15.531,0,0,1-1.553.438,7.965,7.965,0,0,1-1.765.1c-1.209,1.07-3.148.514-3.373,1.644l4.827-1.114c-1.351.383-2.62,1-4.148,1.55a16.809,16.809,0,0,1-5.68.889,13.1,13.1,0,0,1,2.592-1,6.323,6.323,0,0,0-1.976.2,5.231,5.231,0,0,1-2.015.153c.073-.283.486-.438,1.1-.6a21.474,21.474,0,0,1,2.333-.418c.9-.129,1.883-.254,2.816-.433a12.975,12.975,0,0,0,2.5-.812,11.588,11.588,0,0,0-3.111.605c-1.019.236-1.686.338-1.023-.332-.962.867-2.287.989-3.786,1.089a13.524,13.524,0,0,0-4.969.723l.2-.66a10.909,10.909,0,0,1-2.8.5l1.872-.881c-2.9.774-5.632-.426-8.412-.171,2.921.072,3.25.257,3.157.507s-.615.587.635.789a13.768,13.768,0,0,1-2.291.161,10.425,10.425,0,0,1-1.569-.11A6.781,6.781,0,0,1,149.8,223a12.617,12.617,0,0,0-2.1-.82,20.091,20.091,0,0,0-4.007-.532c1.228.106,3.674.7,2.066.864a24.759,24.759,0,0,1-2.45-.491,11.87,11.87,0,0,1-1.965-.689c-5.32-.539.729.76-1.585.864-1.71-.978-2.654-.089-5.047-.246l.1-.646c-.745-.186-1.332-.309-1.8-.385a6.792,6.792,0,0,0-1.077-.154,1.423,1.423,0,0,0-.948.225c-.393.248-.719.5-3.372-.372l2.5-.355c-.95-.15-1.913-.257-2.859-.441.254-.189.5-.364.758-.566a19.615,19.615,0,0,1-3.566-.605c-.491-.135-.973-.293-1.512-.481s-1.119-.458-1.83-.747c.533.667-.746,1-3.354.14-1.618-1,1.177-.189-2.455-1.51a5.858,5.858,0,0,1,1.54.028,3.449,3.449,0,0,1,.869.3,4.453,4.453,0,0,1,.982.608c.234-.146.947-.113,1.182-.256a43.472,43.472,0,0,0-5.931-2.325,8.352,8.352,0,0,1,1.337.691c-.914-.2-1.841-.39-2.757-.611l-2.729-.737c-.7-.587.02-.477.726-.37a31.77,31.77,0,0,1-3.421-1.121c.619-.287.754-.787,2.986-.067-1.7-.509-3.332-1.17-5-1.795a9.723,9.723,0,0,0-1.047-1.016c-.382-.345-.639-.673-.422-.656a106.818,106.818,0,0,0,139.963-34.41,3.428,3.428,0,0,1,1.907-.31l-.012.007.04.9a5.839,5.839,0,0,1-1.5,1.567c-.427.291-.747.378-.906.309a15.79,15.79,0,0,0,.93-1.522,20.233,20.233,0,0,0-2.669,3.552q-.169.266-.334.518a7.371,7.371,0,0,0-.71.842c.187-.209.345-.37.492-.512a14.421,14.421,0,0,1-1.328,1.8c.627-.672,1.272-1.334,1.889-2.019-.352.518-.731,1.034-1.115,1.553a3.856,3.856,0,0,0-.907,1.156.36.36,0,0,1,.015.039c-.543.717-1.075,1.462-1.688,2.153-1.389,1.6-2.754,3.283-4.274,4.818l-2.205,2.353q-1.145,1.122-2.243,2.241c-1.43,1.525-2.92,2.889-4.215,4.3l.633-.148c-.507.528-.94.976-1.335,1.345s-.757.648-1.076.9a19.789,19.789,0,0,1-1.667,1.167c-.529.327-1.053.689-1.794,1.169s-1.661,1.124-2.926,2.1l.148-.194a15.914,15.914,0,0,1-3.72,2.965c1.164-1.169-2.918,1.052-1.347-.422-.614.5-1.13.875-1.557,1.177s-.753.554-1.013.755a6.041,6.041,0,0,0-.938.836c-.177.208-.288.4-.547.725a11.171,11.171,0,0,1-1.468,1.526l-1.094,0a17.576,17.576,0,0,1-1.28,1.255,12.775,12.775,0,0,1-2.625,1.593c2.217-1.475-2.186.147.25-1.579a23.678,23.678,0,0,0-4.15,1.531c-1.175.527-2.184,1.031-3.086,1.51a14.331,14.331,0,0,1-2.516,1.138,5.467,5.467,0,0,1-2.452.194c-1.231,1.151.194.872,1.752.4,1.568-.431,3.185-1.225,2.44-.752.755-.053.256.423-.693,1a17.27,17.27,0,0,1-3.417,1.4,9.178,9.178,0,0,1-3.434.137,15.978,15.978,0,0,0-2.422.068m5.069,2.852a3.753,3.753,0,0,0-.933-.156,5.789,5.789,0,0,0,1.187-.045,2.785,2.785,0,0,0-.254.2m13.028-1.979a.611.611,0,0,0,.068-.07c1.84-.624,1.183-.412-.068.07m11.02-8.166c-.126-.157.107-.558-.159-.3a26.059,26.059,0,0,0-3.7,2.57,21.182,21.182,0,0,0-2.037,1.832,13.09,13.09,0,0,1-1.9,1.617,15.154,15.154,0,0,1-3.443,1.577c-1.97.374-1.439-.484-1.323-1.048.27-.124.536-.248.8-.367l2.621-1.2a32,32,0,0,1,3.247-1.49c.613-.474,1.237-.914,1.882-1.332.632-.441,1.276-.878,1.952-1.3,1.347-.85,2.828-1.635,4.39-2.636a.947.947,0,0,1-.787.05l1.8-1.43c.124.244.411.281.818.178a4.5,4.5,0,0,0,.587-.209c-.725.72-1.544,1.475-2.447,2.247-1.649,1.348-2.18,1.377-2.3,1.236" transform="translate(-10.275 0)" fill="#58e2e5"/>
    <path id="Trazado_797688" data-name="Trazado 797688" d="M51.654,130.263a.621.621,0,0,1-.411.281c.051.338.175.366.411-.281" transform="translate(-13.996 -35.579)" fill="#d9e8da"/>
    <path id="Trazado_797689" data-name="Trazado 797689" d="M115.019,279.818l.1.08a.3.3,0,0,0,.171-.023Z" transform="translate(-31.415 -76.426)" fill="#d9e8da"/>
    <path id="Trazado_797690" data-name="Trazado 797690" d="M280.69,22.969c-.664-.366-1.353-.693-2.032-1.031a7.316,7.316,0,0,1,1.879,1.361c.027-.133-.165-.459.153-.329" transform="translate(-76.11 -5.992)" fill="#d9e8da"/>
    <path id="Trazado_797691" data-name="Trazado 797691" d="M281.454,23.357c.087.048.178.09.264.14a1.718,1.718,0,0,0-.264-.14" transform="translate(-76.873 -6.379)" fill="#d9e8da"/>
    <path id="Trazado_797692" data-name="Trazado 797692" d="M302.276,45.956c.317.192.563.525.878.712l.137-.289c-1.138-1.057-2.085-1.621-1.015-.423" transform="translate(-82.433 -12.368)" fill="#d9e8da"/>
    <path id="Trazado_797693" data-name="Trazado 797693" d="M284.679,29.341l1.079.67c-.087-.06-.172-.115-.254-.181.431-.166.227-.47-.3-.842a18.267,18.267,0,0,0-2.256-1.16c-.065.285.259.6.793.954.267.177.586.362.935.559" transform="translate(-77.28 -7.601)" fill="#d9e8da"/>
    <path id="Trazado_797694" data-name="Trazado 797694" d="M287.29,31.137c.458.294.919.6,1.337.934.349-.13-.5-.436-1.337-.934" transform="translate(-78.467 -8.504)" fill="#d9e8da"/>
    <path id="Trazado_797695" data-name="Trazado 797695" d="M261.111,13.878c.716.479.771-.424,1.119-.02.579-.123-.808-.518-1.779-.678-.483-.086-.874-.086-.861.007s.427.291,1.521.691" transform="translate(-70.902 -3.582)" fill="#d9e8da"/>
    <path id="Trazado_797696" data-name="Trazado 797696" d="M281.478,29.628l1.275.974-.153-.9Z" transform="translate(-76.88 -8.092)" fill="#d9e8da"/>
    <path id="Trazado_797697" data-name="Trazado 797697" d="M267.182,20.889l2.4,1.439c.016-.12.363-.017.775.137-1.521-.8-3.142-1.787-3.173-1.577" transform="translate(-72.975 -5.698)" fill="#d9e8da"/>
    <path id="Trazado_797698" data-name="Trazado 797698" d="M273.561,24.078a19.383,19.383,0,0,0-2.013-1.009,13.657,13.657,0,0,0,2.013,1.009" transform="translate(-74.168 -6.301)" fill="#d9e8da"/>
    <path id="Trazado_797699" data-name="Trazado 797699" d="M277.819,27.79c-.206-.186-.409-.38-.62-.56l-1.676-1.021c.765.53,1.561,1.007,2.3,1.581" transform="translate(-75.253 -7.158)" fill="#d9e8da"/>
    <path id="Trazado_797700" data-name="Trazado 797700" d="M225.6,7.571c.745-.032,1.875.079,1.458-.225L224.018,7c-.343.176.448.462,1.578.569" transform="translate(-61.164 -1.912)" fill="#d9e8da"/>
    <path id="Trazado_797701" data-name="Trazado 797701" d="M355.788,166.393c.174-.786.257-1.577.382-2.368l-.5,1.517c.054.284.079.567.121.851" transform="translate(-97.143 -44.8)" fill="#d9e8da"/>
    <path id="Trazado_797702" data-name="Trazado 797702" d="M355.524,159.69l-.761-1.428a5.4,5.4,0,0,1-.132,1.973Z" transform="translate(-96.86 -43.226)" fill="#d9e8da"/>
    <path id="Trazado_797703" data-name="Trazado 797703" d="M73.609,237.146l.413-.8-.266-.447Z" transform="translate(-20.105 -64.432)" fill="#d9e8da"/>
    <path id="Trazado_797704" data-name="Trazado 797704" d="M83.145,274.221c-.734-.768-.861-.1-1.049-.14,1.383,1.143,1.119,0,1.049.14" transform="translate(-22.423 -74.796)" fill="#d9e8da"/>
    <path id="Trazado_797705" data-name="Trazado 797705" d="M102.452,288.512l2.427,1-2.039-1.01Z" transform="translate(-27.983 -78.798)" fill="#d9e8da"/>
    <path id="Trazado_797706" data-name="Trazado 797706" d="M115.213,296.214a20.02,20.02,0,0,1-4.262-2.386l-.286-.439-1.526-.034c.764.441,1.6.9,2.445,1.353s1.7.938,2.566,1.332a35.3,35.3,0,0,1,4.291,2.338c-.455-.785-1.74-1.474-3.229-2.165" transform="translate(-29.809 -80.124)" fill="#d9e8da"/>
    <path id="Trazado_797707" data-name="Trazado 797707" d="M129.34,306.952c.329.137.779.334,1.534.691-.35-.564,1.875.461-1.837-.927.166.117.209.161.3.236" transform="translate(-35.244 -83.773)" fill="#d9e8da"/>
    <path id="Trazado_797708" data-name="Trazado 797708" d="M129.247,306.97c-1.609-.67.916.744,0,0" transform="translate(-35.151 -83.792)" fill="#d9e8da"/>
    <path id="Trazado_797709" data-name="Trazado 797709" d="M138.952,310.726l-2.263-.494c.368.377,2.268,1.147,1.5,1.031,2.276.66,1.888.277.765-.537" transform="translate(-37.334 -84.733)" fill="#d9e8da"/>
    <path id="Trazado_797710" data-name="Trazado 797710" d="M142.49,310.908c-.39-.072-.779-.152-1.161-.252.162.161.443.31,1.161.252" transform="translate(-38.601 -84.849)" fill="#d9e8da"/>
    <path id="Trazado_797711" data-name="Trazado 797711" d="M139.3,310.127c.29-.2-.266-.112-1.336-.3l2.448.6c-.257-.265-.18-.571-1.112-.3" transform="translate(-37.681 -84.623)" fill="#d9e8da"/>
    <path id="Trazado_797712" data-name="Trazado 797712" d="M134.646,307.457c-2.03-.759-2.949-.971-2.873-.742.04.11.333.321.87.605a14.779,14.779,0,0,0,2.352.994,9.912,9.912,0,0,1-1.431-.882c-.22-.217-.041-.231,1.082.024" transform="translate(-35.99 -83.749)" fill="#d9e8da"/>
    <path id="Trazado_797713" data-name="Trazado 797713" d="M119.78,297.564a9.383,9.383,0,0,1,1.619.94c.6.374,1.13.653,1.15.5-.456-.331-.915-.656-1.351-1.021Z" transform="translate(-32.715 -81.273)" fill="#d9e8da"/>
    <path id="Trazado_797714" data-name="Trazado 797714" d="M157.525,316.7c.185-.171-.629-.7-.733-.994-.57-.033-1.13-.109-1.693-.18.8.39,2.382.846,2.426,1.173" transform="translate(-42.362 -86.18)" fill="#d9e8da"/>
    <path id="Trazado_797715" data-name="Trazado 797715" d="M157.423,315.7l2.538.193c-2.184-.52-2.623-.444-2.538-.193" transform="translate(-42.994 -86.174)" fill="#d9e8da"/>
    <path id="Trazado_797716" data-name="Trazado 797716" d="M141.355,309.37l-1.021-.185-2.052-.376c1.621.343,3.224.7,4.861.933l-.753-.233Z" transform="translate(-37.769 -84.344)" fill="#d9e8da"/>
    <path id="Trazado_797717" data-name="Trazado 797717" d="M169.483,319.845l1.321-.144,1.322-.2-1.149.108c-.5.092-.994.159-1.494.24" transform="translate(-46.291 -87.264)" fill="#d9e8da"/>
    <path id="Trazado_797718" data-name="Trazado 797718" d="M180.236,320.519c-1.1.317,1.405.773.257.933a21.966,21.966,0,0,0,4.637-.4,15.982,15.982,0,0,1-4.894-.529" transform="translate(-49.15 -87.543)" fill="#d9e8da"/>
    <path id="Trazado_797719" data-name="Trazado 797719" d="M189.345,320.71c-.713.078-1.456.23-2.269.39a13.519,13.519,0,0,0,2.269-.39" transform="translate(-51.096 -87.595)" fill="#d9e8da"/>
    <path id="Trazado_797720" data-name="Trazado 797720" d="M166.673,317.312a3.567,3.567,0,0,0,1.86.911l-.885-.738-.975-.174" transform="translate(-45.523 -86.667)" fill="#d9e8da"/>
    <path id="Trazado_797721" data-name="Trazado 797721" d="M167.972,317.518l.031.024,2.1.387-2.135-.411" transform="translate(-45.878 -86.723)" fill="#d9e8da"/>
    <path id="Trazado_797722" data-name="Trazado 797722" d="M166.335,317.241l.246.044c-.084-.072-.137-.1-.246-.044" transform="translate(-45.431 -86.64)" fill="#d9e8da"/>
    <path id="Trazado_797723" data-name="Trazado 797723" d="M154.133,312.1c-1.113.111.45.825-1.809.721,1.51.072,4.524.523,1.809-.721" transform="translate(-41.604 -85.244)" fill="#d9e8da"/>
    <path id="Trazado_797724" data-name="Trazado 797724" d="M160.9,315.543c.962.063,1.914.163,2.876.192-.864-.192-1.714-.453-2.57-.676.018.161.441.483-.305.484" transform="translate(-43.946 -86.052)" fill="#d9e8da"/>
    <path id="Trazado_797725" data-name="Trazado 797725" d="M164.855,315.989l.962.212.353-.177Z" transform="translate(-45.027 -86.306)" fill="#d9e8da"/>
    <path id="Trazado_797726" data-name="Trazado 797726" d="M182.784,318.937c-.223.167-.907.446.731.542a12.433,12.433,0,0,1,1.83-.107c.639-.014,1.312-.022,2.024-.022-.761-.084-1.536-.118-2.3-.206s-1.534-.154-2.281-.207" transform="translate(-49.833 -87.111)" fill="#d9e8da"/>
    <path id="Trazado_797727" data-name="Trazado 797727" d="M176.143,318.74l.259,0c-.151-.068-.275-.1-.259,0" transform="translate(-48.11 -87.039)" fill="#d9e8da"/>
    <path id="Trazado_797728" data-name="Trazado 797728" d="M208.394,318.931l-.234-.089a.889.889,0,0,1-.044.1Z" transform="translate(-56.843 -87.085)" fill="#d9e8da"/>
    <path id="Trazado_797729" data-name="Trazado 797729" d="M181.63,318.722a6.227,6.227,0,0,0-2.5.03c.861,0,1.77.031,2.742.1.1-.076.122-.129-.247-.126" transform="translate(-48.927 -87.022)" fill="#d9e8da"/>
    <path id="Trazado_797730" data-name="Trazado 797730" d="M194.867,320.278l-2-.317a4.272,4.272,0,0,0,2,.317" transform="translate(-52.679 -87.391)" fill="#d9e8da"/>
    <path id="Trazado_797731" data-name="Trazado 797731" d="M176.94,319.043l-.174.005c.361.169.321.1.174-.005" transform="translate(-48.28 -87.14)" fill="#d9e8da"/>
    <path id="Trazado_797732" data-name="Trazado 797732" d="M176.5,318.757a1.941,1.941,0,0,1,.367.206,11,11,0,0,0,1.549-.173c-.7-.034-1.348-.052-1.916-.033" transform="translate(-48.207 -87.06)" fill="#d9e8da"/>
    <path id="Trazado_797733" data-name="Trazado 797733" d="M200.874,319.17l-1.082.093a30.9,30.9,0,0,1,3.795.527c1.793-.392,2.147-.618,2.256-.8-1.78.089-3.557.237-5.337.274Z" transform="translate(-54.569 -87.124)" fill="#d9e8da"/>
    <path id="Trazado_797734" data-name="Trazado 797734" d="M192.035,318.924c.855-.532,3.429-.895,1.843-1.474a8.934,8.934,0,0,0-2.517.281,4.869,4.869,0,0,1-1.582.414c5.11-.024-1.478.291,2.217.711-1.01.076-1.919.084-2.777.089.924.093,1.815.2,2.656.33l-.118-.039h-.024s.005-.005.005-.009c-.221-.078-.294-.124-.044-.076a.582.582,0,0,1,.108-.009.609.609,0,0,1,.234-.216c1.487.156.234.158-.234.216-.017.028-.058.055-.063.085a.073.073,0,0,0,.019.008c.861-.017,1.72-.093,2.577-.171l2.57-.221c-1.092-.072-2.452.031-4.869.08" transform="translate(-51.681 -86.705)" fill="#d9e8da"/>
    <path id="Trazado_797735" data-name="Trazado 797735" d="M158.818,311.329c.14.084.124.123.126.166.334,0,.464-.022-.126-.166" transform="translate(-43.378 -85.033)" fill="#d9e8da"/>
    <path id="Trazado_797736" data-name="Trazado 797736" d="M158.04,312.184h.367a20.68,20.68,0,0,1,3.876,1.75,7.33,7.33,0,0,0-2.011-1.759,4.252,4.252,0,0,1-1.875-.148c-.969-.393.07-.273.06-.471-.733.007-2.545-.161-.416.629" transform="translate(-42.892 -85.092)" fill="#d9e8da"/>
    <path id="Trazado_797737" data-name="Trazado 797737" d="M164.254,314.831l.123.159c.077,0,.021-.062-.123-.159" transform="translate(-44.863 -85.989)" fill="#d9e8da"/>
    <path id="Trazado_797738" data-name="Trazado 797738" d="M177.239,316.35c1.408.1,2.825.079,4.235.087l-2.1-.659.081.311c-2.373-.339-1.894.049-2.217.26" transform="translate(-48.409 -86.248)" fill="#d9e8da"/>
    <path id="Trazado_797739" data-name="Trazado 797739" d="M208.5,319.792c.806-.331,1.6-.757,2.386-1.133l-1.872.476Z" transform="translate(-56.948 -87.035)" fill="#d9e8da"/>
    <path id="Trazado_797740" data-name="Trazado 797740" d="M216.65,318.861c.475-.169.943-.372,1.412-.557h-1.284Z" transform="translate(-59.173 -86.938)" fill="#d9e8da"/>
    <path id="Trazado_797741" data-name="Trazado 797741" d="M288.577,287.4a32.646,32.646,0,0,0,3.348-2.144c-1.727.911-3.244,1.443-3.348,2.144" transform="translate(-78.819 -77.911)" fill="#d9e8da"/>
    <path id="Trazado_797742" data-name="Trazado 797742" d="M237.538,11.005c-.773-.1-1.122-.068-1.135.065.79.108,1.254.117,1.135-.065" transform="translate(-64.569 -2.99)" fill="#d9e8da"/>
    <path id="Trazado_797743" data-name="Trazado 797743" d="M293.183,284.138a9.929,9.929,0,0,0,3.5-2.964c-.251.138-.48.294-.728.443a23.847,23.847,0,0,1-2.775,2.522" transform="translate(-80.077 -76.797)" fill="#d9e8da"/>
    <path id="Trazado_797744" data-name="Trazado 797744" d="M67.791,254.789a13.523,13.523,0,0,0,1.352,1.673c-.345-.385-.86-1.05-1.352-1.673" transform="translate(-18.516 -69.59)" fill="#d9e8da"/>
    <path id="Trazado_797745" data-name="Trazado 797745" d="M246.719,311.259c-1.108.428-.153.134,0,0" transform="translate(-67.242 -85.014)" fill="#d9e8da"/>
    <path id="Trazado_797746" data-name="Trazado 797746" d="M238.812,310.07a.789.789,0,0,1-.36.417c.217-.14.371-.278.36-.417" transform="translate(-65.128 -84.689)" fill="#d9e8da"/>
    <path id="Trazado_797747" data-name="Trazado 797747" d="M244.469,311.571c.446-.069.954-.166,1.5-.3-.247.037-.706.122-1.5.3" transform="translate(-66.772 -85.016)" fill="#d9e8da"/>
    <path id="Trazado_797748" data-name="Trazado 797748" d="M244.516,311.946l-1.005.265c-.112.14.033.157,1.005-.265" transform="translate(-66.501 -85.202)" fill="#d9e8da"/>
    <path id="Trazado_797749" data-name="Trazado 797749" d="M246.812,311.029l1.537-.613c-.632.248-1.234.445-1.819.619.232-.044.334-.047.282-.007" transform="translate(-67.335 -84.784)" fill="#d9e8da"/>
    <path id="Trazado_797750" data-name="Trazado 797750" d="M231.142,316.014c.73-.212,1.45-.467,2.171-.709a7.34,7.34,0,0,1-2.3.368c.076.113.443.209.125.342" transform="translate(-63.097 -86.119)" fill="#d9e8da"/>
    <path id="Trazado_797751" data-name="Trazado 797751" d="M231.081,316.281c-.1.028-.19.063-.286.088a1.734,1.734,0,0,0,.286-.088" transform="translate(-63.037 -86.386)" fill="#d9e8da"/>
    <path id="Trazado_797752" data-name="Trazado 797752" d="M199.689,314.967c-.361.089-.77.027-1.127.117l.109.3c1.555-.057,2.625-.329,1.018-.419" transform="translate(-54.233 -86.027)" fill="#d9e8da"/>
    <path id="Trazado_797753" data-name="Trazado 797753" d="M223.208,314.877a18.229,18.229,0,0,0,2.421-.776c-.156-.248-.61-.242-1.239-.114-.314.063-.672.158-1.058.266l-1.24.29c.1-.02.2-.041.308-.052-.188.422.172.493.808.386" transform="translate(-60.66 -85.735)" fill="#d9e8da"/>
    <path id="Trazado_797754" data-name="Trazado 797754" d="M219.318,315.189c-.155.339.666-.047,1.61-.286-.533.116-1.079.223-1.61.286" transform="translate(-59.897 -86.009)" fill="#d9e8da"/>
    <path id="Trazado_797755" data-name="Trazado 797755" d="M251.4,308.56c-.847.168-.246.847-.779.808-.323.5.94-.206,1.741-.781.4-.281.681-.559.605-.616s-.509.1-1.567.589" transform="translate(-68.438 -84.113)" fill="#d9e8da"/>
    <path id="Trazado_797756" data-name="Trazado 797756" d="M76.483,266.995c.433.68.935,1.3,1.407,1.949l-.719-1.432c-.239-.163-.458-.345-.688-.518" transform="translate(-20.89 -72.924)" fill="#d9e8da"/>
    <path id="Trazado_797757" data-name="Trazado 797757" d="M81.712,270.614l-.247,1.019,1.551.472a5.4,5.4,0,0,1-1.3-1.492" transform="translate(-22.25 -73.913)" fill="#d9e8da"/>
    <path id="Trazado_797758" data-name="Trazado 797758" d="M174.183,290.428l-.068,0a1.09,1.09,0,0,1-1.022-1.154,73.734,73.734,0,0,0,.121-9.614c-1.956-.745-11.462-2.423-19.9-3.911-22.286-3.934-30.4-5.622-31.523-7.268a1.347,1.347,0,0,1-.222-1.03c.164-.818.438-2.189,13.172-8.238,6.07-2.883,12.154-5.478,12.215-5.5a1.09,1.09,0,1,1,.854,2.006c-10.245,4.362-21.266,9.681-23.7,11.785,3.474,1.494,19.029,4.238,29.58,6.1,20.453,3.609,21.166,3.933,21.528,5.047.563,1.74.141,9.266.051,10.758a1.091,1.091,0,0,1-1.087,1.024" transform="translate(-33.197 -69.271)" fill="#26274b"/>
    <path id="Trazado_797759" data-name="Trazado 797759" d="M199.806,290.428a1.09,1.09,0,0,1-1.087-1.024c-.091-1.492-.513-9.018.051-10.758.361-1.114,1.075-1.438,21.527-5.047,10.552-1.863,26.106-4.608,29.581-6.1-2.433-2.1-13.453-7.424-23.7-11.785a1.09,1.09,0,1,1,.855-2.006c.06.025,6.144,2.62,12.214,5.5,12.734,6.05,13.008,7.42,13.172,8.238a1.35,1.35,0,0,1-.222,1.03c-1.124,1.646-9.237,3.334-31.523,7.268-8.44,1.489-17.946,3.166-19.9,3.911a73.733,73.733,0,0,0,.121,9.614,1.09,1.09,0,0,1-1.022,1.154l-.067,0" transform="translate(-54.211 -69.271)" fill="#26274b"/>
    <path id="Trazado_797760" data-name="Trazado 797760" d="M104.4,116.355s-12.723-2.932-19.814,7.086a23.808,23.808,0,0,0-3.754,20.036s-10.22,7.086-9.8,19.793,2.92,14.905,2.92,14.905-.626,13.195,8.76,21.991,18.98,2.443,18.98,2.443,4.8,5.376,10.637,5.864,11.68-2.2,13.765-4.643c0,0,2.5,6.109,8.76,7.33s11.889-3.665,11.889-3.665,12.514,14.172,30.452,1.222c0,0,12.722,10.263,23.985.977,0,0,7.926,5.376,14.183-2.443,0,0,11.263,4.4,17.311-6.842,0,0,15.434,3.421,12.931-21.5,0,0,5.423-10.865,2.086-20.948s-8.969-13.016-8.969-13.016.209-12.706-11.054-18.814a17.076,17.076,0,0,0-11.889-.978s-1.46-13.683-13.974-20.525-21.274,0-21.274,0-9.177-15.883-25.446-7.086c0,0-5.84,3.176-8.343,7.086,0,0-10.012-7.086-18.563,0,0,0-16.686-7.33-23.777,11.729" transform="translate(-19.397 -25.916)" fill="#ffbcbd"/>
    <g id="Grupo_1064522" data-name="Grupo 1064522">
      <path id="Trazado_797761" data-name="Trazado 797761" d="M239.927,108.424a88.66,88.66,0,0,0-10.44,8.115c-7.2,6.409-13.934,14.186-17.513,23.246-3.116,7.888-3.2,17.917,3.977,23.718,8.219,6.64,21.2,3.808,30.22.56,11.5-4.138,21.311-11.192,30.006-19.6a21.186,21.186,0,0,0-10.561-14.64,17.077,17.077,0,0,0-11.889-.978s-1.45-13.551-13.8-20.424" transform="translate(-57.346 -29.613)" fill="#fcb0b1"/>
      <path id="Trazado_797762" data-name="Trazado 797762" d="M146.255,229.9c-2.661-6.883-5.835-15.139-11.836-19.849a9.654,9.654,0,0,0-8.653-2c-4.19,1.156-7.943,4.668-10.263,8.214-1.149,1.756-2.207,3.886-4.258,4.733a7.54,7.54,0,0,1-6.729-.976c-2.623-1.66-4.695-4.016-8.078-3.616a6.94,6.94,0,0,0-5.162,3.03c-2.286,3.52-1.768,8.477-1.01,12.379q.13.667.28,1.338a15.332,15.332,0,0,0,16.224.278s4.8,5.376,10.637,5.864,11.68-2.2,13.766-4.643c0,0,2.5,6.109,8.76,7.33,3.895.76,7.545-.845,9.747-2.167-1.1-3.333-2.171-6.673-3.425-9.916" transform="translate(-24.479 -56.734)" fill="#fcb0b1"/>
      <path id="Trazado_797763" data-name="Trazado 797763" d="M136.7,119.91c3.875-.464,5.414-5.177,6.2-8.4a38.2,38.2,0,0,0,.762-4.117,18.886,18.886,0,0,0-11.85-.077c-.919,5.6-.624,13.253,4.89,12.593" transform="translate(-35.891 -29.057)" fill="#fcb0b1"/>
      <path id="Trazado_797764" data-name="Trazado 797764" d="M298.616,217.978c-6.972-1.077-20.5-2.247-22.68,6.946-1.369,5.768,2.616,11.279,6.387,15.258a14.334,14.334,0,0,0,6.243-6.348s12.717,2.817,13.191-15.306q-1.57-.309-3.142-.55" transform="translate(-75.291 -59.339)" fill="#fcb0b1"/>
      <path id="Trazado_797765" data-name="Trazado 797765" d="M141.522,129.338a5.558,5.558,0,0,0,.508,4.333,5.122,5.122,0,0,0,2.334,1.726,9.786,9.786,0,0,0,8.006-.39,11.307,11.307,0,0,0,5.353-6.052,7.027,7.027,0,0,0,.451-4.036,5.981,5.981,0,0,0-3.293-3.879c-5.919-2.866-12.1,2.6-13.358,8.3" transform="translate(-38.598 -32.844)" fill="#fcb0b1"/>
      <path id="Trazado_797766" data-name="Trazado 797766" d="M106.408,213.585a5.217,5.217,0,0,0,3.351,2.1,5.289,5.289,0,0,0,3.078-.929,6.949,6.949,0,0,0,2.981-3.069c.807-1.908.217-4.137-.789-5.948-1.793-3.226-6.755-6.671-10.287-3.615-3.2,2.766-.469,8.909,1.667,11.461" transform="translate(-28.208 -54.881)" fill="#fcb0b1"/>
      <path id="Trazado_797767" data-name="Trazado 797767" d="M268.341,224.787c.18,2.071.8,4.128.563,6.193s-1.75,4.223-3.828,4.208a3.889,3.889,0,0,1-2.982-1.7,8.857,8.857,0,0,1-1.334-3.272,21.023,21.023,0,0,1,.081-10.425c.8-2.85,5.34-11.778,9.137-8.247,1.791,1.666.683,3.4-.053,5.257a16.974,16.974,0,0,0-1.582,7.982" transform="translate(-71.053 -57.557)" fill="#fcb0b1"/>
      <path id="Trazado_797768" data-name="Trazado 797768" d="M198.349,186.642c2.934,1.885,7.185,2.79,9.66.333,2.33-2.314,1.71-6.311.031-9.132s-4.207-5.111-5.59-8.091c-2.05-4.419,1.838-11.439-1.749-14.6-3.639-3.2-6.88.892-8.454,4.049-4.735,9.5-3.283,21.41,6.1,27.439" transform="translate(-51.791 -42.059)" fill="#fcb0b1"/>
    </g>
    <path id="Trazado_797779" data-name="Trazado 797779" d="M298.471,169.864a.363.363,0,0,1-.214-.656c1.335-.978,1.988-4.4,2.128-5.633a.364.364,0,0,1,.723.081c-.022.195-.556,4.772-2.421,6.137a.357.357,0,0,1-.214.071" transform="translate(-81.422 -44.589)" fill="#d8958d"/>
    <g id="Grupo_1064523" data-name="Grupo 1064523">
      <path id="Trazado_797769" data-name="Trazado 797769" d="M162.059,214.374a22.693,22.693,0,0,1-15.485-6.513c-1.212.966-6.273,4.631-11.929,3.527-5.377-1.05-8.03-5.515-8.792-7.043-2.516,2.517-8.229,4.818-13.694,4.36-5.3-.444-9.678-4.719-10.673-5.763A15.867,15.867,0,0,1,82.324,200.3c-8.853-8.3-8.908-20.6-8.879-22.119-.536-.643-2.547-3.787-2.916-15.03-.385-11.727,8.265-18.821,9.746-19.946A24.508,24.508,0,0,1,84.153,123.1c6.526-9.219,17.855-7.656,19.879-7.291,2.264-5.92,5.692-9.886,10.193-11.791,6.285-2.66,12.527-.432,13.755.059,7.775-6.261,16.746-1.2,18.521-.082,2.615-3.8,8.038-6.777,8.273-6.9,15.046-8.134,24.245,4.621,25.724,6.889,1.729-1.148,10.111-5.943,21.344.2,11.285,6.17,13.716,17.979,14.1,20.376a17.323,17.323,0,0,1,11.755,1.124c10.515,5.7,11.2,17.193,11.248,18.923,1.043.621,5.915,3.933,8.953,13.115,3.179,9.6-1.532,20.017-2.059,21.129.93,9.417-.565,15.94-4.443,19.386a10.766,10.766,0,0,1-8.667,2.457c-5.647,10.171-15.663,7.425-17.383,6.862-5.762,6.966-12.9,3.27-14.275,2.462-10.494,8.424-22.268.329-24.021-.97-5.573,3.965-10.646,5.334-14.99,5.334M146.6,207a.364.364,0,0,1,.273.123c.5.568,12.515,13.769,29.967,1.168a.364.364,0,0,1,.44.012c.125.1,12.629,9.964,23.526.98a.364.364,0,0,1,.435-.021c.313.212,7.727,5.09,13.7-2.369a.362.362,0,0,1,.416-.112c.447.174,11.037,4.143,16.859-6.675a.367.367,0,0,1,.4-.182,10.231,10.231,0,0,0,8.307-2.247c3.7-3.3,5.111-9.645,4.186-18.865a.359.359,0,0,1,.036-.2c.054-.108,5.316-10.853,2.066-20.673-3.244-9.8-8.737-12.778-8.792-12.807a.365.365,0,0,1-.2-.328c0-.125.067-12.561-10.864-18.489a16.832,16.832,0,0,0-11.607-.951.364.364,0,0,1-.47-.307c-.015-.135-1.593-13.579-13.787-20.246-12.142-6.639-20.791-.1-20.876-.032a.368.368,0,0,1-.293.07.361.361,0,0,1-.245-.174c-.369-.635-9.195-15.471-24.959-6.948-.057.031-5.787,3.178-8.21,6.962a.363.363,0,0,1-.515.1c-.1-.07-9.89-6.839-18.122-.017a.367.367,0,0,1-.377.054c-.068-.03-6.821-2.923-13.394-.138-4.379,1.855-7.708,5.779-9.9,11.66a.366.366,0,0,1-.422.228c-.125-.028-12.571-2.756-19.437,6.942a23.646,23.646,0,0,0-3.706,19.712.363.363,0,0,1-.138.413c-.1.07-10.053,7.13-9.647,19.482.4,12.254,2.778,14.626,2.8,14.649a.374.374,0,0,1,.118.286c-.006.13-.5,13.134,8.645,21.709,9.058,8.489,18.149,2.658,18.532,2.406a.365.365,0,0,1,.472.061c.047.053,4.772,5.273,10.4,5.744,5.537.46,11.3-1.984,13.459-4.516a.364.364,0,0,1,.613.1c.025.059,2.509,5.943,8.494,7.111,6.012,1.173,11.526-3.536,11.581-3.583A.362.362,0,0,1,146.6,207" transform="translate(-19.26 -25.785)" fill="#ff8182"/>
      <path id="Trazado_797770" data-name="Trazado 797770" d="M114.732,140.776a.363.363,0,0,1-.361-.329,47.419,47.419,0,0,1,1.474-16.267.363.363,0,1,1,.7.211,46.669,46.669,0,0,0-1.446,15.987.364.364,0,0,1-.326.4h-.036" transform="translate(-31.188 -33.846)" fill="#ff8182"/>
      <path id="Trazado_797771" data-name="Trazado 797771" d="M167.989,138.567a.362.362,0,0,1-.354-.283c-4.579-20.237,4.794-30.287,4.889-30.386a.363.363,0,0,1,.525.5c-.092.1-9.192,9.891-4.705,29.723a.364.364,0,0,1-.274.435.381.381,0,0,1-.081.009" transform="translate(-45.442 -29.439)" fill="#ff8182"/>
      <path id="Trazado_797772" data-name="Trazado 797772" d="M158.416,155.537a.363.363,0,0,1-.313-.547,12.441,12.441,0,0,1,6.958-5.381,10.431,10.431,0,0,1,8.146,1.589.364.364,0,0,1-.38.62,9.732,9.732,0,0,0-7.589-1.5c-4.128,1.039-6.484,5-6.508,5.043a.363.363,0,0,1-.314.18" transform="translate(-43.169 -40.788)" fill="#ff8182"/>
      <path id="Trazado_797773" data-name="Trazado 797773" d="M144.642,114.133a.326.326,0,0,1-.087-.011.363.363,0,0,1-.266-.439c.041-.166,1.025-4.062,3.7-5.836a.363.363,0,0,1,.4.605c-2.439,1.619-3.384,5.366-3.394,5.4a.363.363,0,0,1-.353.276" transform="translate(-39.407 -29.439)" fill="#ff8182"/>
      <path id="Trazado_797774" data-name="Trazado 797774" d="M209.492,127.328a.311.311,0,0,1-.052,0,.364.364,0,0,1-.308-.412c1.875-12.936,8.815-18.98,8.885-19.039a.363.363,0,0,1,.471.553c-.068.057-6.8,5.942-8.636,18.59a.363.363,0,0,1-.359.311" transform="translate(-57.119 -29.439)" fill="#ff8182"/>
      <path id="Trazado_797775" data-name="Trazado 797775" d="M211.756,139.028a.364.364,0,0,1-.326-.2c-1.146-2.314-2.641-3.747-4.442-4.26a6.978,6.978,0,0,0-5.052.742.363.363,0,0,1-.385-.616,7.593,7.593,0,0,1,5.627-.827c2.01.57,3.658,2.13,4.9,4.639a.363.363,0,0,1-.326.525" transform="translate(-55.003 -36.496)" fill="#ff8182"/>
      <path id="Trazado_797776" data-name="Trazado 797776" d="M260.567,153.855a.364.364,0,0,1-.18-.68c7.429-4.233,6.709-16.64,6.7-16.765a.364.364,0,0,1,.339-.387.379.379,0,0,1,.386.339c.035.528.759,12.984-7.066,17.444a.367.367,0,0,1-.18.047" transform="translate(-71.069 -37.151)" fill="#ff8182"/>
      <path id="Trazado_797777" data-name="Trazado 797777" d="M111.746,240.377a.362.362,0,0,1-.292-.148,22.7,22.7,0,0,1-3.61-7.964.364.364,0,0,1,.713-.143,22.415,22.415,0,0,0,3.481,7.675.363.363,0,0,1-.291.579" transform="translate(-29.453 -63.319)" fill="#ff8182"/>
      <path id="Trazado_797778" data-name="Trazado 797778" d="M84.384,161.375a.363.363,0,0,1-.163-.688c.237-.118,5.855-2.87,11.565-.887a.363.363,0,0,1-.238.686c-5.414-1.878-10.947.824-11,.85a.361.361,0,0,1-.162.039" transform="translate(-22.949 -43.45)" fill="#ff8182"/>
      <path id="Trazado_797780" data-name="Trazado 797780" d="M150.056,173.837a11.651,11.651,0,0,1-5.5-1.37c-4.124-2.187-9.15-7.913-9.674-22.774-.266-7.557,1.7-13.132,5.838-16.57,6.878-5.71,17.174-3.49,17.609-3.392a.363.363,0,1,1-.158.709c-.1-.023-10.389-2.238-16.989,3.244-3.956,3.286-5.831,8.664-5.574,15.982.512,14.513,5.334,20.06,9.289,22.157a11.218,11.218,0,0,0,11.027-.343.363.363,0,0,1,.386.616,12.028,12.028,0,0,1-6.257,1.739" transform="translate(-36.834 -35.295)" fill="#ff8182"/>
      <path id="Trazado_797781" data-name="Trazado 797781" d="M231.674,150.049h-.012a.364.364,0,0,1-.352-.375c.44-14.162,10.181-20.312,10.279-20.373a.363.363,0,0,1,.381.619c-.1.059-9.506,6.021-9.933,19.777a.364.364,0,0,1-.363.352" transform="translate(-63.178 -35.301)" fill="#ff8182"/>
      <path id="Trazado_797782" data-name="Trazado 797782" d="M286.336,199.9a.355.355,0,0,1-.086-.01c-.4-.1-9.7-2.452-10.6-9.055a40.092,40.092,0,0,1-.108-6.149c.182-6.148.409-13.8-5.263-18.7-7.54-6.52-11.587-6.007-16.032-2.919a.363.363,0,1,1-.415-.6c4.619-3.209,9.06-3.832,16.922,2.966,5.933,5.13,5.7,12.972,5.514,19.273a39.618,39.618,0,0,0,.1,6.03c.834,6.113,9.96,8.424,10.052,8.448a.363.363,0,0,1-.086.716" transform="translate(-69.287 -43.74)" fill="#ff8182"/>
      <path id="Trazado_797783" data-name="Trazado 797783" d="M266.2,242.888a.354.354,0,0,1-.078-.009c-.366-.079-8.965-2.138-8.965-18.487a.363.363,0,0,1,.727,0c0,15.769,8.309,17.759,8.392,17.778a.363.363,0,0,1-.076.718" transform="translate(-70.238 -61.188)" fill="#ff8182"/>
      <path id="Trazado_797784" data-name="Trazado 797784" d="M214.594,238.7a.362.362,0,0,1-.238-.089,21.111,21.111,0,0,1-6.17-18.122c1.649-11.176,11.735-17.051,11.837-17.108a.363.363,0,0,1,.361.631c-.1.056-9.882,5.764-11.478,16.584a20.337,20.337,0,0,0,5.926,17.466.363.363,0,0,1-.238.638" transform="translate(-56.798 -55.536)" fill="#ff8182"/>
      <path id="Trazado_797785" data-name="Trazado 797785" d="M125.818,212.669a.381.381,0,0,1-.057,0c-20.19-3.166-20.03-18.248-19.957-19.815-5.039-7.783-6.552-14.494-4.5-19.947,2.729-7.238,10.687-9.541,11.025-9.635a.363.363,0,0,1,.2.7c-.08.022-7.949,2.3-10.544,9.2-1.975,5.248-.464,11.771,4.493,19.389a.364.364,0,0,1,.057.23c-.057.65-1.17,15.947,19.338,19.162a.363.363,0,0,1-.056.723" transform="translate(-27.428 -44.589)" fill="#ff8182"/>
      <path id="Trazado_797786" data-name="Trazado 797786" d="M194.007,243.54a.363.363,0,0,1-.286-.139,34.48,34.48,0,0,1-5.236-8.893,22.826,22.826,0,0,1-1.535-10.621.363.363,0,0,1,.723.08,22.112,22.112,0,0,0,1.49,10.28,33.8,33.8,0,0,0,5.13,8.7.363.363,0,0,1-.286.588" transform="translate(-51.03 -61.062)" fill="#ff8182"/>
      <path id="Trazado_797787" data-name="Trazado 797787" d="M177.015,226.372c-4.506,0-8.762-2.66-11.619-5.657a21.361,21.361,0,0,1-5.448-9.753,15.852,15.852,0,0,1,1.537-11.122,14.037,14.037,0,0,1-2.756-10.574.364.364,0,0,1,.72.1,13.234,13.234,0,0,0,2.754,10.2.363.363,0,0,1,.036.418,15.086,15.086,0,0,0-1.583,10.811,20.631,20.631,0,0,0,5.266,9.418c3.547,3.721,9.324,6.91,14.9,4.708a.363.363,0,1,1,.267.676,11.018,11.018,0,0,1-4.076.775" transform="translate(-43.315 -51.608)" fill="#ff8182"/>
      <path id="Trazado_797788" data-name="Trazado 797788" d="M261.245,221.269a20.889,20.889,0,0,1-10.867-3.1,26.218,26.218,0,0,1-10.51-12.933.363.363,0,1,1,.677-.265,25.5,25.5,0,0,0,10.21,12.577,19.887,19.887,0,0,0,14.6,2.55.363.363,0,1,1,.155.709,20.034,20.034,0,0,1-4.263.458" transform="translate(-65.508 -55.921)" fill="#ff8182"/>
    </g>
    <path id="Trazado_797789" data-name="Trazado 797789" d="M324.678,190.981c-7.173,0-32.721-19.494-37.915-23.516a1.09,1.09,0,0,1,1.335-1.725c12.11,9.377,32.791,23.925,36.753,23.048,3.94-.874,12.387-16.161,16.787-25.59a1.089,1.089,0,0,1,.951-.628c.424-.016,10.437-.488,12.771-9.124a1.09,1.09,0,1,1,2.105.569c-2.373,8.78-11.535,10.394-14.119,10.676-2.066,4.366-12.076,24.9-18.021,26.225a3.012,3.012,0,0,1-.645.064" transform="translate(-78.208 -41.691)" fill="#26274b"/>
    <path id="Trazado_797790" data-name="Trazado 797790" d="M370.127,165.508c-.685,0-1.422-.011-2.226-.026a1.09,1.09,0,0,1,.041-2.18c6.429.121,7.945.009,12.46-3.919a1.09,1.09,0,1,1,1.43,1.645c-4.47,3.889-6.676,4.48-11.706,4.48" transform="translate(-100.192 -43.459)" fill="#26274b"/>
    <path id="Trazado_797791" data-name="Trazado 797791" d="M367.921,162.537a1.09,1.09,0,0,1-.781-1.851c2.794-2.87,5.581-6.114,6.3-11.412a1.09,1.09,0,1,1,2.16.292c-.805,5.955-3.983,9.647-6.9,12.64a1.085,1.085,0,0,1-.781.33" transform="translate(-100.192 -40.513)" fill="#26274b"/>
    <path id="Trazado_797792" data-name="Trazado 797792" d="M359.569,163.549a5.57,5.57,0,0,1-3.107-.819,5.663,5.663,0,0,1-1.532-1.363,4.936,4.936,0,0,1-.846-2.134,5.277,5.277,0,0,1,.454-3.333,3.848,3.848,0,0,1,2.993-2.093,1.09,1.09,0,0,1,.193,2.172,1.68,1.68,0,0,0-1.255.932,3.174,3.174,0,0,0-.235,1.966,2.793,2.793,0,0,0,.454,1.2,3.435,3.435,0,0,0,.951.816c1.018.655,2.3.5,3.781.323l.556-.065a3.247,3.247,0,0,0,1.946-1.353,6.645,6.645,0,0,0,1.591-3.5,3.46,3.46,0,0,0-1.223-3.063,2.205,2.205,0,0,0-2.738.087,1.09,1.09,0,0,1-1.574-1.509,4.382,4.382,0,0,1,5.6-.335,5.6,5.6,0,0,1,2.106,5,8.67,8.67,0,0,1-2.08,4.7,5.191,5.191,0,0,1-3.388,2.134l-.539.063a17.807,17.807,0,0,1-2.112.166" transform="translate(-96.687 -41.142)" fill="#26274b"/>
    <path id="Trazado_797793" data-name="Trazado 797793" d="M36.567,190.981a3.008,3.008,0,0,1-.645-.064c-5.945-1.32-15.954-21.859-18.021-26.225-2.585-.282-11.747-1.9-14.12-10.676a1.091,1.091,0,1,1,2.106-.569c2.333,8.635,12.347,9.108,12.773,9.124a1.1,1.1,0,0,1,.949.628c4.4,9.43,12.849,24.715,16.787,25.589,3.956.886,24.643-13.67,36.753-23.048a1.091,1.091,0,0,1,1.335,1.725c-5.195,4.022-30.74,23.516-37.916,23.516" transform="translate(-1.022 -41.691)" fill="#26274b"/>
    <path id="Trazado_797794" data-name="Trazado 797794" d="M12.081,165.509c-5.03,0-7.236-.59-11.706-4.48a1.09,1.09,0,0,1,1.432-1.645c4.514,3.929,6.032,4.038,12.459,3.919h.021a1.09,1.09,0,0,1,.02,2.181c-.8.015-1.542.026-2.226.026" transform="translate(0 -43.459)" fill="#26274b"/>
    <path id="Trazado_797795" data-name="Trazado 797795" d="M16.765,162.537a1.084,1.084,0,0,1-.781-.33c-2.914-2.993-6.091-6.684-6.9-12.64a1.09,1.09,0,1,1,2.16-.292c.717,5.3,3.5,8.542,6.3,11.412a1.09,1.09,0,0,1-.781,1.851" transform="translate(-2.479 -40.513)" fill="#26274b"/>
    <path id="Trazado_797796" data-name="Trazado 797796" d="M23.264,163.549a17.82,17.82,0,0,1-2.112-.166l-.539-.063a5.2,5.2,0,0,1-3.387-2.134,8.659,8.659,0,0,1-2.08-4.7,5.6,5.6,0,0,1,2.106-5,4.384,4.384,0,0,1,5.6.335,1.091,1.091,0,0,1-1.574,1.51,2.2,2.2,0,0,0-2.738-.087,3.459,3.459,0,0,0-1.223,3.063,6.646,6.646,0,0,0,1.592,3.5,3.241,3.241,0,0,0,1.945,1.352l.556.065c1.482.177,2.764.331,3.78-.322a3.429,3.429,0,0,0,.951-.816,2.8,2.8,0,0,0,.454-1.2,3.174,3.174,0,0,0-.235-1.966,1.68,1.68,0,0,0-1.255-.933,1.09,1.09,0,0,1,.193-2.172A3.849,3.849,0,0,1,28.3,155.9a5.28,5.28,0,0,1,.454,3.334,4.932,4.932,0,0,1-.846,2.133,5.661,5.661,0,0,1-1.532,1.364,5.567,5.567,0,0,1-3.107.819" transform="translate(-4.131 -41.142)" fill="#26274b"/>
    <path id="Trazado_797797" data-name="Trazado 797797" d="M144.357,164.634a1.091,1.091,0,0,1-1.088-1.037c-.046-.939-.363-9.271,2.714-12.616a4.174,4.174,0,0,1,3.007-1.431,4.062,4.062,0,0,1,3.046,1.215c3.295,3.171,3.421,11.8,3.424,12.775a1.09,1.09,0,0,1-1.086,1.094h0a1.09,1.09,0,0,1-1.09-1.086c-.01-2.391-.525-9.066-2.756-11.213a1.941,1.941,0,0,0-1.459-.606,2.014,2.014,0,0,0-1.476.729c-2.09,2.271-2.254,8.733-2.141,11.032a1.09,1.09,0,0,1-1.036,1.143h-.055" transform="translate(-39.122 -40.846)" fill="#26274b"/>
    <path id="Trazado_797798" data-name="Trazado 797798" d="M225.457,164.634a1.09,1.09,0,0,1-1.088-1.037c-.047-.939-.363-9.271,2.713-12.616a4.175,4.175,0,0,1,3.007-1.432,4.073,4.073,0,0,1,3.046,1.215c3.294,3.171,3.421,11.8,3.424,12.775a1.09,1.09,0,0,1-1.086,1.094h0a1.091,1.091,0,0,1-1.09-1.086c-.009-2.391-.524-9.066-2.756-11.213a1.926,1.926,0,0,0-1.457-.606,2.017,2.017,0,0,0-1.478.729c-2.09,2.271-2.253,8.734-2.141,11.032a1.09,1.09,0,0,1-1.036,1.143h-.054" transform="translate(-61.273 -40.846)" fill="#26274b"/>
    <path id="Trazado_797799" data-name="Trazado 797799" d="M186.2,183.072a52.909,52.909,0,0,1-18.747-3.4,1.091,1.091,0,0,1,.775-2.039,51.209,51.209,0,0,0,36.346-.15,1.09,1.09,0,0,1,.791,2.032,52.928,52.928,0,0,1-19.165,3.555" transform="translate(-45.543 -48.456)" fill="#26274b"/>
    <path id="Trazado_797800" data-name="Trazado 797800" d="M207.739,27.437c-11.7-8.714-18.941,11.921-18.941,11.921s-7.24-20.634-18.942-11.921c-12.451,9.272,19.08,36.912,19.08,36.912s31.253-27.64,18.8-36.912" transform="translate(-45.598 -6.908)" fill="#ff8182"/>
    <path id="Trazado_797801" data-name="Trazado 797801" d="M241.671,80.064C239.7,73.041,230.531,79,230.531,79s3.434-10.38-3.859-10.5c-7.761-.131-3.718,20.44-3.718,20.44s20.815-1.4,18.716-8.873" transform="translate(-60.608 -18.708)" fill="#ff8182"/>
    <path id="Trazado_797802" data-name="Trazado 797802" d="M148.408,80.064C150.38,73.041,159.547,79,159.547,79s-3.434-10.38,3.859-10.5c7.761-.131,3.718,20.44,3.718,20.44s-20.815-1.4-18.716-8.873" transform="translate(-40.494 -18.708)" fill="#ff8182"/>
  </g>
</svg>
