<svg xmlns="http://www.w3.org/2000/svg" width="295" height="282.813" viewBox="0 0 295 282.813">
  <g id="Anxiety-amico" transform="translate(-6.279 -21.156)">
    <g id="freepik--Floor--inject-7" transform="translate(6.279 133.636)">
      <path id="freepik--floor--inject-7-2" data-name="freepik--floor--inject-7" d="M49.479,231.962c-57.6,33.256-57.6,87.181,0,120.437s150.994,33.256,208.6,0,57.6-87.15,0-120.437S107.083,198.706,49.479,231.962Z" transform="translate(-6.279 -207.009)" fill="#fafafa"/>
    </g>
    <g id="freepik--Lines--inject-7" transform="translate(26.174 21.156)">
      <g id="freepik--Thoughts--inject-7" opacity="0.25">
        <path id="Trazado_798234" data-name="Trazado 798234" d="M123.632,264.78a84.772,84.772,0,0,1-83.325-70.743h0a84.566,84.566,0,1,1,97.336,69.581,85.757,85.757,0,0,1-14.011,1.162Zm.26-168.66a85.237,85.237,0,0,0-13.92,1.15,83.634,83.634,0,1,0,13.92-1.15Z" transform="translate(-39.151 -50.533)" fill="#ff8182"/>
        <path id="Trazado_798235" data-name="Trazado 798235" d="M176.875,264.115a85.1,85.1,0,1,1,14.077-1.168,85.1,85.1,0,0,1-14.077,1.168Zm.26-169.459a84.439,84.439,0,1,0-.151,168.878,84.448,84.448,0,0,0,.151-168.9Z" transform="translate(-59.937 -49.88)" fill="#ff8182"/>
        <path id="Trazado_798236" data-name="Trazado 798236" d="M236.718,257.828a85.069,85.069,0,1,1,13.992-1.162A85.146,85.146,0,0,1,236.718,257.828Zm-83.247-71.167a84.439,84.439,0,1,0,69.442-97.148A84.547,84.547,0,0,0,153.471,186.662Z" transform="translate(-83.606 -47.467)" fill="#ff8182"/>
        <path id="Trazado_798237" data-name="Trazado 798237" d="M127.84,218.787a85.069,85.069,0,1,1,13.986-1.162,85.148,85.148,0,0,1-13.986,1.162ZM44.587,147.614a84.448,84.448,0,1,0,69.448-97.142A84.535,84.535,0,0,0,44.587,147.614Z" transform="translate(-40.618 -32.053)" fill="#ff8182"/>
        <path id="Trazado_798238" data-name="Trazado 798238" d="M151.568,224a52.3,52.3,0,1,0,0-.018ZM68.3,152.836a84.439,84.439,0,1,0,69.448-97.142A84.506,84.506,0,0,0,68.3,152.836Z" transform="translate(-49.984 -34.109)" fill="#ff8182"/>
        <path id="Trazado_798239" data-name="Trazado 798239" d="M182.087,258.307a49.954,49.954,0,1,1,8.249-.69,50.75,50.75,0,0,1-8.249.69Zm.1-99.091a49.234,49.234,0,1,0,48.556,41.154,49.237,49.237,0,0,0-48.556-41.154Z" transform="translate(-75.85 -75.337)" fill="#ff8182"/>
        <path id="Trazado_798240" data-name="Trazado 798240" d="M220.657,199.251a49.881,49.881,0,1,1,8.195-.684,49.881,49.881,0,0,1-8.195.684Zm.048-99.085a49.234,49.234,0,1,0,48.556,41.154,49.237,49.237,0,0,0-48.556-41.154Z" transform="translate(-91.1 -52.08)" fill="#ff8182"/>
        <path id="Trazado_798241" data-name="Trazado 798241" d="M202.9,213.067a49.839,49.839,0,1,1,8.2-.66A50.418,50.418,0,0,1,202.9,213.067Zm-48.556-41.76a98.468,98.468,0,1,0-.018.012Z" transform="translate(-84.166 -57.568)" fill="#ff8182"/>
        <path id="Trazado_798242" data-name="Trazado 798242" d="M241.249,166.23a49.791,49.791,0,1,1,8.2-.678,49.791,49.791,0,0,1-8.2.678Zm-48.556-41.76a83.691,83.691,0,1,1,0,.012Z" transform="translate(-99.285 -39.115)" fill="#ff8182"/>
        <path id="Trazado_798243" data-name="Trazado 798243" d="M214.4,175.422a47.237,47.237,0,0,1-46.5-39.436h0a47.146,47.146,0,1,1,46.5,39.436ZM168.467,135.9a46.662,46.662,0,1,0,8.08-34.727A46.662,46.662,0,0,0,168.467,135.9Z" transform="translate(-89.73 -44.833)" fill="#ff8182"/>
        <path id="Trazado_798244" data-name="Trazado 798244" d="M139.672,186.626a49.809,49.809,0,1,1,8.195-.678,49.808,49.808,0,0,1-8.195.678Zm.054-99.079A49.228,49.228,0,1,0,188.283,128.7a49.23,49.23,0,0,0-48.556-41.154Z" transform="translate(-59.174 -47.153)" fill="#ff8182"/>
        <path id="Trazado_798245" data-name="Trazado 798245" d="M174.105,191.162a85.11,85.11,0,1,1,14.077-1.168,85.846,85.846,0,0,1-14.077,1.168ZM174.372,21.7a27.029,27.029,0,1,0,0-.036Z" transform="translate(-58.922 -21.156)" fill="#ff8182"/>
        <path id="Trazado_798246" data-name="Trazado 798246" d="M227.4,202.256a85.109,85.109,0,1,1,14.065-1.168,84.978,84.978,0,0,1-14.065,1.168Zm.26-169.459a85.335,85.335,0,0,0-13.98,1.126,84.444,84.444,0,1,0,13.98-1.144Z" transform="translate(-79.961 -25.545)" fill="#ff8182"/>
      </g>
    </g>
    <g id="freepik--Shadow--inject-7" transform="translate(23.714 185.91)">
      <path id="freepik--shadow--inject-7-2" data-name="freepik--shadow--inject-7" d="M285.107,377.275l-8.757-6.766a44.11,44.11,0,0,1-7.577-6.875,16.135,16.135,0,0,1-3.3-8.733,6.53,6.53,0,0,1,.648-3.3c1.047-1.973,3.026-2.8,4.842-3.885a53.646,53.646,0,0,0,5.556-3.722,60.428,60.428,0,0,0,9.587-9.272c6.748-8.11,12.395-17.9,10.41-28.717-.527-2.9-1.937-6.488-5.1-7.468.387,2.705.763,5.544-.23,8.1-1.071-.157-1.513-1.4-1.816-2.421a22.938,22.938,0,0,0-4.237-7.983c-1.21-1.5-2.881-2.941-4.842-2.838a5.351,5.351,0,0,0,1.035,2.736,19.531,19.531,0,0,1,2.59,9.133,2.366,2.366,0,0,1-.206,1.247.938.938,0,0,1-1.083.484,1.416,1.416,0,0,1-.605-.642,23.611,23.611,0,0,0-7.16-7.959,3.777,3.777,0,0,0-2.475-.769,2.9,2.9,0,0,0,.775,1.906,19.839,19.839,0,0,1,3.595,12.389c-.061,1.21-.442,2.627-1.616,2.935-3.51.92-3.5-5.265-4.805-6.948a.563.563,0,0,0-.448-.278.605.605,0,0,0-.381.284,8.213,8.213,0,0,0-1.338,4.152,19.185,19.185,0,0,0,.436,6.161c.811,3.432,2.657,7.414,0,10.458-7.19,8.182-21.915,8.11-30.261,1.816-4.236-3.183-5.774-8.7-6.657-13.871a12.229,12.229,0,0,0-1.392-4.551,9.823,9.823,0,0,0-3.432-2.99c-6.724-3.976-14.816-4.963-22.647-5.4a187.816,187.816,0,0,0-51,3.934c-7.541,1.682-15.548,2.076-23.228,3.534-6.282,1.21-12.4,2.729-18.707,3.528a57.425,57.425,0,0,0-19.215,5.489c-6.924,3.631-12.867,9.514-15.13,16.879-.666,2.148-1,4.557,0,6.6a10.46,10.46,0,0,0,4.412,4.1,45.828,45.828,0,0,0,12.389,5.005c1.5.351,3.764.944,4.176,2.693.962,4.079-8.891,5.8-11.178,6.294a39.44,39.44,0,0,1-17.636.242,13.791,13.791,0,0,1-6.276-3.026,6.486,6.486,0,0,1-2.07-6.288c.563-1.949,2.239-3.389,3.153-5.2.563-1.108,1.755-6.258-.309-6.6-1.15-.194-1.816,2.421-2.5,3.026-1.21,1.023-3.335,1.21-4.364,0a3.631,3.631,0,0,1-.7-1.846,10.034,10.034,0,0,1,1.616-7.051,10.234,10.234,0,0,1,3.407-3.153c.605-.339,3.311-.9,3.353-1.483a.793.793,0,0,0-.139-.46,3.475,3.475,0,0,0-2.832-1.4,9.617,9.617,0,0,0-9.326,4.987,3.3,3.3,0,0,1-.527.835.98.98,0,0,1-.9.321.932.932,0,0,1-.605-.7,2.451,2.451,0,0,1,0-.962,39.745,39.745,0,0,1,1.634-6.548c.563-1.779,1.779-3.365,1.943-5.265a.762.762,0,0,0-.127-.605.732.732,0,0,0-.514-.194c-1.943-.176-3.571,1.386-4.715,2.935a25.9,25.9,0,0,0-4.236,8.963c-.151.605-.75,1.422-1.537,1.089a1.174,1.174,0,0,1-.569-.8,7.051,7.051,0,0,1,.442-4.539c.605-1.44,1.41-2.766,2.106-4.158.085-.163.157-.375,0-.514a.418.418,0,0,0-.272-.1,2.972,2.972,0,0,0-2.034.853c-3.335,2.663-4.733,6.343-5.846,10.319a30.277,30.277,0,0,0,1.761,21.951c5.61,11.348,18.35,17.648,30.206,20.91a94.752,94.752,0,0,0,26.514,3.081c.605,0,1.156,0,1.737-.036a89.058,89.058,0,0,0,19.04-2.148c5.737-1.459,12.007-1.1,17.944-1.313a28.384,28.384,0,0,1,8.473.545c3.026.823,5.647,2.608,8.425,4.031,8.854,4.545,18.852,4.739,28.4,6.79,3.855.823,8.624,1.507,12.1,3.407,3.323,1.816,6.573,4.121,9.9,6.052a92.211,92.211,0,0,0,11.5,5.889,33.759,33.759,0,0,0,20.964,1.041,15.469,15.469,0,0,0,7.922-4.945c1.011-1.21,1.9-2.5,2.923-3.68a5.55,5.55,0,0,1,2.578-1.9,5.786,5.786,0,0,1,2.282-.042,32.315,32.315,0,0,1,5.035,1.035c3.165.92,6.167,2.185,9.435,2.8a31.1,31.1,0,0,0,9.962.369c5.356-.714,11.687-3.577,15.076-7.868a8.075,8.075,0,0,0,1.87-6.518C289.828,381.051,287.407,379.091,285.107,377.275Z" transform="translate(-35.087 -293.381)" fill="#e0e0e0"/>
    </g>
    <g id="freepik--Character--inject-7" transform="translate(92.711 58.382)">
      <g id="freepik--character--inject-7-2" data-name="freepik--character--inject-7">
        <path id="Trazado_798247" data-name="Trazado 798247" d="M192.3,374.96c-13.648-5.005-19.512-12.141-23.361-21.1a40.548,40.548,0,0,1-3.565-14.525,106.2,106.2,0,0,0,25.383.817c12.824-1.331,17.315-2.155,17.315-2.155Z" transform="translate(-155.518 -183.468)" fill="#455a64"/>
        <g id="freepik--Top--inject-7">
          <path id="Trazado_798248" data-name="Trazado 798248" d="M259,187.31c11.463,3.238,17.829,9.683,27.549,20.728,10.561,12,14.434,17.158,14.434,17.158l-2.729,27.537c-8.473,1.531-17.315-6.827-31.647-23.688Z" transform="translate(-192.482 -123.978)" fill="#37474f"/>
          <g id="freepik--Chest--inject-7" transform="translate(5.4)">
            <path id="Trazado_798249" data-name="Trazado 798249" d="M227.514,214.249c-.1-20.238-4.733-28.36-8.884-29.8,0,0-14.894-5.931-31.4-3.129-4.66.787-12.455,3.577-18.3,5.689-3.686,1.331-8.848,11.39-10.119,23.4-1.023,9.762-.98,17.932-.363,34.2.642,17.061,1.21,20.668,2.875,34.552,26.557,6.5,56.17-2.076,70.689-27.053-1.574-5.054-2.463-10.04-3.2-17.854C227.974,225.458,227.538,220.4,227.514,214.249Z" transform="translate(-158.014 -121.316)" fill="#ff8182"/>
            <g id="freepik--Head--inject-7" transform="translate(20.57)">
              <path id="Trazado_798250" data-name="Trazado 798250" d="M201.109,138.245c-.46-5.507-3.819-11.632-5.846-16.577-1.961-4.763-3.056-8.425-2.421-12.709.369-2.53,2.263-5.84,4.236-6.4C195.7,92.92,203.161,89.138,207,88.563a40.986,40.986,0,0,0,5.332-1.011c2.118-.684,2.723-2.288,4.491-3.553,3.026-2.173,7.868-1.816,9.351,1.985,2.094-2.282,4.654-2,7.559-1a5.084,5.084,0,0,1,3.389,6.052c4.152-1.882,7.547,1.21,7.716,3.583.121,1.743-.369,3.159.605,4.793,1.12,1.816,3.516,2.015,4.364.678.2,2.475-.914,4.236-3.547,3.9a5.568,5.568,0,0,1,.29,4.721,5.066,5.066,0,0,1-4.842,3.1,7.734,7.734,0,0,1-4.854,6.173c-4.17,1.574-8.655,1.816-13.048,2.342l-5.217.605c-.3.036-1.858,0-2.064.248Z" transform="translate(-192.262 -82.665)" fill="#263238"/>
              <path id="Trazado_798251" data-name="Trazado 798251" d="M195.353,142.9c4.279,3.359,6.736.714,6.736.714l-2.421,13.066c7.771,15.13,26.871,13.042,23.349,6.585l.75-5.889a52.835,52.835,0,0,0,6.488.26,11.323,11.323,0,0,0,9.8-7.8,49.136,49.136,0,0,0,2.136-18.423,15.953,15.953,0,0,1,.151-4.491c.744-3.922.23-6.288-.514-9.683-4.364-4.176-15.542-6.3-26.169-1.017.66,6.113-2.082,10.676-6.657,12.6.067,1.64-.079,5.756-2.742,5.447-1.919-.218-1.495-2.639-3.286-4.932a6.2,6.2,0,0,0-9.078-.073C190.512,133.039,192.073,140.319,195.353,142.9Z" transform="translate(-192.001 -94.677)" fill="#ffbda7"/>
              <path id="Trazado_798252" data-name="Trazado 798252" d="M245.673,167.317c.878,0,1.743,0,2.621-.03a3.293,3.293,0,0,0,1.725-.5.321.321,0,0,0,.139-.145.369.369,0,0,0,0-.266,2.046,2.046,0,0,0-1.816-1.247,3.8,3.8,0,0,0-2.608.763c-.236.2-1.241,1.029-.75,1.331a.8.8,0,0,0,.412.085Z" transform="translate(-212.865 -115.217)" fill="#b16668"/>
              <path id="Trazado_798253" data-name="Trazado 798253" d="M232.557,175.767c-6.657-1.374-11.753-2.542-14.858-7.735a42.585,42.585,0,0,1-3.389-8.352s.182,6.052,2.046,10.289c1.434,3.268,5.386,6.222,15.9,8.031Z" transform="translate(-200.809 -113.07)" fill="#f0997a"/>
              <path id="Trazado_798254" data-name="Trazado 798254" d="M242.56,141.577a1.912,1.912,0,1,1-1.816-2.088,1.949,1.949,0,0,1,1.816,2.088Z" transform="translate(-210.455 -105.098)" fill="#263238"/>
              <path id="Trazado_798255" data-name="Trazado 798255" d="M236.24,132.116l4.188-2.046a2.421,2.421,0,0,1-1.108,3.2,2.276,2.276,0,0,1-3.081-1.15Z" transform="translate(-209.466 -101.38)" fill="#263238"/>
              <path id="Trazado_798256" data-name="Trazado 798256" d="M260.733,130.07l4.473,1.416a2.245,2.245,0,0,1-2.863,1.574,2.463,2.463,0,0,1-1.61-2.99Z" transform="translate(-219.101 -101.38)" fill="#263238"/>
              <path id="Trazado_798257" data-name="Trazado 798257" d="M269.938,142.471a1.906,1.906,0,1,1-1.816-2.082,1.937,1.937,0,0,1,1.816,2.082Z" transform="translate(-221.268 -105.453)" fill="#263238"/>
            </g>
          </g>
          <path id="Trazado_798258" data-name="Trazado 798258" d="M165,191.51c-7.075,2.723-13.133,6.409-15.33,15.814-2.276,9.738,2.53,21.933,8.878,35.5,4.975,10.628,11.5,18.441,18.035,20.377s7.075-25.255,7.075-25.255S173.493,204.026,165,191.51Z" transform="translate(-149.092 -125.636)" fill="#37474f"/>
          <path id="Trazado_798259" data-name="Trazado 798259" d="M203.021,179.228c-.042,5.054-8.473,19.839-12.709,26.3s-5.5,9.6-6.2,15.13.993,14.555,4.388,20.033c1.888,3.026,9.962,1.906,16.522-7.154s6.887-17.351,8.158-28.064c.987-8.352,2.209-13.315,2.953-17.69.29-1.743,2.669-6.312,4.4-11.965s.29-9.738.375-12.074a24.772,24.772,0,0,1,1.126-7.039,39.875,39.875,0,0,0,1.4-4.267c.757-3.571-.248-4.963-1.174-5.283.454-2.518.054-4.134-1.386-4.739.357-2.239-1.035-4-2.13-3.474s-2.451,3.026-2.451,3.026a4.236,4.236,0,0,0-2.669.345c-1.21.672-4.073,4.533-6,6.591s-1.816,4.763-3.068,8.285a11.729,11.729,0,0,0-2.064-2.972c-1.338-1.374-4.025-1.156-3.244,1.586a54.214,54.214,0,0,1,1.58,11.56A67.913,67.913,0,0,0,203,179.234" transform="translate(-162.854 -104.844)" fill="#ffbda7"/>
          <path id="Trazado_798260" data-name="Trazado 798260" d="M233.65,149.052a3.946,3.946,0,0,0-.43-1.331,2.149,2.149,0,0,0-.92-.878,8,8,0,0,0,.091-2.578,3.244,3.244,0,0,0-.5-1.338,2.512,2.512,0,0,0-.968-.829,4.527,4.527,0,0,0-.236-2.124,3.136,3.136,0,0,0-.605-1,1.64,1.64,0,0,0-1.114-.569,1.755,1.755,0,0,0-1.12.539,7.144,7.144,0,0,0-.763.847,15.131,15.131,0,0,0-1.12,1.713,4.309,4.309,0,0,0-2.493.321,8.213,8.213,0,0,0-1.967,1.779c-1.144,1.3-2.209,2.639-3.329,3.934-.278.327-.563.648-.847.962a6.535,6.535,0,0,0-.811,1.047,9.187,9.187,0,0,0-1,2.421c-.424,1.531-.726,3.074-1.21,4.557a12.78,12.78,0,0,0-.865-1.4,10.285,10.285,0,0,0-.648-.811,4.237,4.237,0,0,0-.769-.738,2.675,2.675,0,0,0-2.07-.5,1.555,1.555,0,0,0-.932.605,1.816,1.816,0,0,0-.266,1.071,13.132,13.132,0,0,0,.448,2.034c.157.66.29,1.331.412,2,.242,1.338.418,2.693.557,4.055.3,2.705.309,5.447.811,8.17a78.94,78.94,0,0,0,1.816,8.007,79.506,79.506,0,0,1-1.676-8.031c-.46-2.7-.393-5.447-.69-8.176-.139-1.362-.3-2.723-.539-4.079-.115-.672-.248-1.35-.405-2.015a13.117,13.117,0,0,1-.424-1.973,1.459,1.459,0,0,1,.218-.884,1.21,1.21,0,0,1,.738-.478,2.348,2.348,0,0,1,1.816.448,4.713,4.713,0,0,1,.7.69,7.43,7.43,0,0,1,.605.793,12,12,0,0,1,1.035,1.731l.188.393.145-.412c.605-1.628.908-3.335,1.368-4.969a8.806,8.806,0,0,1,.98-2.312,5.964,5.964,0,0,1,.769-.98l.865-.962c1.126-1.3,2.2-2.639,3.347-3.91a7.807,7.807,0,0,1,1.816-1.658,3.886,3.886,0,0,1,2.36-.242l.182.03.091-.157a15.739,15.739,0,0,1,1.168-1.816,6.657,6.657,0,0,1,.7-.781,1.325,1.325,0,0,1,.787-.424c.569.03,1.059.648,1.3,1.265a4.055,4.055,0,0,1,.194,2.034v.176l.163.067a2.106,2.106,0,0,1,.926.744,2.815,2.815,0,0,1,.436,1.156,7.917,7.917,0,0,1-.1,2.584l-.03.182.169.054a2.316,2.316,0,0,1,1.241,1.949,8.213,8.213,0,0,1-.091,2.578,36.27,36.27,0,0,1-1.561,5.035,22.459,22.459,0,0,0-.956,5.241,16.441,16.441,0,0,0,0,2.675c.079.89.212,1.761.3,2.639a21.84,21.84,0,0,1,0,5.259,27.839,27.839,0,0,1-1.3,5.108c-.563,1.67-1.21,3.329-1.816,4.969l-.98,2.463a16.081,16.081,0,0,0-.817,2.518,14.713,14.713,0,0,1,.865-2.5l1.023-2.421c.684-1.634,1.337-3.274,1.931-4.945a25.823,25.823,0,0,0,1.386-5.132,22.392,22.392,0,0,0,.048-5.326c-.079-.884-.206-1.761-.284-2.633a16.6,16.6,0,0,1,.055-2.627A21.919,21.919,0,0,1,232,156.8a35.65,35.65,0,0,0,1.6-5.078A8.957,8.957,0,0,0,233.65,149.052Z" transform="translate(-172.646 -104.669)" fill="#b16668"/>
          <path id="Trazado_798261" data-name="Trazado 798261" d="M191.49,272.6a3.22,3.22,0,0,0,1.7,1.15,6.6,6.6,0,0,0,2.04.163,11.758,11.758,0,0,0,3.94-1.15,18.543,18.543,0,0,0,3.51-2.2,24.562,24.562,0,0,0,3.068-2.814,31.235,31.235,0,0,0,4.842-6.839,35.1,35.1,0,0,0,3.026-7.825c1.44-5.447,1.846-11.106,2.584-16.692.357-2.8.8-5.592,1.307-8.364s1.114-5.538,1.61-8.316c-.466,2.784-1.035,5.55-1.513,8.328s-.9,5.568-1.21,8.37c-.678,5.592-1,11.257-2.421,16.764a35.3,35.3,0,0,1-3.026,7.94c-.327.605-.66,1.253-1.041,1.852l-.551.914-.605.884a30.206,30.206,0,0,1-2.548,3.419,26.115,26.115,0,0,1-3.1,2.966,18.38,18.38,0,0,1-3.692,2.215,10.779,10.779,0,0,1-4.164.986,5.761,5.761,0,0,1-2.142-.363,3.1,3.1,0,0,1-1.616-1.392Z" transform="translate(-165.83 -136.773)" fill="#f28f8f"/>
          <path id="Trazado_798262" data-name="Trazado 798262" d="M225.32,158.886a36.362,36.362,0,0,1,.5-4.176,10.319,10.319,0,0,1,1.773-3.885,74.147,74.147,0,0,1,5.181-6.385,73.572,73.572,0,0,1-4.575,6.815,11.681,11.681,0,0,0-1.816,3.631C225.974,156.157,225.732,157.549,225.32,158.886Z" transform="translate(-179.186 -107.053)" fill="#f0997a"/>
          <path id="Trazado_798263" data-name="Trazado 798263" d="M239.74,144.844a1.253,1.253,0,0,0-1.041.169,2.566,2.566,0,0,0-.605.853c-.345.648-.605,1.368-.9,2.064-.605,1.392-1.21,2.421-1.894,3.77a18.6,18.6,0,0,0-.944,2c-.242.684-.442,1.422-.666,2.136-.436,1.446-.9,2.881-1.4,4.315.224-1.5.5-2.99.835-4.466.169-.738.345-1.465.563-2.215a18.156,18.156,0,0,1,.95-2.112c.7-1.344,1.331-2.354,2.034-3.68a21.753,21.753,0,0,1,1.108-2,2.706,2.706,0,0,1,.841-.835,1.253,1.253,0,0,1,1.12,0Z" transform="translate(-181.937 -107.16)" fill="#f0997a"/>
          <path id="Trazado_798264" data-name="Trazado 798264" d="M243.177,152.715a1.21,1.21,0,0,0-.781.321,2.59,2.59,0,0,0-.484.7,13.6,13.6,0,0,0-.666,1.622,26.2,26.2,0,0,1-1.059,3.256c-.26.545-.533,1.083-.8,1.616a14.552,14.552,0,0,0-.75,1.586c-.418,1.1-.769,2.239-1.132,3.383a16.9,16.9,0,0,1,.605-3.577,26.519,26.519,0,0,1,1.428-3.323c.514-1.077.708-2.046,1.21-3.159a9.04,9.04,0,0,1,.9-1.6,2.808,2.808,0,0,1,.672-.666A1.168,1.168,0,0,1,243.177,152.715Z" transform="translate(-183.994 -110.311)" fill="#f0997a"/>
          <path id="Trazado_798265" data-name="Trazado 798265" d="M217.367,169.14c-.036,1.446-.157,2.863-.3,4.291a38.076,38.076,0,0,1-.605,4.236,22.824,22.824,0,0,1,.073-4.315,19.488,19.488,0,0,1,.829-4.212Z" transform="translate(-175.663 -116.804)" fill="#f0997a"/>
          <path id="Trazado_798266" data-name="Trazado 798266" d="M284.766,174.163c.424,4.775,9.52,18.084,14.017,23.851s5.931,8.642,7.026,13.8.188,13.817-2.6,19.252c-1.543,3.026-9.254,2.572-16.153-5.447s-7.868-15.857-9.871-25.873c-1.58-7.807-3.117-12.383-4.158-16.474-.412-1.622-3.026-5.756-5.084-10.954s-1.029-9.175-1.3-11.372a23.236,23.236,0,0,0-1.6-6.561,39.116,39.116,0,0,1-1.658-3.922c-.987-3.311-.145-4.7.7-5.078-.605-2.342-.369-3.9.944-4.581-.514-2.088.666-3.861,1.737-3.444s2.554,2.675,2.554,2.675a4.025,4.025,0,0,1,2.548.115c1.21.545,4.194,3.964,6.179,5.762s2.106,4.351,3.534,7.577a11.39,11.39,0,0,1,1.719-2.959c1.162-1.4,3.716-1.4,3.189,1.247a51.749,51.749,0,0,0-.605,11.033,65.608,65.608,0,0,1-1.132,11.378" transform="translate(-194.039 -104.234)" fill="#ffbda7"/>
          <path id="Trazado_798267" data-name="Trazado 798267" d="M262.646,147.3a3.7,3.7,0,0,1,.3-1.283,2.088,2.088,0,0,1,.8-.9,7.759,7.759,0,0,1-.284-2.421,3.025,3.025,0,0,1,.369-1.3,2.421,2.421,0,0,1,.853-.859,4.158,4.158,0,0,1,.048-2,2.815,2.815,0,0,1,.5-1,1.543,1.543,0,0,1,1-.605,1.689,1.689,0,0,1,1.1.424,6.053,6.053,0,0,1,.781.738,13.222,13.222,0,0,1,1.21,1.537,4.061,4.061,0,0,1,2.385.109,7.765,7.765,0,0,1,1.991,1.525c1.18,1.132,2.294,2.318,3.444,3.456.29.284.605.569.878.841a6.5,6.5,0,0,1,.847.926A8.793,8.793,0,0,1,280,148.7c.514,1.416.92,2.844,1.489,4.236a11.494,11.494,0,0,1,.714-1.386,9.267,9.267,0,0,1,.551-.823,4.291,4.291,0,0,1,.666-.75,2.506,2.506,0,0,1,1.919-.605,1.44,1.44,0,0,1,.926.508,1.689,1.689,0,0,1,.333.993,12.484,12.484,0,0,1-.26,1.955c-.1.635-.176,1.277-.236,1.919-.127,1.289-.182,2.578-.212,3.873-.073,2.584.127,5.187-.133,7.777a76.5,76.5,0,0,1-1.114,7.626,75.122,75.122,0,0,0,.956-7.71c.224-2.578-.048-5.169,0-7.771,0-1.3.073-2.6.194-3.891.054-.648.127-1.3.224-1.937a12.708,12.708,0,0,0,.248-1.894,1.428,1.428,0,0,0-.272-.823,1.138,1.138,0,0,0-.738-.387,2.185,2.185,0,0,0-1.664.563,4.35,4.35,0,0,0-.605.7q-.278.387-.527.8a10.951,10.951,0,0,0-.841,1.713l-.145.387-.175-.375c-.678-1.495-1.114-3.081-1.676-4.587a8.212,8.212,0,0,0-1.1-2.106,5.713,5.713,0,0,0-.8-.872c-.3-.272-.605-.557-.89-.841-1.168-1.138-2.288-2.318-3.468-3.432a7.468,7.468,0,0,0-1.852-1.422,3.758,3.758,0,0,0-2.251-.048l-.169.048-.091-.139a15.418,15.418,0,0,0-1.247-1.61,5.89,5.89,0,0,0-.72-.684,1.211,1.211,0,0,0-.775-.339c-.533.067-.95.69-1.12,1.289a3.819,3.819,0,0,0-.03,1.937l.036.163-.145.079a1.991,1.991,0,0,0-.823.775,2.724,2.724,0,0,0-.321,1.12,7.493,7.493,0,0,0,.3,2.421l.042.163-.157.073a2.191,2.191,0,0,0-1.023,1.937,8.037,8.037,0,0,0,.284,2.421,31.745,31.745,0,0,0,1.87,4.636,21.272,21.272,0,0,1,1.3,4.878,15.833,15.833,0,0,1,.242,2.518c0,.847-.067,1.682-.079,2.518a20.693,20.693,0,0,0,.424,4.963,25.922,25.922,0,0,0,1.628,4.721c.66,1.537,1.38,3.026,2.124,4.551l1.126,2.27a14.853,14.853,0,0,1,.974,2.312,15.441,15.441,0,0,0-1.011-2.294l-1.174-2.227c-.775-1.489-1.519-2.99-2.209-4.521a24.586,24.586,0,0,1-1.707-4.739,21.219,21.219,0,0,1-.46-5.023c0-.841.061-1.676.067-2.512a15.533,15.533,0,0,0-.254-2.469,20.807,20.807,0,0,0-1.313-4.8,38.453,38.453,0,0,1-1.906-4.666A8.365,8.365,0,0,1,262.646,147.3Z" transform="translate(-193.919 -104.088)" fill="#b16668"/>
          <path id="Trazado_798268" data-name="Trazado 798268" d="M309.792,261.057a3.026,3.026,0,0,1-1.519,1.21,6,6,0,0,1-1.906.315,11.342,11.342,0,0,1-3.813-.781,17.553,17.553,0,0,1-3.48-1.816,23.164,23.164,0,0,1-3.123-2.421,29.764,29.764,0,0,1-5.1-6.052,33.141,33.141,0,0,1-3.468-7.16c-1.785-5.029-2.6-10.343-3.734-15.56q-.835-3.922-1.888-7.8c-.69-2.584-1.477-5.138-2.155-7.729.648,2.6,1.4,5.162,2.07,7.747s1.283,5.193,1.816,7.807c1.077,5.229,1.816,10.555,3.559,15.645a33.328,33.328,0,0,0,3.462,7.263c.357.569.72,1.138,1.126,1.67l.605.817.605.787a28.26,28.26,0,0,0,2.675,3.026,23.741,23.741,0,0,0,3.153,2.554,17.425,17.425,0,0,0,3.631,1.816,10.191,10.191,0,0,0,4.043.605,5.32,5.32,0,0,0,1.991-.508A2.929,2.929,0,0,0,309.792,261.057Z" transform="translate(-200.619 -134.226)" fill="#f28f8f"/>
          <path id="Trazado_798269" data-name="Trazado 798269" d="M281.478,155.28a32.59,32.59,0,0,0-.8-3.9,9.732,9.732,0,0,0-1.967-3.534,72.624,72.624,0,0,0-5.392-5.622,69.053,69.053,0,0,0,4.842,6.052,11.1,11.1,0,0,1,2,3.256C280.643,152.757,280.994,154.046,281.478,155.28Z" transform="translate(-198.136 -106.177)" fill="#f0997a"/>
          <path id="Trazado_798270" data-name="Trazado 798270" d="M266.82,143.094a1.21,1.21,0,0,1,.993.079,2.464,2.464,0,0,1,.666.763c.375.605.648,1.241,1,1.876.684,1.271,1.313,2.2,2.058,3.413a16.869,16.869,0,0,1,1.047,1.816c.284.605.527,1.307.8,1.967q.781,2,1.658,3.964c-.327-1.4-.7-2.784-1.138-4.152-.212-.684-.436-1.356-.7-2.046a15.685,15.685,0,0,0-1.059-1.919c-.763-1.21-1.416-2.124-2.185-3.323a21.645,21.645,0,0,0-1.21-1.816,2.693,2.693,0,0,0-.859-.72,1.21,1.21,0,0,0-1.065.1Z" transform="translate(-195.57 -106.452)" fill="#f0997a"/>
          <path id="Trazado_798271" data-name="Trazado 798271" d="M265.23,150.759a1.144,1.144,0,0,1,.763.248,2.421,2.421,0,0,1,.508.605,12.642,12.642,0,0,1,.757,1.483c.43,1.035,2.723,5.368,2.966,5.865.484,1,.9,2.058,1.337,3.117a15.64,15.64,0,0,0-.829-3.335,24.014,24.014,0,0,0-1.446-3.026c-.569-.974-.993-1.816-1.537-2.844a8.7,8.7,0,0,0-.968-1.44,2.723,2.723,0,0,0-.684-.575A1.1,1.1,0,0,0,265.23,150.759Z" transform="translate(-194.942 -109.529)" fill="#f0997a"/>
          <path id="Trazado_798272" data-name="Trazado 798272" d="M293.75,164c.151,1.368.369,2.7.605,4.037a36.608,36.608,0,0,0,.926,3.97,22.272,22.272,0,0,0-.4-4.067A18.761,18.761,0,0,0,293.75,164Z" transform="translate(-206.201 -114.775)" fill="#f0997a"/>
          <path id="Trazado_798273" data-name="Trazado 798273" d="M260.723,148.893l-6.73,2.687L252.45,138.5C254.931,137.715,257.873,143.809,260.723,148.893Z" transform="translate(-189.896 -104.679)" fill="#f0997a"/>
          <path id="Trazado_798274" data-name="Trazado 798274" d="M246.054,127.258a1.416,1.416,0,0,0-.52-.188c-.139,0-.339,0-.387.182a.272.272,0,0,0,.036.206c0,.03.176.169.194.133-.073,0-.061.054.042.079l.085.042.169.091a1.931,1.931,0,0,1,.266.188,1.211,1.211,0,0,1,.351.527,1.864,1.864,0,0,1,.079.605v.478a.278.278,0,0,0,.048.163,1.591,1.591,0,0,0,.048.412c.036.109.182.242.284.127a.726.726,0,0,0,.127-.206,2.924,2.924,0,0,0,.224-.533,2.42,2.42,0,0,0,.061-.605,1.943,1.943,0,0,0-.3-1.017,1.985,1.985,0,0,0-.8-.684Zm7.045,1.586v-.133a1.421,1.421,0,0,1,.085-.272h0v-.054l.067-.109a2.684,2.684,0,0,0,.248-.393c.115-.284-.242-.478-.478-.393l-.375.266-.036.042-.048.054c-.03.042-.061.085-.085.127a2.312,2.312,0,0,0-.157.327,2.088,2.088,0,0,0-.151.666,1.979,1.979,0,0,0,.054.678,1.368,1.368,0,0,0,.218.442l.091.127a.672.672,0,0,0,.278.206c.182.073.52,0,.472-.26a.605.605,0,0,0-.048-.206s-.036-.073-.03-.054a.7.7,0,0,1-.067-.163,1.613,1.613,0,0,0-.073-.309v-.079h0a1.217,1.217,0,0,1,0-.139,2.327,2.327,0,0,1,0-.29Z" transform="translate(-187.01 -100.196)" fill="#f0997a"/>
        </g>
        <path id="Trazado_798275" data-name="Trazado 798275" d="M304.61,357.828a19.212,19.212,0,0,1-3.631-9.121c-.605-4.872-1.664-15.99-2.863-26.708s-3.347-34.933-5.955-48.514c-1.325-6.905-4.3-14.344-9.151-14.446-3.7-.073-14.011,2.421-17.805,16s-3.074,21.182,0,32.028c1.919,6.772,13.605,31.586,15.179,36.21s1.592,5.6,1.592,5.6v9.242Z" transform="translate(-193.912 -152.295)" fill="#ffa8a7"/>
        <path id="Trazado_798276" data-name="Trazado 798276" d="M292,433.06c-.145,4.666,5.653,5.756,8.364,7.135a10.5,10.5,0,0,1,5.447,5.447c5.562,8.878,14.652,11.263,26.327,9.308,8.2-1.713,9.018-7.571,5.961-10.137C336.3,444.25,292,433.06,292,433.06Z" transform="translate(-205.509 -220.997)" fill="#263238"/>
        <path id="Trazado_798277" data-name="Trazado 798277" d="M293.285,406.381c-.787.073-1.21.508-1.156,1.888.188,3.371-1.707,9.526-.43,13.587,2.475,5.181,10.761,5.072,13.708,8.927s5.707,8.691,15,10.289,16.226-1.555,17.86-4.237,0-5.114-6.01-8.146c-6.385-3.214-14.943-13.1-14.943-13.1a44.227,44.227,0,0,1-3.026-4.079,5.158,5.158,0,0,1-.605-2.185l-.454-2.687a2.609,2.609,0,0,0-.393-1.162,2.149,2.149,0,0,0-1.362-.7,10.247,10.247,0,0,0-3.855.218c-.841.163-1.67.351-2.5.563a8.382,8.382,0,0,0-3.3,1.428,2.742,2.742,0,0,0-.92,1.21,3.366,3.366,0,0,0-.145,1.1,20.182,20.182,0,0,0,.315,3.571c.048.278.036.654-.236.726a.533.533,0,0,1-.448-.188c-.605-.605-.829-1.428-1.362-2.064-.9-1.083-2.378-1.331-3.631-1.816a4.351,4.351,0,0,1-1.888-1.259Z" transform="translate(-205.216 -209.793)" fill="#37474f"/>
        <path id="Trazado_798278" data-name="Trazado 798278" d="M329.408,453.372c-.8-7.868,12.588-16.208,19.905-10.325,2.59,1.755,6.331,5.447,4.2,8.3C350.185,457.5,332.621,457.155,329.408,453.372Z" transform="translate(-220.265 -224.158)" fill="#fafafa"/>
        <path id="Trazado_798279" data-name="Trazado 798279" d="M312.127,422.041c1.67-1.089,5.568-5.8,11.275-4.515C322.422,411.892,307.74,421.345,312.127,422.041Z" transform="translate(-213.134 -214.16)" fill="#fafafa"/>
        <path id="Trazado_798280" data-name="Trazado 798280" d="M328.451,423.56c-2.07-5.041-11.662,2.881-11.578,3.413-.605.853.811,1.664,1.35.829C318.962,426.713,323.664,422.676,328.451,423.56Z" transform="translate(-215.272 -216.587)" fill="#fafafa"/>
        <path id="Trazado_798281" data-name="Trazado 798281" d="M340.818,436.131c-2.27-5.8-16.026,3.1-12.1,4.236C330.427,439.254,334.857,434.073,340.818,436.131Z" transform="translate(-219.729 -221.441)" fill="#fafafa"/>
        <path id="Trazado_798282" data-name="Trazado 798282" d="M323.176,434.28c1.664-1.077,5.447-5.689,11.112-4.545C332.453,424.4,319.139,433.548,323.176,434.28Z" transform="translate(-217.519 -219.028)" fill="#fafafa"/>
        <path id="Trazado_798283" data-name="Trazado 798283" d="M343.248,342.692c-.859-3.371-7.922-17.46-11.063-23.839-3.855-7.831-11.529-23.742-11.88-38.183s3.244-20.3,7.075-24.674c4.412-5.041,12.582-5.447,16.238,2.015,9.254,18.834,12.824,48.356,14.446,59.063s3.885,26.908,3.885,26.908a26.159,26.159,0,0,0,3.922,8.067H343.254Z" transform="translate(-216.675 -149.633)" fill="#ffa8a7"/>
        <path id="Trazado_798284" data-name="Trazado 798284" d="M236.253,337.412c12.51,1.543,26.024-6.3,33.432-11.626,8.473-6.113,19.367-14.622,19.367-14.622l12.982,25.861a22.577,22.577,0,0,0,12.51.835c7.275-1.459,8.721-5.156,8.721-5.156s-4.4-29.994-6.657-41.384c-3.462-17.267-5.707-25.219-7.317-29.674s-5.973-10.991-13.212-11.257-11.263,2.53-24.372,11.257c-8.884,5.907-41.651,37.009-45.034,41.191S215.373,334.834,236.253,337.412Z" transform="translate(-178.015 -148.874)" fill="#37474f"/>
        <path id="Trazado_798285" data-name="Trazado 798285" d="M314.617,356.27c-.412-1.21-2.838-7.65-3.256-8.878-.811-2.421-6.191-20.438-6.948-23.167q-1.21-4.236-2.076-8.57c-.533-2.56-.98-5.144-1.35-7.735q-.278-1.979-.5-3.964c-.139-1.3-.2-2.615-.442-3.9a5.229,5.229,0,0,0-1.658-3.129,3.141,3.141,0,0,0-3.026-.678,4.842,4.842,0,0,0-2.366,2.173c-.726,1.15-1.386,2.348-2.027,3.54-2.651,4.9-4.9,9.992-7.547,14.882a54,54,0,0,1-8.473,12.026,26.97,26.97,0,0,1-11.6,7.39,20.063,20.063,0,0,1-12.746-.412,14.736,14.736,0,0,1-5.374-3.6,18.379,18.379,0,0,1-2.385-3.208,31.015,31.015,0,0,1-1.6-3.026c-.5-1.089-1-2.185-1.507-3.274-.115-.254-.605-.266-.508.085a37.3,37.3,0,0,0,3.123,6.948A16.437,16.437,0,0,0,247,334.888a18.722,18.722,0,0,0,12.225,2.966,24.142,24.142,0,0,0,12.419-4.89,40.827,40.827,0,0,0,9.526-10.549,132.291,132.291,0,0,0,7.656-14.3c1.21-2.481,2.475-4.957,3.843-7.359a13.236,13.236,0,0,1,2.04-3.093,2.136,2.136,0,0,1,2.929-.176,4.788,4.788,0,0,1,1.592,3.256c.2,1.313.278,2.651.43,3.97q.448,3.885,1.132,7.741c.775,4.364,1.816,8.7,2.935,12.976,2.1,7.946,4.418,15.735,7,23.549a58.249,58.249,0,0,0,2.808,7.263c.351.042.72.079,1.1.1A.508.508,0,0,0,314.617,356.27Z" transform="translate(-184.673 -166.932)" fill="#263238"/>
        <path id="Trazado_798286" data-name="Trazado 798286" d="M324.443,294.81c-4.037,9.8-3.516,23.107.769,36.282l3.081-2.385C323.087,316.349,323.928,302.569,324.443,294.81Z" transform="translate(-217.231 -166.417)" fill="#263238"/>
        <path id="Trazado_798287" data-name="Trazado 798287" d="M199.814,342.695c9.254,1.949,17.86-.8,24.614-6.918s10.936-17.551,10.936-17.551l9.653,23.942a22.577,22.577,0,0,0,12.51.835c7.275-1.459,8.721-5.156,8.721-5.156s-2.215-31.58-3.71-43.1c-2.106-16.25-4.073-25.764-5.707-30.261s-6.778-10.246-14.017-10.513S229.6,257.13,222.159,264.78s-30.7,35.586-34.079,39.768-12.709,18.338-12.709,18.338S179.231,338.349,199.814,342.695Z" transform="translate(-159.466 -150.289)" fill="#455a64"/>
        <path id="Trazado_798288" data-name="Trazado 798288" d="M199.814,342.695c9.254,1.949,17.86-.8,24.614-6.918s10.936-17.551,10.936-17.551l9.653,23.942a22.577,22.577,0,0,0,12.51.835c7.275-1.459,8.721-5.156,8.721-5.156s-2.215-31.58-3.71-43.1c-2.106-16.25-4.073-25.764-5.707-30.261s-6.778-10.246-14.017-10.513S229.6,257.13,222.159,264.78s-30.7,35.586-34.079,39.768-12.709,18.338-12.709,18.338S179.231,338.349,199.814,342.695Z" transform="translate(-159.466 -150.289)" fill="#455a64"/>
        <path id="Trazado_798289" data-name="Trazado 798289" d="M251.338,362.455a55.416,55.416,0,0,1-2.9-7.48c-2.584-7.789-4.9-15.6-7-23.549-1.132-4.273-2.161-8.612-2.935-12.976q-.69-3.855-1.132-7.741c-.151-1.319-.23-2.657-.43-3.97a4.654,4.654,0,0,0-1.592-3.256,2.136,2.136,0,0,0-2.929.176,13.235,13.235,0,0,0-2.04,3.093c-1.368,2.421-2.621,4.878-3.843,7.359a133.444,133.444,0,0,1-7.656,14.3,40.828,40.828,0,0,1-9.526,10.567,24.142,24.142,0,0,1-12.371,4.9,18.731,18.731,0,0,1-12.225-2.966,16.437,16.437,0,0,1-4.648-5.114,37.3,37.3,0,0,1-3.123-6.966c-.121-.351.393-.339.508-.085.508,1.089,1,2.185,1.507,3.274a31.016,31.016,0,0,0,1.6,3.026,18.38,18.38,0,0,0,2.384,3.208,14.737,14.737,0,0,0,5.374,3.631,20.063,20.063,0,0,0,12.746.412,26.969,26.969,0,0,0,11.6-7.39,54,54,0,0,0,8.473-12.026c2.651-4.89,4.9-9.986,7.547-14.882.642-1.21,1.3-2.391,2.027-3.54a4.842,4.842,0,0,1,2.366-2.173,3.141,3.141,0,0,1,3.026.678A5.229,5.229,0,0,1,237.8,306.1c.242,1.283.3,2.6.442,3.9s.315,2.645.5,3.964c.369,2.59.817,5.175,1.35,7.735q.89,4.321,2.076,8.57c.757,2.729,6.137,20.753,6.948,23.167.418,1.21,2.845,7.644,3.256,8.878a.888.888,0,0,0,.085.224Z" transform="translate(-160.098 -169.317)" fill="#37474f"/>
        <path id="Trazado_798290" data-name="Trazado 798290" d="M261.205,301c-4.031,9.8-2.548,24.947,4.987,40.828,1.422-2.893,2.2-5.011,2.2-5.011C263.2,324.464,260.7,308.759,261.205,301Z" transform="translate(-192.49 -168.861)" fill="#37474f"/>
        <path id="Trazado_798291" data-name="Trazado 798291" d="M358.24,427.62c.242,4.66,6.107,5.271,8.921,6.421a10.459,10.459,0,0,1,5.858,4.993c6.27,8.4,15.524,10.028,26.992,7.129,8.037-2.378,8.376-8.279,5.12-10.591C403.316,435.149,358.24,427.62,358.24,427.62Z" transform="translate(-231.661 -218.849)" fill="#263238"/>
        <path id="Trazado_798292" data-name="Trazado 798292" d="M357.713,399.728c-.666.327-.859.769-.672,2.136.46,3.347-.926,9.629.678,13.575,2.887,4.957,11.142,4.17,14.392,7.771s6.4,8.195,15.79,9.006,16.044-2.875,17.485-5.653-.412-5.1-6.657-7.626C392.1,416.25,382.762,407.1,382.762,407.1a43.691,43.691,0,0,1-3.353-3.825,5.157,5.157,0,0,1-.793-2.124l-.672-2.639a2.583,2.583,0,0,0-.49-1.126,2.088,2.088,0,0,0-1.41-.605,10.235,10.235,0,0,0-3.831.527c-.823.236-1.634.49-2.421.769a8.474,8.474,0,0,0-3.183,1.689,2.82,2.82,0,0,0-.817,1.3,3.632,3.632,0,0,0-.055,1.114,19.933,19.933,0,0,0,.605,3.528c.067.272.085.654-.182.744a.508.508,0,0,1-.46-.151,24.341,24.341,0,0,1-1.525-1.949c-.98-1-2.481-1.132-3.758-1.525a4.321,4.321,0,0,1-1.979-1.1Z" transform="translate(-231.14 -206.669)" fill="#37474f"/>
        <path id="Trazado_798293" data-name="Trazado 798293" d="M397.806,444.035c-1.446-7.789,11.221-17.188,18.992-11.923,2.723,1.537,6.754,4.932,4.842,7.928C418.849,446.45,401.316,447.533,397.806,444.035Z" transform="translate(-247.236 -220.019)" fill="#fafafa"/>
        <path id="Trazado_798294" data-name="Trazado 798294" d="M377.718,414.42c1.574-1.21,5.078-6.24,10.894-5.447C387.153,403.483,373.312,414.081,377.718,414.42Z" transform="translate(-239.01 -210.866)" fill="#fafafa"/>
        <path id="Trazado_798295" data-name="Trazado 798295" d="M394.107,414.674c-2.481-4.842-11.39,3.825-11.257,4.351-.508.89.944,1.586,1.41.714C384.908,418.59,389.266,414.184,394.107,414.674Z" transform="translate(-241.335 -213.16)" fill="#fafafa"/>
        <path id="Trazado_798296" data-name="Trazado 798296" d="M407.444,426.166c-2.73-5.592-15.736,4.394-11.7,5.223C397.336,430.13,401.337,424.574,407.444,426.166Z" transform="translate(-246.162 -217.607)" fill="#fafafa"/>
        <path id="Trazado_798297" data-name="Trazado 798297" d="M389.718,425.783c1.568-1.21,4.981-6.119,10.7-5.447C398.155,415.192,385.627,425.383,389.718,425.783Z" transform="translate(-243.767 -215.402)" fill="#fafafa"/>
      </g>
    </g>
    <g id="freepik--Doodles--inject-7" transform="translate(16.901 25.518)">
      <path id="Trazado_798298" data-name="Trazado 798298" d="M127.933,123.235a22,22,0,0,0-6.712,3.1,40.192,40.192,0,0,0-5.447,4.345c-3.141,3.026-5.877,6.845-6.191,11.317a3.8,3.8,0,0,0,.914,3.074,4.527,4.527,0,0,0,2.608,1.126,12.243,12.243,0,0,0,6.518-1.271,23.754,23.754,0,0,0,5.719-3.9,24.347,24.347,0,0,0,4.594-5.217,11.826,11.826,0,0,0,1.392-3.056,1.241,1.241,0,0,0-.357-1.392,2.281,2.281,0,0,0-1.519-.3c-2.372.151-4.309,1.925-5.943,3.486a33.48,33.48,0,0,0-4.612,5.459,32.971,32.971,0,0,0-1.858,3.111,8.9,8.9,0,0,0-1.12,3.522,4.908,4.908,0,0,0,3.51,4.842c2.336.8,5,.266,7.263-.575a17.17,17.17,0,0,0,5.8-3.631,9.714,9.714,0,0,0,3.292-5.689c.109-.944-.079-2.13-1.144-2.421s-2.034.605-2.754,1.289c-1.513,1.44-3.214,3.189-3.419,5.38a4.247,4.247,0,0,0,2.342,4.351c2.112.829,4.037-.847,5.132-2.493a3.6,3.6,0,0,0,.769-3.026.418.418,0,0,0-.605-.2,4.575,4.575,0,0,0-1.925,3.419,2.421,2.421,0,0,0,.466,1.816,2.8,2.8,0,0,0,2.021.66,5.786,5.786,0,0,0,3.916-1.707,10.289,10.289,0,0,0,1.489-1.816,13.2,13.2,0,0,0,1.138-1.937,2.657,2.657,0,0,0,.169-2.027,1.767,1.767,0,0,0-1.319-1.156c-1.41-.236-2.487,1.21-2.9,2.378a9.32,9.32,0,0,0-.375,4.2,3.631,3.631,0,0,0,2.209,2.917,4.442,4.442,0,0,0,3.988-.272,6.052,6.052,0,0,0,2.59-3.589c.085-.272-.418-.569-.508-.266-.605,1.949-2.385,3.964-4.575,3.879a3.238,3.238,0,0,1-2.542-1.3,5.532,5.532,0,0,1-.472-3.631,5.241,5.241,0,0,1,1.12-3.026c.369-.412,1.065-.956,1.652-.642a1.4,1.4,0,0,1,.551,1.41,4.884,4.884,0,0,1-.781,1.816,15,15,0,0,1-1.053,1.561,6.73,6.73,0,0,1-2.923,2.3,4.1,4.1,0,0,1-2.04.23,1.3,1.3,0,0,1-.914-.448,1.87,1.87,0,0,1-.212-.974,4.019,4.019,0,0,1,1.743-3.317l-.605-.2c.3,1.1-.442,2.2-1.083,3.026a4.951,4.951,0,0,1-2.276,1.816c-1.713.533-2.99-.932-3.292-2.487-.369-1.894.726-3.631,1.961-4.957a12.1,12.1,0,0,1,2.148-2.021c.357-.236.865-.478,1.21-.1a1.816,1.816,0,0,1,.26,1.344,8.632,8.632,0,0,1-2.905,5.2,16.165,16.165,0,0,1-5.047,3.329,11.561,11.561,0,0,1-6.367,1,4.34,4.34,0,0,1-3.74-3.71,6.555,6.555,0,0,1,.775-3.25,24.9,24.9,0,0,1,1.537-2.748,32.253,32.253,0,0,1,3.9-5.023,30.376,30.376,0,0,1,2.342-2.245,10.01,10.01,0,0,1,2.518-1.682c.442-.194,2.554-.9,2.5.054a4.364,4.364,0,0,1-.46,1.38,12.324,12.324,0,0,1-.666,1.325,20.814,20.814,0,0,1-3.916,4.7,25.722,25.722,0,0,1-4.945,3.752,13.46,13.46,0,0,1-5.743,1.846c-1.646.1-3.77-.26-4.109-2.191a7.753,7.753,0,0,1,.224-2.911,13.726,13.726,0,0,1,.944-2.742,19.427,19.427,0,0,1,3.25-4.775,33.982,33.982,0,0,1,4.436-4.055,33.431,33.431,0,0,1,5.338-3.486,19.367,19.367,0,0,1,3.522-1.386.278.278,0,0,0,.133-.412.442.442,0,0,0-.5-.163Z" transform="translate(-57.668 -65.784)" fill="#455a64"/>
      <path id="Trazado_798299" data-name="Trazado 798299" d="M353.732,157.587a8.473,8.473,0,0,1-3.153,5.09c-3.674,2.905-8.521,2.838-12.964,2.627a7.638,7.638,0,0,0-2.8.254,3.413,3.413,0,0,0-1.937,1.779,4.338,4.338,0,0,1-1.737,2.282,5.108,5.108,0,0,1-2.893.176c-1.658-.254-3.8-.781-5.181.508-.744.7-.865,1.719-1.38,2.554a3.087,3.087,0,0,1-2.076,1.356,3.631,3.631,0,0,1-.926.073,3.129,3.129,0,0,0,1.888-1.64c.908-1.761.648-4.2,2.173-5.628a5.4,5.4,0,0,1,2.536-1.114,8.794,8.794,0,0,0,2.651-.95c2.058-1.3-.406-3.946-1.489-5.041a19.367,19.367,0,0,1-3.94-5.023,10.059,10.059,0,0,1-.968-6.052c.726-4.315,5.368-6.6,9.236-7.456a20.317,20.317,0,0,1,12.8,1.4,22.357,22.357,0,0,1,5.368,3.474,15.4,15.4,0,0,1,3.9,4.981A10.591,10.591,0,0,1,353.732,157.587Z" transform="translate(-140.237 -72.799)" fill="#fff"/>
      <path id="Trazado_798300" data-name="Trazado 798300" d="M352.94,154.59c-.321-4.333-3.177-7.868-6.548-10.391a21.539,21.539,0,0,0-12.328-4.321c-4.273-.091-8.891,1.077-12.141,3.97a8.019,8.019,0,0,0-1.9,2.391,7.807,7.807,0,0,0-.775,2.851,11.051,11.051,0,0,0,1.319,6.052,15.359,15.359,0,0,0,1.816,2.633c.7.835,1.489,1.574,2.245,2.354a7.36,7.36,0,0,1,1.816,2.608,1.471,1.471,0,0,1,.091.787,1.126,1.126,0,0,1-.605.648,6.173,6.173,0,0,1-1.319.52,19.53,19.53,0,0,0-2.717.829,3.946,3.946,0,0,0-1.979,2.015,17.068,17.068,0,0,0-.781,2.911,4.515,4.515,0,0,1-1.4,2.645,2.336,2.336,0,0,1-1.967.418l-.067-.036a.29.29,0,0,0-.091,0,1.271,1.271,0,0,1-.412-.3c-.151-.176-.466-.048-.284.157a1.943,1.943,0,0,0,.69.5h.03a4,4,0,0,0,4.533-.5c.738-.7.884-1.682,1.386-2.518a2.766,2.766,0,0,1,2.421-1.253c1.888-.048,3.819.865,5.683.2a3.444,3.444,0,0,0,1.906-1.925,3.733,3.733,0,0,1,1.864-2.185,7,7,0,0,1,2.941-.26c1.21.067,2.481.127,3.722.1a17.981,17.981,0,0,0,6.7-1.271,10.688,10.688,0,0,0,4.63-3.631,9.26,9.26,0,0,0,1.519-6Zm-.72,2.584a8.473,8.473,0,0,1-3.153,5.09c-3.674,2.905-8.521,2.838-12.964,2.627a7.638,7.638,0,0,0-2.8.254,3.413,3.413,0,0,0-1.937,1.779,4.338,4.338,0,0,1-1.737,2.282,5.108,5.108,0,0,1-2.893.176c-1.658-.254-3.8-.781-5.181.508-.744.7-.865,1.719-1.38,2.554A3.087,3.087,0,0,1,318.1,173.8a3.631,3.631,0,0,1-.926.073,3.129,3.129,0,0,0,1.888-1.64c.908-1.761.648-4.2,2.173-5.628a5.4,5.4,0,0,1,2.536-1.114,8.794,8.794,0,0,0,2.651-.95c2.058-1.3-.406-3.946-1.489-5.041a19.367,19.367,0,0,1-3.94-5.023,10.059,10.059,0,0,1-.968-6.052c.726-4.315,5.368-6.6,9.236-7.456a20.317,20.317,0,0,1,12.8,1.4,22.356,22.356,0,0,1,5.368,3.474,15.4,15.4,0,0,1,3.9,4.981A10.591,10.591,0,0,1,352.219,157.174Z" transform="translate(-138.725 -72.385)" fill="#455a64"/>
      <path id="Trazado_798301" data-name="Trazado 798301" d="M343.309,150.677a24.59,24.59,0,0,0,2.13,3.026c.678.938,1.362,1.87,2.034,2.808s1.3,1.816,1.943,2.748,1.271,1.919,1.955,2.838a.369.369,0,0,0,.351.115c.684-.127.115-.823-.1-1.144q-.508-.757-1.035-1.507-1.089-1.574-2.2-3.123c-.708-.986-1.416-1.973-2.148-2.941a25.029,25.029,0,0,0-2.5-3.081c-.188-.182-.569-.042-.424.236Z" transform="translate(-149.944 -76.516)" fill="#455a64"/>
      <path id="Trazado_798302" data-name="Trazado 798302" d="M351.515,154.395q-3.758,1.21-7.486,2.469l-3.692,1.289-1.846.648c-.557.194-1.459.345-1.816.829a.194.194,0,0,0,.048.242c.381.321,1.1-.061,1.489-.2l1.846-.642,3.758-1.319,3.9-1.374c1.362-.484,2.7-1.041,4.055-1.555.254-.091-.036-.454-.242-.387Z" transform="translate(-147.329 -78.116)" fill="#455a64"/>
      <path id="Trazado_798303" data-name="Trazado 798303" d="M115.472,231.852a3.438,3.438,0,0,1-1.035,1.592,6.619,6.619,0,0,1-4.442,1.21h0c-2.451-.188-5.06-1.973-5.314-4.563-.054-.551.061-1.1,0-1.652a2.506,2.506,0,0,0-.508-1.21,4.624,4.624,0,0,0-2.972-1.446,31.181,31.181,0,0,0-4.236-.284H92.414a35.769,35.769,0,0,1-8.11-.757,15.851,15.851,0,0,1-6.185-2.863,13.315,13.315,0,0,1-3.982-5.907,19.113,19.113,0,0,1,.605-14.253,24.366,24.366,0,0,1,9.114-10.4c4.236-2.742,9.823-4.5,14.749-2.512,4.46,1.816,7.65,6.052,9.326,10.446a17.158,17.158,0,0,1,1.21,7.735,13.92,13.92,0,0,1-.932,3.789c-.5,1.259-1.114,2.475-1.567,3.752-.714,2.009-.986,4.418.2,6.318A4.237,4.237,0,0,0,107.889,222a9.683,9.683,0,0,0,1.471.811,2.221,2.221,0,0,1,1.168,1.132,2.578,2.578,0,0,1-.042,1.64c-.333,1.138-1.077,2.082-1.483,3.189a2.867,2.867,0,0,0,2.808,4.333,5.38,5.38,0,0,0,3.026-.654,3.528,3.528,0,0,0,.635-.6Z" transform="translate(-43.258 -91.366)" fill="#fff"/>
      <path id="Trazado_798304" data-name="Trazado 798304" d="M115.208,229.7c-.605,2.052-3.389,2.536-5.144,1.773-2.584-1.132.079-4.454.605-6.052a3.076,3.076,0,0,0-.351-3.183c-.817-.884-2-1.011-2.79-1.816-1.592-1.646-1.338-4.236-.605-6.24.454-1.283,1.071-2.493,1.574-3.758a14.386,14.386,0,0,0,.962-3.795,17.727,17.727,0,0,0-1.041-7.8c-1.592-4.46-4.709-8.788-9.048-10.894-4.842-2.342-10.361-1.21-14.87,1.3a25.679,25.679,0,0,0-9.919,9.653,20.153,20.153,0,0,0-2.421,13.744,17.3,17.3,0,0,0,2.857,6.821,12.837,12.837,0,0,0,5.447,4.182c5.023,2.173,10.555,1.749,15.9,1.816a26.416,26.416,0,0,1,4.479.315c1.035.194,2.288.66,2.615,1.785a6.282,6.282,0,0,1,.054,1.616,4.757,4.757,0,0,0,.369,1.719,5.61,5.61,0,0,0,2.282,2.56,7.5,7.5,0,0,0,3.462,1.12h0a8.092,8.092,0,0,0,2.953-.242,5.083,5.083,0,0,0,1.925-1.035,4.485,4.485,0,0,0,1.416-3.559C115.928,229.39,115.311,229.365,115.208,229.7Zm-1.247,3.232a6.619,6.619,0,0,1-4.442,1.21h0c-2.451-.188-5.06-1.973-5.314-4.563-.054-.551.061-1.1,0-1.652a2.505,2.505,0,0,0-.508-1.21,4.624,4.624,0,0,0-2.972-1.446,31.184,31.184,0,0,0-4.236-.284H91.938a35.769,35.769,0,0,1-8.11-.757,15.851,15.851,0,0,1-6.185-2.863,13.315,13.315,0,0,1-3.982-5.907,19.113,19.113,0,0,1,.605-14.253,24.366,24.366,0,0,1,9.114-10.4c4.236-2.742,9.823-4.5,14.749-2.512,4.46,1.816,7.65,6.052,9.326,10.446a17.158,17.158,0,0,1,1.21,7.735,13.92,13.92,0,0,1-.932,3.789c-.5,1.259-1.114,2.475-1.567,3.752-.714,2.009-.986,4.418.2,6.318a4.236,4.236,0,0,0,1.047,1.156,9.681,9.681,0,0,0,1.471.811,2.221,2.221,0,0,1,1.168,1.132,2.578,2.578,0,0,1-.042,1.64c-.333,1.138-1.077,2.082-1.483,3.189a2.867,2.867,0,0,0,2.808,4.333,5.38,5.38,0,0,0,3.026-.654,3.529,3.529,0,0,0,.708-.527A3.438,3.438,0,0,1,113.961,232.936Z" transform="translate(-42.782 -90.859)" fill="#455a64"/>
      <path id="Trazado_798305" data-name="Trazado 798305" d="M84.352,218.736c2.893.351,5.822.466,8.721.666s5.81.387,8.715.563l4.981.315a.43.43,0,0,0,.073-.853c-5.8-.345-11.6-.7-17.4-.993-1.713-.085-3.432-.188-5.15-.194-.351,0-.224.46.061.5Z" transform="translate(-47.615 -103.324)" fill="#455a64"/>
      <path id="Trazado_798306" data-name="Trazado 798306" d="M103.618,201.263a14.145,14.145,0,0,0-.648,2.221l-.557,2.136q-.551,2.173-1.12,4.339c-.738,2.857-1.465,5.713-2.2,8.576l-1.253,4.914c-.1.363.605.448.678.085q2.209-8.594,4.394-17.194c.2-.8.406-1.6.605-2.421a14.523,14.523,0,0,0,.551-2.518c0-.224-.363-.369-.46-.145Z" transform="translate(-53.046 -96.575)" fill="#455a64"/>
      <path id="Trazado_798307" data-name="Trazado 798307" d="M354.2,193.806a5.719,5.719,0,0,0-1.513,1.271c-.49.49-.968.987-1.446,1.489-.962,1.017-1.9,2.058-2.8,3.135a69.726,69.726,0,0,0-4.9,6.615c-.43.648-.841,1.307-1.247,1.973a9.78,9.78,0,0,0-1.21,2.179c-.145.478.484.66.775.369A8.835,8.835,0,0,0,343,209.021c.363-.605.738-1.21,1.12-1.816.726-1.12,1.477-2.209,2.257-3.286a74.207,74.207,0,0,1,5.035-6.143c.508-.551,1.017-1.1,1.543-1.628a11.924,11.924,0,0,0,1.719-1.864c.188-.3-.194-.654-.5-.514Z" transform="translate(-149.071 -93.651)" fill="#455a64"/>
      <path id="Trazado_798308" data-name="Trazado 798308" d="M338.673,227.319a.781.781,0,0,0-1.168.43,1.12,1.12,0,0,0,.454,1.144,1.174,1.174,0,0,0,1.3.091.962.962,0,0,0,.466-1.059.92.92,0,0,0-.418-.514.847.847,0,0,0-.369-.109.606.606,0,0,0-.339,0c-.091.048-.169.091-.194.2a.248.248,0,0,0,.224.272h-.036l.139.048h.127l.085.048h.036l.054.048h0l.048.079h0a.086.086,0,0,0,0,.036v.042h0a.393.393,0,0,1,0,.085.078.078,0,0,1,0,.036h0v.079h0l-.054.073-.03.036h0l-.073.061h-.036a.3.3,0,0,0-.079.03c0-.03.073,0,0,0h-.133a.423.423,0,0,0-.085,0h-.042c-.073,0,.073.036,0,0l-.079-.042h-.036l-.073-.061h-.03a1.291,1.291,0,0,1-.1-.151h0a.214.214,0,0,0,0-.042v-.115h0v-.151a.149.149,0,0,0,0-.042h0v-.03c.03-.042-.036,0,0,0h.042a.387.387,0,0,0,.484-.054.278.278,0,0,0-.085-.412Z" transform="translate(-147.656 -106.86)" fill="#455a64"/>
      <path id="Trazado_798309" data-name="Trazado 798309" d="M52.89,144.593a6.966,6.966,0,0,0,.938,1.991q.508.908,1.035,1.816c.7,1.174,1.428,2.33,2.2,3.462a71.153,71.153,0,0,0,4.908,6.421c.49.605,1,1.144,1.507,1.7.291.315.605.605.872.932a3.631,3.631,0,0,0,.944.859.478.478,0,0,0,.605-.654,3.892,3.892,0,0,0-.666-.781c-.248-.254-.49-.514-.732-.775-.454-.49-.9-.986-1.338-1.489-.9-1.023-1.761-2.076-2.59-3.147a72.16,72.16,0,0,1-4.588-6.7c-.4-.666-.793-1.331-1.174-2.009-.182-.327-.369-.654-.545-.986a3.3,3.3,0,0,0-.654-.986c-.236-.2-.769,0-.708.345Z" transform="translate(-35.303 -74.082)" fill="#455a64"/>
      <path id="Trazado_798310" data-name="Trazado 798310" d="M78.47,176.046a.642.642,0,0,0-.254.605.744.744,0,0,0,.363.527,1.21,1.21,0,0,0,1.277-.067,1.065,1.065,0,0,0,.508-.944,1.041,1.041,0,0,0-.726-.914.932.932,0,0,0-.708.067.775.775,0,0,0-.46.654.284.284,0,0,0,.176.236h.036L78.506,176a.672.672,0,0,0,.194.3c.048.042.157.073.212,0a1.211,1.211,0,0,0,.206-.315.479.479,0,0,1,.085-.1h0l.036-.03h0l.073-.036h.133c.042,0-.061-.036,0,0l.073.042h0s.048.067.067.073-.036-.048,0,0a.128.128,0,0,0,0,.036.667.667,0,0,1,.042.079c.012.03,0-.061,0,0v.139h0v.151h0a.3.3,0,0,1,0,.1.121.121,0,0,1,0,.048h0v.042a.461.461,0,0,1-.048.067h0l-.048.042-.067.054h-.036l-.085.042H79.16a.46.46,0,0,0-.091,0h0a.228.228,0,0,1-.061,0h-.042c-.061-.03.048.048,0,0v-.03c-.048-.042,0,.054,0,0v-.036h0v-.036h0a.369.369,0,0,0,0-.085c0-.036-.03.067,0,0s0,0,0-.036-.048.048,0,0,.061-.054,0,0a.278.278,0,0,0,.121-.194.254.254,0,0,0-.079-.212.387.387,0,0,0-.484-.054Z" transform="translate(-45.298 -86.337)" fill="#455a64"/>
      <path id="Trazado_798311" data-name="Trazado 798311" d="M165.087,84.293a7.214,7.214,0,0,0-8.31-.672,6.53,6.53,0,0,0-3.026,3.631c-.405,1.41-.121,3.165,1.386,3.758.339.133.678-.26.3-.448-1.283-.605-1.156-2.615-.648-3.71a6.052,6.052,0,0,1,3.159-2.911,6.282,6.282,0,0,1,4.418-.2,6.96,6.96,0,0,1,4.5,7.408,5.447,5.447,0,0,1-2.778,3.97c-1.592.92-3.407,1.41-4.9,2.518-1.283.956-2.421,2.584-2.082,4.236s2.251,3.2,3.934,2.088a1.882,1.882,0,0,0,.89-2.082,1.61,1.61,0,0,0-2.106-1.035.236.236,0,0,0-.1.345.375.375,0,0,0,.4.157,1,1,0,0,1,.884.527.974.974,0,0,1-.194,1.21,1.489,1.489,0,0,1-2.009-.079c-1.3-1.12-.793-2.929.218-4.037,1.21-1.344,3.1-1.87,4.69-2.651a7.051,7.051,0,0,0,3.631-3.462,7.656,7.656,0,0,0-2.264-8.564Z" transform="translate(-75.055 -49.78)" fill="#455a64"/>
      <path id="Trazado_798312" data-name="Trazado 798312" d="M163.755,126.281a.98.98,0,0,0-.151-.309.315.315,0,0,0-.061-.067.46.46,0,0,0-.224-.127.744.744,0,0,0-.3-.054.127.127,0,0,0-.1.073.427.427,0,0,0,.085.436h0a1.621,1.621,0,0,1,.042.163h0v.121a.079.079,0,0,0,0,.036c0,.042,0,.036,0,0a1.362,1.362,0,0,0-.048.145h0l-.048.067h0l-.054.036h-.327a.346.346,0,0,1-.079-.048h-.03l-.061-.054h0l-.042-.067V126.6h0v-.266h0v-.067l.042-.091v-.036h0l.073-.091a.931.931,0,0,1,.188-.151l.079-.042.133-.073h.036a.182.182,0,0,0,.145-.254.3.3,0,0,0-.254-.188.605.605,0,0,0-.309,0l-.176.061a1.065,1.065,0,0,0-.254.145,1.319,1.319,0,0,0-.393.5,1.071,1.071,0,0,0,.175,1.138,1.277,1.277,0,0,0,1.077.43.993.993,0,0,0,.835-.66A1.126,1.126,0,0,0,163.755,126.281Z" transform="translate(-78.208 -66.639)" fill="#455a64"/>
      <path id="Trazado_798313" data-name="Trazado 798313" d="M163.74,127.93Z" transform="translate(-79.065 -67.671)" fill="#455a64"/>
      <path id="Trazado_798314" data-name="Trazado 798314" d="M164,127.19Z" transform="translate(-79.168 -67.379)" fill="#455a64"/>
      <path id="Trazado_798315" data-name="Trazado 798315" d="M399.5,214.7a10.525,10.525,0,0,0-4.975-9.683,13.43,13.43,0,0,0-11.6-.993c-3.631,1.344-6.694,4.273-7.371,8.182a8.709,8.709,0,0,0,.829,5.641,10.585,10.585,0,0,0,4,3.9,12.152,12.152,0,0,0,5.169,1.876,3.789,3.789,0,0,0,4.061-2.372,5.459,5.459,0,0,0-1-4.63,7.371,7.371,0,0,0-4.491-2.869,7.783,7.783,0,0,0-5.4.605,7.922,7.922,0,0,0-3.226,3.758,8.546,8.546,0,0,0-.605,6.052A5.943,5.943,0,0,0,378.356,228a2.8,2.8,0,0,0,2.512-.194,1.816,1.816,0,0,0,.605-2.142c-.605-1.646-2.524-2.348-4.164-2.251a4.521,4.521,0,0,0-3.91,2.421,3.934,3.934,0,0,0,.605,4.1,3.274,3.274,0,0,0,1.9,1.108.278.278,0,1,0,.1-.539,3.078,3.078,0,0,1-2.2-2.917,3.22,3.22,0,0,1,2.021-3.165,4.1,4.1,0,0,1,4.176.442,2,2,0,0,1,.8,1.888c-.248.817-1.21.823-1.888.605a5.139,5.139,0,0,1-3.141-3.292,8.431,8.431,0,0,1,3-8.836,6.609,6.609,0,0,1,4.581-.811,6.821,6.821,0,0,1,4.182,2.227,5.223,5.223,0,0,1,1.325,3.988c-.266,1.6-1.816,2.233-3.262,2.124a11.3,11.3,0,0,1-4.709-1.767,10.016,10.016,0,0,1-3.553-3.347,7.692,7.692,0,0,1-.968-4.914,9.846,9.846,0,0,1,5.895-7.529,12.994,12.994,0,0,1,10.161-.3,10.319,10.319,0,0,1,6.3,7.426,9.032,9.032,0,0,1,.133,2.354c0,.333.605.381.605,0Z" transform="translate(-161.709 -97.365)" fill="#455a64"/>
      <path id="Trazado_798316" data-name="Trazado 798316" d="M97.315,305.691a9.078,9.078,0,0,1-14.471-9.629,12.552,12.552,0,0,1,7.789-7.971c3.51-1.283,7.868-1.059,10.894,1.374a6.476,6.476,0,0,1,2.487,5.06,4.4,4.4,0,0,1-2.711,4.194,3.631,3.631,0,0,1-4.424-1.21,4.942,4.942,0,0,1,.321-5.38,10.543,10.543,0,0,1,4.945-3.722,8.637,8.637,0,0,1,6.119-.236,6.657,6.657,0,0,1,3.879,3.668,4.061,4.061,0,0,1,.23,2.481,2.205,2.205,0,0,1-1.35,1.7c-.944.236-1.719-.605-2.118-1.356a4.969,4.969,0,0,1-.533-2.481,5.756,5.756,0,0,1,2.3-4.46,5.447,5.447,0,0,1,4.884-.569c1.676.605,3.407,2.173,3.371,4.073a2.015,2.015,0,0,1-1.743,2.094c-.436,0-.315.569.085.557a2.536,2.536,0,0,0,2.318-1.816,3.928,3.928,0,0,0-.684-3.3,6.373,6.373,0,0,0-5.029-2.651,5.961,5.961,0,0,0-5.066,2.421,6.458,6.458,0,0,0-1,5.6,3.934,3.934,0,0,0,1.816,2.421,2.276,2.276,0,0,0,2.548-.375c1.507-1.374,1.271-3.71.393-5.344a7.632,7.632,0,0,0-4.842-3.631,10.337,10.337,0,0,0-7.045,1.029,9.86,9.86,0,0,0-4.842,4.751,5.121,5.121,0,0,0,1.089,5.828,4.783,4.783,0,0,0,5.271.309,5.338,5.338,0,0,0,2.615-5.193c-.375-4.775-5.29-7.263-9.623-7.329a13.986,13.986,0,0,0-11.009,5.284,11.372,11.372,0,0,0-2.493,6.452A10,10,0,0,0,83.5,304.3a9.423,9.423,0,0,0,5.023,3.7,10.192,10.192,0,0,0,6.518-.272,8.777,8.777,0,0,0,2.711-1.628c.266-.242-.157-.605-.405-.412Z" transform="translate(-46.671 -130.115)" fill="#455a64"/>
      <path id="Trazado_798317" data-name="Trazado 798317" d="M219.306,36.386c-2.844-2.391-6.742-.533-8.7,2.07a6.137,6.137,0,0,0-1.41,4.333,4.519,4.519,0,0,0,3.226,3.5,9.956,9.956,0,0,0,1.767.448,9.847,9.847,0,0,0,2.106.23,6.815,6.815,0,0,0,3.795-1.392,7.2,7.2,0,0,0,2.772-7.263,6.084,6.084,0,0,0-2.457-3.129,11.166,11.166,0,0,0-3.758-1.695,10.839,10.839,0,0,0-8.261.89,10.325,10.325,0,0,0-3.165,2.911,15.305,15.305,0,0,0-1.882,3.873,12.51,12.51,0,0,0-.381,7.341,9.29,9.29,0,0,0,3.777,5.417,9.9,9.9,0,0,0,7.226,1.21,9.78,9.78,0,0,0,4.339-1.743,6.924,6.924,0,0,0,2.615-3.7,6,6,0,0,0-.8-4.539,9.726,9.726,0,0,0-3.795-3.214,17.049,17.049,0,0,0-10.549-1.906,13.43,13.43,0,0,0-4.739,1.495,12.255,12.255,0,0,0-3.522,3.026,11.679,11.679,0,0,0-2.475,9.617,8.842,8.842,0,0,0,5.852,6.107,14.689,14.689,0,0,0,6.276.605,16.722,16.722,0,0,0,6.4-1.816,6.85,6.85,0,0,0,3.668-4.388,4.14,4.14,0,0,0-.345-2.959,7.486,7.486,0,0,0-2.378-2.421,12.534,12.534,0,0,0-7.081-2.239,6.711,6.711,0,0,0-1.628.212,3.171,3.171,0,0,0-1.513.847,3.946,3.946,0,0,0-1.108,3.171,6.657,6.657,0,0,0,1.386,3.353,8.049,8.049,0,0,0,1.356,1.4,11.08,11.08,0,0,0,1.652,1.029,16.492,16.492,0,0,0,9.393,2.082c3.147-.3,6.476-1.67,8.152-4.485a4.945,4.945,0,0,0,.587-4.134,5.023,5.023,0,0,0-1.543-2.185,6.506,6.506,0,0,0-4.8-1.453,3.26,3.26,0,0,0-3.117,2.766,6.529,6.529,0,0,0,2.669,5.447,9.75,9.75,0,0,0,11.735-.236,7.027,7.027,0,0,0,2.457-5.949c-.436-4.842-5.774-9.49-10.7-8.231a4.067,4.067,0,0,0-1.719.872A6.252,6.252,0,0,0,219.4,43a5.054,5.054,0,0,0-.8,3.026,5.659,5.659,0,0,0,3.807,4.787,8.588,8.588,0,0,0,3.855.357,7.263,7.263,0,0,0,3.365-1.18,5.822,5.822,0,0,0,2.318-5.507c-.309-2.711-2.161-4.872-4.037-6.706a16.674,16.674,0,0,0-8.364-4.727,12.982,12.982,0,0,0-8.412,1.483,9.447,9.447,0,0,0-4.908,6.385c-.472,2.421-.23,5.344,1.755,7.057a8.164,8.164,0,0,0,3.837,1.519,11.717,11.717,0,0,0,3.589.194,6.258,6.258,0,0,0,4.842-2.857,9.015,9.015,0,0,0,.605-6.585,9.138,9.138,0,0,0-.605-2.076,10.609,10.609,0,0,0-1.059-1.713,12.316,12.316,0,0,0-2.82-2.7,17.817,17.817,0,0,0-7.6-2.863,21.322,21.322,0,0,0-4.025-.206,19.852,19.852,0,0,0-1.985.194,7.039,7.039,0,0,0-1.816.563,14.017,14.017,0,0,0-5.858,4.969,10.948,10.948,0,0,0-2.034,7.081,7.868,7.868,0,0,0,1.162,3.45,13.55,13.55,0,0,0,2.966,3.117,22.063,22.063,0,0,0,17.509,4.987,14.059,14.059,0,0,0,4.17-1.338,9.078,9.078,0,0,0,2.851-2.421,11.094,11.094,0,0,0,1.35-10.73,9.32,9.32,0,0,0-2.421-3.341A13.666,13.666,0,0,0,212.4,33.79a10.682,10.682,0,0,0-7.541,2.179,9.8,9.8,0,0,0-3.444,6.191,9.314,9.314,0,0,0,1.912,7.166,15.505,15.505,0,0,0,6.821,4.636,19.367,19.367,0,0,0,8.279.98,18.223,18.223,0,0,0,4.134-.872,17.679,17.679,0,0,0,1.816-.744,9.809,9.809,0,0,0,1.816-1.21c4.285-3.353,7.263-9.2,5.7-14.67a10.954,10.954,0,0,0-1.961-3.764,11.959,11.959,0,0,0-3.353-2.693,19.106,19.106,0,0,0-8.546-2.6,14.238,14.238,0,0,0-8.316,1.858,10.174,10.174,0,0,0-4.376,5.858,11.317,11.317,0,0,0,2.276,10.337,16.855,16.855,0,0,0,3.226,2.748,15.425,15.425,0,0,0,9.381,3.074,10.331,10.331,0,0,0,7.087-3.419,6.857,6.857,0,0,0,1.664-3.292,5.6,5.6,0,0,0,0-1.906,4.049,4.049,0,0,0-.738-1.912,19,19,0,0,0-3.68-3.1,13.212,13.212,0,0,0-4.454-1.925,6.984,6.984,0,0,0-4.533.418,6.748,6.748,0,0,0-2.615,2.584,7.664,7.664,0,0,0-.472,7.317,4.237,4.237,0,0,0,5.671,1.574,4.612,4.612,0,0,0,2.306-5.568c-.1-.291-.7-.327-.605,0A4.236,4.236,0,0,1,217.4,48.3a3.547,3.547,0,0,1-2.953-.079,3.879,3.879,0,0,1-1.937-2.766,7.759,7.759,0,0,1,1.894-6.688,5.108,5.108,0,0,1,3.329-1.676,8.9,8.9,0,0,1,4.466.841,16.341,16.341,0,0,1,3.934,2.554,10.657,10.657,0,0,1,1.622,1.58,4.146,4.146,0,0,1,.605,1.87c.3,2.475-1.313,4.672-3.25,6.022a10.289,10.289,0,0,1-3.438,1.561,10.5,10.5,0,0,1-4.006.079,14.41,14.41,0,0,1-4.684-1.664,22.126,22.126,0,0,1-3.764-2.615,10.8,10.8,0,0,1-2.778-12.486,9.683,9.683,0,0,1,5.162-4.92,15.191,15.191,0,0,1,8.11-.829,18.114,18.114,0,0,1,7.65,3.026,15.023,15.023,0,0,1,1.567,1.259,7.583,7.583,0,0,1,1.265,1.676,10.2,10.2,0,0,1,1.344,3.692c.811,5.241-2.282,10.531-6.452,13.46a14.629,14.629,0,0,1-7.323,2.263,18.556,18.556,0,0,1-7.771-1.132,14.719,14.719,0,0,1-6.27-4.424,8.806,8.806,0,0,1-1.773-6.657,9.272,9.272,0,0,1,3.256-5.828,10.022,10.022,0,0,1,7.1-2.064,12.9,12.9,0,0,1,7.686,3.153,8.691,8.691,0,0,1,2.342,3.147,10.622,10.622,0,0,1-1.108,10.1,8.715,8.715,0,0,1-2.536,2.354,12.1,12.1,0,0,1-3.764,1.356,21.1,21.1,0,0,1-16.674-4.073c-2.064-1.561-4.043-3.383-4.588-6.016a9.823,9.823,0,0,1,1.271-6.657,13.781,13.781,0,0,1,5.126-5.187,12.158,12.158,0,0,1,1.628-.775,7.087,7.087,0,0,1,1.731-.381,19.973,19.973,0,0,1,3.758-.079c4.8.351,10.289,2.463,12.443,7.087a9.569,9.569,0,0,1,.605,2.046,13.312,13.312,0,0,1,.266,1.816,8.339,8.339,0,0,1-.309,3.093,5.392,5.392,0,0,1-3.534,3.547,11.184,11.184,0,0,1-6.657-.351,4.448,4.448,0,0,1-2.766-2.336,7.263,7.263,0,0,1-.605-3.51,8.9,8.9,0,0,1,.853-3.631,9.139,9.139,0,0,1,2.481-3.044,12.8,12.8,0,0,1,7.384-2.6,13.144,13.144,0,0,1,8.382,3.165,22.617,22.617,0,0,1,3.268,3.189,10.228,10.228,0,0,1,1.931,3.068,5.973,5.973,0,0,1-.605,5.671c-1.41,1.846-3.916,2.421-6.137,2.215a5.385,5.385,0,0,1-4.787-3.528,5.11,5.11,0,0,1,2.112-5.532,3.982,3.982,0,0,1,1.676-.605,6.113,6.113,0,0,1,1.695,0,7.934,7.934,0,0,1,3.244,1.21,9.441,9.441,0,0,1,4.2,5.659,6.6,6.6,0,0,1-1.549,5.967,8.249,8.249,0,0,1-5.108,2.475,9.012,9.012,0,0,1-5.665-1.1,6.446,6.446,0,0,1-3.189-4.787,2.705,2.705,0,0,1,2.227-2.966,5.671,5.671,0,0,1,4.37.932,4.5,4.5,0,0,1,1.555,1.816A4.315,4.315,0,0,1,224.8,54c-1.38,2.82-4.612,4.236-7.583,4.624a15.451,15.451,0,0,1-8.945-1.719,9.235,9.235,0,0,1-2.972-2.13,6.385,6.385,0,0,1-1.513-3.165,3.571,3.571,0,0,1,.98-3.1,2.705,2.705,0,0,1,1.4-.775,6.283,6.283,0,0,1,1.507-.157,11.892,11.892,0,0,1,6.567,2.173,6.609,6.609,0,0,1,2.142,2.263,3.873,3.873,0,0,1,.163,2.772,6.671,6.671,0,0,1-3.631,3.97,16.438,16.438,0,0,1-5.955,1.628,14.065,14.065,0,0,1-5.725-.46,8.255,8.255,0,0,1-5.628-5.7,11.081,11.081,0,0,1,2.294-9.151,11.875,11.875,0,0,1,3.292-2.947,12.546,12.546,0,0,1,4.473-1.507,16.341,16.341,0,0,1,10,1.592,9.5,9.5,0,0,1,3.849,3.081,5.526,5.526,0,0,1,.763,4.37,6.657,6.657,0,0,1-2.669,3.534,9.774,9.774,0,0,1-4.14,1.525,9.024,9.024,0,0,1-6.621-1.283,8.782,8.782,0,0,1-3.4-5.175,12.219,12.219,0,0,1,.448-6.905,15.482,15.482,0,0,1,1.731-3.631,10.01,10.01,0,0,1,2.941-2.808,10.131,10.131,0,0,1,7.771-1,10.464,10.464,0,0,1,3.631,1.567,5.441,5.441,0,0,1,2.33,2.99,6.8,6.8,0,0,1-2.851,6.827,6.234,6.234,0,0,1-3.631,1.15,10.658,10.658,0,0,1-1.955-.291,7.771,7.771,0,0,1-1.567-.46,3.735,3.735,0,0,1-2.548-3.268,6.173,6.173,0,0,1,1.6-3.958c1.816-2.2,5.2-3.843,7.722-1.755.26.212.5-.127.242-.339Z" transform="translate(-90.626 -28.363)" fill="#37474f"/>
      <path id="Trazado_798318" data-name="Trazado 798318" d="M23.83,238.7c0,.127,8.975,8.812,8.975,8.812l7.426-3.97,10.936,15.6s-5.078-13.127-6.821-21.067L38.2,239.549,33.447,228.71Z" transform="translate(-23.83 -107.458)" fill="#ff8182"/>
      <path id="Trazado_798319" data-name="Trazado 798319" d="M23.83,238.7c0,.127,8.975,8.812,8.975,8.812l7.426-3.97,10.936,15.6s-5.078-13.127-6.821-21.067L38.2,239.549,33.447,228.71Z" transform="translate(-23.83 -107.458)" fill="#fff" opacity="0.5"/>
      <path id="Trazado_798320" data-name="Trazado 798320" d="M25.647,239.894c1.743,1.949,3.559,3.795,5.374,5.683l1.428,1.459a1.313,1.313,0,0,0,1.162.533,2.185,2.185,0,0,0,.757-.339l.92-.52,1.707-.968,3.867-2.2-.539-.115q3.91,6.391,8.37,12.443c.847,1.15,1.713,2.282,2.59,3.407.212.266.829.1.672-.284a145.152,145.152,0,0,1-5.628-16.625q-.654-2.421-1.21-4.842c-.042-.194-.321-.248-.478-.2l-4.382,1.368c-.327.1-.654.224-.986.315-.212.054-.3.085-.442-.115a3.027,3.027,0,0,1-.212-.448c-.309-.654-.605-1.319-.908-1.979-1.21-2.711-2.282-5.447-3.45-8.195a.418.418,0,0,0-.666-.067q-2.239,2.233-4.43,4.521a59.339,59.339,0,0,0-4.194,4.594c-.194.26.248.545.46.345,1.495-1.471,2.887-3.026,4.333-4.557s2.911-3.026,4.394-4.479l-.66-.067c.986,2.312,1.931,4.642,2.929,6.948.5,1.156,1.029,2.294,1.561,3.438.194.424.46.793.974.787a6.505,6.505,0,0,0,1.707-.472l4.17-1.3-.478-.2a144.969,144.969,0,0,0,5.054,16.8c.575,1.561,1.18,3.1,1.816,4.642l.672-.278c-3.074-3.922-5.949-7.983-8.667-12.153-.775-1.21-1.531-2.421-2.27-3.595a.393.393,0,0,0-.539-.115L36.4,245.365l-1.931,1.12c-.278.151-.811.605-1.15.514s-.551-.49-.738-.678c-2.209-2.233-4.37-4.545-6.7-6.657-.194-.182-.418,0-.236.224Z" transform="translate(-24.261 -107.203)" fill="#455a64"/>
      <path id="Trazado_798321" data-name="Trazado 798321" d="M352.547,99.185a2.422,2.422,0,0,1,3.916-2.851c.545-1.61,1.21-3.311,2.627-4.236s3.752-.642,4.291.968c.327-2.953.678-6,2.124-8.594s4.267-4.666,7.22-4.291c2.681.351,4.793,2.633,5.743,5.169a22.455,22.455,0,0,1,.932,8.019,7.769,7.769,0,0,1,8.509-2.421,9.574,9.574,0,0,1,5.961,6.821,12.607,12.607,0,0,1-1.507,9.108,346.682,346.682,0,0,0-38.376-5.992Z" transform="translate(-153.421 -48.803)" fill="#ff8182"/>
      <g id="Grupo_1064743" data-name="Grupo 1064743" transform="translate(198.663 31.334)" opacity="0.5">
        <path id="Trazado_798322" data-name="Trazado 798322" d="M352.547,99.185a2.422,2.422,0,0,1,3.916-2.851c.545-1.61,1.21-3.311,2.627-4.236s3.752-.642,4.291.968c.327-2.953.678-6,2.124-8.594s4.267-4.666,7.22-4.291c2.681.351,4.793,2.633,5.743,5.169a22.455,22.455,0,0,1,.932,8.019,7.769,7.769,0,0,1,8.509-2.421,9.574,9.574,0,0,1,5.961,6.821,12.607,12.607,0,0,1-1.507,9.108,346.682,346.682,0,0,0-38.376-5.992Z" transform="translate(-352.083 -80.137)" fill="#fff"/>
      </g>
      <path id="Trazado_798323" data-name="Trazado 798323" d="M353.89,100.87c5.047.605,10.095,1.21,15.13,1.961s9.883,1.543,14.8,2.475q4.194.8,8.364,1.689a.478.478,0,0,0,.472-.224c2.046-3.631,2.59-8.158.569-11.886a9.046,9.046,0,0,0-9.078-4.914,7.868,7.868,0,0,0-5.15,2.893l.75.188a24.172,24.172,0,0,0-.841-7.771,9.03,9.03,0,0,0-3.746-4.866,6.331,6.331,0,0,0-5.919-.309,9.411,9.411,0,0,0-4.527,4.594,24.406,24.406,0,0,0-1.816,8.146l.823-.169c-.605-1.676-2.729-2.082-4.236-1.483-1.967.775-2.838,2.966-3.468,4.811l.684-.163a2.966,2.966,0,0,0-3.77-.23,2.857,2.857,0,0,0-.8,3.462c.188.375.914.157.714-.242a2.227,2.227,0,0,1,.539-2.663,2.088,2.088,0,0,1,2.717.194.436.436,0,0,0,.684-.163c.533-1.543,1.21-3.486,2.8-4.236,1.126-.539,2.875-.321,3.341.986.157.448.775.236.817-.163.472-4.236,1.12-9.193,5.114-11.6a5.592,5.592,0,0,1,5.507-.309,8,8,0,0,1,3.631,4.3c.968,2.548.938,5.314.926,8,0,.369.557.442.75.188a7.342,7.342,0,0,1,8.866-1.943,9.615,9.615,0,0,1,5.156,8.642,12.806,12.806,0,0,1-1.8,6.379l.472-.224q-7.39-1.58-14.846-2.832t-15.094-2.173c-2.832-.339-5.683-.605-8.527-.853-.387,0-.363.454,0,.5Z" transform="translate(-153.329 -48.557)" fill="#455a64"/>
      <path id="Trazado_798324" data-name="Trazado 798324" d="M366.695,121.263l-.605,1.023c-.163.266-.321.539-.49.8a10.965,10.965,0,0,0-.962,1.543.291.291,0,0,0,0,.327l.036.048a.254.254,0,0,0,.284.109c.46-.145.781-.69,1.035-1.071.163-.254.327-.514.484-.775s.363-.605.533-.944a4.908,4.908,0,0,0,.412-.908c.048-.176-.133-.333-.284-.363a.412.412,0,0,0-.254,0c-.036,0-.242.163-.206.188Z" transform="translate(-158.357 -64.95)" fill="#455a64"/>
      <path id="Trazado_798325" data-name="Trazado 798325" d="M373.9,131.454s-.569.956-.605,1.023c-.157.272-.321.539-.49.8a11.708,11.708,0,0,0-.962,1.543.315.315,0,0,0,0,.333l.036.042a.248.248,0,0,0,.284.109c.46-.139.781-.69,1.035-1.071.169-.254.327-.514.484-.775s.363-.605.533-.938a4.962,4.962,0,0,0,.411-.914c.055-.176-.127-.333-.284-.363a.46.46,0,0,0-.254,0c-.03,0-.242.163-.206.188Z" transform="translate(-161.201 -68.974)" fill="#455a64"/>
      <path id="Trazado_798326" data-name="Trazado 798326" d="M386.845,125.413s-.569.956-.605,1.023c-.163.272-.321.539-.49.8a11.713,11.713,0,0,0-.962,1.543.291.291,0,0,0,0,.327l.036.048a.254.254,0,0,0,.284.109c.46-.139.781-.69,1.035-1.071.163-.254.327-.514.484-.775s.363-.605.527-.938a5.179,5.179,0,0,0,.418-.914c.048-.176-.133-.333-.284-.363a.412.412,0,0,0-.254,0c-.036,0-.242.163-.212.188Z" transform="translate(-166.312 -66.588)" fill="#455a64"/>
      <path id="Trazado_798327" data-name="Trazado 798327" d="M407.252,126.922l-.605,1.023-.49.8a11.756,11.756,0,0,0-.968,1.543.3.3,0,0,0,0,.327l.036.048a.248.248,0,0,0,.278.109c.466-.139.787-.69,1.035-1.071.169-.254.333-.514.49-.775s.357-.605.527-.938a5.182,5.182,0,0,0,.418-.914c.048-.176-.133-.333-.284-.363a.406.406,0,0,0-.254,0c-.036,0-.248.163-.212.188Z" transform="translate(-174.367 -67.184)" fill="#455a64"/>
      <path id="Trazado_798328" data-name="Trazado 798328" d="M394.623,134.168l-.605,1.017c-.163.272-.327.539-.5.8a12.384,12.384,0,0,0-.962,1.543.3.3,0,0,0,0,.327l.042.048a.248.248,0,0,0,.278.109c.466-.139.787-.69,1.035-1.071.169-.254.333-.514.49-.775s.357-.605.527-.938a4.751,4.751,0,0,0,.412-.914c.054-.175-.127-.333-.278-.363a.406.406,0,0,0-.254,0c-.036,0-.248.163-.212.188Z" transform="translate(-169.381 -70.042)" fill="#455a64"/>
      <path id="Trazado_798329" data-name="Trazado 798329" d="M113.99,77.628A345.069,345.069,0,0,0,80.237,96.85a13.732,13.732,0,0,1-4.721-7.729,6.439,6.439,0,0,1,.605-4.648,5.362,5.362,0,0,1,3.746-2.421,5.035,5.035,0,0,1,2.288.085c.369.115,1.985.714,2.07,1.041a24.668,24.668,0,0,1-.793-6.821,7.868,7.868,0,0,1,.545-3.026c1.1-2.421,4.2-3.51,6.833-2.978s4.842,2.312,6.7,4.236a5.035,5.035,0,0,1,1-2.3,3.42,3.42,0,0,1,3.764-.533,10.071,10.071,0,0,1,3.147,2.493,3.528,3.528,0,0,1,2.487-3.413,4.485,4.485,0,0,1,4.236,1.035,6.246,6.246,0,0,1,1.925,4.013Z" transform="translate(-44.161 -44.888)" fill="#ff8182"/>
      <g id="Grupo_1064744" data-name="Grupo 1064744" transform="translate(31.167 25.333)" opacity="0.8">
        <path id="Trazado_798330" data-name="Trazado 798330" d="M113.99,77.628A345.069,345.069,0,0,0,80.237,96.85a13.732,13.732,0,0,1-4.721-7.729,6.439,6.439,0,0,1,.605-4.648,5.362,5.362,0,0,1,3.746-2.421,5.035,5.035,0,0,1,2.288.085c.369.115,1.985.714,2.07,1.041a24.668,24.668,0,0,1-.793-6.821,7.868,7.868,0,0,1,.545-3.026c1.1-2.421,4.2-3.51,6.833-2.978s4.842,2.312,6.7,4.236a5.035,5.035,0,0,1,1-2.3,3.42,3.42,0,0,1,3.764-.533,10.071,10.071,0,0,1,3.147,2.493,3.528,3.528,0,0,1,2.487-3.413,4.485,4.485,0,0,1,4.236,1.035,6.246,6.246,0,0,1,1.925,4.013Z" transform="translate(-75.327 -70.221)" fill="#fff"/>
      </g>
      <path id="Trazado_798331" data-name="Trazado 798331" d="M113.608,77.141c-4.575,2.155-9.078,4.533-13.484,6.972s-8.812,4.993-13.133,7.638q-3.631,2.221-7.22,4.539h.514A13.315,13.315,0,0,1,75.637,88.6a5.737,5.737,0,0,1,.859-4.545,5.169,5.169,0,0,1,3.777-1.888,4.557,4.557,0,0,1,2.009.333,6.838,6.838,0,0,1,.853.369,2.921,2.921,0,0,1,.3.163.9.9,0,0,1,.121.091s.048.073,0,0c.188.484.932.182.811-.3a24.457,24.457,0,0,1-.763-5.719c-.036-1.658,0-3.528,1.12-4.842a5.538,5.538,0,0,1,3.462-1.816,7.493,7.493,0,0,1,4.351.793,16.341,16.341,0,0,1,4.418,3.432c.206.218.605.036.69-.224a4.237,4.237,0,0,1,1.059-2.276,2.645,2.645,0,0,1,2-.551c1.731.169,3.026,1.519,4.158,2.7a.442.442,0,0,0,.708-.309,3.026,3.026,0,0,1,1.21-2.53,3.4,3.4,0,0,1,2.911-.557,5.321,5.321,0,0,1,3.728,4.781c.048.43.8.363.757-.067a6.27,6.27,0,0,0-2.99-4.932,4.46,4.46,0,0,0-5.3.563,3.752,3.752,0,0,0-1.15,2.79l.708-.309c-1.362-1.422-2.881-2.881-4.969-2.911a3.5,3.5,0,0,0-2.366.817,5.005,5.005,0,0,0-1.253,2.627l.69-.224c-2.354-2.421-5.447-4.781-9.036-4.436a6.772,6.772,0,0,0-4.049,1.761,6.47,6.47,0,0,0-1.695,4.7,25.346,25.346,0,0,0,.8,7.008l.811-.3c-.182-.46-.853-.69-1.265-.865a6.79,6.79,0,0,0-1.676-.545,6.318,6.318,0,0,0-4.842,1.386c-2.881,2.421-2.064,6.657-.539,9.623a14.422,14.422,0,0,0,3.631,4.5.466.466,0,0,0,.514,0q6.3-4.073,12.776-7.868t13.06-7.317c2.615-1.4,5.247-2.772,7.868-4.134.29-.145-.1-.557-.345-.442Z" transform="translate(-43.906 -44.637)" fill="#455a64"/>
      <path id="Trazado_798332" data-name="Trazado 798332" d="M96.72,110.493a7.462,7.462,0,0,0,.121,1.21c.042.375.1.757.127,1.132s.036.884.091,1.313a1.453,1.453,0,0,0,.121.508.5.5,0,0,0,.418.236c.176,0,.26-.254.3-.405a3.19,3.19,0,0,0,.042-.8c0-.381-.061-.769-.1-1.15s-.073-.69-.133-1.029a3.922,3.922,0,0,0-.309-1.21c-.157-.3-.672-.127-.684.182Z" transform="translate(-52.606 -60.65)" fill="#455a64"/>
      <path id="Trazado_798333" data-name="Trazado 798333" d="M108.64,114.193a7.462,7.462,0,0,0,.121,1.21c.048.375.1.75.127,1.132s.036.878.091,1.313a1.452,1.452,0,0,0,.121.508.508.508,0,0,0,.418.236c.176,0,.26-.254.3-.405a3.208,3.208,0,0,0,.042-.8c0-.381-.061-.769-.1-1.15s-.073-.69-.133-1.029a3.879,3.879,0,0,0-.309-1.21c-.157-.3-.672-.127-.684.182Z" transform="translate(-57.312 -62.11)" fill="#455a64"/>
      <path id="Trazado_798334" data-name="Trazado 798334" d="M115.23,101.511a8.213,8.213,0,0,0,.127,1.21c.042.381.091.757.127,1.138a11.418,11.418,0,0,0,.091,1.313,1.416,1.416,0,0,0,.115.5.514.514,0,0,0,.418.242c.182,0,.266-.26.3-.405a2.73,2.73,0,0,0,.042-.8c0-.387-.054-.775-.091-1.156s-.079-.684-.133-1.029a3.843,3.843,0,0,0-.309-1.21c-.163-.3-.678-.127-.69.182Z" transform="translate(-59.914 -57.103)" fill="#455a64"/>
      <path id="Trazado_798335" data-name="Trazado 798335" d="M132.34,90.281a7.456,7.456,0,0,0,.121,1.21c.048.375.1.757.127,1.132s.036.884.091,1.319a1.453,1.453,0,0,0,.121.5.514.514,0,0,0,.418.242c.176-.036.266-.26.3-.412a2.929,2.929,0,0,0,.042-.8,10.521,10.521,0,0,0-.1-1.15c-.042-.381-.073-.69-.127-1.029a4.024,4.024,0,0,0-.315-1.21c-.157-.3-.672-.127-.684.182Z" transform="translate(-66.669 -52.669)" fill="#455a64"/>
      <path id="Trazado_798336" data-name="Trazado 798336" d="M126.71,103.771a8.213,8.213,0,0,0,.127,1.21c.042.381.091.757.127,1.138s.03.878.091,1.313a1.416,1.416,0,0,0,.115.5.514.514,0,0,0,.418.242c.182,0,.266-.26.3-.405a2.729,2.729,0,0,0,.042-.8c0-.387-.054-.775-.091-1.156s-.079-.684-.133-1.029a3.843,3.843,0,0,0-.309-1.21c-.163-.3-.678-.127-.69.182Z" transform="translate(-64.446 -57.995)" fill="#455a64"/>
      <path id="Trazado_798337" data-name="Trazado 798337" d="M386.5,179.836c.52-.448.938-1,1.453-1.465a10.683,10.683,0,0,1,1.767-1.265,9.792,9.792,0,0,1,3.922-1.21,9.5,9.5,0,0,1,7.341,2.372,6.083,6.083,0,0,1,1.047,1.344,8.164,8.164,0,0,1,.605,1.259,3.136,3.136,0,0,0,.605,1.21.266.266,0,0,0,.442-.067,3.748,3.748,0,0,0-.484-2.554,7.028,7.028,0,0,0-1.053-1.6,8.993,8.993,0,0,0-3.292-2.245,10.615,10.615,0,0,0-11.311,1.979,5.447,5.447,0,0,0-1.567,1.991c-.1.309.333.472.539.3Z" transform="translate(-166.793 -86.169)" fill="#455a64"/>
      <path id="Trazado_798338" data-name="Trazado 798338" d="M395.274,162.7a4.478,4.478,0,0,0-.03,1.174l.036.841c0,.569.03,1.138.085,1.707a.442.442,0,0,0,.878-.036c0-.605-.054-1.21-.085-1.816l-.036-.872a3.11,3.11,0,0,0-.157-1.035.381.381,0,0,0-.69.061Z" transform="translate(-170.45 -81.308)" fill="#455a64"/>
      <path id="Trazado_798339" data-name="Trazado 798339" d="M408.108,164.162a5.959,5.959,0,0,0-.182.98c-.042.29-.079.605-.121.884a14.761,14.761,0,0,0-.145,1.707c0,.539.865.448.884-.061s.079-1.15.145-1.725c.036-.3.079-.605.115-.89a2.79,2.79,0,0,0,.048-.9c0-.157-.236-.242-.375-.242A.387.387,0,0,0,408.108,164.162Z" transform="translate(-175.362 -81.879)" fill="#455a64"/>
      <path id="Trazado_798340" data-name="Trazado 798340" d="M408.181,252.79l-7.02,11.844-7.378-3.595-5.441,9.338-3.093-1.695,1.519,7.789,7.462-2.336-2.633-1.695,3.758-5.386,7.813,3.843,10.337-13.284Z" transform="translate(-166.515 -116.964)" fill="#ff8182"/>
      <path id="Trazado_798341" data-name="Trazado 798341" d="M408.181,252.79l-7.02,11.844-7.378-3.595-5.441,9.338-3.093-1.695,1.519,7.789,7.462-2.336-2.633-1.695,3.758-5.386,7.813,3.843,10.337-13.284Z" transform="translate(-166.515 -116.964)" fill="#fff" opacity="0.8"/>
      <path id="Trazado_798342" data-name="Trazado 798342" d="M386.577,276.567a.29.29,0,0,1-.157-.042.309.309,0,0,1-.145-.2l-1.519-7.789a.291.291,0,0,1,.115-.3.3.3,0,0,1,.327,0l3.026,1.658a.3.3,0,0,1-.291.527l-2.463-1.368,1.338,6.827,6.518-2.046-2.088-1.344a.3.3,0,0,1-.133-.194.284.284,0,0,1,.048-.23l3.758-5.392a.3.3,0,0,1,.381-.1l7.589,3.734L412.9,257.442l-4.842-4.382-6.833,11.5a.3.3,0,0,1-.393.121l-7.129-3.474-4.406,7.571a.309.309,0,0,1-.418.109.3.3,0,0,1-.109-.412l4.551-7.813a.3.3,0,0,1,.393-.121l7.135,3.474,6.875-11.6a.284.284,0,0,1,.212-.145.3.3,0,0,1,.248.073l5.326,4.842a.3.3,0,0,1,.036.406l-10.337,13.278a.3.3,0,0,1-.369.085l-7.583-3.716-3.425,4.914,2.366,1.525a.291.291,0,0,1,.133.291.284.284,0,0,1-.206.248l-7.462,2.342Z" transform="translate(-166.316 -116.757)" fill="#455a64"/>
      <path id="Trazado_798343" data-name="Trazado 798343" d="M321.236,76.253a5.877,5.877,0,0,0-3.093-2.905,14.525,14.525,0,0,0-4.612-1.21,12.34,12.34,0,0,0-8.836,2.3,9.145,9.145,0,0,0-3.716,6.93,7.759,7.759,0,0,0,3.45,6.694,16.824,16.824,0,0,0,4.715,1.634,25.958,25.958,0,0,0,5.447.878c2.5.079,6.427-.605,6.754-3.7a5.111,5.111,0,0,0-1.743-3.892,12.256,12.256,0,0,0-3.795-2.566,12.945,12.945,0,0,0-8.957-.605,12.552,12.552,0,0,0-7.123,5.356,7.971,7.971,0,0,0-1.21,4.291A8.915,8.915,0,0,0,299.7,93.5a12.663,12.663,0,0,0,7.1,5.447,24.015,24.015,0,0,0,4.66,1.035,16,16,0,0,0,4.842,0c1.325-.23,3.147-.732,3.861-1.991s-.23-2.729-1.21-3.571a9.98,9.98,0,0,0-4.085-1.864,12.171,12.171,0,0,0-4.745-.182,10.149,10.149,0,0,0-6.905,4.236,6.554,6.554,0,0,0,7.68,9.859,4.975,4.975,0,0,0,1.816-1.035,1.894,1.894,0,0,0,.672-1.64c-.145-.666-.8-.9-1.392-1.053a16.3,16.3,0,0,0-2.469-.472,15.584,15.584,0,0,0-5.108.254,6.494,6.494,0,0,0-3.383,1.731,3.419,3.419,0,0,0,2.009,5.719,3.541,3.541,0,0,0,3.238-1.277.236.236,0,0,0,0-.3,4.593,4.593,0,0,0-2.953-1.307,9.617,9.617,0,0,0-3.117,0,2.035,2.035,0,0,0-1.816,1.816c-.042,1.259,1.017,2.2,1.816,2.984.1.085.145-.1.079-.163-.72-.69-1.6-1.816-1.368-2.887a1.953,1.953,0,0,1,1.864-1.368,10.18,10.18,0,0,1,2.608.061,3.813,3.813,0,0,1,2.421,1.1v-.3a3.026,3.026,0,0,1-3.123,1.041,2.911,2.911,0,0,1-1.979-2.627c-.163-2.8,3.177-3.764,5.362-4.031a15.173,15.173,0,0,1,4.793.194c.345.067.684.145,1.023.242s.872.188.968.605c.127.569-.454,1.18-.872,1.477a5.931,5.931,0,0,1-7.263-.448,6.052,6.052,0,0,1-1.495-6.736,8.8,8.8,0,0,1,5.326-4.66,11.541,11.541,0,0,1,8.3.466c1.168.527,2.518,1.35,2.869,2.681.412,1.537-1.277,2.282-2.469,2.645a11.953,11.953,0,0,1-4.345.363,25.1,25.1,0,0,1-4.236-.684,13.556,13.556,0,0,1-7.16-4.007,8.208,8.208,0,0,1-2.009-7.263,10.442,10.442,0,0,1,5.175-6.113,12.1,12.1,0,0,1,7.9-1.356,11.53,11.53,0,0,1,7.057,3.97,3.492,3.492,0,0,1,.69,3.734,4.3,4.3,0,0,1-2.832,1.888c-3.062.775-6.361-.121-9.332-.884a10,10,0,0,1-3.928-1.676,6.766,6.766,0,0,1-2-2.832,7.753,7.753,0,0,1,.69-6.881c3.117-5.005,10.016-5.731,15.046-3.438a5.447,5.447,0,0,1,2.766,2.421c.127.266.642.212.5-.121Z" transform="translate(-132.223 -45.607)" fill="#455a64"/>
    </g>
  </g>
</svg>
