<svg xmlns="http://www.w3.org/2000/svg" width="101.919" height="56.59" viewBox="0 0 101.919 56.59">
  <g id="Grupo_1064956" data-name="Grupo 1064956" transform="translate(-1311.038 -200.852)">
    <path id="Trazado_796855" data-name="Trazado 796855" d="M136.483,1.419a6.807,6.807,0,0,0-1.769,8.338,6.958,6.958,0,0,0,3.88,3.472,5.779,5.779,0,0,1,2.963,2.387l.006,0-10.914,6.763,6.758,10.906a5.756,5.756,0,0,0,2.387-2.963,6.966,6.966,0,0,1,3.472-3.877,6.68,6.68,0,0,1,6.459,11.691,6.926,6.926,0,0,1-4.5,1,5.676,5.676,0,0,0-3.679.822L148.3,50.864l28.491-17.654L170.034,22.3a5.679,5.679,0,0,1,3.675-.823,6.93,6.93,0,0,0,4.507-1,6.757,6.757,0,0,0,1.878-9.926,6.806,6.806,0,0,0-8.338-1.769,6.955,6.955,0,0,0-3.471,3.88,5.778,5.778,0,0,1-2.386,2.962L159.14,4.721l-10.915,6.763.006-.006a5.68,5.68,0,0,1-.823-3.676,6.93,6.93,0,0,0-1-4.506,6.758,6.758,0,0,0-9.926-1.878" transform="translate(1231.444 200.852)" fill="#006a76"/>
    <path id="Trazado_796872" data-name="Trazado 796872" d="M136.483,1.419a6.807,6.807,0,0,0-1.769,8.338,6.958,6.958,0,0,0,3.88,3.472,5.779,5.779,0,0,1,2.963,2.387l.006,0-10.914,6.763,6.758,10.906a5.756,5.756,0,0,0,2.387-2.963,6.966,6.966,0,0,1,3.472-3.877,6.68,6.68,0,0,1,6.459,11.691,6.926,6.926,0,0,1-4.5,1,5.676,5.676,0,0,0-3.679.822L148.3,50.864l28.491-17.654L170.034,22.3a5.679,5.679,0,0,1,3.675-.823,6.93,6.93,0,0,0,4.507-1,6.757,6.757,0,0,0,1.878-9.926,6.806,6.806,0,0,0-8.338-1.769,6.955,6.955,0,0,0-3.471,3.88,5.778,5.778,0,0,1-2.386,2.962L159.14,4.721l-10.915,6.763.006-.006a5.68,5.68,0,0,1-.823-3.676,6.93,6.93,0,0,0-1-4.506,6.758,6.758,0,0,0-9.926-1.878" transform="translate(1180.389 206.578)" fill="#c9f1f2"/>
  </g>
</svg>
