<svg xmlns="http://www.w3.org/2000/svg" xmlns:xlink="http://www.w3.org/1999/xlink" width="154.925" height="188.324" viewBox="0 0 154.925 188.324">
  <defs>
    <clipPath id="clip-path">
      <rect id="Rect치ngulo_373895" data-name="Rect치ngulo 373895" width="154.925" height="188.324" fill="none"/>
    </clipPath>
  </defs>
  <g id="Grupo_1064839" data-name="Grupo 1064839" transform="translate(0 0)">
    <g id="Grupo_1064838" data-name="Grupo 1064838" transform="translate(0 0)" clip-path="url(#clip-path)">
      <path id="Trazado_798801" data-name="Trazado 798801" d="M153.736,84.92c0,2.747-34.2,4.973-76.389,4.973S.966,87.667.966,84.92s34.2-4.973,76.38-4.973,76.389,2.229,76.389,4.973" transform="translate(1.189 98.43)" fill="#ffd5d5"/>
      <path id="Trazado_798802" data-name="Trazado 798802" d="M112.559,100.206c-30.025,34.325,34.345,48.234-6.14,65.722s-41.875,6.145-73.406-24.768C-5.375,103.523-19.231,55.068,41.065,16.518,70.137-2.07,177.072,26.46,112.559,100.206" transform="translate(0 13.547)" fill="#8edee0"/>
      <path id="Trazado_798803" data-name="Trazado 798803" d="M95.182,37.641a10.307,10.307,0,0,0,1-4.416c0-6.042-5.181-10.942-11.555-10.942a12.081,12.081,0,0,0-2.6.306,12.49,12.49,0,0,0-11.834-8.03,12.312,12.312,0,0,0-12.41,10.333c-.062,0-.112-.016-.167-.016-6.176,0-11.174,4.732-11.174,10.571a10.734,10.734,0,0,0,9.083,10.368A14.788,14.788,0,0,0,68.1,52.641a15.306,15.306,0,0,0,5.3-.973,36.774,36.774,0,0,1-8.2,9.753c7.566.718,14.338-4.389,19.05-9.338a10.585,10.585,0,0,0,2.425.3,9.865,9.865,0,0,0,10.132-9.579,9.137,9.137,0,0,0-1.627-5.167" transform="translate(57.179 17.924)" fill="#ff8182"/>
      <path id="Trazado_798804" data-name="Trazado 798804" d="M16.088,18.347a8.191,8.191,0,0,1-.794-3.51,8.952,8.952,0,0,1,9.186-8.7,9.5,9.5,0,0,1,2.066.243A9.925,9.925,0,0,1,35.952,0a9.785,9.785,0,0,1,9.862,8.213c.049,0,.087-.011.132-.011a8.648,8.648,0,0,1,8.88,8.4,8.53,8.53,0,0,1-7.216,8.242,11.756,11.756,0,0,1-9.994,5.424A12.182,12.182,0,0,1,33.4,29.5a29.266,29.266,0,0,0,6.517,7.751c-6.018.571-11.4-3.49-15.143-7.421a8.43,8.43,0,0,1-1.928.241A7.84,7.84,0,0,1,14.8,22.453a7.263,7.263,0,0,1,1.292-4.105" transform="translate(18.217 -0.001)" fill="#ff8182"/>
      <path id="Trazado_798805" data-name="Trazado 798805" d="M32.312,20.509c.283-3.273,3.693-9.375,12.182-.08,5.114,5.6,10.083,17.147,11.952,24.6C62.444,50.548,77.309,71,77.309,71c2.82,3.057,3.387,4.973,3.675,6.778.33,2.077-.979,7.118-2.488,2.51a14.227,14.227,0,0,0-4.074-6.252S53.265,60.03,45.137,50.423l.011-.009c-6.52-7.329-13.5-22.316-12.836-29.9" transform="translate(39.729 19.08)" fill="#ffae93"/>
      <path id="Trazado_798806" data-name="Trazado 798806" d="M42.752,21.339s5.473-3.637,9.422,4.1c4.219,8.269,4.706,18.5,4.706,18.5s-12.5,3.969-19.53,3.275c0,0-1.908-21.241,5.4-25.873" transform="translate(45.709 25.22)" fill="#d33764"/>
      <path id="Trazado_798807" data-name="Trazado 798807" d="M23.951,36.442S22.557,71.726,45.043,97.356c0,0-3.646,17.312,9.855,36.054,0,0,.609,2.126,4.926.821,0,0,2.9-25.389-1.165-50.3,0,0-.25-38.515-10.458-46.34,0,0-4.349.788-5.819.814-4.634.076-18.432-1.968-18.432-1.968" transform="translate(29.468 44.866)" fill="#ffae93"/>
      <path id="Trazado_798808" data-name="Trazado 798808" d="M21.623,36.194s7.512,36.571,3.124,67.993c-1.2,8.608,1.555,14.788,6.4,28.91,0,0,.732,1.466,5.241,1.439,0,0,6.312-25.038,5.417-50.655,0,0,11-34.766,3.427-45.166Z" transform="translate(26.622 44.561)" fill="#ffae93"/>
      <path id="Trazado_798809" data-name="Trazado 798809" d="M45.818,40.708s7.207,31.948,6.475,43.439c-.337,5.279-11.85,9.4-20.09,4.746l-.895-42.274Z" transform="translate(38.547 50.119)" fill="#7676dd"/>
      <path id="Trazado_798810" data-name="Trazado 798810" d="M59.96,47.726S39.93,46.831,22.9,35.008c0,0-7.361,19.347.7,43.423,1.258,3.742,1.08,11.819,1.794,15.688s20.494,7.008,21.152,1.212C47.8,84.154,48.188,68.373,47.717,64.8c-.834-6.328,2.213-11.7,12.243-17.073" transform="translate(24.406 43.101)" fill="#8888ed"/>
      <path id="Trazado_798811" data-name="Trazado 798811" d="M59.96,47.726S39.93,46.831,22.9,35.008c0,0-7.361,19.347.7,43.423,1.258,3.742,1.08,11.819,1.794,15.688s20.494,7.008,21.152,1.212C47.8,84.154,48.188,68.373,47.717,64.8c-.834-6.328,2.213-11.7,12.243-17.073" transform="translate(24.406 43.101)" fill="#8888ed"/>
      <path id="Trazado_798812" data-name="Trazado 798812" d="M25.388,92.06c-.714-3.869-.535-11.946-1.794-15.688a71.832,71.832,0,0,1-1.8-39.693l1.158.225s-2.669,14.135.288,25.835c1.629,6.45,5.6,14.228,5.759,20.409.143,5.743,2.015,9.744,10.152,13.3-5.931.009-13.329-2.048-13.762-4.391" transform="translate(24.406 45.16)" fill="#7676dd"/>
      <path id="Trazado_798813" data-name="Trazado 798813" d="M38.764,80.086s-3.512,4.143-1.419,5.464,14.487.7,16.272-.957-9.268-5.319-9.268-5.319a11.309,11.309,0,0,1-2.01.959,6.3,6.3,0,0,1-3.574-.147" transform="translate(45.16 97.601)" fill="#2892bc"/>
      <path id="Trazado_798814" data-name="Trazado 798814" d="M53.413,14.925c5.482.933,17.6,9.541,18.568,21.9.785,9.94-3.211,25.605-11.444,41.4-1.881,3.61-31.045-2.39-38.874-11.7-4.8-5.714,3.84-25.063,10.424-38.432,7.249-14.71,15.817-14.1,21.326-13.157" transform="translate(24.959 17.864)" fill="#e04469"/>
      <path id="Trazado_798815" data-name="Trazado 798815" d="M27.661,79.429s-4.574,2.936-2.954,4.81,13.653,4.9,15.839,3.838c2.2-1.066-7.312-7.8-7.312-7.8a11.344,11.344,0,0,1-2.2.337,6.307,6.307,0,0,1-3.374-1.187" transform="translate(29.991 97.792)" fill="#2892bc"/>
      <path id="Trazado_798816" data-name="Trazado 798816" d="M42.178,10.511S41.165,17.6,36.91,20.145c-2.7,1.627,3.461,15.444,4.989,12.1,1.984-4.311,1.4-7.945,6.2-11.384Z" transform="translate(44.609 12.94)" fill="#f2ab8f"/>
      <path id="Trazado_798817" data-name="Trazado 798817" d="M55.017,11.089c1.448,5.312-3.579,21.77-9.09,22.693-2.39.4-7.905-5.087-8.175-13.827-.107-3.6.763-9.657,6.323-12.9,2.517-1.479,9.257-2.166,10.942,4.03" transform="translate(46.469 7.449)" fill="#f2ab8f"/>
      <path id="Trazado_798818" data-name="Trazado 798818" d="M59.268,12.636S56.392,20.468,51.7,16.19c-5.393-4.915-6.569-3.382-6.8-1.772-.7,4.737-5.79-3.121-5.611,8.133.1,5.734-2.026-.477-2.12-1.464S35.7,11.77,42.743,7.154s13.987-1.009,16.524,5.482" transform="translate(45.556 6.244)" fill="#f3e4f3"/>
      <path id="Trazado_798819" data-name="Trazado 798819" d="M56.019,15.252c-.855,2-4.552,6.187-8.764,1.8-4.23-4.424-4.23-4.424-5.341-4.442s-1.116.393-1.285.966.64-11.533,9.041-7.443c0,0,8.655,3.722,6.35,9.117" transform="translate(49.998 6.512)" fill="#f3e4f3"/>
      <path id="Trazado_798820" data-name="Trazado 798820" d="M44.083,9.855s-2.981,6.424-2.329,8.032c.636,1.6.279,3.577,2.622,5.324s5.254,4.311,6.368,2.229c0,0-2.385,6.868-6.8,3.862,0,0-6.464-4.458-6.486-11.647,0,0,2.738,1.02,4.607-7.711.214-1.015,1.249,1.029,2.017-.089" transform="translate(46.119 11.883)" fill="#f3e4f3"/>
      <path id="Trazado_798821" data-name="Trazado 798821" d="M21.33,64.812c-4.2-4.991,9.224-48.437,20.641-48.919l-1.107,4.518S26,54.452,29.757,60.153c3,4.543,8.8,9.735,7.912,13.775C30.889,71.671,24.432,68.5,21.33,64.812" transform="translate(25.293 19.567)" fill="#d33764"/>
      <rect id="Rect치ngulo_373894" data-name="Rect치ngulo 373894" width="4.306" height="84.794" transform="translate(94.884 101.294)" fill="#006a76"/>
      <path id="Trazado_798822" data-name="Trazado 798822" d="M30.042,20.145c.982-3.135,5.629-8.356,11.91,2.555,3.784,6.571,6.14,18.921,6.359,26.6,4.661,6.685,14.75,29.869,14.75,29.869,2.1,3.594,2.231,5.587,2.126,7.41-.127,2.1-2.5,6.743-2.972,1.917a14.249,14.249,0,0,0-2.628-6.984S41.961,63.26,36.1,52.124l.013-.011c-4.786-8.561-8.358-24.7-6.071-31.969" transform="translate(36.115 19.833)" fill="#ffae93"/>
      <path id="Trazado_798823" data-name="Trazado 798823" d="M32.387,16.535s5.112-4.134,9.761,3.2c4.976,7.836,6.412,17.979,6.412,17.979S36.484,42.834,29.424,42.8c0,0-3.882-20.969,2.963-26.263" transform="translate(34.877 18.927)" fill="#d33764"/>
      <path id="Trazado_798824" data-name="Trazado 798824" d="M26.1,15.723l-.216-.587a5.249,5.249,0,0,1,.174-4,4.411,4.411,0,0,0,.542-2.8c-.259-.794-.953-1.145-2.106-.819A4.482,4.482,0,0,0,22.474,8.94L20.89,6.716A8.191,8.191,0,0,1,24.38,4.54c3-.982,4.9.232,5.52,2.117a5.946,5.946,0,0,1-.678,4.449,4.093,4.093,0,0,0-.23,3.215l.132.411Zm.435,3.324a2.14,2.14,0,1,1,2.7,1.408,2.071,2.071,0,0,1-2.7-1.408" transform="translate(25.72 5.16)" fill="#fff"/>
      <path id="Trazado_798825" data-name="Trazado 798825" d="M54,17.637l.422-.7a6.841,6.841,0,0,1,4.224-3.081c1.486-.444,2.711-.832,3.3-1.72.6-.91.393-1.905-.879-2.814a5.838,5.838,0,0,0-3.095-.91l.979-3.425A10.672,10.672,0,0,1,64.007,6.78c3.44,2.258,3.753,5.19,2.332,7.354-1.3,1.979-3.38,2.481-5.092,2.925a5.366,5.366,0,0,0-3.469,2.381l-.31.471Zm-3.037,3.15a2.791,2.791,0,1,1,4.665,3.063,2.791,2.791,0,1,1-4.665-3.063" transform="translate(62.112 6.144)" fill="#006a76"/>
      <path id="Trazado_798826" data-name="Trazado 798826" d="M20.24,31.332l-.631-.509a6.867,6.867,0,0,1-2.5-4.594c-.241-1.533-.464-2.8-1.27-3.494-.826-.714-1.836-.638-2.9.5a5.853,5.853,0,0,0-1.312,2.947L8.359,24.758A10.683,10.683,0,0,1,10.8,19.982c2.7-3.11,5.64-3.034,7.6-1.341,1.792,1.551,2.013,3.679,2.229,5.433a5.36,5.36,0,0,0,1.9,3.753l.426.373Zm2.724,3.427a2.791,2.791,0,1,1,3.652-4.221,2.791,2.791,0,1,1-3.652,4.221" transform="translate(10.292 21.518)" fill="#006a76"/>
      <path id="Trazado_798827" data-name="Trazado 798827" d="M57.543,30.391l.422-.7a6.841,6.841,0,0,1,4.224-3.081c1.486-.444,2.711-.83,3.3-1.72.6-.91.393-1.9-.879-2.814a5.838,5.838,0,0,0-3.095-.91l.979-3.425a10.672,10.672,0,0,1,5.058,1.789c3.441,2.258,3.753,5.19,2.332,7.354-1.3,1.979-3.38,2.481-5.092,2.925a5.374,5.374,0,0,0-3.47,2.381l-.31.471Zm-3.037,3.15a2.791,2.791,0,1,1,.759,3.9,2.7,2.7,0,0,1-.759-3.9" transform="translate(66.471 21.847)" fill="#fff"/>
    </g>
  </g>
</svg>
