<svg xmlns="http://www.w3.org/2000/svg" xmlns:xlink="http://www.w3.org/1999/xlink" width="51" height="51" viewBox="0 0 51 51">
  <defs>
    <clipPath id="clip-path">
      <rect id="Rectángulo_373900" data-name="Rectángulo 373900" width="51" height="51" transform="translate(13055 -5394)" fill="#006a76"/>
    </clipPath>
  </defs>
  <g id="Enmascarar_grupo_1059044" data-name="Enmascarar grupo 1059044" transform="translate(-13055 5394)" clip-path="url(#clip-path)">
    <g id="estres" transform="translate(13055.005 -5393.989)">
      <g id="Grupo_1064844" data-name="Grupo 1064844">
        <g id="Grupo_1064843" data-name="Grupo 1064843">
          <path id="Trazado_798866" data-name="Trazado 798866" d="M41.588,46.02a.752.752,0,0,0-.747.747V49.5H35.294v-2.47a.747.747,0,1,0-1.494,0V49.5H17.189v-2.47a.747.747,0,1,0-1.494,0V49.5H10.148V45.661a6.344,6.344,0,0,1,.07-.976.744.744,0,0,0-1.474-.2,9.193,9.193,0,0,0-.08,1.175v4.581a.752.752,0,0,0,.747.747h32.2a.752.752,0,0,0,.747-.747V46.767a.777.777,0,0,0-.767-.747Z" fill="#006a76"/>
          <path id="Trazado_798867" data-name="Trazado 798867" d="M22.716,27.954a.746.746,0,0,0,1.056,1.056,2.44,2.44,0,0,1,3.456,0,.745.745,0,0,0,1.056,0,.751.751,0,0,0,0-1.056A3.943,3.943,0,0,0,22.716,27.954Z" fill="#006a76"/>
          <path id="Trazado_798868" data-name="Trazado 798868" d="M30.663,20.336l-2.32,1.544a.756.756,0,0,0-.329.727.741.741,0,0,0,.518.607l1.534.468a.829.829,0,0,0,.219.03A.756.756,0,0,0,31,23.184a.747.747,0,0,0-.5-.936l-.03-.01,1.016-.677a.739.739,0,1,0-.827-1.225Z" fill="#006a76"/>
          <path id="Trazado_798869" data-name="Trazado 798869" d="M22.975,22.617a.748.748,0,0,0-.329-.727l-2.32-1.544a.747.747,0,0,0-.827,1.245l1.016.677-.03.01a.747.747,0,0,0-.5.936.756.756,0,0,0,.717.528.829.829,0,0,0,.219-.03l1.534-.468a.829.829,0,0,0,.518-.627Z" fill="#006a76"/>
        </g>
      </g>
      <path id="Trazado_798870" data-name="Trazado 798870" d="M40.074,9.371a15.3,15.3,0,0,0,2.41-2.43C43.948,5.019,43.9,3.625,43.59,2.788,43.251,1.852,42.235.637,39.367.179a24.086,24.086,0,0,0-7.389.259L31.221.08a.749.749,0,0,0-.966.289l-.279.448A12.411,12.411,0,0,0,25.495,0,12.714,12.714,0,0,0,21,.807L20.724.359A.76.76,0,0,0,19.758.07L19,.428A24.086,24.086,0,0,0,11.612.169C8.754.637,7.738,1.852,7.4,2.788,6.852,4.3,7.7,5.886,8.5,6.941a15.3,15.3,0,0,0,2.41,2.43C7.987,11.791,6.722,14.1,7.4,15.964c.518,1.424,2.012,2.121,3.446,2.45a3.628,3.628,0,0,0-.179,1.145,3.756,3.756,0,0,0,2.012,3.326V38.262a8.731,8.731,0,0,0-2.639,2.659.755.755,0,0,0,.229,1.036.743.743,0,0,0,.4.12.725.725,0,0,0,.627-.349,7.281,7.281,0,0,1,4.382-3.157l.458-.11a9.593,9.593,0,0,0,18.723,0l.458.11a7.315,7.315,0,0,1,5.208,4.95.756.756,0,0,0,.717.528.83.83,0,0,0,.219-.03.747.747,0,0,0,.5-.936,8.791,8.791,0,0,0-3.645-4.81v-6.3a.747.747,0,0,0-1.494,0V37.5a7.673,7.673,0,0,0-1.145-.368l-5.408-1.354V32.267a10.813,10.813,0,0,0,6.005-8.943h.289a2.251,2.251,0,0,0,.259-.01v5.169a.747.747,0,0,0,1.494,0v-5.6a3.756,3.756,0,0,0,2.012-3.326,3.628,3.628,0,0,0-.179-1.145c2.271-.528,3.127-1.6,3.446-2.46.677-1.852-.588-4.163-3.515-6.583ZM42.186,3.3c.438,1.215-.837,3.127-3.326,5.129-.568-.418-1.185-.827-1.842-1.245a13.132,13.132,0,0,0-1.882-2.818L36.1,3.6a.743.743,0,0,0-.139-1.255l-1.524-.727c4.73-.468,7.29.438,7.748,1.683ZM36.818,15.8a2.251,2.251,0,0,0-.259-.01H35.553a.752.752,0,0,0-.747.747v.627c-.249-.02-.508-.05-.757-.07l-.518-1.215a.748.748,0,0,0-.687-.458H29.259a47.078,47.078,0,0,0,7.509-3.7,10.263,10.263,0,0,1,.05,1.105ZM31.191,1.713l3.047,1.464L32.775,4.342A.737.737,0,0,0,32.5,5a.747.747,0,0,0,.408.588l.707.359L29.179,9.511,30.6,6.463a.743.743,0,0,0-.349-.986l-1.046-.5Zm-5.7-.219a11.341,11.341,0,0,1,3.7.617L27.506,4.9a.741.741,0,0,0,.309,1.056l1.125.538-2.47,5.288a.742.742,0,0,0,.219.906.753.753,0,0,0,.926,0l7.429-5.965a11.156,11.156,0,0,1,1.454,3.4,46.535,46.535,0,0,1-9.122,4.412c-.627.229-1.255.438-1.882.647-.627-.2-1.255-.418-1.882-.647a46.261,46.261,0,0,1-9.122-4.412,11.155,11.155,0,0,1,1.454-3.4l7.439,5.965a.74.74,0,0,0,.468.159.713.713,0,0,0,.458-.159.768.768,0,0,0,.219-.906l-2.47-5.288,1.125-.538A.741.741,0,0,0,23.493,4.9L21.8,2.111a11.238,11.238,0,0,1,3.695-.617Zm-10.058,14.3H14.43a2.251,2.251,0,0,0-.259.01V12.817c0-.368.02-.737.05-1.105a48.374,48.374,0,0,0,7.509,3.7H18.145a.748.748,0,0,0-.687.458l-.518,1.215c-.259.03-.508.05-.757.07v-.627a.75.75,0,0,0-.747-.737ZM19.8,1.713,21.78,4.969l-1.046.5a.738.738,0,0,0-.349.986L21.81,9.511,17.368,5.945l.707-.359A.748.748,0,0,0,18.484,5a.727.727,0,0,0-.279-.657L16.741,3.177ZM8.8,3.3c.458-1.245,3.018-2.151,7.758-1.683l-1.524.737a.759.759,0,0,0-.418.588.745.745,0,0,0,.279.667l.966.767A12.891,12.891,0,0,0,13.982,7.19c-.657.418-1.275.827-1.842,1.245C9.63,6.433,8.365,4.511,8.8,3.3ZM11.622,17.05c-1.544-.279-2.54-.847-2.818-1.6-.349-.956.4-2.161,1.1-3a15.463,15.463,0,0,1,2.231-2.141c.229.169.468.329.707.5a13.346,13.346,0,0,0-.159,2v3.426a3.848,3.848,0,0,0-1.056.817Zm.538,2.51a2.306,2.306,0,0,1,.189-.906,22.487,22.487,0,0,0,2.34.149V21.83H14.43a2.27,2.27,0,0,1-2.271-2.271Zm3.157,17.567a9.027,9.027,0,0,0-1.145.368V23.314a2.251,2.251,0,0,0,.259.01h.289a10.805,10.805,0,0,0,6.005,8.943v3.506Zm18.1.976a8.107,8.107,0,0,1-15.835,0l4.073-1.016a.748.748,0,0,0,.568-.727V32.874a10.822,10.822,0,0,0,6.553,0V36.36a.754.754,0,0,0,.568.727Zm-7.917-6.214a9.325,9.325,0,0,1-9.312-9.162l1.8-4.252a46.474,46.474,0,0,0,6.971-1.554h1.086a46.474,46.474,0,0,0,6.971,1.554l1.8,4.252A9.333,9.333,0,0,1,25.495,31.888ZM38.83,19.559a2.27,2.27,0,0,1-2.271,2.271H36.3v-3.3a22.1,22.1,0,0,0,2.291.01A2.311,2.311,0,0,1,38.83,19.559Zm3.356-4.113c-.279.757-1.275,1.325-2.818,1.6a4.086,4.086,0,0,0-1.056-.827V12.817a12.153,12.153,0,0,0-.159-2c.239-.169.478-.329.707-.5a14.947,14.947,0,0,1,2.231,2.141C41.787,13.3,42.534,14.49,42.186,15.446Z" fill="#006a76"/>
    </g>
  </g>
</svg>
