<svg xmlns="http://www.w3.org/2000/svg" width="195.5" height="184.464" viewBox="0 0 195.5 184.464">
  <g id="Grupo_1064835" data-name="Grupo 1064835" transform="translate(0 0)">
    <g id="Grupo_1064836" data-name="Grupo 1064836" transform="translate(0 0)">
      <path id="Trazado_798769" data-name="Trazado 798769" d="M158.784,61.844c7.518,45.084-26.1,92.029-66.675,109.556s-76.476,8.316-86.584-34.771c-9.191-39.189,33.1-62.8,73.113-124.163,18.889-28.974,71.328-3.426,80.145,49.378" transform="translate(5.259 0.429)" fill="#8edee0"/>
      <path id="Trazado_798770" data-name="Trazado 798770" d="M195.5,83.219c0,3.81-43.762,6.9-97.751,6.9S0,87.03,0,83.219s43.767-6.9,97.749-6.9,97.751,3.093,97.751,6.9" transform="translate(0 94.342)" fill="#ffd5d5"/>
      <path id="Trazado_798771" data-name="Trazado 798771" d="M28.14,72.333s-5.6.718-4.768,3.294,13.292,11.505,16.1,11.525-6.95-12.192-6.95-12.192a4.185,4.185,0,0,1-2.856-.924,10.408,10.408,0,0,1-1.53-1.7" transform="translate(28.789 89.418)" fill="#e7cde8"/>
      <path id="Trazado_798772" data-name="Trazado 798772" d="M40.226,25.217s1.5-.87-2.169-4.613c-2.728-2.8,4.124-5.886,5.271-3.92s2.091,4.285,1.384,10.383c0,0-3.45-.572-4.486-1.849" transform="translate(46.259 19.857)" fill="#f2ab8f"/>
      <path id="Trazado_798773" data-name="Trazado 798773" d="M67.61,59.857c-2.985-4.211-7.6-6.288-30.544-12.487-6.487-2.344-24.712,2.865-20.2-8.826,0,0-13.323,16.378-5.845,32.85,0,0-3.019,12.769,42.389,3.135,0,0-13.017,14.508-7.786,40.587,0,0,2.109,3.891,6.427,3.618,0,0,23.368-47.859,15.562-58.877" transform="translate(10.805 47.648)" fill="#1a6d91"/>
      <path id="Trazado_798774" data-name="Trazado 798774" d="M27.2,28.224c-1.5-4.164,2.252-11.651,9.647-6.044C45.6,28.828,58.171,45.425,61.1,51.655s-.7,9.982-3.158,9.437c-8-1.778-26.593-21.231-30.739-32.868" transform="translate(33.228 24.937)" fill="#f2ab8f"/>
      <path id="Trazado_798775" data-name="Trazado 798775" d="M27.2,28.224c-1.5-4.164,2.252-11.651,9.647-6.044C45.6,28.828,48.568,31.27,51.5,37.5s-7.773,11.552-10.228,11c-8-1.776-9.92-8.643-14.066-20.28" transform="translate(33.228 24.937)" fill="#d33764"/>
      <path id="Trazado_798776" data-name="Trazado 798776" d="M48.661,59.393c2.813-13.314-4.4-40.869-4.4-40.869l-4.669,1.823S36.8,50.864,38.44,59.731c.61,3.316,9.032,5.293,10.222-.338" transform="translate(46.88 22.899)" fill="#f2ab8f"/>
      <rect id="Rectángulo_373871" data-name="Rectángulo 373871" width="45.813" height="4.707" transform="translate(18.592 127.18)" fill="#006a76"/>
      <rect id="Rectángulo_373872" data-name="Rectángulo 373872" width="3.12" height="48.823" transform="translate(21.705 127.182)" fill="#006a76"/>
      <rect id="Rectángulo_373873" data-name="Rectángulo 373873" width="3.12" height="48.823" transform="translate(57.238 127.182)" fill="#006a76"/>
      <rect id="Rectángulo_373874" data-name="Rectángulo 373874" width="38.653" height="4.267" transform="translate(21.705 139.539)" fill="#006a76"/>
      <rect id="Rectángulo_373875" data-name="Rectángulo 373875" width="103.442" height="5.716" transform="translate(71.986 82.63)" fill="#006a76"/>
      <rect id="Rectángulo_373876" data-name="Rectángulo 373876" width="83.041" height="4.772" transform="translate(84.725 95.501)" fill="#006a76"/>
      <rect id="Rectángulo_373877" data-name="Rectángulo 373877" width="6.487" height="89.915" transform="translate(163.088 86.089)" fill="#006a76"/>
      <rect id="Rectángulo_373878" data-name="Rectángulo 373878" width="6.487" height="89.915" transform="translate(83.227 86.089)" fill="#006a76"/>
      <path id="Trazado_798777" data-name="Trazado 798777" d="M36.735,74.409s-5.181,2.236-3.674,4.481,15.951,7.391,18.659,6.635-10.045-9.8-10.045-9.8a4.168,4.168,0,0,1-3-.1,10.416,10.416,0,0,1-1.941-1.217" transform="translate(40.53 91.984)" fill="#e7cde8"/>
      <path id="Trazado_798778" data-name="Trazado 798778" d="M75.052,52.887c-4.24-3.446-9.544-4.24-34.719-3.976-7.286-.53-27.1,5.416-25.806-7.836,0,0-16.458,15.3-1.762,30.9,0,0,12.843,12.192,51.949,0,0,0-9.175,18.578,3.558,43.727,0,0,3.256,3.372,7.583,1.849,0,0,10.291-55.643-.8-64.658" transform="translate(8.233 50.777)" fill="#247fad"/>
      <path id="Trazado_798779" data-name="Trazado 798779" d="M48.8,18.623c6.029.23,16.432,7.111,15.513,24.609-.4,7.634.441,8.58-10.365,32.186-1.84,4.021-33.747,12.724-44.368.239C2.955,67.865,20.574,66.348,25.61,40.279c3.8-19.643,17.5-21.872,23.194-21.655" transform="translate(10.028 23.005)" fill="#e04469"/>
      <path id="Trazado_798780" data-name="Trazado 798780" d="M39.606,15.206s-6.279,6.713-11.481,8.122c-3.3.9,2.2,17.532,4.781,14.488,3.339-3.918,3.8-7.887,9.837-10.054Z" transform="translate(33.5 18.797)" fill="#f2ab8f"/>
      <path id="Trazado_798781" data-name="Trazado 798781" d="M51.993,19.081c-.054,5.971-10.177,21.673-16.2,21.014-2.607-.284-6.747-7.648-4.443-16.854.944-3.788,3.647-9.864,10.41-11.6,3.07-.8,10.3.47,10.237,7.438" transform="translate(37.918 14.131)" fill="#f2ab8f"/>
      <path id="Trazado_798782" data-name="Trazado 798782" d="M54.776,25.835s-3.283,3.643-6.912-2.214c-4.182-6.726-5.859-5.474-6.583-3.857-2.118,4.743-4.515-5.233-8.741,6.228-1.679,4.548-3.023.4-3.026-.673C29.5,20.676,32.56,11.6,41.583,10.188c9.345-1.456,15.685,7.927,13.194,15.647" transform="translate(36.485 12.408)" fill="#160d54"/>
      <path id="Trazado_798783" data-name="Trazado 798783" d="M48.648,24.161c-.6,3.457-4.358,7.386-7.8-.521-2.645-6.085-3.115-5.859-4.271-6.208s-1.281.076-1.626.635c-.347.541,1.219-11.825,8.779-5.074,0,0,6,4.908,4.913,11.168" transform="translate(43.157 13.563)" fill="#160d54"/>
      <path id="Trazado_798784" data-name="Trazado 798784" d="M20.215,24.295c.982-3.424,9.151-8.782,13.377.407,4.4,9.566,10.716,29.954,9.96,35.515s-6.4,7.3-8.48,5.443C28.258,59.6,17.5,33.872,20.215,24.295" transform="translate(24.458 24.228)" fill="#f2ab8f"/>
      <path id="Trazado_798785" data-name="Trazado 798785" d="M25.61,39.3C20.574,65.371,2.955,66.885,9.584,74.678c2.567,3.019,6.384,4.79,10.714,5.7,1.373-3.549,3.453-9.18,4.924-14.408C27.607,57.5,40.855,46.652,46.213,33c5.662-14.435-6.494-13.592-6.657-13.589-5.622,2.42-11.626,7.9-13.945,19.889" transform="translate(10.028 23.983)" fill="#d33764"/>
      <path id="Trazado_798786" data-name="Trazado 798786" d="M58.71,50.046l-8.276.188s-3.873-18.63.051-22.749c1.322-1.384,6.286-1.507,7.672-.181,4.119,3.925.552,22.742.552,22.742" transform="translate(60.238 32.604)" fill="#ff8182"/>
      <path id="Trazado_798787" data-name="Trazado 798787" d="M53.366,36.614l-2.444.063L50.595,23.1l2.442-.054Z" transform="translate(62.546 28.493)" fill="#ff8182"/>
      <rect id="Rectángulo_373879" data-name="Rectángulo 373879" width="4.338" height="3.401" transform="translate(112.204 50.174)" fill="#006a76"/>
      <rect id="Rectángulo_373880" data-name="Rectángulo 373880" width="8.095" height="6.76" transform="translate(110.674 66.404)" fill="#ffad01"/>
      <path id="Trazado_798788" data-name="Trazado 798788" d="M44.9,33.035h8.6l-2.252,9.144H47.147Z" transform="translate(55.507 40.837)" fill="#ff8182"/>
      <path id="Trazado_798789" data-name="Trazado 798789" d="M46.013,35.582s9.835-.32,14.341,1.384-8.676,3.189-14.086,4.226-.255-5.611-.255-5.611" transform="translate(54.14 43.957)" fill="#f2ab8f"/>
      <path id="Trazado_798790" data-name="Trazado 798790" d="M27.737,48.193c13.625.859,39.091-5.427,39.091-5.427l-.255-5.611s-30.462-3.766-37.356-2.67c-3.484.55-1.48,13.708-1.48,13.708" transform="translate(33.58 42.383)" fill="#f2ab8f"/>
      <path id="Trazado_798791" data-name="Trazado 798791" d="M64.647,44.273l-8.276.105S52.5,33.915,56.425,31.6c1.322-.778,6.286-.848,7.672-.1,4.119,2.2.55,12.773.55,12.773" transform="translate(67.577 38.296)" fill="#ff8182"/>
      <path id="Trazado_798792" data-name="Trazado 798792" d="M59.3,36.731l-2.444.036-.324-7.625,2.44-.031Z" transform="translate(69.886 35.985)" fill="#ff8182"/>
      <rect id="Rectángulo_373881" data-name="Rectángulo 373881" width="4.338" height="1.91" transform="translate(125.48 64.327)" fill="#006a76"/>
      <rect id="Rectángulo_373882" data-name="Rectángulo 373882" width="8.097" height="3.799" transform="translate(123.95 73.441)" fill="#f3e4f3"/>
      <path id="Trazado_798793" data-name="Trazado 798793" d="M76.705,85.909l-8.276.105s-3.873-10.465.054-12.778c1.322-.776,6.286-.845,7.672-.1,4.119,2.2.55,12.773.55,12.773" transform="translate(82.483 89.765)" fill="#e7cde8"/>
      <path id="Trazado_798794" data-name="Trazado 798794" d="M71.36,78.364l-2.444.036-.326-7.625,2.442-.029Z" transform="translate(84.79 87.454)" fill="#e7cde8"/>
      <rect id="Rectángulo_373883" data-name="Rectángulo 373883" width="4.338" height="1.912" transform="translate(152.442 157.429)" fill="#8888ed"/>
      <rect id="Rectángulo_373884" data-name="Rectángulo 373884" width="8.095" height="3.799" transform="translate(150.915 166.546)" fill="#f3e4f3"/>
      <path id="Trazado_798795" data-name="Trazado 798795" d="M102.725,21.324A21.323,21.323,0,1,1,81.4,0a21.323,21.323,0,0,1,21.322,21.324" transform="translate(74.269 0)" fill="#ff8182"/>
      <path id="Trazado_798796" data-name="Trazado 798796" d="M97.686,19.532A18.079,18.079,0,1,1,79.609,1.45,18.08,18.08,0,0,1,97.686,19.532" transform="translate(76.062 1.792)" fill="#fbaeae"/>
      <path id="Trazado_798797" data-name="Trazado 798797" d="M72.614,10.6a1.932,1.932,0,1,1-1.93-1.932,1.931,1.931,0,0,1,1.93,1.932" transform="translate(84.989 10.72)" fill="#ff8182"/>
      <rect id="Rectángulo_373885" data-name="Rectángulo 373885" width="3.169" height="5.031" transform="translate(153.757 5.268)" fill="#ff8182"/>
      <rect id="Rectángulo_373886" data-name="Rectángulo 373886" width="3.169" height="5.031" transform="translate(153.757 33.026)" fill="#ff8182"/>
      <rect id="Rectángulo_373887" data-name="Rectángulo 373887" width="3.168" height="5.031" transform="translate(139.745 22.849) rotate(-88.666)" fill="#ff8182"/>
      <rect id="Rectángulo_373888" data-name="Rectángulo 373888" width="3.168" height="5.031" transform="translate(166.112 22.849) rotate(-88.666)" fill="#ff8182"/>
      <rect id="Rectángulo_373889" data-name="Rectángulo 373889" width="1.337" height="11.177" transform="translate(154.671 11.637)" fill="#ff8182"/>
      <path id="Trazado_798798" data-name="Trazado 798798" d="M69.466,10.618l.785-1.082,9.054,6.55-.783,1.085Z" transform="translate(85.874 11.788)" fill="#ff8182"/>
      <path id="Trazado_798799" data-name="Trazado 798799" d="M24.366,19.981S12,26.873,25.227,51.154L42.37,45.6s-3.184-29.88-18-25.616" transform="translate(23.629 24.185)" fill="#d33764"/>
      <path id="Trazado_798800" data-name="Trazado 798800" d="M82.271,75.919l.2,8.276s-18.623,3.9-22.747-.022c-1.389-1.319-1.516-6.284-.195-7.672,3.922-4.126,22.744-.581,22.744-.581" transform="translate(72.447 92.1)" fill="#247fad"/>
      <rect id="Rectángulo_373890" data-name="Rectángulo 373890" width="13.569" height="2.442" transform="translate(123.613 171.435) rotate(-1.521)" fill="#247fad"/>
      <rect id="Rectángulo_373891" data-name="Rectángulo 373891" width="3.401" height="4.34" transform="translate(122.245 170.469) rotate(-0.089)" fill="#2892bc"/>
      <rect id="Rectángulo_373892" data-name="Rectángulo 373892" width="6.76" height="8.096" transform="matrix(1, -0.001, 0.001, 1, 138.471, 168.22)" fill="#2892bc"/>
    </g>
  </g>
</svg>
