<svg id="Grupo_1064826" data-name="Grupo 1064826" xmlns="http://www.w3.org/2000/svg" xmlns:xlink="http://www.w3.org/1999/xlink" width="169.71" height="178.657" viewBox="0 0 169.71 178.657">
  <defs>
    <clipPath id="clip-path">
      <rect id="Rectángulo_373865" data-name="Rectángulo 373865" width="169.71" height="178.657" fill="none"/>
    </clipPath>
  </defs>
  <g id="Grupo_1064825" data-name="Grupo 1064825" transform="translate(0 0)" clip-path="url(#clip-path)">
    <path id="Trazado_798679" data-name="Trazado 798679" d="M141.305,97.278c-26.552,49.694-.1,56.032-41.183,70.983s-80.5,6.547-90.6-35.556c-13.912-57.947-.88-7.093,33.005-101.134,19.656-54.556,151.8-33.53,98.779,65.707" transform="translate(4.391 2.356)" fill="#8edee0"/>
    <path id="Trazado_798680" data-name="Trazado 798680" d="M169.71,85.641c0,2.574-37.992,4.663-84.857,4.663S0,88.215,0,85.641,37.988,80.98,84.853,80.98s84.857,2.089,84.857,4.661" transform="translate(0 88.354)" fill="#ffd5d5"/>
    <path id="Trazado_798681" data-name="Trazado 798681" d="M43.851,16.194c.029-3.022,3.4-5.152,7.013-.324C55.86,22.55,63,36.1,63.56,40.786c.569,4.671-4.835,5.692-6.775,4.841-6.34-2.758-13.021-20.957-12.933-29.434" transform="translate(47.843 14.204)" fill="#ffae93"/>
    <path id="Trazado_798682" data-name="Trazado 798682" d="M67.417,28.493a11.991,11.991,0,0,1,7.128-2.444c4.68-.217.813-3.107-1.15-3.379s-4.272-.654-9.458,2.49c0,0,2.139,2.884,3.479,3.333" transform="translate(69.76 24.547)" fill="#ffae93"/>
    <path id="Trazado_798683" data-name="Trazado 798683" d="M50.5,34.413c11.727,1.054,31.585-6.65,31.585-6.65l-.96-4.6s-22.7.855-27.989,2.664c-2.681.916-2.637,8.584-2.637,8.584" transform="translate(55.095 25.274)" fill="#ffae93"/>
    <path id="Trazado_798684" data-name="Trazado 798684" d="M65.677,3.21s15.708,8.538,32.553,5.757c0,0-10.137,30.1-24.829,27.048,0,0-15.317-1.039-7.724-32.8" transform="translate(69.352 3.502)" fill="#ff8182"/>
    <path id="Trazado_798685" data-name="Trazado 798685" d="M71.611,10.806a2.45,2.45,0,1,1-1.9-2.9,2.447,2.447,0,0,1,1.9,2.9" transform="translate(72.839 8.57)" fill="#fff"/>
    <path id="Trazado_798686" data-name="Trazado 798686" d="M76.812,11.882a2.447,2.447,0,1,1-1.9-2.9,2.443,2.443,0,0,1,1.9,2.9" transform="translate(78.52 9.75)" fill="#fff"/>
    <path id="Trazado_798687" data-name="Trazado 798687" d="M66.171,12.148l15.873,3.77a8.154,8.154,0,0,1-8.4,4.65s-8.937-1.393-7.478-8.421" transform="translate(72.02 13.254)" fill="#fff"/>
    <rect id="Rectángulo_373863" data-name="Rectángulo 373863" width="28.085" height="2.403" transform="translate(137.37 63.601) rotate(-78.299)" fill="#ff8182"/>
    <path id="Trazado_798688" data-name="Trazado 798688" d="M72.155,25.833s-.431-2.654-2.545-3.174-2.516.082-3.157,3.122Z" transform="translate(72.504 24.539)" fill="#ffae93"/>
    <path id="Trazado_798689" data-name="Trazado 798689" d="M48.826,90.286l-4.416.59L40.887,76.107l7.94-.508Z" transform="translate(44.609 82.482)" fill="#ffae93"/>
    <path id="Trazado_798690" data-name="Trazado 798690" d="M43.284,82.841s-3.319,3.726-1.108,5.033,16.342.318,18.257-1.288-12.185-5.368-12.185-5.368-1.179,1.876-2.838,1.924a10.081,10.081,0,0,1-2.127-.3" transform="translate(45.188 88.613)" fill="#ff8182"/>
    <path id="Trazado_798691" data-name="Trazado 798691" d="M32.631,35.017S21.969,59.516,42,87.222c0,0,.048,20.9,8.983,35.276,0,0,4.032.184,6.338,0a14.891,14.891,0,0,0,5.7-2.369s.8-9.412.05-34.023c0,0,3.132-31.014-4.814-47.544Z" transform="translate(32.509 38.206)" fill="#247fad"/>
    <path id="Trazado_798692" data-name="Trazado 798692" d="M44.559,108.9h0c-1.075-2.463-1.754-15.01-1.338-20.44.5-6.493-.019-40.985-.019-40.985L35.689,74.333c.724,4.4.782,21.548,8.87,34.569h0" transform="translate(38.939 51.801)" fill="#1a6d91"/>
    <path id="Trazado_798693" data-name="Trazado 798693" d="M31.783,89.053l-4.262-1.219L29.387,73.78l7.1,3.423Z" transform="translate(30.027 80.498)" fill="#ffae93"/>
    <path id="Trazado_798694" data-name="Trazado 798694" d="M29.5,79.416s-4.646,2.378-3.266,4.435,14.6,6.765,17.078,6.07-9.194-8.966-9.194-8.966a4,4,0,0,1-2.743-.092A3.073,3.073,0,0,1,29.5,79.416" transform="translate(28.347 86.647)" fill="#ff8182"/>
    <path id="Trazado_798695" data-name="Trazado 798695" d="M30.477,36.641S20.022,56.358,34.5,88.924c0,0-7.672,9.257-7.672,28.162,0,0,4.207,6.116,13.968,4.69,0,0,3.781-5.539,8.653-29.751C52.193,78.366,55.7,47.68,49.2,36.641c0,0-7.789-.519-10-1.054-2.181-.523-8.722,1.054-8.722,1.054" transform="translate(29.269 38.712)" fill="#247fad"/>
    <path id="Trazado_798696" data-name="Trazado 798696" d="M34.705,88.434s-7.664,9.288-7.672,28.162c2.973-6.271,7.08-14.541,11.649-24.4,3.394-7.325-1.968-10.215-5.512-18.832-5.876-14.278-3.9-16.461-3.9-16.461,4.835-1.861,8.686-4.952,10.853-13.443-2.336-.617-10.478-7.53-10.478-7.53s-9.418,19.936,5.058,52.5" transform="translate(29.061 39.204)" fill="#1a6d91"/>
    <path id="Trazado_798697" data-name="Trazado 798697" d="M25.526,68.294c-4.1,9.558,39.167,5.867,42.837-.508,1.43-2.505-4.784-14.313-3.551-20.4S70.8,39.7,68.066,26.835C64.33,9.23,41.123,11.087,35.689,16.1c-4.793,4.42-3.381,12.243-3.057,19.309s.738,14.608-7.105,32.888" transform="translate(27.551 13.792)" fill="#ffad01"/>
    <path id="Trazado_798698" data-name="Trazado 798698" d="M42.378,14.343S44.486,29.371,50.2,32.667c0,0,1.1-13.707-7.825-18.324" transform="translate(46.237 15.649)" fill="#ffae93"/>
    <path id="Trazado_798699" data-name="Trazado 798699" d="M37.81,6.641s1.311,8.569-1.8,12.578c-1.989,2.555,9.351,11.994,9.577,8.235.295-4.845-1.612-8.082,1.706-13.149Z" transform="translate(39.036 7.246)" fill="#f2ab8f"/>
    <path id="Trazado_798700" data-name="Trazado 798700" d="M50.8,3.647c3.185,4.65,3.86,22.226-1.156,24.973C47.457,29.812,40.293,26.35,37.107,18,35.8,14.569,34.6,8.423,38.884,3.423c1.936-2.271,8.2-5.207,11.913.224" transform="translate(39.16 0.615)" fill="#ffae93"/>
    <path id="Trazado_798701" data-name="Trazado 798701" d="M54.976,7.394c-.086,2.315-.32,3.63-5.361,2.047-6.194-1.947-6.1,2.685-5.786,4.326.92,4.805-5.2,1.42-4.063,7.17,1.152,5.744-4.138-.468-4.567-1.372A17.949,17.949,0,0,1,37.932,3.72C43.176-3.105,55.264.255,54.976,7.394" transform="translate(37.566 0)" fill="#42244a"/>
    <path id="Trazado_798702" data-name="Trazado 798702" d="M41.815,5.6s16.237,7.486,32.869,3.6c0,0-8.124,30.7-23,28.626,0,0-15.353-.033-9.874-32.227" transform="translate(44.334 6.112)" fill="#006a76"/>
    <path id="Trazado_798703" data-name="Trazado 798703" d="M48.642,12.8a2.451,2.451,0,1,1-2.089-2.764A2.451,2.451,0,0,1,48.642,12.8" transform="translate(47.747 10.925)" fill="#fff"/>
    <path id="Trazado_798704" data-name="Trazado 798704" d="M53.9,13.536a2.448,2.448,0,1,1-2.085-2.764A2.448,2.448,0,0,1,53.9,13.536" transform="translate(53.492 11.728)" fill="#fff"/>
    <path id="Trazado_798705" data-name="Trazado 798705" d="M57.239,21.7,43.045,18.775a7.248,7.248,0,0,1,7.327-4.356s7.971,1,6.867,7.279" transform="translate(46.964 15.69)" fill="#fff"/>
    <rect id="Rectángulo_373864" data-name="Rectángulo 373864" width="29.012" height="2.399" transform="translate(90.028 69.144) rotate(-81.983)" fill="#006a76"/>
    <path id="Trazado_798706" data-name="Trazado 798706" d="M32.632,34.719c.328,7.07.738,14.608-7.105,32.888-1.779,4.14,5.332,5.79,14.261,5.817C44.536,64.983,36.3,58.8,44.444,40.469s-2.2-25.486-2.2-25.486l-2.532-1.713a11.564,11.564,0,0,0-4.023,2.139,8.972,8.972,0,0,0-.677.709l-2.67,6.79c-.408,3.689.109,7.867.291,11.81" transform="translate(27.551 14.48)" fill="#d69610"/>
    <path id="Trazado_798707" data-name="Trazado 798707" d="M38.445,13s4.075,20.25-8.868,26.843c0,0-6.606-25.475,8.868-26.843" transform="translate(30.741 14.181)" fill="#ffae93"/>
    <path id="Trazado_798708" data-name="Trazado 798708" d="M36.629,14.609c2.15-2.122,6.043-1.257,5.2,4.713-1.171,8.262-5.667,22.9-8.571,26.621s-7.446.627-8.22-1.347c-2.547-6.426,5.55-24.043,11.591-29.988" transform="translate(26.793 14.793)" fill="#ffae93"/>
    <path id="Trazado_798709" data-name="Trazado 798709" d="M42.906,32.024a11.984,11.984,0,0,1,7.453-1.135c4.642.621,1.353-2.913-.527-3.53s-4.092-1.4-9.757.767c0,0,1.593,3.22,2.831,3.9" transform="translate(43.724 29.133)" fill="#ffae93"/>
    <path id="Trazado_798710" data-name="Trazado 798710" d="M26,33.92C37.354,37.049,58.263,33,58.263,33l-.123-4.7s-22.489-3.2-28.014-2.361C27.324,26.365,26,33.92,26,33.92" transform="translate(28.367 28.155)" fill="#ffae93"/>
    <path id="Trazado_798711" data-name="Trazado 798711" d="M47.027.179S33.1.447,32.082,18.76c-.121,2.185-2.875,4.82-.107,9.715,2.467,4.37,9.291,5.09,6.474,8.718s-4.738,7.517-1.5,11.315,11.212,5.065,11.662-.387-.688-15.392-2.674-17.28,2.49-3.423-2.156-10.1c0,0-9.7-9.991,3.243-20.565" transform="translate(33.545 0.196)" fill="#42244a"/>
  </g>
</svg>
