<svg xmlns="http://www.w3.org/2000/svg" width="70.15" height="70.15" viewBox="0 0 70.15 70.15">
  <path id="Trazado_796854" data-name="Trazado 796854" d="M25.787,308.918a9.265,9.265,0,0,0,10.539-4.849,9.459,9.459,0,0,0,.635-7.058,7.858,7.858,0,0,1,.2-5.175l-.007-.005,16.257,6.414L59.816,282a7.827,7.827,0,0,0-5.175-.2,9.49,9.49,0,0,1-7.055-.638A9.093,9.093,0,0,1,55.1,264.609a9.43,9.43,0,0,1,4.753,4.1,7.726,7.726,0,0,0,3.889,3.347l6.411-16.249L27.712,239.066,21.3,255.313a7.721,7.721,0,0,1-3.886-3.343,9.441,9.441,0,0,0-4.755-4.107A9.2,9.2,0,0,0,.3,253.884a9.266,9.266,0,0,0,4.849,10.54,9.476,9.476,0,0,0,7.059.635,7.856,7.856,0,0,1,5.172.2L10.969,281.5l16.259,6.415h-.012a7.736,7.736,0,0,1-3.342,3.888,9.427,9.427,0,0,0-4.108,4.754,9.2,9.2,0,0,0,6.021,12.362" transform="translate(0 -239.066)" fill="#ff8182"/>
</svg>
