<svg id="Grupo_1064841" data-name="Grupo 1064841" xmlns="http://www.w3.org/2000/svg" xmlns:xlink="http://www.w3.org/1999/xlink" width="153.779" height="188.324" viewBox="0 0 153.779 188.324">
  <defs>
    <clipPath id="clip-path">
      <rect id="Rectángulo_373897" data-name="Rectángulo 373897" width="153.779" height="188.324" fill="none"/>
    </clipPath>
  </defs>
  <g id="Grupo_1064840" data-name="Grupo 1064840" transform="translate(0 0)" clip-path="url(#clip-path)">
    <path id="Trazado_798828" data-name="Trazado 798828" d="M108.487,110.763c-31.852,28.181,53.526,41.575-26.38,47.985-37.482,3.006-32.662,4.891-65.079-23.184-30.951-26.8,4.2-114.432,50.388-114.432,55.239,0,120.711,19.165,41.071,89.631" transform="translate(5.811 23.073)" fill="#8edee0"/>
    <path id="Trazado_798829" data-name="Trazado 798829" d="M75.4,24.893,91.766,0,91.5,29.8l27.878-10.511L101.656,43.232l28.736,7.882-28.418,8.955,18.613,23.263L92.335,73.877l1.383,29.761-17.3-24.261L60.043,104.272l.264-29.792L32.431,84.991,50.157,61.044,21.42,53.162,49.839,44.2,31.226,20.941,59.479,30.4,58.094.634Z" transform="translate(23.387 0)" fill="#ff8182"/>
    <path id="Trazado_798830" data-name="Trazado 798830" d="M66.366,23.6,77.8,6.214,77.62,27.028,97.1,19.684,84.711,36.412l20.071,5.51L84.931,48.175l13,16.254L78.2,57.822l.964,20.793L67.081,61.665,55.639,79.056l.186-20.814L36.35,65.587l12.382-16.73-20.073-5.5,19.854-6.259L35.505,20.841l19.743,6.608L54.279,6.656Z" transform="translate(31.29 6.785)" fill="#ffdede"/>
    <path id="Trazado_798831" data-name="Trazado 798831" d="M61.761,30.518A2.473,2.473,0,1,1,65.9,33.225a2.473,2.473,0,1,1-4.138-2.707m2.9-2.761,6.322-10.811,3.675,2.406L67.293,29.484Z" transform="translate(66.94 18.502)" fill="#006a76"/>
    <path id="Trazado_798832" data-name="Trazado 798832" d="M46.893,12.632a1.558,1.558,0,1,1,3.115-.036,1.558,1.558,0,1,1-3.115.036m.544-2.46L46.954,2.3l2.765-.031-.3,7.884Z" transform="translate(51.199 2.478)" fill="#006a76"/>
    <path id="Trazado_798833" data-name="Trazado 798833" d="M34.418,17.53l-.052-.469a4.006,4.006,0,0,1,.864-2.924,3.37,3.37,0,0,0,.916-1.962c-.048-.636-.494-1.023-1.4-.994a3.433,3.433,0,0,0-1.755.676l-.759-1.933A6.258,6.258,0,0,1,35.2,8.959c2.391-.174,3.577,1.075,3.684,2.579A4.514,4.514,0,0,1,37.568,14.7,3.129,3.129,0,0,0,36.8,17.03l.025.324Zm-.289,2.537A1.627,1.627,0,1,1,35.862,21.6a1.577,1.577,0,0,1-1.732-1.531" transform="translate(35.188 9.765)" fill="#006a76"/>
    <path id="Trazado_798834" data-name="Trazado 798834" d="M57.6,20.426a1.627,1.627,0,1,1-.013,2.311,1.576,1.576,0,0,1,.013-2.311m2.1-1.452.32-.349a4.005,4.005,0,0,1,2.77-1.276,3.339,3.339,0,0,0,2.079-.6c.45-.456.446-1.046-.176-1.711a3.413,3.413,0,0,0-1.665-.874l.954-1.845a6.226,6.226,0,0,1,2.682,1.6c1.707,1.688,1.548,3.4.489,4.468A4.5,4.5,0,0,1,63.9,19.476a3.144,3.144,0,0,0-2.259.964l-.23.232Z" transform="translate(62.326 13.449)" fill="#006a76"/>
    <path id="Trazado_798835" data-name="Trazado 798835" d="M65.113,5.253,51.945,25.245,68.818,5.954Z" transform="translate(56.716 5.736)" fill="#ffad01"/>
    <path id="Trazado_798836" data-name="Trazado 798836" d="M25.588,19.178l23.7,3.393L24.647,15.528Z" transform="translate(26.91 16.954)" fill="#ffad01"/>
    <path id="Trazado_798837" data-name="Trazado 798837" d="M79.669,29.232l-16.8-.5L80.615,31.7Z" transform="translate(68.639 31.375)" fill="#ffad01"/>
    <path id="Trazado_798838" data-name="Trazado 798838" d="M153.48,90.215c0,2.326-34.358,4.215-76.743,4.215S0,92.541,0,90.215,34.356,86,76.737,86s76.743,1.893,76.743,4.219" transform="translate(0 93.894)" fill="#f7d4d4"/>
    <path id="Trazado_798839" data-name="Trazado 798839" d="M45.724,94.9l-4.119.55L38.318,81.675l7.405-.473Z" transform="translate(41.837 88.659)" fill="#ffae93"/>
    <path id="Trazado_798840" data-name="Trazado 798840" d="M40.556,87.952s-3.1,3.477-1.035,4.694,15.239.295,17.023-1.2-11.361-5-11.361-5-1.1,1.749-2.65,1.793a9.238,9.238,0,0,1-1.977-.28" transform="translate(42.377 94.379)" fill="#006a76"/>
    <path id="Trazado_798841" data-name="Trazado 798841" d="M30.622,43.375S20.684,66.22,39.366,92.054c0,0,2.575,28.518,10.237,42.307a41.987,41.987,0,0,0,4.945,0c.964-.075,5.736-1.094,6.778-2.071a277.46,277.46,0,0,1-4.318-41.107s0-28.524-2.481-44.5Z" transform="translate(30.551 47.359)" fill="#e04469"/>
    <path id="Trazado_798842" data-name="Trazado 798842" d="M43.609,131.1h0a91.778,91.778,0,0,1-3.111-28.47c.464-6.054.975-56.266.975-56.266l-8,43.09c.676,4.1,2.6,29.505,10.137,41.646" transform="translate(36.546 50.621)" fill="#d33764"/>
    <path id="Trazado_798843" data-name="Trazado 798843" d="M34.307,94.945,30.152,94.9,28.866,80.8l7.4.59Z" transform="translate(31.517 88.221)" fill="#ffae93"/>
    <path id="Trazado_798844" data-name="Trazado 798844" d="M30.526,87.1s-3.558,3-1.694,4.5,15.044,2.468,17.025,1.24-10.532-6.575-10.532-6.575-1.341,1.573-2.876,1.4a9.477,9.477,0,0,1-1.922-.563" transform="translate(30.89 94.189)" fill="#006a76"/>
    <path id="Trazado_798845" data-name="Trazado 798845" d="M27.536,41.842s-9.928,16.5.529,37.306c0,0-1.906,40.849,4.426,55.312a43.049,43.049,0,0,0,4.905.7c.966.063,5.2.427,6.372-.391,0,0,2.493-18.908,5.075-41.724,0,0,4.686-28.882-.452-45.194Z" transform="translate(25.414 45.685)" fill="#e04469"/>
    <path id="Trazado_798846" data-name="Trazado 798846" d="M27.846,81.607c-.056-.027-.1-.05-.13-.063.038.019.086.04.13.063" transform="translate(30.261 89.033)" fill="#7676dd"/>
    <path id="Trazado_798847" data-name="Trazado 798847" d="M27.928,81.644l-.149-.071.149.071" transform="translate(30.33 89.065)" fill="#7676dd"/>
    <path id="Trazado_798848" data-name="Trazado 798848" d="M27.709,81.541c-.038-.021-.033-.017,0,0" transform="translate(30.224 89.015)" fill="#7676dd"/>
    <path id="Trazado_798849" data-name="Trazado 798849" d="M27.739,81.555l-.044-.021.044.021" transform="translate(30.238 89.022)" fill="#7676dd"/>
    <path id="Trazado_798850" data-name="Trazado 798850" d="M32.457,75.127c-5.9-11.884,6.1-22.611,9.871-30.756L27.5,41.842s-9.771,19.341.529,37.306c-.247,7.365-1.473,42.862,4.426,55.312-.663-2.416-.481-26.955.625-31.913,1.324-5.926,2.542-21.04-.625-27.42" transform="translate(25.452 45.685)" fill="#d33764"/>
    <path id="Trazado_798851" data-name="Trazado 798851" d="M46.319,37.94c-2.69-.674-4.376-4.215.153-6.487,6.271-3.138,18.8-6.763,23.014-6.271,4.2.485,4.767,5.65,3.885,7.242-2.86,5.209-19.5,7.42-27.052,5.516" transform="translate(47.668 27.445)" fill="#ffae93"/>
    <path id="Trazado_798852" data-name="Trazado 798852" d="M52.628,18.573a13.7,13.7,0,0,1-5.115-5.407c-2.291-4.018-2.761.354-2.077,2.165s1.433,3.966,6.209,7.43c0,0,1.251-2.866.983-4.188" transform="translate(49.294 12.577)" fill="#ffae93"/>
    <path id="Trazado_798853" data-name="Trazado 798853" d="M69.366,39.437C64.859,28.81,50.343,14.891,50.343,14.891l-3.1,2.414S58.2,36.882,61.995,40.89c1.914,2.035,7.372-1.454,7.372-1.454" transform="translate(51.577 16.259)" fill="#ffae93"/>
    <path id="Trazado_798854" data-name="Trazado 798854" d="M40.728,31.922s3.215,13.239,20.347,6.738l1.858-12.472s-23.345-4.811-22.2,5.734" transform="translate(44.424 27.398)" fill="#f9eff9"/>
    <path id="Trazado_798855" data-name="Trazado 798855" d="M23.87,66.882c-6.119,7.529,33.637,15.243,38.555,10.459,1.92-1.885-.646-14.059,2.012-19.205s7.328-5.366,8.154-17.6C73.725,23.79,52.434,19.542,46.284,22.65c-5.424,2.744-6.152,10.12-7.66,16.542S35.561,52.484,23.87,66.882" transform="translate(25.365 23.703)" fill="#f9eff9"/>
    <path id="Trazado_798856" data-name="Trazado 798856" d="M44.8,16.954s-1,8.022-4.82,10.823C37.542,29.562,45.313,40.92,46.47,37.6c1.5-4.272.617-7.66,4.884-11.361Z" transform="translate(43.136 18.511)" fill="#f2ab8f"/>
    <path id="Trazado_798857" data-name="Trazado 798857" d="M57.184,16.743c1.673,4.983-2.2,20.92-7.4,22.107-2.261.513-7.8-4.42-8.539-12.716-.295-3.416.192-9.235,5.309-12.628,2.314-1.544,8.683-2.579,10.629,3.238" transform="translate(44.961 13.428)" fill="#ffae93"/>
    <path id="Trazado_798858" data-name="Trazado 798858" d="M60.451,20.965c-.667,2.054-1.211,3.175-5.33.471-5.06-3.326-6.15.856-6.294,2.406-.4,4.546-5.022-.052-5.472,5.4-.427,5.447-3.592-1.475-3.744-2.393A16.739,16.739,0,0,1,46.1,13.325c6.445-4.786,16.429,1.312,14.352,7.639" transform="translate(43.217 12.676)" fill="#42244a"/>
    <path id="Trazado_798859" data-name="Trazado 798859" d="M38.624,39.166c-1.508,6.426-3.062,13.292-14.754,27.69-2.65,3.259,3.307,6.554,11.311,8.855,6.411-6.365-6.633-15.645,7.761-27.589,15.13-12.551,9.332-24.209,9.332-24.209l-1.835-2.182a10.84,10.84,0,0,0-4.154.9,8.528,8.528,0,0,0-.787.462L41.373,28.5c-1.307,3.207-1.908,7.085-2.749,10.668" transform="translate(25.365 23.727)" fill="#e7d1e8"/>
    <path id="Trazado_798860" data-name="Trazado 798860" d="M45.568,23.552c2.728-.513,5.736,2,2.575,5.955C43.765,34.983,33.906,43.52,29.876,44.842c-4.012,1.316-6.694-3.138-6.56-4.949.416-5.93,14.6-14.9,22.253-16.341" transform="translate(25.451 25.642)" fill="#ffae93"/>
    <path id="Trazado_798861" data-name="Trazado 798861" d="M47.438,24.288s-6.853-7.137-20.117,6.2L34.226,41.1s18.835-7.541,13.212-16.814" transform="translate(29.83 24.437)" fill="#e7d1e8"/>
    <path id="Trazado_798862" data-name="Trazado 798862" d="M38.98,38.418a13.7,13.7,0,0,0,5.575,4.933c4.094,2.148-.259,2.772-2.09,2.148s-4.012-1.3-7.639-5.958c0,0,2.822-1.343,4.154-1.123" transform="translate(38.024 41.919)" fill="#ffae93"/>
    <path id="Trazado_798863" data-name="Trazado 798863" d="M25.766,29.716c10.773,4.142,25.182,18.176,25.182,18.176L48.638,51.08S28.695,40.788,24.563,37.134c-2.1-1.843,1.2-7.418,1.2-7.418" transform="translate(26.057 32.445)" fill="#ffae93"/>
    <path id="Trazado_798864" data-name="Trazado 798864" d="M58.6,12.311S43.985,6.358,37.584,22.664c-.787,2-3.121,8.118-2.088,13.578,1.111,5.886,13.419,7.884,13.578,3.531.094-2.552-1.061-2.326-.979-10.145,0,0-3.8-11.129,10.5-17.316" transform="translate(38.473 12.285)" fill="#42244a"/>
  </g>
</svg>
