<svg xmlns="http://www.w3.org/2000/svg" xmlns:xlink="http://www.w3.org/1999/xlink" width="1328" height="544" viewBox="0 0 1328 544">
  <defs>
    <clipPath id="clip-path">
      <path id="Trazado_798233" data-name="Trazado 798233" d="M10.691,0H1315c5.9,0,10.691,4.423,10.691,9.879V533.454c0,5.456-4.787,9.879-10.691,9.879H10.691C4.787,543.333,0,538.91,0,533.454V9.879C0,4.423,4.787,0,10.691,0Z" transform="translate(180 2883.262)" fill="#8edee0" opacity="0.2"/>
    </clipPath>
  </defs>
  <g id="Grupo_1064954" data-name="Grupo 1064954" transform="translate(-136 -571)">
    <rect id="Rectángulo_373816" data-name="Rectángulo 373816" width="1328" height="544" transform="translate(136 571)" fill="#8edee0" opacity="0.15"/>
    <g id="Enmascarar_grupo_1059043" data-name="Enmascarar grupo 1059043" transform="translate(-44 -2312.262)" opacity="0.3" clip-path="url(#clip-path)">
      <g id="Grupo_1064742" data-name="Grupo 1064742" transform="translate(39.667 2802.402)">
        <path id="Trazado_798226" data-name="Trazado 798226" d="M605.453,72.832A145.178,145.178,0,0,1,729.39,222.28c-1.486,37.087-16.978,71.915-28.927,107.056S680.032,403.3,692.518,438.25c15.4,43.12,58.164,69.241,97.959,91.889s82.585,48.672,98.139,91.738c16.3,45.149-6.95,100.875-50.511,121.04-2-.474-2.821-1.652-4.877-1.652H3.6L0,52.97c139.211,0,466.313,24.311,605.453,19.862" transform="translate(87.333 -33.917)" fill="#c9f1f2"/>
        <path id="Trazado_798227" data-name="Trazado 798227" d="M605.453,72.832A145.178,145.178,0,0,1,729.39,222.28c-1.486,37.087-16.978,71.915-28.927,107.056S680.032,403.3,692.518,438.25c15.4,43.12,58.164,69.241,97.959,91.889s82.585,48.672,98.139,91.738c16.3,45.149-6.95,100.875-50.511,121.04-2-.474-2.821-1.652-4.877-1.652H3.6L0,52.97c139.211,0,466.313,24.311,605.453,19.862" transform="matrix(0.799, -0.602, 0.602, 0.799, -576.162, 587.151)" fill="#dcfdfe"/>
        <path id="Trazado_798228" data-name="Trazado 798228" d="M1017.1,0c-29.239,20.161-35.461,63.18-22.008,96.049s42.088,57.06,71.955,76.278,62.181,35,89.2,58.051,48.842,55.58,48.3,91.092c-.747,49.223-43.41,92.12-38.312,141.083,3.5,33.631,30.012,61.55,60.929,75.242s65.722,15.411,99.527,14.652c0-.448-.082-1.5-.082-1.949V3.567C1226.273,3.575,1117.436-.008,1017.1,0" transform="translate(139.333 -45.917)" fill="#c9f1f2"/>
        <path id="Trazado_798230" data-name="Trazado 798230" d="M23.349,302.314a8.389,8.389,0,0,0,9.543-4.391,8.565,8.565,0,0,0,.575-6.391,7.115,7.115,0,0,1,.178-4.686l-.006,0,14.72,5.808,5.8-14.708a7.087,7.087,0,0,0-4.686-.177,8.594,8.594,0,0,1-6.388-.578,8.233,8.233,0,0,1,6.8-14.993,8.539,8.539,0,0,1,4.3,3.716,7,7,0,0,0,3.521,3.03l5.8-14.713L25.092,239.066l-5.8,14.711a6.991,6.991,0,0,1-3.519-3.027,8.548,8.548,0,0,0-4.305-3.719A8.329,8.329,0,0,0,.27,252.483a8.39,8.39,0,0,0,4.391,9.543,8.58,8.58,0,0,0,6.392.575,7.113,7.113,0,0,1,4.683.177l-5.8,14.71L24.654,283.3h-.011a7,7,0,0,1-3.026,3.52,8.536,8.536,0,0,0-3.72,4.3,8.329,8.329,0,0,0,5.452,11.193" transform="translate(437.741 365.335) rotate(150)" fill="#8edee0"/>
        <path id="Trazado_798231" data-name="Trazado 798231" d="M140.882,2.488a11.939,11.939,0,0,0-3.1,14.624,12.2,12.2,0,0,0,6.8,6.089,10.136,10.136,0,0,1,5.2,4.186l.011,0L130.649,39.245,142.5,58.372a10.1,10.1,0,0,0,4.187-5.2,12.217,12.217,0,0,1,6.089-6.8,11.716,11.716,0,0,1,11.328,20.506,12.148,12.148,0,0,1-7.9,1.753,9.955,9.955,0,0,0-6.452,1.442L161.61,89.21,211.58,58.246,199.725,39.115a9.961,9.961,0,0,1,6.446-1.444,12.155,12.155,0,0,0,7.9-1.75,11.852,11.852,0,0,0,3.293-17.409,11.937,11.937,0,0,0-14.624-3.1,12.2,12.2,0,0,0-6.088,6.8,10.135,10.135,0,0,1-4.185,5.195L180.62,8.281,161.476,20.143l.01-.01a9.962,9.962,0,0,1-1.444-6.447,12.154,12.154,0,0,0-1.751-7.9,11.853,11.853,0,0,0-17.409-3.294" transform="translate(87.82 511.29)" fill="#006a76"/>
        <path id="Trazado_798232" data-name="Trazado 798232" d="M136.483,1.419a6.807,6.807,0,0,0-1.769,8.338,6.958,6.958,0,0,0,3.88,3.472,5.779,5.779,0,0,1,2.963,2.387l.006,0-10.914,6.763,6.758,10.906a5.756,5.756,0,0,0,2.387-2.963,6.966,6.966,0,0,1,3.472-3.877,6.68,6.68,0,0,1,6.459,11.691,6.926,6.926,0,0,1-4.5,1,5.676,5.676,0,0,0-3.679.822L148.3,50.864l28.491-17.654L170.034,22.3a5.679,5.679,0,0,1,3.675-.823,6.93,6.93,0,0,0,4.507-1,6.757,6.757,0,0,0,1.878-9.926,6.806,6.806,0,0,0-8.338-1.769,6.955,6.955,0,0,0-3.471,3.88,5.778,5.778,0,0,1-2.386,2.962L159.14,4.721l-10.915,6.763.006-.006a5.68,5.68,0,0,1-.823-3.676,6.93,6.93,0,0,0-1-4.506,6.758,6.758,0,0,0-9.926-1.878" transform="translate(1259.252 481.248)" fill="#006a76"/>
      </g>
    </g>
  </g>
</svg>
