<svg xmlns="http://www.w3.org/2000/svg" xmlns:xlink="http://www.w3.org/1999/xlink" width="51" height="51" viewBox="0 0 51 51">
  <defs>
    <clipPath id="clip-path">
      <rect id="Rectángulo_373903" data-name="Rectángulo 373903" width="51" height="51" transform="translate(1090 5462)" fill="#006a76"/>
    </clipPath>
    <clipPath id="clip-path-2">
      <path id="path561" d="M0-51H51V0H0Z" fill="#006a76"/>
    </clipPath>
  </defs>
  <g id="Enmascarar_grupo_1059046" data-name="Enmascarar grupo 1059046" transform="translate(-1090 -5462)" clip-path="url(#clip-path)">
    <g id="g555" transform="translate(1090 5513)">
      <g id="g557">
        <g id="g559" clip-path="url(#clip-path-2)">
          <g id="g565" transform="translate(19.839 -28.772)">
            <path id="path567" d="M0,0A1.207,1.207,0,0,0,1.207,1.207,1.207,1.207,0,0,0,2.415,0Z" fill="#006a76"/>
          </g>
          <g id="g569" transform="translate(13.854 -28.772)">
            <path id="path571" d="M0,0A1.208,1.208,0,0,1-1.207,1.207,1.207,1.207,0,0,1-2.415,0Z" fill="#006a76"/>
          </g>
          <g id="g573" transform="translate(9.646 -13.839)">
            <path id="path575" d="M0,0A7.254,7.254,0,0,0,7.2,6.451,7.254,7.254,0,0,0,14.4,0" fill="none" stroke="#006a76" stroke-linecap="round" stroke-linejoin="round" stroke-miterlimit="10" stroke-width="1.494"/>
          </g>
          <g id="g577" transform="translate(20.871 -14.633)">
            <path id="path579" d="M0,0,5.978,1.494A8.045,8.045,0,0,1,8.69,2.742" fill="none" stroke="#006a76" stroke-linecap="round" stroke-linejoin="round" stroke-miterlimit="10" stroke-width="1.494"/>
          </g>
          <g id="g581" transform="translate(31.886 -9.321)">
            <path id="path583" d="M0,0A8.027,8.027,0,0,1,1.06,3.992V8.574h-32.2V3.992a8.05,8.05,0,0,1,6.1-7.809l5.977-1.494" fill="none" stroke="#006a76" stroke-linecap="round" stroke-linejoin="round" stroke-miterlimit="10" stroke-width="1.494"/>
          </g>
          <g id="g585" transform="translate(20.871 -19.194)">
            <path id="path587" d="M0,0V4.561A4.025,4.025,0,0,1-4.025,8.586,4.025,4.025,0,0,1-8.05,4.561V0" fill="none" stroke="#006a76" stroke-linecap="round" stroke-linejoin="round" stroke-miterlimit="10" stroke-width="1.494"/>
          </g>
          <g id="g589" transform="translate(6.784 -28.418)">
            <path id="path591" d="M0,0A10.062,10.062,0,0,0,10.062,10.062,10.062,10.062,0,0,0,20.124,0" fill="none" stroke="#006a76" stroke-linecap="round" stroke-linejoin="round" stroke-miterlimit="10" stroke-width="1.494"/>
          </g>
          <g id="g593" transform="translate(6.784 -28.418)">
            <path id="path595" d="M0,0,1.185-2.267a4.025,4.025,0,0,1,3.567-2.16H6.641a9.389,9.389,0,0,0,8.452-4.629h.446a1.811,1.811,0,0,1,1.7,1.188L20.124,0" fill="none" stroke="#006a76" stroke-linecap="round" stroke-linejoin="round" stroke-miterlimit="10" stroke-width="1.494"/>
          </g>
          <g id="g597" transform="translate(27.915 -28.418)">
            <path id="path599" d="M0,0H-1.006V-6.037H0A3.019,3.019,0,0,1,3.019-3.019,3.019,3.019,0,0,1,0,0Z" fill="none" stroke="#006a76" stroke-linecap="round" stroke-linejoin="round" stroke-miterlimit="10" stroke-width="1.494"/>
          </g>
          <g id="g601" transform="translate(5.778 -28.418)">
            <path id="path603" d="M0,0H1.006V-6.037H0A3.019,3.019,0,0,0-3.019-3.019,3.019,3.019,0,0,0,0,0Z" fill="none" stroke="#006a76" stroke-linecap="round" stroke-linejoin="round" stroke-miterlimit="10" stroke-width="1.494"/>
          </g>
          <g id="g605" transform="translate(25.903 -0.747)">
            <path id="path607" d="M0,0V-3.22" fill="none" stroke="#006a76" stroke-linecap="round" stroke-linejoin="round" stroke-miterlimit="10" stroke-width="1.494"/>
          </g>
          <g id="g609" transform="translate(7.791 -0.747)">
            <path id="path611" d="M0,0V-3.22" fill="none" stroke="#006a76" stroke-linecap="round" stroke-linejoin="round" stroke-miterlimit="10" stroke-width="1.494"/>
          </g>
          <g id="g613" transform="translate(4.812 -39.161)">
            <path id="path615" d="M0,0A3.759,3.759,0,0,1-1.951,2.066" fill="none" stroke="#006a76" stroke-linecap="round" stroke-linejoin="round" stroke-miterlimit="10" stroke-width="1.494"/>
          </g>
          <g id="g617" transform="translate(21.562 -49.297)">
            <path id="path619" d="M0,0A4.492,4.492,0,0,0,3.541-.281" fill="none" stroke="#006a76" stroke-linecap="round" stroke-linejoin="round" stroke-miterlimit="10" stroke-width="1.494"/>
          </g>
          <g id="g621" transform="translate(11.711 -49.108)">
            <path id="path623" d="M0,0C.281-.133.569-.255.862-.366a12.086,12.086,0,0,1,12.15,2.145s.19.172.26.223a3.816,3.816,0,0,0,3.523.418,4.509,4.509,0,0,1-1.752,1.608q.26.374.493.766a6.178,6.178,0,0,0,2.3,2.119" fill="none" stroke="#006a76" stroke-linecap="round" stroke-linejoin="round" stroke-miterlimit="10" stroke-width="1.494"/>
          </g>
          <g id="g625" transform="translate(4.772 -34.326)">
            <path id="path627" d="M0,0V-3.852A12.071,12.071,0,0,1,.24-6.259,3.637,3.637,0,0,1-1.913-7.273,8.386,8.386,0,0,0,1.674-9.988q.231-.393.492-.766A4.5,4.5,0,0,1,.414-12.362a4.587,4.587,0,0,0,3.611-.521" fill="none" stroke="#006a76" stroke-linecap="round" stroke-linejoin="round" stroke-miterlimit="10" stroke-width="1.494"/>
          </g>
          <g id="g629" transform="translate(29.118 -40.638)">
            <path id="path631" d="M0,0A2.251,2.251,0,0,1-.438.051,12.1,12.1,0,0,1-.2,2.459V6.311" fill="none" stroke="#006a76" stroke-linecap="round" stroke-linejoin="round" stroke-miterlimit="10" stroke-width="1.494"/>
          </g>
          <g id="g633" transform="translate(14.592 -21.781)">
            <path id="path635" d="M0,0A3.188,3.188,0,0,1,4.508,0" fill="none" stroke="#006a76" stroke-linecap="round" stroke-linejoin="round" stroke-miterlimit="10" stroke-width="1.494"/>
          </g>
          <g id="g637" transform="translate(22.053 -29.34)">
            <path id="path639" d="M0,0H-2.013" fill="none" stroke="#006a76" stroke-linecap="round" stroke-linejoin="round" stroke-miterlimit="10" stroke-width="1.494"/>
          </g>
          <g id="g641" transform="translate(11.64 -29.34)">
            <path id="path643" d="M0,0H2.012" fill="none" stroke="#006a76" stroke-linecap="round" stroke-linejoin="round" stroke-miterlimit="10" stroke-width="1.494"/>
          </g>
          <g id="g645" transform="translate(45.378 -29.631)">
            <path id="path647" d="M0,0A10.655,10.655,0,0,0,4.875-8.958,10.666,10.666,0,0,0-5.943-19.622,10.7,10.7,0,0,0-16.454-9.188,10.659,10.659,0,0,0-11.417.106a.451.451,0,0,1,.182.545l-1.011,2.637a.4.4,0,0,0,.519.52l5.223-2a1.437,1.437,0,0,1,.545-.1h.167a10.655,10.655,0,0,0,2.6-.32" fill="none" stroke="#006a76" stroke-linecap="round" stroke-linejoin="round" stroke-miterlimit="10" stroke-width="1.494"/>
          </g>
          <g id="g649" transform="translate(34.145 -38.279)">
            <path id="path651" d="M0,0H4.77L0,4.77H4.77" fill="none" stroke="#006a76" stroke-linecap="round" stroke-linejoin="round" stroke-miterlimit="10" stroke-width="1.494"/>
          </g>
          <g id="g653" transform="translate(41.22 -44.531)">
            <path id="path655" d="M0,0H3.22L0,3.22H3.22" fill="none" stroke="#006a76" stroke-linecap="round" stroke-linejoin="round" stroke-miterlimit="10" stroke-width="1.494"/>
          </g>
          <g id="g657" transform="translate(47.129 -31.046)">
            <path id="path659" d="M0,0-15.084-15.084" fill="none" stroke="#006a76" stroke-linecap="round" stroke-linejoin="round" stroke-miterlimit="10" stroke-width="1.494"/>
          </g>
        </g>
      </g>
    </g>
  </g>
</svg>
