<svg xmlns="http://www.w3.org/2000/svg" xmlns:xlink="http://www.w3.org/1999/xlink" width="400" height="288.781" viewBox="0 0 400 288.781">
  <defs>
    <clipPath id="clip-path">
      <rect id="Rectángulo_373838" data-name="Rectángulo 373838" width="400" height="288.781" transform="translate(0 0)" fill="none"/>
    </clipPath>
  </defs>
  <g id="Grupo_1064796" data-name="Grupo 1064796" transform="translate(0 0.001)">
    <g id="Grupo_1064795" data-name="Grupo 1064795" transform="translate(0 -0.001)" clip-path="url(#clip-path)">
      <path id="Trazado_798488" data-name="Trazado 798488" d="M556.737,260.477c-11.024-6.582-20.131-12.591-39.321-27.261-21.693-16.583-76.026,4.138-100.346-65a85.652,85.652,0,0,1-4.594-22.423C404.746,27.53,548.8-37.227,656.609,22.716c28.328,15.75,98.768,71.226,70.486,167.1-19.517,66.159-96.393,114.824-170.359,70.662" transform="translate(-333.667 0.001)" fill="#ff8182"/>
      <path id="Trazado_798489" data-name="Trazado 798489" d="M849.69,350c.038-3.555-.125-7.95.39-16.938a7.259,7.259,0,0,1,.877-3.755,15,15,0,0,1,3.593-3.518c5.874-3.874,13.116-21.863,14.917-39.725a24.055,24.055,0,0,0,1.335-2.821,14.515,14.515,0,0,0,1.378-2.444,14.114,14.114,0,0,0,1.137-4.942c1.226-11.25-7.347-25.665-10.593-30.044-2.736-3.691-11.672-15.349-26.732-22.734a60.835,60.835,0,0,0-7.447-4.006,64.339,64.339,0,0,0-20.138-5.44,78.091,78.091,0,0,0-10.418-.4,63,63,0,0,0-10.433,1.121,53.352,53.352,0,0,0-10.109,3.01,23.745,23.745,0,0,0-2.421,1.072c-.791.4-1.607.739-2.374,1.18a41.3,41.3,0,0,0-4.491,2.827A50.184,50.184,0,0,0,754.1,237.966a45.22,45.22,0,0,0-4.266,9.585,42.325,42.325,0,0,0-1.366,6.094c-9.961-8.95-26.769-9.588-38.242,9.82-11.692,19.777,12.509,44.615,32.6,32.2a13,13,0,0,0,.561,5.88,15.378,15.378,0,0,0,1.7,3.282c-13.1,41.736-28.5,62.592-36.265,72.61a68.434,68.434,0,0,0-13.807,14.93c20.074,6.277,40.111,4.841,51.365,13.444,19.19,14.67,28.3,20.679,39.321,27.261a118.294,118.294,0,0,0,41.455,15.537c3.22-.337,6.482-.744,9.772-1.26-5.859-6.542-17.475-19.533-35.393-39.271-10.249-11.29-16.253-17.832-23.988-23.421a25.68,25.68,0,0,1,.81-5.975,51.6,51.6,0,0,1,5.952-14.689c.174.209.345.423.523.629l-.007-.012c4.052,5.528,8.677,9.61,12.672,11.316,2.58,1.475,5,2.575,6.91,3.505,2.542,1.241,4.6,1.562,6.472,1.115,2.654-.633,4.063-2.765,5.271-3.918,3.122-2.982,7.9-7.02,7.9-7.02.484-.4.955-.8,1.421-1.183l.016-.014.5-.417c.271-.226.879-.737.915-.767.892-.751,1.769-1.5,2.656-2.3l.012-.011c.6-.538,4.628-4.483,6.219-6.276.846-.953,2.116-2.278,2.955-2.479,2.348-.56,4.384.808,6.472,1.115,4.594.677,4.458-6.165,4.47-7.273M781.453,219.92a43.844,43.844,0,0,0-15.118,9.1c-1.923,1.785-12.871,11.949-15.1,27.091-.019.133-.035.261-.053.392q-.463-.569-.956-1.11a42.68,42.68,0,0,1,6.311-15.929,49.512,49.512,0,0,1,13.6-14.166,46.687,46.687,0,0,1,4.185-2.552c.711-.4,1.474-.711,2.208-1.073a21.134,21.134,0,0,1,2.255-.976,38.757,38.757,0,0,1,4.005-1.407c-.458.21-.9.421-1.344.633" transform="translate(-562.631 -172.591)" fill="#8edee0"/>
      <path id="Trazado_798490" data-name="Trazado 798490" d="M985.99,1233.533c-11.582-5.543-40.411-25.646-55.128-28.025a27.84,27.84,0,0,1,6.442,3.6c19.19,14.67,28.3,20.679,39.321,27.261,31.066,18.548,62.644,20.72,90.27,12.1q-1.18-3.3-2.358-6.856c-23.866,6.653-50.848,5.182-78.547-8.076" transform="translate(-753.555 -975.887)" fill="#8edee0"/>
      <path id="Trazado_798491" data-name="Trazado 798491" d="M431.99,824.037c-.169-.7-.323-1.411-.474-2.121-2.689.34-5.572.814-8.678,1.487a84.5,84.5,0,0,0,2.862,10.177c22.3,63.383,69.818,51.241,94.288,61.56-23.1-13.121-72.166-5.338-88-71.1" transform="translate(-342.298 -665.36)" fill="#84b4e4"/>
      <path id="Trazado_798492" data-name="Trazado 798492" d="M1119.949,327.926c-1.963-.235-2.754,1.773-4.49,1.565a1.064,1.064,0,0,1-.913-.709,1.619,1.619,0,0,1-.1-.793l1.161-9.711a1.681,1.681,0,0,0-1.47-1.869l-9.691-1.158a1.626,1.626,0,0,0-.575.03,1.12,1.12,0,0,0-.948.989c-.208,1.736,1.8,2.527,1.565,4.491a4.036,4.036,0,0,1-4.71,3.7l-.079-.01a4.036,4.036,0,0,1-3.7-4.71c.235-1.963,2.372-2.259,2.579-4a1.12,1.12,0,0,0-.688-1.185,1.627,1.627,0,0,0-.552-.165l-9.691-1.158a1.681,1.681,0,0,0-1.869,1.47l-1.157,9.686a1.634,1.634,0,0,1-.162.546,1.123,1.123,0,0,1-1.19.7c-1.736-.207-2.032-2.345-3.995-2.579a4.036,4.036,0,0,0-4.71,3.7c0,.013-.008.066-.01.079a4.036,4.036,0,0,0,3.7,4.71c1.963.235,2.754-1.772,4.49-1.565a1.124,1.124,0,0,1,.992.959,1.638,1.638,0,0,1,.029.569l-1.158,9.686a1.681,1.681,0,0,0,1.47,1.869l9.671,1.156a1.614,1.614,0,0,0,.493-.014,1.152,1.152,0,0,0,1.051-1.011c.208-1.736-1.8-2.527-1.565-4.49a4.036,4.036,0,0,1,4.71-3.7l.079.01a4.036,4.036,0,0,1,3.7,4.71c-.235,1.963-2.372,2.259-2.579,4a1.152,1.152,0,0,0,.783,1.231,1.613,1.613,0,0,0,.476.13l9.671,1.156a1.681,1.681,0,0,0,1.869-1.47l1.161-9.711a1.621,1.621,0,0,1,.28-.748,1.065,1.065,0,0,1,1.055-.474c1.736.208,2.032,2.345,4,2.579a4.036,4.036,0,0,0,4.71-3.7c0-.013.008-.066.01-.079a4.036,4.036,0,0,0-3.7-4.71" transform="translate(-869.845 -253.568)" fill="#12263f"/>
      <path id="Trazado_798493" data-name="Trazado 798493" d="M1159.91,493.976a1.681,1.681,0,0,0,1.228-2.036l-2.346-9.474a1.626,1.626,0,0,0-.232-.527,1.12,1.12,0,0,0-1.261-.537c-1.7.42-1.727,2.578-3.646,3.053a4.036,4.036,0,0,1-5.131-3.094l-.019-.077a4.036,4.036,0,0,1,3.094-5.132c1.919-.475,2.952,1.419,4.649,1a1.121,1.121,0,0,0,.865-1.063,1.627,1.627,0,0,0-.041-.574l-2.346-9.474a1.681,1.681,0,0,0-2.036-1.228l-9.469,2.345a1.633,1.633,0,0,1-.569.041,1.123,1.123,0,0,1-1.074-.866c-.42-1.7,1.474-2.73,1-4.649a4.036,4.036,0,0,0-5.132-3.094l-.078.019a4.036,4.036,0,0,0-3.094,5.132c.475,1.919,2.632,1.949,3.053,3.646a1.123,1.123,0,0,1-.546,1.267,1.628,1.628,0,0,1-.522.229l-9.469,2.345a1.681,1.681,0,0,0-1.228,2.036l2.341,9.454a1.608,1.608,0,0,0,.188.456,1.152,1.152,0,0,0,1.318.625c1.7-.42,1.727-2.578,3.646-3.053a4.036,4.036,0,0,1,5.131,3.094c0,.013.016.065.019.078a4.036,4.036,0,0,1-3.094,5.131c-1.919.475-2.952-1.419-4.649-1a1.152,1.152,0,0,0-.874,1.168,1.614,1.614,0,0,0,.047.491l2.341,9.454a1.681,1.681,0,0,0,2.036,1.228Z" transform="translate(-911.126 -371.118)" fill="#006a76"/>
      <path id="Trazado_798494" data-name="Trazado 798494" d="M1246.424,578.854c1.938.391,2.887-1.547,4.6-1.2a1.065,1.065,0,0,1,.854.78,1.617,1.617,0,0,1,.032.8l-1.933,9.587a1.681,1.681,0,0,0,1.316,1.98l9.568,1.929a1.62,1.62,0,0,0,.576.016,1.12,1.12,0,0,0,1.024-.91c.346-1.714-1.592-2.663-1.2-4.6a4.036,4.036,0,0,1,4.991-3.316l.078.016a4.036,4.036,0,0,1,3.316,4.991c-.391,1.938-2.545,2.062-2.89,3.776a1.12,1.12,0,0,0,.592,1.236,1.622,1.622,0,0,0,.537.209l9.568,1.929a1.681,1.681,0,0,0,1.98-1.316l1.928-9.563a1.634,1.634,0,0,1,.205-.532,1.124,1.124,0,0,1,1.242-.6c1.714.346,1.838,2.5,3.776,2.89a4.036,4.036,0,0,0,4.991-3.316l.016-.078a4.036,4.036,0,0,0-3.316-4.991c-1.938-.391-2.887,1.547-4.6,1.2a1.123,1.123,0,0,1-.912-1.035,1.631,1.631,0,0,1,.017-.57l1.927-9.563a1.681,1.681,0,0,0-1.316-1.98l-9.548-1.925a1.608,1.608,0,0,0-.492-.026,1.152,1.152,0,0,0-1.129.924c-.346,1.714,1.592,2.663,1.2,4.6a4.036,4.036,0,0,1-4.991,3.316l-.078-.016a4.036,4.036,0,0,1-3.316-4.991c.391-1.938,2.544-2.062,2.89-3.776a1.152,1.152,0,0,0-.682-1.289,1.613,1.613,0,0,0-.464-.167l-9.548-1.925a1.681,1.681,0,0,0-1.98,1.316l-1.933,9.587a1.619,1.619,0,0,1-.339.723,1.065,1.065,0,0,1-1.09.388c-1.714-.346-1.838-2.5-3.776-2.89a4.036,4.036,0,0,0-4.991,3.316l-.016.078a4.036,4.036,0,0,0,3.316,4.991" transform="translate(-1006.244 -454.394)" fill="#ffad01"/>
      <path id="Trazado_798495" data-name="Trazado 798495" d="M1302.679,296.475c0,1.977,2.087,2.525,2.087,4.273a1.065,1.065,0,0,1-.6.991,1.62,1.62,0,0,1-.776.19h-9.78a1.681,1.681,0,0,0-1.681,1.681v9.76a1.621,1.621,0,0,0,.1.567,1.12,1.12,0,0,0,1.095.824c1.748,0,2.3-2.087,4.273-2.087a4.036,4.036,0,0,1,4.237,4.237v.08a4.036,4.036,0,0,1-4.237,4.237c-1.977,0-2.524-2.087-4.273-2.087a1.12,1.12,0,0,0-1.095.824,1.623,1.623,0,0,0-.1.567v9.76a1.681,1.681,0,0,0,1.681,1.681h9.755a1.635,1.635,0,0,1,.562.1,1.124,1.124,0,0,1,.835,1.1c0,1.748-2.087,2.3-2.087,4.273a4.036,4.036,0,0,0,4.237,4.237h.08a4.036,4.036,0,0,0,4.237-4.237c0-1.977-2.087-2.525-2.087-4.273a1.124,1.124,0,0,1,.835-1.1,1.636,1.636,0,0,1,.562-.1h9.755a1.681,1.681,0,0,0,1.681-1.681v-9.74a1.613,1.613,0,0,0-.072-.488,1.152,1.152,0,0,0-1.129-.924c-1.748,0-2.3,2.087-4.273,2.087a4.036,4.036,0,0,1-4.237-4.237v-.08a4.036,4.036,0,0,1,4.237-4.237c1.977,0,2.525,2.087,4.273,2.087a1.152,1.152,0,0,0,1.129-.924,1.613,1.613,0,0,0,.072-.488v-9.74a1.681,1.681,0,0,0-1.681-1.681h-9.78a1.62,1.62,0,0,1-.776-.19,1.065,1.065,0,0,1-.6-.991c0-1.748,2.087-2.3,2.087-4.273a4.036,4.036,0,0,0-4.237-4.237h-.08a4.036,4.036,0,0,0-4.237,4.237" transform="translate(-1045.851 -236.573)" fill="#727997"/>
      <path id="Trazado_798496" data-name="Trazado 798496" d="M556.635,834.761c4.329-2.155,6.592-3.346,13.9-.649.651.24,9.215,2.569,16.211,3.842,4.489.817,6.55,1.547,8.431,2.73,2.394,1.506,4.257,6.206,3.131,10.016-1.745,5.9-7.776,7.47-8.431,7.628-2.633.635-6.613-.063-10.017-.8-10.052-2.183-27.654-15.655-27.238-18.788.07-.528.439-2.2,4.009-3.975" transform="translate(-447.358 -673.972)" fill="#f8383a"/>
      <path id="Trazado_798497" data-name="Trazado 798497" d="M0,1364.276c0,6.118,48.383,11.077,108.067,11.077s108.067-4.959,108.067-11.077S167.751,1353.2,108.067,1353.2,0,1358.158,0,1364.276" transform="translate(0 -1095.447)" fill="#006a76"/>
      <path id="Trazado_798498" data-name="Trazado 798498" d="M673.1,1426.194c0,5.227,23.193,9.464,51.8,9.464s51.8-4.237,51.8-9.464-23.193-9.464-51.8-9.464-51.8,4.237-51.8,9.464" transform="translate(-544.887 -1146.876)" fill="#006a76"/>
      <path id="Trazado_798499" data-name="Trazado 798499" d="M592.348,931.8a16.4,16.4,0,0,1,12.267.02c1.758.684,10.526,11.684,11.256,13.907C631.9,994.513,649.588,1004.46,650.2,1007a6.67,6.67,0,0,1-1.769,6.326c-1.024.609-5.468,2.974-15.363-1.627-8.063-3.749-44.573-49.953-46.625-57.475-3.466-12.7-.333-17.281.723-18.616a12.767,12.767,0,0,1,5.182-3.805" transform="translate(-473.455 -753.358)" fill="#ec7d40"/>
      <path id="Trazado_798500" data-name="Trazado 798500" d="M617.44,1000.021a42.361,42.361,0,0,0,18.041-11.333l.6-.647-.514-.716c-8.375-11.653-14.448-27.813-22.135-46.524-1.851-4.5-3.123-7.962-7.756-11.707a17.769,17.769,0,0,0-5.251-2.87,18.332,18.332,0,0,0-6.671-1.274,16.526,16.526,0,0,0-6.4,1.264,13.792,13.792,0,0,0-5.613,4.132c-3.044,3.847-3.361,10.615-.918,19.569,2.138,7.836,6.622,14.288,22.056,34a175.556,175.556,0,0,0,13.465,15.848l.471.467Z" transform="translate(-468.871 -748.77)" fill="#1f70b2"/>
      <path id="Trazado_798501" data-name="Trazado 798501" d="M370.139,1099.936c-4.914,14.284-18.451,30.656-20.592,32.413-2.318,1.9-7.608,6.871-15.842,8.044a31.134,31.134,0,0,1-5.59.309,18.967,18.967,0,0,1-8.59-2.318c-7.39-4.509-6.008-36.939,13.907-56.309,4.913-4.778,14.306-13.914,24.814-11.453,11.615,2.721,15.576,18.606,11.892,29.313" transform="translate(-255.331 -866.36)" fill="#1f70b2"/>
      <path id="Trazado_798502" data-name="Trazado 798502" d="M169.243,713.948c-3.107-.408-4.141,5.531-10.129,8.861-5.16,2.87-17.29,4.029-23.711,10.775-8.724,9.166-10.547,16.753-12.076,25.483-5.493,31.363-10.1,43.669-11.758,53.722-1.138,6.913-.987,9.384.116,13.272.691,2.434,1.564,5.511,3.609,6.869,5.546,3.681,18.7-5.945,26.078-12.806,15.442-14.355,22.61-30.629,30.547-55.184,0,0,8.818-27.278,2.794-44.124-.608-1.7-2.371-6.462-5.472-6.869" transform="translate(-89.683 -577.942)" fill="#f8383a"/>
      <path id="Trazado_798503" data-name="Trazado 798503" d="M397.016,737.431c-4.191,5.117-6.552,13.874-2.645,19.328,4.737,6.612,15.962,5.328,22.583,4.12,5.72-1.043,17.962-4.04,19.531-11.444,1.461-6.9-7.124-14.544-14.648-17.293-7.4-2.7-18.519-2.4-24.821,5.29" transform="translate(-317.642 -591.433)" fill="#e06f36"/>
      <path id="Trazado_798504" data-name="Trazado 798504" d="M307.348,713.948c3.1.407,4.864,5.169,5.472,6.869,4.752,13.289.269,33.065-1.837,40.826-10.961-2.023-21.173-8.567-26.1-17.873a32.249,32.249,0,0,1-3.5-15.348c5.873-2.549,12.4-3.7,15.834-5.614,5.987-3.33,7.021-9.269,10.129-8.861" transform="translate(-227.787 -577.942)" fill="#e06f36"/>
      <path id="Trazado_798505" data-name="Trazado 798505" d="M602.171,864.088c-.265.133-16.766,2.121-24.652.663s.331,6.627.331,6.627,26.707-1.856,26.309-1.723-1.988-5.567-1.988-5.567" transform="translate(-464.745 -699.5)" fill="#1e1735"/>
      <path id="Trazado_798506" data-name="Trazado 798506" d="M216.9,985.718c-3.966,7.031-22,43.3-25.194,48.834-4.206,7.3-9.165,9.849-11.7,10.609-12.928,3.872-25.522.646-30.736-2.808a24.44,24.44,0,0,1-7.333-7.645A21.681,21.681,0,0,1,138.5,1024.1c-.468-16.712,11.45-20.077,20.282-27.927a136.408,136.408,0,0,0,16.382-17.63,86.546,86.546,0,0,1,24.027-20.594c10.647-6,15.053-4.919,16.694-4.369,4.575,1.535,8.722,6.052,9.361,11.077.858,6.751-1.878,9.589-8.35,21.063" transform="translate(-112.109 -771.583)" fill="#1f70b2"/>
      <path id="Trazado_798507" data-name="Trazado 798507" d="M462.6,1124.207a47.63,47.63,0,0,0-2.958,4.849c-.911,1.656-1.772,3.33-2.627,5.006-1.7,3.356-3.34,6.728-4.983,10.094s-3.273,6.735-4.953,10.082L442,1164.312a72.4,72.4,0,0,0,6.613-9.222c1.986-3.223,3.77-6.561,5.425-9.955s3.168-6.853,4.571-10.351q1.049-2.624,2.024-5.275c.65-1.769,1.276-3.539,1.965-5.3" transform="translate(-357.811 -910.072)" fill="#1d1d1b"/>
      <path id="Trazado_798508" data-name="Trazado 798508" d="M472.446,868.981c2.531-2.318,5.347-3.116,11.092-4.127,4.031-.709,8.856-.419,15.337-1.419,3.777-.583,16.585-4.26,18.067-4.385a21.5,21.5,0,0,1,9.028,1.924c2.221.921,7.33,4.938,7.937,6.411a3.829,3.829,0,0,1,.387,2.563,9.729,9.729,0,0,0-.151,1.451c-.115.782.166.89.1,1.644a4.175,4.175,0,0,1-.919,2.08c-.57.782-.78.645-1.112,1.258-.435.8-.113,1.1-.532,2.031a3.391,3.391,0,0,1-1.161,1.451c-.574.386-.76.2-1.6.58-.882.4-.953,2.258-3.99,1.991-2.591-.228-8.83-7.878-10.81-7.166-3.911,1.406-15.7,9.285-20.931,12.145a29.53,29.53,0,0,1-16.347,3.724c-2.6-.152-4.792-.4-6.927-2.714-4.366-4.722-2.723-14.632,2.531-19.443" transform="translate(-378.377 -695.399)" fill="#ec7d40"/>
      <path id="Trazado_798509" data-name="Trazado 798509" d="M845.4,1334.271s11.349.273,14.288-3.111c.568-.654.562-1.575.19-3.158-.463-1.965-1.211-4.712-3.348-5.789-1.824-.919-2.8-.07-4.436-.665-21.037-7.631-23.259-16.932-25.791-15.9-.572.234-1.634,2.136-3.471,3.17-5.407,3.044-5.255-.7-9.285,1.328-4.818,2.421-8.293,10.165-4.164,15.186,3.022,3.673,6.541,1.918,20.825,5.4,4.622,1.127,4.3,2.667,15.19,3.533" transform="translate(-653.734 -1056.892)" fill="#fff"/>
      <path id="Trazado_798510" data-name="Trazado 798510" d="M817.186,1409.329c3.022,3.673,6.541,1.919,20.825,5.4" transform="translate(-661.531 -1140.885)" fill="none" stroke="#1d1d1b" stroke-miterlimit="10" stroke-width="1"/>
      <path id="Trazado_798511" data-name="Trazado 798511" d="M924.646,1330.2a2.116,2.116,0,0,0,.533-1.465,8.08,8.08,0,0,0-.16-1.582,17.56,17.56,0,0,0-.809-3.071,6.476,6.476,0,0,0-1.842-2.7,4.472,4.472,0,0,0-1.5-.807,5.023,5.023,0,0,0-1.682-.212,6.389,6.389,0,0,1-1.463-.073,4.543,4.543,0,0,1-.674-.214l-.727-.283c-.973-.369-1.929-.776-2.887-1.178-1.91-.817-3.793-1.694-5.625-2.665a53.351,53.351,0,0,1-10.3-6.885c-.786-.676-1.542-1.385-2.3-2.1a27.156,27.156,0,0,0-2.363-2.128,2.778,2.778,0,0,0-.769-.395,1.351,1.351,0,0,0-.929.064,2.432,2.432,0,0,0-.631.592c-.171.2-.331.41-.494.613a9.59,9.59,0,0,1-2.238,2.152,8.931,8.931,0,0,0,2.471-1.947l.54-.566a2.275,2.275,0,0,1,.53-.449.89.89,0,0,1,.6.009,2.313,2.313,0,0,1,.593.369,27.91,27.91,0,0,1,2.169,2.2c.716.768,1.464,1.512,2.233,2.237a43.54,43.54,0,0,0,4.94,3.968,55.035,55.035,0,0,0,5.429,3.258q2.811,1.452,5.738,2.649c.98.383,1.958.77,2.951,1.119l.742.268a4.91,4.91,0,0,0,.828.232,7.169,7.169,0,0,0,1.665.024,4.188,4.188,0,0,1,1.423.114,3.967,3.967,0,0,1,1.281.614,5.9,5.9,0,0,1,1.784,2.336,18.328,18.328,0,0,1,1.011,2.924,8,8,0,0,1,.293,1.517,2.033,2.033,0,0,1-.366,1.462" transform="translate(-718.688 -1055.935)" fill="#1f70b2"/>
      <path id="Trazado_798512" data-name="Trazado 798512" d="M426.44,660.914a12.917,12.917,0,0,0,4.773-4.308c3.21-4.986,1.658-10.993-.466-19.209-1.416-5.478-2.123-8.217-4.191-10.827-4.036-5.1-9.767-6.649-13.156-7.567a30.5,30.5,0,0,0-12.806-.7c-2.99.49-6.765,1.109-10.478,3.958-3.827,2.937-5.5,6.644-6.869,9.663-1.2,2.643-1.913,4.23-1.863,6.4.058,2.52,1.136,5.28,4.89,9.2,2.887,3.012,8.379,7.776,18.511,11.409,8,2.869,15.278,5.479,21.654,1.979" transform="translate(-308.738 -500.226)" fill="#1e1735"/>
      <path id="Trazado_798513" data-name="Trazado 798513" d="M307.093,666.791c10.862-3.718,8.038-22.929-6.571-19.777-14.63,3.156-10.871,25.748,6.571,19.777" transform="translate(-235.952 -523.491)" fill="#1e1735"/>
      <path id="Trazado_798514" data-name="Trazado 798514" d="M466.6,958.456c.92,8.416,9.29,22.849,25.447,34.543,31.395,22.721,30.557,31.174,35,35.28,5.663,5.235,13.6,4.2,17.286-.9a8.011,8.011,0,0,0-1.216-10.525c-1.406-1.376-3.056-1.678-3.485-2.065-17.918-16.139-31.72-43.512-38.365-54-8-12.625-11.317-15.028-15.51-17.277-4.748-2.547-10.726-1.034-14.822,3.484-3.283,3.621-4.657,8.5-4.333,11.459" transform="translate(-377.684 -762.798)" fill="#f79556"/>
      <path id="Trazado_798515" data-name="Trazado 798515" d="M755.106,1320.079c-.741.463.363,2.491,1.1,6.03.488,2.338-.089,6.5-.058,7.928a7.53,7.53,0,0,0,1.208,4.717,5.915,5.915,0,0,0,2.416,1.841c1.7.732,27.182,3.718,30.477,3.8a26.236,26.236,0,0,0,14.266-4.084c.642-.421,4.318-2.887,4.659-5.752a4.314,4.314,0,0,0-.46-2.819c-.212-.328-1.884-3.119-4.223-3.983a7.417,7.417,0,0,0-2.359-.345c-8.713-1.361-28.386-14.78-29.4-14.831-1.177-.059-1.771.808-2.306,1.323-3.5,3.378-3.435,8.147-9.112,8.4-4.832.218-5.268-2.812-6.211-2.223" transform="translate(-611.078 -1062.559)" fill="#fff"/>
      <path id="Trazado_798516" data-name="Trazado 798516" d="M880.483,1340.318c.642-.421,4.318-2.887,4.659-5.752a4.313,4.313,0,0,0-.46-2.819c-.211-.328-1.884-3.119-4.223-3.983a7.412,7.412,0,0,0-2.358-.345c-8.713-1.361-28.386-14.78-29.4-14.831" transform="translate(-687.044 -1062.571)" fill="#fff"/>
      <path id="Trazado_798517" data-name="Trazado 798517" d="M880.483,1340.318a15.174,15.174,0,0,0,2.62-1.933,8.375,8.375,0,0,0,1.993-2.64,5.435,5.435,0,0,0,.394-1.657,4.763,4.763,0,0,0-.146-1.725,3.374,3.374,0,0,0-.363-.825c-.137-.228-.289-.469-.443-.7a13.576,13.576,0,0,0-1.015-1.326,7.716,7.716,0,0,0-2.689-2.093,5.367,5.367,0,0,0-1.705-.435c-.286-.029-.585-.034-.833-.044l-.082-.005a.609.609,0,0,1-.062-.01l-.191-.039-.383-.078a32.193,32.193,0,0,1-6-2.125c-1.964-.859-3.887-1.828-5.8-2.822s-3.8-2.034-5.692-3.074l-5.647-3.179-2.833-1.583-1.429-.772-.726-.367a3.714,3.714,0,0,0-.754-.3,3.679,3.679,0,0,1,.716.372l.684.435,1.358.885,2.715,1.776c1.819,1.172,3.646,2.332,5.5,3.448a107.5,107.5,0,0,0,11.475,6.147,32.059,32.059,0,0,0,6.226,2.138l.414.074.207.037c.025.006.1.013.139.016l.121.005c.292,0,.534,0,.787.023a4.419,4.419,0,0,1,1.431.329,7.257,7.257,0,0,1,2.437,1.793,12.811,12.811,0,0,1,1,1.211c.156.214.3.425.452.655a2.851,2.851,0,0,1,.32.64,4.816,4.816,0,0,1-.071,2.982,6.886,6.886,0,0,1-.722,1.383,11.673,11.673,0,0,1-1,1.242,17.213,17.213,0,0,1-2.414,2.139" transform="translate(-687.044 -1062.571)" fill="#1f70b2"/>
      <path id="Trazado_798518" data-name="Trazado 798518" d="M770.135,1412.323c4.232.866,8.466,1.687,12.724,2.375,2.126.362,4.26.682,6.4.983s4.277.575,6.447.779l3.232.245c1.077.073,2.167.149,3.274.161a17.35,17.35,0,0,0,6.612-1.059,20.125,20.125,0,0,0,9.9-8.369,26.27,26.27,0,0,1-4.747,4.287,20.7,20.7,0,0,1-2.71,1.61,19.407,19.407,0,0,1-2.893,1.173,17.669,17.669,0,0,1-6.121.688c-1.048-.043-2.108-.129-3.178-.226l-3.212-.265c-4.25-.408-8.535-.943-12.82-1.365-2.142-.227-4.289-.424-6.438-.615-2.152-.163-4.3-.363-6.468-.4" transform="translate(-623.443 -1139.354)" fill="#1f70b2"/>
      <path id="Trazado_798519" data-name="Trazado 798519" d="M850.623,1337.484a20.418,20.418,0,0,1,1.115-2.752,11.52,11.52,0,0,1,.708-1.25,8.675,8.675,0,0,1,.826-1.117,4.395,4.395,0,0,1,1.009-.84c.357-.223.689-.426,1.036-.625a7.216,7.216,0,0,1,1.151-.5c.427-.155.9-.236,1.434-.387l.041-.171a3.612,3.612,0,0,0-4.78.346,8.161,8.161,0,0,0-1.021,1.336,9.973,9.973,0,0,0-.736,1.42,12.576,12.576,0,0,0-.492,1.479,14.5,14.5,0,0,0-.455,3Z" transform="translate(-688.467 -1075.942)" fill="#1b3e70"/>
      <path id="Trazado_798520" data-name="Trazado 798520" d="M872.768,1349.669a20.432,20.432,0,0,1,1.115-2.752,11.525,11.525,0,0,1,.708-1.251,8.683,8.683,0,0,1,.826-1.117,4.388,4.388,0,0,1,1.009-.84c.357-.223.689-.426,1.036-.625a7.267,7.267,0,0,1,1.152-.5c.427-.155.9-.236,1.433-.386l.041-.171a3.612,3.612,0,0,0-4.78.346,8.169,8.169,0,0,0-1.021,1.336,9.977,9.977,0,0,0-.736,1.421,12.546,12.546,0,0,0-.492,1.479,14.494,14.494,0,0,0-.455,3Z" transform="translate(-706.394 -1085.806)" fill="#1b3e70"/>
      <path id="Trazado_798521" data-name="Trazado 798521" d="M894.47,1361.153a19.739,19.739,0,0,1,1.078-2.661,11.084,11.084,0,0,1,.685-1.209,8.4,8.4,0,0,1,.8-1.08,4.249,4.249,0,0,1,.976-.812c.345-.216.667-.412,1-.6a7,7,0,0,1,1.114-.483c.413-.15.867-.228,1.386-.374l.039-.166a3.492,3.492,0,0,0-4.622.334,7.878,7.878,0,0,0-.987,1.292,9.613,9.613,0,0,0-.712,1.373,12.17,12.17,0,0,0-.476,1.43,14.042,14.042,0,0,0-.44,2.9Z" transform="translate(-723.966 -1095.326)" fill="#1b3e70"/>
      <path id="Trazado_798522" data-name="Trazado 798522" d="M915.345,1372.368a19.73,19.73,0,0,1,1.078-2.661,11.143,11.143,0,0,1,.685-1.209,8.426,8.426,0,0,1,.8-1.08,4.25,4.25,0,0,1,.976-.812c.345-.216.667-.412,1-.6a7,7,0,0,1,1.114-.483c.413-.15.867-.228,1.386-.374l.039-.166a3.493,3.493,0,0,0-4.622.334,7.882,7.882,0,0,0-.987,1.292,9.631,9.631,0,0,0-.712,1.373,12.128,12.128,0,0,0-.476,1.43,14.019,14.019,0,0,0-.44,2.9Z" transform="translate(-740.865 -1104.405)" fill="#1b3e70"/>
      <path id="Trazado_798523" data-name="Trazado 798523" d="M513.914,1012.233a43.753,43.753,0,0,0,15.492-8.632l.834-.731-.753-.813c-11.7-12.63-21.268-28.7-27.6-39.34-1.657-2.784-3.089-5.188-4.3-7.093-8.146-12.851-11.589-15.332-15.912-17.65a11.434,11.434,0,0,0-5.463-1.361,14.647,14.647,0,0,0-10.669,5.072c-3.649,4.025-4.946,9.2-4.607,12.3.947,8.663,9.452,23.405,25.888,35.3,11.84,8.569,20.322,15.967,25.93,22.617l.468.555Z" transform="translate(-373.098 -758.209)" fill="#1f70b2"/>
      <path id="Trazado_798524" data-name="Trazado 798524" d="M596.784,1212.9c2.3,1.818,4.631,3.6,6.893,5.468s4.5,3.753,6.693,5.689,4.317,3.944,6.363,6.02a82.069,82.069,0,0,1,5.773,6.535l.388.488.637-.195a39.18,39.18,0,0,0,4.432-1.624,38.272,38.272,0,0,0,4.206-2.172,34.278,34.278,0,0,0,3.882-2.688,28.628,28.628,0,0,0,3.429-3.211l-.123-.14c-1.284.88-2.579,1.713-3.9,2.494s-2.668,1.5-4.037,2.163-2.762,1.274-4.18,1.818-2.834,1.05-4.3,1.543l1.025.292c-.479-.55-.981-1.107-1.482-1.654s-1.019-1.081-1.545-1.6c-1.034-1.062-2.1-2.087-3.18-3.1-2.16-2.017-4.392-3.946-6.674-5.809s-4.616-3.654-6.989-5.389q-1.778-1.3-3.58-2.573l-3.624-2.506Z" transform="translate(-483.111 -981.75)" fill="#1d1d1b"/>
      <path id="Trazado_798525" data-name="Trazado 798525" d="M549.286,1002.056c-11.7-12.63-21.268-28.7-27.6-39.34-1.657-2.784-3.089-5.188-4.3-7.093-8.146-12.851-11.589-15.332-15.911-17.65a11.437,11.437,0,0,0-5.463-1.361,14.647,14.647,0,0,0-10.669,5.072" transform="translate(-392.898 -758.209)" fill="none" stroke="#1d1d1b" stroke-miterlimit="10" stroke-width="1"/>
      <path id="Trazado_798526" data-name="Trazado 798526" d="M618.458,1008.158c-2.24-2.559-4.435-5.146-6.494-7.846s-4.056-5.44-5.969-8.241c-3.842-5.591-7.425-11.355-10.858-17.211l-2.549-4.41-2.527-4.437c-1.716-2.951-3.432-5.9-5.4-8.711a69.739,69.739,0,0,0-6.383-8.1,27.774,27.774,0,0,0-3.881-3.474,21.955,21.955,0,0,0-4.535-2.485l-.106.2a28.755,28.755,0,0,1,3.994,3.078,32.659,32.659,0,0,1,3.339,3.712c.52.652,1.005,1.339,1.509,2.006.48.691.975,1.365,1.435,2.072l.709,1.044.693,1.057c.466.7.914,1.417,1.363,2.132,1.829,2.837,3.541,5.765,5.365,8.619l5.443,8.635c3.637,5.762,7.429,11.438,11.474,16.929a150.2,150.2,0,0,0,13.208,15.59Z" transform="translate(-461.234 -763.574)" fill="#1d1d1b"/>
      <path id="Trazado_798527" data-name="Trazado 798527" d="M479.314,1081.98a37.451,37.451,0,0,0,3.849,7.625,51.44,51.44,0,0,0,5.249,6.765,55.826,55.826,0,0,0,6.243,5.846,47.351,47.351,0,0,0,7.088,4.747c-2.052-1.977-4.119-3.879-6.118-5.844s-3.956-3.952-5.841-6.007-3.7-4.171-5.437-6.359-3.392-4.447-5.034-6.774" transform="translate(-388.016 -875.888)" fill="#1d1d1b"/>
      <path id="Trazado_798528" data-name="Trazado 798528" d="M234.861,823.829c3.2,2.468,6.609,2.851,12.63,4.052,6.65,1.326,4.889,1.539,21.681,8.305,6.762,2.725,10.521,3.979,15.411,3.489,2.51-.251,5.886-.638,8.142-3.2,3.58-4.066,2.986-12.45-1.018-15.7-2.385-1.936-3.539-1.691-11.195-4.707-7-2.756-10.879-4.285-15.265-7.269-4.558-3.1-9.009-10.307-18.9-12.648-.61-.144-8.277-2.168-13.521,3.108-4.121,4.147-3.878,9.685-3.78,11.922.059,1.348.525,8.567,5.815,12.648" transform="translate(-185.385 -644.098)" fill="#f8383a"/>
      <path id="Trazado_798529" data-name="Trazado 798529" d="M259.75,943.585a11.475,11.475,0,0,0,1.806,1.466,14.145,14.145,0,0,0,2.079,1.1,29.962,29.962,0,0,0,4.445,1.4c1.491.383,2.984.7,4.463,1.039a37.107,37.107,0,0,1,4.3,1.162c1.379.488,2.771,1.1,4.185,1.683s2.833,1.159,4.275,1.681a89.074,89.074,0,0,0,8.76,2.824c-2.684-1.514-5.426-2.865-8.175-4.193-1.37-.673-2.749-1.322-4.133-1.969s-2.78-1.288-4.28-1.826a29.462,29.462,0,0,0-4.569-1.132c-1.515-.272-3.026-.507-4.531-.724-3-.466-5.958-.918-8.624-2.514" transform="translate(-210.274 -763.854)" fill="#1d1d1b"/>
      <path id="Trazado_798530" data-name="Trazado 798530" d="M472.446,872.8c2.531-2.318,5.347-3.116,11.092-4.127,4.031-.71,8.856-.419,15.337-1.419,2.661-.41,9.8-2.355,14.306-3.513,2.22,1.638,4.15,5.608,1.345,15.2l-.406.143c-3.911,1.406-15.7,9.285-20.931,12.145a29.531,29.531,0,0,1-16.347,3.724c-2.6-.152-4.792-.4-6.927-2.714-4.366-4.722-2.723-14.632,2.531-19.443" transform="translate(-378.377 -699.22)" fill="#f8383a"/>
      <path id="Trazado_798531" data-name="Trazado 798531" d="M472.691,842.919c.294-2.087,1.652-3.668,4.847-5.761a6,6,0,0,1,3.235-1.216c1.2-.2,1.239.191,3.4.041a5.431,5.431,0,0,1,2.457.123c.67.238.608.428,1.229.655,1.191.437,1.87-.094,3.03.082a4.655,4.655,0,0,1,2.252,1.229c3.982,3.156,5.946,5.9,5.9,7.123-.03.758-5.006.85-6.846.831-3.2-.034-3.672,1.081-6.933,2-.169.048-.348.089-.533.126a2.182,2.182,0,0,1-1.478,1.714,2.245,2.245,0,0,1-2.33-.906,2.036,2.036,0,0,1-1.379,1.592,2.118,2.118,0,0,1-2.229-.916,1.724,1.724,0,0,1-.681.427c-1.072.358-2.036-.319-2.734-1.723-.119-.239-1.527-3.118-1.2-5.419" transform="translate(-382.616 -676.669)" fill="#f79556"/>
      <path id="Trazado_798532" data-name="Trazado 798532" d="M508.773,855.781a10.828,10.828,0,0,0-1.426,2.388,7.886,7.886,0,0,0-.452,1.355,5.1,5.1,0,0,0-.113.746,2.473,2.473,0,0,0,0,.424c.01.117.017.236.032.35a11.837,11.837,0,0,0,.721,2.706,15.144,15.144,0,0,0,.839,1.814.177.177,0,0,0,.33-.105c-.074-.664-.19-1.311-.3-1.952-.16-.883-.343-1.761-.452-2.6-.016-.105-.022-.206-.034-.309s-.006-.181-.008-.276a5.371,5.371,0,0,1,.05-.6c.055-.414.145-.841.24-1.272.187-.866.428-1.74.574-2.667" transform="translate(-410.245 -692.775)" fill="#e06f36"/>
      <path id="Trazado_798533" data-name="Trazado 798533" d="M531.744,856.579a.084.084,0,0,0-.145-.071,6.9,6.9,0,0,0-1.5,4.544,9.575,9.575,0,0,0,.435,2.522,8.735,8.735,0,0,0,.542,1.334.257.257,0,0,0,.482-.149c-.052-.46-.1-.913-.143-1.367-.078-.8-.145-1.595-.172-2.376a13.967,13.967,0,0,1,.128-2.323c.086-.691.237-1.383.374-2.114" transform="translate(-429.125 -693.341)" fill="#e06f36"/>
      <path id="Trazado_798534" data-name="Trazado 798534" d="M488.074,856.942a6.379,6.379,0,0,0-1.541,2.383,6.081,6.081,0,0,0-.342,2.91,7.328,7.328,0,0,0,.14.734c.063.227.126.452.2.675.144.445.305.882.489,1.309a15.143,15.143,0,0,0,.963,1.878.158.158,0,0,0,.291-.1c-.1-.7-.253-1.377-.4-2.049l-.3-1.32-.146-.654c-.039-.206-.084-.409-.1-.616a8.29,8.29,0,0,1,.072-2.527,19.885,19.885,0,0,1,.675-2.619" transform="translate(-393.543 -693.715)" fill="#e06f36"/>
    </g>
  </g>
</svg>
