<svg xmlns="http://www.w3.org/2000/svg" xmlns:xlink="http://www.w3.org/1999/xlink" width="400" height="336" viewBox="0 0 400 336">
  <defs>
    <clipPath id="clip-path">
      <path id="Trazado_798434" data-name="Trazado 798434" d="M213.151,410.787a129.851,129.851,0,1,0,259.7,0c0-71.715-58.137-170.149-129.851-170.149S213.151,339.072,213.151,410.787" transform="translate(-213.151 -240.638)" fill="none"/>
    </clipPath>
    <clipPath id="clip-path-2">
      <rect id="Rectángulo_373829" data-name="Rectángulo 373829" width="20.999" height="32.045" fill="none"/>
    </clipPath>
    <clipPath id="clip-path-3">
      <rect id="Rectángulo_373830" data-name="Rectángulo 373830" width="110.605" height="104.769" fill="none"/>
    </clipPath>
    <clipPath id="clip-path-4">
      <rect id="Rectángulo_373831" data-name="Rectángulo 373831" width="28.892" height="18.498" fill="none"/>
    </clipPath>
  </defs>
  <g id="Grupo_1064955" data-name="Grupo 1064955" transform="translate(-10940 10033)">
    <rect id="Rectángulo_373820" data-name="Rectángulo 373820" width="400" height="336" rx="20" transform="translate(10940 -10033)" fill="#ff8182"/>
    <g id="Grupo_1064777" data-name="Grupo 1064777" transform="translate(10796.087 -10256.638)">
      <g id="Grupo_1064776" data-name="Grupo 1064776" transform="translate(213.151 240.638)" clip-path="url(#clip-path)">
        <path id="Trazado_798410" data-name="Trazado 798410" d="M472.853,400.489A129.851,129.851,0,1,1,343,270.638,129.851,129.851,0,0,1,472.853,400.489" transform="translate(-213.151 -230.34)" fill="#8edee0"/>
        <path id="Trazado_798411" data-name="Trazado 798411" d="M258.4,333.982s22.778-12.678,56.225-21.8,66.885-12.249,66.885-12.249-35.649,26.623-59.7,31.6-63.411,2.45-63.411,2.45" transform="translate(-197.62 -220.285)" fill="#006a76"/>
        <circle id="Elipse_4744" data-name="Elipse 4744" cx="4.374" cy="4.374" r="4.374" transform="matrix(0.987, -0.16, 0.16, 0.987, 35.999, 86.016)" fill="none" stroke="#2c2d40" stroke-miterlimit="10" stroke-width="0.527"/>
        <circle id="Elipse_4745" data-name="Elipse 4745" cx="4.374" cy="4.374" r="4.374" transform="translate(178.013 43.61)" fill="none" stroke="#2c2d40" stroke-miterlimit="10" stroke-width="0.527"/>
        <circle id="Elipse_4746" data-name="Elipse 4746" cx="4.374" cy="4.374" r="4.374" transform="matrix(0.987, -0.16, 0.16, 0.987, 38.345, 61.379)" fill="none" stroke="#2c2d40" stroke-miterlimit="10" stroke-width="0.527"/>
        <path id="Trazado_798412" data-name="Trazado 798412" d="M255.382,316.36a2.187,2.187,0,1,0,2.187-2.187,2.187,2.187,0,0,0-2.187,2.187" transform="translate(-198.655 -215.397)" fill="#2c2d40"/>
        <path id="Trazado_798413" data-name="Trazado 798413" d="M339.006,264.573a2.187,2.187,0,1,0,2.187-2.187,2.187,2.187,0,0,0-2.187,2.187" transform="translate(-169.951 -233.173)" fill="#2c2d40"/>
        <path id="Trazado_798414" data-name="Trazado 798414" d="M345.993,293.077a2.187,2.187,0,1,0,2.187-2.187,2.187,2.187,0,0,0-2.187,2.187" transform="translate(-167.552 -223.389)" fill="#2c2d40"/>
        <path id="Trazado_798415" data-name="Trazado 798415" d="M350.046,300.853s9.522,2.963,17.812,2.618,19.022-6.218,19.022-6.218-2.965,18.683-9.349,24.526c7.044-.96,13.887-4.539,17.213-10.821,1.081,3.93,2.172,7.94,2,12.013-.281,6.567-3.947,12.722-9.07,16.839s-11.578,6.339-18.094,7.2" transform="translate(-166.161 -221.205)" fill="#2c2d40"/>
        <path id="Trazado_798416" data-name="Trazado 798416" d="M293.762,411.453l55.42-90.624,35.553-11.5s9.411,17.775,12.547,27.883a171.342,171.342,0,0,1,4.88,21.612l13.14,23.6a6.387,6.387,0,0,1-3.239,9.048l-6.031,2.378s-1.476,32.63-2.5,37.608c-1.181,5.764-3.616,11.935-8.913,14.494a20.317,20.317,0,0,1-8.206,1.547,101.11,101.11,0,0,1-28.251-3.037l-30.141,53.646-60.057-41.692Z" transform="translate(-194.334 -217.06)" fill="#e47573"/>
        <path id="Trazado_798417" data-name="Trazado 798417" d="M259.651,333.982c-11.4,20.724.184,42.754,3.475,51.163s8.141,16.111,13.214,23.581c2.321,3.417,4.717,6.841,6.2,10.7s1.968,8.266.411,12.093a5.88,5.88,0,0,0,5.141-2.474c-1.378,1.813-2.653,4.683-.833,6.054,1.2.905,2.907.359,4.3-.22,3.713-1.546,7.479-3.124,10.618-5.636,4.117-3.294,6.877-7.967,9.246-12.676a125.939,125.939,0,0,0,11.435-34.309c5.339-.638-15.858,17.864,10.6,4.362s21.878-29.961,21.085-36.843c3.906-.171,39.515-27.361,41.571-24.172.133.2.073.067.2.277,3.077-4.661,2.449-11.111-.512-15.848s-7.877-7.952-13.034-10.1c0,0-20.471,15.169-60.452,24.321s-62.657,9.728-62.657,9.728" transform="translate(-198.874 -220.285)" fill="#2c2d40"/>
        <path id="Trazado_798418" data-name="Trazado 798418" d="M294.6,359.567a28.671,28.671,0,0,0,10.843,20.618,14.882,14.882,0,0,0,6.7,3.222c5.583.866,11.038-3.315,13.191-8.536s1.645-11.165.385-16.672c-1.628-7.118-5.251-14.748-12.2-16.99-11.2-3.613-19.505,8.462-18.916,18.358" transform="translate(-185.202 -206.341)" fill="#e47573"/>
        <g id="Grupo_1064769" data-name="Grupo 1064769" transform="translate(113.369 139.414)" style="mix-blend-mode: multiply;isolation: isolate">
          <g id="Grupo_1064768" data-name="Grupo 1064768">
            <g id="Grupo_1064767" data-name="Grupo 1064767" clip-path="url(#clip-path-2)">
              <path id="Trazado_798419" data-name="Trazado 798419" d="M318.291,375.768a13.915,13.915,0,0,1-6.038-4.654,2.832,2.832,0,0,1-.639-1.392c-.081-.985.747-1.782,1.5-2.421l4.586-3.867a1.761,1.761,0,0,0,.736-2.206c-1.161-5.475-2.58-11.391-6.926-14.92a7.853,7.853,0,0,0-4.066-1.854,7.643,7.643,0,0,0-6.008,2.5,20.76,20.76,0,0,0-3.6,5.647s-2.126,11.344,5.249,18.888,15.207,4.28,15.207,4.28" transform="translate(-297.55 -344.426)" fill="#e47573"/>
            </g>
          </g>
        </g>
        <path id="Trazado_798420" data-name="Trazado 798420" d="M297.762,352.838a18.014,18.014,0,0,1,3.33-6.229,9.434,9.434,0,0,1,3-2.218,6.926,6.926,0,0,1,3.867-.592,8.42,8.42,0,0,1,3.608,1.478,14.172,14.172,0,0,1,2.771,2.548,20.726,20.726,0,0,1,3.448,6.458,55.683,55.683,0,0,1,1.714,6.871,5.327,5.327,0,0,1,.128,1.1,2.512,2.512,0,0,1-.477,1.475,9.016,9.016,0,0,1-1.5,1.351c-.9.728-1.811,1.44-2.729,2.145a14.4,14.4,0,0,0-2.406,2.061,1.006,1.006,0,0,0-.173.975,5.96,5.96,0,0,0,.787,1.318,14.9,14.9,0,0,0,5.083,4.43,13.073,13.073,0,0,1-6.025-3.65,6.743,6.743,0,0,1-1.161-1.539,2.56,2.56,0,0,1,.075-2.348,5.8,5.8,0,0,1,1.286-1.554l1.281-1.178c.85-.786,1.706-1.565,2.576-2.328a9.4,9.4,0,0,0,1.052-.991c.036-.082.012-.019.017-.157a4.025,4.025,0,0,0-.122-.617,60.452,60.452,0,0,0-1.762-6.556,19.185,19.185,0,0,0-2.927-5.789,9.293,9.293,0,0,0-4.881-3.592,6.784,6.784,0,0,0-5.687,1.776,22.59,22.59,0,0,0-4.178,5.357" transform="translate(-184.108 -205.25)" fill="#2c2d40"/>
        <g id="Grupo_1064772" data-name="Grupo 1064772" transform="translate(67.257 89.36)" style="mix-blend-mode: overlay;isolation: isolate">
          <g id="Grupo_1064771" data-name="Grupo 1064771">
            <g id="Grupo_1064770" data-name="Grupo 1064770" clip-path="url(#clip-path-3)">
              <path id="Trazado_798421" data-name="Trazado 798421" d="M289.564,332a45.885,45.885,0,0,1-2.081,7.724A42.97,42.97,0,0,1,284,347a6.176,6.176,0,0,1-3.322,2.763,2.751,2.751,0,0,1-1.277.036,2.11,2.11,0,0,1-1.179-.731,4.145,4.145,0,0,1-.713-2.214,34.368,34.368,0,0,1,.013-8.105l1.362.271a16.987,16.987,0,0,1-5.577,8.385,3.7,3.7,0,0,1-2.633,1.12,1.543,1.543,0,0,1-1.28-1.26,7.352,7.352,0,0,1-.075-1.341,16.856,16.856,0,0,1,.8-4.97l.708.343a20.9,20.9,0,0,1-3.233,3.6,7.133,7.133,0,0,1-4.372,1.9,7.356,7.356,0,0,0,4.065-2.234,25.378,25.378,0,0,0,2.891-3.726.4.4,0,0,1,.712.325l0,.019a15.9,15.9,0,0,0-.521,4.728,6.809,6.809,0,0,0,.109,1.105c.083.278.179.321.351.348a1.629,1.629,0,0,0,.809-.244,6.705,6.705,0,0,0,.892-.661,15.681,15.681,0,0,0,5.016-7.814.7.7,0,0,1,1.365.262v.009a36.879,36.879,0,0,0-.1,7.8,3.1,3.1,0,0,0,.406,1.554,1.078,1.078,0,0,0,1.174.29,5.513,5.513,0,0,0,2.7-2.2,42.439,42.439,0,0,0,3.74-6.907A56.917,56.917,0,0,0,289.564,332" transform="translate(-263.221 -298.637)" fill="#bfcdf2"/>
              <path id="Trazado_798422" data-name="Trazado 798422" d="M276.64,356.012a31.865,31.865,0,0,1,2.316,4.931,32.959,32.959,0,0,1,1.488,5.286,4.5,4.5,0,0,1-.342,3.083,1.969,1.969,0,0,1-1.682,1.03,2.917,2.917,0,0,1-1.631-.643,11.169,11.169,0,0,1-3.593-4.406l1.161-.537a9.532,9.532,0,0,1,.764,2.809,5.305,5.305,0,0,1-.494,2.938,3.517,3.517,0,0,1-2.228,1.918,2.7,2.7,0,0,1-2.673-.643,2.626,2.626,0,0,0,2.516.183,3.1,3.1,0,0,0,1.6-1.8,4.714,4.714,0,0,0,.177-2.447,9.907,9.907,0,0,0-.831-2.434.639.639,0,0,1,1.143-.571l.017.035a10.774,10.774,0,0,0,3.268,3.815,1.677,1.677,0,0,0,.819.4c.154.012.322-.082.5-.349a3.541,3.541,0,0,0,.261-2.187c-.253-1.723-.614-3.494-1.042-5.223s-.936-3.46-1.51-5.18" transform="translate(-260.988 -290.395)" fill="#bfcdf2"/>
              <path id="Trazado_798423" data-name="Trazado 798423" d="M295.27,376.462a16.061,16.061,0,0,1-.275,5.01,15.772,15.772,0,0,1-1.843,4.782,3.884,3.884,0,0,1-2.276,1.795,2.928,2.928,0,0,1-1.608-.034,2.451,2.451,0,0,1-1.319-1.045,8.477,8.477,0,0,1-.881-2.578,10.345,10.345,0,0,1-.165-2.622v-.028a.63.63,0,0,1,1.259.034,11.5,11.5,0,0,1-.187,2.5,4.232,4.232,0,0,1-1.248,2.328,2.674,2.674,0,0,1-2.5.716,3.4,3.4,0,0,1-1.9-1.55,3.59,3.59,0,0,0,1.984,1.088,2.182,2.182,0,0,0,1.817-.838c.932-1.087.858-2.645.772-4.206l1.26,0a11.279,11.279,0,0,0,.246,2.309,7.488,7.488,0,0,0,.731,2.087,1.2,1.2,0,0,0,1.409.506,2.8,2.8,0,0,0,1.549-1.181,19.425,19.425,0,0,0,2.074-4.29,23.525,23.525,0,0,0,1.1-4.783" transform="translate(-256.662 -283.376)" fill="#bfcdf2"/>
              <path id="Trazado_798424" data-name="Trazado 798424" d="M330.407,321.849a26.566,26.566,0,0,1-3.459,7.38,28.855,28.855,0,0,1-5.56,6.066,25.829,25.829,0,0,1-3.413,2.353,6.653,6.653,0,0,1-2.058.858,2.722,2.722,0,0,1-2.5-.578,3.444,3.444,0,0,1-.887-2.3,15.161,15.161,0,0,1-.032-2.125,14.732,14.732,0,0,1,.831-4.159l0-.007a.7.7,0,0,1,1.333.392,12.406,12.406,0,0,1-2.335,4.8,13.228,13.228,0,0,1-4.079,3.394,10.134,10.134,0,0,1-5.174,1.241,3.794,3.794,0,0,1-1.378-.394,2.707,2.707,0,0,1-.616-.43,1.494,1.494,0,0,1-.416-.76,4.528,4.528,0,0,1,.574-2.689l.451.416a31.324,31.324,0,0,1-3.166,1.409,10.591,10.591,0,0,1-3.351.8,12.1,12.1,0,0,0,3.214-1.119,31.274,31.274,0,0,0,2.981-1.644.317.317,0,0,1,.465.38l-.013.036a4.265,4.265,0,0,0-.375,2.227.661.661,0,0,0,.2.329,1.9,1.9,0,0,0,.439.269,2.9,2.9,0,0,0,1.068.242,9.278,9.278,0,0,0,4.527-1.361,11.971,11.971,0,0,0,3.6-3.162,11.393,11.393,0,0,0,2.03-4.294l1.337.384a14.638,14.638,0,0,0-.748,3.78,13.84,13.84,0,0,0,.013,1.932,2.188,2.188,0,0,0,.453,1.431c.532.579,1.93.226,2.987-.411a29.033,29.033,0,0,0,3.334-2.148,27.942,27.942,0,0,0,5.675-5.584,30.163,30.163,0,0,0,4.051-6.953" transform="translate(-252.254 -302.122)" fill="#bfcdf2"/>
              <path id="Trazado_798425" data-name="Trazado 798425" d="M350.213,307.163a7.327,7.327,0,0,1,.7,4.131,6.2,6.2,0,0,1-2.052,3.85,5.436,5.436,0,0,1-4.3,1.374,5.073,5.073,0,0,1-3.823-2.562l1.3-.168a7.452,7.452,0,0,1-1.9,3.4,9.653,9.653,0,0,1-3.115,2.167,13.382,13.382,0,0,1-3.564.983,24.322,24.322,0,0,1-3.623.2c1.177-.265,2.355-.481,3.486-.836a16.231,16.231,0,0,0,3.233-1.3,8.068,8.068,0,0,0,4.128-4.935.7.7,0,0,1,1.288-.183l.009.016a3.875,3.875,0,0,0,2.785,1.871,4.384,4.384,0,0,0,3.377-.912,5.712,5.712,0,0,0,2.066-3.107,7.908,7.908,0,0,0,.013-3.988" transform="translate(-240.358 -307.163)" fill="#bfcdf2"/>
            </g>
          </g>
        </g>
        <path id="Trazado_798426" data-name="Trazado 798426" d="M342.879,416.376a88.631,88.631,0,0,1-29.4-24.678A103.759,103.759,0,0,0,337.22,426.12" transform="translate(-178.712 -188.786)" fill="#2c2d40"/>
        <path id="Trazado_798427" data-name="Trazado 798427" d="M224.73,490.765s46.614-71.9,62.151-77.406,47.585,18.776,68.627,35.932,45.642,46.33,45.642,46.33Z" transform="translate(-209.176 -181.623)" fill="#006a76"/>
        <g id="Grupo_1064775" data-name="Grupo 1064775" transform="translate(166.812 158.297)" opacity="0.32" style="mix-blend-mode: multiply;isolation: isolate">
          <g id="Grupo_1064774" data-name="Grupo 1064774">
            <g id="Grupo_1064773" data-name="Grupo 1064773" clip-path="url(#clip-path-4)">
              <path id="Trazado_798428" data-name="Trazado 798428" d="M337.363,369.113c.484,5.051,7.33,8.526,15.294,7.764s14.028-5.474,13.544-10.524-7.33-8.526-15.294-7.764-14.028,5.474-13.544,10.524" transform="translate(-337.336 -358.484)" fill="#ff7673"/>
            </g>
          </g>
        </g>
        <path id="Trazado_798429" data-name="Trazado 798429" d="M374.191,370.733c-2.627,1.173-5.176,2.239-7.643,3.517l-.743.386-.248-.809a10.581,10.581,0,0,1,1.131-8.879,17.152,17.152,0,0,0,.216,8.469l-.991-.423a20.565,20.565,0,0,1,8.278-2.261" transform="translate(-161.006 -197.968)" fill="#2c2d40"/>
        <path id="Trazado_798430" data-name="Trazado 798430" d="M365.506,349.421c0,2.906-1.7,5.262-3.805,5.262s-3.807-2.356-3.807-5.262,1.7-5.262,3.807-5.262,3.805,2.356,3.805,5.262" transform="translate(-163.467 -205.104)" fill="#2c2d40"/>
        <path id="Trazado_798431" data-name="Trazado 798431" d="M374.477,388.347c-2.919.364-5.917.955-8.871,1.564-2.958.634-5.917,1.287-8.82,2.172,2.746-1.306,5.6-2.394,8.448-3.463,2.871-1.048,5.718-2.069,8.737-2.911Z" transform="translate(-163.848 -190.842)" fill="#2c2d40"/>
        <path id="Trazado_798432" data-name="Trazado 798432" d="M373.4,339.407A24.448,24.448,0,0,1,360.07,345.9a57.819,57.819,0,0,1-15.027.183c10.293-1.1,19.961-7.389,26.03-15.775a43.679,43.679,0,0,1,2.329,9.1" transform="translate(-167.878 -209.858)" fill="#2c2d40"/>
        <path id="Trazado_798433" data-name="Trazado 798433" d="M320.148,260.7a60.282,60.282,0,0,0-37.019,12.867,30.443,30.443,0,0,0-7.425,7.944c-5.282,8.771-2.85,21,4.576,28.051s18.855,9.025,28.689,6.178,18.059-10.04,23.5-18.712c2.721-4.336,4.859-9.255,4.759-14.373-.2-10.143-9.915-18.566-20.051-19.01s-19.785,5.909-25.122,14.537a24.783,24.783,0,0,0-4.1,13.811c.2,4.871,2.558,9.79,6.714,12.336,4.478,2.744,10.209,2.4,15.285,1.052a44.864,44.864,0,0,0,23.57-15.493c3.737-4.748,6.566-10.992,4.723-16.746-2.242-7-10.938-10.365-18.087-8.651s-12.789,7.25-16.995,13.281c-4.431,6.352-7.787,14.089-6.372,21.7,1.812,9.756,11.522,16.808,21.422,17.488s19.582-4.036,26.865-10.776c3.382-3.13,6.406-6.8,7.957-11.136s1.455-9.432-1.053-13.3c-2.132-3.287-5.76-5.366-9.525-6.452a25.5,25.5,0,1,0,6.526,46.07,28.423,28.423,0,0,0,11.059-13.666c3.059-7.781,2.644-17.323-2.708-23.747-5.067-6.084-13.747-8.364-21.559-7.086s-14.821,5.666-20.693,10.976c-9.584,8.667-16.913,20.906-16.18,33.806.243,4.272,1.753,8.989,5.589,10.882,2.8,1.384,6.213.888,9.072-.376,8.993-3.975,13.531-15.329,10.8-24.775s-11.745-16.4-21.471-17.849c-9.575-1.429-19.954,2.337-25.749,10.091s-6.308,19.3-.58,27.106,17.53,10.673,25.855,5.736a25.16,25.16,0,0,0,6.848-6.305c6.418-8.235,9.011-20.733,2.549-28.936-2.611-3.315-6.36-5.529-10.156-7.372-6.4-3.1-14.351-5.27-20.333-1.425-6.516,4.188-7.341,13.954-3.768,20.827,1.953,3.758,5.177,7.08,9.286,8.113,4,1,8.327-.313,11.646-2.758a28.869,28.869,0,0,0,7.743-9.52c6.8-12.292,9.2-26.709,16.5-38.707a16.513,16.513,0,0,1,5.006-5.65c5.094-3.193,11.788-1.065,17.108,1.734,8.691,4.574,17.031,11.557,19.135,21.151,1.461,6.665-.375,13.772-4,19.555s-8.908,10.358-14.586,14.143c-8.424,5.615-18.247,9.739-28.364,9.391s-20.442-5.912-24.4-15.228c-2.091-4.922-2.309-10.461-1.671-15.771,1.452-12.1,16.928-32.628,16.7-30.786S287.926,275.9,280.4,283.5c-5.671,5.725-11.548,13.022-9.948,20.918.962,4.739,4.5,8.532,8.281,11.541a55.721,55.721,0,0,0,54.442,7.877c7.255-2.935,14.1-7.709,17.722-14.644,4.331-8.284,3.347-18.783-1.467-26.8s-13.058-13.622-21.984-16.4-18.5-2.9-27.772-1.67c8.1-2.38,16.286-4.778,24.713-5.227s17.249,1.228,23.992,6.3c8.527,6.418,12.625,17.74,11.587,28.361s-6.745,20.444-14.487,27.789A38.16,38.16,0,0,1,332.75,329.9a36.659,36.659,0,0,1-16.984,1.67c-20.178-2.349-38.474-18.671-41.25-38.8a31.377,31.377,0,0,1,2.165-17.456c5.073-10.919,17.652-16.711,29.677-17.32a36.774,36.774,0,0,1,18.511,3.462c5.661,2.879,10.391,7.878,12.142,13.982,1.834,6.394.3,13.306-2.292,19.429a58.831,58.831,0,0,1-32.475,31.491c-7.237,2.81-15.167,4.148-22.834,2.93s-15.038-5.158-19.618-11.427a26.143,26.143,0,0,1-2.674-25.615c3.409-7.58,10.46-13.153,18.287-15.943s16.381-3.016,24.625-1.957" transform="translate(-198.807 -234.7)" fill="none" stroke="#2c2d40" stroke-miterlimit="10" stroke-width="1"/>
      </g>
    </g>
  </g>
</svg>
