<svg xmlns="http://www.w3.org/2000/svg" xmlns:xlink="http://www.w3.org/1999/xlink" width="610" height="387" viewBox="0 0 610 387">
  <defs>
    <clipPath id="clip-path">
      <rect id="Rectángulo_373567" data-name="Rectángulo 373567" width="398.61" height="309.881" fill="none"/>
    </clipPath>
    <clipPath id="clip-path-2">
      <rect id="Rectángulo_373566" data-name="Rectángulo 373566" width="398.611" height="309.88" fill="none"/>
    </clipPath>
    <clipPath id="clip-path-3">
      <rect id="Rectángulo_373556" data-name="Rectángulo 373556" width="93.683" height="62.851" fill="#ff8182"/>
    </clipPath>
    <clipPath id="clip-path-4">
      <rect id="Rectángulo_373558" data-name="Rectángulo 373558" width="58.774" height="91.593" fill="none"/>
    </clipPath>
    <clipPath id="clip-path-5">
      <rect id="Rectángulo_373562" data-name="Rectángulo 373562" width="59.816" height="59.817" fill="none"/>
    </clipPath>
    <clipPath id="clip-path-6">
      <rect id="Rectángulo_373563" data-name="Rectángulo 373563" width="49.738" height="49.75" fill="none"/>
    </clipPath>
    <clipPath id="clip-path-7">
      <rect id="Rectángulo_373564" data-name="Rectángulo 373564" width="53.69" height="53.69" fill="none"/>
    </clipPath>
  </defs>
  <g id="Grupo_1064954" data-name="Grupo 1064954" transform="translate(-180 -2624)">
    <rect id="Rectángulo_373553" data-name="Rectángulo 373553" width="610" height="298" transform="translate(180 2713)" fill="#8edee0"/>
    <path id="Trazado_799249" data-name="Trazado 799249" d="M163.281,14.186a5.193,5.193,0,0,1-.8,2.622,4.833,4.833,0,0,1-2.056,1.763,7,7,0,0,1-3.022.625,5.584,5.584,0,0,1-4.414-1.826,7.54,7.54,0,0,1-1.611-5.156v-.7a8.607,8.607,0,0,1,.728-3.657A5.513,5.513,0,0,1,154.2,5.431a5.844,5.844,0,0,1,3.164-.854,6.129,6.129,0,0,1,4.16,1.362,5.383,5.383,0,0,1,1.787,3.755h-3.418a2.547,2.547,0,0,0-.654-1.865,2.691,2.691,0,0,0-1.875-.566,2.048,2.048,0,0,0-1.875.957,6.151,6.151,0,0,0-.625,3.057v1.006a6.806,6.806,0,0,0,.571,3.252,2.091,2.091,0,0,0,1.968.977,2.632,2.632,0,0,0,1.807-.557,2.363,2.363,0,0,0,.664-1.768Zm1.055-.566a6.236,6.236,0,0,1,.615-2.817,4.4,4.4,0,0,1,1.768-1.9,5.323,5.323,0,0,1,2.705-.664,4.858,4.858,0,0,1,3.74,1.47,5.64,5.64,0,0,1,1.367,4v.117a5.472,5.472,0,0,1-1.372,3.921,4.871,4.871,0,0,1-3.716,1.45,4.927,4.927,0,0,1-3.623-1.353,5.29,5.29,0,0,1-1.475-3.667Zm3.291.205a3.932,3.932,0,0,0,.459,2.148,1.529,1.529,0,0,0,1.357.684q1.758,0,1.8-2.705v-.332q0-2.842-1.816-2.842-1.65,0-1.787,2.451Zm11.465-5.391.107,1.24a3.633,3.633,0,0,1,3.018-1.436,2.675,2.675,0,0,1,2.705,1.592,3.516,3.516,0,0,1,3.105-1.592q3.213,0,3.3,3.887V19h-3.3V12.33a2.014,2.014,0,0,0-.273-1.182,1.164,1.164,0,0,0-1-.371,1.559,1.559,0,0,0-1.455.869l.01.137V19h-3.3V12.35a2.117,2.117,0,0,0-.264-1.2,1.161,1.161,0,0,0-1.006-.371,1.578,1.578,0,0,0-1.445.869V19h-3.291V8.434Zm23.926,5.361a6.372,6.372,0,0,1-1.108,3.931,3.554,3.554,0,0,1-2.993,1.47,3.046,3.046,0,0,1-2.393-1.064v4.932h-3.291V8.434h3.076l.1.977a3.046,3.046,0,0,1,2.49-1.172,3.582,3.582,0,0,1,3.037,1.44,6.45,6.45,0,0,1,1.084,3.96Zm-3.291-.205q0-2.812-1.641-2.812a1.549,1.549,0,0,0-1.562.84v4.16a1.6,1.6,0,0,0,1.582.879q1.572,0,1.621-2.715Zm4.326.029a6.236,6.236,0,0,1,.615-2.817,4.4,4.4,0,0,1,1.768-1.9,5.323,5.323,0,0,1,2.705-.664,4.858,4.858,0,0,1,3.74,1.47,5.64,5.64,0,0,1,1.367,4v.117a5.472,5.472,0,0,1-1.372,3.921,4.871,4.871,0,0,1-3.716,1.45,4.927,4.927,0,0,1-3.623-1.353,5.29,5.29,0,0,1-1.475-3.667Zm3.291.205a3.932,3.932,0,0,0,.459,2.148,1.529,1.529,0,0,0,1.357.684q1.758,0,1.8-2.705v-.332q0-2.842-1.816-2.842-1.65,0-1.787,2.451Zm11.377-5.391.107,1.24a3.583,3.583,0,0,1,3.018-1.436,3.015,3.015,0,0,1,2.466.986,4.7,4.7,0,0,1,.845,2.969V19h-3.3V12.33a1.783,1.783,0,0,0-.322-1.177,1.491,1.491,0,0,0-1.172-.376,1.569,1.569,0,0,0-1.436.762V19h-3.291V8.434ZM232.09,19.2a5.432,5.432,0,0,1-3.936-1.45,5.008,5.008,0,0,1-1.5-3.774V13.7a6.489,6.489,0,0,1,.6-2.861A4.395,4.395,0,0,1,229,8.917a5.292,5.292,0,0,1,2.734-.679,4.574,4.574,0,0,1,3.516,1.382,5.43,5.43,0,0,1,1.289,3.853v1.279H230a2.372,2.372,0,0,0,.771,1.4,2.3,2.3,0,0,0,1.543.508,2.958,2.958,0,0,0,2.441-1.094l1.5,1.777a4.2,4.2,0,0,1-1.743,1.353A5.891,5.891,0,0,1,232.09,19.2Zm-.371-8.418q-1.445,0-1.719,1.914h3.32v-.254a1.63,1.63,0,0,0-.4-1.226A1.593,1.593,0,0,0,231.719,10.777Zm9.17-2.344L241,9.674a3.583,3.583,0,0,1,3.018-1.436,3.015,3.015,0,0,1,2.466.986,4.7,4.7,0,0,1,.845,2.969V19h-3.3V12.33a1.783,1.783,0,0,0-.322-1.177,1.491,1.491,0,0,0-1.172-.376,1.569,1.569,0,0,0-1.436.762V19H237.8V8.434Zm12.09-2.627V8.434h1.738v2.285h-1.738v4.834a1.234,1.234,0,0,0,.215.83,1.152,1.152,0,0,0,.85.234,4.828,4.828,0,0,0,.82-.059v2.354a6.074,6.074,0,0,1-1.855.283,3.448,3.448,0,0,1-2.51-.8,3.282,3.282,0,0,1-.811-2.432V10.719H248.34V8.434h1.348V5.807ZM261.123,19.2a5.432,5.432,0,0,1-3.936-1.45,5.008,5.008,0,0,1-1.5-3.774V13.7a6.489,6.489,0,0,1,.6-2.861,4.395,4.395,0,0,1,1.753-1.919,5.292,5.292,0,0,1,2.734-.679,4.574,4.574,0,0,1,3.516,1.382,5.43,5.43,0,0,1,1.289,3.853v1.279h-6.543a2.372,2.372,0,0,0,.771,1.4,2.3,2.3,0,0,0,1.543.508,2.958,2.958,0,0,0,2.441-1.094l1.5,1.777a4.2,4.2,0,0,1-1.743,1.353A5.891,5.891,0,0,1,261.123,19.2Zm-.371-8.418q-1.445,0-1.719,1.914h3.32v-.254a1.63,1.63,0,0,0-.4-1.226A1.593,1.593,0,0,0,260.752,10.777ZM281.689,13.8a6.44,6.44,0,0,1-1.074,3.994,3.6,3.6,0,0,1-3.027,1.4,3.122,3.122,0,0,1-2.6-1.279L274.854,19H271.9V4H275.2V9.283a3.012,3.012,0,0,1,2.373-1.045,3.6,3.6,0,0,1,3.047,1.416,6.473,6.473,0,0,1,1.074,3.984Zm-3.3-.21a4.3,4.3,0,0,0-.405-2.169,1.366,1.366,0,0,0-1.245-.648,1.576,1.576,0,0,0-1.543.848v4.192a1.585,1.585,0,0,0,1.563.838,1.4,1.4,0,0,0,1.475-1.131A8.122,8.122,0,0,0,278.389,13.595ZM286.611,19h-3.3V8.434h3.3Zm-3.5-13.3a1.482,1.482,0,0,1,.508-1.159,2.149,2.149,0,0,1,2.637,0,1.482,1.482,0,0,1,.508,1.159,1.482,1.482,0,0,1-.508,1.159,2.149,2.149,0,0,1-2.637,0A1.482,1.482,0,0,1,283.115,5.7Zm5.107,7.92a6.236,6.236,0,0,1,.615-2.817,4.4,4.4,0,0,1,1.768-1.9,5.323,5.323,0,0,1,2.705-.664,4.859,4.859,0,0,1,3.74,1.47,5.64,5.64,0,0,1,1.367,4v.117a5.472,5.472,0,0,1-1.372,3.921,4.871,4.871,0,0,1-3.716,1.45,4.927,4.927,0,0,1-3.623-1.353,5.29,5.29,0,0,1-1.475-3.667Zm3.291.205a3.931,3.931,0,0,0,.459,2.148,1.529,1.529,0,0,0,1.357.684q1.758,0,1.8-2.705v-.332q0-2.842-1.816-2.842-1.65,0-1.787,2.451ZM303.34,19h-3.3V4h3.3Zm1.611-5.381a6.236,6.236,0,0,1,.615-2.817,4.4,4.4,0,0,1,1.768-1.9,5.323,5.323,0,0,1,2.705-.664,4.859,4.859,0,0,1,3.74,1.47,5.64,5.64,0,0,1,1.367,4v.117a5.472,5.472,0,0,1-1.372,3.921,4.871,4.871,0,0,1-3.716,1.45,4.927,4.927,0,0,1-3.623-1.353,5.29,5.29,0,0,1-1.475-3.667Zm3.291.205a3.931,3.931,0,0,0,.459,2.148,1.529,1.529,0,0,0,1.357.684q1.758,0,1.8-2.705v-.332q0-2.842-1.816-2.842-1.65,0-1.787,2.451ZM310.488,4h3.477L311.25,7.066l-2.686,0Zm5.723,9.639a7.134,7.134,0,0,1,.527-2.832,4.245,4.245,0,0,1,1.514-1.9,3.99,3.99,0,0,1,2.295-.669,3.173,3.173,0,0,1,2.578,1.113l.117-.918h2.988V18.6a4.455,4.455,0,0,1-.649,2.427,4.167,4.167,0,0,1-1.88,1.582,6.91,6.91,0,0,1-2.852.552,5.961,5.961,0,0,1-2.251-.439,4.063,4.063,0,0,1-1.665-1.143l1.377-1.934a3.018,3.018,0,0,0,2.422,1.084,1.96,1.96,0,0,0,2.188-2.246V18.15a3.09,3.09,0,0,1-2.393,1.045,3.819,3.819,0,0,1-3.125-1.479,6.13,6.13,0,0,1-1.191-3.96Zm3.3.205A3.759,3.759,0,0,0,320,15.9a1.541,1.541,0,0,0,1.367.757,1.748,1.748,0,0,0,1.553-.713V11.5a1.7,1.7,0,0,0-1.533-.723,1.551,1.551,0,0,0-1.377.786A4.287,4.287,0,0,0,319.512,13.844ZM331.572,19h-3.3V8.434h3.3Zm-3.5-13.3a1.482,1.482,0,0,1,.508-1.159,2.149,2.149,0,0,1,2.637,0,1.482,1.482,0,0,1,.508,1.159,1.482,1.482,0,0,1-.508,1.159,2.149,2.149,0,0,1-2.637,0A1.482,1.482,0,0,1,328.076,5.7Zm9.99,10.957a1.464,1.464,0,0,0,1.074-.376,1.379,1.379,0,0,0,.371-1.05H342.6a3.653,3.653,0,0,1-1.245,2.852,4.631,4.631,0,0,1-3.208,1.113,4.689,4.689,0,0,1-3.633-1.445,5.7,5.7,0,0,1-1.328-4v-.137a6.436,6.436,0,0,1,.591-2.827,4.3,4.3,0,0,1,1.7-1.885,5.081,5.081,0,0,1,2.637-.659,4.573,4.573,0,0,1,3.271,1.143,4.053,4.053,0,0,1,1.211,3.1h-3.086a1.806,1.806,0,0,0-.4-1.26,1.382,1.382,0,0,0-1.074-.439q-1.279,0-1.494,1.631a11.51,11.51,0,0,0-.068,1.426,4.52,4.52,0,0,0,.381,2.207A1.319,1.319,0,0,0,338.066,16.656Zm5.508-3.037a6.236,6.236,0,0,1,.615-2.817,4.4,4.4,0,0,1,1.768-1.9,5.323,5.323,0,0,1,2.705-.664,4.859,4.859,0,0,1,3.74,1.47,5.64,5.64,0,0,1,1.367,4v.117a5.472,5.472,0,0,1-1.372,3.921,4.871,4.871,0,0,1-3.716,1.45,4.927,4.927,0,0,1-3.623-1.353,5.29,5.29,0,0,1-1.475-3.667Zm3.291.205a3.931,3.931,0,0,0,.459,2.148,1.529,1.529,0,0,0,1.357.684q1.758,0,1.8-2.705v-.332q0-2.842-1.816-2.842-1.65,0-1.787,2.451Z" transform="translate(233 2956)" fill="#12263f"/>
    <g id="Grupo_1064143" data-name="Grupo 1064143" transform="translate(285 2624)">
      <g id="Grupo_1064142" data-name="Grupo 1064142" clip-path="url(#clip-path)">
        <g id="Grupo_1064141" data-name="Grupo 1064141" transform="translate(0 0.001)">
          <g id="Grupo_1064140" data-name="Grupo 1064140" clip-path="url(#clip-path-2)">
            <path id="Trazado_796953" data-name="Trazado 796953" d="M126.3,254.432c-.786-2.413-1.565-4.914-2.313-7.432l1.844-.549c.743,2.5,1.517,4.986,2.3,7.383Zm329.9-3.117-1.909-.236c.317-2.569.618-5.156.895-7.689l1.913.21c-.278,2.542-.58,5.138-.9,7.716m-334.338-11.8c-.673-2.489-1.326-5.024-1.941-7.535l1.869-.458c.611,2.5,1.26,5.016,1.929,7.489Zm336.024-3.643-1.915-.181c.243-2.579.469-5.174.67-7.711l1.918.152c-.2,2.547-.428,5.151-.673,7.74M118.168,224.4c-.556-2.536-1.084-5.1-1.571-7.62l1.889-.366c.484,2.505,1.009,5.053,1.562,7.573Zm340.948-4.02-1.92-.122c.163-2.577.306-5.177.424-7.727l1.922.09c-.119,2.56-.262,5.171-.426,7.759m-343.9-11.259c-.428-2.567-.824-5.155-1.177-7.693l1.905-.266c.351,2.521.744,5.092,1.169,7.641Zm344.618-4.266-1.923-.056c.075-2.589.127-5.191.154-7.735l1.924.021c-.027,2.556-.079,5.17-.155,7.771m-346.76-11.15c-.287-2.592-.537-5.2-.742-7.749l1.918-.155c.2,2.531.452,5.119.737,7.692Zm345-4.377c-.023-2.591-.072-5.193-.146-7.733l1.923-.056c.075,2.554.124,5.169.147,7.773ZM111.829,178.186c-.128-2.608-.212-5.226-.252-7.782l1.924-.03c.039,2.535.123,5.131.249,7.717Zm345.79-4.318c-.132-2.587-.295-5.183-.482-7.716l1.918-.143c.189,2.547.353,5.158.485,7.761Zm-344.1-11.214-1.923-.04c.054-2.615.157-5.233.307-7.783l1.921.113c-.149,2.526-.251,5.12-.3,7.71m342.95-4.2c-.257-2.587-.548-5.17-.865-7.679l1.909-.242c.319,2.526.612,5.127.871,7.73Zm-342.036-11.2-1.914-.193c.261-2.6.58-5.208.947-7.738l1.9.277c-.363,2.5-.678,5.077-.937,7.654m340.093-4.133c-.4-2.571-.839-5.131-1.306-7.611l1.89-.356c.471,2.5.913,5.081,1.317,7.671Zm-227.535-.272c-2.673-.422-4.607-1.64-7.286-3.744l1.216-1.493c2.347,1.838,4.041,2.941,6.274,3.322Zm6.675-4.583-1.713-.876a30.465,30.465,0,0,0,2.314-7.121l1.879.411a31.846,31.846,0,0,1-2.48,7.586m-19.607-4.686c-1.533-1.709-3.171-3.675-5.007-6.012l1.512-1.191c1.811,2.3,3.422,4.239,4.927,5.916Zm-97.4-1.58-1.889-.367c.5-2.571,1.062-5.134,1.676-7.62l1.868.462c-.606,2.454-1.163,4.985-1.655,7.524m335.011-4.052c-.57-2.544-1.184-5.066-1.827-7.5l1.86-.493c.648,2.453,1.269,5,1.844,7.568Zm-214.225-5.021-1.908-.246c.3-2.3.56-4.817.81-7.7l1.917.166c-.251,2.907-.519,5.451-.818,7.777m-33.1-1.566c-1.564-2.114-3.186-4.349-4.584-6.279l1.557-1.131c1.395,1.925,3.014,4.156,4.572,6.264Zm140.853-.158a8.117,8.117,0,0,1-4.369-1.332l1.026-1.63a6.18,6.18,0,0,0,6.41.272l.828,1.739a9.047,9.047,0,0,1-3.894.951m-224.837-4.15-1.84-.563c.764-2.5,1.6-4.992,2.493-7.4l1.8.669c-.877,2.372-1.7,4.826-2.457,7.293m235.022-1.836-1.413-1.307a64.97,64.97,0,0,0,4.78-5.965l1.559,1.129a66.8,66.8,0,0,1-4.926,6.142m-20.025-1.325a59.524,59.524,0,0,1-3.772-6.923l1.739-.824a57.663,57.663,0,0,0,3.648,6.7Zm112.36-.853c-.775-2.5-1.6-4.952-2.458-7.3l1.807-.66c.867,2.379,1.7,4.865,2.488,7.39ZM195.2,108.806c-1.76-2.408-3.227-4.386-4.617-6.222l1.534-1.163c1.4,1.845,2.869,3.831,4.635,6.248Zm43.641-1.431-1.92-.124c.146-2.257.294-4.793.454-7.754l1.921.1c-.16,2.968-.309,5.511-.455,7.775M125.7,102.632l-1.76-.778q1.584-3.592,3.378-7.046l1.706.891q-1.765,3.394-3.323,6.933m239.015,0-1.608-1.059c1.367-2.081,2.78-4.286,4.209-6.513l1.618,1.041c-1.433,2.233-2.847,4.44-4.22,6.53m-36.227-2.849c-.871-2.188-1.772-4.576-2.753-7.3l1.809-.654c.974,2.7,1.867,5.071,2.73,7.24Zm113.941-1.2c-1.034-2.412-2.128-4.755-3.252-6.965l1.715-.874c1.142,2.247,2.254,4.628,3.305,7.079Zm-256.594-2.1c-1.746-2.17-3.371-4.1-4.968-5.9L182.3,89.3c1.617,1.826,3.262,3.779,5.027,5.973Zm53.862-4.651-1.921-.1c.13-2.573.258-5.148.4-7.768l1.921.1c-.137,2.618-.266,5.192-.4,7.764M373.15,89.6l-1.6-1.062c1.607-2.435,3.045-4.541,4.4-6.439l1.567,1.117c-1.337,1.88-2.762,3.968-4.357,6.385m-240.313-.544-1.622-1.037a59.648,59.648,0,0,1,4.633-6.363l1.47,1.243a57.721,57.721,0,0,0-4.481,6.157m190.326-3.918c-.882-2.589-1.748-5.179-2.478-7.371l1.825-.609c.73,2.189,1.594,4.775,2.474,7.358ZM175.573,85a66.388,66.388,0,0,0-5.747-5.033L171,78.439a68.321,68.321,0,0,1,5.915,5.179Zm259.865-.082c-1.379-2.252-2.824-4.382-4.3-6.331l1.534-1.162c1.51,2,2.991,4.181,4.4,6.487ZM142.714,77.655l-1.167-1.532a22.778,22.778,0,0,1,7.107-3.761l.563,1.842a20.868,20.868,0,0,0-6.5,3.451m239.434-.589-1.495-1.213a75.336,75.336,0,0,1,5.227-5.863l1.361,1.361a73.517,73.517,0,0,0-5.093,5.715M240.52,76.308l-1.921-.115c.167-2.8.332-5.342.506-7.773l1.919.137c-.173,2.423-.338,4.958-.5,7.75m-77.054-.4a22.809,22.809,0,0,0-7.018-2.269l.261-1.908a24.718,24.718,0,0,1,7.614,2.453Zm262.727-3.113a45.32,45.32,0,0,0-5.7-4.984l1.133-1.557a47.3,47.3,0,0,1,5.944,5.2Zm-107.962-2.4c-.957-2.866-1.746-5.2-2.482-7.354l1.82-.624c.738,2.156,1.528,4.5,2.487,7.368ZM393,66.434l-1.1-1.579a27.124,27.124,0,0,1,7.1-3.648l.594,1.832A25.21,25.21,0,0,0,393,66.434m20.992-2.36a24.264,24.264,0,0,0-7.169-1.851L407,60.306a26.174,26.174,0,0,1,7.737,1.994ZM241.639,60.825l-1.916-.171c.24-2.7.5-5.312.775-7.757l1.912.215c-.273,2.43-.532,5.025-.771,7.713m71.549-5.113c-.93-2.6-1.806-4.973-2.678-7.26l1.8-.687c.877,2.3,1.758,4.687,2.692,7.3Zm-69.8-10.28-1.9-.276c.389-2.7.817-5.29,1.271-7.708l1.891.356c-.449,2.392-.873,4.958-1.258,7.628m64.262-4.172c-1.034-2.489-2.076-4.871-3.1-7.08l1.746-.809c1.032,2.231,2.084,4.637,3.128,7.15ZM246.281,30.266l-1.867-.467c.671-2.69,1.411-5.223,2.2-7.53l1.82.623c-.77,2.256-1.495,4.737-2.153,7.374m54.857-3c-1.265-2.386-2.558-4.626-3.842-6.657l1.626-1.03c1.31,2.072,2.627,4.355,3.916,6.784ZM251.323,15.835l-1.725-.852a38.286,38.286,0,0,1,4.164-6.735l1.511,1.192a36.383,36.383,0,0,0-3.95,6.4m41.564-1.472a47.033,47.033,0,0,0-5.157-5.555l1.29-1.429a48.97,48.97,0,0,1,5.371,5.783ZM260.641,4.448,259.6,2.825A19.163,19.163,0,0,1,267.067,0l.293,1.9a17.246,17.246,0,0,0-6.719,2.541m21.019,0a23.19,23.19,0,0,0-6.939-2.458l.337-1.9a25.1,25.1,0,0,1,7.515,2.658Z" transform="translate(-92.5 -0.003)" fill="#9af8fb"/>
            <path id="Trazado_796954" data-name="Trazado 796954" d="M289.271,386.718s-46.857-125.729-13.137-153.726c22.538-18.713,46.428,22.539,74.942.716,25.385-19.429,17.315-78.539,57.8-86.71,45.52-9.186,55.542,101.063,92.9,85.994,45.329-18.285,90.419,18.834,51.453,153.966Z" transform="translate(-218.805 -121.415)" fill="#9af8fb"/>
            <path id="Trazado_796955" data-name="Trazado 796955" d="M377,842.266c-15.965-2.475-13.36,19.885-36.117,19.885-20.807,0-27.463-85.152-42.6-60.811-77.61,124.788-32.543-53.068-94.266-55.328-27.909-1.022-46.506,30.1-53.364,85.209-9.941,49.819-33-38-56.722-29.832-15.079,5.189-13.352,60.763-34.159,60.763-22.757,0-20.152-22.36-36.117-19.885C6.461,844.93,1.327,884.508,1.327,884.508H399.321S394.187,844.93,377,842.266" transform="translate(-1.1 -618.442)" fill="#b2f5f6"/>
            <path id="Trazado_796956" data-name="Trazado 796956" d="M440.074,1168.519c-14.688-1.057-12.291,8.491-33.227,8.491-19.142,0-18.616-21.4-31.425-25.946-23.589-8.375-43.037,34.012-52.182,12.739-17.37-56.447-68.03-84.755-91.4,0-9.146,21.273-30.532-16.686-52.183-12.739-13.327,2.43-12.284,25.946-31.425,25.946-20.936,0-18.539-9.548-33.227-8.491-15.814,1.138-20.537,18.038-20.537,18.038H460.611s-4.723-16.9-20.537-18.038" transform="translate(-78.315 -920.492)" fill="#e5feff"/>
            <path id="Trazado_796957" data-name="Trazado 796957" d="M.227,1556.164s-2.5,10.167,9.071,12.713c15.822,3.482,108.7,12.63,86.135,19.582-12.737,3.924,6.5,9.253,68.539,11.215s168.488-5.726,132.69-17.1,110.443-2.747,101.559-26.408Z" transform="translate(0 -1290.099)" fill="#67d2d5"/>
            <path id="Trazado_796958" data-name="Trazado 796958" d="M779.709,486.045a21.147,21.147,0,0,0-10.223-18.117,27.32,27.32,0,0,0-5.836-45.194A14.744,14.744,0,0,0,748.9,397.561a25.02,25.02,0,0,0-32.514-34.169,20.64,20.64,0,0,0-38.4-2.85,20.64,20.64,0,0,0-38.4,2.85,25.014,25.014,0,0,0-32.514,34.169,14.744,14.744,0,0,0-14.747,25.174,27.32,27.32,0,0,0-5.836,45.194,21.164,21.164,0,0,0-.909,35.652,21.162,21.162,0,0,0,18.27,31.835c.087,0,.173,0,.26,0-.067.75-.1,1.509-.1,2.276a25.311,25.311,0,0,0,41.964,19.062,18.259,18.259,0,0,0,32.013-12.009q0-.236-.006-.472c0-.109.006-.218.006-.327,0-.033,0-.066,0-.1h.007c0,.033,0,.065,0,.1,0,.11,0,.22.006.33q-.006.234-.006.469A18.259,18.259,0,0,0,710,556.75a25.311,25.311,0,0,0,41.965-19.062c0-.767-.036-1.526-.1-2.276.087,0,.173,0,.26,0a21.162,21.162,0,0,0,18.27-31.835,21.137,21.137,0,0,0,9.315-17.535" transform="translate(-477.744 -289.121)" fill="#ff8182"/>
            <path id="Trazado_796963" data-name="Trazado 796963" d="M970.3,424.642c-.232,16.682-10.032,20.957-12.885,21.849-2.943-3.129-4.839-7.628-5.645-13.421a1.511,1.511,0,0,0-2.993.417c.953,6.843,3.338,12.121,7.093,15.737l.037.037a18.733,18.733,0,0,0,1.843,1.556,20.4,20.4,0,0,0,14.3,3.627,1.511,1.511,0,1,0-.489-2.981,17.555,17.555,0,0,1-11.552-2.746,20.155,20.155,0,0,0,5.269-3.418c3.581-3.207,7.882-9.386,8.038-20.614,0-.007,0-.014,0-.021a1.511,1.511,0,0,0-3.021-.021" transform="translate(-786.552 -350.804)" fill="#f49f9f"/>
            <path id="Trazado_796977" data-name="Trazado 796977" d="M1456.8,943.154a1.511,1.511,0,0,1,2.931.735,26.217,26.217,0,0,1-4.707,9.135c-3.266,4.05-9.211,8.543-18.979,6.942a1.511,1.511,0,1,1,.489-2.981c15.911,2.608,20.1-13.158,20.267-13.831" transform="translate(-1189.465 -780.952)" fill="#f49f9f"/>
            <path id="Trazado_796978" data-name="Trazado 796978" d="M1319.084,863.221a1.51,1.51,0,0,1,1.449,1.57,20.216,20.216,0,0,1-3.111,9.127c-2.659,4.214-8.172,9.439-19.33,10.4a1.511,1.511,0,0,1-1.635-1.375q-.006-.066-.006-.132a1.511,1.511,0,0,1,1.38-1.5c18.771-1.624,19.654-16.034,19.682-16.646a1.511,1.511,0,0,1,1.57-1.444" transform="translate(-1074.79 -715.631)" fill="#f49f9f"/>
            <g id="Grupo_1064146" data-name="Grupo 1064146">
              <path id="Trazado_796959" data-name="Trazado 796959" d="M784.889,1293.536a20.987,20.987,0,0,0,3.938-4.652c.027-.039.053-.08.076-.122a21.692,21.692,0,0,0,3.069-11.521,31.751,31.751,0,0,0-.719-6.542,1.511,1.511,0,1,0-2.957.623c1.4,6.659.405,11.59-1.579,15.215-2.728-.039-11.9-1.13-13.112-13.947a1.511,1.511,0,1,0-3.008.286c1.225,12.91,9.607,15.859,14.174,16.5a21.492,21.492,0,0,1-10.558,6.58,1.511,1.511,0,0,0,.683,2.943,25.217,25.217,0,0,0,9.993-5.366" transform="translate(-638.838 -1052.448)" fill="#e85e5f"/>
              <path id="Trazado_796960" data-name="Trazado 796960" d="M683.434,1115.558a23.6,23.6,0,0,0,8.176-.355c4.774-1.052,11.487-4.153,16.361-12.953a1.511,1.511,0,1,0-2.643-1.464c-6.607,11.93-16.689,12.276-20.678,11.883a19.192,19.192,0,0,0,.85-5.8,27.5,27.5,0,0,0-.628-5.665,1.511,1.511,0,0,0-2.957.623c3.1,14.732-7.672,18.2-8.144,18.343a1.511,1.511,0,0,0,.861,2.9,16.5,16.5,0,0,0,8.8-7.51" transform="translate(-557.679 -911.934)" fill="#e85e5f"/>
              <path id="Trazado_796961" data-name="Trazado 796961" d="M800.844,582.961a1.511,1.511,0,1,0-2.9-.844c-1.544,5.306-4.679,8.126-8.034,9.569a1.5,1.5,0,0,0-.324.134,21.69,21.69,0,0,1-11.944.738,1.511,1.511,0,0,0-.719,2.935,26.316,26.316,0,0,0,9.963.2c.583-.106,1.187-.241,1.8-.41a19.573,19.573,0,0,0,6.558,14.985,23.9,23.9,0,0,0,7.688,4.718,1.511,1.511,0,0,0,.964-2.864c-.542-.184-13-4.581-12.146-17.968,3.692-1.751,7.306-5.051,9.093-11.192" transform="translate(-643.133 -481.688)" fill="#e85e5f"/>
              <path id="Trazado_796962" data-name="Trazado 796962" d="M960.143,730.605c-.02.027-.042.053-.06.081a22.208,22.208,0,0,0-2.7,4.808,26.4,26.4,0,0,0-1.951,10.486,1.511,1.511,0,0,0,3.017-.167,22.831,22.831,0,0,1,2.706-11.275c4.117,7.708,9.843,10.206,14.105,10.9a19.785,19.785,0,0,0,9.289-.71A1.511,1.511,0,0,0,983.5,741.9c-.556.2-13.475,4.719-20.39-10.208,2.472-2.945,6.241-5.469,11.988-6.492a1.511,1.511,0,0,0,1.246-1.486,1.537,1.537,0,0,0-.023-.266,1.511,1.511,0,0,0-1.752-1.223c-7.222,1.285-11.677,4.722-14.423,8.381" transform="translate(-792.063 -598.723)" fill="#e85e5f"/>
              <path id="Trazado_796964" data-name="Trazado 796964" d="M642.736,806.352c1.115-7.693,5.59-13.761,13.3-18.035a40.948,40.948,0,0,1,10.772-4.047c3.108,3.709,4.5,8.705,4.141,14.875a1.511,1.511,0,0,0,3.017.177q.062-1.053.062-2.067c0-6.391-1.841-11.631-5.485-15.6l-.055-.057-.027-.028c-6.555-7.05-16.423-7.386-16.842-7.4a1.51,1.51,0,0,0-1.548,1.469,1.525,1.525,0,0,0,1.468,1.552,24.356,24.356,0,0,1,12.689,4.589,43.789,43.789,0,0,0-9.573,3.842c-8.509,4.69-13.664,11.706-14.909,20.291a1.511,1.511,0,0,0,2.99.434" transform="translate(-530.352 -641.812)" fill="#e85e5f"/>
              <path id="Trazado_796965" data-name="Trazado 796965" d="M960.432,1233.394a1.511,1.511,0,0,0-1.9.97c-4.051,12.464-.719,20.963,2.79,25.9a26.941,26.941,0,0,0,6.981,6.76,18.49,18.49,0,0,0-4.146,12.764,1.511,1.511,0,0,0,3.005-.311c-.055-.559-1.178-13.736,14.518-15.576a1.511,1.511,0,1,0-.352-3,21.278,21.278,0,0,0-10.753,3.989,23.773,23.773,0,0,1-6.793-6.377c-4.519-6.356-5.32-14.165-2.379-23.213a1.511,1.511,0,0,0-.97-1.9" transform="translate(-793.104 -1022.453)" fill="#e85e5f"/>
              <path id="Trazado_796966" data-name="Trazado 796966" d="M976.106,1063.379a24.919,24.919,0,0,0-3.569,4.881,21.5,21.5,0,0,1-.022-10.124,1.511,1.511,0,1,0-2.951-.651,23.252,23.252,0,0,0,1.43,15.288,1.5,1.5,0,0,0,.1.2,23.248,23.248,0,0,0,3.634,5.391,26.666,26.666,0,0,0,8.35,6.259,1.511,1.511,0,0,0,1.2-2.772,22.894,22.894,0,0,1-10.256-9.707c1.026-2.6,6.473-14.146,21.873-12.831a1.511,1.511,0,0,0,1.634-1.376c0-.044.005-.087.005-.13a1.511,1.511,0,0,0-1.382-1.5c-10.244-.875-16.555,3.364-20.045,7.074" transform="translate(-803.247 -875.607)" fill="#e85e5f"/>
              <path id="Trazado_796967" data-name="Trazado 796967" d="M764.4,943.154a1.511,1.511,0,0,0-2.931.735,26.218,26.218,0,0,0,4.707,9.135c3.266,4.05,9.211,8.543,18.979,6.942a1.511,1.511,0,1,0-.489-2.981c-15.911,2.608-20.1-13.158-20.267-13.831" transform="translate(-631.235 -780.952)" fill="#e85e5f"/>
              <path id="Trazado_796968" data-name="Trazado 796968" d="M906.551,863.221a1.51,1.51,0,0,0-1.449,1.57,20.214,20.214,0,0,0,3.111,9.127c2.659,4.214,8.172,9.439,19.33,10.4a1.511,1.511,0,0,0,1.635-1.375c0-.044.006-.088.006-.132a1.511,1.511,0,0,0-1.381-1.5c-18.771-1.624-19.654-16.034-19.682-16.646a1.511,1.511,0,0,0-1.57-1.444" transform="translate(-750.351 -715.631)" fill="#e85e5f"/>
              <path id="Trazado_796969" data-name="Trazado 796969" d="M1453.841,1293.536a20.987,20.987,0,0,1-3.938-4.652c-.027-.039-.052-.08-.076-.122a21.692,21.692,0,0,1-3.069-11.521,31.763,31.763,0,0,1,.719-6.542,1.511,1.511,0,0,1,2.957.623c-1.4,6.659-.405,11.59,1.579,15.215,2.728-.039,11.9-1.13,13.112-13.947a1.511,1.511,0,1,1,3.008.286c-1.225,12.91-9.607,15.859-14.174,16.5a21.492,21.492,0,0,0,10.558,6.58,1.511,1.511,0,0,1-.683,2.943,25.216,25.216,0,0,1-9.993-5.366" transform="translate(-1199.398 -1052.448)" fill="#e85e5f"/>
              <path id="Trazado_796970" data-name="Trazado 796970" d="M1487,1115.558a23.6,23.6,0,0,1-8.176-.355c-4.774-1.052-11.487-4.153-16.361-12.953a1.511,1.511,0,1,1,2.643-1.464c6.607,11.93,16.689,12.276,20.678,11.883a19.192,19.192,0,0,1-.85-5.8,27.5,27.5,0,0,1,.628-5.665,1.511,1.511,0,1,1,2.957.623c-3.1,14.732,7.672,18.2,8.144,18.343a1.511,1.511,0,0,1-.861,2.9,16.5,16.5,0,0,1-8.8-7.51" transform="translate(-1212.263 -911.934)" fill="#e85e5f"/>
              <path id="Trazado_796971" data-name="Trazado 796971" d="M1400.207,582.961a1.511,1.511,0,1,1,2.9-.844c1.544,5.306,4.679,8.126,8.034,9.569a1.5,1.5,0,0,1,.324.134,21.69,21.69,0,0,0,11.944.738,1.511,1.511,0,0,1,.719,2.935,26.316,26.316,0,0,1-9.963.2c-.583-.106-1.187-.241-1.8-.41a19.574,19.574,0,0,1-6.558,14.985,23.906,23.906,0,0,1-7.688,4.718,1.511,1.511,0,0,1-.964-2.864c.542-.184,13-4.581,12.146-17.968-3.692-1.751-7.307-5.051-9.093-11.192" transform="translate(-1157.425 -481.688)" fill="#e85e5f"/>
              <path id="Trazado_796972" data-name="Trazado 796972" d="M1236.247,730.605c.02.027.042.053.06.081a22.205,22.205,0,0,1,2.7,4.808,26.4,26.4,0,0,1,1.95,10.486,1.511,1.511,0,0,1-3.017-.167,22.833,22.833,0,0,0-2.706-11.275c-4.117,7.708-9.843,10.206-14.105,10.9a19.787,19.787,0,0,1-9.289-.71,1.511,1.511,0,0,1,1.049-2.834c.556.2,13.475,4.719,20.39-10.208-2.472-2.945-6.241-5.469-11.988-6.492a1.511,1.511,0,0,1-1.246-1.486,1.537,1.537,0,0,1,.023-.266,1.511,1.511,0,0,1,1.752-1.223c7.222,1.285,11.677,4.722,14.423,8.381" transform="translate(-1003.833 -598.723)" fill="#e85e5f"/>
              <path id="Trazado_796973" data-name="Trazado 796973" d="M1253.022,424.642c.232,16.682,10.032,20.957,12.885,21.849,2.943-3.129,4.839-7.628,5.645-13.421a1.511,1.511,0,0,1,2.993.417c-.953,6.843-3.338,12.121-7.093,15.737l-.037.037a18.748,18.748,0,0,1-1.843,1.556,20.4,20.4,0,0,1-14.3,3.627,1.511,1.511,0,1,1,.488-2.981,17.555,17.555,0,0,0,11.552-2.746,20.152,20.152,0,0,1-5.269-3.418c-3.581-3.207-7.882-9.386-8.038-20.614,0-.007,0-.014,0-.021a1.511,1.511,0,0,1,3.021-.021" transform="translate(-1036.28 -350.804)" fill="#e85e5f"/>
              <path id="Trazado_796974" data-name="Trazado 796974" d="M1533.374,806.352c-1.115-7.693-5.59-13.761-13.3-18.035a40.944,40.944,0,0,0-10.773-4.047c-3.108,3.709-4.5,8.705-4.14,14.875a1.511,1.511,0,1,1-3.016.177q-.062-1.053-.062-2.067c0-6.391,1.841-11.631,5.485-15.6l.054-.057.027-.028c6.555-7.05,16.423-7.386,16.842-7.4a1.51,1.51,0,0,1,1.548,1.469,1.526,1.526,0,0,1-1.468,1.552,24.356,24.356,0,0,0-12.689,4.589,43.786,43.786,0,0,1,9.573,3.842c8.509,4.69,13.664,11.706,14.908,20.291a1.511,1.511,0,0,1-2.99.434" transform="translate(-1245.265 -641.812)" fill="#e85e5f"/>
              <path id="Trazado_796975" data-name="Trazado 796975" d="M1254.247,1233.394a1.511,1.511,0,0,1,1.9.97c4.051,12.464.719,20.963-2.79,25.9a26.941,26.941,0,0,1-6.981,6.76,18.491,18.491,0,0,1,4.146,12.764,1.511,1.511,0,0,1-3.006-.311c.055-.559,1.178-13.736-14.518-15.576a1.511,1.511,0,1,1,.352-3,21.278,21.278,0,0,1,10.753,3.989,23.769,23.769,0,0,0,6.793-6.377c4.519-6.356,5.32-14.165,2.379-23.213a1.511,1.511,0,0,1,.97-1.9" transform="translate(-1021.081 -1022.453)" fill="#e85e5f"/>
              <path id="Trazado_796976" data-name="Trazado 796976" d="M1227.5,1063.379a24.915,24.915,0,0,1,3.569,4.881,21.5,21.5,0,0,0,.022-10.124,1.511,1.511,0,1,1,2.95-.651,23.253,23.253,0,0,1-1.429,15.288,1.48,1.48,0,0,1-.1.2,23.249,23.249,0,0,1-3.634,5.391,26.668,26.668,0,0,1-8.35,6.259,1.511,1.511,0,0,1-1.2-2.772,22.9,22.9,0,0,0,10.256-9.707c-1.026-2.6-6.473-14.146-21.872-12.831a1.51,1.51,0,0,1-1.634-1.376c0-.044-.005-.087-.005-.13a1.511,1.511,0,0,1,1.382-1.5c10.244-.875,16.555,3.364,20.045,7.074" transform="translate(-999.864 -875.607)" fill="#e85e5f"/>
              <path id="Trazado_796979" data-name="Trazado 796979" d="M1164.65,644.9a1.352,1.352,0,0,1-1.352-1.352V477.058a1.352,1.352,0,1,1,2.7,0V643.549a1.352,1.352,0,0,1-1.352,1.352" transform="translate(-964.402 -394.373)" fill="#e85e5f"/>
            </g>
            <g id="Grupo_1064127" data-name="Grupo 1064127" transform="translate(282.518 38.093)" opacity="0.5">
              <g id="Grupo_1064126" data-name="Grupo 1064126">
                <g id="Grupo_1064125" data-name="Grupo 1064125" clip-path="url(#clip-path-3)">
                  <rect id="Rectángulo_373555" data-name="Rectángulo 373555" width="93.683" height="62.849" transform="translate(0 0)" fill="#ff8182"/>
                </g>
              </g>
            </g>
            <path id="Trazado_796980" data-name="Trazado 796980" d="M1771.325,522.414H1695.35a1.239,1.239,0,0,1,0-2.476h75.975a1.239,1.239,0,0,1,0,2.476" transform="translate(-1404.482 -431.042)" fill="#006a76"/>
            <path id="Trazado_796981" data-name="Trazado 796981" d="M1771.325,551.9H1695.35a1.239,1.239,0,0,1,0-2.476h75.975a1.239,1.239,0,0,1,0,2.476" transform="translate(-1404.482 -455.482)" fill="#006a76"/>
            <path id="Trazado_796982" data-name="Trazado 796982" d="M1774.1,285.9a1.638,1.638,0,0,0,.329,1.02l-6.023,7.743a1.679,1.679,0,0,0-2.17,2.223l-6.924,5.683a1.836,1.836,0,0,0-1.9-.027c-1.436-1.351-4.183-4.064-6.017-5.6a1.844,1.844,0,0,0,.014-1.472c2.213-1.677,4.311-3.376,5.952-4.872a1.69,1.69,0,0,0,2.472-2.135l5.372-4.933a1.678,1.678,0,0,0,2.564-1.408c-.093-2.728-4.281-1.7-3.18.747-1.617,1.364-3.925,3.647-5.326,4.986a1.835,1.835,0,0,0-1.921.049l-5.912-4.674c.963-2.446-3.135-3.329-3.214-.668a1.683,1.683,0,0,0,2.669,1.342l5.912,4.674a1.848,1.848,0,0,0,.026,1.4c-1.624,1.395-3.77,3.1-6.03,4.817a1.684,1.684,0,0,0-2.514,1.877c-2.239,1.644-4.443,3.189-6.229,4.349a1.822,1.822,0,0,0-2.025-.164l-6.073-5.554a1.823,1.823,0,0,0,.115-1.251c1.638-1,4.146-2.6,5.7-3.585a1.691,1.691,0,0,0,2.827-1.219c-.047-2.494-3.9-1.947-3.285.452-1.717.979-4.156,2.624-5.679,3.618a1.687,1.687,0,0,0-2.508,2.23l-4.008,5.187a1.868,1.868,0,0,0-1.376.044l-6.247-7a1.811,1.811,0,0,0,.123-1.63l5.9-4.882a1.686,1.686,0,0,0,2.574-1.837c1.731-.969,4.719-2.579,6.555-3.761a1.691,1.691,0,0,0,2.829-1.217c-.046-2.488-3.892-1.952-3.287.444-1.753,1.024-4.743,2.769-6.524,3.813a1.694,1.694,0,0,0-2.712,1.9l-5.9,4.882a1.84,1.84,0,0,0-1.844-.055l-5.051-4.734c1.195-2.451-3.052-3.568-3.155-.8a1.673,1.673,0,0,0,2.514,1.434c1.448,1.47,3.8,3.515,5.1,4.688a1.744,1.744,0,0,0,.328,2.059l-3.472,6.573a1.632,1.632,0,0,0-2.022,1.711l-6.781,2.3a1.692,1.692,0,0,0-3.074.934,1.669,1.669,0,1,0,3.334-.139c3.515-1.185,5.519-1.7,6.817-2.218,1.35,1.79,4.233-.374,2.558-2.173.722-1.224,1.544-3.174,3.4-6.623a1.867,1.867,0,0,0,1.124-.115l6.246,7c-1.593,3.491,4.587,3.259,2.746-.1l4.008-5.187a1.855,1.855,0,0,0,1.529-.121l6.073,5.554a1.805,1.805,0,0,0,.082,1.7c-1.429,1.531-3.417,4.033-4.635,5.511a1.666,1.666,0,0,0-2.416,1.483c.136,2.919,4.569,1.471,3.06-.954l4.689-5.465a1.679,1.679,0,0,0,2.3-2.05c1.842-1.177,4.034-2.672,6.248-4.273a1.822,1.822,0,0,0,2.026.166l6.066,5.553c-1.271,3.036,4.1,3.226,3.033.1,1.906-1.515,5.1-4.212,6.9-5.714a1.685,1.685,0,0,0,2.33-2.368l6.023-7.743a1.671,1.671,0,1,0-1.033-1.526" transform="translate(-1410.659 -231.146)" fill="#ff8182"/>
            <g id="Grupo_1064130" data-name="Grupo 1064130" transform="translate(37.111 40.986)" opacity="0.5">
              <g id="Grupo_1064129" data-name="Grupo 1064129">
                <g id="Grupo_1064128" data-name="Grupo 1064128" clip-path="url(#clip-path-4)">
                  <rect id="Rectángulo_373557" data-name="Rectángulo 373557" width="58.774" height="91.593" transform="translate(0 -0.001)" fill="#006a76"/>
                </g>
              </g>
            </g>
            <path id="Trazado_796983" data-name="Trazado 796983" d="M308.418,572.579H271.083a1.8,1.8,0,1,1,0-3.609h37.335a1.8,1.8,0,0,1,0,3.609" transform="translate(-223.238 -471.691)" fill="#006a76"/>
            <path id="Trazado_796984" data-name="Trazado 796984" d="M308.418,615.544H271.083a1.8,1.8,0,1,1,0-3.609h37.335a1.8,1.8,0,0,1,0,3.609" transform="translate(-223.238 -507.31)" fill="#006a76"/>
            <path id="Trazado_796985" data-name="Trazado 796985" d="M308.418,660.056H271.083a1.8,1.8,0,1,1,0-3.609h37.335a1.8,1.8,0,0,1,0,3.609" transform="translate(-223.238 -544.211)" fill="#006a76"/>
            <path id="Trazado_796986" data-name="Trazado 796986" d="M308.418,703.02H271.083a1.8,1.8,0,1,1,0-3.609h37.335a1.8,1.8,0,0,1,0,3.609" transform="translate(-223.238 -579.83)" fill="#006a76"/>
            <path id="Trazado_796987" data-name="Trazado 796987" d="M322.746,333.858a3.575,3.575,0,0,0-1.728-3.063,4.619,4.619,0,0,0-.987-7.641,2.493,2.493,0,0,0-2.493-4.256,4.23,4.23,0,0,0-5.5-5.777,3.489,3.489,0,0,0-6.492-.482,3.489,3.489,0,0,0-6.492.482,4.229,4.229,0,0,0-5.5,5.777,2.493,2.493,0,0,0-2.493,4.256,4.619,4.619,0,0,0-.987,7.641,3.578,3.578,0,0,0-.154,6.027,3.578,3.578,0,0,0,3.089,5.382h.044c-.011.127-.017.255-.017.385a4.279,4.279,0,0,0,7.095,3.223,3.087,3.087,0,0,0,5.412-2.03c0-.027,0-.053,0-.08s0-.037,0-.055,0-.011,0-.017h0c0,.005,0,.011,0,.017s0,.037,0,.056,0,.053,0,.079a3.087,3.087,0,0,0,5.412,2.03,4.279,4.279,0,0,0,7.094-3.223c0-.13-.006-.258-.017-.385h.044a3.578,3.578,0,0,0,3.089-5.382,3.573,3.573,0,0,0,1.575-2.965" transform="translate(-239.052 -257.534)" fill="#006a76"/>
            <g id="Grupo_1064147" data-name="Grupo 1064147">
              <path id="Trazado_796988" data-name="Trazado 796988" d="M323.623,470.373a3.546,3.546,0,0,0,.666-.786l.013-.021a3.666,3.666,0,0,0,.519-1.948,5.378,5.378,0,0,0-.122-1.106.255.255,0,0,0-.5.105,3.642,3.642,0,0,1-.267,2.572c-.461-.007-2.011-.191-2.217-2.358a.255.255,0,0,0-.508.048,2.751,2.751,0,0,0,2.4,2.79,3.632,3.632,0,0,1-1.785,1.112.255.255,0,0,0,.116.5,4.263,4.263,0,0,0,1.689-.907" transform="translate(-266.287 -386.583)" fill="#015660"/>
              <path id="Trazado_796989" data-name="Trazado 796989" d="M306.47,440.284a3.986,3.986,0,0,0,1.382-.06,4.158,4.158,0,0,0,2.766-2.19.255.255,0,0,0-.447-.248,3.517,3.517,0,0,1-3.5,2.009,3.244,3.244,0,0,0,.144-.98,4.644,4.644,0,0,0-.106-.958.255.255,0,1,0-.5.105c.524,2.491-1.3,3.077-1.377,3.1a.255.255,0,0,0,.146.49,2.789,2.789,0,0,0,1.488-1.27" transform="translate(-252.565 -362.827)" fill="#015660"/>
              <path id="Trazado_796990" data-name="Trazado 796990" d="M326.32,350.243a.252.252,0,0,0,.01-.071.255.255,0,0,0-.5-.071,2.372,2.372,0,0,1-1.358,1.618.241.241,0,0,0-.055.023,3.667,3.667,0,0,1-2.019.125.255.255,0,0,0-.122.5,4.447,4.447,0,0,0,1.684.034c.1-.018.2-.041.3-.069a3.309,3.309,0,0,0,1.109,2.533,4.039,4.039,0,0,0,1.3.8.255.255,0,0,0,.163-.484,3.057,3.057,0,0,1-2.053-3.038,2.861,2.861,0,0,0,1.537-1.892" transform="translate(-267.013 -290.09)" fill="#015660"/>
              <path id="Trazado_796991" data-name="Trazado 796991" d="M353.251,375.2l-.01.014a3.752,3.752,0,0,0-.457.813,4.462,4.462,0,0,0-.33,1.773.255.255,0,0,0,.51-.028,3.862,3.862,0,0,1,.458-1.906,3.271,3.271,0,0,0,2.385,1.843,3.35,3.35,0,0,0,1.57-.12.256.256,0,0,0-.177-.479,2.737,2.737,0,0,1-3.447-1.726,3.291,3.291,0,0,1,2.027-1.1.255.255,0,0,0,.211-.251.271.271,0,0,0,0-.045.256.256,0,0,0-.3-.207,3.734,3.734,0,0,0-2.438,1.417" transform="translate(-292.19 -309.876)" fill="#015660"/>
              <path id="Trazado_796992" data-name="Trazado 796992" d="M354.969,323.477c-.039,2.82-1.7,3.543-2.178,3.694a4.048,4.048,0,0,1-.954-2.269.255.255,0,0,0-.506.07,4.424,4.424,0,0,0,1.2,2.661l.006.006a3.176,3.176,0,0,0,.312.263,3.45,3.45,0,0,0,2.418.613.256.256,0,0,0,.214-.252.268.268,0,0,0,0-.042.255.255,0,0,0-.293-.211,2.967,2.967,0,0,1-1.953-.464,3.414,3.414,0,0,0,.891-.578,4.529,4.529,0,0,0,1.359-3.485v0a.255.255,0,0,0-.511,0" transform="translate(-291.259 -267.962)" fill="#015660"/>
              <path id="Trazado_796993" data-name="Trazado 796993" d="M299.59,388.009a4.084,4.084,0,0,1,2.248-3.049,6.928,6.928,0,0,1,1.821-.684,3.468,3.468,0,0,1,.7,2.515.255.255,0,1,0,.51.03q.01-.178.01-.349a3.757,3.757,0,0,0-.927-2.637l-.009-.01,0,0a4.384,4.384,0,0,0-2.847-1.251.255.255,0,0,0-.262.248.258.258,0,0,0,.248.262,4.117,4.117,0,0,1,2.145.776,7.393,7.393,0,0,0-1.618.65,4.632,4.632,0,0,0-2.521,3.43.255.255,0,0,0,.506.073" transform="translate(-247.945 -317.16)" fill="#015660"/>
              <path id="Trazado_796994" data-name="Trazado 796994" d="M353.3,460.205a.256.256,0,0,0-.322.164,4.708,4.708,0,0,0,.472,4.378,4.554,4.554,0,0,0,1.18,1.143,3.127,3.127,0,0,0-.7,2.158.255.255,0,0,0,.508-.052,2.446,2.446,0,0,1,2.455-2.633.255.255,0,1,0-.06-.507,3.6,3.6,0,0,0-1.818.674,4.019,4.019,0,0,1-1.148-1.078,4.218,4.218,0,0,1-.4-3.924.255.255,0,0,0-.164-.322" transform="translate(-292.366 -381.512)" fill="#015660"/>
              <path id="Trazado_796995" data-name="Trazado 796995" d="M355.95,431.462a4.222,4.222,0,0,0-.6.825,3.636,3.636,0,0,1,0-1.712.255.255,0,0,0-.5-.11,3.932,3.932,0,0,0,.242,2.585.235.235,0,0,0,.016.034,3.929,3.929,0,0,0,.614.911,4.507,4.507,0,0,0,1.412,1.058.255.255,0,0,0,.2-.469,3.871,3.871,0,0,1-1.734-1.641,3.48,3.48,0,0,1,3.7-2.169.256.256,0,0,0,.276-.233c0-.008,0-.015,0-.022a.255.255,0,0,0-.234-.254,3.982,3.982,0,0,0-3.389,1.2" transform="translate(-294.082 -356.686)" fill="#015660"/>
              <path id="Trazado_796996" data-name="Trazado 796996" d="M320.158,411.136a.255.255,0,0,0-.5.124,4.434,4.434,0,0,0,.8,1.544,3.229,3.229,0,0,0,3.209,1.174.256.256,0,0,0,.214-.252.264.264,0,0,0,0-.042.255.255,0,0,0-.293-.211,3.039,3.039,0,0,1-3.426-2.338" transform="translate(-265.002 -340.683)" fill="#015660"/>
              <path id="Trazado_796997" data-name="Trazado 796997" d="M344.19,397.623a.255.255,0,0,0-.245.266,3.415,3.415,0,0,0,.526,1.543,4.015,4.015,0,0,0,3.268,1.759.255.255,0,0,0,.276-.233c0-.007,0-.015,0-.022a.256.256,0,0,0-.233-.254c-3.173-.274-3.323-2.711-3.328-2.814a.255.255,0,0,0-.265-.244" transform="translate(-285.139 -329.64)" fill="#015660"/>
              <path id="Trazado_796998" data-name="Trazado 796998" d="M436.716,470.373a3.546,3.546,0,0,1-.666-.786l-.013-.021a3.666,3.666,0,0,1-.519-1.948,5.378,5.378,0,0,1,.122-1.106.255.255,0,0,1,.5.105,3.642,3.642,0,0,0,.267,2.572c.461-.007,2.011-.191,2.217-2.358a.255.255,0,1,1,.508.048,2.751,2.751,0,0,1-2.4,2.79,3.631,3.631,0,0,0,1.785,1.112.255.255,0,0,1-.116.5,4.263,4.263,0,0,1-1.689-.907" transform="translate(-361.055 -386.583)" fill="#015660"/>
              <path id="Trazado_796999" data-name="Trazado 796999" d="M442.322,440.284a3.986,3.986,0,0,1-1.382-.06,4.158,4.158,0,0,1-2.766-2.19.255.255,0,0,1,.447-.248,3.517,3.517,0,0,0,3.5,2.009,3.244,3.244,0,0,1-.144-.98,4.656,4.656,0,0,1,.106-.958.255.255,0,0,1,.5.105c-.525,2.491,1.3,3.077,1.377,3.1a.255.255,0,0,1-.146.49,2.789,2.789,0,0,1-1.488-1.27" transform="translate(-363.23 -362.827)" fill="#015660"/>
              <path id="Trazado_797000" data-name="Trazado 797000" d="M427.649,350.243a.252.252,0,0,1-.01-.071.255.255,0,0,1,.5-.071,2.372,2.372,0,0,0,1.358,1.618.241.241,0,0,1,.055.023,3.667,3.667,0,0,0,2.019.125.255.255,0,0,1,.122.5,4.447,4.447,0,0,1-1.684.034c-.1-.018-.2-.041-.3-.069a3.309,3.309,0,0,1-1.109,2.533,4.039,4.039,0,0,1-1.3.8.255.255,0,0,1-.163-.484,3.057,3.057,0,0,0,2.053-3.038,2.861,2.861,0,0,1-1.537-1.892" transform="translate(-353.959 -290.09)" fill="#015660"/>
              <path id="Trazado_797001" data-name="Trazado 797001" d="M399.929,375.2l.01.014a3.761,3.761,0,0,1,.457.813,4.46,4.46,0,0,1,.33,1.773.255.255,0,0,1-.51-.028,3.862,3.862,0,0,0-.458-1.906,3.271,3.271,0,0,1-2.385,1.843,3.349,3.349,0,0,1-1.57-.12.255.255,0,0,1,.177-.479,2.737,2.737,0,0,0,3.447-1.726,3.291,3.291,0,0,0-2.027-1.1.255.255,0,0,1-.211-.251.271.271,0,0,1,0-.045.256.256,0,0,1,.3-.207,3.734,3.734,0,0,1,2.438,1.417" transform="translate(-327.992 -309.876)" fill="#015660"/>
              <path id="Trazado_797002" data-name="Trazado 797002" d="M402.765,323.477c.039,2.82,1.7,3.543,2.178,3.694a4.049,4.049,0,0,0,.954-2.269.255.255,0,0,1,.506.07,4.424,4.424,0,0,1-1.2,2.661l-.006.006a3.172,3.172,0,0,1-.312.263,3.45,3.45,0,0,1-2.418.613.256.256,0,0,1-.214-.252.264.264,0,0,1,0-.042.255.255,0,0,1,.293-.211,2.967,2.967,0,0,0,1.953-.464,3.413,3.413,0,0,1-.891-.578,4.528,4.528,0,0,1-1.359-3.485v0a.255.255,0,0,1,.511,0" transform="translate(-333.479 -267.962)" fill="#015660"/>
              <path id="Trazado_797003" data-name="Trazado 797003" d="M450.162,388.009a4.084,4.084,0,0,0-2.248-3.049,6.928,6.928,0,0,0-1.821-.684,3.468,3.468,0,0,0-.7,2.515.255.255,0,1,1-.51.03q-.011-.178-.01-.349a3.757,3.757,0,0,1,.927-2.637l.009-.01,0,0a4.384,4.384,0,0,1,2.847-1.251.255.255,0,0,1,.262.248.258.258,0,0,1-.248.262,4.117,4.117,0,0,0-2.145.776,7.393,7.393,0,0,1,1.618.65,4.632,4.632,0,0,1,2.521,3.43.255.255,0,0,1-.506.073" transform="translate(-368.81 -317.16)" fill="#015660"/>
              <path id="Trazado_797004" data-name="Trazado 797004" d="M402.973,460.205a.256.256,0,0,1,.322.164,4.708,4.708,0,0,1-.472,4.378,4.554,4.554,0,0,1-1.18,1.143,3.127,3.127,0,0,1,.7,2.158.255.255,0,0,1-.508-.052,2.446,2.446,0,0,0-2.454-2.633.255.255,0,0,1-.226-.253.249.249,0,0,1,0-.03.255.255,0,0,1,.283-.224,3.6,3.6,0,0,1,1.818.674,4.019,4.019,0,0,0,1.148-1.078,4.218,4.218,0,0,0,.4-3.924.255.255,0,0,1,.164-.322" transform="translate(-330.909 -381.512)" fill="#015660"/>
              <path id="Trazado_797005" data-name="Trazado 797005" d="M398.45,431.462a4.213,4.213,0,0,1,.6.825,3.635,3.635,0,0,0,0-1.712.255.255,0,0,1,.5-.11,3.931,3.931,0,0,1-.242,2.585.275.275,0,0,1-.016.034,3.929,3.929,0,0,1-.614.911,4.507,4.507,0,0,1-1.412,1.058.255.255,0,0,1-.2-.469,3.87,3.87,0,0,0,1.734-1.641,3.48,3.48,0,0,0-3.7-2.169.256.256,0,0,1-.276-.233c0-.008,0-.015,0-.022a.255.255,0,0,1,.234-.254,3.982,3.982,0,0,1,3.389,1.2" transform="translate(-327.322 -356.686)" fill="#015660"/>
              <path id="Trazado_797006" data-name="Trazado 797006" d="M437.215,411.136a.255.255,0,0,1,.5.124,4.434,4.434,0,0,1-.8,1.544,3.229,3.229,0,0,1-3.209,1.174.256.256,0,0,1-.214-.252.264.264,0,0,1,0-.042.255.255,0,0,1,.293-.211,3.039,3.039,0,0,0,3.426-2.338" transform="translate(-359.375 -340.683)" fill="#015660"/>
              <path id="Trazado_797007" data-name="Trazado 797007" d="M413.934,397.623a.255.255,0,0,1,.245.266,3.415,3.415,0,0,1-.526,1.543,4.015,4.015,0,0,1-3.268,1.759.255.255,0,0,1-.276-.233c0-.007,0-.015,0-.022a.256.256,0,0,1,.233-.254c3.173-.274,3.323-2.711,3.328-2.814a.255.255,0,0,1,.265-.244" transform="translate(-339.989 -329.64)" fill="#015660"/>
              <path id="Trazado_797008" data-name="Trazado 797008" d="M387.825,360.714a.229.229,0,0,1-.229-.229V332.338a.229.229,0,0,1,.457,0v28.147a.229.229,0,0,1-.229.229" transform="translate(-321.326 -275.328)" fill="#015660"/>
            </g>
            <path id="Trazado_797009" data-name="Trazado 797009" d="M306.391,1442.205a1.43,1.43,0,0,1-1.43-1.43V1414.51a1.43,1.43,0,0,1,2.86,0v26.266a1.43,1.43,0,0,1-1.43,1.43" transform="translate(-252.82 -1171.479)" fill="#4867aa"/>
            <path id="Trazado_797010" data-name="Trazado 797010" d="M253.5,1579.086c-2.636-.069-.055-4.535-4.965-4.965h-18.18a3.539,3.539,0,0,0-3.535,3.535,1.43,1.43,0,0,1-2.86,0,6.4,6.4,0,0,1,6.394-6.394h18.18c4.5-.553,8.82,7.091,4.965,7.824" transform="translate(-185.668 -1302.591)" fill="#4867aa"/>
            <path id="Trazado_797011" data-name="Trazado 797011" d="M287.314,1409.564h5.5c1.736-.039,2.177-1.6,2.021-3.066h-9.537c-.156,1.468.286,3.027,2.021,3.066" transform="translate(-236.491 -1166.022)" fill="#395b96"/>
            <path id="Trazado_797012" data-name="Trazado 797012" d="M286.74,1571.615h6.746c1.574-.024,1.429-1.723,1.4-2.839a1.4,1.4,0,0,0-1.4-1.4H286.74a1.4,1.4,0,0,0-1.4,1.4c-.031,1.118-.182,2.814,1.4,2.839" transform="translate(-236.543 -1299.397)" fill="#395b96"/>
            <path id="Trazado_797013" data-name="Trazado 797013" d="M205.223,1206.381c-2.105-.4-2.628-3.688-7.518-3.723-8.952-.173-23.079,2.536-23.59-10.591V1173.92a7.681,7.681,0,0,0-2.264-5.467l-5.695-5.695c-1.32-1.276.722-3.365,2.022-2.022l5.695,5.695a10.521,10.521,0,0,1,3.1,7.489v18.147c1.071,14.479,21.4,2.79,28.219,10.833l1.041,1.041a1.44,1.44,0,0,1-1.011,2.441" transform="translate(-137.392 -961.92)" fill="#4867aa"/>
            <path id="Trazado_797014" data-name="Trazado 797014" d="M216.522,1595.888a2.7,2.7,0,0,0,5.4,0,2.7,2.7,0,0,0-5.4,0" transform="translate(-179.502 -1320.824)" fill="#395b96"/>
            <path id="Trazado_797015" data-name="Trazado 797015" d="M380.927,1595.888a2.7,2.7,0,0,0,5.4,0,2.7,2.7,0,0,0-5.4,0" transform="translate(-315.798 -1320.824)" fill="#395b96"/>
            <path id="Trazado_797016" data-name="Trazado 797016" d="M418.261,1114.05l-4.7-3.765a1.2,1.2,0,1,1,1.506-1.881l4.7,3.765a1.205,1.205,0,0,1-1.506,1.881" transform="translate(-342.477 -918.675)" fill="#4867aa"/>
            <path id="Trazado_797017" data-name="Trazado 797017" d="M318.57,1133.425c-11.122,19.082,17.114,40.152,27.766,10.807,0,0-.191-1.331-2.43-2.31-13.518,13.386-14.454,1.553-25.336-8.5" transform="translate(-261.989 -939.638)" fill="#d1e0f2"/>
            <path id="Trazado_797018" data-name="Trazado 797018" d="M390.624,1216.176s2.543,4.137,14.332-3.048l-.01,3.969-13.23,5.212-2.784-2.385Z" transform="translate(-322.435 -1005.714)" fill="#d1e0f2"/>
            <path id="Trazado_797019" data-name="Trazado 797019" d="M499.31,1540.759l-10.254,3.936a.96.96,0,0,1-1.265-.627,30.017,30.017,0,0,0-1.028-3.48c-.2-.641-4.209-8.4-4.6-9.209l6.5-2.5,2.162,8.768a2.23,2.23,0,0,0,2.268,1.7c1.437-.069,2.959-.444,4.014-.565a4.175,4.175,0,0,1,2.279.193.973.973,0,0,1-.081,1.783" transform="translate(-399.727 -1267.482)" fill="#f99370"/>
            <path id="Trazado_797020" data-name="Trazado 797020" d="M509.669,1587.668l.006.011a1.332,1.332,0,0,0,1.654.6l10.34-3.969a.982.982,0,0,0,.4-1.551c-1.215-1.45-3.35-1.819-8.312-.4a11.914,11.914,0,0,1-4.735,1.818,7.556,7.556,0,0,0,.652,3.487" transform="translate(-421.981 -1311.075)" fill="#eb5648"/>
            <path id="Trazado_797021" data-name="Trazado 797021" d="M563.927,1582.88a.248.248,0,0,1-.248-.252,3.113,3.113,0,0,1,.842-2.179.248.248,0,0,1,.335.365c-.792.661-.5,2.109-.93,2.067" transform="translate(-467.304 -1310.176)" fill="#e8c0a6"/>
            <path id="Trazado_797022" data-name="Trazado 797022" d="M552.889,1583.331a.248.248,0,0,1-.247-.231,3.9,3.9,0,0,1,.872-2.661.248.248,0,0,1,.371.328,3.453,3.453,0,0,0-.749,2.3.248.248,0,0,1-.248.264" transform="translate(-458.147 -1310.153)" fill="#e8c0a6"/>
            <path id="Trazado_797023" data-name="Trazado 797023" d="M540.386,1585.74a.248.248,0,0,1-.248-.24,4.895,4.895,0,0,1,.793-2.78.248.248,0,0,1,.4.288,4.468,4.468,0,0,0-.7,2.477.248.248,0,0,1-.248.256" transform="translate(-447.786 -1312.028)" fill="#e8c0a6"/>
            <path id="Trazado_797024" data-name="Trazado 797024" d="M525.346,1589.628l-12.476,4.807.006.011a1.332,1.332,0,0,0,1.654.6L525,1591.029a.878.878,0,0,0,.362-1.384l-.014-.016" transform="translate(-425.182 -1317.841)" fill="#ce3932"/>
            <path id="Trazado_797025" data-name="Trazado 797025" d="M301.42,1390.506c-.027,1.488-.086,2.373-.086,2.373a10.608,10.608,0,0,1-8.051,2.231c-2.584-7.929-7.972-29.41-13.027-30.239-1.674-.466-27.686-7.295-27.686-7.295,30.613-1.593,49.67-5.857,48.85,32.929" transform="translate(-209.387 -1124.651)" fill="#e8c0a6"/>
            <path id="Trazado_797026" data-name="Trazado 797026" d="M433.136,1551.088h-11.03a1.094,1.094,0,0,1-1.089-1.194,26.569,26.569,0,0,0,.274-3.462c.044-.67-.92-9.347-.992-10.246h6.965l-1.124,8.96a2.23,2.23,0,0,0,1.51,2.4c1.366.451,2.922.646,3.95.911a3.376,3.376,0,0,1,2.257,1.374.835.835,0,0,1-.719,1.259" transform="translate(-348.437 -1273.537)" fill="#f99370"/>
            <path id="Trazado_797027" data-name="Trazado 797027" d="M342.262,1130.973c-3.025.243-4.412-3.021-4.412-3.021l.03-4.036c.2.056,5.174,1.4,5.559,1.509a5.255,5.255,0,0,0-.964,3.013s2.812,2.293-.213,2.536" transform="translate(-280.086 -931.755)" fill="#f99370"/>
            <path id="Trazado_797028" data-name="Trazado 797028" d="M422.2,1599.6l0,.012a1.332,1.332,0,0,0,1.328,1.154h10.953a1.068,1.068,0,0,0,.988-1.467c-.671-1.695-2.572-2.752-7.558-3.189a11.914,11.914,0,0,1-5.072,0,7.558,7.558,0,0,0-.641,3.489" transform="translate(-349.987 -1323.215)" fill="#eb5648"/>
            <path id="Trazado_797029" data-name="Trazado 797029" d="M346.87,1126.318a4.074,4.074,0,0,0-.744,1.526,8.446,8.446,0,0,1-3.771-.987l-.366-1.863Z" transform="translate(-283.517 -932.648)" fill="#e57d61"/>
            <path id="Trazado_797030" data-name="Trazado 797030" d="M478.6,1603.957a.249.249,0,0,1-.23-.341,3.115,3.115,0,0,1,1.567-1.732.248.248,0,0,1,.183.461,2.625,2.625,0,0,0-1.291,1.458.248.248,0,0,1-.23.155" transform="translate(-396.567 -1327.985)" fill="#e8c0a6"/>
            <path id="Trazado_797031" data-name="Trazado 797031" d="M476.2,1472.084c-.232.105-.913.5-1.152.359-1.033-3.379-2.267-7.262-3.224-9.994-.108-.29,3.352-12.29,3.251-12.572l1.88.244s-1.643,9.7-2.519,13.629,1.764,8.334,1.764,8.334" transform="translate(-391.151 -1201.984)" fill="#d1a68f"/>
            <path id="Trazado_797032" data-name="Trazado 797032" d="M467.34,1600.514a.249.249,0,0,1-.237-.321,3.9,3.9,0,0,1,1.768-2.171.248.248,0,0,1,.229.439,3.457,3.457,0,0,0-1.523,1.879.248.248,0,0,1-.237.175" transform="translate(-387.231 -1324.774)" fill="#e8c0a6"/>
            <path id="Trazado_797033" data-name="Trazado 797033" d="M454.524,1598.155a.249.249,0,0,1-.234-.329,4.895,4.895,0,0,1,1.736-2.312.248.248,0,0,1,.274.413,4.467,4.467,0,0,0-1.542,2.061.248.248,0,0,1-.234.167" transform="translate(-376.606 -1322.685)" fill="#e8c0a6"/>
            <path id="Trazado_797034" data-name="Trazado 797034" d="M435.687,1616.517H422.35l0,.012a1.332,1.332,0,0,0,1.329,1.154h11.2a.864.864,0,0,0,.819-1.146l-.007-.02" transform="translate(-350.139 -1340.133)" fill="#ce3932"/>
            <path id="Trazado_797035" data-name="Trazado 797035" d="M302.06,1355.838a81.862,81.862,0,0,1-3.007,8.749h0c-.5,1.228-.831,1.939-.831,1.939-4.019,1.534-8.316-.8-8.316-.8,2.8-33.49-.833-30.057-24.761-33.009-5.263-5.529,12.885-14.257,24.637-7.994,14.767,6.745,16.748,14.692,12.279,31.117" transform="translate(-219.036 -1096.427)" fill="#e8c0a6"/>
            <path id="Trazado_797036" data-name="Trazado 797036" d="M292.466,1199.087a32.02,32.02,0,0,1-20.8,1.736c-.234-19.651-28.09-5.209-29.027-15.426-.354-8.149.657-27.215,16.234-37.874,4.822,4.405,4.645.77,4.625.485,2.392,1.22,2.92,5.911,4.271,7.665,1.992,3.324,2.575,6.886,1.528,9.741-1.488,4.336-4.9,4.25-5,7.789-.141.477,4.088,1.86,6.429,2.588,2,.618,4.6,1.371,7.95,2.289,9.069,2.482,13.782,21.006,13.782,21.006" transform="translate(-201.113 -951.325)" fill="#e9f4ff"/>
            <path id="Trazado_797037" data-name="Trazado 797037" d="M326.339,1223.06c-18.586-2.572-13.6-17.734-13.6-17.734l10.176,13.267a3.14,3.14,0,0,0-.958,2.531c.016.242.881.781,4.381,1.936" transform="translate(-258.765 -999.246)" fill="#d1e0f2"/>
            <path id="Trazado_797038" data-name="Trazado 797038" d="M423.648,1564.489c-.5,1.228-.831,1.939-.831,1.939-4.113,1.621-8.316-.8-8.316-.8.047-.666.09-1.314.133-1.947,0,0,3.137,2.206,9.013.811" transform="translate(-343.632 -1296.328)" fill="#d1a68f"/>
            <path id="Trazado_797039" data-name="Trazado 797039" d="M366.462,1049.514s3.83-.6,4.19,4.477-5.81,7.995-5.81,7.995Z" transform="translate(-302.463 -870.055)" fill="#8c4225"/>
            <path id="Trazado_797040" data-name="Trazado 797040" d="M337.448,1065.181a6.866,6.866,0,0,1-6.391-.322c-.1-.057-.2-.117-.3-.18h0a4.971,4.971,0,0,1-1.533-1.528h0a9.619,9.619,0,0,1,1.5-10.527c1.956-2.181,6.01-2.406,7.622.252a9.6,9.6,0,0,1,.994,4.488,6.37,6.37,0,0,0,.645,1.955c.916,2.056.073,4.435-2.531,5.864" transform="translate(-272.148 -871.251)" fill="#f99370"/>
            <path id="Trazado_797041" data-name="Trazado 797041" d="M341.667,1062.994l-.146-2.812,6.919-3.828c1.539.707,1.812,6.182-6.773,6.64" transform="translate(-283.129 -875.744)" fill="#e57d61"/>
            <path id="Trazado_797042" data-name="Trazado 797042" d="M336.052,1046.018c.579,2.227-2.48,7.25-9.883,5.522-.792-4.731,5.135-11,9.883-5.522" transform="translate(-270.343 -865.407)" fill="#8c4225"/>
            <path id="Trazado_797043" data-name="Trazado 797043" d="M382.755,1093.189c.288-.277-.154-.722-.433-.437s.154.722.433.437" transform="translate(-316.876 -905.843)" fill="#c16256"/>
            <path id="Trazado_797044" data-name="Trazado 797044" d="M476.262,1191.219c-7.368-1.479-16.6-11.989-7.6-19.672a1.43,1.43,0,1,1,1.851,2.179c-6.735,4.983.81,13.207,5.533,14.6,1.305-.595,3.957-2.193,4.466-4.309.867-2.967-3.342-4.662-1.5-6.419a1.43,1.43,0,0,1,2.018.135c6.029,6.291-.663,12.6-4.766,13.484" transform="translate(-385.447 -970.96)" fill="#4867aa"/>
            <path id="Trazado_797045" data-name="Trazado 797045" d="M439.742,1130.724l-12.31-9.858c-3.211-2.661.665-7.514,3.971-4.958l12.309,9.858a3.176,3.176,0,1,1-3.971,4.958" transform="translate(-353.355 -924.518)" fill="#667ecc"/>
            <path id="Trazado_797046" data-name="Trazado 797046" d="M477.576,1211.275l1.483-1.3,1.664,1.934-1.067,1.994Z" transform="translate(-395.923 -1003.101)" fill="#f99370"/>
            <path id="Trazado_797047" data-name="Trazado 797047" d="M487.739,1175.89c.52.192-.12,1.241-.031,1.738a8.59,8.59,0,0,0,1.4-.967c.628-.891,1.209-1.812,1.75-2.759a.534.534,0,0,1,.25-.227c1.143-.5-.908,3.022-1.047,3.389l.015.009a26.062,26.062,0,0,0,2.361-2.469.521.521,0,0,1,.3-.183c1.291-.252-1.814,3.1-2.062,3.411l.007.005a14.939,14.939,0,0,0,2.5-2.059.521.521,0,0,1,.341-.162c1.255-.067-2.1,2.987-2.46,3.23l0,.013a14.885,14.885,0,0,0,2.188-1.285.514.514,0,0,1,.4-.089c1.236.271-4.208,3.943-5.79,4.29-.631.22-1.6-.892-1.666-1.545a4.924,4.924,0,0,1,.481-2.05c.139-.554.394-2.3,1.063-2.292" transform="translate(-403.061 -972.967)" fill="#f99370"/>
            <path id="Trazado_797048" data-name="Trazado 797048" d="M344.461,1162.128c-12.265,27.776-40.328,3.816-25.969-14.605,8.748,10.175,8.389,23.779,23.89,11.978,2.078,1.284,2.079,2.628,2.079,2.628" transform="translate(-260.728 -951.325)" fill="#e9f4ff"/>
            <path id="Trazado_797049" data-name="Trazado 797049" d="M288.413,1032.591c-2.682-6.839-12.487-3.208-12.5,4.285-.293,2.531-4.332,4.624-5.793,7.885-2.112,4.717-.89,10.3,4.378,10.757,8.033.69,8.849-6.783,7.3-10.222a34.3,34.3,0,0,1-1.542-4.624Z" transform="translate(-223.122 -853.038)" fill="#8c4225"/>
            <path id="Trazado_797050" data-name="Trazado 797050" d="M353.6,1105.123a6.711,6.711,0,0,1-2.123.539,10.063,10.063,0,0,1-3.931-4.2,5.354,5.354,0,0,0,2.445-2.415s3.6,1.187,5.964.157c.917,2.056.248,4.491-2.355,5.92" transform="translate(-288.128 -911.137)" fill="#e9f4ff"/>
            <path id="Trazado_797051" data-name="Trazado 797051" d="M345.38,1092.109c-.092-.081-3.54-1.326-3.392-1.542.054-.265,3.32,1.339,3.437,1.318a.117.117,0,0,1-.045.224" transform="translate(-283.512 -904.083)" fill="#c16256"/>
            <path id="Trazado_797052" data-name="Trazado 797052" d="M336.982,1104.451a.116.116,0,0,1-.075-.027l-2.063-1.72a.116.116,0,0,1-.015-.164c.05-.284,2.159,1.721,2.227,1.705a.117.117,0,0,1-.075.206" transform="translate(-277.56 -914.01)" fill="#c16256"/>
            <path id="Trazado_797053" data-name="Trazado 797053" d="M325.668,1084.041c-.251,2.35,2.614,2.67,2.887.322.251-2.35-2.614-2.67-2.887-.322" transform="translate(-269.974 -897.363)" fill="#f99370"/>
            <path id="Trazado_797054" data-name="Trazado 797054" d="M328.581,1087.784a.116.116,0,0,1-.116-.119c-.038-1.562.914-1.894,1.708-1.214a.116.116,0,0,1-.149.179c-.681-.585-1.358-.264-1.327,1.04a.117.117,0,0,1-.116.114" transform="translate(-272.305 -900.417)" fill="#c16256"/>
            <path id="Trazado_797055" data-name="Trazado 797055" d="M330.8,1089.5c-.273-.066-.032-.932-.9-1.314a.116.116,0,0,1,.088-.216c.829.365,1.083,1.506.808,1.529" transform="translate(-273.44 -901.948)" fill="#c16256"/>
            <path id="Trazado_797056" data-name="Trazado 797056" d="M330.775,1099.247a.261.261,0,0,0,.5.164.261.261,0,0,0-.5-.164" transform="translate(-274.208 -911.158)" fill="#f4d4be"/>
            <path id="Trazado_797057" data-name="Trazado 797057" d="M517.616,1191.484a1.44,1.44,0,0,1-1.062-2.386l8.371-9.3a1.43,1.43,0,1,1,2.126,1.913c-.6.36-8.614,10.338-9.434,9.778" transform="translate(-427.933 -977.686)" fill="#4867aa"/>
            <path id="Trazado_797058" data-name="Trazado 797058" d="M495.863,1554.935c-.027,1.488-.086,2.373-.086,2.373a10.256,10.256,0,0,1-8.051,2.23q-.312-1.018-.611-1.981v0a13.666,13.666,0,0,0,8.747-2.62" transform="translate(-403.83 -1289.08)" fill="#d1a68f"/>
            <path id="Trazado_797059" data-name="Trazado 797059" d="M474.785,1220.2c-.164.436-.431.9-.608,1.308a5.315,5.315,0,0,0-2.477-3.165c.633-.459,1.005-.771,1.005-.771,2.232.949,2.079,2.628,2.079,2.628" transform="translate(-391.052 -1009.402)" fill="#d1e0f2"/>
            <path id="Trazado_797060" data-name="Trazado 797060" d="M375.611,1203.339c-.255-.087-3.279-1.394-5.308-7.013a.143.143,0,0,1,.27-.1c1.918,5.858,5,6.542,5.039,7.109" transform="translate(-306.983 -991.628)" fill="#d1e0f2"/>
            <path id="Trazado_797061" data-name="Trazado 797061" d="M486.33,1267.313H466.617c-.311-3.338.567-6.677,4.5-6.827h10.714c3.926.148,4.814,3.492,4.5,6.827" transform="translate(-386.79 -1044.974)" fill="#667ecc"/>
            <path id="Trazado_797062" data-name="Trazado 797062" d="M376.8,1088.819a.128.128,0,0,1-.088-.221,2.619,2.619,0,0,1,1.914-.673.128.128,0,0,1-.027.255,2.383,2.383,0,0,0-1.71.6.127.127,0,0,1-.088.035" transform="translate(-312.27 -901.907)" fill="#c16256"/>
            <path id="Trazado_797063" data-name="Trazado 797063" d="M623.34,1203.76h-3.075a.471.471,0,0,0,0,.941v12.79a1.537,1.537,0,1,0,3.075,0V1204.7a.471.471,0,0,0,0-.941" transform="translate(-513.836 -997.947)" fill="#fff"/>
            <path id="Trazado_797064" data-name="Trazado 797064" d="M626.692,1228.251a.987.987,0,0,1-.987-.987v-11.453h1.974v11.453a.987.987,0,0,1-.987.987" transform="translate(-518.725 -1007.938)" fill="#9358e0"/>
            <path id="Trazado_797065" data-name="Trazado 797065" d="M653.056,1203.76h-3.075a.471.471,0,0,0,0,.941v12.79a1.537,1.537,0,1,0,3.075,0V1204.7a.471.471,0,0,0,0-.941" transform="translate(-538.471 -997.947)" fill="#fff"/>
            <path id="Trazado_797066" data-name="Trazado 797066" d="M657.392,1239.208v7.453a.987.987,0,0,1-1.974,0v-7.453Z" transform="translate(-543.358 -1027.335)" fill="#ce4abf"/>
            <path id="Trazado_797067" data-name="Trazado 797067" d="M682.221,1203.76h-3.075a.471.471,0,0,0,0,.941v12.79a1.537,1.537,0,1,0,3.075,0V1204.7a.471.471,0,0,0,0-.941" transform="translate(-562.65 -997.947)" fill="#fff"/>
            <path id="Trazado_797068" data-name="Trazado 797068" d="M686.558,1260.207v3.862a.987.987,0,1,1-1.974,0v-3.862Z" transform="translate(-567.537 -1044.743)" fill="#eb5648"/>
            <path id="Trazado_797069" data-name="Trazado 797069" d="M711.387,1203.76h-3.075a.471.471,0,0,0,0,.941v12.79a1.537,1.537,0,1,0,3.075,0V1204.7a.471.471,0,0,0,0-.941" transform="translate(-586.829 -997.947)" fill="#fff"/>
            <path id="Trazado_797070" data-name="Trazado 797070" d="M714.739,1228.251a.987.987,0,0,1-.987-.987v-11.453h1.974v11.453a.987.987,0,0,1-.987.987" transform="translate(-591.718 -1007.938)" fill="#ce3932"/>
            <path id="Trazado_797071" data-name="Trazado 797071" d="M627.43,1230.174H603.656c-.718.087-.681,1.164.47.975v10.772a.47.47,0,1,0,.941,0v-10.772h20.951v10.772a.471.471,0,1,0,.941,0v-10.772h.47a.488.488,0,0,0,0-.975" transform="translate(-500.049 -1019.845)" fill="#4867aa"/>
            <path id="Trazado_797072" data-name="Trazado 797072" d="M1488,1471.047h7.818a1.2,1.2,0,0,1,0,2.392v32.52a3.909,3.909,0,1,1-7.818,0v-32.52a1.2,1.2,0,0,1,0-2.392" transform="translate(-1232.623 -1219.535)" fill="#fff"/>
            <path id="Trazado_797073" data-name="Trazado 797073" d="M1504.338,1533.321a2.51,2.51,0,0,0,2.51-2.51V1501.69h-5.019v29.121a2.509,2.509,0,0,0,2.509,2.51" transform="translate(-1245.053 -1244.939)" fill="#9358e0"/>
            <path id="Trazado_797074" data-name="Trazado 797074" d="M1412.442,1471.047h7.818a1.2,1.2,0,0,1,0,2.392v32.52a3.909,3.909,0,1,1-7.818,0v-32.52a1.2,1.2,0,0,1,0-2.392" transform="translate(-1169.985 -1219.535)" fill="#fff"/>
            <path id="Trazado_797075" data-name="Trazado 797075" d="M1426.277,1561.179v18.949a2.509,2.509,0,0,0,5.019,0v-18.949Z" transform="translate(-1182.419 -1294.256)" fill="#ce4abf"/>
            <path id="Trazado_797076" data-name="Trazado 797076" d="M1338.285,1471.047h7.818a1.2,1.2,0,0,1,0,2.392v32.52a3.909,3.909,0,1,1-7.818,0v-32.52a1.2,1.2,0,0,1,0-2.392" transform="translate(-1108.507 -1219.535)" fill="#fff"/>
            <path id="Trazado_797077" data-name="Trazado 797077" d="M1352.119,1614.572v9.82a2.51,2.51,0,1,0,5.019,0v-9.82Z" transform="translate(-1120.94 -1338.521)" fill="#eb5648"/>
            <path id="Trazado_797078" data-name="Trazado 797078" d="M1264.128,1471.047h7.818a1.2,1.2,0,0,1,0,2.392v32.52a3.909,3.909,0,1,1-7.818,0v-32.52a1.2,1.2,0,0,1,0-2.392" transform="translate(-1047.028 -1219.535)" fill="#fff"/>
            <path id="Trazado_797079" data-name="Trazado 797079" d="M1280.466,1533.321a2.509,2.509,0,0,0,2.509-2.51V1501.69h-5.019v29.121a2.509,2.509,0,0,0,2.509,2.51" transform="translate(-1059.458 -1244.939)" fill="#ce3932"/>
            <path id="Trazado_797080" data-name="Trazado 797080" d="M1222.159,1538.208h60.448c1.825.221,1.731,2.959-1.2,2.478v27.39a1.2,1.2,0,1,1-2.392,0v-27.39h-53.272v27.39a1.2,1.2,0,1,1-2.392,0v-27.39h-1.2a1.242,1.242,0,0,1,0-2.478" transform="translate(-1012.237 -1275.213)" fill="#4867aa"/>
            <rect id="Rectángulo_373559" data-name="Rectángulo 373559" width="54.558" height="4.612" transform="translate(76.562 224.439)" fill="#4867aa"/>
            <path id="Trazado_797081" data-name="Trazado 797081" d="M420.3,1299.552h63.96v2.417h-3.634v53.674h-2.9v-53.674H426.833v53.674h-2.9v-53.674H420.3Z" transform="translate(-348.438 -1077.361)" fill="#395b96"/>
            <path id="Trazado_797082" data-name="Trazado 797082" d="M1048.95,93.088s1.8-3.377,7.3-2.38,6.8,7.759,8.663,10.836c3.954,6.519,5.138,13.447,3.084,16.775-2.281,3.7-7.319,2.251-14.675,1.588-7.85-.707-11.139-7.309-6.256-16.387Z" transform="translate(-866.144 -75.047)" fill="#c92828"/>
            <path id="Trazado_797083" data-name="Trazado 797083" d="M1010.7,197.343s0,0,0,.006c-.013.02-.046.072-.1.155-.813,1.263-6.027,9.611-6.351,16.438a10.59,10.59,0,0,1-.361,2.276l-1.343-.1c-.6-.042-1.214-.087-1.82-.131l-4.786-.342c-.733-5.454,6.73-16.637,13.536-17.962v0l.006,0a11.149,11.149,0,0,1,1.222-.34" transform="translate(-825.61 -163.603)" fill="#e9f4ff"/>
            <path id="Trazado_797084" data-name="Trazado 797084" d="M892.1,642.961l10.934-.116c-.028-1.694-.494-5.113-.147-7.045l-4.72.59c.131.928.421,2.941-1.169,3.423-2.06.624-4.3.432-5.589,1.968a.774.774,0,0,0,.689,1.18" transform="translate(-738.897 -527.094)" fill="#f99370"/>
            <path id="Trazado_797085" data-name="Trazado 797085" d="M902.889,655.881a2.627,2.627,0,0,1-.321,1.024l-11.041.117a.765.765,0,0,1-.759-.995c.406-1.151,1.843-2.831,6.929-3.143a12.487,12.487,0,0,0,4.62-.125,7.123,7.123,0,0,1,.571,3.122" transform="translate(-738.436 -541.154)" fill="#1d3f70"/>
            <path id="Trazado_797086" data-name="Trazado 797086" d="M902.635,660.745a.224.224,0,0,1-.206-.133,2.333,2.333,0,0,0-1.18-1.263c-.586-.863,1.085-.262,1.592,1.1a.218.218,0,0,1-.206.3" transform="translate(-747.056 -546.284)" fill="#e8c0a6"/>
            <path id="Trazado_797087" data-name="Trazado 797087" d="M911.87,657.623a.223.223,0,0,1-.213-.151,3.036,3.036,0,0,0-1.393-1.628c-.534-1.005,1.41.056,1.819,1.5a.219.219,0,0,1-.213.283" transform="translate(-754.555 -543.383)" fill="#e8c0a6"/>
            <path id="Trazado_797088" data-name="Trazado 797088" d="M923.486,655.407a.224.224,0,0,1-.21-.143,3.939,3.939,0,0,0-1.412-1.788c-.415-1.055,1.354.211,1.833,1.641a.219.219,0,0,1-.21.29" transform="translate(-764.196 -541.424)" fill="#e8c0a6"/>
            <path id="Trazado_797089" data-name="Trazado 797089" d="M890.775,671.146l12.114-.129a2.625,2.625,0,0,1-.321,1.024l-11.041.117a.764.764,0,0,1-.752-1.012" transform="translate(-738.435 -556.29)" fill="#395b96"/>
            <path id="Trazado_797090" data-name="Trazado 797090" d="M934.2,383.386c-5.382-.219-14.757-3.091-18.8,3.543-4.427,7.246-3.343,22.617-2.9,30.046-5.908,1.843-9.084,0-9.084,0-2.517-15.207-10.806-49.844,16.912-45.038,0,0,18.589,0,18.589,0,3.11,6.141.329,11.347-4.72,11.45" transform="translate(-746.36 -307.97)" fill="#3a72aa"/>
            <path id="Trazado_797091" data-name="Trazado 797091" d="M968.785,642.958l10.934-.116c-.028-1.694-.494-5.113-.147-7.045l-4.72.591c.131.928.459,2.941-1.169,3.423-2.064.611-4.3.432-5.589,1.968a.774.774,0,0,0,.689,1.18" transform="translate(-802.474 -527.092)" fill="#f99370"/>
            <path id="Trazado_797092" data-name="Trazado 797092" d="M979.579,656.148a2.626,2.626,0,0,1-.321,1.024l-11.041.117a.765.765,0,0,1-.759-.995c.406-1.151,1.843-2.831,6.929-3.143a11.647,11.647,0,0,0,4.623-.069,6.8,6.8,0,0,1,.568,3.066" transform="translate(-802.013 -541.422)" fill="#1d3f70"/>
            <path id="Trazado_797093" data-name="Trazado 797093" d="M979.325,660.741a.224.224,0,0,1-.206-.133,2.333,2.333,0,0,0-1.18-1.263c-.586-.863,1.085-.262,1.592,1.1a.218.218,0,0,1-.206.3" transform="translate(-810.634 -546.28)" fill="#e8c0a6"/>
            <path id="Trazado_797094" data-name="Trazado 797094" d="M988.56,657.62a.223.223,0,0,1-.213-.15,3.036,3.036,0,0,0-1.393-1.628c-.534-1.005,1.41.056,1.819,1.5a.219.219,0,0,1-.213.283" transform="translate(-818.133 -543.381)" fill="#e8c0a6"/>
            <path id="Trazado_797095" data-name="Trazado 797095" d="M1022.983,232.438s-4.117,3.437-5.466,7.917c-1.089,3.616,2.667,2.533,3.338.547s2.128-8.464,2.128-8.464" transform="translate(-843.384 -192.697)" fill="#d1e0f2"/>
            <path id="Trazado_797096" data-name="Trazado 797096" d="M1000.177,655.4a.224.224,0,0,1-.21-.143,3.937,3.937,0,0,0-1.412-1.788c-.414-1.055,1.355.211,1.833,1.641a.219.219,0,0,1-.21.29" transform="translate(-827.774 -541.422)" fill="#e8c0a6"/>
            <path id="Trazado_797097" data-name="Trazado 797097" d="M967.464,671.143l12.114-.129a2.623,2.623,0,0,1-.321,1.024l-11.041.117a.764.764,0,0,1-.752-1.012" transform="translate(-802.013 -556.288)" fill="#395b96"/>
            <path id="Trazado_797098" data-name="Trazado 797098" d="M971.082,374.13l-1.59,11.23c-6.951,2.652-7.451,9.745-8.085,17.723-3.219-12.325-2.939-24.789,9.675-28.953" transform="translate(-795.599 -310.164)" fill="#23659b"/>
            <path id="Trazado_797099" data-name="Trazado 797099" d="M998.468,383.88c-5.632,3.36-11.257-.306-15.218,7.442-3.2,6.784-1.4,19.749-.526,25.626-5.908,1.843-9.085,0-9.085,0-3.5-13.118-11.515-43.6,11.125-45.038,6.2-.191,14.346-.139,19.825-.459a12.286,12.286,0,0,1-6.121,12.429" transform="translate(-803.625 -307.943)" fill="#3a72aa"/>
            <path id="Trazado_797100" data-name="Trazado 797100" d="M1053.336,223.609a26.294,26.294,0,0,1-.216,7.185c-7.319-2.254-13.972-2.463-25.089-3.967,7.021-20.378-9.241-6.12,9.321-29.885.045,0,4.612-.08,4.612-.08,5.219,3.8,8.564,9.328,11.374,26.748" transform="translate(-852.262 -163.203)" fill="#3a72aa"/>
            <path id="Trazado_797101" data-name="Trazado 797101" d="M923.614,197.378c-.012.02-.046.072-.1.155-.814,1.263-6.027,9.611-6.351,16.438a10.6,10.6,0,0,1-.361,2.277c-1.718,6.445-9.047,12-14.165,15.374-5.709,3.765-7.617,11.626-6.84,19.237,0,0-.455.068-1.117.107a9.916,9.916,0,0,1-3.474-.312s-1.38-9.106,1.254-14.719,8.424-8.764,15.561-10.886c.268-.078.521-.165.764-.255a6.736,6.736,0,0,0,4.555-4.766v0a13.285,13.285,0,0,0,.3-4.006c-.052-1.092-.162-2.124-.178-2.992-.06-3.079,2.486-7.517,7.482-12.909q1.236-1.333,2.671-2.741" transform="translate(-738.533 -163.632)" fill="#e9f4ff"/>
            <path id="Trazado_797102" data-name="Trazado 797102" d="M1038.834,226.028a31.134,31.134,0,0,1-1.133,7.423c-1.758,5.752-7.571,7.463-13.459,9.345a8.613,8.613,0,0,0-6.052,7.634,25.085,25.085,0,0,1-7.743.179c-.84-.093-1.37-.179-1.37-.179,1.2-14.592,9.536-17.594,13.988-21.588s.776-12.162.843-17.982c.062-5.637,2.2-13.49,2.337-13.974l.006-.024c.326.125.643.254.953.39,8.534,3.706,10.854,11.27,11.263,16.617a98.351,98.351,0,0,1,.367,12.161" transform="translate(-836.55 -163.202)" fill="#e9f4ff"/>
            <path id="Trazado_797103" data-name="Trazado 797103" d="M1026.041,202.887a45.993,45.993,0,0,0-.986,7.972c.129,3.767,2.594,11.875,1.115,16.309s-7.274,5.257-11.3,10.869a26.812,26.812,0,0,0-4.423,12.571c-.84-.092-1.37-.179-1.37-.179,1.2-14.592,9.536-17.594,13.988-21.588s.776-12.162.843-17.982c.062-5.637,2.2-13.49,2.337-13.975l.006-.024c.343.006.685.024,1.027.056-.015.062-.042.177-.075.334-.2.879-.7,3.135-1.162,5.637" transform="translate(-836.55 -163.202)" fill="#d1e0f2"/>
            <path id="Trazado_797104" data-name="Trazado 797104" d="M940.8,197.343s0,0,0,.006c-.013.02-.046.072-.1.155-.813,1.263-6.027,9.611-6.351,16.438a10.59,10.59,0,0,1-.361,2.276c-1.718,6.445-9.047,12-14.164,15.374-5.709,3.765-7.617,11.626-6.841,19.237,0,0-.454.068-1.116.107-1.4-9.615,2.53-17.291,5.78-19.412a84.33,84.33,0,0,0,8.324-6.759A29.742,29.742,0,0,0,930.525,220v0c.72-1.267,1.538-2.606,2.119-3.875a7.762,7.762,0,0,0,.753-2.492,19.379,19.379,0,0,1,1.92-8.394c.919-1.844,1.978-3.722,2.81-5.146s1.446-2.4,1.446-2.4l.006,0a11.149,11.149,0,0,1,1.222-.34" transform="translate(-755.717 -163.603)" fill="#d1e0f2"/>
            <path id="Trazado_797105" data-name="Trazado 797105" d="M890.245,296.216h24.6l-4.9-17.475H885.5Z" transform="translate(-734.098 -231.084)" fill="#163260"/>
            <rect id="Rectángulo_373560" data-name="Rectángulo 373560" width="24.603" height="1.187" transform="translate(156.148 65.045)" fill="#234270"/>
            <path id="Trazado_797106" data-name="Trazado 797106" d="M1026.362,278.741h.88l4.8,17.388h11.676v1.187h-12.5v-1.061Z" transform="translate(-850.879 -231.084)" fill="#0b274f"/>
            <path id="Trazado_797107" data-name="Trazado 797107" d="M1082.5,187.823l-.111,1.583a7.975,7.975,0,0,0,.027,1.639,1.542,1.542,0,0,0,2.578.976,12.84,12.84,0,0,0,2.008-2.695,13.684,13.684,0,0,1,.078-1.554Z" transform="translate(-897.304 -155.668)" fill="#f99370"/>
            <path id="Trazado_797108" data-name="Trazado 797108" d="M1088.257,148.479c-.019.075-.041.151-.066.224a22.572,22.572,0,0,0-.863,4.565,7.533,7.533,0,0,1-4.629.851c.1-2.971.363-7.418,2.724-8.246a2.253,2.253,0,0,1,2.833,2.606" transform="translate(-897.585 -120.855)" fill="#e57d61"/>
            <path id="Trazado_797109" data-name="Trazado 797109" d="M1054.715,104.132c-5.933-.69-6.875,8.386-2.842,11.726Z" transform="translate(-869.997 -86.298)" fill="#c92828"/>
            <path id="Trazado_797110" data-name="Trazado 797110" d="M1063.366,112.974c.286,1.982.3,4.307-.837,6.015h0c-3.122,4.948-13.452,1.758-10.622-4.109a5.709,5.709,0,0,0,.681-2.431c.093-8.1,9.954-6.4,10.78.524" transform="translate(-871.652 -88.745)" fill="#f99370"/>
            <path id="Trazado_797111" data-name="Trazado 797111" d="M1075.2,145.419c-.283-.275.169-.7.444-.416s-.169.7-.444.416" transform="translate(-891.294 -120.135)" fill="#c16256"/>
            <path id="Trazado_797112" data-name="Trazado 797112" d="M1059.946,147.386c-.283-.275.169-.7.444-.416s-.169.7-.444.416" transform="translate(-878.647 -121.765)" fill="#c16256"/>
            <path id="Trazado_797113" data-name="Trazado 797113" d="M1064.887,150.994c-.522.081-1.278-.051-.784-.657a3.272,3.272,0,0,0,.518-1.713.117.117,0,0,1,.234.008,3.4,3.4,0,0,1-.585,1.863c-.06.059-.122.14-.078.191a1.074,1.074,0,0,0,1.049-.062.119.119,0,0,1,.162.028c.087.236-.334.288-.516.342" transform="translate(-882.034 -123.126)" fill="#c16256"/>
            <path id="Trazado_797114" data-name="Trazado 797114" d="M1073.918,112.632c.286,1.982.3,4.306-.837,6.015h0a10.662,10.662,0,0,0,.329-3.735l-.728-.9c-7.438-.1-8.532-5.535-8.532-5.535,3.269-4.255,9.383-.412,9.771,4.156" transform="translate(-882.204 -88.402)" fill="#e57d61"/>
            <path id="Trazado_797115" data-name="Trazado 797115" d="M1067.483,101.247s1.106,5.355,7.838,5.679l1.8-1.811c.839-4.661-4.879-9.434-9.642-3.868" transform="translate(-884.97 -81.856)" fill="#c92828"/>
            <path id="Trazado_797116" data-name="Trazado 797116" d="M1116.165,137.477a1.476,1.476,0,1,1-2.9.255,1.476,1.476,0,1,1,2.9-.255" transform="translate(-922.911 -112.663)" fill="#f99370"/>
            <path id="Trazado_797117" data-name="Trazado 797117" d="M1118.9,139.847h0c-.3-.9-2.086.061-1.326.1,0-.04.794-.5,1.04-.1-.779.356-1.039,1.764-.588,1.309a1.525,1.525,0,0,1,.708-1.113c.3,2.048.581.627.166-.19" transform="translate(-926.34 -115.62)" fill="#c16256"/>
            <path id="Trazado_797118" data-name="Trazado 797118" d="M1122.512,152.21c.1.314-.406.466-.5.15s.406-.466.5-.15" transform="translate(-930.163 -126.041)" fill="#f4d4be"/>
            <path id="Trazado_797119" data-name="Trazado 797119" d="M925.68,622.629c.1,1.591.184,2.552.184,2.552-5.908,1.844-9.085,0-9.085,0s-.12-.813-.375-2.189c.071.034,3.741,1.818,9.276-.362" transform="translate(-759.722 -516.175)" fill="#23659b"/>
            <path id="Trazado_797120" data-name="Trazado 797120" d="M1000.876,627.81c-5.908,1.844-9.084,0-9.084,0s-.2-.737-.533-2.009c0,0,3.258,1.642,9.309,0,.179,1.258.309,2.009.309,2.009" transform="translate(-821.777 -518.805)" fill="#23659b"/>
            <path id="Trazado_797121" data-name="Trazado 797121" d="M1073.071,139.173a.134.134,0,0,1-.081-.027,1.731,1.731,0,0,0-1.446-.372.133.133,0,0,1-.164-.086.127.127,0,0,1,.088-.159,2,2,0,0,1,1.685.415.126.126,0,0,1,.023.18.134.134,0,0,1-.1.049" transform="translate(-888.195 -114.806)" fill="#c16256"/>
            <path id="Trazado_797122" data-name="Trazado 797122" d="M1057.935,140.531a.136.136,0,0,1-.074-.022.126.126,0,0,1-.036-.178,1.4,1.4,0,0,1,1.117-.582.128.128,0,1,1-.01.256,1.158,1.158,0,0,0-.888.469.133.133,0,0,1-.11.056" transform="translate(-876.944 -115.855)" fill="#c16256"/>
            <path id="Trazado_797123" data-name="Trazado 797123" d="M1072.788,163.429a.521.521,0,0,1-.421-.18c-.205-.257-.07-.681.309-.964a.77.77,0,0,1,1.041-.047h0c.205.257.069.681-.309.964a1.063,1.063,0,0,1-.62.227m.507-1.114a.792.792,0,0,0-.457.172c-.274.206-.358.484-.261.6s.4.113.67-.093.358-.484.261-.6a.266.266,0,0,0-.213-.079" transform="translate(-888.939 -134.35)" fill="#c16256"/>
            <path id="Trazado_797124" data-name="Trazado 797124" d="M1107.856,215.017a18.279,18.279,0,0,1,7.2,18.272c-.574,3.787-3.04,7.388-6.9,8.46-1.9.738-10.787,1.925-10.373-1.131.141-.733.812-1,1.461-1.2,1.071-.366,2.175-.77,3.2-1.22,1.829-.92,4.18-1.781,4.578-3.771a13,13,0,0,0-4.7-12.219c.006,0-.017-.014.036.023-4.854-3.5.611-10.676,5.495-7.216" transform="translate(-910.083 -177.493)" fill="#f99370"/>
            <path id="Trazado_797125" data-name="Trazado 797125" d="M1123.774,226.3c-.353.207-.724.408-1.11.6a18.186,18.186,0,0,1-7.727,1.705s.486-3.041-1.781-4.291c10.693-7.875-.678-12.461-1.548-20.167a24.432,24.432,0,0,1,.61-6.96c13.065,1.2,26.285,20.5,11.556,29.111" transform="translate(-921.49 -163.475)" fill="#e9f4ff"/>
            <path id="Trazado_797126" data-name="Trazado 797126" d="M1066.161,364.348s1.1-3.712,7.637-3.285l1.37,3.285Z" transform="translate(-883.874 -299.303)" fill="#f99370"/>
            <path id="Trazado_797127" data-name="Trazado 797127" d="M1124.315,355.306c-.935.1-1.517.1-1.517.1s.485-3.04-1.782-4.292a12.281,12.281,0,0,0,1.287-.975,5.544,5.544,0,0,1,2.012,5.164" transform="translate(-929.35 -290.277)" fill="#d1e0f2"/>
            <path id="Trazado_797128" data-name="Trazado 797128" d="M1067.281,369.56c-1.162.035,3.069-2.778,4.331-2.091a.182.182,0,0,1-.166.2,9.107,9.107,0,0,0-4.165,1.893" transform="translate(-884.636 -304.552)" fill="#e57d61"/>
            <path id="Trazado_797129" data-name="Trazado 797129" d="M1077.9,374.049c-.882-.365,1.858-.99,3.215-1.346a.186.186,0,0,1,.22.14.18.18,0,0,1-.145.213,31.7,31.7,0,0,0-3.29.993" transform="translate(-893.465 -308.978)" fill="#e57d61"/>
            <path id="Trazado_797130" data-name="Trazado 797130" d="M1119.925,276.714a.314.314,0,0,1-.244-.114.3.3,0,0,1,.05-.424c4.17-3.207,3.8-7.262,2.54-9.205-1.377-2.117-3.758-5.989-3.782-6.028a.3.3,0,0,1,.108-.414.317.317,0,0,1,.427.1c.024.039,2.4,3.9,3.775,6.015,1.383,2.127,1.811,6.545-2.68,10a.317.317,0,0,1-.193.065" transform="translate(-927.219 -215.951)" fill="#d1e0f2"/>
            <path id="Trazado_797131" data-name="Trazado 797131" d="M1135.558,369.111a.3.3,0,0,1-.023-.6c.051,0,5.112-.388,7.443-1.746a.317.317,0,0,1,.427.1.3.3,0,0,1-.106.414c-2.458,1.432-7.5,1.815-7.717,1.83h-.024" transform="translate(-941.148 -304.02)" fill="#d1e0f2"/>
            <path id="Trazado_797132" data-name="Trazado 797132" d="M1859.228,1223.736a34.114,34.114,0,0,0-12.64,0l-2.809-37.326,16.7-.409Z" transform="translate(-1528.539 -983.225)" fill="#e9f4ff"/>
            <path id="Trazado_797133" data-name="Trazado 797133" d="M1959.173,1547.418l.209-.109c0,.146.181.654.327.654l6.178.127c.146,0,.236-.275.236-.422l.527-.151a3.17,3.17,0,0,0-.485-1.977c-1.5-2,.291-10.924.239-13.257.37-.638-6.506-.137-6.6-.288a.265.265,0,0,0-.264.286l.809,10.2c.363,1.937-1.124,3.108-1.175,4.934" transform="translate(-1624.203 -1270.025)" fill="#f99370"/>
            <path id="Trazado_797134" data-name="Trazado 797134" d="M1775.572,1548.3h12.306c1.074-.043,1.066-1.139.868-1.988-.677-3.062.52-10.094.742-13.244a.978.978,0,0,0-.973-1.078c-9.08-.092-6.118-.819-5.414,8.976.537,3.421-3.544,4.074-5.871,4.452-1.532.111-4.094,2.2-1.657,2.883" transform="translate(-1471.159 -1270.019)" fill="#f99370"/>
            <path id="Trazado_797135" data-name="Trazado 797135" d="M1788.692,1601.672c-.033.6-.332,1.292-1.031,1.277H1774.9c-3.011-1.117,1.5-5.111,7.394-5.087,4.19,1.15,6.544-2.116,6.4,3.811" transform="translate(-1470.636 -1324.667)" fill="#103663"/>
            <path id="Trazado_797136" data-name="Trazado 797136" d="M1964.684,1602.781h-5.456c-2.659-.363-.743-5.464,2.727-5.1,3.48-.441,5.385,4.737,2.729,5.1" transform="translate(-1623.215 -1324.5)" fill="#103663"/>
            <path id="Trazado_797137" data-name="Trazado 797137" d="M1788.591,1606.513a.271.271,0,0,1-.251-.17,2.872,2.872,0,0,0-1.413-1.6c-.69-1.089,1.315-.313,1.915,1.392a.273.273,0,0,1-.251.373" transform="translate(-1481.288 -1329.958)" fill="#e8c0a6"/>
            <path id="Trazado_797138" data-name="Trazado 797138" d="M1799.826,1602.731a.272.272,0,0,1-.259-.191,3.751,3.751,0,0,0-1.667-2.056c-.626-1.265,1.705.089,2.185,1.9a.272.272,0,0,1-.259.352" transform="translate(-1490.416 -1326.432)" fill="#e8c0a6"/>
            <path id="Trazado_797139" data-name="Trazado 797139" d="M1813.87,1599.993a.271.271,0,0,1-.256-.182,4.891,4.891,0,0,0-1.688-2.256c-.692-1.869,3.128,1.939,1.944,2.438" transform="translate(-1502.062 -1323.988)" fill="#e8c0a6"/>
            <path id="Trazado_797140" data-name="Trazado 797140" d="M1972.155,1602.485a4.835,4.835,0,0,0-3.849-.024c-1.583-.341,2.16-1.677,3.986-.481a.273.273,0,0,1-.137.505" transform="translate(-1631.458 -1327.677)" fill="#e8c0a6"/>
            <path id="Trazado_797141" data-name="Trazado 797141" d="M1774.031,1620.149h14.689a3.358,3.358,0,0,1-.4,1.277h-13.393a.949.949,0,0,1-.893-1.277" transform="translate(-1470.665 -1343.144)" fill="#0f2e54"/>
            <path id="Trazado_797142" data-name="Trazado 797142" d="M1964.85,1621.427h-5.456a1.209,1.209,0,0,1-1.21-1.277h7.875a1.21,1.21,0,0,1-1.21,1.277" transform="translate(-1623.382 -1343.145)" fill="#0f2e54"/>
            <path id="Trazado_797143" data-name="Trazado 797143" d="M1817.524,870.458s-1.337-3.749,1.844-5.572l2.414,1.249Z" transform="translate(-1506.541 -717.012)" fill="#c92828"/>
            <path id="Trazado_797144" data-name="Trazado 797144" d="M1621.151,987.219l.445,4.357c8.656,7.03,25.7,7.535,35.574-.742.133-.294,1.068-17.241,1.068-17.241-.087.038-.172.078-.256.116v0c-12.438,5.712-17.309,15.024-36.83,13.507" transform="translate(-1343.974 -807.133)" fill="#e9f4ff"/>
            <path id="Trazado_797145" data-name="Trazado 797145" d="M1801.723,1176.37q.308,1.446.667,2.728a18.361,18.361,0,0,0,9.765.413q-.086-.81-.155-1.644c-.036-.409-.066-.822-.1-1.237-1.517-21.815,4.3-51.86,4.793-53.513,0,0,0,0,0,0,.019-.061.03-.083.032-.055,3.514,22.965,7,42.342,8.934,52.924.182.989.349,1.9.5,2.732,4.563,2.133,9.191-.919,9.191-.919q.044-1.315.072-2.594c1.053-16.873-1.356-68.645-10.07-78.752-10.112,5.016-24.013,5.8-24.013,5.8-2.152,40.882-2.215,62,.375,74.124" transform="translate(-1492.042 -908.984)" fill="#9358e0"/>
            <path id="Trazado_797146" data-name="Trazado 797146" d="M1840.46,921.56c-.576-3.047-1.975-8.529.316-9.881a2.46,2.46,0,0,1,3.687,2.255,27.838,27.838,0,0,0,.86,6.992c4.752.595-8.1,7.35-4.864.634" transform="translate(-1524.997 -755.552)" fill="#f99370"/>
            <path id="Trazado_797147" data-name="Trazado 797147" d="M1844.014,913.463c0,.086,0,.173,0,.259a27.4,27.4,0,0,0,.443,5.243,8.3,8.3,0,0,1-4.674,1.229c-.7-3.3-1.65-7.237.544-8.727a2.454,2.454,0,0,1,3.691,2" transform="translate(-1524.543 -755.339)" fill="#e57d61"/>
            <path id="Trazado_797148" data-name="Trazado 797148" d="M1821.08,874.036c.015,2.219-.3,4.776-1.769,6.492h0c-.06.07-.12.134-.184.2,0,0,0,0,0,.005a7.236,7.236,0,0,1-8.537.861h0c-2.259-1.495-3.291-3.845-2.582-5.91.485-1.229,1.557-2.418,1.676-3.746.723-8.055,11.353-6.485,11.4,2.1" transform="translate(-1498.695 -718.492)" fill="#f99370"/>
            <path id="Trazado_797149" data-name="Trazado 797149" d="M1835.714,907.517a.332.332,0,0,1,.533-.394.332.332,0,0,1-.533.394" transform="translate(-1521.794 -751.915)" fill="#c16256"/>
            <path id="Trazado_797150" data-name="Trazado 797150" d="M1819.183,907.523a.332.332,0,0,1,.533-.394.332.332,0,0,1-.533.394" transform="translate(-1508.09 -751.921)" fill="#c16256"/>
            <path id="Trazado_797151" data-name="Trazado 797151" d="M1833.3,873.609c.015,2.219-.3,4.776-1.769,6.492h0c-.06.07-.12.134-.184.2,1.738-3.48,1.271-4.2.487-6.619-2.561-1.822-2.471-4.309-4.868-4.3a33.078,33.078,0,0,1-4.443-.3c2.511-5.728,10.814-2.433,10.779,4.524" transform="translate(-1510.914 -718.065)" fill="#e57d61"/>
            <path id="Trazado_797152" data-name="Trazado 797152" d="M1822.523,912.6c-.546-.014-1.247-.265-.656-.835a3.721,3.721,0,0,0,.8-1.809c.559-.52-.009,1.517-.647,2.007-.435.378.624.5,1.015.279.566.09-.271.43-.513.359" transform="translate(-1510.187 -754.305)" fill="#c16256"/>
            <path id="Trazado_797153" data-name="Trazado 797153" d="M1830.268,1004.049c-6.73,5.092-22.7,6.417-29.416,3.984-2.265-.959-1.734-32.372,5.128-39.966a8.369,8.369,0,0,1,1.435-.5c-.022.912.186,3.55,4.865-.636a6.674,6.674,0,0,1,1.827.018c.448.34,13.986,25.307,14.937,30.37.371,2.105,2.559,4.744,1.224,6.728" transform="translate(-1491.954 -801.559)" fill="#23659b"/>
            <path id="Trazado_797154" data-name="Trazado 797154" d="M1823.8,850.661c-.753-6.347-4.679-6.155-4.679-6.155h0c-3.378-4.5-10.909-2.244-7.774,2.813,1.779,3.115,6.329-.358,9.016,3.633,1.079,1.6,1.747,2.593,3.62,3.415a11.8,11.8,0,0,0-.182-3.706" transform="translate(-1501.03 -698.11)" fill="#c92828"/>
            <path id="Trazado_797155" data-name="Trazado 797155" d="M1879.477,905.28c-.076,2.525-3.261,2.393-3.128-.13.076-2.525,3.261-2.393,3.128.13" transform="translate(-1555.536 -748.876)" fill="#f99370"/>
            <path id="Trazado_797156" data-name="Trazado 797156" d="M1824.274,930.569c-.451.044-.857-.187-.446-.3a2.855,2.855,0,0,0,2.563-.864.125.125,0,0,1,.177.007c-.379.956-1.926,1.148-2.294,1.155" transform="translate(-1511.857 -770.474)" fill="#c16256"/>
            <path id="Trazado_797157" data-name="Trazado 797157" d="M1844.716,966.611c-1.54,2.627-8.376,6.764-8.1,1.131a8.07,8.07,0,0,1,1.437-.5c-.01.148-.278,4.022,4.866-.637a3.18,3.18,0,0,1,1.793.006" transform="translate(-1522.597 -801.231)" fill="#3a72aa"/>
            <rect id="Rectángulo_373561" data-name="Rectángulo 373561" width="4.975" height="81.473" transform="translate(266.459 177.274) rotate(-53.843)" fill="#8edee0"/>
            <g id="Grupo_1064133" data-name="Grupo 1064133" transform="translate(213.724 127.916)" opacity="0.4">
              <g id="Grupo_1064132" data-name="Grupo 1064132">
                <g id="Grupo_1064131" data-name="Grupo 1064131" clip-path="url(#clip-path-5)">
                  <path id="Trazado_797158" data-name="Trazado 797158" d="M1297.376,753.776a29.906,29.906,0,1,1-41.735,6.852,29.906,29.906,0,0,1,41.735-6.852" transform="translate(-1250.027 -748.16)" fill="#fff"/>
                </g>
              </g>
            </g>
            <g id="Grupo_1064136" data-name="Grupo 1064136" transform="translate(213.129 127.311)" opacity="0.4">
              <g id="Grupo_1064135" data-name="Grupo 1064135">
                <g id="Grupo_1064134" data-name="Grupo 1064134" clip-path="url(#clip-path-6)">
                  <path id="Trazado_797159" data-name="Trazado 797159" d="M1246.552,786a32.24,32.24,0,0,0,4.437,8.365l1.777-1.777,1.788-1.788,38.17-38.17,3.566-3.566-.344-.249a32.272,32.272,0,0,0-8.009-4.2l-1.961,1.962-2.016,2.016h0l-33.43,33.43-2.022,2.022Z" transform="translate(-1246.552 -744.617)" fill="#fff"/>
                </g>
              </g>
            </g>
            <g id="Grupo_1064139" data-name="Grupo 1064139" transform="translate(220.55 134.738)" opacity="0.4">
              <g id="Grupo_1064138" data-name="Grupo 1064138">
                <g id="Grupo_1064137" data-name="Grupo 1064137" clip-path="url(#clip-path-7)">
                  <path id="Trazado_797160" data-name="Trazado 797160" d="M1289.951,833.883a32.508,32.508,0,0,0,12.453,7.872l1.971-1.971,2.029-2.029,33.236-33.237,2.021-2.019,1.98-1.98a32.045,32.045,0,0,0-7.873-12.453l-3.519,3.519-38.778,38.78-1.761,1.762Z" transform="translate(-1289.951 -788.064)" fill="#fff"/>
                </g>
              </g>
            </g>
            <path id="Trazado_797161" data-name="Trazado 797161" d="M1257.4,797.244c21.93,8.5,47.265-12.393,42.6-35.85-4.175-27.932-41.766-37.086-58.279-13.645-12.8,17.208-4.223,43,15.683,49.495m29.844-50.17c19.86,19.45.82,52.909-25.844,46.171a27.519,27.519,0,0,1-19.9-19.709c-7.029-26.59,26.128-45.8,45.74-26.462" transform="translate(-1024.397 -608.816)" fill="#8edee0"/>
            <path id="Trazado_797162" data-name="Trazado 797162" d="M1600.211,1070.858c-1.264,1.021-2.382-.741-.615-.937l-.023.017c.693-.541,1.3.429.638.921" transform="translate(-1325.346 -886.873)" fill="#f99370"/>
            <path id="Trazado_797163" data-name="Trazado 797163" d="M1595.162,1066.746c-1.64.883-2.112-1.334-.522-1.038-.036,0,.151-.037.118-.034.8-.4,1.111.742.4,1.072" transform="translate(-1321.185 -883.402)" fill="#f99370"/>
            <path id="Trazado_797164" data-name="Trazado 797164" d="M1590.988,1062.7l-.609.117c-.857.133-.743-1.116-.026-1.206l.609-.117c.857-.133.743,1.116.026,1.205" transform="translate(-1317.963 -879.995)" fill="#f99370"/>
            <path id="Trazado_797165" data-name="Trazado 797165" d="M1586.665,1058.678l-.609.117c-.857.133-.743-1.116-.026-1.206l.609-.117c.857-.133.743,1.116.026,1.206" transform="translate(-1314.379 -876.663)" fill="#f99370"/>
            <path id="Trazado_797166" data-name="Trazado 797166" d="M1819.571,1306.241c-1.868-11.788.982-33.576,2.469-41.275a45.706,45.706,0,0,1,4.2-12.533c-.491,1.652-6.31,31.7-4.793,53.513q.1,1.468.25,2.881a18.364,18.364,0,0,1-9.765-.413q-.359-1.284-.667-2.728a21.568,21.568,0,0,0,8.306.556" transform="translate(-1501.583 -1038.298)" fill="#7640cc"/>
            <path id="Trazado_797167" data-name="Trazado 797167" d="M1835.515,900.358a.124.124,0,0,0,.091-.208,2.492,2.492,0,0,0-1.856-.76.124.124,0,0,0-.116.131.127.127,0,0,0,.131.117,2.282,2.282,0,0,1,1.658.68.124.124,0,0,0,.092.04" transform="translate(-1520.128 -745.615)" fill="#c16256"/>
            <path id="Trazado_797168" data-name="Trazado 797168" d="M1818.512,899.895a.124.124,0,0,0,.077-.027,1.81,1.81,0,0,1,1.281-.335.124.124,0,0,0,.041-.245,2.034,2.034,0,0,0-1.477.386.124.124,0,0,0,.077.222" transform="translate(-1507.488 -745.513)" fill="#c16256"/>
            <path id="Trazado_797169" data-name="Trazado 797169" d="M1881.451,907.734c-.087-.257.71-.581,1.285-.288a1.522,1.522,0,0,1,.254,1.8.126.126,0,0,1-.124-.142,2.4,2.4,0,0,0-.065-1.18.144.144,0,0,1-.031.014,1.518,1.518,0,0,0-1.033,1.332.138.138,0,0,1-.136.114l-.024,0a.138.138,0,0,1-.112-.161,1.824,1.824,0,0,1,1.171-1.533.462.462,0,0,0-.035-.03c-.546-.31-.95.3-1.148.077" transform="translate(-1559.764 -752.199)" fill="#c16256"/>
            <path id="Trazado_797170" data-name="Trazado 797170" d="M1779.489,1040.032a14.429,14.429,0,0,0,3.126-1.224l.915-11.573a45.728,45.728,0,0,0-4.041,12.8" transform="translate(-1475.24 -851.603)" fill="#d1e0f2"/>
            <path id="Trazado_797171" data-name="Trazado 797171" d="M1876.331,991.277q1.236,4.423,2.408,9.061.89,3.517,1.72,7.121a276.756,276.756,0,0,1,5.9,34.869,18.017,18.017,0,0,0,1.817.347,23.972,23.972,0,0,0,11.813-1.1s-1.36-20.976-3.764-31.579a113.541,113.541,0,0,0-3.38-11.927c-.15-.438-.307-.883-.468-1.33q-.3-.832-.619-1.684a101.947,101.947,0,0,0-14.971-26.76c-.258-.333-.866-.984-.889-1.012,0,0-4.035,8.04.43,24" transform="translate(-1553.782 -801.899)" fill="#e9f4ff"/>
            <path id="Trazado_797172" data-name="Trazado 797172" d="M1913.148,1138.712l.794,4.109a15.962,15.962,0,0,0,11.171-10.1c-.15-.438-.307-.883-.468-1.33q-.3-.833-.619-1.684Z" transform="translate(-1586.047 -936.56)" fill="#d1e0f2"/>
            <path id="Trazado_797173" data-name="Trazado 797173" d="M1773.6,1047.911a32.892,32.892,0,0,0,9.129.284c.6-.07,1.205-.163,1.813-.284,0,0-3.249-37.275-3.838-47.328a50.7,50.7,0,0,1,.256-7.7,146.458,146.458,0,0,1,3.4-18.9v0c.009-.034.013-.053.015-.061s-.057.047-.138.119a15.081,15.081,0,0,0-1.781,2c-2.19,2.879-5.6,8.907-6.617,19.362-.136,1.413-.229,2.906-.269,4.484-.485,19.211-1.906,42.136-1.974,48.035" transform="translate(-1470.361 -807.399)" fill="#e9f4ff"/>
            <path id="Trazado_797174" data-name="Trazado 797174" d="M1897.022,1028.317a29.442,29.442,0,0,1,3.084,10.639,18.466,18.466,0,0,1-2.561,9.682l1.442,2.453s8.869-7.42,5.336-15.572-7.3-7.2-7.3-7.2" transform="translate(-1572.678 -852.473)" fill="#d1e0f2"/>
            <path id="Trazado_797175" data-name="Trazado 797175" d="M1876.331,991.277q1.236,4.423,2.408,9.061.89,3.517,1.72,7.121a276.756,276.756,0,0,1,5.9,34.869,18.017,18.017,0,0,0,1.817.347c-1.932-16.032-5.35-30.91-6.07-35.178-.036-.21-.081-.447-.136-.708-.381-1.828-1.207-4.865-2.137-8.314-1.637-6.094-3.594-13.469-3.971-17.716a39.111,39.111,0,0,1,.1-7.4,44.042,44.042,0,0,1,.826-5.073c.131-.589.222-.917.222-.917-.515-.063-1.083-.094-1.112-.094,0,0-4.035,8.04.43,24" transform="translate(-1553.782 -801.899)" fill="#d1e0f2"/>
            <path id="Trazado_797176" data-name="Trazado 797176" d="M1864.35,1007.5a3.641,3.641,0,0,1,2.33,2.29q.782-.213,1.534-.441v0c6.64-1.865,13.774-6.068,15.977-12.165,5.343-14.211-6.118-29.6-15.367-29.361-2.074,4.386.164,9.26,2.436,12.2,5.942,8.892.668,21.629-6.91,27.483" transform="translate(-1545.592 -802.344)" fill="#e9f4ff"/>
            <path id="Trazado_797177" data-name="Trazado 797177" d="M1864.35,1193.107a3.448,3.448,0,0,1,2.33,2.29q.782-.213,1.534-.441v0a3.811,3.811,0,0,0-2.243-3.249c-.96.892-1.62,1.4-1.62,1.4" transform="translate(-1545.592 -987.953)" fill="#d1e0f2"/>
            <path id="Trazado_797178" data-name="Trazado 797178" d="M1808.594,1021.233c.686,8.585,1.714,22.643,2.025,26.962.6-.07,1.205-.163,1.813-.284,0,0-3.249-37.275-3.838-47.328a50.7,50.7,0,0,1,.256-7.7,146.41,146.41,0,0,1,3.4-18.9v0c.009-.034.013-.053.015-.062s-1.093.572-1.555.807c-.013.04-.15.508-.364,1.309a92.048,92.048,0,0,0-3,17.712l-.019.451c-.373,9.3.443,16.8,1.26,27.04" transform="translate(-1498.247 -807.399)" fill="#d1e0f2"/>
            <rect id="Rectángulo_373565" data-name="Rectángulo 373565" width="4.975" height="42.645" transform="translate(297.809 200.181) rotate(-53.843)" fill="#006a76"/>
            <path id="Trazado_797179" data-name="Trazado 797179" d="M1818.791,1200.308l1.088.9a11.736,11.736,0,0,1-2.081,2.026,19.653,19.653,0,0,1-2.46,1.278c-1.14,1.708,3.529-.36,4.106-.478l.009.02a28.472,28.472,0,0,1-3.4,2.579c-.769,2.041,3.735-1.395,4.27-1.7l.006.008a16.605,16.605,0,0,1-2.911,2.845c-.593,2.136,3.692-1.722,4.108-2.194l.016.006a17.192,17.192,0,0,1-1.906,2.637c-.282,2.1,2.939-1.824,3.26-2.3a10.8,10.8,0,0,0,3-4.021c.326-.741-1.666-2.7-2.33-2.291a11.387,11.387,0,0,1-2.456.413,9.188,9.188,0,0,0-2.324.27" transform="translate(-1504.813 -994.473)" fill="#f99370"/>
            <path id="Trazado_797180" data-name="Trazado 797180" d="M1951.305,1557.837c.182.989.349,1.9.5,2.732,4.563,2.133,9.191-.919,9.191-.919q.044-1.315.072-2.595s-5.907,2.607-9.765.781" transform="translate(-1617.68 -1290.838)" fill="#7640cc"/>
          </g>
        </g>
      </g>
    </g>
  </g>
</svg>
