<svg xmlns="http://www.w3.org/2000/svg" xmlns:xlink="http://www.w3.org/1999/xlink" width="51" height="51" viewBox="0 0 51 51">
  <defs>
    <clipPath id="clip-path">
      <rect id="Rectángulo_373757" data-name="Rectángulo 373757" width="51" height="51" transform="translate(527 2161)" fill="#006a76"/>
    </clipPath>
  </defs>
  <g id="Enmascarar_grupo_1059023" data-name="Enmascarar grupo 1059023" transform="translate(-527 -2161)" clip-path="url(#clip-path)">
    <g id="creciendo" transform="translate(527 2161)">
      <g id="Grupo_1064583" data-name="Grupo 1064583">
        <g id="Grupo_1064576" data-name="Grupo 1064576">
          <line id="Línea_1610" data-name="Línea 1610" y2="1.067" transform="translate(22.404 40.314)" fill="none" stroke="#006a76" stroke-linecap="round" stroke-linejoin="round" stroke-miterlimit="10" stroke-width="1.494"/>
          <line id="Línea_1611" data-name="Línea 1611" y2="1.067" transform="translate(11.303 40.314)" fill="none" stroke="#006a76" stroke-linecap="round" stroke-linejoin="round" stroke-miterlimit="10" stroke-width="1.494"/>
          <path id="Trazado_797905" data-name="Trazado 797905" d="M18.317,41.348a1.939,1.939,0,0,1-2.927,0" fill="none" stroke="#006a76" stroke-linecap="round" stroke-linejoin="round" stroke-miterlimit="10" stroke-width="1.494"/>
        </g>
        <g id="Grupo_1064577" data-name="Grupo 1064577">
          <line id="Línea_1612" data-name="Línea 1612" y2="1.195" transform="translate(27.256 14.064)" fill="none" stroke="#006a76" stroke-linecap="round" stroke-linejoin="round" stroke-miterlimit="10" stroke-width="1.494"/>
          <line id="Línea_1613" data-name="Línea 1613" y2="1.195" transform="translate(39.707 14.064)" fill="none" stroke="#006a76" stroke-linecap="round" stroke-linejoin="round" stroke-miterlimit="10" stroke-width="1.494"/>
        </g>
        <g id="Grupo_1064581" data-name="Grupo 1064581">
          <path id="Trazado_797906" data-name="Trazado 797906" d="M18.3,28.462H15.407A17.011,17.011,0,0,1,6.4,25.687a1.156,1.156,0,0,0-1.742,1.289A14.419,14.419,0,0,0,10.37,34.9a14.022,14.022,0,0,0,7.677,2.454l11.706,0A12.9,12.9,0,0,0,9.032,27.1" fill="none" stroke="#006a76" stroke-linecap="round" stroke-linejoin="round" stroke-miterlimit="10" stroke-width="1.494"/>
          <g id="Grupo_1064580" data-name="Grupo 1064580">
            <g id="Grupo_1064579" data-name="Grupo 1064579">
              <g id="Grupo_1064578" data-name="Grupo 1064578">
                <path id="Trazado_797907" data-name="Trazado 797907" d="M20.931,10.579a3.245,3.245,0,1,0,0,6.136" fill="none" stroke="#006a76" stroke-linejoin="round" stroke-miterlimit="10" stroke-width="1.494"/>
                <path id="Trazado_797908" data-name="Trazado 797908" d="M45.988,16.726a3.245,3.245,0,1,0,0-6.159" fill="none" stroke="#006a76" stroke-linejoin="round" stroke-miterlimit="10" stroke-width="1.494"/>
                <path id="Trazado_797909" data-name="Trazado 797909" d="M46.355,13.289A12.9,12.9,0,1,0,33.46,26.546,12.905,12.905,0,0,0,46.355,13.289Z" fill="none" stroke="#006a76" stroke-linecap="round" stroke-linejoin="round" stroke-miterlimit="10" stroke-width="1.494" stroke-dasharray="70 30 1000 0 1000 0"/>
              </g>
            </g>
            <path id="Trazado_797910" data-name="Trazado 797910" d="M39.937,18.876a3.656,3.656,0,0,1-3.612,2.863,3.724,3.724,0,0,1-2.865-1.324A3.724,3.724,0,0,1,30.6,21.739a3.656,3.656,0,0,1-3.612-2.863.59.59,0,0,1,.591-.7,3.223,3.223,0,0,0,2.239-.931,2.51,2.51,0,0,1,3.648.185,2.51,2.51,0,0,1,3.648-.185,3.223,3.223,0,0,0,2.239.931A.59.59,0,0,1,39.937,18.876Z" fill="none" stroke="#006a76" stroke-linejoin="round" stroke-miterlimit="10" stroke-width="1.494"/>
          </g>
        </g>
        <path id="Trazado_797911" data-name="Trazado 797911" d="M37.89,1.53a8.755,8.755,0,0,1,.081,5.061,2.686,2.686,0,0,0,1.5,3.233l1.585.689a2.936,2.936,0,0,1,1.636,1.825,3.274,3.274,0,0,0,3.1,2.249h.536" fill="none" stroke="#006a76" stroke-linejoin="round" stroke-miterlimit="10" stroke-width="1.494"/>
        <path id="Trazado_797912" data-name="Trazado 797912" d="M20.595,14.587h.538a3.274,3.274,0,0,0,3.1-2.253,2.921,2.921,0,0,1,1.629-1.818l1.592-.692a2.686,2.686,0,0,0,1.495-3.233,8.8,8.8,0,0,1,.081-5.063" fill="none" stroke="#006a76" stroke-linejoin="round" stroke-miterlimit="10" stroke-width="1.494"/>
        <path id="Trazado_797913" data-name="Trazado 797913" d="M6.069,30.275a12.9,12.9,0,1,0,23.684,7.078" fill="none" stroke="#006a76" stroke-linecap="round" stroke-linejoin="round" stroke-miterlimit="10" stroke-width="1.494" stroke-dasharray="160 30 1000 0 1000 0"/>
        <path id="Trazado_797914" data-name="Trazado 797914" d="M29.357,40.535a3.206,3.206,0,1,0,0-6.363" fill="none" stroke="#006a76" stroke-linejoin="round" stroke-miterlimit="10" stroke-width="1.494"/>
        <path id="Trazado_797915" data-name="Trazado 797915" d="M4.351,34.172a3.206,3.206,0,1,0,0,6.364" fill="none" stroke="#006a76" stroke-linejoin="round" stroke-miterlimit="10" stroke-width="1.494"/>
        <path id="Trazado_797916" data-name="Trazado 797916" d="M3.954,37.353A10.028,10.028,0,0,0,10.37,34.9" fill="none" stroke="#006a76" stroke-linejoin="round" stroke-miterlimit="10" stroke-width="1.494"/>
        <g id="Grupo_1064582" data-name="Grupo 1064582">
          <path id="Trazado_797917" data-name="Trazado 797917" d="M49.406,24.732l-1.418-1.418a1.494,1.494,0,0,0-2.113,0l-1.418,1.418a1.493,1.493,0,0,0,.879,2.539A20.972,20.972,0,0,1,30.744,45.464a1.531,1.531,0,0,0-1.058,1.805,1.5,1.5,0,0,0,1.892,1.074A23.918,23.918,0,0,0,48.335,27.282h.015a1.494,1.494,0,0,0,1.057-2.551Z" fill="none" stroke="#006a76" stroke-linejoin="round" stroke-miterlimit="10" stroke-width="1.494"/>
          <path id="Trazado_797918" data-name="Trazado 797918" d="M17.357,3.009A24.018,24.018,0,0,0,2.676,18.319a1.489,1.489,0,0,0-1.143.5,1.521,1.521,0,0,0,.09,2.078l1.388,1.388a1.494,1.494,0,0,0,2.113,0L6.511,20.9a1.524,1.524,0,0,0,.095-2.076,1.484,1.484,0,0,0-.775-.463A21.027,21.027,0,0,1,18.389,5.824a1.5,1.5,0,0,0-1.032-2.815Z" fill="none" stroke="#006a76" stroke-linejoin="round" stroke-miterlimit="10" stroke-width="1.494"/>
        </g>
      </g>
    </g>
  </g>
</svg>
