<svg id="Grupo_1064818" data-name="Grupo 1064818" xmlns="http://www.w3.org/2000/svg" xmlns:xlink="http://www.w3.org/1999/xlink" width="349.827" height="374" viewBox="0 0 349.827 374">
  <defs>
    <clipPath id="clip-path">
      <rect id="Rectángulo_373857" data-name="Rectángulo 373857" width="349.827" height="374" fill="none"/>
    </clipPath>
    <clipPath id="clip-path-3">
      <rect id="Rectángulo_373851" data-name="Rectángulo 373851" width="15.844" height="11.631" fill="none"/>
    </clipPath>
    <clipPath id="clip-path-4">
      <rect id="Rectángulo_373852" data-name="Rectángulo 373852" width="15.844" height="11.63" fill="none"/>
    </clipPath>
    <clipPath id="clip-path-5">
      <rect id="Rectángulo_373853" data-name="Rectángulo 373853" width="20.037" height="3.782" fill="none"/>
    </clipPath>
    <clipPath id="clip-path-6">
      <rect id="Rectángulo_373854" data-name="Rectángulo 373854" width="16.406" height="22.795" fill="none"/>
    </clipPath>
    <clipPath id="clip-path-7">
      <rect id="Rectángulo_373855" data-name="Rectángulo 373855" width="16.407" height="22.795" fill="none"/>
    </clipPath>
  </defs>
  <g id="Grupo_1064817" data-name="Grupo 1064817" clip-path="url(#clip-path)">
    <path id="Trazado_798535" data-name="Trazado 798535" d="M265.386,0,209.328,45.414,189.46.709l-6.386,47.543L154.69.709,145.5,53.5,119.92,5.676l-5.676,50.381L58.187,22.707,75.926,77.345,7.805,52.509l45.413,50.38L3.548,114.244l52.51,18.449L0,180.945l43.994,17.74L3.548,236.292l74.507-3.547L35.479,295.188l51.091-7.095L67.41,340.6l64.573-33.351,16.32,57.477,20.578-50.381,42.576,49.672-2.839-51.8L281,359.051l-22-59.605,73.8,14.192-46.833-46.832,58.9-13.483-43.285-25.545,48.253-31.932-56.058-14.9,51.8-29.093-52.51-15.611,53.219-44.7L281,93.665l47.542-61.734-73.087,17.74Z" transform="translate(0 0)" fill="#8edee0"/>
    <g id="Grupo_1064816" data-name="Grupo 1064816">
      <g id="Grupo_1064815" data-name="Grupo 1064815" clip-path="url(#clip-path)">
        <path id="Trazado_798536" data-name="Trazado 798536" d="M302.418,164.3c-5.3-7.095-12.14-13.108-16.818-20.594-8.543-13.67-9.436-30.447-9.436-46.383,0-51.076-37.864-65.344-60.152-69.044.23-.274.472-.538.7-.816.723-.9,1.46-2,1.113-3.082-.514-1.6-2.82-1.746-4.533-1.4a26.555,26.555,0,0,0-9.7,4.1c-.27,0-.529-.007-.77-.007l-.455,0q2.4-3.139,4.8-6.284c1.148-1.515,2.334-3.136,2.485-5a1.476,1.476,0,0,0-.2-1.011c-.492-.669-1.577-.4-2.341-.035A30.524,30.524,0,0,0,193.474,27.72c-21.435,2.674-64,15.452-64,69.6,0,15.936-.891,32.713-9.435,46.383-4.68,7.486-11.518,13.5-16.818,20.594s-9.093,16.152-6.407,24.49a7.373,7.373,0,0,0,1.85,3.239,8.021,8.021,0,0,0,3.245,1.631,22.067,22.067,0,0,0,19-3.352c-2.222,5.483.428,12.362,5.834,15.144s12.848,1.1,16.387-3.707c1.642,4.335,6.218,8.871,10.845,10.13a16.042,16.042,0,0,0,13.632-2.6c3.867,5.782,9.683,10.7,16.7,12.087s15.41-4.186,18.514-10.376c3.1,6.19,11.5,11.764,18.513,10.376s12.831-6.3,16.7-12.087a16.041,16.041,0,0,0,13.631,2.6c4.628-1.259,9.2-5.8,10.846-10.13,3.538,4.8,10.981,6.489,16.387,3.707s8.055-9.661,5.834-15.144a22.067,22.067,0,0,0,19,3.352,8.026,8.026,0,0,0,3.245-1.631,7.373,7.373,0,0,0,1.85-3.239c2.686-8.338-1.107-17.395-6.407-24.49" transform="translate(-22.59 -3.384)" fill="#251e4c"/>
        <path id="Trazado_798537" data-name="Trazado 798537" d="M269.913,115.356c0,27.178-8.978,76.055-49.319,76.055s-49.1-48.877-49.1-76.055a49.21,49.21,0,1,1,98.421,0" transform="translate(-40.385 -15.576)" fill="#d27876"/>
        <g id="Grupo_1064802" data-name="Grupo 1064802" transform="translate(149.021 133.337)" style="mix-blend-mode: multiply;isolation: isolate">
          <g id="Grupo_1064801" data-name="Grupo 1064801">
            <g id="Grupo_1064800" data-name="Grupo 1064800" clip-path="url(#clip-path-3)">
              <path id="Trazado_798538" data-name="Trazado 798538" d="M210.767,180.224c0,3.212-3.547,5.816-7.922,5.816s-7.923-2.6-7.923-5.816,3.547-5.816,7.923-5.816,7.922,2.6,7.922,5.816" transform="translate(-194.923 -174.409)" fill="#d27876"/>
            </g>
          </g>
        </g>
        <g id="Grupo_1064805" data-name="Grupo 1064805" transform="translate(195.32 134.013)" style="mix-blend-mode: multiply;isolation: isolate">
          <g id="Grupo_1064804" data-name="Grupo 1064804">
            <g id="Grupo_1064803" data-name="Grupo 1064803" clip-path="url(#clip-path-4)">
              <path id="Trazado_798539" data-name="Trazado 798539" d="M255.484,181.108c0,3.212,3.547,5.816,7.922,5.816s7.923-2.6,7.923-5.816-3.547-5.816-7.923-5.816-7.922,2.6-7.922,5.816" transform="translate(-255.484 -175.293)" fill="#d27876"/>
            </g>
          </g>
        </g>
        <path id="Trazado_798540" data-name="Trazado 798540" d="M234.223,156.587c.5,2.509.9,5.028,1.275,7.55l.526,3.787.468,3.792c.281,2.532.563,5.063.789,7.6.126,1.268.232,2.537.329,3.807s.2,2.54.278,3.812l.031.517-.464.1a9.961,9.961,0,0,1-9.033-2.573,10.565,10.565,0,0,0,8.751,1.454l-.433.618q-.271-1.893-.5-3.79c-.161-1.264-.313-2.528-.444-3.8-.29-2.531-.521-5.067-.756-7.6l-.305-3.809-.246-3.815c-.14-2.546-.255-5.094-.27-7.653" transform="translate(-53.791 -36.875)" fill="#28234c"/>
        <path id="Trazado_798541" data-name="Trazado 798541" d="M232.205,209.6a28.382,28.382,0,0,1,10.183.745,2.676,2.676,0,0,0,.857-1.878c-.037-1.034-1.066-2.083-2.791-2.529-3.651-.944-7.232.84-10.868.721-3.718-.122-6.655-2.02-10.506-.593-1.959.726-2.738,2.135-2.481,3.41a4.378,4.378,0,0,0,2.667,2.873,9.857,9.857,0,0,0,3.085.8,19.868,19.868,0,0,1,9.855-3.554" transform="translate(-50.996 -48.402)" fill="#28234c"/>
        <g id="Grupo_1064808" data-name="Grupo 1064808" transform="translate(171.355 161.036)" style="mix-blend-mode: multiply;isolation: isolate">
          <g id="Grupo_1064807" data-name="Grupo 1064807">
            <g id="Grupo_1064806" data-name="Grupo 1064806" clip-path="url(#clip-path-5)">
              <path id="Trazado_798542" data-name="Trazado 798542" d="M233.992,210.8a19.868,19.868,0,0,0-9.855,3.554,10.7,10.7,0,0,0,2.593-.03c1.1-.155,2.084-.485,3.151-.7a15.189,15.189,0,0,1,4.949-.129c1.011.142,1.983.389,3.025.435a8.94,8.94,0,0,0,5.159-1.433,6.558,6.558,0,0,0,1.161-.956,28.382,28.382,0,0,0-10.183-.745" transform="translate(-224.137 -210.639)" fill="#d27876"/>
            </g>
          </g>
        </g>
        <path id="Trazado_798543" data-name="Trazado 798543" d="M199.505,156.864a12.88,12.88,0,0,0,4.693,2.92,10.359,10.359,0,0,0,9.841-1.417,12.954,12.954,0,0,0,3.683-4.121,8.472,8.472,0,0,1-2.5,5.478,9.649,9.649,0,0,1-11.782,1.692,8.5,8.5,0,0,1-3.94-4.551" transform="translate(-46.981 -36.323)" fill="#28234c"/>
        <path id="Trazado_798544" data-name="Trazado 798544" d="M209.791,170.392a50.6,50.6,0,0,0,4.911-1.605,10.341,10.341,0,0,0,4.056-2.992,5.4,5.4,0,0,1-1.482,2.222,8.012,8.012,0,0,1-2.269,1.471,12.372,12.372,0,0,1-5.216.9" transform="translate(-49.404 -39.043)" fill="#28234c"/>
        <path id="Trazado_798545" data-name="Trazado 798545" d="M266.085,156.864a8.5,8.5,0,0,1-3.94,4.551,9.649,9.649,0,0,1-11.782-1.692,8.472,8.472,0,0,1-2.5-5.478,12.955,12.955,0,0,0,3.683,4.121,10.358,10.358,0,0,0,9.84,1.417,12.883,12.883,0,0,0,4.694-2.92" transform="translate(-58.37 -36.323)" fill="#28234c"/>
        <path id="Trazado_798546" data-name="Trazado 798546" d="M258.649,170.392a12.37,12.37,0,0,1-5.216-.9,8.011,8.011,0,0,1-2.269-1.471,5.411,5.411,0,0,1-1.482-2.222,10.352,10.352,0,0,0,4.056,2.992,50.891,50.891,0,0,0,4.912,1.605" transform="translate(-58.797 -39.043)" fill="#28234c"/>
        <path id="Trazado_798547" data-name="Trazado 798547" d="M187.512,144.1l8.079.586c1.338.1,2.673.179,4,.234q1.992.112,3.97.135a36.535,36.535,0,0,0,3.923-.2c1.269-.117,2.44-.175,3.554-.255A13,13,0,0,0,214.3,144a10.01,10.01,0,0,0,3.282-1.811l.406.182a6.152,6.152,0,0,1-1.923,4.225,9.383,9.383,0,0,1-4.183,2.373,11.462,11.462,0,0,1-4.486.291c-1.415-.184-2.768-.446-4.136-.659s-2.715-.469-4.055-.748c-1.336-.3-2.662-.628-3.979-.971-2.63-.713-5.224-1.486-7.8-2.341Z" transform="translate(-44.137 -33.484)" fill="#28234c"/>
        <path id="Trazado_798548" data-name="Trazado 798548" d="M228.242,147.5a12.165,12.165,0,0,0,2.2-7.968,6.486,6.486,0,0,1-2.2,7.968" transform="translate(-53.749 -32.858)" fill="#28234c"/>
        <path id="Trazado_798549" data-name="Trazado 798549" d="M274.689,144.54c-2.576.855-5.17,1.629-7.8,2.342-1.317.342-2.642.668-3.979.971q-2.01.417-4.054.747c-1.369.213-2.722.476-4.137.659a11.459,11.459,0,0,1-4.485-.29,9.379,9.379,0,0,1-4.183-2.373,6.151,6.151,0,0,1-1.922-4.225l.405-.182A10.023,10.023,0,0,0,247.817,144a12.958,12.958,0,0,0,3.258.606c1.115.081,2.285.138,3.554.256a36.729,36.729,0,0,0,3.923.2q1.977-.021,3.969-.135,2-.083,4-.234l8.08-.586Z" transform="translate(-57.49 -33.484)" fill="#28234c"/>
        <path id="Trazado_798550" data-name="Trazado 798550" d="M242.43,147.5a6.486,6.486,0,0,1-2.2-7.968,12.165,12.165,0,0,0,2.2,7.968" transform="translate(-56.434 -32.858)" fill="#28234c"/>
        <path id="Trazado_798551" data-name="Trazado 798551" d="M165.529,134.853c4.585-1.067,7.525-5.513,9.386-9.837a52.178,52.178,0,0,0,3.98-25.579c5.3,5.552,11.94,11.563,19.373,13.481-.436-4.787-3.325-8.947-6.118-12.859,3.583,4.167,8.795,6.564,14.01,8.3a80.951,80.951,0,0,0,48.17.79c.518,10.859,6.113,20.461,14.527,27.344,4.706-15.2,6.2-33.333,1.352-48.493s-16.387-28.581-31.55-33.418c-8.789-2.8-18.319-2.669-27.366-.86-11.017,2.2-21.683,6.962-29.856,14.671-8.064,7.605-13.418,17.834-16.047,28.6s-2.631,22.066-1.006,33.031" transform="translate(-38.448 -12.341)" fill="#28234c"/>
        <path id="Trazado_798552" data-name="Trazado 798552" d="M150.374,152.137a20.294,20.294,0,0,0,9,14.34,11.287,11.287,0,0,0,5.162,2c4.227.351,8.147-2.934,9.548-6.806s.771-8.134-.4-12.045c-1.518-5.055-4.555-10.38-9.864-11.656-8.562-2.057-14.292,7.063-13.437,14.172" transform="translate(-35.392 -32.42)" fill="#d27876"/>
        <g id="Grupo_1064811" data-name="Grupo 1064811" transform="translate(117.853 109.092)" style="mix-blend-mode: multiply;isolation: isolate">
          <g id="Grupo_1064810" data-name="Grupo 1064810">
            <g id="Grupo_1064809" data-name="Grupo 1064809" clip-path="url(#clip-path-6)">
              <path id="Trazado_798553" data-name="Trazado 798553" d="M170.561,164.753a10.3,10.3,0,0,1-4.725-3.061,1.991,1.991,0,0,1-.539-.972c-.1-.708.487-1.323,1.027-1.82l3.283-3.015a1.741,1.741,0,0,0,.534-.691,1.634,1.634,0,0,0-.074-.936c-1.1-3.893-2.41-8.091-5.818-10.423a5.982,5.982,0,0,0-3.131-1.138,5.913,5.913,0,0,0-4.406,2.1,15.133,15.133,0,0,0-2.472,4.251s-1.125,8.287,4.726,13.366,11.594,2.341,11.594,2.341" transform="translate(-154.155 -142.695)" fill="#d27876"/>
            </g>
          </g>
        </g>
        <path id="Trazado_798554" data-name="Trazado 798554" d="M154.268,148.817a13.054,13.054,0,0,1,2.238-4.7,7.245,7.245,0,0,1,2.131-1.743,5.464,5.464,0,0,1,2.81-.648,6.274,6.274,0,0,1,2.764.829,10.3,10.3,0,0,1,2.222,1.684,14.471,14.471,0,0,1,2.941,4.552,38.909,38.909,0,0,1,1.605,4.97,3.556,3.556,0,0,1,.138.852,1.861,1.861,0,0,1-.362,1.135,3.632,3.632,0,0,1-.576.59l-.482.419c-.638.563-1.288,1.113-1.943,1.658a10.906,10.906,0,0,0-1.7,1.573.638.638,0,0,0-.088.664,4.348,4.348,0,0,0,.648.913,11.144,11.144,0,0,0,3.977,2.958,9.667,9.667,0,0,1-4.662-2.287,4.983,4.983,0,0,1-.956-1.063,1.776,1.776,0,0,1-.256-.887,2.014,2.014,0,0,1,.2-.891,4.364,4.364,0,0,1,.9-1.193l.9-.909c.6-.606,1.2-1.207,1.816-1.8a8.79,8.79,0,0,0,.761-.775c.032-.074,0,.006,0-.062a2.467,2.467,0,0,0-.1-.4,41.779,41.779,0,0,0-1.622-4.708,13.145,13.145,0,0,0-2.472-4.034,6.768,6.768,0,0,0-3.787-2.282,5.3,5.3,0,0,0-4.121,1.534,16.591,16.591,0,0,0-2.93,4.043" transform="translate(-36.329 -33.374)" fill="#28234c"/>
        <path id="Trazado_798555" data-name="Trazado 798555" d="M313.772,152.137a20.294,20.294,0,0,1-9,14.34,11.287,11.287,0,0,1-5.162,2c-4.227.351-8.147-2.934-9.548-6.806s-.771-8.134.4-12.045c1.518-5.055,4.554-10.38,9.864-11.656,8.562-2.057,14.292,7.063,13.437,14.172" transform="translate(-68.119 -32.42)" fill="#d27876"/>
        <g id="Grupo_1064814" data-name="Grupo 1064814" transform="translate(226.376 109.092)" style="mix-blend-mode: multiply;isolation: isolate">
          <g id="Grupo_1064813" data-name="Grupo 1064813">
            <g id="Grupo_1064812" data-name="Grupo 1064812" clip-path="url(#clip-path-7)">
              <path id="Trazado_798556" data-name="Trazado 798556" d="M296.106,164.753a10.3,10.3,0,0,0,4.725-3.061,1.991,1.991,0,0,0,.539-.972c.1-.708-.487-1.323-1.028-1.82l-3.283-3.015a1.734,1.734,0,0,1-.534-.691,1.634,1.634,0,0,1,.074-.936c1.1-3.893,2.41-8.091,5.818-10.423a5.982,5.982,0,0,1,3.131-1.138,5.913,5.913,0,0,1,4.406,2.1,15.132,15.132,0,0,1,2.472,4.251s1.125,8.287-4.726,13.366-11.594,2.341-11.594,2.341" transform="translate(-296.106 -142.695)" fill="#d27876"/>
            </g>
          </g>
        </g>
        <path id="Trazado_798557" data-name="Trazado 798557" d="M312.262,148.817a16.592,16.592,0,0,0-2.93-4.043,5.3,5.3,0,0,0-4.121-1.534,6.768,6.768,0,0,0-3.787,2.282,13.145,13.145,0,0,0-2.472,4.034,41.8,41.8,0,0,0-1.622,4.708,2.441,2.441,0,0,0-.1.4c0,.067-.029-.013,0,.061a8.679,8.679,0,0,0,.761.775c.615.589,1.218,1.19,1.816,1.8l.9.909a4.366,4.366,0,0,1,.9,1.193,2.015,2.015,0,0,1,.2.891,1.777,1.777,0,0,1-.256.887,4.983,4.983,0,0,1-.956,1.063,9.67,9.67,0,0,1-4.662,2.287,11.144,11.144,0,0,0,3.977-2.958,4.349,4.349,0,0,0,.648-.913.638.638,0,0,0-.088-.664,10.9,10.9,0,0,0-1.7-1.573c-.655-.545-1.3-1.1-1.943-1.658l-.482-.419a3.632,3.632,0,0,1-.576-.59,1.861,1.861,0,0,1-.362-1.135,3.556,3.556,0,0,1,.138-.852,38.926,38.926,0,0,1,1.605-4.97,14.472,14.472,0,0,1,2.941-4.552,10.3,10.3,0,0,1,2.222-1.684,6.274,6.274,0,0,1,2.764-.829,5.464,5.464,0,0,1,2.81.648,7.245,7.245,0,0,1,2.131,1.743,13.055,13.055,0,0,1,2.239,4.7" transform="translate(-69.566 -33.374)" fill="#28234c"/>
        <path id="Trazado_798558" data-name="Trazado 798558" d="M178.346,177.31a4.388,4.388,0,1,1-4.388-4.388,4.388,4.388,0,0,1,4.388,4.388" transform="translate(-39.932 -40.721)" fill="#fcf4ee"/>
        <path id="Trazado_798559" data-name="Trazado 798559" d="M299.6,177.31a4.388,4.388,0,1,1-4.388-4.388,4.388,4.388,0,0,1,4.388,4.388" transform="translate(-68.486 -40.721)" fill="#fcf4ee"/>
        <path id="Trazado_798560" data-name="Trazado 798560" d="M171.67,68.76a62.3,62.3,0,0,0,8.642,12.6A69.7,69.7,0,0,0,191.558,91.67a77.366,77.366,0,0,0,27.5,12.823,91.647,91.647,0,0,0,30.346,2.1,108.512,108.512,0,0,0,15.094-2.448,118.07,118.07,0,0,0,14.674-4.39,118.35,118.35,0,0,1-14.586,4.754,108.293,108.293,0,0,1-15.126,2.67,90.727,90.727,0,0,1-30.585-1.94,76.912,76.912,0,0,1-27.667-13.1A69.775,69.775,0,0,1,180.03,81.6a62.519,62.519,0,0,1-8.36-12.843" transform="translate(-40.427 -16.192)" fill="#fcf4ee"/>
        <path id="Trazado_798561" data-name="Trazado 798561" d="M180.826,63.29A102.991,102.991,0,0,0,195.61,77.129a91.3,91.3,0,0,0,17.261,10.507,83.149,83.149,0,0,0,19.2,6.2,73.783,73.783,0,0,0,20.11,1.088l-.071.739A74.036,74.036,0,0,1,225.718,81.9L224.1,80.586l1.949.739a61.464,61.464,0,0,0,13.569,3.368,90.8,90.8,0,0,0,14.014.734c2.343-.046,4.686-.153,7.027-.308s4.677-.348,7-.683a35.847,35.847,0,0,0,13.306-4.278A35.957,35.957,0,0,1,267.7,84.685a114.988,114.988,0,0,1-14.05,1.193,91.353,91.353,0,0,1-14.1-.6,59.606,59.606,0,0,1-13.734-3.326l.334-.577a73.843,73.843,0,0,0,26.168,13.562l2,.57-2.075.17a78.126,78.126,0,0,1-39.612-7.524,90.947,90.947,0,0,1-17.24-10.741A103.2,103.2,0,0,1,180.826,63.29" transform="translate(-42.583 -14.904)" fill="#fcf4ee"/>
        <path id="Trazado_798562" data-name="Trazado 798562" d="M197.5,51.327a79.068,79.068,0,0,0,17.382,10.482,84.419,84.419,0,0,0,19.386,5.9A94.186,94.186,0,0,0,254.5,69.116q5.081-.163,10.136-.837c3.368-.418,6.713-1.025,10.037-1.739a100.884,100.884,0,0,1-9.985,2.112A101.686,101.686,0,0,1,254.523,69.7a91.051,91.051,0,0,1-20.392-1.246,81.921,81.921,0,0,1-19.491-6.114,77.319,77.319,0,0,1-8.975-4.9,69.588,69.588,0,0,1-8.166-6.12" transform="translate(-46.509 -12.087)" fill="#fcf4ee"/>
        <path id="Trazado_798563" data-name="Trazado 798563" d="M216.338,46.586A71.133,71.133,0,0,0,227.7,50.23a67.086,67.086,0,0,0,11.782,1.649,67.119,67.119,0,0,0,11.891-.368l2.954-.407,2.933-.547,2.915-.656,2.889-.784-2.834.979-2.886.826-2.932.656-2.962.515a62.393,62.393,0,0,1-12.01.547,62.349,62.349,0,0,1-11.88-1.842,55.643,55.643,0,0,1-11.225-4.212" transform="translate(-50.945 -10.971)" fill="#fcf4ee"/>
        <path id="Trazado_798564" data-name="Trazado 798564" d="M170.553,98.354c-.155,2.129-.412,4.247-.7,6.359s-.635,4.216-1.008,6.314c-.392,2.1-.8,4.187-1.291,6.262l-.747,3.11c-.282,1.028-.541,2.063-.852,3.085.141-1.059.329-2.107.485-3.162l.537-3.148,1.115-6.284,1.183-6.272c.408-2.089.81-4.18,1.277-6.264" transform="translate(-39.08 -23.161)" fill="#fcf4ee"/>
        <path id="Trazado_798565" data-name="Trazado 798565" d="M159.12,85.971l-1.781,8.407c-.571,2.8-1.151,5.605-1.682,8.416-.549,2.807-1.05,5.624-1.559,8.44l-1.466,8.468c.087-1.432.234-2.859.365-4.287q.241-2.138.521-4.271c.374-2.845.856-5.674,1.389-8.494.552-2.816,1.153-5.622,1.862-8.4s1.462-5.549,2.352-8.277" transform="translate(-35.943 -20.245)" fill="#fcf4ee"/>
        <path id="Trazado_798566" data-name="Trazado 798566" d="M180.609,211.1a23.582,23.582,0,0,1-2.6,7.139c-1.177,2.254-2.473,4.43-3.549,6.695a17.924,17.924,0,0,0-1.914,7.137,9.664,9.664,0,0,0,2.209,6.806l.251.278-.306.211a6.342,6.342,0,0,0-2.032,2.3,6.241,6.241,0,0,0-.71,3.021,6.514,6.514,0,0,0,.857,3.023,6.632,6.632,0,0,0,2.209,2.31,6.336,6.336,0,0,1-2.411-2.186,6.441,6.441,0,0,1-1.074-3.128,6.711,6.711,0,0,1,.64-3.282,6.61,6.61,0,0,1,2.148-2.6l-.055.489a10.361,10.361,0,0,1-2.477-7.264,17.984,17.984,0,0,1,2.05-7.412c1.1-2.312,2.509-4.433,3.76-6.623a27.364,27.364,0,0,0,3.008-6.918" transform="translate(-40.391 -49.712)" fill="#fcf4ee"/>
        <path id="Trazado_798567" data-name="Trazado 798567" d="M159.675,215.436a12.3,12.3,0,0,1-2.122,3.66,28.238,28.238,0,0,1-3,3.008,52.686,52.686,0,0,0-6.12,5.691,13.541,13.541,0,0,0-3.072,7.489,14.143,14.143,0,0,0,.2,4.127,13.829,13.829,0,0,0,1.37,3.944,12.687,12.687,0,0,1-1.735-3.862,14.481,14.481,0,0,1-.42-4.253,13.259,13.259,0,0,1,3.068-7.93,41.951,41.951,0,0,1,6.332-5.654,28.591,28.591,0,0,0,3.1-2.807,13.356,13.356,0,0,0,2.4-3.415" transform="translate(-34.088 -50.733)" fill="#fcf4ee"/>
        <path id="Trazado_798568" data-name="Trazado 798568" d="M282.958,216.915a18.04,18.04,0,0,0,1.824,7.755,19.175,19.175,0,0,0,5.245,5.93c2.043,1.722,4.234,3.54,5.439,6.114a7.753,7.753,0,0,1,.728,4.122,5.517,5.517,0,0,1-1.889,3.73l0-.435a4.933,4.933,0,0,1,1.456,2.2,5.985,5.985,0,0,1-.585,5.009,4.579,4.579,0,0,1-1.85,1.715,5.215,5.215,0,0,0,2.338-4.173,5.782,5.782,0,0,0-.343-2.394,4.415,4.415,0,0,0-1.377-1.916l-.259-.2.256-.232a5.184,5.184,0,0,0,1.588-3.365,7.045,7.045,0,0,0-.714-3.743c-1.161-2.346-3.206-4.143-5.238-5.9a33.967,33.967,0,0,1-2.971-2.806,13.963,13.963,0,0,1-2.257-3.443,16.475,16.475,0,0,1-1.387-7.967" transform="translate(-66.625 -51.081)" fill="#fcf4ee"/>
        <path id="Trazado_798569" data-name="Trazado 798569" d="M274.526,230.048a23.092,23.092,0,0,1,3.71,7.43,13.74,13.74,0,0,1,.454,4.184,9.568,9.568,0,0,1-1.066,4.03,15.368,15.368,0,0,0-.127-8.02,53.8,53.8,0,0,0-2.971-7.624" transform="translate(-64.648 -54.174)" fill="#fcf4ee"/>
        <path id="Trazado_798570" data-name="Trazado 798570" d="M195.529,225.713a20.524,20.524,0,0,0,.774,16.154,14.7,14.7,0,0,1-.774-16.154" transform="translate(-45.562 -53.153)" fill="#fcf4ee"/>
        <path id="Trazado_798571" data-name="Trazado 798571" d="M300.208,209.152a29.785,29.785,0,0,0,5.532,6.271c2.076,1.872,4.277,3.631,6.241,5.677a19.614,19.614,0,0,1,4.716,7.08,11.346,11.346,0,0,1-.089,8.468l-.115-.387a10.3,10.3,0,0,1,3.686,5.058,11.964,11.964,0,0,1,.645,3.061,8.841,8.841,0,0,1-.269,3.089,10.84,10.84,0,0,0-.745-6.011,9.81,9.81,0,0,0-3.653-4.677l-.222-.14.108-.247a10.806,10.806,0,0,0-.041-7.967,20.229,20.229,0,0,0-4.518-6.851c-1.92-2.013-4.052-3.84-6.067-5.81a25.876,25.876,0,0,1-5.208-6.615" transform="translate(-70.696 -49.253)" fill="#fcf4ee"/>
        <path id="Trazado_798572" data-name="Trazado 798572" d="M225.669,225.75l-16.4-5.569s0,19.77-2.81,25.864c-1.274,2.761-6.311,5.313-13.871,8.151a365.934,365.934,0,0,0,33.086,63.533Z" transform="translate(-45.351 -51.85)" fill="#d27876"/>
        <path id="Trazado_798573" data-name="Trazado 798573" d="M223.651,328.207a365.934,365.934,0,0,1-33.086-63.533c-2.011.755-4.209,1.531-6.554,2.336a212.25,212.25,0,0,0,39.641,70.477Z" transform="translate(-43.333 -62.328)" fill="#f6494a"/>
        <path id="Trazado_798574" data-name="Trazado 798574" d="M161.278,267.728c-8.3,2.846-18.541,6.06-29.735,10.057-26.251,9.375-44.064,54.377-44.064,54.377l22.969,34.219,12.189-15.938s-.819,9.143,4.215,16.945a24.618,24.618,0,0,0,12.192,9.775L133.9,437h67.022V338.207a212.258,212.258,0,0,1-39.641-70.479" transform="translate(-20.6 -63.047)" fill="#ff8182"/>
        <path id="Trazado_798575" data-name="Trazado 798575" d="M99.859,357.378S65.3,403.056,46.069,382.861,91.814,229.492,91.814,229.492l16.568,6.125-21.57,99.141a29.638,29.638,0,0,1,8.7,9.135c3.48,5.872,4.348,13.484,4.348,13.484" transform="translate(-10.01 -54.043)" fill="#d27876"/>
        <path id="Trazado_798576" data-name="Trazado 798576" d="M107,207.753s13.008-41.759,17.707-47.264,41.214-27.252,42.959-22.688-26.178,24.3-29,27.655-4.931,13.441-4.931,13.441,5.6,5.622,10.435,4.146,13.066-6.415,19.644-5.744,7.206.239,7.34,2.253-21.211,11.008-25.239,14.1-22.35,20.23-22.35,20.23" transform="translate(-25.198 -32.304)" fill="#d27876"/>
        <path id="Trazado_798577" data-name="Trazado 798577" d="M107,207.538q2.763-9.3,5.8-18.524c2.026-6.147,4.08-12.286,6.428-18.329a81.807,81.807,0,0,1,3.933-8.934c.185-.365.426-.716.638-1.074a9.225,9.225,0,0,1,.794-1.023,21.3,21.3,0,0,1,1.84-1.677c1.267-1.04,2.576-2.006,3.9-2.947,5.318-3.735,10.825-7.167,16.477-10.354,2.828-1.59,5.689-3.125,8.614-4.551,1.462-.713,2.942-1.4,4.451-2.027a31.02,31.02,0,0,1,4.7-1.6,9.944,9.944,0,0,1,1.292-.213,3.605,3.605,0,0,1,1.507.151,1.591,1.591,0,0,1,.813.643,1.79,1.79,0,0,1,.261.946,3.486,3.486,0,0,1-.361,1.466,17.55,17.55,0,0,1-3.014,4.067,93.311,93.311,0,0,1-7.13,6.694c-4.915,4.242-10.028,8.231-15.058,12.272a44.817,44.817,0,0,0-3.571,3.106,15.14,15.14,0,0,0-2.177,4.021,63.581,63.581,0,0,0-2.709,9.18l-.19-.642a18.312,18.312,0,0,0,4.9,3.4,8.692,8.692,0,0,0,2.777.771,5.473,5.473,0,0,0,1.389-.031l.671-.142.718-.238c3.834-1.388,7.605-3.323,11.677-4.515a21.3,21.3,0,0,1,6.334-1.016c1.118.039,2.123.174,3.16.268s2.066.18,3.126.3a5.938,5.938,0,0,1,1.7.4,1.645,1.645,0,0,1,.81.824,3.126,3.126,0,0,1,.2.935l.009.106,0,.054,0,.124a1,1,0,0,1-.118.4,1.97,1.97,0,0,1-.323.435,5.6,5.6,0,0,1-.656.573c-.442.331-.89.621-1.342.9-1.813,1.1-3.673,2.044-5.537,2.987-3.732,1.873-7.5,3.644-11.23,5.494-1.857.929-3.723,1.863-5.483,2.919a20.8,20.8,0,0,0-2.451,1.849c-.8.66-1.587,1.342-2.375,2.021-6.283,5.463-12.436,11.085-18.624,16.666,6.006-5.778,12.059-11.5,18.227-17.116.776-.7,1.548-1.4,2.341-2.079a21.464,21.464,0,0,1,2.492-1.962c1.787-1.131,3.648-2.073,5.5-3.037,3.713-1.9,7.461-3.725,11.151-5.639,1.84-.961,3.683-1.931,5.421-3.016.431-.272.854-.555,1.242-.855.364-.271.794-.716.644-.72a2.153,2.153,0,0,0-.118-.588.5.5,0,0,0-.272-.25,5.236,5.236,0,0,0-1.338-.271c-1.011-.1-2.058-.171-3.1-.258s-2.1-.2-3.069-.222a20.994,20.994,0,0,0-5.947,1.021,58.208,58.208,0,0,0-5.787,2.159c-1.916.8-3.807,1.673-5.819,2.39l-.765.257-.855.188a6.856,6.856,0,0,1-1.722.05,10.023,10.023,0,0,1-3.219-.871,19.655,19.655,0,0,1-5.341-3.663l-.275-.26.085-.383a64.827,64.827,0,0,1,2.738-9.426,16.266,16.266,0,0,1,2.43-4.47,22.527,22.527,0,0,1,1.849-1.718l1.876-1.564c5.024-4.1,10.137-8.046,15.039-12.234a92.261,92.261,0,0,0,7.042-6.552A16.436,16.436,0,0,0,166.8,138.9a2.155,2.155,0,0,0,.24-.865c0-.093-.028-.221-.042-.211-.008-.018-.027-.045-.126-.082a2.377,2.377,0,0,0-.889-.067,8.538,8.538,0,0,0-1.1.179,29.832,29.832,0,0,0-4.479,1.511c-1.478.61-2.939,1.277-4.387,1.975-2.9,1.4-5.746,2.908-8.562,4.476-5.618,3.164-11.18,6.461-16.488,10.109-1.323.915-2.631,1.855-3.878,2.851a20.2,20.2,0,0,0-1.765,1.565,8.187,8.187,0,0,0-.7.881c-.2.336-.428.649-.613,1a81.113,81.113,0,0,0-3.993,8.767c-4.777,12-8.916,24.273-13.011,36.543" transform="translate(-25.198 -32.089)" fill="#28234c"/>
        <path id="Trazado_798578" data-name="Trazado 798578" d="M160.545,147.052a23.784,23.784,0,0,1,5.293-2.778,29.143,29.143,0,0,1,2.859-.93c.49-.134.959-.239,1.48-.346a5.7,5.7,0,0,1,1.693-.106,2.722,2.722,0,0,1,1.774.908,2.827,2.827,0,0,1,.614,1.852,4.96,4.96,0,0,1-1.33,3.057,14.612,14.612,0,0,1-4.793,3.641,28.153,28.153,0,0,0,3.842-4.362,4.052,4.052,0,0,0,.833-2.327,1.458,1.458,0,0,0-.305-.894,1.228,1.228,0,0,0-.817-.359,8.958,8.958,0,0,0-2.654.339c-.951.184-1.887.43-2.833.658-1.885.482-3.749,1.06-5.656,1.646" transform="translate(-37.807 -33.644)" fill="#28234c"/>
        <path id="Trazado_798579" data-name="Trazado 798579" d="M149.128,153.66a21.964,21.964,0,0,1,6.406-3.04,24.284,24.284,0,0,1,3.518-.768,4.73,4.73,0,0,1,2.042.132,3.274,3.274,0,0,1,1.751,1.374,4.517,4.517,0,0,1,.28,4.033,9.217,9.217,0,0,1-2.184,3.04,25.553,25.553,0,0,1-5.631,4.3,67.175,67.175,0,0,0,4.748-5.1,9.116,9.116,0,0,0,1.709-2.742,3.417,3.417,0,0,0,.2-1.417,2.794,2.794,0,0,0-.419-1.3,1.753,1.753,0,0,0-.929-.774,3.667,3.667,0,0,0-1.429-.112c-1.109.087-2.257.284-3.378.486a45.9,45.9,0,0,0-6.689,1.885" transform="translate(-35.118 -35.276)" fill="#28234c"/>
        <path id="Trazado_798580" data-name="Trazado 798580" d="M138.922,187.792a26.77,26.77,0,0,1-1.088,6.768,35.528,35.528,0,0,1-6.2,12.191,26.673,26.673,0,0,1-4.834,4.862c1.109-2.013,2.253-3.927,3.348-5.859s2.136-3.872,3.135-5.836,1.945-3.953,2.876-5.969,1.791-4.075,2.762-6.157" transform="translate(-29.86 -44.223)" fill="#28234c"/>
        <path id="Trazado_798581" data-name="Trazado 798581" d="M113.427,281.315c-1.01,7.449-2.242,14.853-3.552,22.242-.635,3.7-1.349,7.381-2.026,11.071L105.7,325.673,103.426,336.7c-.8,3.665-1.558,7.339-2.4,11-1.64,7.322-3.36,14.629-5.3,21.89,1.007-7.449,2.238-14.854,3.549-22.243.633-3.7,1.351-7.381,2.026-11.071l2.154-11.045,2.275-11.021c.8-3.665,1.559-7.339,2.4-11,1.641-7.322,3.359-14.63,5.3-21.892" transform="translate(-22.542 -66.247)" fill="#28234c"/>
        <path id="Trazado_798582" data-name="Trazado 798582" d="M148.942,305.839c-2.875,5.767-5.524,11.6-7.827,17.56-1.131,2.988-2.233,5.982-3.191,9.025-.98,3.032-1.891,6.092-2.663,9.18a79.121,79.121,0,0,0-1.9,9.306,49.928,49.928,0,0,0-.492,9.416,33.185,33.185,0,0,0,5.849,17.8,25.6,25.6,0,0,1-5.28-8.139,34.133,34.133,0,0,1-2.354-9.528,45.631,45.631,0,0,1,.121-9.826,76.015,76.015,0,0,1,1.83-9.6,116.681,116.681,0,0,1,6.43-18.321,102.666,102.666,0,0,1,9.472-16.874" transform="translate(-30.82 -72.022)" fill="#28234c"/>
        <path id="Trazado_798583" data-name="Trazado 798583" d="M235.861,225.75l16.4-5.569s0,19.77,2.81,25.864c1.274,2.761,6.311,5.313,13.871,8.151a365.987,365.987,0,0,1-33.086,63.533Z" transform="translate(-55.543 -51.85)" fill="#d27876"/>
        <path id="Trazado_798584" data-name="Trazado 798584" d="M235.861,328.207a365.984,365.984,0,0,0,33.086-63.533c2.011.755,4.209,1.531,6.554,2.336a212.25,212.25,0,0,1-39.641,70.477Z" transform="translate(-55.543 -62.328)" fill="#f6494a"/>
        <path id="Trazado_798585" data-name="Trazado 798585" d="M275.5,267.728c8.3,2.846,18.541,6.06,29.735,10.057,26.251,9.375,44.064,54.377,44.064,54.377l-22.969,34.219-12.189-15.938s.819,9.143-4.214,16.945a24.621,24.621,0,0,1-12.192,9.775L302.882,437H235.86V338.207A212.259,212.259,0,0,0,275.5,267.728" transform="translate(-55.543 -63.047)" fill="#ff8182"/>
        <path id="Trazado_798586" data-name="Trazado 798586" d="M351.573,357.378s34.557,45.678,53.79,25.483-45.745-153.369-45.745-153.369l-16.568,6.125,21.57,99.141a29.638,29.638,0,0,0-8.7,9.135c-3.48,5.872-4.348,13.484-4.348,13.484" transform="translate(-80.785 -54.043)" fill="#d27876"/>
        <path id="Trazado_798587" data-name="Trazado 798587" d="M344.959,207.753s-13.008-41.759-17.707-47.264-41.214-27.252-42.959-22.688,26.178,24.3,29,27.655,4.931,13.441,4.931,13.441-5.6,5.622-10.435,4.146-13.066-6.415-19.644-5.744-7.206.239-7.34,2.253,21.211,11.008,25.239,14.1,22.35,20.23,22.35,20.23" transform="translate(-66.126 -32.304)" fill="#d27876"/>
        <path id="Trazado_798588" data-name="Trazado 798588" d="M344.788,207.538c-4.1-12.27-8.235-24.541-13.011-36.543a81.116,81.116,0,0,0-3.993-8.767c-.185-.354-.411-.667-.613-1a8.185,8.185,0,0,0-.7-.881,20.2,20.2,0,0,0-1.765-1.565c-1.247-1-2.554-1.936-3.878-2.851-5.308-3.648-10.871-6.945-16.488-10.109-2.816-1.568-5.666-3.079-8.562-4.476-1.448-.7-2.909-1.365-4.387-1.975a29.835,29.835,0,0,0-4.478-1.511,8.561,8.561,0,0,0-1.1-.179,2.377,2.377,0,0,0-.889.067c-.1.037-.118.064-.126.082-.015-.01-.038.118-.042.211a2.155,2.155,0,0,0,.24.865,16.436,16.436,0,0,0,2.776,3.673,92.27,92.27,0,0,0,7.042,6.552c4.9,4.188,10.015,8.133,15.039,12.234l1.876,1.564a22.527,22.527,0,0,1,1.849,1.718,16.266,16.266,0,0,1,2.43,4.47,64.829,64.829,0,0,1,2.738,9.426l.085.383-.275.26a19.655,19.655,0,0,1-5.341,3.663,10.023,10.023,0,0,1-3.219.871,6.857,6.857,0,0,1-1.722-.05l-.855-.188-.764-.257c-2.013-.717-3.9-1.589-5.819-2.39a58.207,58.207,0,0,0-5.787-2.159,20.994,20.994,0,0,0-5.947-1.021c-.966.018-2.03.14-3.069.222s-2.086.154-3.1.258a5.235,5.235,0,0,0-1.338.271.5.5,0,0,0-.272.25,2.152,2.152,0,0,0-.118.588c-.15,0,.281.449.644.72.388.3.811.583,1.242.855,1.738,1.085,3.581,2.055,5.421,3.016,3.69,1.914,7.438,3.735,11.151,5.639,1.852.964,3.713,1.905,5.5,3.037a21.471,21.471,0,0,1,2.492,1.962c.793.683,1.565,1.382,2.341,2.079,6.168,5.612,12.221,11.338,18.227,17.116-6.188-5.58-12.341-11.2-18.624-16.666-.789-.678-1.575-1.361-2.375-2.021a20.8,20.8,0,0,0-2.451-1.849c-1.76-1.056-3.626-1.99-5.483-2.919-3.726-1.849-7.5-3.621-11.23-5.494-1.865-.943-3.725-1.889-5.537-2.987-.453-.278-.9-.568-1.342-.9a5.606,5.606,0,0,1-.656-.573,1.971,1.971,0,0,1-.323-.435,1,1,0,0,1-.118-.4l0-.124,0-.054.009-.106a3.126,3.126,0,0,1,.2-.935,1.645,1.645,0,0,1,.81-.824,5.938,5.938,0,0,1,1.7-.4c1.06-.122,2.091-.2,3.126-.3s2.041-.229,3.16-.268a21.294,21.294,0,0,1,6.334,1.016c4.072,1.192,7.843,3.127,11.677,4.515l.718.238.671.142a5.473,5.473,0,0,0,1.389.031,8.692,8.692,0,0,0,2.777-.771,18.312,18.312,0,0,0,4.9-3.4l-.19.642a63.589,63.589,0,0,0-2.709-9.18,15.14,15.14,0,0,0-2.177-4.021,44.82,44.82,0,0,0-3.571-3.106c-5.03-4.041-10.143-8.03-15.058-12.272a93.172,93.172,0,0,1-7.13-6.694,17.551,17.551,0,0,1-3.014-4.067,3.486,3.486,0,0,1-.361-1.466,1.8,1.8,0,0,1,.261-.946,1.6,1.6,0,0,1,.813-.643,3.6,3.6,0,0,1,1.507-.151,9.942,9.942,0,0,1,1.292.213,31.017,31.017,0,0,1,4.7,1.6c1.509.631,2.989,1.314,4.451,2.027,2.925,1.426,5.786,2.961,8.614,4.551,5.653,3.186,11.16,6.618,16.477,10.354,1.326.941,2.634,1.907,3.9,2.947a21.174,21.174,0,0,1,1.839,1.677,9.147,9.147,0,0,1,.8,1.023c.213.359.453.709.638,1.074a81.806,81.806,0,0,1,3.933,8.934c2.348,6.043,4.4,12.182,6.428,18.329s3.957,12.322,5.8,18.524" transform="translate(-65.955 -32.089)" fill="#28234c"/>
        <path id="Trazado_798589" data-name="Trazado 798589" d="M306.953,147.052c-1.907-.586-3.771-1.164-5.656-1.646-.946-.228-1.881-.474-2.832-.658a8.958,8.958,0,0,0-2.654-.339,1.23,1.23,0,0,0-.817.359,1.458,1.458,0,0,0-.305.894,4.052,4.052,0,0,0,.833,2.327,28.154,28.154,0,0,0,3.842,4.362,14.612,14.612,0,0,1-4.793-3.641,4.961,4.961,0,0,1-1.33-3.057,2.827,2.827,0,0,1,.614-1.852,2.722,2.722,0,0,1,1.774-.908,5.7,5.7,0,0,1,1.693.106c.521.107.99.213,1.48.346a29.142,29.142,0,0,1,2.859.93,23.785,23.785,0,0,1,5.293,2.778" transform="translate(-69.055 -33.644)" fill="#28234c"/>
        <path id="Trazado_798590" data-name="Trazado 798590" d="M318.176,153.66a45.924,45.924,0,0,0-6.689-1.885c-1.122-.2-2.271-.4-3.378-.486a3.67,3.67,0,0,0-1.43.112,1.756,1.756,0,0,0-.929.774,2.8,2.8,0,0,0-.42,1.3,3.443,3.443,0,0,0,.206,1.417,9.132,9.132,0,0,0,1.709,2.742,67.337,67.337,0,0,0,4.748,5.1,25.571,25.571,0,0,1-5.631-4.3,9.216,9.216,0,0,1-2.183-3.04,4.515,4.515,0,0,1,.279-4.033,3.276,3.276,0,0,1,1.751-1.374,4.731,4.731,0,0,1,2.042-.132,24.263,24.263,0,0,1,3.517.768,21.977,21.977,0,0,1,6.407,3.04" transform="translate(-71.55 -35.276)" fill="#28234c"/>
        <path id="Trazado_798591" data-name="Trazado 798591" d="M329.065,187.792c.971,2.082,1.844,4.134,2.763,6.157s1.872,4.006,2.876,5.969,2.053,3.9,3.134,5.836,2.238,3.846,3.348,5.859a26.675,26.675,0,0,1-4.834-4.862,35.528,35.528,0,0,1-6.2-12.191,26.8,26.8,0,0,1-1.088-6.768" transform="translate(-77.492 -44.223)" fill="#28234c"/>
        <path id="Trazado_798592" data-name="Trazado 798592" d="M352.841,281.315c1.941,7.262,3.66,14.569,5.3,21.892.842,3.657,1.6,7.33,2.4,11l2.275,11.021,2.154,11.045c.675,3.69,1.393,7.372,2.026,11.071,1.311,7.389,2.542,14.793,3.549,22.243-1.943-7.261-3.664-14.568-5.3-21.89-.842-3.657-1.6-7.331-2.4-11l-2.272-11.022-2.151-11.046c-.677-3.69-1.391-7.372-2.025-11.071-1.31-7.389-2.543-14.793-3.553-22.242" transform="translate(-83.091 -66.247)" fill="#28234c"/>
        <path id="Trazado_798593" data-name="Trazado 798593" d="M317.215,305.839a102.671,102.671,0,0,1,9.472,16.874,116.6,116.6,0,0,1,6.43,18.321,76.01,76.01,0,0,1,1.83,9.6,45.628,45.628,0,0,1,.121,9.826,34.132,34.132,0,0,1-2.354,9.528,25.6,25.6,0,0,1-5.28,8.139,33.185,33.185,0,0,0,5.849-17.8,49.929,49.929,0,0,0-.492-9.416,79.114,79.114,0,0,0-1.9-9.306c-.772-3.087-1.683-6.147-2.663-9.18-.958-3.043-2.06-6.037-3.191-9.025-2.3-5.96-4.952-11.793-7.827-17.56" transform="translate(-74.701 -72.022)" fill="#28234c"/>
        <path id="Trazado_798594" data-name="Trazado 798594" d="M208.755,223.246a43.815,43.815,0,0,0,10.111,3.595,46.068,46.068,0,0,0,5.234.861c.875.115,1.757.16,2.636.229.88.054,1.764.042,2.645.067.88-.03,1.764-.012,2.643-.072s1.76-.115,2.634-.237a44.48,44.48,0,0,0,5.226-.885,43.06,43.06,0,0,0,10.078-3.674,21.72,21.72,0,0,1-4.5,3.186,30.935,30.935,0,0,1-5.095,2.21,35.779,35.779,0,0,1-10.991,1.764,36.459,36.459,0,0,1-10.991-1.73,31.529,31.529,0,0,1-5.109-2.173,21.92,21.92,0,0,1-4.526-3.141" transform="translate(-49.16 -52.545)" fill="#28234c"/>
        <g id="Grupo_1064819" data-name="Grupo 1064819">
          <path id="Trazado_798595" data-name="Trazado 798595" d="M308.173,406.267c-10.249-2.264-18.065-13-17.066-23.451.418-4.375,2.144-8.5,3.816-12.484.625-1.493,1.272-3.037,1.839-4.568,2.608-7.046,2.656-12.768.141-17-2.216-3.73-6.035-5.78-10.078-7.952a43.2,43.2,0,0,1-7.1-4.421c-5.68-4.676-8.324-12.6-6.428-19.26,1.677-5.9,6.277-10.168,10.725-14.3a57.429,57.429,0,0,0,7.683-8.116,27.173,27.173,0,0,0,4.443-21.395l.747-.164a27.952,27.952,0,0,1-4.57,22.007,58.108,58.108,0,0,1-7.782,8.228c-4.573,4.245-8.892,8.256-10.51,13.948-1.814,6.381.726,13.971,6.179,18.46a42.582,42.582,0,0,0,6.972,4.338c3.958,2.125,8.049,4.323,10.373,8.236,2.638,4.443,2.611,10.384-.081,17.659-.572,1.546-1.222,3.1-1.851,4.6-1.648,3.933-3.352,8-3.759,12.261-.964,10.082,6.578,20.447,16.469,22.631Z" transform="translate(-64.217 -64.325)" fill="#f6494a"/>
          <path id="Trazado_798596" data-name="Trazado 798596" d="M311.983,366.9a4.177,4.177,0,0,1-1.329-.216,5.744,5.744,0,0,1-2.548-1.887c-1.843-2.228-2.537-5.075-3.207-7.829a38.871,38.871,0,0,0-1.141-4.049,18.426,18.426,0,0,0-6.008-8.211,37.172,37.172,0,0,0-4.911-3.017c-1.274-.694-2.592-1.412-3.824-2.233-2.044-1.361-5.525-4.255-5.881-8.345a10.608,10.608,0,0,1,1.12-5.366,17.182,17.182,0,0,1,10.184-8.981c6.427-2.052,15.874.153,19.151,6.607a26.377,26.377,0,0,1,2.021,6.709l2.958,14.358a49.431,49.431,0,0,1,1.33,9.608,16.829,16.829,0,0,1-2.461,9.408c-1.188,1.8-3.276,3.443-5.453,3.443m-12.459-50.12a16.07,16.07,0,0,0-4.855.716,16.4,16.4,0,0,0-9.723,8.572,9.876,9.876,0,0,0-1.052,4.978c.329,3.772,3.615,6.491,5.544,7.777,1.2.8,2.506,1.513,3.765,2.2a37.6,37.6,0,0,1,5.011,3.082,19.2,19.2,0,0,1,6.261,8.556,39.852,39.852,0,0,1,1.166,4.129c.68,2.792,1.322,5.43,3.053,7.523a5,5,0,0,0,2.2,1.648c2.243.749,4.63-.992,5.9-2.923a16.076,16.076,0,0,0,2.334-8.982,48.965,48.965,0,0,0-1.313-9.458l-2.958-14.358a25.817,25.817,0,0,0-1.956-6.517c-2.349-4.627-8.076-6.939-13.382-6.939" transform="translate(-66.668 -74.42)" fill="#f6494a"/>
          <path id="Trazado_798597" data-name="Trazado 798597" d="M351.12,339.9a18.113,18.113,0,0,1-7.011-1.363,14.857,14.857,0,0,1-7.8-7.354c-1.709-3.758-1.526-7.958-1.35-12.019a51.9,51.9,0,0,0,.017-6.358,24.486,24.486,0,0,0-10.431-18.019c-.619-.425-1.276-.835-1.911-1.23a18.956,18.956,0,0,1-4.845-3.807c-2.879-3.508-2.909-8.411-2.558-12.744l.761.061c-.339,4.182-.32,8.9,2.388,12.2a18.378,18.378,0,0,0,4.657,3.642c.642.4,1.306.814,1.94,1.249a25.256,25.256,0,0,1,10.759,18.586,52.224,52.224,0,0,1-.014,6.453c-.18,4.154-.351,8.079,1.282,11.669a14.089,14.089,0,0,0,7.4,6.965,18.261,18.261,0,0,0,10.277.983l.135.752a21.114,21.114,0,0,1-3.7.333" transform="translate(-74.198 -65.231)" fill="#f6494a"/>
          <path id="Trazado_798598" data-name="Trazado 798598" d="M342.336,377.97l-.6-.469c1.665-2.142,4.29-5.18,7.842-6.816a10.6,10.6,0,0,1,10.233.349l-.423.636a9.84,9.84,0,0,0-9.491-.291c-2.587,1.193-4.989,3.287-7.559,6.591" transform="translate(-80.475 -87.024)" fill="#f6494a"/>
          <path id="Trazado_798599" data-name="Trazado 798599" d="M273.074,472.847c-1.3-7.681-4.112-12.741-8.362-15.038a18.492,18.492,0,0,0-8.154-1.794c-2.457-.081-4.96.032-7.381.141s-4.92.223-7.389.143c-5.961-.191-10.72-1.62-14.147-4.246-4.276-3.277-6.511-8.312-8.671-13.18-1.724-3.888-3.508-7.907-6.32-11.027-6.293-6.982-18.042-8.739-27.33-4.083a55.681,55.681,0,0,0-9.277,6.356c-1.984,1.566-4.035,3.185-6.191,4.585-3.123,2.031-11.16,6.374-18.321,2.882l.336-.687c6.8,3.319,14.555-.878,17.569-2.836,2.125-1.381,4.164-2.99,6.134-4.545a56.289,56.289,0,0,1,9.409-6.44c9.584-4.8,21.725-2.972,28.239,4.255,2.894,3.211,4.7,7.287,6.452,11.228,2.219,5,4.315,9.725,8.436,12.885,3.3,2.527,7.909,3.9,13.706,4.088,2.438.081,4.926-.032,7.331-.142,2.437-.11,4.958-.222,7.441-.141a19.2,19.2,0,0,1,8.493,1.887c4.53,2.448,7.394,7.546,8.752,15.583Z" transform="translate(-35.684 -99.002)" fill="#f6494a"/>
          <path id="Trazado_798600" data-name="Trazado 798600" d="M157.372,483.571l-.757-.1c1.027-7.53,8.569-13.584,16.146-12.965a29.812,29.812,0,0,1,6.922,1.709,29.97,29.97,0,0,0,6.591,1.659c5.256.5,10.03-1.774,15.075-4.17,4.082-1.939,8.3-3.943,12.8-4.34a23.055,23.055,0,0,1,15.691,4.954c3.926,2.951,7.419,7.1,10.679,12.7l-.661.385c-3.209-5.5-6.636-9.581-10.479-12.47a22.282,22.282,0,0,0-15.164-4.8c-4.362.385-8.52,2.36-12.541,4.27-4.917,2.335-10,4.748-15.475,4.241a30.6,30.6,0,0,1-6.761-1.7,29.309,29.309,0,0,0-6.742-1.673,14.843,14.843,0,0,0-15.327,12.306" transform="translate(-36.881 -109.571)" fill="#f6494a"/>
          <path id="Trazado_798601" data-name="Trazado 798601" d="M194.107,462.64c-4.58,0-8.085-4.559-8.756-8.975a17.109,17.109,0,0,1,3.826-13.135c1.738-2.126,6.408-6.962,12.176-6.048,1.047.168,2.184.26,3.389.358,3.862.313,8.238.668,10.762,3.792,3.01,3.724,1.378,9.456-1.938,12.848a33.091,33.091,0,0,1-7.671,5.329c-1.257.708-2.556,1.44-3.774,2.23-.346.223-.692.456-1.04.69-2,1.34-4.06,2.725-6.491,2.9-.163.011-.323.016-.483.016m5.794-27.508c-4.77,0-8.617,4.028-10.134,5.881a16.341,16.341,0,0,0-3.661,12.537c.643,4.234,4.072,8.631,8.429,8.31,2.229-.155,4.206-1.483,6.119-2.767.35-.236.7-.47,1.049-.7,1.239-.8,2.548-1.541,3.816-2.254a32.5,32.5,0,0,0,7.5-5.2c3.083-3.151,4.632-8.439,1.891-11.832-2.317-2.869-6.34-3.2-10.23-3.511-1.22-.1-2.373-.193-3.448-.364a8.344,8.344,0,0,0-1.33-.106" transform="translate(-43.609 -102.29)" fill="#f6494a"/>
          <path id="Trazado_798602" data-name="Trazado 798602" d="M271.421,446.595a24.361,24.361,0,0,1-5.819-.742c-7.1-1.752-12.386-5.877-14.148-11.037-1.151-3.376-.821-7.109-.345-10.316.46-3.1,1.148-6.319,3.053-8.9,3.511-4.761,10.386-6,15.289-5.143,4.53.8,8.578,4.545,12.031,11.145a29.109,29.109,0,0,1,3.542,10.5,13.576,13.576,0,0,1-3.127,10.538c-2.4,2.595-6.117,3.961-10.477,3.961m-16.643-30.544h0c-1.805,2.449-2.467,5.561-2.914,8.56-.485,3.273-.783,6.745.314,9.958,1.677,4.911,6.763,8.853,13.607,10.542,6.517,1.607,12.333.489,15.55-3a12.813,12.813,0,0,0,2.927-9.948,28.363,28.363,0,0,0-3.459-10.215c-3.336-6.378-7.2-9.994-11.485-10.747-4.671-.82-11.222.344-14.541,4.845" transform="translate(-59.03 -96.598)" fill="#f6494a"/>
          <path id="Trazado_798603" data-name="Trazado 798603" d="M187.837,388.425a11.892,11.892,0,0,1-4.485-.818c-4.969-2-7.414-7.345-8.591-11.471A37.253,37.253,0,0,1,178.7,346.4a31.946,31.946,0,0,1,25.684-14.968l.02.765a31.169,31.169,0,0,0-25.058,14.613,36.479,36.479,0,0,0-3.854,29.116c1.13,3.962,3.459,9.082,8.143,10.971,2.7,1.092,6.063,1.012,9.981-.236,1.555-.495,3.1-1.126,4.593-1.736,1.683-.687,3.423-1.4,5.2-1.927a28.577,28.577,0,0,1,16.564.135c1.551.489,3.094,1.122,4.585,1.735,3.108,1.277,6.322,2.6,9.662,2.6h.13a16.847,16.847,0,0,0,10.743-4.642c7.381-6.556,9.721-17.494,5.445-25.443-1.747-3.248-4.464-5.917-7.093-8.5-.646-.633-1.29-1.266-1.922-1.907-2.94-2.986-6.4-7.05-7.04-12.009l.758-.1c.614,4.734,3.972,8.67,6.827,11.572.628.638,1.271,1.268,1.912,1.9,2.67,2.62,5.43,5.329,7.231,8.679,4.44,8.253,2.028,19.593-5.611,26.378a17.611,17.611,0,0,1-11.244,4.835h-.138c-3.491,0-6.774-1.348-9.951-2.654-1.476-.606-3-1.232-4.524-1.713a27.8,27.8,0,0,0-16.116-.131c-1.742.518-3.465,1.222-5.13,1.9-1.508.615-3.067,1.252-4.651,1.757a19.936,19.936,0,0,1-6.014,1.035" transform="translate(-40.812 -78.049)" fill="#f6494a"/>
          <path id="Trazado_798604" data-name="Trazado 798604" d="M175.167,317.459q-.5,0-1.008-.044a11.274,11.274,0,0,1-8.425-5.166,18.7,18.7,0,0,1-2.294-8.421c-.484-5.813.115-10.193,1.887-13.784,1.587-3.22,4.193-5.891,6.712-8.475,3.455-3.541,6.716-6.886,7.5-11.476l.754.13c-.827,4.823-4.326,8.41-7.71,11.88-2.478,2.54-5.041,5.167-6.575,8.278-1.706,3.462-2.282,7.715-1.81,13.384a18.032,18.032,0,0,0,2.18,8.079,10.5,10.5,0,0,0,7.844,4.81c4.238.376,7.985-1.773,11.951-4.044,3.645-2.086,7.415-4.245,11.594-4.245h.041l0,.765h-.037c-3.977,0-7.656,2.106-11.215,4.144-3.6,2.061-7.312,4.186-11.389,4.186" transform="translate(-38.45 -63.604)" fill="#f6494a"/>
          <path id="Trazado_798605" data-name="Trazado 798605" d="M145.454,386.459l-.481-.594c3.472-2.814,6.888-5.906,7.193-10.015a15.5,15.5,0,0,0-.583-4.592,18.905,18.905,0,0,1-.629-4.183c0-3.859,2.248-7.1,4.42-10.228,1.666-2.4,3.389-4.884,4.1-7.639,1.684-6.5-2.523-12.988-7.021-16.886-.829-.717-1.712-1.412-2.568-2.084a29.518,29.518,0,0,1-5.691-5.35l.614-.456a28.978,28.978,0,0,0,5.55,5.2c.862.677,1.754,1.378,2.6,2.108,4.672,4.048,9.032,10.812,7.261,17.655-.748,2.887-2.511,5.426-4.215,7.884-2.2,3.173-4.284,6.172-4.284,9.792a18.417,18.417,0,0,0,.609,4.013,16.274,16.274,0,0,1,.6,4.819c-.328,4.414-3.872,7.633-7.475,10.553" transform="translate(-33.957 -76.4)" fill="#f6494a"/>
          <path id="Trazado_798606" data-name="Trazado 798606" d="M119.21,308.376a14.522,14.522,0,0,1-6.193-1.343l.326-.691a15.327,15.327,0,0,0,19.294-6.384c.362-.674.684-1.4,1-2.1a10.2,10.2,0,0,1,7.778-7.164c.838-.292,1.7-.593,2.5-.964a13.23,13.23,0,0,0,7.114-14.365l.747-.164a14.019,14.019,0,0,1-7.539,15.222c-.833.387-1.718.695-2.573.993a9.474,9.474,0,0,0-7.331,6.752c-.317.716-.644,1.456-1.021,2.156a16.157,16.157,0,0,1-14.1,8.056" transform="translate(-26.614 -64.806)" fill="#f6494a"/>
          <path id="Trazado_798607" data-name="Trazado 798607" d="M106.467,362.819A25.891,25.891,0,0,1,131.7,333.1l.011.765a25.126,25.126,0,0,0-24.487,28.84Z" transform="translate(-25.008 -78.442)" fill="#f6494a"/>
        </g>
        <path id="Trazado_798608" data-name="Trazado 798608" d="M259.085,83.83c-22.672,0-47.745-.885-72.5-2.558-41.669-2.815-80.708-7.55-109.925-13.33C55.708,63.8,30.842,57.3,31.343,49.882c.786-11.619,62.833-14.422,123.978-12.047a.764.764,0,0,1,.734.794.739.739,0,0,1-.794.734C76.437,36.3,33.37,42.549,32.869,49.985c-.122,1.79,2.7,8.268,44.085,16.458,29.155,5.769,68.125,10.494,109.731,13.3,92.787,6.268,155.791.508,156.42-8.8.5-7.325-38.6-18.757-114.269-26.435a.765.765,0,1,1,.154-1.521c58.106,5.9,116.4,16.859,115.641,28.059-.6,8.837-37.706,12.785-85.546,12.786" transform="translate(-7.379 -8.726)" fill="#ff8182"/>
        <path id="Trazado_798609" data-name="Trazado 798609" d="M279.442,40.157l-.041-1.529.765-.019.041,1.529Z" transform="translate(-65.796 -9.092)" fill="#8f7efe"/>
        <path id="Trazado_798610" data-name="Trazado 798610" d="M128.792,83.28V81.751l1.528,0,0,1.529Zm-1.53,0-1.53,0,0-1.529,1.528,0Zm4.592-.006,0-1.529,1.527-.007.008,1.529Zm-7.651,0-1.531-.008.008-1.529,1.527.008Zm10.71-.015-.008-1.529,1.527-.011.013,1.529Zm-13.77,0-1.532-.014.016-1.529,1.526.014Zm16.832-.023-.013-1.529,1.526-.016.018,1.529Zm-19.893-.005-1.531-.019.021-1.529,1.527.019Zm22.953-.029-.018-1.529,1.527-.021.022,1.529Zm-26.012-.011-1.531-.024.025-1.529,1.527.024Zm29.071-.033-.022-1.529L145.6,81.6l.027,1.529Zm-32.132-.018L110.43,83.1l.031-1.529,1.528.031Zm35.192-.035-.027-1.529,1.531-.029.031,1.529ZM108.9,83.071l-1.532-.036.039-1.529,1.526.036Zm41.321-.034-.031-1.529,1.531-.034L151.757,83ZM105.84,83l-1.53-.042.044-1.529,1.527.042Zm47.448-.028-.035-1.529,1.531-.038.04,1.529Zm-50.507-.059-1.53-.05.05-1.528,1.527.048Zm53.577-.02-.042-1.529,1.532-.042.042,1.529ZM99.72,82.808l-1.53-.055.057-1.528,1.527.056Zm59.7-.005-.047-1.528,1.533-.047.047,1.528Zm3.066-.1-.05-1.527,1.48-.05.076.763-.026.765Zm-65.829-.014-1.531-.063L95.2,81.1l1.525.063Zm68.947-.09-.108-1.526,1.531-.054.055,1.527ZM93.6,82.565l-1.53-.069.072-1.527,1.525.069Zm75.018-.071-.058-1.527,1.531-.06.06,1.527Zm-78.078-.072-1.528-.078.08-1.527,1.525.078Zm81.142-.048-.063-1.527,1.531-.063.063,1.527Zm-84.2-.112-1.527-.086.085-1.526,1.527.086Zm87.265-.014-.064-1.527,1.465-.063.1.761-.031.767Zm3.063-.135-.069-1.527,1.529-.07.072,1.527Zm-93.385-.029L82.9,81.99,83,80.464l1.526.095Zm96.448-.113-.073-1.527,1.529-.075.076,1.527Zm-99.5-.081-1.527-.1.106-1.526,1.524.1Zm102.566-.069-.077-1.527,1.531-.079.077,1.528ZM78.316,81.674l-1.527-.115.119-1.524,1.522.115ZM187,81.664l-.082-1.527,1.53-.083.082,1.527Zm3.06-.166-.085-1.526,1.525-.086.085,1.527Zm-114.8-.06-1.527-.128.131-1.523,1.52.126Zm117.847-.113L193.02,79.8l1.521-.089.09,1.526Zm-120.9-.146-1.526-.139.141-1.523,1.521.139Zm123.952-.034-.091-1.526,1.524-.093.094,1.526Zm3.054-.187-.1-1.526,1.524-.1.1,1.526ZM69.156,80.895l-1.525-.152.156-1.522,1.518.153Zm133.111-.131-.1-1.526,1.525-.1.1,1.526Zm-136.16-.182-1.524-.167.17-1.52,1.516.166Zm139.213-.021-.1-1.526,1.524-.1.106,1.526Zm3.052-.212-.107-1.524,1.524-.109.11,1.524ZM63.06,80.24q-.769-.091-1.522-.184l.188-1.517q.748.093,1.513.183Zm148.365-.109-.112-1.524,1.524-.112.112,1.524Zm3.053-.226-.117-1.524,1.524-.117L216,79.788ZM60.016,79.861q-.771-.1-1.522-.2l.209-1.514q.745.1,1.51.2Zm157.51-.191-.118-1.524,1.523-.12.121,1.524ZM56.975,79.443q-.771-.11-1.519-.226l.231-1.511q.743.114,1.506.224Zm163.6-.016-.122-1.524,1.522-.125L222.1,79.3Zm3.05-.251-.127-1.523,1.523-.128.129,1.523Zm-169.688-.2q-.769-.125-1.514-.252l.257-1.507q.739.126,1.5.249Zm172.738-.063-.132-1.523,1.521-.133.135,1.523Zm3.049-.268-.136-1.523,1.521-.137.138,1.524ZM50.91,78.461q-.769-.14-1.511-.284l.291-1.5q.733.142,1.494.28Zm181.863-.087-.14-1.523,1.521-.141.141,1.523Zm3.047-.287-.145-1.521,1.521-.146.147,1.522ZM47.89,77.876q-.771-.159-1.507-.324l.333-1.492q.726.162,1.484.318Zm190.976-.082-.149-1.521,1.521-.15.151,1.521Zm3.046-.3-.154-1.522,1.52-.154.156,1.522Zm-197.03-.287q-.771-.185-1.5-.375l.385-1.479q.714.186,1.469.367Zm200.075-.026-.158-1.52,1.519-.16.161,1.52ZM248,76.858l-.163-1.521,1.52-.164.165,1.521Zm3.042-.33-.167-1.52,1.518-.17.171,1.52Zm-209.149-.1q-.771-.219-1.486-.446l.46-1.457q.695.219,1.443.432Zm212.191-.239-.171-1.52,1.518-.173.175,1.518Zm3.041-.352-.18-1.519,1.519-.179.179,1.518ZM38.93,75.486q-.767-.273-1.46-.553l.573-1.417c.442.18.908.355,1.4.529Zm221.233-.014-.183-1.518,1.517-.184.187,1.517ZM263.2,75.1l-.19-1.518,1.516-.19.191,1.518Zm3.036-.384-.194-1.518L267.558,73l.2,1.515Zm3.036-.4-.2-1.515,1.514-.2.2,1.516ZM36.029,74.3c-.507-.241-.98-.491-1.409-.742l.774-1.318c.391.229.826.458,1.291.68Zm236.279-.388L272.1,72.4l1.514-.208.21,1.514Zm3.032-.421-.213-1.514,1.512-.215.216,1.514Zm3.032-.433-.221-1.513,1.511-.222.222,1.513Zm-245.1-.411a7.081,7.081,0,0,1-1.208-1.189l1.206-.939a5.62,5.62,0,0,0,.948.927ZM281.4,72.611l-.227-1.513,1.51-.227.23,1.511Zm3.027-.461-.235-1.511L285.7,70.4l.238,1.51Zm3.025-.477-.244-1.509,1.509-.245.245,1.51Zm3.021-.492-.249-1.508,1.5-.252.255,1.508Zm3.021-.509-.258-1.507,1.5-.261L295,70.41Zm3.017-.528-.268-1.5,1.5-.271.272,1.505Zm-265.25-.313a3.5,3.5,0,0,1-.08-.575c0-.066-.005-.125-.005-.185a3.6,3.6,0,0,1,.187-1.131l1.451.479a2.1,2.1,0,0,0-.109.652l0,.108a1.83,1.83,0,0,0,.044.313ZM299.525,69.6l-.278-1.5,1.5-.28.284,1.5Zm3.01-.569-.288-1.5,1.5-.291.3,1.5Zm3.008-.59-.3-1.5,1.5-.3.308,1.5Zm3-.618-.316-1.5,1.494-.317.32,1.495ZM33.42,67.35l-1.2-.946a8.862,8.862,0,0,1,1.159-1.193l1,1.156a7.344,7.344,0,0,0-.959.983m278.123-.174-.328-1.494q.751-.165,1.488-.332l.337,1.492q-.741.167-1.5.334m2.992-.675-.346-1.491q.752-.173,1.485-.348l.354,1.488q-.739.175-1.494.351m2.985-.71-.363-1.485q.749-.183,1.479-.367l.374,1.483q-.736.185-1.49.369m-282-.3-.864-1.26c.406-.279.857-.563,1.34-.845l.768,1.322c-.45.262-.868.525-1.245.783m284.972-.451-.384-1.48q.748-.194,1.472-.389l.4,1.477q-.733.2-1.486.392m2.967-.8-.408-1.474q.744-.206,1.464-.414l.423,1.469q-.727.209-1.479.418M38.073,64l-.7-1.36q.665-.342,1.4-.683l.644,1.388q-.706.328-1.348.656m288.343-.6-.438-1.465q.743-.221,1.455-.444l.455,1.459q-.721.227-1.472.45M40.8,62.732l-.6-1.407q.689-.294,1.432-.588l.564,1.421q-.724.287-1.4.573m288.557-.258-.475-1.453q.736-.241,1.439-.482l.5,1.445q-.713.245-1.461.489M43.605,61.618l-.532-1.433c.472-.175.955-.35,1.453-.524l.5,1.444q-.732.256-1.424.513m288.665-.144-.523-1.437q.73-.266,1.42-.531l.549,1.428q-.7.269-1.446.541m-285.8-.859-.482-1.452q.716-.237,1.465-.476l.463,1.457q-.741.235-1.446.47m288.686-.256-.583-1.413q.72-.3,1.384-.6l.625,1.394q-.683.306-1.426.614m-285.79-.666-.445-1.463c.482-.146.972-.292,1.475-.439l.428,1.468q-.743.218-1.458.434m288.626-.608-.675-1.372q.7-.344,1.324-.689l.739,1.338q-.654.362-1.388.723M52.282,58.839l-.414-1.472q.729-.2,1.48-.409l.4,1.476q-.744.2-1.468.406m2.94-.8-.388-1.479q.734-.193,1.487-.385l.378,1.481c-.5.128-.991.255-1.476.382m285.511-.484-.824-1.287c.436-.28.836-.561,1.19-.837l.942,1.2c-.391.307-.83.616-1.307.92M58.174,57.287,57.807,55.8q.736-.183,1.491-.364l.357,1.487q-.75.18-1.481.361m2.964-.713-.348-1.488q.74-.173,1.495-.346l.339,1.491q-.752.172-1.486.343m2.975-.677L63.78,54.4q.742-.165,1.5-.329L65.6,55.57q-.752.162-1.489.327m279.141-.357-1.114-1.047a4.842,4.842,0,0,0,.766-1.042l1.355.706a6.322,6.322,0,0,1-1.008,1.382M67.093,55.25l-.317-1.5,1.5-.314.31,1.5Zm2.988-.619-.3-1.5,1.5-.3.3,1.5Zm2.994-.593-.291-1.5,1.5-.29.287,1.5Zm3-.57-.279-1.5,1.505-.278.276,1.5Zm3-.55-.27-1.505,1.507-.268.266,1.505ZM343.2,52.4l0-.125a2.139,2.139,0,0,0-.291-.934l1.332-.752a3.665,3.665,0,0,1,.486,1.609c0,.066.005.125.005.185Zm-261.111-.01-.261-1.507,1.509-.258.257,1.508Zm3.01-.512-.252-1.508,1.511-.249.248,1.508Zm3.014-.495-.244-1.509,1.513-.242.239,1.51Zm3.017-.478-.236-1.511,1.514-.234.232,1.511Zm3.018-.463-.227-1.513L95.43,48.7l.226,1.513Zm247.956-.08a8.433,8.433,0,0,0-1.1-.846l.836-1.28a9.912,9.912,0,0,1,1.305,1Zm-244.935-.37-.221-1.513,1.515-.219.218,1.513Zm3.024-.434-.213-1.514,1.515-.213.212,1.514Zm3.026-.422-.207-1.516,1.515-.206.206,1.515Zm236.529-.342c-.413-.213-.862-.424-1.335-.627l.6-1.405c.5.219.985.443,1.429.671Zm-233.5-.068-.2-1.516,1.518-.2.2,1.515Zm3.028-.4-.2-1.517,1.518-.194.193,1.517Zm3.031-.386-.191-1.517,1.518-.189.189,1.517Zm224.722-.33c-.449-.167-.921-.333-1.414-.5l.478-1.453q.771.253,1.47.516Zm-221.69-.044-.183-1.518,1.52-.183.18,1.519Zm3.034-.365-.18-1.518,1.521-.177.176,1.518Zm3.034-.352-.173-1.519,1.52-.173.172,1.52Zm212.77-.185q-.7-.208-1.452-.411l.4-1.476q.771.208,1.491.422ZM124.439,46.51l-.169-1.52,1.521-.168.167,1.521Zm3.038-.333-.164-1.521,1.521-.162.161,1.52Zm203.78-.3q-.72-.178-1.476-.351l.342-1.49q.768.175,1.5.357Zm-200.742-.024-.16-1.52,1.523-.159.157,1.521Zm3.04-.313-.155-1.522,1.523-.153.152,1.521Zm3.041-.305-.151-1.521,1.523-.148.148,1.521ZM328.3,45.2q-.728-.153-1.489-.306l.3-1.5c.513.1,1.015.206,1.506.309Zm-188.664-.258-.146-1.522,1.521-.144.143,1.522Zm185.681-.336q-.735-.138-1.5-.27l.264-1.507q.771.135,1.514.274Zm-3-.526q-.741-.123-1.5-.242l.236-1.511q.769.12,1.517.244Zm-3.01-.47q-.743-.11-1.507-.217l.212-1.514q.771.107,1.52.219Zm-3.018-.424q-.746-.1-1.511-.2l.193-1.518q.769.1,1.521.2Zm-3.022-.383-1.515-.179.174-1.518,1.521.178Zm-3.032-.348q-.751-.084-1.516-.161l.158-1.522q.769.081,1.525.163Zm-3.032-.317-1.52-.148.145-1.521,1.525.148Zm-3.041-.287q-.753-.07-1.518-.135l.132-1.523q.768.065,1.527.135Zm-3.04-.264-1.52-.122.119-1.525,1.527.124Zm-3.043-.24-1.521-.112.109-1.524,1.527.112Zm-3.045-.218-1.524-.1.1-1.526,1.527.1Zm-3.047-.2-1.524-.093.091-1.526,1.528.093Zm-3.048-.18-1.525-.083.082-1.527,1.528.084Zm-3.049-.164-1.526-.075.073-1.527,1.529.075Zm-3.052-.146-1.524-.067.064-1.527,1.531.067Zm-3.051-.131-1.526-.06.058-1.527,1.531.06Zm-3.053-.118-1.526-.054.05-1.527,1.529.054Zm-3.053-.1-1.527-.046.044-1.529,1.53.047ZM270.634,40l-1.525-.041.037-1.529,1.531.041ZM223.28,40l-.036-1.529,1.528-.036.036,1.529Zm3.116-.07-.076-.763.045-.765,1.468-.03.03,1.529Zm41.184,0-1.527-.034.032-1.529,1.531.034Zm-38.162-.054-.041-.764.014-.765,1.5-.026.025,1.529Zm35.107-.011L263,39.83l.028-1.529,1.531.028Zm-32.057-.041-.034-.764.011-.765,1.507-.021.021,1.529Zm29-.013-1.525-.023.02-1.529,1.531.023Zm-25.95-.028-.028-.765.01-.765,1.51-.018.017,1.529Zm22.9-.013-1.527-.017.015-1.529,1.531.017Zm-19.847-.02-.02-.765.007-.765,1.516-.013.012,1.529Zm16.792-.011-1.527-.012.011-1.529,1.531.012Zm-13.74-.013-.014-.765,0-.765,1.521-.008.008,1.529Zm10.684-.007-1.527-.007,0-1.529,1.531.007Zm-7.635-.008,0-1.529,1.529,0V39.7Zm4.58,0-1.527,0V38.171l1.53,0Z" transform="translate(-7.342 -8.989)" fill="#ff8182"/>
        <path id="Trazado_798611" data-name="Trazado 798611" d="M177.183,46.145l-.143-1.521.709-.066.193,1.518Z" transform="translate(-41.691 -10.493)" fill="#8f7efe"/>
        <path id="Trazado_798612" data-name="Trazado 798612" d="M394.511,40.208a4.038,4.038,0,1,1-4.038-4.038,4.038,4.038,0,0,1,4.038,4.038" transform="translate(-91.002 -8.518)" fill="#ff8182"/>
        <path id="Trazado_798613" data-name="Trazado 798613" d="M137.713,49.323a4.039,4.039,0,1,1-4.039-4.038,4.039,4.039,0,0,1,4.039,4.038" transform="translate(-30.528 -10.664)" fill="#ff8182"/>
        <path id="Trazado_798614" data-name="Trazado 798614" d="M355.869,95.815a4.038,4.038,0,1,1-4.038-4.038,4.038,4.038,0,0,1,4.038,4.038" transform="translate(-81.902 -21.613)" fill="#ff8182"/>
        <path id="Trazado_798615" data-name="Trazado 798615" d="M75.513,72.012a4.038,4.038,0,1,1-4.038-4.038,4.038,4.038,0,0,1,4.038,4.038" transform="translate(-15.881 -16.007)" fill="#ff8182"/>
        <path id="Trazado_798616" data-name="Trazado 798616" d="M430.243,183.938q-2.978-2.057-5.926-4.157l-5.877-4.219q-5.845-4.261-11.647-8.579l1.505-.412c-1,2.7-2.021,5.4-3.05,8.088s-2.037,5.389-3.093,8.069l-.646,1.638-1.293-1.2c-4.011-3.732-8.046-7.436-12.018-11.21l-5.975-5.641-5.931-5.687,1.765-.423c-.77,2.053-1.56,4.1-2.355,6.146l-2.381,6.136-.431,1.11-.878-.741c-2.829-2.385-5.673-4.752-8.48-7.167q-4.232-3.593-8.384-7.288,4.533,3.213,9,6.511c2.989,2.185,5.94,4.417,8.906,6.631l-1.309.369,2.121-6.229c.706-2.079,1.415-4.154,2.147-6.222l.544-1.538,1.222,1.115,6.069,5.54,6.026,5.586c4.03,3.712,8,7.492,11.985,11.246l-1.939.435c1.062-2.677,2.175-5.335,3.261-8s2.182-5.332,3.3-7.986l.511-1.212.995.8q5.635,4.53,11.2,9.149l5.549,4.643q2.767,2.33,5.5,4.706" transform="translate(-83.634 -37.188)" fill="#006a76"/>
        <path id="Trazado_798617" data-name="Trazado 798617" d="M420.184,112.467c-3.7.149-7.4.21-11.1.278-3.7.046-7.4.083-11.094.083l.735-.945c.63,2.118,1.238,4.242,1.842,6.368l1.808,6.378.37,1.3-1.36-.146c-4.178-.449-8.358-.87-12.531-1.362q-6.264-.7-12.517-1.486l.89-1.07c.94,3.231,1.826,6.478,2.735,9.718l.246.878-.88-.049c-5.668-.315-11.335-.654-17-1.128,5.681-.151,11.359-.166,17.036-.157l-.635.829c-1.036-3.2-2.095-6.4-3.1-9.608l-.373-1.191,1.263.121q6.275.6,12.54,1.275c4.18.428,8.352.927,12.527,1.4l-.99,1.158-1.676-6.413c-.557-2.138-1.11-4.277-1.641-6.423l-.242-.979.978.034c3.695.129,7.389.3,11.084.47,3.694.2,7.388.387,11.081.665" transform="translate(-85.326 -26.21)" fill="#006a76"/>
        <path id="Trazado_798618" data-name="Trazado 798618" d="M18.732,183.938q2.735-2.372,5.5-4.706l5.549-4.643q5.58-4.6,11.2-9.149l.994-.8.512,1.212c1.122,2.654,2.216,5.319,3.3,7.986s2.2,5.327,3.261,8l-1.939-.435c3.99-3.754,7.955-7.533,11.985-11.246l6.025-5.586,6.07-5.54,1.222-1.115.544,1.538c.732,2.067,1.441,4.143,2.147,6.222l2.121,6.229-1.309-.37c2.966-2.214,5.917-4.446,8.905-6.631q4.462-3.306,9-6.511-4.159,3.686-8.384,7.288c-2.807,2.415-5.65,4.782-8.481,7.167l-.878.741-.431-1.11-2.381-6.136c-.8-2.046-1.586-4.092-2.355-6.146l1.765.423-5.931,5.687-5.976,5.641c-3.971,3.774-8.007,7.478-12.017,11.21l-1.293,1.2-.646-1.638c-1.057-2.68-2.06-5.381-3.093-8.069s-2.054-5.384-3.05-8.088l1.505.412q-5.79,4.334-11.647,8.579l-5.877,4.219q-2.946,2.1-5.926,4.157" transform="translate(-4.411 -37.188)" fill="#006a76"/>
        <path id="Trazado_798619" data-name="Trazado 798619" d="M34.1,112.467c3.693-.278,7.387-.468,11.081-.665,3.694-.174,7.389-.341,11.084-.47l.978-.034-.242.979c-.531,2.146-1.083,4.285-1.641,6.423l-1.676,6.413-.99-1.158c4.175-.472,8.347-.971,12.527-1.4q6.265-.682,12.54-1.275l1.263-.121-.373,1.191c-1.005,3.211-2.064,6.406-3.1,9.608l-.635-.829c5.676-.008,11.354.006,17.036.157-5.663.475-11.331.813-17,1.128l-.88.049.246-.878c.908-3.241,1.8-6.488,2.735-9.718l.89,1.07q-6.254.782-12.517,1.486c-4.173.492-8.354.914-12.531,1.362l-1.36.146.37-1.3,1.808-6.378c.6-2.125,1.212-4.249,1.842-6.368l.735.945c-3.7,0-7.4-.037-11.094-.083-3.7-.068-7.4-.129-11.1-.278" transform="translate(-8.031 -26.21)" fill="#006a76"/>
      </g>
    </g>
  </g>
</svg>
