<svg xmlns="http://www.w3.org/2000/svg" xmlns:xlink="http://www.w3.org/1999/xlink" width="400" height="336" viewBox="0 0 400 336">
  <defs>
    <clipPath id="clip-path">
      <path id="Trazado_798378" data-name="Trazado 798378" d="M339.467,0C269.7,0,213.151,103.922,213.151,173.685a126.316,126.316,0,0,0,252.633,0C465.784,103.922,409.229,0,339.467,0Z" transform="translate(-213.151)" fill="none"/>
    </clipPath>
    <clipPath id="clip-path-2">
      <rect id="Rectángulo_373823" data-name="Rectángulo 373823" width="20.427" height="31.172" fill="none"/>
    </clipPath>
    <clipPath id="clip-path-3">
      <rect id="Rectángulo_373824" data-name="Rectángulo 373824" width="28.106" height="17.994" fill="none"/>
    </clipPath>
    <clipPath id="clip-path-4">
      <rect id="Rectángulo_373825" data-name="Rectángulo 373825" width="169.434" height="181.093" fill="none"/>
    </clipPath>
  </defs>
  <g id="Grupo_1064956" data-name="Grupo 1064956" transform="translate(-11360 10033)">
    <rect id="Rectángulo_373821" data-name="Rectángulo 373821" width="400" height="336" rx="20" transform="translate(11360 -10033)" fill="#ff8182"/>
    <g id="Grupo_1064755" data-name="Grupo 1064755" transform="translate(11220.533 -10016)">
      <g id="Grupo_1064754" data-name="Grupo 1064754" transform="translate(213.151)" clip-path="url(#clip-path)">
        <path id="Trazado_798344" data-name="Trazado 798344" d="M465.784,162.566A126.316,126.316,0,1,1,339.467,36.25,126.316,126.316,0,0,1,465.784,162.566" transform="translate(-213.151 11.117)" fill="#8edee0"/>
        <path id="Trazado_798345" data-name="Trazado 798345" d="M263.435,97.215s22.158-12.333,54.694-21.206a435.518,435.518,0,0,1,65.064-11.916s-34.678,25.9-58.073,30.739-61.685,2.383-61.685,2.383" transform="translate(-197.73 19.657)" fill="#006a76"/>
        <path id="Trazado_798346" data-name="Trazado 798346" d="M298.1,172.834,352.01,84.676,386.6,73.486s9.155,17.293,12.206,27.126,5.291,25.079,5.291,25.079l10.21,9.688a12.03,12.03,0,0,1-2.612,17.291l-4.377,3.041s.869,58.468-46.562,49.235L331.43,257.131l-58.422-40.557Z" transform="translate(-194.794 22.537)" fill="#e47573"/>
        <path id="Trazado_798347" data-name="Trazado 798347" d="M264.8,97.215a46.822,46.822,0,0,0-5.514,28.017c.09.763.366,1.7,1.126,1.814a1.626,1.626,0,0,0,1.1-.368,7.57,7.57,0,0,0,3.239-5.5c-1.407,8.67.229,17.631,3.43,25.811s7.92,15.672,12.854,22.939c2.258,3.324,4.589,6.655,6.029,10.406s1.914,8.041.4,11.764a5.714,5.714,0,0,0,5-2.407c-1.341,1.764-2.581,4.555-.81,5.889,1.17.881,2.829.349,4.18-.214,3.612-1.5,7.274-3.039,10.329-5.483,4.005-3.2,6.69-7.75,8.994-12.331a122.511,122.511,0,0,0,11.124-33.375c5.194-.621,10.992-1.014,16.187-1.633a199.732,199.732,0,0,0-.938-20.362c51.3-8.618,47.429-37.651,48.657-41.866a47.8,47.8,0,0,1,7.355,8.751c.129.2.071.065.192.269,2.994-4.534,2.382-10.809-.5-15.416s-7.662-7.736-12.679-9.822c0,0-19.913,14.756-58.806,23.659S264.8,97.215,264.8,97.215" transform="translate(-199.098 19.657)" fill="#2c2d40"/>
        <path id="Trazado_798348" data-name="Trazado 798348" d="M341.858,132.565a182.911,182.911,0,0,1-60.642,110.674c-7.745,6.7-16.04,12.739-24.324,18.764q-11.829,8.6-23.659,17.206c-11.609-9.862-17.657-24.124-18.445-39.335s4.311-30.507,13.354-42.764A116.6,116.6,0,0,0,214.575,214.3c-3.968-15.074,2.6-31.023,11.726-43.659s20.917-23.183,29.879-35.937c9.015-12.829,14.92-27.533,20.745-42.09l25.709,5.65c9.468,2.08,19.176,4.26,27.278,9.585s13.35,15.124,11.946,24.716" transform="translate(-213.076 28.404)" fill="#2c2d40"/>
        <path id="Trazado_798349" data-name="Trazado 798349" d="M290.594,123.84A27.891,27.891,0,0,0,301.141,143.9a14.477,14.477,0,0,0,6.516,3.135c5.431.843,10.737-3.225,12.832-8.3s1.6-10.861.375-16.219c-1.584-6.924-5.108-14.346-11.87-16.527-10.9-3.515-18.974,8.232-18.4,17.859" transform="translate(-189.409 32.308)" fill="#e47573"/>
        <g id="Grupo_1064747" data-name="Grupo 1064747" transform="translate(105.045 142.713)" style="mix-blend-mode: multiply;isolation: isolate">
          <g id="Grupo_1064746" data-name="Grupo 1064746">
            <g id="Grupo_1064745" data-name="Grupo 1064745" clip-path="url(#clip-path-2)">
              <path id="Trazado_798350" data-name="Trazado 798350" d="M313.717,139.706a13.519,13.519,0,0,1-5.874-4.528,2.753,2.753,0,0,1-.622-1.354c-.078-.958.727-1.734,1.462-2.355l4.461-3.762a1.711,1.711,0,0,0,.715-2.146c-1.128-5.326-2.509-11.081-6.736-14.513a7.639,7.639,0,0,0-3.955-1.8,7.437,7.437,0,0,0-5.845,2.43,20.2,20.2,0,0,0-3.506,5.493s-2.068,11.035,5.107,18.373,14.793,4.163,14.793,4.163" transform="translate(-293.541 -109.217)" fill="#e47573"/>
            </g>
          </g>
        </g>
        <path id="Trazado_798351" data-name="Trazado 798351" d="M293.753,117.382a17.566,17.566,0,0,1,3.241-6.06,9.2,9.2,0,0,1,2.92-2.156,6.73,6.73,0,0,1,3.763-.576,8.174,8.174,0,0,1,3.51,1.437,13.824,13.824,0,0,1,2.7,2.479,20.187,20.187,0,0,1,3.354,6.283,54.656,54.656,0,0,1,1.667,6.684,5.373,5.373,0,0,1,.124,1.066,2.444,2.444,0,0,1-.464,1.435,8.772,8.772,0,0,1-1.458,1.315c-.874.708-1.761,1.4-2.655,2.087a14.027,14.027,0,0,0-2.342,2,.978.978,0,0,0-.167.949,5.8,5.8,0,0,0,.766,1.282,14.5,14.5,0,0,0,4.944,4.309,12.724,12.724,0,0,1-5.86-3.55,6.638,6.638,0,0,1-1.13-1.5,2.5,2.5,0,0,1,.073-2.284,5.667,5.667,0,0,1,1.25-1.512l1.248-1.146c.827-.764,1.659-1.522,2.506-2.264a9.1,9.1,0,0,0,1.022-.964c.037-.08.012-.02.017-.153a3.867,3.867,0,0,0-.118-.6,58.814,58.814,0,0,0-1.714-6.378,18.664,18.664,0,0,0-2.847-5.632,9.05,9.05,0,0,0-4.749-3.494,6.6,6.6,0,0,0-5.532,1.726,22.046,22.046,0,0,0-4.065,5.212" transform="translate(-188.431 33.283)" fill="#2c2d40"/>
        <path id="Trazado_798352" data-name="Trazado 798352" d="M347.118,179.863a86.218,86.218,0,0,1-28.6-24.006,100.954,100.954,0,0,0,23.092,33.485" transform="translate(-180.835 47.8)" fill="#2c2d40"/>
        <path id="Trazado_798353" data-name="Trazado 798353" d="M229.769,252.8s45.345-69.946,60.459-75.3,46.289,18.264,66.757,34.953,44.4,45.069,44.4,45.069Z" transform="translate(-208.054 54.199)" fill="#bfcdf2"/>
        <g id="Grupo_1064750" data-name="Grupo 1064750" transform="translate(168.856 160.257)" opacity="0.32" style="mix-blend-mode: multiply;isolation: isolate">
          <g id="Grupo_1064749" data-name="Grupo 1064749">
            <g id="Grupo_1064748" data-name="Grupo 1064748" clip-path="url(#clip-path-3)">
              <path id="Trazado_798354" data-name="Trazado 798354" d="M342.4,132.984c.47,4.913,7.131,8.294,14.878,7.553s13.646-5.325,13.175-10.238-7.131-8.294-14.878-7.553-13.646,5.325-13.175,10.238" transform="translate(-342.375 -122.644)" fill="#ff7673"/>
            </g>
          </g>
        </g>
        <path id="Trazado_798355" data-name="Trazado 798355" d="M369.594,113.406c0,3.085-1.6,5.586-3.566,5.586s-3.566-2.5-3.566-5.586,1.6-5.586,3.566-5.586,3.566,2.5,3.566,5.586" transform="translate(-167.359 33.067)" fill="#2c2d40"/>
        <path id="Trazado_798356" data-name="Trazado 798356" d="M345.273,112.392c11.721-2.27,32.188-14.153,32.188-14.153s-1.528-5.4-2.527-7.632a93.469,93.469,0,0,1-29.66,21.785" transform="translate(-172.631 27.788)" fill="#2c2d40"/>
        <path id="Trazado_798357" data-name="Trazado 798357" d="M379.23,150.923a36.015,36.015,0,0,1-20.079,2.513,70.82,70.82,0,0,0,21.362-11.269c1.931,2.663,1.731,7.442-1.283,8.756" transform="translate(-168.374 43.601)" fill="#c33c4c"/>
        <path id="Trazado_798358" data-name="Trazado 798358" d="M359.673,151.21a147.058,147.058,0,0,0,15.943,5.715,3.39,3.39,0,0,0,2.159.1,2.948,2.948,0,0,0,1.474-2.387,9.189,9.189,0,0,0-1.845-7.1" transform="translate(-168.214 45.246)" fill="#c33c4c"/>
        <g id="Grupo_1064753" data-name="Grupo 1064753" transform="translate(13.962 90.848)" style="mix-blend-mode: overlay;isolation: isolate">
          <g id="Grupo_1064752" data-name="Grupo 1064752">
            <g id="Grupo_1064751" data-name="Grupo 1064751" clip-path="url(#clip-path-4)">
              <path id="Trazado_798359" data-name="Trazado 798359" d="M368.626,69.525a33.265,33.265,0,0,1-2.974,9.94,43.349,43.349,0,0,1-5.679,8.756,61.22,61.22,0,0,1-16.051,13.263,84.088,84.088,0,0,1-19.2,8.048,86.476,86.476,0,0,1-10.183,2.136,77.43,77.43,0,0,1-10.35.754A94.617,94.617,0,0,0,314.432,111a87.015,87.015,0,0,0,10-2.485,88.667,88.667,0,0,0,18.8-8.222,62.985,62.985,0,0,0,15.94-12.759,39.81,39.81,0,0,0,9.454-18.011" transform="translate(-199.191 -69.525)" fill="#bfcdf2"/>
              <path id="Trazado_798360" data-name="Trazado 798360" d="M334.659,85.776q-1.705,1.086-3.435,2.139l-3.545,1.967-3.656,1.761-3.732,1.6a91.006,91.006,0,0,1-15.584,4.585,91.015,91.015,0,0,1-16.164,1.6l-4.061-.085-4.049-.261-4.023-.494q-2-.325-3.988-.7,2.021.147,4.026.333l4.027.183,4.025.065,4.018-.1a101.673,101.673,0,0,0,15.927-1.888,101.729,101.729,0,0,0,15.474-4.222l3.765-1.411,3.706-1.571,3.664-1.682q1.79-.927,3.606-1.819" transform="translate(-208.936 -64.541)" fill="#bfcdf2"/>
              <path id="Trazado_798361" data-name="Trazado 798361" d="M298.65,139.7c-.909,1.855-1.914,3.656-2.9,5.472-1.028,1.79-2.087,3.562-3.158,5.329-2.152,3.525-4.483,6.94-6.9,10.294-2.44,3.333-4.964,6.607-7.649,9.747q-2.021,2.348-4.087,4.653c-1.423,1.5-2.825,3.012-4.307,4.451l3.792-4.886q1.909-2.427,3.778-4.882c2.479-3.281,4.959-6.557,7.361-9.892,2.428-3.315,4.773-6.689,7.127-10.062q1.76-2.532,3.471-5.105Z" transform="translate(-209.784 -48.002)" fill="#bfcdf2"/>
              <path id="Trazado_798362" data-name="Trazado 798362" d="M294.934,113.31a84.355,84.355,0,0,1-5.015,16.873,127.231,127.231,0,0,1-7.951,15.748c-5.981,10.148-13.079,19.548-20,29.008-7,9.391-13.783,18.965-19.374,29.236-5.581,10.237-9.856,21.33-11.243,33.013a74.4,74.4,0,0,1,3.416-17.265,107.1,107.1,0,0,1,6.891-16.246c5.445-10.459,12.28-20.088,19.2-29.555,7.017-9.4,14.065-18.772,20.2-28.735,6.121-9.939,11.239-20.617,13.869-32.078" transform="translate(-221.53 -56.097)" fill="#bfcdf2"/>
              <path id="Trazado_798363" data-name="Trazado 798363" d="M284.674,104.327c-2.1,3.567-4.309,7.067-6.515,10.571q-3.383,5.206-6.882,10.34c-4.681,6.833-9.62,13.484-14.658,20.059-5.126,6.506-10.357,12.932-15.821,19.156q-4.118,4.651-8.324,9.219c-2.853,3-5.7,6.006-8.639,8.921l4.086-4.671,4.051-4.7q4.051-4.7,8.02-9.458c5.287-6.353,10.512-12.755,15.542-19.312,5.116-6.488,10.026-13.135,14.882-19.822q3.642-5.018,7.187-10.106l3.553-5.084Z" transform="translate(-223.836 -58.852)" fill="#bfcdf2"/>
            </g>
          </g>
        </g>
        <path id="Trazado_798364" data-name="Trazado 798364" d="M335,33.37q1.47,6.956-2.6,15.082l-5.5,11.042a8.834,8.834,0,0,0-1,4.648v.009A2.073,2.073,0,0,1,324.29,66.4l-13.377,2.83a2.554,2.554,0,0,1-3.029-1.97,18.411,18.411,0,0,1,1.9-13l5.721-10.52q2.2-4.1,1.646-6.706-1.4-6.627-7.921-5.249-5.435,1.151-5.334,6.094a2.562,2.562,0,0,1-2,2.608L288.96,43.225A2.565,2.565,0,0,1,285.886,41a21.481,21.481,0,0,1,4.125-15.821q5.494-7.293,15.819-9.477,10.214-2.16,18.171,2.173,8.722,4.739,11,15.5m-4.019,48.08a10.619,10.619,0,1,1-4.583-6.637,10.158,10.158,0,0,1,4.583,6.637" transform="translate(-190.895 4.595)" fill="#2c2d40"/>
        <path id="Trazado_798365" data-name="Trazado 798365" d="M357.014,47.491a13.446,13.446,0,0,1-6.2,6.553l-6.3,3.625a5.216,5.216,0,0,0-2.01,1.953l0,.005a1.221,1.221,0,0,1-1.526.58l-7.489-2.978a1.5,1.5,0,0,1-.843-1.955,10.852,10.852,0,0,1,5.178-5.762l6.242-3.3a6.1,6.1,0,0,0,3-2.755q1.476-3.71-2.174-5.161-3.044-1.209-4.607,1.251a1.513,1.513,0,0,1-1.831.629L331.2,37.3a1.513,1.513,0,0,1-.783-2.1,12.656,12.656,0,0,1,7.189-6.417,15.068,15.068,0,0,1,10.859.511,15.167,15.167,0,0,1,8.209,7,12.814,12.814,0,0,1,.341,11.2M339.346,69.777a6.259,6.259,0,1,1-.082-4.752,5.979,5.979,0,0,1,.082,4.752" transform="translate(-178.132 8.588)" fill="#ffad01"/>
        <path id="Trazado_798366" data-name="Trazado 798366" d="M285.838,46.283a13.444,13.444,0,0,1,3.7,8.226l.957,7.206a5.2,5.2,0,0,0,1.043,2.6l0,0a1.221,1.221,0,0,1-.043,1.632l-5.6,5.8a1.5,1.5,0,0,1-2.129.035,10.844,10.844,0,0,1-3.359-6.98l-.676-7.026a6.106,6.106,0,0,0-1.407-3.819q-2.872-2.775-5.6.048-2.276,2.354-.595,4.737a1.512,1.512,0,0,1-.115,1.933l-5.42,5.607a1.512,1.512,0,0,1-2.236-.072,12.663,12.663,0,0,1-3.2-9.091,15.084,15.084,0,0,1,4.6-9.849,15.169,15.169,0,0,1,9.594-4.931,12.816,12.816,0,0,1,10.485,3.942m13.9,24.814a6.26,6.26,0,1,1-4.428-1.73,5.987,5.987,0,0,1,4.428,1.73" transform="translate(-198.433 12.966)" fill="#ffad01"/>
        <circle id="Elipse_4738" data-name="Elipse 4738" cx="4.255" cy="4.255" r="4.255" transform="translate(70.676 91.153) rotate(-22.5)" fill="none" stroke="#bfcdf2" stroke-miterlimit="10" stroke-width="0.527"/>
        <path id="Trazado_798367" data-name="Trazado 798367" d="M260.8,80.455a2.127,2.127,0,1,1-2.127-2.127,2.127,2.127,0,0,1,2.127,2.127" transform="translate(-199.844 24.022)" fill="#bfcdf2"/>
        <circle id="Elipse_4739" data-name="Elipse 4739" cx="4.255" cy="4.255" r="4.255" transform="translate(195.269 60.09) rotate(-22.5)" fill="none" stroke="#bfcdf2" stroke-miterlimit="10" stroke-width="0.527"/>
        <path id="Trazado_798368" data-name="Trazado 798368" d="M356.146,56.683a2.127,2.127,0,1,1-2.127-2.127,2.127,2.127,0,0,1,2.127,2.127" transform="translate(-170.601 16.732)" fill="#bfcdf2"/>
        <circle id="Elipse_4740" data-name="Elipse 4740" cx="4.255" cy="4.255" r="4.255" transform="translate(73.748 23.907) rotate(-22.5)" fill="none" stroke="#bfcdf2" stroke-miterlimit="10" stroke-width="0.527"/>
        <path id="Trazado_798369" data-name="Trazado 798369" d="M276.992,33.172a2.127,2.127,0,1,1-2.127-2.127,2.127,2.127,0,0,1,2.127,2.127" transform="translate(-194.877 9.521)" fill="#bfcdf2"/>
        <path id="Trazado_798370" data-name="Trazado 798370" d="M354.393,43.566a30.383,30.383,0,0,1,3.524-3.714c1.24-1.15,2.557-2.2,3.889-3.226,1.356-1,2.73-1.97,4.179-2.842a30.059,30.059,0,0,1,4.547-2.351,29.991,29.991,0,0,1-3.521,3.715c-1.24,1.15-2.557,2.2-3.891,3.225-1.358.994-2.731,1.968-4.18,2.839a30.481,30.481,0,0,1-4.546,2.353" transform="translate(-169.834 9.64)" fill="#5700dd"/>
        <path id="Trazado_798371" data-name="Trazado 798371" d="M351.263,34.094a10.68,10.68,0,0,1,1.386-2.653,16.377,16.377,0,0,1,1.823-2.232,16.18,16.18,0,0,1,2.169-1.895,10.649,10.649,0,0,1,2.611-1.467,10.6,10.6,0,0,1-1.384,2.655,17.174,17.174,0,0,1-4,4.121,10.753,10.753,0,0,1-2.608,1.47" transform="translate(-170.794 7.927)" fill="#5700dd"/>
        <path id="Trazado_798372" data-name="Trazado 798372" d="M329.155,31.045a28.54,28.54,0,0,1,1.346-4.768,49.428,49.428,0,0,1,4.223-8.8,28.245,28.245,0,0,1,2.883-4.03,28.3,28.3,0,0,1-1.343,4.769,45.948,45.948,0,0,1-1.9,4.5,46.754,46.754,0,0,1-2.331,4.3,28.606,28.606,0,0,1-2.88,4.032" transform="translate(-177.574 4.123)" fill="#5700dd"/>
        <path id="Trazado_798373" data-name="Trazado 798373" d="M326.472,22.252a6.709,6.709,0,0,1-.182-2.321,9.475,9.475,0,0,1,.4-2.146,9.323,9.323,0,0,1,.862-2A6.65,6.65,0,0,1,329,13.956a6.606,6.606,0,0,1,.183,2.323,9.245,9.245,0,0,1-.4,2.144,9.46,9.46,0,0,1-.864,2,6.714,6.714,0,0,1-1.447,1.824" transform="translate(-178.461 4.28)" fill="#5700dd"/>
        <path id="Trazado_798374" data-name="Trazado 798374" d="M256.027,30.833a14.517,14.517,0,0,1,3.694,1.457,21.8,21.8,0,0,1,6.083,4.884,14.408,14.408,0,0,1,2.216,3.3,24.377,24.377,0,0,1-3.359-2.028c-1.057-.72-2.061-1.488-3.047-2.28s-1.95-1.609-2.881-2.488a24.708,24.708,0,0,1-2.7-2.841" transform="translate(-200.001 9.456)" fill="#5700dd"/>
        <path id="Trazado_798375" data-name="Trazado 798375" d="M253.863,38.479a10.173,10.173,0,0,1,2.881.414,15.5,15.5,0,0,1,2.623.964,15.17,15.17,0,0,1,2.417,1.4,10.053,10.053,0,0,1,2.157,1.957,10.083,10.083,0,0,1-2.883-.412,15.242,15.242,0,0,1-2.622-.967,15.4,15.4,0,0,1-2.416-1.4,10.133,10.133,0,0,1-2.157-1.953" transform="translate(-200.665 11.801)" fill="#5700dd"/>
        <path id="Trazado_798376" data-name="Trazado 798376" d="M241.69,69.161a40.417,40.417,0,0,1,5.875-.759c1.956-.145,3.911-.162,5.866-.153,1.953.05,3.907.125,5.858.329a40.073,40.073,0,0,1,5.849.945,40.247,40.247,0,0,1-5.875.763c-1.956.144-3.911.161-5.866.149-1.953-.052-3.907-.128-5.858-.333a40.415,40.415,0,0,1-5.849-.941" transform="translate(-204.398 20.93)" fill="#5700dd"/>
        <path id="Trazado_798377" data-name="Trazado 798377" d="M251.906,63.2a11.493,11.493,0,0,1,3.3-.464,16.956,16.956,0,0,1,3.238.256,16.679,16.679,0,0,1,3.136.843,11.366,11.366,0,0,1,2.951,1.547,14.94,14.94,0,0,1-3.3.124,25.054,25.054,0,0,1-3.16-.359,25.612,25.612,0,0,1-3.1-.725,15.139,15.139,0,0,1-3.067-1.222" transform="translate(-201.265 19.24)" fill="#5700dd"/>
      </g>
    </g>
  </g>
</svg>
