<svg xmlns="http://www.w3.org/2000/svg" xmlns:xlink="http://www.w3.org/1999/xlink" width="400" height="336" viewBox="0 0 400 336">
  <defs>
    <clipPath id="clip-path">
      <path id="Trazado_798409" data-name="Trazado 798409" d="M0,410.787a129.851,129.851,0,1,0,259.7,0c0-71.715-58.136-170.149-129.851-170.149S0,339.072,0,410.787" transform="translate(0 -240.638)" fill="none"/>
    </clipPath>
    <clipPath id="clip-path-2">
      <rect id="Rectángulo_373826" data-name="Rectángulo 373826" width="28.893" height="18.498" fill="none"/>
    </clipPath>
    <clipPath id="clip-path-3">
      <rect id="Rectángulo_373827" data-name="Rectángulo 373827" width="20.999" height="32.045" fill="none"/>
    </clipPath>
    <clipPath id="clip-path-4">
      <rect id="Rectángulo_373828" data-name="Rectángulo 373828" width="140.83" height="154.075" fill="none"/>
    </clipPath>
  </defs>
  <g id="Grupo_1064957" data-name="Grupo 1064957" transform="translate(-11780 10033)">
    <rect id="Rectángulo_373822" data-name="Rectángulo 373822" width="400" height="336" rx="20" transform="translate(11780 -10033)" fill="#ff8182"/>
    <g id="Grupo_1064766" data-name="Grupo 1064766" transform="translate(11850.148 -10255.638)">
      <g id="Grupo_1064765" data-name="Grupo 1064765" transform="translate(0 240.638)" clip-path="url(#clip-path)">
        <path id="Trazado_798379" data-name="Trazado 798379" d="M259.7,400.489A129.851,129.851,0,1,1,129.851,270.638,129.851,129.851,0,0,1,259.7,400.489" transform="translate(0 -230.34)" fill="#8edee0"/>
        <path id="Trazado_798380" data-name="Trazado 798380" d="M176.448,339.679s-22.778-12.678-56.225-21.8S53.339,305.63,53.339,305.63s35.649,26.623,59.7,31.6,63.411,2.45,63.411,2.45" transform="translate(18.309 -218.329)" fill="#006a76"/>
        <path id="Trazado_798381" data-name="Trazado 798381" d="M148.284,417.15l-55.42-90.624-35.553-11.5S47.9,332.8,44.763,342.907s-5.439,25.781-5.439,25.781-5.349,2.482-10.5,9.959-6.042,16.878-6.042,16.878l13.227,4.023s-.893,60.1,47.866,50.613l30.141,53.646,60.057-41.692Z" transform="translate(7.821 -215.105)" fill="#e47573"/>
        <path id="Trazado_798382" data-name="Trazado 798382" d="M180.428,339.679a48.131,48.131,0,0,1,5.669,28.8c-.093.784-.376,1.75-1.158,1.864a1.671,1.671,0,0,1-1.13-.379,7.784,7.784,0,0,1-3.33-5.656c1.447,8.912-.235,18.125-3.526,26.532s-8.141,16.112-13.214,23.582c-2.321,3.417-4.718,6.841-6.2,10.7s-1.968,8.266-.411,12.093a5.88,5.88,0,0,1-5.141-2.474c1.378,1.813,2.653,4.683.833,6.054-1.2.905-2.907.359-4.3-.22-3.713-1.546-7.479-3.124-10.618-5.636-4.117-3.294-6.877-7.967-9.246-12.676a125.939,125.939,0,0,1-11.435-34.309c-5.339-.638-11.3-1.042-16.64-1.679a205.327,205.327,0,0,1,.964-20.932c-52.74-8.86-48.756-38.7-50.019-43.038a49.135,49.135,0,0,0-7.561,9c-.133.2-.073.067-.2.277-3.077-4.661-2.449-11.111.512-15.848s7.877-7.952,13.034-10.1c0,0,20.471,15.168,60.452,24.321s62.657,9.728,62.657,9.728" transform="translate(14.329 -218.329)" fill="#2c2d40"/>
        <path id="Trazado_798383" data-name="Trazado 798383" d="M68.018,422.072a88.631,88.631,0,0,0,29.4-24.678,103.758,103.758,0,0,1-23.738,34.422" transform="translate(23.348 -186.831)" fill="#2c2d40"/>
        <path id="Trazado_798384" data-name="Trazado 798384" d="M223.737,496.461s-46.614-71.9-62.151-77.405S114,437.831,92.961,454.987s-45.644,46.33-45.644,46.33Z" transform="translate(16.242 -179.668)" fill="#bfcdf2"/>
        <g id="Grupo_1064758" data-name="Grupo 1064758" transform="translate(59.828 165.95)" opacity="0.32" style="mix-blend-mode: multiply;isolation: isolate">
          <g id="Grupo_1064757" data-name="Grupo 1064757">
            <g id="Grupo_1064756" data-name="Grupo 1064756" clip-path="url(#clip-path-2)">
              <path id="Trazado_798385" data-name="Trazado 798385" d="M73.405,374.809c-.484,5.051-7.33,8.526-15.294,7.764S44.083,377.1,44.567,372.049s7.33-8.526,15.294-7.764,14.028,5.474,13.544,10.524" transform="translate(-44.54 -364.181)" fill="#ff7673"/>
            </g>
          </g>
        </g>
        <path id="Trazado_798386" data-name="Trazado 798386" d="M40.5,355.1c0,3.172,1.641,5.742,3.666,5.742s3.666-2.571,3.666-5.742-1.641-5.742-3.666-5.742S40.5,351.928,40.5,355.1" transform="translate(13.903 -203.32)" fill="#2c2d40"/>
        <path id="Trazado_798387" data-name="Trazado 798387" d="M71.606,354.539c-12.049-2.335-33.088-14.55-33.088-14.55s1.57-5.55,2.6-7.845a96.107,96.107,0,0,0,30.492,22.395" transform="translate(13.222 -209.228)" fill="#2c2d40"/>
        <path id="Trazado_798388" data-name="Trazado 798388" d="M164.188,331.834c1.9,6.5,4.09,13.443,9.454,17.577,3.349,2.58,7.548,3.738,11.344,5.6a28.514,28.514,0,0,1,14.15,14.887c2.531,6.535,2.042,14.314-1.847,20.142,6.175-2.151,13.259,2.313,15.609,8.415s.856,13.1-2.137,18.916c6.72-2.237,14.542,1.973,17.472,8.422s1.474,14.328-2.551,20.157-10.285,9.8-16.886,12.371c2.039.776,3.118,3.154,3,5.333a12.823,12.823,0,0,1-2.357,6.027,47.2,47.2,0,0,1-28.689,20.352c-3.192.748-7.565.5-8.467-2.65,1.142,1.539.65,3.834-.6,5.282a12.326,12.326,0,0,1-4.853,2.973c-5.667,2.327-11.521,4.433-17.628,4.926s-12.559-.782-17.335-4.618-7.471-10.522-5.592-16.353a20.678,20.678,0,0,1-30.989-18.245c.073-4.658,2.572-9.958,7.184-10.626-5.784-.5-9.807-6.391-10.582-12.144A22.073,22.073,0,0,1,105.221,415.8a11.408,11.408,0,0,1-4.294-14.248,21.416,21.416,0,0,1,3.193-4.481c18.685-21.839,35.8-49.349,59.156-66.095" transform="translate(31.48 -209.629)" fill="#2c2d40"/>
        <path id="Trazado_798389" data-name="Trazado 798389" d="M126.067,365.895a28.672,28.672,0,0,1-10.843,20.618,14.882,14.882,0,0,1-6.7,3.222c-5.583.866-11.038-3.315-13.191-8.536s-1.645-11.165-.386-16.671c1.628-7.119,5.251-14.749,12.2-16.991,11.2-3.613,19.505,8.463,18.916,18.358" transform="translate(32.218 -204.169)" fill="#e47573"/>
        <g id="Grupo_1064761" data-name="Grupo 1064761" transform="translate(133.318 147.914)" style="mix-blend-mode: multiply;isolation: isolate">
          <g id="Grupo_1064760" data-name="Grupo 1064760">
            <g id="Grupo_1064759" data-name="Grupo 1064759" clip-path="url(#clip-path-3)">
              <path id="Trazado_798390" data-name="Trazado 798390" d="M99.508,382.1a13.906,13.906,0,0,0,6.038-4.654,2.831,2.831,0,0,0,.639-1.392c.081-.985-.747-1.782-1.5-2.421l-4.586-3.867a1.761,1.761,0,0,1-.736-2.206c1.161-5.475,2.58-11.391,6.926-14.919a7.852,7.852,0,0,1,4.066-1.854,7.644,7.644,0,0,1,6.008,2.5,20.762,20.762,0,0,1,3.6,5.647s2.126,11.344-5.249,18.888-15.207,4.28-15.207,4.28" transform="translate(-99.25 -350.754)" fill="#e47573"/>
            </g>
          </g>
        </g>
        <path id="Trazado_798391" data-name="Trazado 798391" d="M120.26,359.166a22.594,22.594,0,0,0-4.179-5.357,6.783,6.783,0,0,0-5.687-1.776,9.314,9.314,0,0,0-4.881,3.592,19.186,19.186,0,0,0-2.927,5.789,60.463,60.463,0,0,0-1.762,6.556,4.147,4.147,0,0,0-.121.617c.005.137-.02.075.019.157a9.114,9.114,0,0,0,1.05.991c.869.763,1.725,1.542,2.575,2.328l1.283,1.178a5.825,5.825,0,0,1,1.285,1.554,2.568,2.568,0,0,1,.075,2.348,6.746,6.746,0,0,1-1.162,1.539,13.073,13.073,0,0,1-6.025,3.65,14.9,14.9,0,0,0,5.083-4.43,5.909,5.909,0,0,0,.787-1.318,1,1,0,0,0-.172-.975,14.418,14.418,0,0,0-2.407-2.061c-.919-.705-1.831-1.417-2.729-2.145a9.016,9.016,0,0,1-1.5-1.351,2.521,2.521,0,0,1-.477-1.475,5.623,5.623,0,0,1,.128-1.1,55.941,55.941,0,0,1,1.715-6.871,20.711,20.711,0,0,1,3.448-6.458,14.2,14.2,0,0,1,2.77-2.548,8.42,8.42,0,0,1,3.608-1.478,6.93,6.93,0,0,1,3.869.592,9.443,9.443,0,0,1,3,2.218,18.04,18.04,0,0,1,3.331,6.229" transform="translate(33.772 -203.077)" fill="#2c2d40"/>
        <path id="Trazado_798392" data-name="Trazado 798392" d="M34.371,387.074a70.732,70.732,0,0,1,18.481,8.544A68.712,68.712,0,0,0,33.6,391.03Z" transform="translate(11.534 -190.373)" fill="#2c2d40"/>
        <path id="Trazado_798393" data-name="Trazado 798393" d="M43.807,361.308s-7.17,12.962-.552,12.962.552-12.962.552-12.962" transform="translate(13.885 -199.217)" fill="#fff"/>
        <circle id="Elipse_4741" data-name="Elipse 4741" cx="4.374" cy="4.374" r="4.374" transform="matrix(0.987, -0.16, 0.16, 0.987, 196.324, 109.067)" fill="none" stroke="#bfcdf2" stroke-miterlimit="10" stroke-width="0.527"/>
        <path id="Trazado_798394" data-name="Trazado 798394" d="M161.587,333.52a2.187,2.187,0,1,0,2.187-2.187,2.187,2.187,0,0,0-2.187,2.187" transform="translate(55.466 -209.506)" fill="#bfcdf2"/>
        <circle id="Elipse_4742" data-name="Elipse 4742" cx="4.374" cy="4.374" r="4.374" transform="matrix(0.987, -0.16, 0.16, 0.987, 94.613, 17.603)" fill="none" stroke="#bfcdf2" stroke-miterlimit="10" stroke-width="0.527"/>
        <path id="Trazado_798395" data-name="Trazado 798395" d="M61.28,272.489a2.187,2.187,0,1,0,2.187-2.187,2.187,2.187,0,0,0-2.187,2.187" transform="translate(21.035 -230.456)" fill="#bfcdf2"/>
        <circle id="Elipse_4743" data-name="Elipse 4743" cx="4.374" cy="4.374" r="4.374" transform="matrix(0.987, -0.16, 0.16, 0.987, 175.757, 24.534)" fill="none" stroke="#bfcdf2" stroke-miterlimit="10" stroke-width="0.527"/>
        <path id="Trazado_798396" data-name="Trazado 798396" d="M132.431,274.769a2.187,2.187,0,1,0,2.187-2.187,2.187,2.187,0,0,0-2.187,2.187" transform="translate(45.458 -229.673)" fill="#bfcdf2"/>
        <g id="Grupo_1064764" data-name="Grupo 1064764" transform="translate(81.281 107.243)" style="mix-blend-mode: overlay;isolation: isolate">
          <g id="Grupo_1064763" data-name="Grupo 1064763">
            <g id="Grupo_1064762" data-name="Grupo 1064762" clip-path="url(#clip-path-4)">
              <path id="Trazado_798397" data-name="Trazado 798397" d="M60.51,320.476a55.991,55.991,0,0,0,10.057,12.091,53.29,53.29,0,0,0,35.791,13.7,54.935,54.935,0,0,0,7.886-.533,45.8,45.8,0,0,1-7.866,1.191,51.055,51.055,0,0,1-7.99-.195,47.82,47.82,0,0,1-28.525-13.408,46.178,46.178,0,0,1-9.353-12.842" transform="translate(-60.511 -320.476)" fill="#bfcdf2"/>
              <path id="Trazado_798398" data-name="Trazado 798398" d="M78.531,324.495a139.335,139.335,0,0,0,19.141,9.033,135.77,135.77,0,0,0,41.183,8.653l5.286.171,5.291-.056,5.294-.234,5.287-.442-5.253.8-5.294.537-5.319.247-5.329.013a115.45,115.45,0,0,1-41.525-8.73,106.676,106.676,0,0,1-18.761-9.99" transform="translate(-54.325 -319.096)" fill="#bfcdf2"/>
              <path id="Trazado_798399" data-name="Trazado 798399" d="M135.331,347.61a36.254,36.254,0,0,1,9.9,1.429,24.581,24.581,0,0,1,9.012,4.486A14.821,14.821,0,0,1,157.6,357.4a11.011,11.011,0,0,1,1.525,4.965,10.854,10.854,0,0,1-.927,5.141,8.237,8.237,0,0,1-3.586,3.894l-.214-1.152a19.922,19.922,0,0,1,8.07,2.678,15.291,15.291,0,0,1,5.906,6.175,13.233,13.233,0,0,1,1.095,8.491,11.121,11.121,0,0,1-4.611,7.188l-.286-1.057A12.265,12.265,0,0,1,175.621,404.6a11.574,11.574,0,0,1-2.321,7.76,11.391,11.391,0,0,1-6.607,4.454,11.74,11.74,0,0,0,8.186-12.144,11.392,11.392,0,0,0-10.374-9.794l-1.721-.1,1.436-.956a9.929,9.929,0,0,0,4.042-6.464,11.96,11.96,0,0,0-1.052-7.658,14.733,14.733,0,0,0-5.416-5.659,18.646,18.646,0,0,0-7.53-2.574l-2.023-.238,1.808-.915c2.771-1.4,4.117-4.767,3.948-7.889a11.506,11.506,0,0,0-4.308-8.25,25.409,25.409,0,0,0-8.612-4.648,38.993,38.993,0,0,0-9.745-1.916" transform="translate(-34.828 -311.162)" fill="#bfcdf2"/>
              <path id="Trazado_798400" data-name="Trazado 798400" d="M131.22,378.026a42.673,42.673,0,0,1,9.6,2.633,20.659,20.659,0,0,1,8.137,5.826,14.514,14.514,0,0,1,3.146,9.575,12.277,12.277,0,0,1-1.265,5.02,9.387,9.387,0,0,1-3.55,3.848l-.1-1.1a14.02,14.02,0,0,1,5.823,22.372l-.314-.983a16.189,16.189,0,0,1,11.888,14.095,15.852,15.852,0,0,1-9.346,15.49,15.837,15.837,0,0,0,8.515-15.413A15.507,15.507,0,0,0,152.4,426.39l-.947-.235.633-.748a12.952,12.952,0,0,0-5.326-20.431l-1.229-.461,1.13-.645A9.409,9.409,0,0,0,150.967,396a13.559,13.559,0,0,0-2.682-8.985,21.019,21.019,0,0,0-7.678-5.89,46.675,46.675,0,0,0-9.387-3.1" transform="translate(-36.239 -300.722)" fill="#bfcdf2"/>
              <path id="Trazado_798401" data-name="Trazado 798401" d="M120.944,391.342a14.343,14.343,0,0,1,9.878,13.173,14.129,14.129,0,0,1-2.614,8.4,14.648,14.648,0,0,1-6.969,5.448l-.279-1.253a4.869,4.869,0,0,1,3.017.685,6.266,6.266,0,0,1,2.12,2.143,7.422,7.422,0,0,1,.912,5.752,10.49,10.49,0,0,1-3.068,4.828,19.321,19.321,0,0,1-4.637,3.138l-.089-.985a4.651,4.651,0,0,1,2.967,4.356,7.233,7.233,0,0,1-1.961,4.787,10.021,10.021,0,0,1-9.231,3.162,9.927,9.927,0,0,0,8.71-3.6,6.469,6.469,0,0,0,1.607-4.32,3.69,3.69,0,0,0-2.41-3.364l-1.229-.349,1.14-.635a20.569,20.569,0,0,0,4.319-3.049,9.276,9.276,0,0,0,2.673-4.294,6.147,6.147,0,0,0-.825-4.726,4.289,4.289,0,0,0-3.887-2.242L115.42,419l5.386-1.862a13.422,13.422,0,0,0,6.433-4.91,13.968,13.968,0,0,0,2.626-7.71,14.393,14.393,0,0,0-8.922-13.177" transform="translate(-43.183 -296.151)" fill="#bfcdf2"/>
            </g>
          </g>
        </g>
        <path id="Trazado_798402" data-name="Trazado 798402" d="M116.307,291.264l-10.252,19.763-4.638-6.711,14.076,1.656,5.378.633-2.357,4-14.346,24.34,8.3-27,3.021,4.634-14.076,1.656-6.5.764,1.864-7.475,5.384-21.6Z" transform="translate(32.58 -225.095)" fill="#1b283e"/>
        <path id="Trazado_798403" data-name="Trazado 798403" d="M163.571,303.939l-5.1,9.835-2.308-3.339,7.005.823,2.676.316-1.173,1.991-7.139,12.114,4.132-13.439,1.5,2.306-7.005.823-3.236.382.928-3.721,2.678-10.751Z" transform="translate(52.493 -219.823)" fill="#1b283e"/>
        <path id="Trazado_798404" data-name="Trazado 798404" d="M62.613,284.383l-5.74,10.66L54.566,291.7l7.005.825,2.677.314-1.174,1.992-7.139,12.112,4.132-13.439,1.5,2.306-7.005.825-3.236.38.928-3.721,2.337-9.416Z" transform="translate(17.619 -225.794)" fill="#1b283e"/>
        <path id="Trazado_798405" data-name="Trazado 798405" d="M145.248,303.939l-5.1,9.835-2.308-3.339,7.005.823,2.676.316-1.173,1.991-7.139,12.114,4.132-13.439,1.5,2.306-7.005.823-3.236.382.928-3.721,2.678-10.751Z" transform="translate(46.203 -219.823)" fill="#1b283e"/>
        <path id="Trazado_798406" data-name="Trazado 798406" d="M168.756,303.837H64.509c-.779-4.286-.118-8.175,2.807-11.406a14.5,14.5,0,0,1,11.736-4.644,20.566,20.566,0,0,1,5.45-17.52c4.411-4.857,12.038-5.546,18.581-5.055,2.5-5.213,9.064-9.246,14.827-9.689a16.921,16.921,0,0,1,12.972,5.173c3.392,3.4,3.642,5.593,4.654,10.288a17.5,17.5,0,0,1,9.432.621,13.772,13.772,0,0,1,4.315,2.772,21.175,21.175,0,0,1,6.939,12.683c3.711.692,7.005,2.035,9.234,5.082a18.209,18.209,0,0,1,3.3,11.694" transform="translate(22.04 -235.542)" fill="#bfcdf2"/>
        <path id="Trazado_798407" data-name="Trazado 798407" d="M192.716,312.888h-72.7a8.832,8.832,0,0,1,1.957-7.955,10.116,10.116,0,0,1,8.184-3.239,14.341,14.341,0,0,1,3.8-12.217c3.076-3.388,8.4-3.867,12.958-3.525,1.74-3.635,6.32-6.448,10.34-6.758A11.8,11.8,0,0,1,166.3,282.8c2.365,2.372,2.541,3.9,3.248,7.176a12.2,12.2,0,0,1,6.575.431,9.6,9.6,0,0,1,3.01,1.934,14.769,14.769,0,0,1,4.838,8.844c2.59.484,4.885,1.418,6.438,3.545a12.7,12.7,0,0,1,2.3,8.155" transform="translate(41.125 -227.413)" fill="#2c2d40"/>
        <path id="Trazado_798408" data-name="Trazado 798408" d="M102.689,290.941H43.952a7.14,7.14,0,0,1,1.582-6.426,8.171,8.171,0,0,1,6.613-2.617,11.584,11.584,0,0,1,3.071-9.872C57.7,269.29,62,268.9,65.687,269.179a10.806,10.806,0,0,1,8.354-5.459,9.527,9.527,0,0,1,7.307,2.915c1.911,1.915,2.052,3.151,2.623,5.8a9.864,9.864,0,0,1,5.314.349,7.748,7.748,0,0,1,2.431,1.564,11.929,11.929,0,0,1,3.91,7.145,7.8,7.8,0,0,1,5.2,2.864A10.252,10.252,0,0,1,102.689,290.941Z" transform="translate(15.029 -232.723)" fill="none" stroke="#2c2d40" stroke-miterlimit="10" stroke-width="1"/>
      </g>
    </g>
  </g>
</svg>
