<svg id="Grupo_1064536" data-name="Grupo 1064536" xmlns="http://www.w3.org/2000/svg" xmlns:xlink="http://www.w3.org/1999/xlink" width="296.402" height="340.601" viewBox="0 0 296.402 340.601">
  <defs>
    <clipPath id="clip-path">
      <rect id="Rect치ngulo_373736" data-name="Rect치ngulo 373736" width="296.402" height="340.6" fill="none"/>
    </clipPath>
    <clipPath id="clip-path-3">
      <rect id="Rect치ngulo_373734" data-name="Rect치ngulo 373734" width="45.614" height="45.613" fill="none"/>
    </clipPath>
  </defs>
  <g id="Grupo_1064535" data-name="Grupo 1064535" clip-path="url(#clip-path)">
    <g id="Grupo_1064534" data-name="Grupo 1064534">
      <g id="Grupo_1064533" data-name="Grupo 1064533" clip-path="url(#clip-path)">
        <path id="Trazado_797803" data-name="Trazado 797803" d="M8.588,340.6A8.588,8.588,0,0,1,0,332.012V156.617c0-.784,0-1.568.029-2.339,0-.441,0-.883.017-1.326.057-2.939.206-5.931.458-9.142l.009-.129C3.559,104.7,20.213,68.532,47.407,41.835,74.885,14.857,110.688,0,148.215,0c39.667,0,76.936,16.376,104.944,46.113,27.882,29.541,43.243,68.823,43.243,110.6V332.012a8.588,8.588,0,0,1-8.589,8.588Z" fill="#ff8182"/>
        <path id="Trazado_797804" data-name="Trazado 797804" d="M284.131,153.7V329H4.906V153.6c0-.73,0-1.46.029-2.175,0-.43,0-.86.014-1.288v-.015c.057-2.949.214-5.868.444-8.773v-.015C11.333,65.319,71.334,5.575,144.533,5.575c38.546,0,73.442,16.6,98.691,43.412C268.5,75.768,284.131,112.81,284.131,153.7" transform="translate(2.652 3.013)" fill="#8edee0"/>
        <path id="Trazado_797805" data-name="Trazado 797805" d="M207.852,270.119H36.951c1.359-4.323,4.264-13.182,9.5-27.252v-.015c1.331-3.593,2.819-7.513,4.48-11.808q.365-.945.773-1.889c.687-1.59,1.46-3.178,2.319-4.739.257-.487.516-.972.8-1.445.587-1.044,1.217-2.075,1.876-3.092,1.058-1.661,2.189-3.306,3.377-4.91a116.082,116.082,0,0,1,8.459-10.134c.015-.014.029-.029.043-.029A195.832,195.832,0,0,1,94.1,182.192c6.17-4.623,10.42-7.313,10.42-7.313l-1.688-34.023s-.014,0,0-.015L102.148,127l-.186-3.522v-.186l-.171-3.62-.029-.43-.23-4.737,7.057,1.388,1.961.387,9.861,1.946,24.433,4.81,25.12,4.953v47.405l4.438,11.093,22.415,56.051v.014l.014.014,5.467,13.671.014.014.7,1.775.729,1.818Z" transform="translate(19.973 61.894)" fill="#ffb5ba"/>
        <path id="Trazado_797806" data-name="Trazado 797806" d="M138.647,131.241v31.174a60,60,0,0,1-38.073-21.3l-5.683-.473c12.095-9.6,28.756-12.967,43.756-9.4" transform="translate(51.292 70.191)" fill="#371a14"/>
        <path id="Trazado_797807" data-name="Trazado 797807" d="M95.868,39.318s-25.249-1.545-32.978,13.4-2.576,30.4-2.576,30.4S39.7,103.728,45.371,121.248s19.58,19.58,19.58,19.58-5.668,20.611,6.184,28.856,45.344-10.306,45.344-10.306Z" transform="translate(23.992 21.228)" fill="#e36729"/>
        <path id="Trazado_797808" data-name="Trazado 797808" d="M74.794,51.649s22.748-31.14,46.375-28.34c23.188,2.747,23.7,16.488,23.7,16.488s32.977-14.943,43.8,1.031-2.576,32.462-2.576,32.462,17,3.007,17,17c0,25.077-81.93,36.07-81.93,36.07Z" transform="translate(40.429 12.503)" fill="#e36729"/>
        <path id="Trazado_797809" data-name="Trazado 797809" d="M194.332,148.673c.057,2.419.214,3.679.257,6.084.014.357.014.715.014,1.074.186,19.68-.744,37.529-5.195,40.134-9.06,5.281-15.016,3.349-28.985,3.579-16.461.257-36.2-.53-49.553-1.188-8.946-.444-18.442-5.447-19.659-14.321L90.5,169.478l.065-5.732-.479-5.11a66.485,66.485,0,0,1-16.1-14.013q-1.652-1.976-3.135-4.079a61.693,61.693,0,0,1-4.91-8.059A65.622,65.622,0,0,1,59.6,113.649a65.916,65.916,0,0,1-1.474-13.942A66.829,66.829,0,0,1,183.153,66.844a61.127,61.127,0,0,1,3.95,8.2c.3.759.587,1.531.858,2.3a66.085,66.085,0,0,1,3.808,20.34c.271,3.32.988,12.509,1.645,24.046a29.362,29.362,0,0,0,4.666,4.022c8.131,5.9,15.073,10.921,14.959,12.982-.116,1.8-10.807,7.114-18.708,9.933" transform="translate(31.419 17.764)" fill="#ffb5ba"/>
        <path id="Trazado_797810" data-name="Trazado 797810" d="M152.751,86.4s4.179,19.167-5.226,30.566-20.377,7.251-20.377,7.251l-6.792,23.313-10.625-9.67-3.438-2.691-5.965,18.2-.872,2.676-2.172,5.572-.128-.065-5.41,1.867-1.953.538c-2.221.173-2.4-.055-4.574-.6a26.529,26.529,0,0,1-17.054-13.181,23.234,23.234,0,0,1-2.249-14.362,19.427,19.427,0,0,1,.8-3.266c-3.063-5.857-7.336-11.178-8.525-17.884A82.436,82.436,0,0,1,56.9,98.946c0-37.112,32.253-66.556,69.685-66.556a67.713,67.713,0,0,1,58.983,34.161,60.991,60.991,0,0,1,4.007,8.246c.305.763.595,1.539.87,2.317C163.463,92.469,152.751,86.4,152.751,86.4" transform="translate(30.756 17.508)" fill="#e36729"/>
        <path id="Trazado_797811" data-name="Trazado 797811" d="M129.909,55.324c-9.266-11.525-18.758-1.5-22.6,3.67-3.844-5.165-13.336-15.194-22.6-3.67C79.95,61.237,81.3,69.885,84.022,76.6c4.756,11.727,14.158,17.887,23.194,24.076l.014.006c.528.285,4.124-2.841,4.774-3.3,1.716-1.215,3.418-2.463,5.076-3.791a45.481,45.481,0,0,0,12.156-14.3c3.177-6.107,5.589-14.364,2.426-21.15a13.85,13.85,0,0,0-1.755-2.818" transform="translate(44.083 27.03)" fill="#8edee0"/>
        <path id="Trazado_797812" data-name="Trazado 797812" d="M125.477,86.894a3.827,3.827,0,0,0-.236,2.041,1.987,1.987,0,0,0,1.574,1.477,4.437,4.437,0,0,0,2.061-.291Q136.27,87.85,143.539,85a3.135,3.135,0,0,0,1.433-.909,3.178,3.178,0,0,0,.3-2.825,5.55,5.55,0,0,0-1.578-2.251c-6.751-6.285-15.245-1.191-18.214,7.878" transform="translate(67.664 41.205)" fill="#e36729"/>
        <path id="Trazado_797813" data-name="Trazado 797813" d="M105.635,115.7c-1.031,6.255-6.154,13-11.865,15.844a13.548,13.548,0,0,1-2.964,1.117,13.738,13.738,0,0,1-2.389.373,20.521,20.521,0,0,1-6.584-.644,26.2,26.2,0,0,1-16.818-13.111A23.278,23.278,0,0,1,62.8,104.992a19.393,19.393,0,0,1,.787-3.249,21,21,0,0,1,1.388-3.378,16.92,16.92,0,0,1,5.253-6.111C75.605,88.589,83.106,89.261,89,92.1a34.671,34.671,0,0,1,9.246,6.871,33.628,33.628,0,0,1,4.366,5.381,18.844,18.844,0,0,1,3.12,7.929,14.465,14.465,0,0,1-.1,3.422" transform="translate(33.778 48.504)" fill="#ffb5ba"/>
        <path id="Trazado_797814" data-name="Trazado 797814" d="M93.641,123.894c.017,0,.035,0,.052,0a.739.739,0,0,0,.686-.789c-.878-12.617-7.6-23.456-17.978-28.991-3.345-1.785-6.176-2.357-8.661-1.749a.739.739,0,1,0,.353,1.436c2.112-.519,4.6.011,7.612,1.616,9.926,5.3,16.356,15.686,17.2,27.79a.739.739,0,0,0,.736.689" transform="translate(36.311 49.799)" fill="#371a14"/>
        <g id="Grupo_1064532" data-name="Grupo 1064532" transform="translate(161.558 150.379)" opacity="0.48">
          <g id="Grupo_1064531" data-name="Grupo 1064531">
            <g id="Grupo_1064530" data-name="Grupo 1064530" clip-path="url(#clip-path-3)">
              <path id="Trazado_797815" data-name="Trazado 797815" d="M104.871,120.421a22.806,22.806,0,1,0,22.806-22.806,22.806,22.806,0,0,0-22.806,22.806" transform="translate(-104.871 -97.615)" fill="#e36729"/>
            </g>
          </g>
        </g>
        <path id="Trazado_797816" data-name="Trazado 797816" d="M130.84,96.124c0,3.482,2.469,6.305,5.515,6.305s5.515-2.824,5.515-6.305-2.469-6.3-5.515-6.3-5.515,2.822-5.515,6.3" transform="translate(70.724 48.551)" fill="#371a14"/>
        <path id="Trazado_797817" data-name="Trazado 797817" d="M132.137,111.4a37.431,37.431,0,0,0,21.261,6.644c.531,0,1.034,0,1.565-.028V116.54a35.707,35.707,0,0,1-21.97-6.349.741.741,0,1,0-.857,1.209" transform="translate(71.257 59.491)" fill="#371a14"/>
        <path id="Trazado_797818" data-name="Trazado 797818" d="M207.852,246.37H36.951c1.359-4.323,4.264-13.182,9.5-27.252V219.1c1.331-3.593,2.819-7.513,4.48-11.808q.365-.945.773-1.889c.687-1.59,1.46-3.178,2.319-4.739.257-.487.516-.972.8-1.445.587-1.044,1.217-2.075,1.876-3.092,1.058-1.661,2.189-3.306,3.377-4.91a116.082,116.082,0,0,1,8.459-10.134c.015-.014.029-.029.043-.029A195.834,195.834,0,0,1,94.1,158.442c13.269,7.915,29,11.551,44.5,11.294a109.625,109.625,0,0,0,35.8-7l22.415,56.051v.014l.014.014,5.467,13.671.014.014.7,1.775.729,1.818Z" transform="translate(19.973 85.644)" fill="#ffad01"/>
        <path id="Trazado_797819" data-name="Trazado 797819" d="M151.446,241.252H4.906V167.91A25.788,25.788,0,0,1,16.2,171.432a33.064,33.064,0,0,1,9.519,8.8c4.851,6.555,7.713,14.786,8.96,22.929a25.991,25.991,0,0,1,3.52-9.9,26.607,26.607,0,0,1,10.721-10.106,26.929,26.929,0,0,1,19.81-1.631q.6.171,1.16.387a23.629,23.629,0,0,1,3.593,1.588,25.275,25.275,0,0,1,2.862,1.8c.359.243.716.515,1.06.8a35.142,35.142,0,0,1,10.191,13.856c3.292,7.5,4.939,16.145,5.983,24.262,9.561-9.219,23.975-13.771,36.685-9.92a29.274,29.274,0,0,1,8.459,4.179c.587.414,1.16.858,1.718,1.317.644.528,1.288,1.088,1.889,1.675.316.3.63.615.932.93.585.615,1.145,1.245,1.673,1.9.459.559.9,1.146,1.317,1.733a27.6,27.6,0,0,1,5.2,15.214" transform="translate(2.652 90.762)" fill="#006a76"/>
        <path id="Trazado_797820" data-name="Trazado 797820" d="M226.592,166.2v75.975H111.355a29.522,29.522,0,0,1,12.109-22.142,28.548,28.548,0,0,1,14.915-4.967,28.888,28.888,0,0,1,18.449,5.281c-.143-1.9-.214-3.821-.23-5.739v-.015a84.055,84.055,0,0,1,6.04-31.689c.287-.7.573-1.4.874-2.09a33.529,33.529,0,0,1,5.41-9.089,6.1,6.1,0,0,1,.587-.658c.387-.4.8-.8,1.231-1.174a15.222,15.222,0,0,1,4.994-2.905l.129-.043c.186-.057.373-.128.573-.171.171-.057.344-.1.53-.143a11.952,11.952,0,0,1,1.745-.3c.3-.029.616-.043.931-.057a10.587,10.587,0,0,1,3.335.471,12.952,12.952,0,0,1,4.981,3.106c.186.173.373.359.544.544a34.968,34.968,0,0,1,3.063,3.593c1.7,2.22,3.321,4.5,4.882,6.828a130.407,130.407,0,0,1,9.289,16.317v.015c.715,1.445,1.388,2.905,2.032,4.38,2.391-7.858,4.853-15.86,8.816-22.974a48.425,48.425,0,0,1,4.939-7.328,36.5,36.5,0,0,1,5.067-5.024" transform="translate(60.191 89.837)" fill="#006a76"/>
        <path id="Trazado_797821" data-name="Trazado 797821" d="M61.07,250.255H59.982L54.314,219.8v-.015l-.5-2.691L51.48,204.552l-2.619-14.027-3.149-16.9-.616-3.349v-.043L41.76,152.337l-.086-.444a.47.47,0,0,1,.159-.471.511.511,0,0,1,.887.271l.057.287.129.7,2.576,13.856.414,2.248v.014l.887,4.723,3.235,17.391,2.262,12.195,1.1,5.811v.029L53.941,212Z" transform="translate(22.52 81.758)" fill="#371a14"/>
        <path id="Trazado_797822" data-name="Trazado 797822" d="M61.692,202.174l-2.83-5.125a35.2,35.2,0,0,0-3.5-5.5,22.719,22.719,0,0,0-11.908-7.111,51.956,51.956,0,0,0-14-1.263c1.109,3.9,1.49,8.22,2.881,12.024s3.8,7.475,7.479,9.172a21.281,21.281,0,0,0,7.536,1.451c4.847.334,9.933-1.6,14.338-3.648" transform="translate(15.923 99.004)" fill="#371a14"/>
        <path id="Trazado_797823" data-name="Trazado 797823" d="M49.173,201.665l.282-5.849a35.221,35.221,0,0,1,.716-6.476,22.72,22.72,0,0,1,7.558-11.63,51.945,51.945,0,0,1,12.012-7.3c.719,3.985,2.283,8.035,2.711,12.062S72.33,190.855,69.778,194a21.256,21.256,0,0,1-6.127,4.622c-4.2,2.437-9.621,2.944-14.478,3.043" transform="translate(26.58 92.112)" fill="#371a14"/>
        <path id="Trazado_797824" data-name="Trazado 797824" d="M71.36,148.539a21.606,21.606,0,0,1,1.288,2.961c.088.228.156.451.223.675a22.7,22.7,0,0,1-19.928,29.484c-.236.011-.467.034-.71.032a.048.048,0,0,1-.031,0c-.25.019-.505.023-.763.028A22.734,22.734,0,0,1,28.63,160.6c-.02-.345-.032-.678-.031-1.017A22.673,22.673,0,0,1,71.36,148.539" transform="translate(15.455 73.708)" fill="#ff8182"/>
        <path id="Trazado_797825" data-name="Trazado 797825" d="M52.2,174.453c-.25.017-.505.022-.761.026-2.878-7.669-7.11-16.262-14.224-22.151a6.507,6.507,0,0,0-3.915-1.864c-1.83.02-3.317,1.41-4.672,2.893-.018-.345-.031-.679-.031-1.018,1.308-1.36,2.835-2.579,4.7-2.587a6.642,6.642,0,0,1,4.116,1.822l.254.2.6.508c6.957,6.022,11.093,14.584,13.923,22.165" transform="translate(15.458 80.946)" fill="#fee9d2"/>
        <path id="Trazado_797826" data-name="Trazado 797826" d="M64.385,146.188c.088.228.156.451.223.675a28.377,28.377,0,0,0-8.287,4.169.514.514,0,0,0-.216.145,27.509,27.509,0,0,0-6.389,6.47,28.834,28.834,0,0,0-5.038,18.7c-.237.011-.467.034-.71.031a29.557,29.557,0,0,1,5.158-19.15,28.74,28.74,0,0,1,6.362-6.49,4.217,4.217,0,0,1,.6-.427,29.134,29.134,0,0,1,8.294-4.124" transform="translate(23.718 79.02)" fill="#fee9d2"/>
        <path id="Trazado_797827" data-name="Trazado 797827" d="M61.506,151.811a4.523,4.523,0,0,0-.216-.716,9.78,9.78,0,0,0-5.11-5.611,8.7,8.7,0,0,0-8.316.673,9.891,9.891,0,0,0-1.044.858,5.082,5.082,0,0,0-.974-.773,7.2,7.2,0,0,0-4.209-1.1,7.619,7.619,0,0,0-4.508,1.647,8.173,8.173,0,0,0-2.764,7.5v.014a3.623,3.623,0,0,0,.173.887l.673-.185h.015a7.476,7.476,0,0,1,2.346-7.658,7.055,7.055,0,0,1,3.807-1.488,6.781,6.781,0,0,1,4.079.972,8.635,8.635,0,0,1,.887.7,7.729,7.729,0,0,0-1.8,6.225,3.418,3.418,0,0,0,1.217,2.1c.015.014.015.029.029.029a1.631,1.631,0,0,0,.572.271,1.4,1.4,0,0,0,.544.043c.043,0,.1-.014.159-.014a2.4,2.4,0,0,0,1.675-1.775,7.209,7.209,0,0,0-1.417-6.885,8.441,8.441,0,0,1,.944-.787,8.015,8.015,0,0,1,7.629-.6,9.127,9.127,0,0,1,4.8,5.383c.057.186.114.371.157.558l.458-.128h.015l.228-.043c-.014-.043-.014-.072-.042-.1m-13.441,2.376c-.157.43-.515,1.174-1.131,1.3a.6.6,0,0,1-.157.014,1.1,1.1,0,0,1-.573-.186,1.521,1.521,0,0,1-.371-.373,2.894,2.894,0,0,1-.573-1.316,7.031,7.031,0,0,1,1.574-5.554,6.436,6.436,0,0,1,1.231,6.111" transform="translate(18.52 78.234)" fill="#fee9d2"/>
        <path id="Trazado_797828" data-name="Trazado 797828" d="M159.81,166.891l-.057.287-.143.7L156.761,181.6l-.473,2.291c0,.014-.014.014,0,.028l-.988,4.725L148,223.916l-.63,3.049-1.017,4.91-2.132,10.277h-1.1l1.631-7.858.558-2.662v-.014l.314-1.561,8.645-41.738.673-3.263,3.722-17.935.028-.2.059-.243a.539.539,0,0,1,.314-.387.476.476,0,0,1,.314-.029.572.572,0,0,1,.416.344.657.657,0,0,1,.014.287" transform="translate(77.362 89.862)" fill="#371a14"/>
        <path id="Trazado_797829" data-name="Trazado 797829" d="M153.352,220.847l-.679-5.816a35.052,35.052,0,0,0-1.154-6.413,22.722,22.722,0,0,0-8.331-11.09,51.928,51.928,0,0,0-12.478-6.467c-.448,4.025-1.733,8.171-1.886,12.218s.69,8.357,3.451,11.321a21.341,21.341,0,0,0,6.426,4.2c4.36,2.144,9.8,2.282,14.652,2.05" transform="translate(69.625 103.276)" fill="#371a14"/>
        <path id="Trazado_797830" data-name="Trazado 797830" d="M145.44,212.91q1.239-2.653,2.476-5.307a35.182,35.182,0,0,1,3.113-5.723,22.731,22.731,0,0,1,11.4-7.9,52.052,52.052,0,0,1,13.88-2.211c-.841,3.962-.927,8.3-2.057,12.192s-3.284,7.715-6.838,9.659a21.294,21.294,0,0,1-7.421,1.96c-4.813.664-10.018-.918-14.552-2.665" transform="translate(78.616 103.656)" fill="#371a14"/>
        <path id="Trazado_797831" data-name="Trazado 797831" d="M185.539,172.448a21.8,21.8,0,0,1,.072,3.227c-.006.245-.028.478-.049.71a22.7,22.7,0,0,1-29.608,19.747c-.222-.08-.444-.145-.669-.239a.047.047,0,0,1-.029-.012c-.237-.077-.476-.171-.715-.263a22.738,22.738,0,0,1-13.118-28.186c.114-.327.228-.639.357-.954a22.673,22.673,0,0,1,43.757,5.97" transform="translate(75.833 82.1)" fill="#ff8182"/>
        <path id="Trazado_797832" data-name="Trazado 797832" d="M154.859,191.089c-.237-.079-.476-.171-.715-.263.24-8.188-.424-17.744-4.779-25.89a6.513,6.513,0,0,0-2.918-3.206c-1.7-.675-3.6.049-5.42.91.112-.328.226-.639.356-.954,1.725-.766,3.6-1.314,5.333-.615a6.643,6.643,0,0,1,3.121,3.244c.052.1.1.193.156.288q.185.349.368.7c4.161,8.208,4.746,17.7,4.5,25.787" transform="translate(76.231 86.891)" fill="#fee9d2"/>
        <path id="Trazado_797833" data-name="Trazado 797833" d="M180.35,167.366c-.006.245-.028.476-.049.709a28.425,28.425,0,0,0-9.248.721.551.551,0,0,0-.254.052,27.517,27.517,0,0,0-8.362,3.573,28.829,28.829,0,0,0-11.742,15.4c-.223-.08-.445-.145-.67-.239a29.569,29.569,0,0,1,12.024-15.775,28.775,28.775,0,0,1,8.347-3.6,4.378,4.378,0,0,1,.716-.166,29.138,29.138,0,0,1,9.239-.678" transform="translate(81.094 90.408)" fill="#fee9d2"/>
        <path id="Trazado_797834" data-name="Trazado 797834" d="M170.337,165.344a8.724,8.724,0,0,0-7.945-2.519,9.617,9.617,0,0,0-1.288.4,6.3,6.3,0,0,0-.616-1.088,7.355,7.355,0,0,0-3.463-2.605,7.69,7.69,0,0,0-4.81-.186,8.176,8.176,0,0,0-5.4,5.9v.029a4.547,4.547,0,0,0-.186.873l.7.085h.014a7.464,7.464,0,0,1,5.067-6.2,7.06,7.06,0,0,1,4.079.059,6.8,6.8,0,0,1,3.422,2.446,7.588,7.588,0,0,1,.544.987,7.742,7.742,0,0,0-4.008,5.082,3.531,3.531,0,0,0,.216,2.246.555.555,0,0,0,.1.159.056.056,0,0,0,.014.043,1.965,1.965,0,0,0,.43.471,1.485,1.485,0,0,0,.5.243l.128.043a2.425,2.425,0,0,0,2.234-1.017,5.341,5.341,0,0,0,.5-.658,7.292,7.292,0,0,0,.8-6.255,9.2,9.2,0,0,1,1.16-.359,8.03,8.03,0,0,1,7.285,2.32,9.135,9.135,0,0,1,2.419,6.8c-.028.2-.043.387-.071.587l.458.057h.014l.23.043c.014-.043.029-.072.014-.1a4.221,4.221,0,0,0,.059-.744,9.766,9.766,0,0,0-2.605-7.143M159.644,170.2a.814.814,0,0,1-.1.129c-.314.344-.93.915-1.545.787-.059-.015-.1-.029-.143-.043a1.066,1.066,0,0,1-.473-.4c0-.015-.014-.015-.014-.029a1.7,1.7,0,0,1-.2-.458,2.95,2.95,0,0,1-.015-1.417,7.016,7.016,0,0,1,3.551-4.552,6.442,6.442,0,0,1-1.06,5.983" transform="translate(79.261 85.97)" fill="#fee9d2"/>
        <path id="Trazado_797835" data-name="Trazado 797835" d="M194.871,191.677v13.641c-4.967,7.256-12.324,15.915-18.736,23.086h-6.1c7.1-13.253,17.733-31.575,24.833-36.728" transform="translate(91.912 103.608)" fill="#371a14"/>
        <path id="Trazado_797836" data-name="Trazado 797836" d="M169.452,237.845h-3.707c2.289-12.167,6.168-31,10.591-45.03V192.8c3.449-10.921,7.228-18.909,10.85-18.579a2.161,2.161,0,0,1,.715.171c8.316,3.321-8.846,42.884-18.449,63.452" transform="translate(89.591 94.168)" fill="#371a14"/>
        <path id="Trazado_797837" data-name="Trazado 797837" d="M34.4,228.9C21.65,214.655,5.26,194.558,10.986,191.124,17.011,187.5,31.554,212.208,40.5,228.9Z" transform="translate(5.303 103.117)" fill="#371a14"/>
        <path id="Trazado_797838" data-name="Trazado 797838" d="M42.573,237.846H38.867c-8.518-18.249-22.988-51.457-20.34-61.018a3.333,3.333,0,0,1,1.889-2.434c3.508-1.4,7.185,5.41,10.593,15.459,4.837,14.227,9.1,34.938,11.565,47.992" transform="translate(9.842 94.168)" fill="#371a14"/>
        <path id="Trazado_797839" data-name="Trazado 797839" d="M59.386,119.927A21.257,21.257,0,1,1,48.363,91.958a21.258,21.258,0,0,1,11.023,27.968" transform="translate(10.069 48.751)" fill="#ffad01"/>
        <path id="Trazado_797840" data-name="Trazado 797840" d="M30.432,102.4a2.7,2.7,0,1,1-1.4-3.551,2.7,2.7,0,0,1,1.4,3.551" transform="translate(13.652 53.309)" fill="#371a14"/>
        <path id="Trazado_797841" data-name="Trazado 797841" d="M42.4,107.6a2.7,2.7,0,1,1-1.4-3.551,2.7,2.7,0,0,1,1.4,3.551" transform="translate(20.12 56.12)" fill="#371a14"/>
        <path id="Trazado_797842" data-name="Trazado 797842" d="M33.182,110.958a3.323,3.323,0,0,1-.9-.125c-3.941-1.086-2.368-7.847-2.3-8.136a.417.417,0,0,1,.812.194c-.015.063-1.457,6.265,1.71,7.137,3.19.889,5.655-4.937,5.68-5a.418.418,0,0,1,.772.319c-.1.246-2.365,5.606-5.774,5.606" transform="translate(16.009 55.338)" fill="#371a14"/>
        <path id="Trazado_797843" data-name="Trazado 797843" d="M196.577,124.732A21.257,21.257,0,1,1,170.91,109.08a21.254,21.254,0,0,1,25.667,15.652" transform="translate(83.598 58.636)" fill="#ffad01"/>
        <path id="Trazado_797844" data-name="Trazado 797844" d="M165.522,122.977a2.7,2.7,0,1,1-3.26-1.987,2.7,2.7,0,0,1,3.26,1.987" transform="translate(86.593 65.358)" fill="#371a14"/>
        <path id="Trazado_797845" data-name="Trazado 797845" d="M178.2,119.9a2.7,2.7,0,1,1-3.26-1.986,2.7,2.7,0,0,1,3.26,1.986" transform="translate(93.448 63.697)" fill="#371a14"/>
        <path id="Trazado_797846" data-name="Trazado 797846" d="M171.135,129.31c-3.194,0-5.463-5.091-5.569-5.333a.417.417,0,0,1,.764-.334c.026.059,2.624,5.874,5.671,4.66,3.083-1.228,1.531-7.351,1.514-7.413a.417.417,0,1,1,.807-.21c.072.28,1.753,6.9-2.013,8.4a3.136,3.136,0,0,1-1.174.234" transform="translate(89.476 65.064)" fill="#371a14"/>
        <path id="Trazado_797847" data-name="Trazado 797847" d="M137.353,27.528a21.257,21.257,0,1,1-25.667-15.652,21.258,21.258,0,0,1,25.667,15.652" transform="translate(51.585 6.094)" fill="#ffad01"/>
        <path id="Trazado_797848" data-name="Trazado 797848" d="M106.3,25.773a2.7,2.7,0,1,1-3.26-1.987,2.7,2.7,0,0,1,3.26,1.987" transform="translate(54.581 12.816)" fill="#371a14"/>
        <path id="Trazado_797849" data-name="Trazado 797849" d="M118.979,22.7a2.7,2.7,0,1,1-3.26-1.987,2.7,2.7,0,0,1,3.26,1.987" transform="translate(61.435 11.154)" fill="#371a14"/>
        <path id="Trazado_797850" data-name="Trazado 797850" d="M111.911,32.106c-3.192,0-5.461-5.091-5.567-5.333a.417.417,0,0,1,.764-.334c.026.059,2.625,5.871,5.669,4.66,3.084-1.228,1.531-7.351,1.516-7.413a.417.417,0,1,1,.807-.21c.074.28,1.752,6.9-2.013,8.4a3.138,3.138,0,0,1-1.175.234" transform="translate(57.463 12.521)" fill="#371a14"/>
        <path id="Trazado_797851" data-name="Trazado 797851" d="M41.607,71.127a.656.656,0,0,1-.656-.656V40.961a.656.656,0,0,1,1.313,0V70.47a.656.656,0,0,1-.656.656" transform="translate(22.136 21.786)" fill="#fee9d2"/>
        <path id="Trazado_797852" data-name="Trazado 797852" d="M34.834,65.289a.657.657,0,0,1-.464-1.122L55.236,43.3a.656.656,0,1,1,.929.927L35.3,65.1a.655.655,0,0,1-.464.193" transform="translate(18.474 23.302)" fill="#fee9d2"/>
        <path id="Trazado_797853" data-name="Trazado 797853" d="M61.538,51.2H32.029a.656.656,0,1,1,0-1.313H61.538a.656.656,0,1,1,0,1.313" transform="translate(16.958 26.964)" fill="#fee9d2"/>
        <path id="Trazado_797854" data-name="Trazado 797854" d="M55.7,65.289a.655.655,0,0,1-.464-.193L34.37,44.23A.656.656,0,1,1,35.3,43.3L56.164,64.168a.657.657,0,0,1-.464,1.122" transform="translate(18.475 23.302)" fill="#fee9d2"/>
        <path id="Trazado_797855" data-name="Trazado 797855" d="M96.462,221.978a.656.656,0,0,1-.656-.656V191.812a.656.656,0,1,1,1.313,0v29.509a.656.656,0,0,1-.656.656" transform="translate(51.787 103.327)" fill="#fee9d2"/>
        <path id="Trazado_797856" data-name="Trazado 797856" d="M89.689,216.141a.657.657,0,0,1-.464-1.121l20.865-20.865a.656.656,0,0,1,.929.927L90.153,215.949a.654.654,0,0,1-.464.193" transform="translate(48.125 104.843)" fill="#fee9d2"/>
        <path id="Trazado_797857" data-name="Trazado 797857" d="M116.393,202.047H86.884a.657.657,0,0,1,0-1.314h29.509a.657.657,0,0,1,0,1.314" transform="translate(46.609 108.504)" fill="#fee9d2"/>
        <path id="Trazado_797858" data-name="Trazado 797858" d="M110.556,216.141a.654.654,0,0,1-.464-.193L89.225,195.082a.656.656,0,0,1,.929-.927l20.865,20.865a.657.657,0,0,1-.464,1.121" transform="translate(48.126 104.843)" fill="#fee9d2"/>
        <path id="Trazado_797859" data-name="Trazado 797859" d="M165.7,101.9a.656.656,0,0,1-.656-.656V71.736a.656.656,0,1,1,1.313,0v29.506a.656.656,0,0,1-.656.656" transform="translate(89.212 38.42)" fill="#fee9d2"/>
        <path id="Trazado_797860" data-name="Trazado 797860" d="M158.927,96.062a.657.657,0,0,1-.464-1.122l20.865-20.865a.656.656,0,0,1,.929.927L159.391,95.87a.655.655,0,0,1-.464.193" transform="translate(85.551 39.936)" fill="#fee9d2"/>
        <path id="Trazado_797861" data-name="Trazado 797861" d="M185.631,81.968H156.122a.656.656,0,0,1,0-1.313h29.509a.656.656,0,1,1,0,1.313" transform="translate(84.035 43.597)" fill="#fee9d2"/>
        <path id="Trazado_797862" data-name="Trazado 797862" d="M179.793,96.062a.655.655,0,0,1-.464-.193L158.462,75a.656.656,0,1,1,.929-.927l20.865,20.865a.657.657,0,0,1-.464,1.122" transform="translate(85.551 39.936)" fill="#fee9d2"/>
      </g>
    </g>
  </g>
</svg>
