<svg xmlns="http://www.w3.org/2000/svg" width="190" height="178.658" viewBox="0 0 190 178.658">
  <g id="Grupo_1064821" data-name="Grupo 1064821" transform="translate(0 0)">
    <g id="Grupo_1064822" data-name="Grupo 1064822" transform="translate(0 0)">
      <path id="Trazado_798629" data-name="Trazado 798629" d="M156.182,122.656c-30.15,30.37-11.805,47.986-57.758,48.8-44.849.787-68.482,6.092-87.573-32.027-19.6-39.133,37.988-40.59,31.211-114.813-5.993-65.628,200.231,11.308,114.12,98.042" transform="translate(8.443 0)" fill="#8edee0"/>
      <path id="Trazado_798630" data-name="Trazado 798630" d="M122.673,28.368a9.949,9.949,0,0,0-13.561-9.339,12.871,12.871,0,0,0-19.039-6.564,20.09,20.09,0,0,0-36.614,7.825,11.484,11.484,0,0,0-17.872,9.552c0,.128.031.25.036.378h86.864a10.053,10.053,0,0,0,.187-1.853" transform="translate(44.434 4.266)" fill="#ff8182"/>
      <path id="Trazado_798631" data-name="Trazado 798631" d="M78.612,42.206a8.983,8.983,0,0,0-12.242-8.43,11.619,11.619,0,0,0-17.186-5.923,18.133,18.133,0,0,0-33.05,7.063A10.367,10.367,0,0,0,0,43.537c0,.117.031.225.036.342H78.443a8.923,8.923,0,0,0,.169-1.673" transform="translate(0 24.578)" fill="#ff8182"/>
      <path id="Trazado_798632" data-name="Trazado 798632" d="M123.283,66.224a7.98,7.98,0,0,0-10.877-7.49,10.323,10.323,0,0,0-15.27-5.264,16.116,16.116,0,0,0-29.369,6.276,9.212,9.212,0,0,0-14.335,7.661c0,.1.027.2.034.3h69.669a8.083,8.083,0,0,0,.148-1.486" transform="translate(66.717 57.702)" fill="#ff8182"/>
      <path id="Trazado_798633" data-name="Trazado 798633" d="M178.343,80.22c0,3.832-38.841,6.942-86.759,6.942S4.825,84.051,4.825,80.22s38.845-6.942,86.759-6.942,86.759,3.108,86.759,6.942" transform="translate(6.025 91.496)" fill="#ffd5d5"/>
      <path id="Trazado_798642" data-name="Trazado 798642" d="M74.273,45.1a11.7,11.7,0,1,1-11.7-11.7,11.705,11.705,0,0,1,11.7,11.7" transform="translate(63.516 41.701)" fill="#006a76"/>
      <path id="Trazado_798643" data-name="Trazado 798643" d="M59.715,38.628a6.474,6.474,0,0,0-6.406,5.586H66.128a6.481,6.481,0,0,0-6.413-5.586" transform="translate(66.563 48.232)" fill="#fff"/>
      <path id="Trazado_798644" data-name="Trazado 798644" d="M57.046,38.2a1.871,1.871,0,1,1-1.869-1.873A1.87,1.87,0,0,1,57.046,38.2" transform="translate(66.557 45.362)" fill="#fff"/>
      <path id="Trazado_798645" data-name="Trazado 798645" d="M60.861,38.2a1.872,1.872,0,1,1-1.873-1.873A1.874,1.874,0,0,1,60.861,38.2" transform="translate(71.318 45.362)" fill="#fff"/>
      <path id="Trazado_798646" data-name="Trazado 798646" d="M38.524,25.427a9.354,9.354,0,1,1-9.354-9.354,9.355,9.355,0,0,1,9.354,9.354" transform="translate(24.742 20.069)" fill="#006a76"/>
      <path id="Trazado_798647" data-name="Trazado 798647" d="M26.959,20.072a5.43,5.43,0,0,0-5.374,4.679H32.331a5.426,5.426,0,0,0-5.372-4.679" transform="translate(26.952 25.062)" fill="#fff"/>
      <path id="Trazado_798648" data-name="Trazado 798648" d="M24.668,19.81a1.5,1.5,0,1,1-1.5-1.5,1.5,1.5,0,0,1,1.5,1.5" transform="translate(27.066 22.864)" fill="#fff"/>
      <path id="Trazado_798649" data-name="Trazado 798649" d="M27.718,19.81a1.5,1.5,0,1,1-1.5-1.5,1.5,1.5,0,0,1,1.5,1.5" transform="translate(30.872 22.864)" fill="#fff"/>
      <path id="Trazado_798650" data-name="Trazado 798650" d="M71.587,22.342a9.353,9.353,0,1,1-9.352-9.357,9.352,9.352,0,0,1,9.352,9.357" transform="translate(66.029 16.213)" fill="#006a76"/>
      <path id="Trazado_798651" data-name="Trazado 798651" d="M60.1,16.909a5.365,5.365,0,0,0-5.314,4.63H65.408a5.368,5.368,0,0,0-5.311-4.63" transform="translate(68.404 21.113)" fill="#fff"/>
      <path id="Trazado_798652" data-name="Trazado 798652" d="M57.734,16.348a1.5,1.5,0,1,1-1.5-1.5,1.5,1.5,0,0,1,1.5,1.5" transform="translate(68.354 18.542)" fill="#fff"/>
      <path id="Trazado_798653" data-name="Trazado 798653" d="M60.784,16.348a1.5,1.5,0,1,1-1.5-1.5,1.5,1.5,0,0,1,1.5,1.5" transform="translate(72.159 18.542)" fill="#fff"/>
      <path id="Trazado_798654" data-name="Trazado 798654" d="M33.8,33.416a5.837,5.837,0,1,1-5.84-5.837,5.84,5.84,0,0,1,5.84,5.837" transform="translate(27.631 34.435)" fill="#006a76"/>
      <path id="Trazado_798655" data-name="Trazado 798655" d="M26.544,30.189a3.232,3.232,0,0,0-3.2,2.788h6.4a3.228,3.228,0,0,0-3.2-2.788" transform="translate(29.15 37.694)" fill="#fff"/>
      <path id="Trazado_798656" data-name="Trazado 798656" d="M25.21,29.976a.933.933,0,1,1-.933-.933.932.932,0,0,1,.933.933" transform="translate(29.148 36.263)" fill="#fff"/>
      <path id="Trazado_798657" data-name="Trazado 798657" d="M27.116,29.976a.935.935,0,1,1-.938-.933.935.935,0,0,1,.938.933" transform="translate(31.522 36.263)" fill="#fff"/>
      <path id="Trazado_798658" data-name="Trazado 798658" d="M20.919,41.211a5.837,5.837,0,1,1-5.84-5.84,5.84,5.84,0,0,1,5.84,5.84" transform="translate(11.542 44.165)" fill="#006a76"/>
      <path id="Trazado_798659" data-name="Trazado 798659" d="M13.659,37.982a3.232,3.232,0,0,0-3.2,2.786h6.4a3.228,3.228,0,0,0-3.2-2.786" transform="translate(13.062 47.425)" fill="#fff"/>
      <path id="Trazado_798660" data-name="Trazado 798660" d="M12.325,37.768a.933.933,0,1,1-.933-.933.936.936,0,0,1,.933.933" transform="translate(13.059 45.993)" fill="#fff"/>
      <path id="Trazado_798661" data-name="Trazado 798661" d="M14.231,37.768a.935.935,0,1,1-.935-.933.936.936,0,0,1,.935.933" transform="translate(15.433 45.993)" fill="#fff"/>
      <g id="Grupo_1064823" data-name="Grupo 1064823">
        <path id="Trazado_798634" data-name="Trazado 798634" d="M72.741,23.21s-3.162,6.278,0,7.245c0,0,3.162-.166,0-7.245" transform="translate(89.072 28.98)" fill="#ff8182"/>
        <path id="Trazado_798635" data-name="Trazado 798635" d="M64.881,28.3s-3.162,6.28,0,7.243c0,0,3.162-.169,0-7.243" transform="translate(79.258 35.331)" fill="#ff8182"/>
        <path id="Trazado_798636" data-name="Trazado 798636" d="M58.381,23.21s-3.162,6.278,0,7.245c0,0,3.162-.166,0-7.245" transform="translate(71.142 28.98)" fill="#ff8182"/>
        <path id="Trazado_798637" data-name="Trazado 798637" d="M71.329,31.675s-3.162,6.276,0,7.243c0,0,3.162-.164,0-7.243" transform="translate(87.309 39.55)" fill="#ff8182"/>
        <path id="Trazado_798638" data-name="Trazado 798638" d="M65.561,19.054s-3.162,6.278,0,7.245c0,0,3.162-.169,0-7.245" transform="translate(80.107 23.791)" fill="#ff8182"/>
        <path id="Trazado_798639" data-name="Trazado 798639" d="M73.366,61.317s-3.162,6.278,0,7.243c0,0,3.162-.169,0-7.243" transform="translate(89.853 76.562)" fill="#ff8182"/>
        <path id="Trazado_798640" data-name="Trazado 798640" d="M66.186,43.023s-3.162,6.278,0,7.245c0,0,3.162-.166,0-7.245" transform="translate(80.888 53.719)" fill="#ff8182"/>
        <path id="Trazado_798641" data-name="Trazado 798641" d="M70.7,57.852s-3.162,6.276,0,7.243c0,0,3.162-.164,0-7.243" transform="translate(86.529 72.235)" fill="#ff8182"/>
        <path id="Trazado_798662" data-name="Trazado 798662" d="M17.2,41.309s-3.162,6.278,0,7.245c0,0,3.162-.169,0-7.245" transform="translate(19.728 51.579)" fill="#ff8182"/>
        <path id="Trazado_798663" data-name="Trazado 798663" d="M9.344,46.395s-3.162,6.28,0,7.243c0,0,3.162-.169,0-7.243" transform="translate(9.913 57.93)" fill="#ff8182"/>
        <path id="Trazado_798664" data-name="Trazado 798664" d="M2.843,41.309s-3.162,6.278,0,7.245c0,0,3.162-.169,0-7.245" transform="translate(1.796 51.579)" fill="#ff8182"/>
        <path id="Trazado_798665" data-name="Trazado 798665" d="M15.793,49.773s-3.162,6.278,0,7.243c0,0,3.162-.164,0-7.243" transform="translate(17.965 62.147)" fill="#ff8182"/>
      </g>
      <path id="Trazado_798666" data-name="Trazado 798666" d="M46.311,40.191c-3.081-2.249-8.48-4.441-9.006,4.072-.648,10.661,9.532,28.454,13.744,32.592s26.41,13.431,26.41,13.431a14.578,14.578,0,0,1,3-3.672L57.619,65.025s-2.7-18.562-11.308-24.834" transform="translate(46.544 47.647)" fill="#e7cde8"/>
      <path id="Trazado_798667" data-name="Trazado 798667" d="M20.6,93.62s4.286,5.945,9.777,6.454c11.9,1.1,31.8-4.218,42.589-16.035,0,0-8.1,1.489-4.821-2.107s3.389.823,6.438-22.567C76.275,46.359,63.759,27.951,43.4,43.55,28.665,54.845,18.47,83.225,20.6,93.62" transform="translate(25.37 46.918)" fill="#f3e4f3"/>
      <path id="Trazado_798668" data-name="Trazado 798668" d="M60.342,75.5s-2.033,3.859.22,5.253,17.346.724,19.246-1.064-13.463-5.4-13.463-5.4Z" transform="translate(74.294 92.758)" fill="#e04469"/>
      <path id="Trazado_798669" data-name="Trazado 798669" d="M20.6,93.224s4.272,5.925,9.752,6.449c-.016-6.024,6.681-15.158,4.225-29.506-3.431-20.038,18.76-32.272,18.76-32.272a29.765,29.765,0,0,0-9.939,5.26C28.665,54.448,18.47,82.828,20.6,93.224" transform="translate(25.37 47.315)" fill="#e7cde8"/>
      <path id="Trazado_798670" data-name="Trazado 798670" d="M46.4,34.171s-1.05,6.989-5.28,9.487c-2.7,1.583,3.31,15.3,4.855,12,1.99-4.252,1.428-7.843,6.222-11.216Z" transform="translate(50.486 42.666)" fill="#f2ab8f"/>
      <path id="Trazado_798671" data-name="Trazado 798671" d="M59.532,35.329c1.2,5.32-4.457,21.366-9.941,22.043-2.386.29-7.607-5.372-7.486-14.009.047-3.557,1.158-9.512,6.791-12.482,2.545-1.349,9.233-1.752,10.636,4.448" transform="translate(52.571 37.526)" fill="#ffae93"/>
      <path id="Trazado_798672" data-name="Trazado 798672" d="M74.689,50.38c-9.876,4.367-20.611,16.8-31.919,29.093-6.083,3.733-16,7.171-22.533-4.077,0,0-.679,30.777,17.449,35.416,0,0,34.966,9.849,45.487-35.083,0,0,1.079,19.8,25.513,32.5,0,0,4.506.821,7.072-2.856,0,0-20.28-64.185-41.069-54.995" transform="translate(25.263 61.781)" fill="#247fad"/>
      <path id="Trazado_798673" data-name="Trazado 798673" d="M77.053,64.141s1.079,19.8,25.515,32.5a7.777,7.777,0,0,0,1.41.067c-8.435-7.6-19.239-26.981-21.5-32.146-2.473-5.644-2.622-12.851-14.8,9.2-17.676,32.025-42.2,22.212-42.549,22.214a16.828,16.828,0,0,0,6.431,3.247s34.966,9.847,45.487-35.083" transform="translate(31.383 73.371)" fill="#1a6d91"/>
      <path id="Trazado_798674" data-name="Trazado 798674" d="M54.849,59.988s.753,1.509,4.63-1.835c2.889-2.5,5.487,4.374,3.5,5.372s-4.3,1.781-10.209.724c0,0,.769-3.335,2.078-4.261" transform="translate(65.891 71.934)" fill="#ffae93"/>
      <path id="Trazado_798675" data-name="Trazado 798675" d="M40.655,41.276c-3.521-1.48-11.3-.007-9.856,8.4C32.605,60.2,46.6,75.194,51.64,78.25s28.787,7.027,28.787,7.027A14.563,14.563,0,0,1,82.5,81.016L55.325,65.237s-4.855-19.826-14.67-23.961" transform="translate(38.236 50.906)" fill="#e7cde8"/>
      <path id="Trazado_798676" data-name="Trazado 798676" d="M74.987,34.386s-2.977-9.716-15.441-8.968S42.6,37.728,38.615,45.151s-6.483,16.395-12.707,22,26.615-3.694,33.637-20.163C65.8,32.32,72.754,32.68,74.987,34.386" transform="translate(31.373 31.687)" fill="#42244a"/>
      <path id="Trazado_798677" data-name="Trazado 798677" d="M52.018,31.43a4.484,4.484,0,1,1-4.486-4.484,4.486,4.486,0,0,1,4.486,4.484" transform="translate(53.753 33.645)" fill="#e04469"/>
      <path id="Trazado_798678" data-name="Trazado 798678" d="M63.657,40.631c-.9,2.046-1.576,3.148-5.547-.067-4.871-3.962-6.433.236-6.744,1.821-.89,4.648-5.055.483-6.074,6.06s-5.464-3.668-5.523-4.637.052-10.676,7.753-13.825c10.681-4.362,18.94,4.333,16.134,10.647" transform="translate(49.649 35.966)" fill="#42244a"/>
    </g>
  </g>
</svg>
