<svg id="Grupo_1064829" data-name="Grupo 1064829" xmlns="http://www.w3.org/2000/svg" xmlns:xlink="http://www.w3.org/1999/xlink" width="152.949" height="178.657" viewBox="0 0 152.949 178.657">
  <defs>
    <clipPath id="clip-path">
      <rect id="Rectángulo_373867" data-name="Rectángulo 373867" width="152.949" height="178.657" fill="none"/>
    </clipPath>
  </defs>
  <g id="Grupo_1064828" data-name="Grupo 1064828" transform="translate(0 0)" clip-path="url(#clip-path)">
    <path id="Trazado_798712" data-name="Trazado 798712" d="M127.951,114.77C111.925,151.83,107.512,160.133,74,160.953c-32.711.794-49.944,6.147-63.869-32.319C-4.162,89.141-7.3,12.765,32.9,12.765c48.062,0,126.2,29.968,95.055,102" transform="translate(0.286 9.319)" fill="#8edee0"/>
    <path id="Trazado_798713" data-name="Trazado 798713" d="M141.031,99.6c0,2.024-29.9,3.666-66.774,3.666S7.488,101.62,7.488,99.6s29.893-3.669,66.769-3.669,66.774,1.645,66.774,3.669" transform="translate(5.466 70.029)" fill="#ffd5d5"/>
    <path id="Trazado_798714" data-name="Trazado 798714" d="M59.238,101.508S7.82,82.8,14.5,51.908C16.7,41.771-3.167,32.225,9.133,19.587S31.16-2.184,43.519.456c12.5,2.669,14.456,12.37,20.236,17C72.061,24.1,85.4,37.993,70.1,51.1c-.735.626-2.365-1.675-5.54-4-2.5-1.829-6.777.125-7.524-4.254l.163-5.725-3.818-.306.635-5.309-3.685-1.128-.439-3.822L46.083,24.1l-1.118,5.514,4.282,2.562-.213,4,4.014,2.406.557,3.924,9.572,8.226-6.8,1.867S46.6,54.978,36.86,45.75,33.644,23.62,29.229,24.3,21.6,33.381,24.018,37.855,37.734,52.017,34.193,67.819c-4.841,21.6,17.136,18.9,17.136,18.9Z" transform="translate(3.712 0)" fill="#ff8182"/>
    <path id="Trazado_798715" data-name="Trazado 798715" d="M45.912,62.048s25.691.27,27.86-14.411c.706-4.822,11.015-5.735,7.7-13.32S75.383,21.109,69.515,20.226c-5.934-.888-8.4,3.052-11.705,4.13-4.747,1.55-12.9,5.453-8.342,13.738.22.4,1.313-.344,3.1-.841,1.4-.393,2.957,1.176,4.01-.628l.875-2.541,1.728.5.6-2.439,1.808.111.823-1.607,2.078-.45-.42,2.609-2.306.415-.564,1.794-2.163.4-.893,1.635-5.567,2.035,2.682,1.943s3.9,2.663,9.709.216,5.067-9.2,6.9-8.167,1.855,5.251.054,6.815-8.37,3.962-9.423,11.493c-1.438,10.292-10.654,5.481-10.654,5.481Z" transform="translate(33.517 14.672)" fill="#ff8182"/>
    <path id="Trazado_798716" data-name="Trazado 798716" d="M64.428,94.664S33.3,113.61,20.012,97.273C15.655,91.91,2.419,98.263.973,86.606s-2.147-20.518,4.37-25.847c6.59-5.386,12.451-2.365,17.262-3.446,6.913-1.55,19.693-2.7,20.136,10.712.017.645-1.856.529-4.386,1.216-2,.536-2.758,3.574-5.346,2.142L30.1,68.916l-1.751,1.855-2.495-2.54-2.121,1.446-2.169-1.362-2.863.952,2.4,2.879,3.118-1.159,1.988,1.775,2.924-1.085L31.4,73.021l8.261-1.55L37.8,75.786s-2.827,6.076-11.681,7.3S13.275,75.539,11.789,78.12s1.545,7.745,4.879,8.351,13.074-1.237,19.816,7.187c9.214,11.508,16.965-1.038,16.965-1.038Z" transform="translate(0 41.18)" fill="#ff8182"/>
    <path id="Trazado_798717" data-name="Trazado 798717" d="M36,108.936s49.353,20.973,65.217-5.633c5.206-8.731,25.821-2.291,25.452-19.57s-1.228-30.331-11.844-36.7c-10.742-6.441-18.632-.794-25.866-1.349-10.4-.791-29.248.254-27.034,19.873.106.939,2.81.377,6.636.834,3.014.365,4.775,4.623,8.235,1.984l3.714-4.211,2.939,2.332,3.1-4.232,3.4,1.657,2.87-2.441,4.365.777-2.882,4.7-4.782-1.022-2.522,3.014-4.483-.964-3.024,2.439-12.363-.5,3.63,5.884s5.406,8.24,18.562,8.147,17.1-13.712,19.809-10.273-.607,11.607-5.327,13.2-19.3.972-27.326,14.669c-10.97,18.712-24.918,2.092-24.918,2.092Z" transform="translate(26.278 32.062)" fill="#ff8182"/>
    <path id="Trazado_798718" data-name="Trazado 798718" d="M24.68,115.127c0-7.757,11.043-26.684,19.26-38.28C55.206,53.7,49.3,63.45,58.307,73.579c0,0,14.749,18.413-14.989,39.765,0,0,18.944-11.337,35.817.22,0,0-2.086,8.225-3.993,11.065,0,0-50.462,2.041-50.462-9.5" transform="translate(18.017 45.716)" fill="#d33764"/>
    <path id="Trazado_798719" data-name="Trazado 798719" d="M51.672,74.085S18.5,107.405,32.45,114.042L58.494,74.085l0-.01c-.047-.277-.1-.54-.154-.8l-.005-.026Z" transform="translate(21.188 53.471)" fill="#c6285c"/>
    <path id="Trazado_798720" data-name="Trazado 798720" d="M67.505,98.483l-.279-4.4-8.176.325.277,4.4Z" transform="translate(43.109 68.684)" fill="#f79c84"/>
    <path id="Trazado_798721" data-name="Trazado 798721" d="M62.32,95.053s2.42-3.207,3.8-1.663,2.813,12.861,1.846,14.621-5.474-9.18-5.474-9.18a2.933,2.933,0,0,0,.4-2.147,8.2,8.2,0,0,0-.569-1.631" transform="translate(45.496 67.871)" fill="#7575e0"/>
    <path id="Trazado_798722" data-name="Trazado 798722" d="M68.268,99.937l-.145-4.406-8.183.081.147,4.4Z" transform="translate(43.758 69.741)" fill="#ffae93"/>
    <path id="Trazado_798723" data-name="Trazado 798723" d="M63.211,96.421s2.515-3.135,3.849-1.55,2.429,12.934,1.408,14.671-5.2-9.339-5.2-9.339a2.952,2.952,0,0,0,.462-2.133,8.11,8.11,0,0,0-.522-1.649" transform="translate(46.146 68.932)" fill="#8888ed"/>
    <path id="Trazado_798724" data-name="Trazado 798724" d="M30.469,114.131c.742-7.721,11.046-19.565,17.418-30.367,1.246-5.034-.666-13.153-10.872-14.465,0,0,23.117-8.714,31.327,2.071,0,0,9.24,20.6-19.788,38.947,0,0,21-6.2,36.943,6.6a6.772,6.772,0,0,1-1.033,5.924c-50.417,5.2-54.731-1.064-54-8.711" transform="translate(22.193 48.163)" fill="#e04469"/>
    <path id="Trazado_798725" data-name="Trazado 798725" d="M30.12,46.536a10.624,10.624,0,0,0,1.611-6.2c-.149-3.744,2.156-.45,2.472,1.145s.42,3.389-1.476,7.349c0,0-2.206-1.192-2.607-2.3" transform="translate(21.989 28.192)" fill="#ffae93"/>
    <path id="Trazado_798726" data-name="Trazado 798726" d="M56.285,56.164c1.682-1.9,2.73-5.687-4.751-6.109S25.651,58.648,22.6,61.233s1.616,4.8,3.526,5.339c6.245,1.756,25.464-5.105,30.156-10.408" transform="translate(15.768 36.531)" fill="#006a76"/>
    <path id="Trazado_798727" data-name="Trazado 798727" d="M21.648,67.844C24.933,58.7,36.2,42.734,36.2,42.734l3.6,1.758s-6.143,20.946-8.811,25.143c-1.337,2.109-9.339-1.791-9.339-1.791" transform="translate(15.804 31.197)" fill="#006a76"/>
    <path id="Trazado_798728" data-name="Trazado 798728" d="M44.83,47.905c-5.522,1.1-12.986,3.4-13.854,11.181-.855,7.65,7.193,11.769,4.967,32.836-.721,6.806,27.988,4.356,31.314,2.169,8.218-5.4-7.235-13.88-5.856-36,.758-12.131-12.6-10.979-16.57-10.188" transform="translate(22.567 34.643)" fill="#006a76"/>
    <path id="Trazado_798729" data-name="Trazado 798729" d="M52.546,66.963c-.54,2.457-10.648-3.024-9.536-8.481,1.317-6.458,6.424-15.247,9.107-18.084s5.842-.227,6.211,1.362c1.2,5.19-3.375,14.3-5.782,25.2" transform="translate(31.336 28.571)" fill="#006a76"/>
    <path id="Trazado_798730" data-name="Trazado 798730" d="M37.5,43.387s1.541,5.694,4.841,7.647c2.09,1.247-3.355,11.7-4.55,9.126-1.545-3.322-1.107-6.13-4.825-8.764Z" transform="translate(24.067 31.674)" fill="#f2ab8f"/>
    <path id="Trazado_798731" data-name="Trazado 798731" d="M29.1,42.876c-1.105,4.105,2.846,16.787,7.1,17.482,1.842.3,6.081-3.957,6.252-10.7.074-2.778-.621-7.455-4.924-9.934-1.951-1.133-7.154-1.633-8.427,3.152" transform="translate(21.107 28.443)" fill="#f2ab8f"/>
    <path id="Trazado_798732" data-name="Trazado 798732" d="M26.7,44.507s2.934,4.233,7.283,1.977C38.6,44.1,38.6,44.1,39.47,45.216c2.266,2.924,3.913-2.552,4.121,6.13.024,1.007,1.5,1.325,1.569.564s1.166-8.9-4.289-12.43-11.647.4-14.169,5.027" transform="translate(19.493 27.826)" fill="#42244a"/>
    <path id="Trazado_798733" data-name="Trazado 798733" d="M40.348,41.226a10.644,10.644,0,0,0-6.363-.7c-3.682.685-.754-2.073.775-2.619s3.291-.9,7.484.4c0,0-.86,2.353-1.9,2.913" transform="translate(23.511 27.316)" fill="#ffae93"/>
    <path id="Trazado_798734" data-name="Trazado 798734" d="M61.324,40.656c-8.469-2.694-25.207-3.1-25.207-3.1v3.071s19.06,8.2,23.355,8.5c2.163.147,1.851-8.469,1.851-8.469" transform="translate(26.367 27.416)" fill="#006a76"/>
    <path id="Trazado_798735" data-name="Trazado 798735" d="M54.285,58.09c.4-6.392-3.13-9.079-7.133-10.093l-4.934-.54h-.047c-.043.043-3.972,3.77,1.007,9.4,5.012,5.661,9.859,11.671,10.245,20.2.284,6.2-.855,13.205.2,18.587,3.2-.433,5.673-1,6.515-1.554,8.218-5.4-7.235-13.882-5.856-36" transform="translate(29.682 34.645)" fill="#006a76"/>
  </g>
</svg>
