<svg id="Grupo_1064832" data-name="Grupo 1064832" xmlns="http://www.w3.org/2000/svg" xmlns:xlink="http://www.w3.org/1999/xlink" width="151.727" height="188.324" viewBox="0 0 151.727 188.324">
  <defs>
    <clipPath id="clip-path">
      <rect id="Rectángulo_373869" data-name="Rectángulo 373869" width="151.727" height="188.324" fill="none"/>
    </clipPath>
  </defs>
  <g id="Grupo_1064831" data-name="Grupo 1064831" transform="translate(0 0)" clip-path="url(#clip-path)">
    <path id="Trazado_798736" data-name="Trazado 798736" d="M3.046,96C10.4,73.991,8.3,61.4,49.836,17.177,75.3-9.934,102.753-11.19,119.086,59.688c9.856,42.767,37.99,58.212,31.747,99.353-6.071,40.01-112.19,34.407-137.779,2.829C-3.7,141.2-.987,108.07,3.046,96" transform="translate(0 0)" fill="#8edee0"/>
    <path id="Trazado_798737" data-name="Trazado 798737" d="M8.516,84.117c8.23-23.951,63.56-114.95,79.091-63.289,17.941,59.664,61.076,95.93,52.331,130.835S38.193,180.98,15.437,152.9C.539,134.522,2.9,100.463,8.516,84.117" transform="translate(3.478 4.325)" fill="#60d5d8"/>
    <path id="Trazado_798738" data-name="Trazado 798738" d="M10.571,81.517C23.4,37.629,72.792-28.534,87.124,39.215c12.626,59.677,52.718,72.068,44.613,104.416s-91.406,31.181-112.5,5.156c-13.81-17.042-15.18-45-8.667-67.269" transform="translate(5.658 8.443)" fill="#8edee0"/>
    <path id="Trazado_798739" data-name="Trazado 798739" d="M13.408,77.678C17.046,63.721,71.147-36.515,84.69,55.017c6.337,42.829,45.37,54.411,38.2,83.018s-79.878,22.349-99.324,0c-20.9-24.019-12.547-51.218-10.161-60.358" transform="translate(8.094 14.036)" fill="#60d5d8"/>
    <path id="Trazado_798740" data-name="Trazado 798740" d="M15.2,75.322c2.917-11.185,47.928-89.978,62.756-24.38,8.689,38.43,37.851,58.168,32.108,81.1S47.189,143.776,29.3,128.159c-21.769-19-16.015-45.5-14.1-52.837" transform="translate(10.857 20.88)" fill="#8edee0"/>
    <path id="Trazado_798741" data-name="Trazado 798741" d="M19.608,69.183C21.869,60.5,41.371,12.008,52.878,62.9c6.741,29.817,46.606,35.13,42.148,52.921s-56.206,3.512-69.053-9.7c-12.893-13.259-7.851-31.255-6.366-36.939" transform="translate(14.446 33.218)" fill="#60d5d8"/>
    <path id="Trazado_798742" data-name="Trazado 798742" d="M22.684,68.5c1.523-5.85,14.66-38.519,22.412-4.237,4.542,20.088,38,29.239,35,41.229s-45.828-8.1-53.642-17.743c-5.115-6.313-4.768-15.423-3.766-19.25" transform="translate(18.344 40.566)" fill="#8edee0"/>
    <path id="Trazado_798743" data-name="Trazado 798743" d="M139.276,102.483c0,2.252-31.009,4.083-69.265,4.083S.751,104.735.751,102.483,31.758,98.4,70.011,98.4s69.265,1.829,69.265,4.081" transform="translate(0.624 81.758)" fill="#ffd5d5"/>
    <path id="Trazado_798744" data-name="Trazado 798744" d="M30.4,103.742,27.069,101.9l5.093-11.935,5.71,3.689Z" transform="translate(22.491 74.748)" fill="#ffae93"/>
    <path id="Trazado_798745" data-name="Trazado 798745" d="M28.952,95.617s-4.173.873-3.321,2.893,11.064,8.528,13.195,8.4-5.639-9.881-5.639-9.881a3.584,3.584,0,0,1-2.926-.121,8.7,8.7,0,0,1-1.309-1.291" transform="translate(21.201 79.444)" fill="#ff8182"/>
    <path id="Trazado_798746" data-name="Trazado 798746" d="M50.009,54.543S36.662,68.166,40.635,98.366c0,0-8.53,5.727-13.109,21.218,0,0,1.965,6.036,10.31,7.232,0,0,4.442-3.627,14.3-22.285C57.695,94,68,69.7,65.355,59.082c0,0-6.262-2.314-7.946-3.29-1.661-.956-7.4-1.249-7.4-1.249" transform="translate(22.87 45.317)" fill="#247fad"/>
    <path id="Trazado_798747" data-name="Trazado 798747" d="M40.635,98.562s-8.53,5.754-13.109,21.22c3.955-4.416,9.323-10.2,15.456-17.172,4.557-5.178.862-8.85.046-16.771-1.355-13.124,3.625,2.585,3.625,2.585,4.414-.353,12.882-21.123,16.714-27.56-1.765-1.069-14.154-6.558-14.154-6.558S36.662,68.363,40.635,98.562" transform="translate(22.87 45.121)" fill="#1a6d91"/>
    <path id="Trazado_798748" data-name="Trazado 798748" d="M48.586,20.647s-4.742-4.083-10.991.4S32.812,33.024,33.174,38.2s2.008,10.667.6,15.63,12.649-10.663,10.9-21.549c-1.554-9.693,2.186-11.793,3.909-11.635" transform="translate(27.224 15.741)" fill="#42244a"/>
    <path id="Trazado_798749" data-name="Trazado 798749" d="M42.415,38.31c-1.468-2.12-.17-5.275,4.736-3.687,6.785,2.2,18.448,8.136,21.154,11.132,2.7,2.979-.569,6.359-2.344,6.719-5.782,1.2-19.422-8.2-23.547-14.164" transform="translate(34.767 28.408)" fill="#ffae93"/>
    <path id="Trazado_798750" data-name="Trazado 798750" d="M51.535,30.433a10.25,10.25,0,0,1-3.794-5.2c-1.358-3.764-2.743.123-2.47,1.792s.544,3.651,4.418,7.095c0,0,1.816-2.475,1.846-3.684" transform="translate(37.586 19.642)" fill="#ffae93"/>
    <path id="Trazado_798751" data-name="Trazado 798751" d="M65.167,53.187c-2.095-9.848-14.9-25.835-14.9-25.835L46.758,29.3s6.419,18.323,9.229,22.185c1.426,1.957,9.18,1.706,9.18,1.706" transform="translate(38.849 22.726)" fill="#ffae93"/>
    <path id="Trazado_798752" data-name="Trazado 798752" d="M43.326,105.822l-3.781-.192L38.386,93.568l6.571,1.479Z" transform="translate(31.894 77.742)" fill="#ffae93"/>
    <path id="Trazado_798753" data-name="Trazado 798753" d="M39.946,99.092s-3.409,2.878-1.866,4.323,13.464,2.814,15.394,1.759-9.389-5.692-9.389-5.692a3.427,3.427,0,0,1-2.3.454,2.628,2.628,0,0,1-1.84-.844" transform="translate(31.306 82.331)" fill="#ff8182"/>
    <path id="Trazado_798754" data-name="Trazado 798754" d="M30.484,59.285s-4.9,18.429,13.438,42.751c0,0-4.6,9.189-.95,24.927,0,0,4.683,4.281,12.534,1.208,0,0,2.08-5.342,1.463-26.439-.352-11.9-3.356-38.124-10.894-46.063,0,0-6.589,1.073-8.535,1.053-1.915-.011-7.056,2.563-7.056,2.563" transform="translate(24.835 46.253)" fill="#247fad"/>
    <path id="Trazado_798755" data-name="Trazado 798755" d="M44.231,100.388s-4.586,9.215-.95,24.927c1.267-5.793,3.087-13.47,4.989-22.56C49.683,96,44.657,94.63,40.044,88.141,32.4,77.387,33.623,75.188,33.623,75.188c3.667-2.481,6.278-5.8,6.441-13.287C38,61.839,29.888,57.652,29.888,57.652s-3.993,18.417,14.343,42.736" transform="translate(24.527 47.901)" fill="#1a6d91"/>
    <path id="Trazado_798756" data-name="Trazado 798756" d="M28.756,80.163c-3.508,8.171,33.472,5.017,36.61-.432,1.223-2.142-4.09-12.234-3.036-17.437s5.117-6.565,2.781-17.562C61.919,29.69,42.085,31.274,37.44,35.555c-4.094,3.779-2.891,10.467-2.611,16.5s.628,12.485-6.073,28.107" transform="translate(23.698 27.088)" fill="#006a76"/>
    <path id="Trazado_798757" data-name="Trazado 798757" d="M40.536,26.744S41.654,34.067,39,37.493c-1.7,2.184,7.992,10.253,8.186,7.038.254-4.138-1.377-6.906,1.459-11.236Z" transform="translate(32.234 22.22)" fill="#f2ab8f"/>
    <path id="Trazado_798758" data-name="Trazado 798758" d="M51.646,23.448c2.722,3.973,3.3,19-.987,21.344-1.869,1.016-7.99-1.941-10.714-9.076-1.115-2.935-2.144-8.188,1.52-12.459,1.655-1.941,7.01-4.451,10.181.19" transform="translate(32.327 17.292)" fill="#ffae93"/>
    <path id="Trazado_798759" data-name="Trazado 798759" d="M34.83,51.547c.278,6.044.628,12.483-6.073,28.107-1.521,3.539,4.557,4.949,12.188,4.973,4.059-7.215-2.981-12.5,3.978-28.166s-1.882-21.782-1.882-21.782l-2.162-1.463a10.024,10.024,0,0,0-3.438,1.827c-.211.194-.4.4-.58.608l-2.279,5.8c-.348,3.151.092,6.719.249,10.092" transform="translate(23.697 27.598)" fill="#045058"/>
    <path id="Trazado_798760" data-name="Trazado 798760" d="M38.162,34.395c1.836-1.813,5.161-1.073,4.443,4.03-1,7.06-4.843,19.568-7.327,22.75s-6.364.533-7.023-1.152C26.076,54.531,33,39.472,38.162,34.395" transform="translate(23.133 27.832)" fill="#ffae93"/>
    <path id="Trazado_798761" data-name="Trazado 798761" d="M45.409,50.874a10.255,10.255,0,0,1,6.371-.969c3.967.529,1.153-2.49-.452-3.015s-3.5-1.2-8.338.655c0,0,1.362,2.75,2.419,3.329" transform="translate(35.719 38.49)" fill="#ffae93"/>
    <path id="Trazado_798762" data-name="Trazado 798762" d="M29.253,52.385c9.7,2.675,27.567-.784,27.567-.784l-.1-4.015S37.5,44.855,32.776,45.569c-2.395.359-3.523,6.816-3.523,6.816" transform="translate(24.305 37.762)" fill="#ffae93"/>
    <path id="Trazado_798763" data-name="Trazado 798763" d="M45.845,21.631a3.564,3.564,0,1,1-4.334-2.574,3.564,3.564,0,0,1,4.334,2.574" transform="translate(32.26 15.741)" fill="#e04469"/>
    <path id="Trazado_798764" data-name="Trazado 798764" d="M55.35,27.8c-.289,1.748-.6,2.732-4.284,1.033-4.526-2.095-4.909,1.446-4.835,2.73.223,3.751-3.8,1.362-3.493,5.853s-4.927-1.756-5.161-2.488-2.051-8.235,3.263-12.166c7.373-5.452,15.436-.379,14.511,5.039" transform="translate(30.813 16.968)" fill="#42244a"/>
    <path id="Trazado_798765" data-name="Trazado 798765" d="M65.454,41.919a44.172,44.172,0,0,1-16.7-3.909,44.383,44.383,0,0,1-14.235-9.3c-3.468-3.6-4.758-7.027-3.64-9.636,1.108-2.582,4.425-4,9.343-4a44.163,44.163,0,0,1,16.7,3.909c12.314,5.282,20.167,13.6,17.878,18.938-1.108,2.58-4.425,4-9.345,4M40.223,15.986c-4.53,0-7.549,1.225-8.5,3.448-.967,2.248.262,5.319,3.458,8.642a43.478,43.478,0,0,0,13.935,9.094A43.249,43.249,0,0,0,65.454,41c4.53,0,7.549-1.225,8.5-3.448,2.052-4.784-5.753-12.741-17.4-17.736a43.241,43.241,0,0,0-16.337-3.834" transform="translate(25.331 12.522)" fill="#ff8182"/>
    <path id="Trazado_798766" data-name="Trazado 798766" d="M60.96,33.47a32.632,32.632,0,0,1-12.325-2.884C39.52,26.676,33.718,20.491,35.428,16.5c.835-1.944,3.314-3.015,6.981-3.015a32.565,32.565,0,0,1,12.322,2.884c9.116,3.914,14.916,10.1,13.21,14.083-.835,1.944-3.316,3.015-6.981,3.015M42.41,14.4c-3.23,0-5.467.9-6.141,2.463-1.456,3.4,4.372,9.3,12.728,12.88A31.693,31.693,0,0,0,60.96,32.555c3.23,0,5.467-.9,6.139-2.463,1.456-3.393-4.372-9.292-12.728-12.88A31.685,31.685,0,0,0,42.41,14.4" transform="translate(29.188 11.207)" fill="#ff8182"/>
    <path id="Trazado_798767" data-name="Trazado 798767" d="M33.485,19.143A1.744,1.744,0,1,1,31.742,17.4a1.744,1.744,0,0,1,1.743,1.741" transform="translate(24.923 14.459)" fill="#ff8182"/>
    <path id="Trazado_798768" data-name="Trazado 798768" d="M53.516,24.78a1.953,1.953,0,1,1-1.952-1.952,1.95,1.95,0,0,1,1.952,1.952" transform="translate(41.22 18.967)" fill="#ff8182"/>
  </g>
</svg>
